<?xml version="1.0" encoding="UTF-8"?>
<svg version="1.1" viewBox="0 0 800 450"  preserveAspectRatio="none" xml:space="preserve" xmlns="http://www.w3.org/2000/svg">
<style type="text/css">
	.st0{fill:#696969;}
	.st1{fill:#414A50;}
	.st2{fill:#9B9B9B;}
	.st3{opacity:0.5;}
	.st4{fill:#FFFFFF;}
</style>
	<path class="st0" d="m640.1 447c-0.6 0-1.2-0.2-1.6-0.6l-9.3-9.3-0.1-0.1c-1.6-1.5-3.7-2.3-5.7-2.3h-3v0.1h-230.8v-419.5h113.8c2.2 0 4.3-0.8 5.8-2.4l9.1-9.1c0.3-0.3 0.9-0.7 1.6-0.7h265.8c0.6 0 1.2 0.2 1.6 0.6l9.1 9.1c0.3 0.3 0.7 0.9 0.7 1.6v421.1c0 0.6-0.2 1.2-0.6 1.6l-9.1 9.1c-0.3 0.3-0.9 0.7-1.6 0.7h-145.7z"/>
	<path class="st1" d="m14.4 447.1c-0.6 0-1.2-0.2-1.6-0.6l-9.1-9.1c-0.3-0.4-0.7-1-0.7-1.7v-421.2c0-0.6 0.2-1.2 0.6-1.6l9.1-9.1c0.3-0.3 0.9-0.7 1.6-0.7h264.7c0.6 0 1.2 0.2 1.6 0.6l9.3 9.3h0.1c1.6 1.5 3.7 2.3 5.7 2.3h104.3v419.6h-223.3c-2.2 0-4.3 0.8-5.8 2.4l-9.1 9.1c-0.3 0.3-0.9 0.7-1.6 0.7h-145.8z"/>
		<path class="st2" d="m785.2 6l8.8 8.8v420.5l-8.7 8.7h-145.1l-8.9-8.9-0.1-0.1-0.1-0.1c-2.2-2-4.9-3-7.7-3h-446.7c-3 0-5.8 1.2-7.9 3.3l-8.9 8.9h-145.2l-8.7-8.8v-420.6l8.7-8.7h264.1l8.9 8.9 0.1 0.1 0.1 0.1c2.2 2 4.9 3 7.7 3h207.7c3 0 5.8-1.2 7.9-3.3l8.9-8.9h265.1m0.7-5.9h-265.9c-1.4 0-2.7 0.6-3.7 1.5l-9.2 9.2c-1 1-2.3 1.5-3.7 1.5h-207.7c-1.4 0-2.7-0.6-3.7-1.5l-9.2-9.2c-1-1-2.3-1.5-3.7-1.5h-264.7c-1.4 0-2.7 0.6-3.7 1.5l-9.2 9.2c-1 1-1.5 2.3-1.5 3.7v421.2c0 1.4 0.6 2.7 1.5 3.7l9.2 9.2c1 1 2.3 1.5 3.7 1.5h145.7c1.4 0 2.7-0.6 3.7-1.5l9.2-9.2c1-1 2.3-1.5 3.7-1.5h446.6c1.4 0 2.7 0.6 3.7 1.5l9.2 9.2c1 1 2.3 1.5 3.7 1.5h145.7c1.4 0 2.7-0.6 3.7-1.5l9.2-9.2c1-1 1.5-2.3 1.5-3.7v-421.1c0-1.4-0.6-2.7-1.5-3.7l-9.2-9.2c-0.6-1-2-1.6-3.4-1.6z"/>
	<g class="st3">
		<rect class="st4" x="747.7" y="16.2" width="17.2" height="8.5"/>
		<rect class="st4" x="776.3" y="16.2" width="2.9" height="8.5"/>
		<path class="st4" d="m737.1 18.2v4.5h-81.8v-4.5h81.8m2-2h-85.8v8.5h85.8v-8.5z"/>
	</g>
	<g class="st3">
		<rect class="st4" x="48.6" y="430.8" width="5.7" height="8.5"/>
		<rect class="st4" x="41.5" y="430.8" width="4.3" height="8.5"/>
		<rect class="st4" x="34.3" y="430.8" width="2.9" height="8.5"/>
		<rect class="st4" x="27.2" y="430.8" width="1.4" height="8.5"/>
	</g>
</svg>
