<svg xmlns="http://www.w3.org/2000/svg" xmlns:xlink="http://www.w3.org/1999/xlink" viewBox="0 0 1585.1 355.79"><defs><style>.cls-1{fill:none;}.cls-2{fill:#b3b2a7;}.cls-3{fill:#e5e4d8;}.cls-4{fill:#dad8ca;}.cls-5{fill:#f4f4ee;}.cls-6{fill:#e3e1db;}.cls-7{fill:#ebeae3;}.cls-8{fill:#cecebf;}.cls-9{fill:#d0cec1;}.cls-10{fill:#f3f2eb;}.cls-11{fill:#2dbaea;}.cls-12{fill:#c4c3b7;}.cls-13{fill:#cecec1;}.cls-14{fill:#b96359;}.cls-15{fill:#eeede7;}.cls-16{fill:#f9f9f1;}.cls-17{fill:#fff;}.cls-18{clip-path:url(#clip-path);}.cls-19{fill:#e9e8e2;}.cls-20{clip-path:url(#clip-path-3);}.cls-21{fill:#bcbcb0;}.cls-22{fill:#c8c7bb;}.cls-23{fill:#d2d1c5;}.cls-24{fill:#e7c8c7;}.cls-25{fill:#dddbcd;}.cls-26{fill:#e0e0d1;}.cls-27{fill:#e5e2a3;}.cls-28{clip-path:url(#clip-path-4);}.cls-29{fill:#f6f6ef;}.cls-30{clip-path:url(#clip-path-5);}.cls-31{fill:#73726c;}.cls-32{fill:#dbdbd0;}.cls-33{fill:#dad8cc;}</style><clipPath id="clip-path"><circle class="cls-1" cx="623.12" cy="194.17" r="86.78" transform="translate(45.21 497.49) rotate(-45)"/></clipPath><clipPath id="clip-path-3"><circle class="cls-1" cx="623.12" cy="194.17" r="68.05"/></clipPath><clipPath id="clip-path-4"><path class="cls-1" d="M707.18,91.59l28.5-9.53a69.67,69.67,0,0,1,22.08-3.6h308.6V231.21H927.7a78.85,78.85,0,0,1-39.42-10.56A52.5,52.5,0,0,1,862,175.19L706.65,99.84A4.46,4.46,0,0,1,707.18,91.59Z"/></clipPath><clipPath id="clip-path-5"><path class="cls-1" d="M1157.58,113.57l-.15-.19a16.43,16.43,0,0,0-7.24-5.11l-83.83-29.81V231.21l83.83-29.81a16.41,16.41,0,0,0,7.24-5.1l6.25-7.67a16.49,16.49,0,0,0,3.7-10.4V131.44a16.49,16.49,0,0,0-3.7-10.4Z"/></clipPath></defs><title>SW-onboarding-storyboard-09082019</title><g id="tooltip"><path class="cls-2" d="M978.74,71l-2-7.66A.28.28,0,0,1,977,63l7.26.34a.28.28,0,0,1,.26.21l.91,3.41a.29.29,0,0,1-.12.31l-6.12,3.92A.28.28,0,0,1,978.74,71Z"/><rect class="cls-3" x="912.65" y="51.12" width="56.12" height="9.86" transform="translate(305.92 752.55) rotate(-51.06)"/><rect class="cls-4" x="913.85" y="72.74" width="26.86" height="19.54" rx="2.58"/><path class="cls-4" d="M963.74,79.19,956.92,81a1.13,1.13,0,0,1-1.37-.8L949.09,55.5a1.14,1.14,0,0,1,.8-1.37l6.82-1.78Z"/><path class="cls-5" d="M958.54,65.55a104.29,104.29,0,0,0,34.19,51.21L959,4A104.23,104.23,0,0,0,958.54,65.55Z"/><path class="cls-4" d="M960.06.91V1h0c-.36,1-.69,2-1,3l33.69,112.77c.83.67,1.66,1.34,2.51,2l0,0a1.36,1.36,0,0,0,2.13-1.48L962.65,1A1.36,1.36,0,0,0,960.06.91Z"/><path class="cls-6" d="M62.92,233.5l20.26,36.4a2.73,2.73,0,0,0,2.39,1.41h5.54a2.75,2.75,0,0,0,2.75-2.74V239.23Z"/><path class="cls-6" d="M53.05,154.89,73.3,118.48a2.76,2.76,0,0,1,2.4-1.41h5.54A2.74,2.74,0,0,1,84,119.82v29.34Z"/><polygon class="cls-2" points="1111.11 302.19 1140.3 273.45 1111.11 273.45 1111.11 302.19"/><polygon class="cls-7" points="1178.18 225.81 1025.5 302.19 745.07 311.79 410.06 311.79 19.94 227.23 20.86 219.26 1135.45 219.26 1178.18 225.81"/><path class="cls-8" d="M1031,308.22H1105a5.48,5.48,0,0,0,5.06-3.38L1122,276H1035.6Z"/><rect class="cls-2" x="50.25" y="175.19" width="1526.41" height="44.07"/><path class="cls-2" d="M373,194.6a3.15,3.15,0,1,1-3.15-3.14A3.15,3.15,0,0,1,373,194.6Z"/><path class="cls-9" d="M488.17,194.17v8.19a3.84,3.84,0,0,1-3.84,3.84H443.26a3.85,3.85,0,0,1-2.71-1.13L418.9,183.42a7.16,7.16,0,0,0-5-2.09H375.31a7.14,7.14,0,0,0-7.13,7.13V194a1.65,1.65,0,1,0,3.29,0v-5.52a3.82,3.82,0,0,1,3.84-3.83h38.55a3.82,3.82,0,0,1,2.71,1.12l21.65,21.65a7.12,7.12,0,0,0,5,2.09h41.07a7.14,7.14,0,0,0,7.13-7.13v-8.19a1.65,1.65,0,0,0-3.29,0Z"/><path class="cls-4" d="M492.65,189.89H487a1.11,1.11,0,0,1-1-.59l-4.33-8.21a1.1,1.1,0,0,1,1-1.61H497a1.1,1.1,0,0,1,1,1.61l-4.33,8.21A1.1,1.1,0,0,1,492.65,189.89Z"/><path class="cls-10" d="M490.86,194.17h-2.09a1.1,1.1,0,0,1-1.1-1.1v-3.18H492v3.18A1.1,1.1,0,0,1,490.86,194.17Z"/><path class="cls-4" d="M403.35,210.5h-9.23a8.54,8.54,0,0,1,0-17.08h9.23a8.54,8.54,0,0,1,0,17.08Z"/><rect class="cls-10" x="394.34" y="190.93" width="8.8" height="4.5" rx="1"/><rect class="cls-10" x="394.34" y="208.25" width="8.8" height="4.5" rx="1"/><polyline class="cls-9" points="241.06 195.58 220.44 195.58 220.44 198.87 241.06 198.87"/><path class="cls-9" d="M276.44,175.19v16.55a3,3,0,0,1-3,3H241.06v4.94h32.37a8,8,0,0,0,7.95-8V175.19Z"/><rect class="cls-4" x="237.49" y="191.28" width="23.04" height="12.41" rx="2.74"/><polyline class="cls-9" points="217.08 197.63 202.04 197.63 202.04 199.28 217.08 199.28"/><path class="cls-9" d="M217.08,194.47h-3.47a13.21,13.21,0,0,1-9.35-3.87l-1.91-1.91-1.16,1.16,1.91,1.91a14.85,14.85,0,0,0,10.51,4.36h3.47v-1.65Z"/><path class="cls-10" d="M217.06,201.06h3.42a2.19,2.19,0,0,0,2.2-2.19v-3.58a2.19,2.19,0,0,0-2.2-2.19h-3.42a1.1,1.1,0,0,0-1.1,1.1V200A1.1,1.1,0,0,0,217.06,201.06Z"/><rect class="cls-11" x="50.25" y="175.19" width="151.8" height="44.07"/><rect class="cls-12" x="186.94" y="175.19" width="7" height="44.07"/><rect class="cls-12" x="171.62" y="175.19" width="6.62" height="44.07"/><rect class="cls-12" x="157.95" y="175.19" width="6.24" height="44.07"/><rect class="cls-12" x="144.28" y="175.19" width="5.86" height="44.07"/><rect class="cls-12" x="131.7" y="175.19" width="5.47" height="44.07"/><rect class="cls-12" x="119.68" y="175.19" width="5.09" height="44.07"/><rect class="cls-12" x="107.65" y="175.19" width="4.71" height="44.07"/><rect class="cls-12" x="93.98" y="175.19" width="4.33" height="44.07"/><rect class="cls-12" x="81.95" y="175.19" width="3.94" height="44.07"/><rect class="cls-12" x="68.28" y="175.19" width="3.56" height="44.07"/><rect class="cls-12" x="55.7" y="175.19" width="3.18" height="44.07"/><rect class="cls-12" x="44.77" y="175.19" width="2.8" height="44.07"/><rect class="cls-12" x="36.03" y="175.19" width="2.41" height="44.07"/><rect class="cls-12" x="29.71" y="175.19" width="1.76" height="44.07"/><path class="cls-7" d="M8.49,175.19H1323.28l-9.71-19.51a5.51,5.51,0,0,0-4-3L841.22,78.46H488.59L25.62,159Z"/><polygon class="cls-13" points="383.06 97.53 445.3 98.05 400.37 112.08 296.56 112.08 383.06 97.53"/><polygon class="cls-2" points="432.37 147.07 376.02 147.36 328.38 168.65 397.02 168.65 432.37 147.07"/><polygon class="cls-14" points="544.8 78.46 525.39 90.31 567.01 90.31 572.85 78.46 544.8 78.46"/><polyline class="cls-3" points="521.2 76.12 173.01 174.14 173.6 176.25 521.79 78.23"/><polyline class="cls-3" points="533.4 75.86 317.34 172.38 318.23 174.38 534.3 77.86"/><polyline class="cls-3" points="546.35 76.24 387.98 172.87 389.13 174.75 547.49 78.11"/><polyline class="cls-3" points="376.67 147.62 539.05 147.62 539.05 146.52 376.67 146.52"/><polyline class="cls-3" points="413.26 159.28 528.38 159.28 528.38 158.19 413.26 158.19"/><polyline class="cls-3" points="420.6 128.18 338.53 128.18 338.53 129.27 420.6 129.27"/><polygon class="cls-4" points="191.49 175.19 1576.65 175.19 1576.65 168.65 196.41 168.65 191.49 175.19"/><path class="cls-3" d="M744.72,69.28H501.53a11,11,0,0,0-9.42,5.34l-2.29,3.84H756.43l-2.29-3.84A11,11,0,0,0,744.72,69.28Z"/><path class="cls-15" d="M1336.5,175.19l49.29-9.79h185.44a1.59,1.59,0,0,1,1.59,1.58v8.21Z"/><path class="cls-4" d="M1576.65,175.19h-3.83v-8l2.87,1.24a1.59,1.59,0,0,1,1,1.46Z"/><path class="cls-4" d="M1578.64,208h-2V186.49h2a3.23,3.23,0,0,1,3.23,3.23v15A3.23,3.23,0,0,1,1578.64,208Z"/><path class="cls-15" d="M1581.87,204.77h0V189.68a3.23,3.23,0,0,1,3.23,3.23v8.63A3.23,3.23,0,0,1,1581.87,204.77Z"/><polyline class="cls-3" points="712.02 148.5 806.48 148.5 806.48 147.4 712.02 147.4"/><path class="cls-6" d="M419.29,91.24l-58,10.07-1-5.86a2.74,2.74,0,0,1,2.23-3.17l52.63-9.13a2.74,2.74,0,0,1,3.17,2.23Z"/><path class="cls-6" d="M339.63,105.06l-58,10.1-1-5.86a2.74,2.74,0,0,1,2.23-3.17L335.44,97a2.74,2.74,0,0,1,3.17,2.23Z"/><polyline class="cls-3" points="523.49 91.26 711.22 91.26 711.22 90.16 523.49 90.16"/><polygon class="cls-4" points="191.49 225.81 1576.65 225.81 1576.65 219.26 196.41 219.26 191.49 225.81"/><polygon class="cls-15" points="1576.65 225.81 1576.65 231.97 1569.14 237.03 1563.33 237.03 1563.33 234.73 1385.02 234.73 1338.95 225.81 1576.65 225.81"/><rect class="cls-10" x="1561.1" y="222.54" width="11.71" height="6.22" rx="1.65"/><rect class="cls-10" x="1495.9" y="222.54" width="11.71" height="6.22" rx="1.65"/><path class="cls-4" d="M1296.68,251.49,1039,287.69l-11.63-18.57L1186.66,234h127.41a2.74,2.74,0,0,1,1.9,4.72l-7.09,6.86A22,22,0,0,1,1296.68,251.49Z"/><path class="cls-8" d="M1183.66,234h124.76a5.48,5.48,0,0,0,5.48-5.48v-2.67H1178.18v2.67A5.48,5.48,0,0,0,1183.66,234Z"/><path class="cls-6" d="M742.63,299.9l3.24,15.79h274.72a11,11,0,0,0,10.07-6.6l15.85-36.6a5.48,5.48,0,0,0-5-7.67h-73a5.36,5.36,0,0,0-.7.05L747.3,293.36A5.49,5.49,0,0,0,742.63,299.9Z"/><path class="cls-4" d="M513,307.4l-.21.62a5.48,5.48,0,0,1-5.2,3.77H173a11,11,0,0,1-10.32-7.24l-18.24-50.33h99.23l245.47,38.11a5.75,5.75,0,0,1,1.23.34l19.45,7.93A5.48,5.48,0,0,1,513,307.4Z"/><path class="cls-4" d="M763.17,315.69l4.51,4.62a5.45,5.45,0,0,0,4.64,1.6l46.86-6.22Z"/><polygon class="cls-4" points="736.54 175.19 736.54 219.26 709.6 251.49 671.03 297.63 575.22 297.63 536.35 251.13 509.71 219.26 509.71 175.19 536.35 152.19 536.65 151.93 575.22 90.71 671.03 90.71 709.6 151.93 736.54 175.19"/><path class="cls-3" d="M748.38,331.31H505.53a11,11,0,0,1-10.56-8l-3.23-11.51H762.18l-3.24,11.51A11,11,0,0,1,748.38,331.31Z"/><rect class="cls-16" x="575.2" y="297.63" width="95.84" height="21.35"/><polygon class="cls-10" points="575.2 318.99 509.71 219.26 575.2 297.63 575.2 318.99"/><polygon class="cls-10" points="671.05 318.99 736.54 219.26 671.05 297.63 671.05 318.99"/><rect class="cls-15" x="575.2" y="73.68" width="95.84" height="16.96"/><polygon class="cls-3" points="575.2 73.68 536.65 151.93 575.2 90.64 575.2 73.68"/><polygon class="cls-3" points="671.05 73.68 709.6 151.93 671.05 90.64 671.05 73.68"/><path class="cls-4" d="M692.74,65.12H665.3V58.4h27.44a1.09,1.09,0,0,1,1.09,1.1V64A1.09,1.09,0,0,1,692.74,65.12Z"/><rect class="cls-3" x="693.83" y="60.45" width="40.71" height="2.81"/><path class="cls-4" d="M740.18,65.1l-4.71-.75a1.09,1.09,0,0,1-.92-1.08V60.43a1.1,1.1,0,0,1,.92-1.08l4.71-.75a1.11,1.11,0,0,1,1.27,1.09V64A1.1,1.1,0,0,1,740.18,65.1Z"/><path class="cls-3" d="M678.7,65.3H647.57a2.19,2.19,0,0,1-2.19-2.19V47a2.19,2.19,0,0,1,2.19-2.2h14.84a2.21,2.21,0,0,1,1.31.43L680,57.3a2.17,2.17,0,0,1,.89,1.76v4A2.19,2.19,0,0,1,678.7,65.3Z"/><path class="cls-15" d="M663.89,54.56A5.89,5.89,0,1,1,658,48.67,5.89,5.89,0,0,1,663.89,54.56Z"/><path class="cls-4" d="M627.41,61.45l-.66-4.34,30.47-4.65a1.45,1.45,0,0,1,1.65,1.21l.22,1.48a1.44,1.44,0,0,1-1.21,1.64Z"/><path class="cls-4" d="M561.14,69.28h0a4,4,0,0,1,4-4H636a4,4,0,0,1,4,4Z"/><path class="cls-15" d="M579.2,65.3l44-15a2.32,2.32,0,0,1,3,1.75l2.56,13.3Z"/><path class="cls-4" d="M692.74,53.35H668.67a3.37,3.37,0,1,1,0-6.73h24.07a1.09,1.09,0,0,1,1.09,1.1v4.53A1.1,1.1,0,0,1,692.74,53.35Z"/><rect class="cls-3" x="693.83" y="48.67" width="40.71" height="2.81"/><path class="cls-4" d="M740.18,53.32l-4.71-.75a1.09,1.09,0,0,1-.92-1.08V48.66a1.11,1.11,0,0,1,.92-1.09l4.71-.75a1.11,1.11,0,0,1,1.27,1.09v4.33A1.1,1.1,0,0,1,740.18,53.32Z"/><path class="cls-4" d="M692.74,335.46H665.3v6.72h27.44a1.09,1.09,0,0,0,1.09-1.09v-4.53A1.09,1.09,0,0,0,692.74,335.46Z"/><rect class="cls-3" x="693.83" y="337.33" width="40.71" height="2.81"/><path class="cls-4" d="M740.18,335.49l-4.71.74a1.11,1.11,0,0,0-.92,1.09v2.83a1.09,1.09,0,0,0,.92,1.08l4.71.75a1.1,1.1,0,0,0,1.27-1.08v-4.33A1.1,1.1,0,0,0,740.18,335.49Z"/><path class="cls-3" d="M678.7,335.29H647.57a2.19,2.19,0,0,0-2.19,2.19V353.6a2.19,2.19,0,0,0,2.19,2.19h14.84a2.21,2.21,0,0,0,1.31-.43L680,343.29a2.19,2.19,0,0,0,.89-1.76v-4A2.19,2.19,0,0,0,678.7,335.29Z"/><path class="cls-15" d="M663.89,346a5.89,5.89,0,1,0-5.89,5.89A5.89,5.89,0,0,0,663.89,346Z"/><path class="cls-4" d="M627.41,339.13l-.66,4.34,30.47,4.66a1.45,1.45,0,0,0,1.65-1.21l.22-1.48a1.45,1.45,0,0,0-1.21-1.65Z"/><path class="cls-4" d="M561.14,331.31h0a4,4,0,0,0,4,4H636a4,4,0,0,0,4-4Z"/><path class="cls-15" d="M579.2,335.29l44,15a2.32,2.32,0,0,0,3-1.75l2.56-13.3Z"/><path class="cls-4" d="M692.74,347.24H668.67a3.36,3.36,0,1,0,0,6.72h24.07a1.09,1.09,0,0,0,1.09-1.09v-4.53A1.09,1.09,0,0,0,692.74,347.24Z"/><rect class="cls-3" x="693.83" y="349.11" width="40.71" height="2.81"/><path class="cls-4" d="M740.18,347.27l-4.71.74a1.11,1.11,0,0,0-.92,1.09v2.83a1.09,1.09,0,0,0,.92,1.08l4.71.75a1.1,1.1,0,0,0,1.27-1.08v-4.33A1.1,1.1,0,0,0,740.18,347.27Z"/><path class="cls-3" d="M217.57,232.53H31.1a5.52,5.52,0,0,1-2.75-.73l-27-15.58a2.74,2.74,0,0,1,1.37-5.11h183.4a1.61,1.61,0,0,1,.83.22l31.41,18.13A1.64,1.64,0,0,1,217.57,232.53Z"/><path class="cls-17" d="M217.57,232.53h-2.81l-37.12-21.42h8.51a1.61,1.61,0,0,1,.83.22l31.41,18.13A1.64,1.64,0,0,1,217.57,232.53Z"/><path class="cls-3" d="M218.39,158.43,187,176.56a1.62,1.62,0,0,1-.83.23H2.75a2.74,2.74,0,0,1-1.37-5.12l27-15.58a5.52,5.52,0,0,1,2.75-.73H217.57A1.64,1.64,0,0,1,218.39,158.43Z"/><path class="cls-17" d="M218.39,158.43,187,176.56a1.62,1.62,0,0,1-.83.23h-8.51l37.12-21.43h2.81A1.64,1.64,0,0,1,218.39,158.43Z"/><circle class="cls-10" cx="623.12" cy="194.17" r="86.78" transform="translate(45.21 497.49) rotate(-45)"/><g class="cls-18"><polyline class="cls-3" points="622.58 103.15 622.58 285.19 623.67 285.19 623.67 103.15"/><polyline class="cls-3" points="577.14 115.62 668.16 273.27 669.11 272.72 578.09 115.07"/><polyline class="cls-3" points="544.03 149.14 701.67 240.15 702.22 239.2 544.58 148.19"/><polyline class="cls-3" points="532.11 194.72 714.14 194.72 714.14 193.62 532.11 193.62"/><polyline class="cls-3" points="544.58 240.15 702.22 149.14 701.67 148.19 544.03 239.2"/><polyline class="cls-3" points="578.09 273.27 669.11 115.62 668.16 115.07 577.14 272.72"/></g><circle class="cls-19" cx="623.12" cy="194.17" r="86.78" transform="translate(45.21 497.49) rotate(-45)"/><g class="cls-18"><circle class="cls-10" cx="623.12" cy="194.17" r="81.37"/><polyline class="cls-3" points="622.58 103.15 622.58 285.19 623.67 285.19 623.67 103.15"/><polyline class="cls-3" points="577.14 115.62 668.16 273.27 669.11 272.72 578.09 115.07"/><polyline class="cls-3" points="544.03 149.14 701.67 240.15 702.22 239.2 544.58 148.19"/><polyline class="cls-3" points="532.11 194.72 714.14 194.72 714.14 193.62 532.11 193.62"/><polyline class="cls-3" points="544.58 240.15 702.22 149.14 701.67 148.19 544.03 239.2"/><polyline class="cls-3" points="578.09 273.27 669.11 115.62 668.16 115.07 577.14 272.72"/></g><circle class="cls-2" cx="623.12" cy="194.17" r="68.05"/><g class="cls-20"><path class="cls-21" d="M687.83,173.34l-15.75,5.73a1.65,1.65,0,0,1-2.11-1l-.39-1.07a1.65,1.65,0,0,1,1-2.11l15.75-5.73Z"/><path class="cls-21" d="M559.94,219.89l15.75-5.74a1.65,1.65,0,0,0,1-2.11l-.39-1.07a1.65,1.65,0,0,0-2.11-1l-15.75,5.73Z"/><path class="cls-21" d="M687.83,215.72,672.08,210a1.65,1.65,0,0,0-2.11,1l-.39,1.07a1.65,1.65,0,0,0,1,2.11l15.75,5.74Z"/><path class="cls-21" d="M559.94,169.18l15.75,5.73a1.65,1.65,0,0,1,1,2.11l-.39,1.07a1.65,1.65,0,0,1-2.11,1l-15.75-5.73Z"/><rect class="cls-21" x="620.78" y="125.03" width="4.7" height="18.44"/><rect class="cls-21" x="620.78" y="244.87" width="4.7" height="18.44"/><polygon class="cls-21" points="647.14 147.25 650.87 150.98 662.24 162.35 665.34 159.25 653.97 147.87 650.24 144.14 647.14 147.25 647.14 147.25"/><polyline class="cls-22" points="597.56 147.89 648.69 147.89 648.69 143.5 597.56 143.5"/><polygon class="cls-21" points="584.01 162.35 596.01 150.35 599.11 147.25 596.01 144.14 592.91 147.25 580.91 159.25 584.01 162.35 584.01 162.35"/><polyline class="cls-22" points="577.08 151.6 616.23 135.43 615.39 133.41 576.24 149.57"/><rect class="cls-23" x="591.2" y="138.37" width="8.75" height="5.36" rx="1.1" transform="translate(-8.75 238.01) rotate(-22.44)"/><path class="cls-10" d="M600.49,149.05l-2.76,1.14a1.1,1.1,0,0,1-1.43-.6l-2.1-5.08,4.79-2,2.09,5.08A1.09,1.09,0,0,1,600.49,149.05Z"/><polyline class="cls-22" points="670.01 149.57 630.86 133.41 630.02 135.43 669.17 151.6"/><rect class="cls-23" x="648" y="136.68" width="5.36" height="8.75" rx="1.1" transform="translate(271.95 688.63) rotate(-67.56)"/><path class="cls-10" d="M645.76,149.05l2.76,1.14a1.1,1.1,0,0,0,1.43-.6l2.1-5.08-4.79-2-2.09,5.08A1.09,1.09,0,0,0,645.76,149.05Z"/><polygon class="cls-21" points="650.24 244.2 653.97 240.47 665.34 229.09 662.24 225.99 650.87 237.37 647.14 241.1 650.24 244.2 650.24 244.2"/><polyline class="cls-22" points="597.56 244.84 648.69 244.84 648.69 240.45 597.56 240.45"/><polygon class="cls-21" points="580.91 229.09 592.91 241.1 596.01 244.2 599.11 241.1 596.01 237.99 584.01 225.99 580.91 229.09 580.91 229.09"/><polyline class="cls-22" points="576.24 238.77 615.39 254.94 616.23 252.91 577.08 236.74"/><rect class="cls-23" x="592.89" y="242.92" width="5.36" height="8.75" rx="1.1" transform="translate(139.67 703.38) rotate(-67.56)"/><path class="cls-10" d="M600.49,239.29l-2.76-1.13a1.08,1.08,0,0,0-1.43.59l-2.1,5.08,4.79,2,2.09-5.07A1.11,1.11,0,0,0,600.49,239.29Z"/><polyline class="cls-22" points="669.17 236.74 630.02 252.91 630.86 254.94 670.01 238.77"/><rect class="cls-23" x="646.31" y="244.61" width="8.75" height="5.36" rx="1.1" transform="translate(-45.13 267.08) rotate(-22.44)"/><path class="cls-10" d="M645.76,239.29l2.76-1.13a1.08,1.08,0,0,1,1.43.59l2.1,5.08-4.79,2-2.09-5.07A1.11,1.11,0,0,1,645.76,239.29Z"/><path class="cls-21" d="M661.24,177.84V210.5a5.47,5.47,0,0,1-3,4.87l-9.62,5-12.48,6.44-10.53,5.43a5.51,5.51,0,0,1-5,0l-11-5.66-12.47-6.44L588,215.37a5.48,5.48,0,0,1-3-4.87V177.84a5.48,5.48,0,0,1,3-4.87l8.74-4.51L609.2,162l11.41-5.89a5.51,5.51,0,0,1,5,0l11,5.66,12.47,6.44,9.19,4.74A5.47,5.47,0,0,1,661.24,177.84Z"/><polygon class="cls-24" points="629.17 200.92 624.21 203.47 624.21 203.47 624.19 203.48 620.51 205.36 620.51 205.37 616.68 207.33 610.2 194.7 596.72 168.46 609.2 162.02 619.57 182.21 619.57 182.21 621.5 185.97 622.85 188.59 625.98 194.7 629.17 200.92"/><polygon class="cls-24" points="648.65 220.34 636.17 226.78 624.21 203.48 624.21 203.47 622.85 200.82 619.7 194.7 616.53 188.52 621.5 185.97 624.19 184.58 625.15 184.09 629.02 182.1 635.49 194.7 648.65 220.34"/><polygon class="cls-24" points="629.72 187.43 625.98 194.7 622.85 200.82 622.04 202.38 620.51 205.36 609.63 226.54 597.16 220.11 610.2 194.7 617.23 181.01 619.57 182.21 624.19 184.58 624.75 184.87 629.72 187.43"/><polygon class="cls-24" points="649.08 168.23 635.49 194.7 635.49 194.71 629.57 206.24 624.21 203.48 624.19 203.48 622.04 202.38 622.04 202.37 617.08 199.82 619.7 194.7 622.85 188.59 624.75 184.87 625.15 184.09 636.61 161.79 649.08 168.23"/><path class="cls-23" d="M590.49,209.49V178.85a1.63,1.63,0,0,1,.89-1.46l31-16a1.61,1.61,0,0,1,1.51,0l31,16a1.63,1.63,0,0,1,.89,1.46v30.64a1.65,1.65,0,0,1-.89,1.47l-31,16a1.61,1.61,0,0,1-1.51,0l-31-16A1.65,1.65,0,0,1,590.49,209.49Z"/><path class="cls-25" d="M596.57,180.88l22.28-11.49a1.09,1.09,0,0,1,1.6,1V218a1.1,1.1,0,0,1-1.6,1l-22.28-11.5a1.1,1.1,0,0,1-.6-1V181.86A1.1,1.1,0,0,1,596.57,180.88Z"/><path class="cls-25" d="M650.27,181.86v24.62a1.11,1.11,0,0,1-.59,1L627.4,219a1.1,1.1,0,0,1-1.6-1V170.36a1.09,1.09,0,0,1,1.6-1l22.28,11.49A1.11,1.11,0,0,1,650.27,181.86Z"/><rect class="cls-10" x="587.81" y="186.42" width="5.36" height="15.51" rx="1.1"/><rect class="cls-10" x="653.08" y="186.42" width="5.36" height="15.51" rx="1.1"/></g><polygon class="cls-26" points="736.54 175.19 736.54 219.26 709.6 251.49 709.6 151.93 736.54 175.19"/><polygon class="cls-26" points="536.35 152.19 536.35 251.13 509.71 219.26 509.71 175.19 536.35 152.19"/><path class="cls-4" d="M1486.33,178.36v37.73a1.52,1.52,0,0,1-1.52,1.53H1468a1.54,1.54,0,0,1-1.22-.61l-2.8-3.76a1.52,1.52,0,0,1,1.22-2.43h18.87V183.63H1465.2a1.52,1.52,0,0,1-1.22-2.43l2.8-3.75a1.52,1.52,0,0,1,1.22-.62h16.81A1.53,1.53,0,0,1,1486.33,178.36Z"/><path class="cls-9" d="M1482.41,196.13H1386.8a3.28,3.28,0,0,0-2.33,1l-9.25,9.25,1.55,1.55,9.25-9.25a1.08,1.08,0,0,1,.78-.32h95.61v-2.2Z"/><rect class="cls-10" x="1479.96" y="194.67" width="8.37" height="5.1" rx="1.1"/><circle class="cls-10" cx="1376.24" cy="207.38" r="2.81"/><path class="cls-2" d="M1187.27,192.49a3.56,3.56,0,1,1-3.56-3.55A3.56,3.56,0,0,1,1187.27,192.49Z"/><path class="cls-2" d="M1480.05,190a3.56,3.56,0,1,1-3.56-3.55A3.55,3.55,0,0,1,1480.05,190Z"/><path class="cls-2" d="M1565.58,184.22a3.55,3.55,0,1,1-3.55-3.55A3.55,3.55,0,0,1,1565.58,184.22Z"/><path class="cls-9" d="M1476.49,188.44H1429l-7.19-7.2a3.33,3.33,0,0,0-2.33-1h-86.18a3.32,3.32,0,0,0-2.33,1h0l-9.14,9.14h-86.61a3.81,3.81,0,0,0-2.71,1.13,3.85,3.85,0,0,0-1.13,2.71v15a.55.55,0,0,1-.16.39.53.53,0,0,1-.39.16h-27.59a.57.57,0,0,1-.39-.16l-18-18a1.65,1.65,0,0,0-2.33,2.33l18,18a3.82,3.82,0,0,0,2.71,1.12h27.59a3.82,3.82,0,0,0,3.84-3.84v-15a.55.55,0,0,1,.16-.39.57.57,0,0,1,.39-.16h86.61a3.29,3.29,0,0,0,2.33-1l9.14-9.14h86.18l7.2,7.2a3.27,3.27,0,0,0,2.33,1h47.47a1.65,1.65,0,1,0,0-3.29Z"/><rect class="cls-4" x="1501.76" y="179.27" width="13.51" height="35.71" rx="1.65"/><rect class="cls-4" x="1519.14" y="202.18" width="12.81" height="12.81" rx="1.1"/><path class="cls-10" d="M1526.94,205.07h-2.78a1.09,1.09,0,0,0-1,.55l-1.39,2.41a1.08,1.08,0,0,0,0,1.1l1.39,2.41a1.09,1.09,0,0,0,1,.55h2.78a1.09,1.09,0,0,0,1-.55l1.39-2.41a1.08,1.08,0,0,0,0-1.1l-1.39-2.41A1.09,1.09,0,0,0,1526.94,205.07Z"/><path class="cls-10" d="M1201.48,183l-1.6,1.6a.88.88,0,0,0-.23.86l.58,2.18a.91.91,0,0,0,.63.63l2.19.59a.9.9,0,0,0,.86-.23l1.6-1.6a.89.89,0,0,0,.23-.86l-.58-2.19a.91.91,0,0,0-.63-.63l-2.19-.58A.86.86,0,0,0,1201.48,183Z"/><path class="cls-4" d="M1208.2,189.68l-1.6,1.6a.88.88,0,0,0-.23.86l.58,2.18a.91.91,0,0,0,.63.63l2.19.59a.9.9,0,0,0,.86-.23l1.6-1.6a.89.89,0,0,0,.23-.86l-.58-2.19a.91.91,0,0,0-.63-.63l-2.19-.58A.86.86,0,0,0,1208.2,189.68Z"/><path class="cls-4" d="M1214.92,196.4l-1.6,1.6a.88.88,0,0,0-.23.86l.58,2.18a.91.91,0,0,0,.63.63l2.19.59a.9.9,0,0,0,.86-.23l1.6-1.6a.89.89,0,0,0,.23-.86l-.58-2.19a.91.91,0,0,0-.63-.63l-2.19-.58A.86.86,0,0,0,1214.92,196.4Z"/><path class="cls-9" d="M1495.22,191.6h42.18a1.07,1.07,0,0,1,.77.32l18.95,19a4,4,0,0,0,1.28.85,3.74,3.74,0,0,0,1.42.28,3.88,3.88,0,0,0,3.53-2.28,3.86,3.86,0,0,0,.32-1.57V184.22a1.65,1.65,0,0,0-3.29,0v23.93a.7.7,0,0,1,0,.24.59.59,0,0,1-.2.22.56.56,0,0,1-.32.09.48.48,0,0,1-.18,0,.5.5,0,0,1-.19-.13l-19-18.95a4.41,4.41,0,0,0-3.1-1.28h-42.18a1.65,1.65,0,1,0,0,3.29Z"/><path class="cls-2" d="M1335.28,206H1294a3.28,3.28,0,0,1-2.33-1l-14-14-1.55,1.55,14,14a5.48,5.48,0,0,0,3.88,1.61h41.24V206Z"/><rect class="cls-10" x="1275.67" y="188.94" width="5.1" height="6.17" rx="1.1"/><path class="cls-9" d="M1333.44,206h-28.59a3.3,3.3,0,0,1-2.33-1l-14-14L1287,192.6l14,14a5.5,5.5,0,0,0,3.88,1.61h28.59V206Z"/><rect class="cls-10" x="1286.48" y="188.94" width="5.1" height="6.17" rx="1.1"/><rect class="cls-9" x="1332.52" y="204.58" width="8.26" height="5" rx="1.1"/><path class="cls-4" d="M1354.85,210.9h-10.17a9.41,9.41,0,0,1,0-18.81h10.17a9.41,9.41,0,1,1,0,18.81Z"/><rect class="cls-10" x="1344.92" y="189.34" width="9.69" height="4.95" rx="1.1"/><rect class="cls-10" x="1344.92" y="208.42" width="9.69" height="4.95" rx="1.1"/><rect class="cls-9" x="1412.9" y="204.61" width="30.58" height="9.66" rx="1.65"/><rect class="cls-27" x="1419.27" y="204.59" width="17.84" height="9.69"/><path class="cls-10" d="M707.18,91.59l28.5-9.53a69.67,69.67,0,0,1,22.08-3.6h308.6V231.21H927.7a78.85,78.85,0,0,1-39.42-10.56A52.5,52.5,0,0,1,862,175.19L706.65,99.84A4.46,4.46,0,0,1,707.18,91.59Z"/><g class="cls-28"><path class="cls-3" d="M850.34,169.84A77.79,77.79,0,0,1,926.66,77V75.89a78.91,78.91,0,0,0-78.9,78.91,79.92,79.92,0,0,0,1.47,15.26l1.11-.22Z"/><path class="cls-3" d="M808.56,149.72a81.24,81.24,0,0,1,22.17-52c12.73-13.2,29.89-21.28,48.76-21.28V75.36c-19.2,0-36.65,8.22-49.57,21.62a82.32,82.32,0,0,0-22.48,52.68l1.12.06Z"/><polyline class="cls-3" points="1037.05 78.46 1037.05 231.21 1040.89 231.21 1040.89 78.46"/><path class="cls-3" d="M945,232.58a36,36,0,0,1-19.66-6.06c-9.09-5.87-16.87-15.71-22.37-28.13s-8.71-27.41-8.71-43.55c0-21.52,5.72-41,14.93-55a56.21,56.21,0,0,1,16.15-16.62A36,36,0,0,1,945,77.11V76a37.13,37.13,0,0,0-20.27,6.24c-9.33,6-17.22,16-22.79,28.62a109.54,109.54,0,0,0-8.81,44c0,21.72,5.77,41.4,15.12,55.68a57.19,57.19,0,0,0,16.48,16.94A37.13,37.13,0,0,0,945,233.7v-1.12Z"/><path class="cls-3" d="M943.06,232.58a77.78,77.78,0,1,1,0-155.56V75.89a78.91,78.91,0,0,0,0,157.81v-1.12Z"/></g><path class="cls-29" d="M1157.58,113.57l-.15-.19a16.43,16.43,0,0,0-7.24-5.11l-83.83-29.81V231.21l83.83-29.81a16.41,16.41,0,0,0,7.24-5.1l6.25-7.67a16.49,16.49,0,0,0,3.7-10.4V131.44a16.49,16.49,0,0,0-3.7-10.4Z"/><g class="cls-30"><path class="cls-3" d="M1066.36,155.93h84.49v-2.19h-84.49v2.19Z"/><polyline class="cls-3" points="1153.97 109.81 1153.97 199.86 1155.07 199.86 1155.07 109.81"/><polyline class="cls-3" points="1066.66 223.69 1151.14 200.13 1150.55 198.01 1066.07 221.58"/><polyline class="cls-3" points="1150.63 190.76 1066.14 208.09 1066.58 210.24 1151.07 192.91"/><path class="cls-31" d="M1076,114.28l18.1,3.21a2.18,2.18,0,0,1,1.81,2.16v16.49a2.19,2.19,0,0,1-2.4,2.19l-18.11-1.74a2.19,2.19,0,0,1-2-2.18v-18A2.19,2.19,0,0,1,1076,114.28Z"/><path class="cls-31" d="M1150.85,129.39v12a2.2,2.2,0,0,1-2.4,2.19l-45-4.31a2.2,2.2,0,0,1-2-2.19V121.4a2.19,2.19,0,0,1,2.58-2.16l45,8A2.2,2.2,0,0,1,1150.85,129.39Z"/><polyline class="cls-3" points="1150.9 143.27 1066.41 135.06 1066.31 136.15 1150.8 144.36"/><path class="cls-31" d="M1087.92,96.14l6.38,1.79a2.19,2.19,0,0,1,1.6,2.11V111.3a2.19,2.19,0,0,1-2.61,2.15l-15-2.92a2.2,2.2,0,0,1-1.26-3.58l8.61-10.12A2.19,2.19,0,0,1,1087.92,96.14Z"/><path class="cls-31" d="M1150.85,115.48V122a2.19,2.19,0,0,1-2.61,2.15l-45-8.79a2.2,2.2,0,0,1-1.78-2.15v-10.4a2.19,2.19,0,0,1,2.79-2.11l45,12.65A2.19,2.19,0,0,1,1150.85,115.48Z"/><path class="cls-31" d="M1150.85,108.5l-64.23-22.84v5.43a2.19,2.19,0,0,0,1.6,2.11l62.63,17.71Z"/><polyline class="cls-3" points="1151.4 201.17 1151.4 107.64 1150.3 107.64 1150.3 201.17"/><path class="cls-31" d="M1165.19,127.14v1.11a2.2,2.2,0,0,1-3.76,1.54l-3.22-3.27a2.2,2.2,0,0,1-.63-1.54V123.2a2.2,2.2,0,0,1,3.9-1.39l3.21,4A2.19,2.19,0,0,1,1165.19,127.14Z"/><path class="cls-31" d="M1161.34,133.61l3.22,3.27a2.2,2.2,0,0,1,.63,1.54v14.22a2.2,2.2,0,0,1-2.2,2.19h-3.21a2.2,2.2,0,0,1-2.2-2.19V135.15A2.19,2.19,0,0,1,1161.34,133.61Z"/></g><path class="cls-4" d="M290.66,204.51l-.08-.08a1.23,1.23,0,0,1,0-1.75l14.15-14.15a1.24,1.24,0,0,1,1.76,0l.08.08a1.24,1.24,0,0,1,0,1.75l-14.16,14.15A1.23,1.23,0,0,1,290.66,204.51Z"/><path class="cls-4" d="M290.58,188.61l.08-.08a1.23,1.23,0,0,1,1.75,0l14.16,14.15a1.24,1.24,0,0,1,0,1.75l-.08.08a1.24,1.24,0,0,1-1.76,0l-14.15-14.15A1.23,1.23,0,0,1,290.58,188.61Z"/><rect class="cls-10" x="294.33" y="192.28" width="8.48" height="8.48" rx="2.48"/><path class="cls-4" d="M300.44,183.52a1.87,1.87,0,1,1-1.87-1.87A1.87,1.87,0,0,1,300.44,183.52Z"/><circle class="cls-9" cx="306.33" cy="210.94" r="1.86"/><circle class="cls-9" cx="298.57" cy="210.94" r="1.86"/><path class="cls-9" d="M292.68,210.94a1.86,1.86,0,1,1-1.86-1.86A1.86,1.86,0,0,1,292.68,210.94Z"/><circle class="cls-2" cx="324.68" cy="185.45" r="3.24"/><circle class="cls-2" cx="355.73" cy="196.42" r="3.24"/><path class="cls-9" d="M354.08,196.42v12.49H347V187.1a3.3,3.3,0,0,0-1-2.33,3.25,3.25,0,0,0-2.33-1h-7.06a3.29,3.29,0,0,0-3.29,3.29v21.81h-7.06V185.45a1.65,1.65,0,0,0-3.29,0v23.46a3.29,3.29,0,0,0,3.29,3.29h7.06a3.28,3.28,0,0,0,3.29-3.29V187.1h7.06v21.81A3.28,3.28,0,0,0,347,212.2h7.06a3.28,3.28,0,0,0,3.29-3.29V196.42a1.65,1.65,0,1,0-3.29,0Z"/><path class="cls-9" d="M465,187.24a2.56,2.56,0,1,1-2.56-2.56A2.56,2.56,0,0,1,465,187.24Z"/><path class="cls-9" d="M474.78,187.24a2.56,2.56,0,1,1-2.56-2.56A2.56,2.56,0,0,1,474.78,187.24Z"/><path class="cls-9" d="M454.79,196.73a2.56,2.56,0,1,1-2.55-2.56A2.56,2.56,0,0,1,454.79,196.73Z"/><path class="cls-9" d="M464.62,196.73a2.56,2.56,0,1,1-2.55-2.56A2.56,2.56,0,0,1,464.62,196.73Z"/><path class="cls-3" d="M175.55,268.57v-36h-35.1l20,37.33a2.74,2.74,0,0,0,2.41,1.45h9.91A2.74,2.74,0,0,0,175.55,268.57Z"/><path class="cls-17" d="M175.55,268.57v-36h-4.61v38.78h1.87A2.74,2.74,0,0,0,175.55,268.57Z"/><circle class="cls-2" cx="853.77" cy="209.5" r="3.55"/><path class="cls-2" d="M752.28,184.32a3.55,3.55,0,1,1-3.55-3.55A3.55,3.55,0,0,1,752.28,184.32Z"/><path class="cls-9" d="M747.56,185.49l8.7,8.7a7.19,7.19,0,0,0,5,2.09H851a1.1,1.1,0,0,1,.78.32,1.06,1.06,0,0,1,.32.77v11.8a1.65,1.65,0,1,0,3.29,0v-11.8A4.4,4.4,0,0,0,851,193H761.31a3.84,3.84,0,0,1-2.72-1.12l-8.7-8.7a1.64,1.64,0,1,0-2.32,2.33Z"/><path class="cls-2" d="M844.42,183.23H819a4.37,4.37,0,0,0-4.39,4.38v1.68h2.19v-1.68a2.19,2.19,0,0,1,2.2-2.19h25.46v-2.19Z"/><rect class="cls-10" x="841.9" y="181.77" width="6.17" height="5.1" rx="1.1"/><path class="cls-9" d="M801.25,207.86h12.22a3.29,3.29,0,0,0,3.29-3.29v-17a4.37,4.37,0,0,0-4.39-4.38H779.54v2.19h32.83a2.2,2.2,0,0,1,2.2,2.19v17a1.08,1.08,0,0,1-.32.77,1.1,1.1,0,0,1-.78.32H801.25v2.2Z"/><rect class="cls-10" x="776.46" y="181.77" width="6.17" height="5.1" rx="1.1"/><rect class="cls-4" x="762.99" y="202.52" width="38.26" height="8.49" rx="1.65"/><path class="cls-9" d="M830.59,206.76A2.56,2.56,0,1,1,828,204.2,2.56,2.56,0,0,1,830.59,206.76Z"/><path class="cls-9" d="M840.42,206.76a2.56,2.56,0,1,1-2.56-2.56A2.56,2.56,0,0,1,840.42,206.76Z"/><path class="cls-3" d="M175.55,119.16v36h-35.1l20-37.32a2.72,2.72,0,0,1,2.41-1.45h9.91A2.74,2.74,0,0,1,175.55,119.16Z"/><path class="cls-17" d="M175.55,119.16v36h-4.61V116.42h1.87A2.74,2.74,0,0,1,175.55,119.16Z"/><path class="cls-32" d="M926.57,231s-65.5-12.72-61.33-85.18H894s-8.17,63.4,39.59,85.44Z"/><polyline class="cls-3" points="865.24 146.33 894.03 146.33 894.03 145.21 865.24 145.21"/><polyline class="cls-3" points="944.03 78.46 944.03 231.21 947.87 231.21 947.87 78.46"/><polyline class="cls-3" points="988.72 78.46 988.72 231.21 992.55 231.21 992.55 78.46"/><path class="cls-33" d="M476.81,246.89a9.63,9.63,0,1,1-11.59-7.15A9.64,9.64,0,0,1,476.81,246.89Z"/><path class="cls-33" d="M469.05,257.07a8.12,8.12,0,1,1-9.77-6A8.11,8.11,0,0,1,469.05,257.07Z"/><path class="cls-33" d="M484.43,266.34a4.44,4.44,0,1,1-5.34-3.29A4.43,4.43,0,0,1,484.43,266.34Z"/><path class="cls-33" d="M504.59,240.84a2.91,2.91,0,1,1-3.5-2.16A2.9,2.9,0,0,1,504.59,240.84Z"/><path class="cls-33" d="M448.93,251a2.48,2.48,0,1,1-3-1.84A2.49,2.49,0,0,1,448.93,251Z"/><path class="cls-33" d="M439.1,267.91a2.12,2.12,0,1,1-2.55-1.58A2.12,2.12,0,0,1,439.1,267.91Z"/><path class="cls-12" d="M471,249.66a5.27,5.27,0,1,1-6.34-3.91A5.26,5.26,0,0,1,471,249.66Z"/><path class="cls-12" d="M462.94,260.07a2.5,2.5,0,1,1-3-1.86A2.5,2.5,0,0,1,462.94,260.07Z"/><path class="cls-33" d="M806.22,86.7a6.12,6.12,0,1,1-6.12-6.11A6.12,6.12,0,0,1,806.22,86.7Z"/><path class="cls-33" d="M798.32,91.88a3.46,3.46,0,1,1-3.46-3.46A3.46,3.46,0,0,1,798.32,91.88Z"/><circle class="cls-33" cx="808.58" cy="101.11" r="2.37"/><path class="cls-33" d="M784.46,90.07a4.13,4.13,0,1,1-4.13-4.13A4.13,4.13,0,0,1,784.46,90.07Z"/><circle class="cls-33" cx="793.99" cy="109.34" r="3.41"/><circle class="cls-33" cx="812.02" cy="86.7" r="1.72"/><polyline class="cls-3" points="290.82 113.04 395.43 113.04 395.43 111.94 290.82 111.94"/><polyline class="cls-3" points="446.51 97.4 364.1 97.4 364.1 98.49 446.51 98.49"/></g></svg>