<svg xmlns="http://www.w3.org/2000/svg" viewBox="0 0 53.52 46.81"><title>Asset 3</title><g id="Layer_2" data-name="Layer 2"><g id="Layer_1-2" data-name="Layer 1"><path d="M39.9.64H13.62L.48,23.4,13.62,46.16H39.9L53,23.4ZM35.36,38.3H18.16L9.56,23.4l8.6-14.89h17.2L44,23.4Z" style="fill:#0a47a0;opacity:0.7000000000000001"/><path d="M39.28.64h-25a1.07,1.07,0,0,0-.93.54L.79,22.87a1.08,1.08,0,0,0,0,1.07L13.31,45.63a1.06,1.06,0,0,0,.93.53h25a1.07,1.07,0,0,0,.93-.53L52.73,23.94a1.08,1.08,0,0,0,0-1.07L40.21,1.18A1.08,1.08,0,0,0,39.28.64ZM34.74,38.3h-16a1.05,1.05,0,0,1-.93-.54l-8-13.82a1,1,0,0,1,0-1.07L17.85,9a1.06,1.06,0,0,1,.93-.53h16a1.07,1.07,0,0,1,.93.53l8,13.83a1.08,1.08,0,0,1,0,1.07l-8,13.82A1.06,1.06,0,0,1,34.74,38.3Z" style="fill:none;stroke:#2299fc;stroke-miterlimit:10;stroke-width:1.28830677300596px"/></g></g></svg>