<svg xmlns="http://www.w3.org/2000/svg" viewBox="0 0 62.31 54.5"><title>Asset 2</title><g id="Layer_2" data-name="Layer 2"><g id="Layer_1-2" data-name="Layer 1"><path d="M46.45.75H15.86L.56,27.25l15.3,26.5H46.45l15.3-26.5ZM41.17,44.6h-20l-10-17.35,10-17.35h20l10,17.35Z" style="fill:#872b32;opacity:0.7000000000000001"/><path d="M45.73.75H16.58a1.26,1.26,0,0,0-1.09.63L.92,26.62a1.22,1.22,0,0,0,0,1.25L15.49,53.12a1.26,1.26,0,0,0,1.09.63H45.73a1.26,1.26,0,0,0,1.09-.63L61.39,27.87a1.22,1.22,0,0,0,0-1.25L46.82,1.38A1.26,1.26,0,0,0,45.73.75ZM40.45,44.6H21.86A1.25,1.25,0,0,1,20.78,44l-9.29-16.1a1.22,1.22,0,0,1,0-1.25l9.29-16.09a1.25,1.25,0,0,1,1.08-.63H40.45a1.25,1.25,0,0,1,1.08.63l9.29,16.09a1.22,1.22,0,0,1,0,1.25L41.53,44A1.25,1.25,0,0,1,40.45,44.6Z" style="fill:none;stroke:#fe3851;stroke-miterlimit:10;stroke-width:1.5px"/></g></g></svg>