<svg id="Layer_1" data-name="Layer 1" xmlns="http://www.w3.org/2000/svg" viewBox="0 0 374.68 58.78"><defs><style>.cls-1{fill:#04a5db;}</style></defs><title>longtimeago</title><path class="cls-1" d="M15.39,19.72H12.9l-2-5.66H3.76L2,19.72H0L6.28.31h2.8ZM7.44,2.91l-3,9.31h6Z"/><path class="cls-1" d="M26.39,19.72V.31H28.6v19.4Z"/><path class="cls-1" d="M38.67,5C42.88,5,45,8.66,45,12.45c0,4-2.32,7.55-6.68,7.55s-6.22-3.79-6.22-7.58C32.08,8.43,34.34,5,38.67,5ZM35.36,16.35a3.66,3.66,0,0,0,6.45-.25,7.84,7.84,0,0,0,.71-3.68,7.27,7.27,0,0,0-.91-3.93,3.74,3.74,0,0,0-3.11-1.7,3.64,3.64,0,0,0-3.25,2,8.24,8.24,0,0,0-.71,3.59A8.47,8.47,0,0,0,35.36,16.35Z"/><path class="cls-1" d="M50.21,8h.06a4.91,4.91,0,0,1,4.47-3,4.53,4.53,0,0,1,4.07,2.23c.74,1.22.68,3.14.68,4.55v7.95H57.28V10.83a5.6,5.6,0,0,0-.4-2.66,2.93,2.93,0,0,0-2.46-1.3,3.87,3.87,0,0,0-3,1.44,5.71,5.71,0,0,0-1.13,3.88v7.52H48.12V5.35h2.09Z"/><path class="cls-1" d="M68.2,5a6.92,6.92,0,0,1,2.91.62c.37-2,1.36-2.49,3.31-2.49l.57,0,0,1.78h-.23c-1.3,0-2.32.14-2.55,1.64a5.29,5.29,0,0,1,1.39,3.54,4.7,4.7,0,0,1-1.84,3.59,6,6,0,0,1-3.65,1.1c-.65,0-1.41-.23-2-.23a1.55,1.55,0,0,0-1.53,1.33,1.22,1.22,0,0,0,1.07,1.22,22.55,22.55,0,0,0,3.39.23,15.93,15.93,0,0,1,4.21.51A3.39,3.39,0,0,1,75.56,21c0,3.65-4.33,4.13-7.1,4.13a11.77,11.77,0,0,1-4.21-.57,3.44,3.44,0,0,1-2.46-3.17A2.92,2.92,0,0,1,64,18.5a2.58,2.58,0,0,1-1.39-2.26c0-1.41.82-2,2-2.57a4.65,4.65,0,0,1-1.87-3.79C62.69,6.76,65.32,5,68.2,5Zm.28,18.44a10.19,10.19,0,0,0,3.71-.62,1.75,1.75,0,0,0,1.24-1.7c0-1.39-1.56-1.64-3.06-1.73-.85-.06-3.31,0-4.87-.23-.85.4-1.56.93-1.56,2C64,23.08,67,23.42,68.49,23.42ZM68.2,13.07a3,3,0,0,0,3.2-3.2,3.13,3.13,0,0,0-3.2-3.14A3.09,3.09,0,0,0,65,9.9,3,3,0,0,0,68.2,13.07Z"/><path class="cls-1" d="M92.9,19.83,90.78,20c-3.14,0-4.07-1.84-4.07-4.7V7H84.16V5.23H86.7V1.67l2.21-.23V5.23h3.2V7h-3.2v8.68c0,1.67.48,2.55,2.29,2.55l1.7-.14Z"/><path class="cls-1" d="M97.74,2.8H95.3V.31h2.43Zm-.11,16.92H95.42V5.35h2.21Z"/><path class="cls-1" d="M103.85,5.35V8.12h.06A4.81,4.81,0,0,1,108.2,5a4.1,4.1,0,0,1,4,3.42A5,5,0,0,1,116.89,5,4.28,4.28,0,0,1,120.51,7a8.13,8.13,0,0,1,.68,4.1v8.57H119V11.14a6.12,6.12,0,0,0-.4-2.86,2.72,2.72,0,0,0-2.4-1.5,3.51,3.51,0,0,0-2.77,1.61,5.42,5.42,0,0,0-.79,3.56v7.75h-2.21V10.61a4.82,4.82,0,0,0-.48-2.43,2.85,2.85,0,0,0-2.4-1.39,3.56,3.56,0,0,0-2.6,1.41,5.1,5.1,0,0,0-.88,3.28v8.23h-2.21V5.35Z"/><path class="cls-1" d="M136.86,15.78A6.27,6.27,0,0,1,130.75,20c-4.36,0-6.59-3.45-6.59-7.47S126.51,5,130.8,5c4.47,0,6.39,3.73,6.28,7.72H126.65a6.86,6.86,0,0,0,.59,3.25,4.14,4.14,0,0,0,3.68,2.18,4,4,0,0,0,3.85-2.77Zm-2.21-4.72c0-2.38-1.3-4.38-3.85-4.38a4.27,4.27,0,0,0-4,4.38Z"/><path class="cls-1" d="M158,10.81v-.62c0-2.52-1.1-3.48-3.65-3.48-1.81,0-3.54.57-3.93,2.55l-2.06-.34c.4-3,3.56-3.93,6.19-3.93,1.56,0,3.34.17,4.41,1.41s1.19,3.08,1.19,4.72v5.57a10.58,10.58,0,0,0,.31,3h-2.21L158,17a5.15,5.15,0,0,1-5,3c-2.69,0-5-1.5-5-4.36a4.42,4.42,0,0,1,2.66-4,13.44,13.44,0,0,1,5.52-.85Zm0,1.67h-1.84c-2.26,0-5.83.31-5.83,3.28,0,1.78,1.53,2.52,3.11,2.52A4.68,4.68,0,0,0,158,13.41Z"/><path class="cls-1" d="M168.91,5a6.92,6.92,0,0,1,2.91.62c.37-2,1.36-2.49,3.31-2.49l.57,0,0,1.78h-.23c-1.3,0-2.32.14-2.55,1.64a5.29,5.29,0,0,1,1.39,3.54,4.7,4.7,0,0,1-1.84,3.59,6,6,0,0,1-3.65,1.1c-.65,0-1.41-.23-2-.23a1.55,1.55,0,0,0-1.53,1.33,1.22,1.22,0,0,0,1.07,1.22,22.55,22.55,0,0,0,3.39.23,15.93,15.93,0,0,1,4.21.51A3.39,3.39,0,0,1,176.26,21c0,3.65-4.33,4.13-7.1,4.13a11.77,11.77,0,0,1-4.21-.57,3.44,3.44,0,0,1-2.46-3.17,2.92,2.92,0,0,1,2.18-2.91,2.58,2.58,0,0,1-1.39-2.26c0-1.41.82-2,2-2.57a4.65,4.65,0,0,1-1.87-3.79C163.39,6.76,166,5,168.91,5Zm.28,18.44a10.19,10.19,0,0,0,3.71-.62,1.75,1.75,0,0,0,1.24-1.7c0-1.39-1.56-1.64-3.05-1.73-.85-.06-3.31,0-4.87-.23-.85.4-1.56.93-1.56,2C164.67,23.08,167.72,23.42,169.19,23.42Zm-.28-10.35a3,3,0,0,0,3.2-3.2,3.13,3.13,0,0,0-3.2-3.14,3.09,3.09,0,0,0-3.22,3.17A3,3,0,0,0,168.91,13.07Z"/><path class="cls-1" d="M184.07,5c4.21,0,6.31,3.68,6.31,7.47,0,4-2.32,7.55-6.68,7.55s-6.22-3.79-6.22-7.58C177.48,8.43,179.74,5,184.07,5Zm-3.31,11.37a3.66,3.66,0,0,0,6.45-.25,7.84,7.84,0,0,0,.71-3.68A7.27,7.27,0,0,0,187,8.49a3.74,3.74,0,0,0-3.11-1.7,3.64,3.64,0,0,0-3.25,2,8.24,8.24,0,0,0-.71,3.59A8.47,8.47,0,0,0,180.76,16.35Z"/><path class="cls-1" d="M204.67,2.8h-2.43V.31h2.43Zm-.11,16.92h-2.21V5.35h2.21Z"/><path class="cls-1" d="M210.89,8h.06a4.91,4.91,0,0,1,4.47-3,4.53,4.53,0,0,1,4.07,2.23c.74,1.22.68,3.14.68,4.55v7.95H218V10.83a5.6,5.6,0,0,0-.4-2.66,2.93,2.93,0,0,0-2.46-1.3,3.87,3.87,0,0,0-3,1.44A5.71,5.71,0,0,0,211,12.19v7.52H208.8V5.35h2.09Z"/><path class="cls-1" d="M241.72,10.81v-.62c0-2.52-1.1-3.48-3.65-3.48-1.81,0-3.54.57-3.93,2.55l-2.06-.34c.4-3,3.56-3.93,6.19-3.93,1.56,0,3.34.17,4.41,1.41s1.19,3.08,1.19,4.72v5.57a10.6,10.6,0,0,0,.31,3H242L241.72,17a5.15,5.15,0,0,1-5,3c-2.69,0-5-1.5-5-4.36a4.42,4.42,0,0,1,2.66-4,13.44,13.44,0,0,1,5.52-.85Zm0,1.67h-1.84c-2.26,0-5.83.31-5.83,3.28,0,1.78,1.53,2.52,3.11,2.52a4.68,4.68,0,0,0,4.55-4.87Z"/><path class="cls-1" d="M261.13,5A6.92,6.92,0,0,1,264,5.6c.37-2,1.36-2.49,3.31-2.49l.57,0,0,1.78h-.23c-1.3,0-2.32.14-2.55,1.64a5.29,5.29,0,0,1,1.39,3.54,4.7,4.7,0,0,1-1.84,3.59,6,6,0,0,1-3.65,1.1c-.65,0-1.41-.23-2-.23a1.55,1.55,0,0,0-1.53,1.33,1.22,1.22,0,0,0,1.08,1.22,22.55,22.55,0,0,0,3.39.23,15.93,15.93,0,0,1,4.21.51A3.39,3.39,0,0,1,268.48,21c0,3.65-4.33,4.13-7.1,4.13a11.77,11.77,0,0,1-4.21-.57,3.44,3.44,0,0,1-2.46-3.17,2.92,2.92,0,0,1,2.18-2.91,2.58,2.58,0,0,1-1.39-2.26c0-1.41.82-2,2-2.57a4.65,4.65,0,0,1-1.87-3.79C255.61,6.76,258.24,5,261.13,5Zm.28,18.44a10.19,10.19,0,0,0,3.71-.62,1.75,1.75,0,0,0,1.24-1.7c0-1.39-1.56-1.64-3.05-1.73-.85-.06-3.31,0-4.87-.23-.85.4-1.56.93-1.56,2C256.88,23.08,259.94,23.42,261.41,23.42Zm-.28-10.35a3,3,0,0,0,3.2-3.2,3.13,3.13,0,0,0-3.2-3.14A3.09,3.09,0,0,0,257.9,9.9,3,3,0,0,0,261.13,13.07Z"/><path class="cls-1" d="M279.63,10.81v-.62c0-2.52-1.1-3.48-3.65-3.48-1.81,0-3.54.57-3.93,2.55L270,8.91c.4-3,3.56-3.93,6.19-3.93,1.56,0,3.34.17,4.41,1.41s1.19,3.08,1.19,4.72v5.57a10.58,10.58,0,0,0,.31,3h-2.21L279.63,17a5.15,5.15,0,0,1-5,3c-2.69,0-5-1.5-5-4.36a4.42,4.42,0,0,1,2.66-4,13.44,13.44,0,0,1,5.52-.85Zm0,1.67h-1.84c-2.26,0-5.83.31-5.83,3.28,0,1.78,1.53,2.52,3.11,2.52a4.68,4.68,0,0,0,4.55-4.87Z"/><path class="cls-1" d="M286.08,19.72V.31h2.21v19.4Z"/><path class="cls-1" d="M301.69,10.81v-.62c0-2.52-1.1-3.48-3.65-3.48-1.81,0-3.54.57-3.93,2.55L292,8.91c.4-3,3.56-3.93,6.19-3.93,1.56,0,3.34.17,4.41,1.41s1.19,3.08,1.19,4.72v5.57a10.6,10.6,0,0,0,.31,3h-2.21L301.69,17a5.15,5.15,0,0,1-5,3c-2.69,0-5-1.5-5-4.36a4.42,4.42,0,0,1,2.66-4,13.44,13.44,0,0,1,5.52-.85Zm0,1.67h-1.84c-2.26,0-5.83.31-5.83,3.28,0,1.78,1.53,2.52,3.11,2.52a4.68,4.68,0,0,0,4.55-4.87Z"/><path class="cls-1" d="M315.55,19.72l-3.62-5.83-3.76,5.83H306l4.84-7.44-4.36-6.93H309l3.05,4.92,3.14-4.92h2.15l-4.19,6.45,5,7.92Z"/><path class="cls-1" d="M324.69,21.07a7.22,7.22,0,0,1-1.47,2.66,3.38,3.38,0,0,1-2.91,1.1,6.39,6.39,0,0,1-1.64-.25V22.8a6.55,6.55,0,0,0,1.47.2c2.23,0,2.63-1.84,3.22-3.54l-5-14.11h2.29l3.85,10.8,3.93-10.8h1.87Z"/><path class="cls-1" d="M347,7.1H343.7V19.72H341.5V7.1h-2.55V5.35h2.55c-.11-2.83.82-5.35,3.82-5.35a16.34,16.34,0,0,1,2.57.23V2a9.57,9.57,0,0,0-1.81-.23c-2.43,0-2.4,1.75-2.38,3.56H347Z"/><path class="cls-1" d="M358.27,10.81v-.62c0-2.52-1.1-3.48-3.65-3.48-1.81,0-3.54.57-3.93,2.55l-2.07-.34c.4-3,3.56-3.93,6.19-3.93,1.56,0,3.34.17,4.41,1.41s1.19,3.08,1.19,4.72v5.57a10.57,10.57,0,0,0,.31,3h-2.21L358.27,17a5.15,5.15,0,0,1-5,3c-2.69,0-5-1.5-5-4.36a4.42,4.42,0,0,1,2.66-4,13.44,13.44,0,0,1,5.52-.85Zm0,1.67h-1.84c-2.26,0-5.83.31-5.83,3.28,0,1.78,1.53,2.52,3.11,2.52a4.68,4.68,0,0,0,4.55-4.87Z"/><path class="cls-1" d="M366.45,5.35V8.71h.06c.68-2,1.9-3.76,4.21-3.76l.82.06V7.13h-.45a4,4,0,0,0-3.71,2.26,5.69,5.69,0,0,0-.71,3.08v7.24h-2.21V5.35Z"/><path class="cls-1" d="M374.68,19.38l-2.12,4h-1.22l1.7-3.65h-1.47V16.46h3.11Z"/><path class="cls-1" d="M8.15,41H4.81V53.66H2.6V41H.06V39.29H2.6c-.11-2.83.82-5.35,3.82-5.35A16.34,16.34,0,0,1,9,34.17V36a9.58,9.58,0,0,0-1.81-.23c-2.43,0-2.4,1.75-2.38,3.56H8.15Z"/><path class="cls-1" d="M19.38,44.75v-.62c0-2.52-1.1-3.48-3.65-3.48-1.81,0-3.54.57-3.93,2.55l-2.06-.34c.4-3,3.56-3.93,6.19-3.93,1.56,0,3.34.17,4.41,1.41s1.19,3.08,1.19,4.72v5.57a10.6,10.6,0,0,0,.31,3H19.63L19.38,51a5.15,5.15,0,0,1-5,3c-2.69,0-5-1.5-5-4.36a4.42,4.42,0,0,1,2.66-4,13.44,13.44,0,0,1,5.52-.85Zm0,1.67H17.54c-2.26,0-5.83.31-5.83,3.28,0,1.78,1.53,2.52,3.11,2.52a4.68,4.68,0,0,0,4.55-4.87Z"/><path class="cls-1" d="M27.55,39.29v3.37h.06c.68-2,1.9-3.76,4.21-3.76l.82.06v2.12h-.45a4,4,0,0,0-3.71,2.26,5.69,5.69,0,0,0-.71,3.08v7.24H25.57V39.29Z"/><path class="cls-1" d="M52.19,44.75v-.62c0-2.52-1.1-3.48-3.65-3.48-1.81,0-3.54.57-3.93,2.55l-2.06-.34c.4-3,3.56-3.93,6.19-3.93,1.56,0,3.34.17,4.41,1.41s1.19,3.08,1.19,4.72v5.57a10.58,10.58,0,0,0,.31,3H52.45L52.19,51a5.15,5.15,0,0,1-5,3c-2.69,0-5-1.5-5-4.36a4.42,4.42,0,0,1,2.66-4,13.44,13.44,0,0,1,5.52-.85Zm0,1.67H50.35c-2.26,0-5.83.31-5.83,3.28,0,1.78,1.53,2.52,3.11,2.52a4.68,4.68,0,0,0,4.55-4.87Z"/><path class="cls-1" d="M70,53.66H68.15L64.95,43,62,53.66H60.17l-4.3-14.37H58.1L61.22,50l3-10.72h1.61L69.05,50l3.22-10.75h1.81Z"/><path class="cls-1" d="M84.86,44.75v-.62c0-2.52-1.1-3.48-3.65-3.48-1.81,0-3.54.57-3.93,2.55l-2.07-.34c.4-3,3.56-3.93,6.19-3.93,1.56,0,3.34.17,4.41,1.41S87,43.42,87,45.06v5.57a10.57,10.57,0,0,0,.31,3H85.12L84.86,51a5.15,5.15,0,0,1-5,3c-2.69,0-5-1.5-5-4.36a4.42,4.42,0,0,1,2.66-4A13.44,13.44,0,0,1,83,44.75Zm0,1.67H83c-2.26,0-5.83.31-5.83,3.28,0,1.78,1.53,2.52,3.11,2.52a4.68,4.68,0,0,0,4.55-4.87Z"/><path class="cls-1" d="M94.71,55a7.22,7.22,0,0,1-1.47,2.66,3.38,3.38,0,0,1-2.91,1.1,6.4,6.4,0,0,1-1.64-.25V56.74a6.55,6.55,0,0,0,1.47.2c2.23,0,2.63-1.84,3.22-3.54l-5-14.11h2.29l3.85,10.8,3.93-10.8h1.87Z"/><path class="cls-1" d="M103.73,53.66h-3.14v-3.2h3.14Z"/><path class="cls-1" d="M112.22,53.66h-3.14v-3.2h3.14Z"/><path class="cls-1" d="M120.71,53.66h-3.14v-3.2h3.14Z"/><path class="cls-1" d="M129.19,53.66h-3.14v-3.2h3.14Z"/></svg>