<svg xmlns="http://www.w3.org/2000/svg" width="62.43" height="54.95" viewBox="0 0 62.43 54.95"><title>Asset 20</title><g id="Layer_2" data-name="Layer 2"><g id="tooltip"><path d="M45.17,0H17.26A3.3,3.3,0,0,0,14.4,1.65L.44,25.83a3.3,3.3,0,0,0,0,3.3l14,24.17A3.28,3.28,0,0,0,17.26,55H45.17A3.28,3.28,0,0,0,48,53.3L62,29.13a3.3,3.3,0,0,0,0-3.3L48,1.65A3.3,3.3,0,0,0,45.17,0Z" style="fill:#444648"/><path d="M42.23,5.79h-22a2.61,2.61,0,0,0-2.26,1.3l-11,19.08a2.64,2.64,0,0,0,0,2.61l11,19.08a2.62,2.62,0,0,0,2.26,1.31h22a2.59,2.59,0,0,0,2.26-1.31l11-19.08a2.59,2.59,0,0,0,0-2.61l-11-19.08A2.58,2.58,0,0,0,42.23,5.79Z" style="fill:none;stroke:#696969;stroke-miterlimit:10;stroke-width:0.960327606881103px"/><text transform="translate(22.61 45.25)" style="font-size:9.161410331726074px;fill:#b8c5c7;font-family:Aurebesh, Aurebesh">BA</text></g></g></svg>