<?xml version="1.0" encoding="utf-8"?>
<!-- Generator: Adobe Illustrator 21.1.0, SVG Export Plug-In . SVG Version: 6.00 Build 0)  -->
<svg version="1.1" id="Layer_1" xmlns="http://www.w3.org/2000/svg" xmlns:xlink="http://www.w3.org/1999/xlink" x="0px" y="0px"
	 viewBox="0 0 519 242" style="enable-background:new 0 0 519 242;" xml:space="preserve">
<style type="text/css">
	.st0{fill:#0E111B;}
	.st1{fill:#FFC53F;}
</style>
<g>
	<g>
		<g>
			<g>
				<g>
					<g>
						<path class="st0" d="M450.5,237.6h-80.8c-0.6,0-13.7-0.4-21.9-8.7l-18.1-18.1v26.8h-43.4c-1.7,0-3-1.3-3-3h0.1
							c-0.1-1.2-0.1-3.3-0.1-7.6c0-4.7,0-11.4,0-19c0-9.3,0-19.9,0-30.4v-50.3h76.1c0.6,0,14.3,0.4,25.3,9.9
							c12.2,10.5,12.2,23,12.2,27c0,11.1-4.3,20.3-12.4,26.6c-0.4,0.3-3.4,2.6-5.8,4.2c0.7,0.2,1.7,0.4,3.2,0.4h49
							c-2.9-3-8.4-8.9-11.2-12.2c-0.3-0.4-7.7-10-7.7-22.4c0-11.9,6.9-21.3,13.4-26c5.8-4.2,15-7.5,21.5-7.5h69.5v39h-51
							c3.4,3.6,9.3,9.9,11.2,12.1l0.3,0.4c2.8,3.4,8.7,10.5,8.7,23.8c0,13.4-6.9,21.7-9.8,24.7C467.2,235.8,457.4,237.6,450.5,237.6
							z M275.9,237.6h-37.2l-0.4-0.1c-1.1-0.4-1.9-1.3-2.1-2.4l-4.1-12.7h-32.4l-4,12.8c-0.3,1.1-1.1,2-2.1,2.3l-0.4,0.1h-37.8
							c-1.9,0-3.3-1.5-3.3-3.3c0-0.4,0-0.4,11-36.8l6.7-22.3c0.9-3,1.8-6,2.7-8.9c6-19.9,11-36.3,11-36.3c0.4-1.4,1.7-2.5,3.3-2.6
							l0.2,0h56.7c1.6,0,3.1,1.1,3.5,2.7l0,0c0,0,1.1,3.5,2.8,9.1c1.2,3.7,2.7,8.5,4.3,13.8c1.5,4.6,3,9.6,4.7,15l3.6,11.6
							c1.8,5.9,3.7,11.9,5.5,17.6l0,0c11.4,36.7,11.4,36.7,11.4,37.2C279.2,236.1,277.7,237.6,275.9,237.6z M191.1,233.8
							C191.1,233.8,191.1,233.8,191.1,233.8L191.1,233.8z M242.5,131.4C242.5,131.4,242.5,131.4,242.5,131.4
							C242.5,131.4,242.5,131.4,242.5,131.4z M188,131.3C188,131.3,188,131.3,188,131.3C188,131.3,188,131.3,188,131.3z
							 M135.6,237.6h-34.9c-1.3,0-2.4-0.8-2.8-2.1l-9.9-32.7L78,235.3c-0.3,1.3-1.5,2.3-2.7,2.3H40.6c-1.3,0-2.4-0.8-2.8-2.1
							l-0.1-0.4c-1.9-6.3-31.8-102.8-32.1-103.8c-0.1-0.3-0.2-0.6-0.2-0.9c0-1.6,1.4-3,3-3l42.1-0.1l0.4,0.1c0.9,0.3,1.5,1,1.8,1.9
							l6.1,20.6l5.9-21c0.5-0.9,1.4-1.5,2.4-1.5h43.2c1.3,0,2.4,0.9,2.7,2.2l6.5,20.7l6.2-20.9c0.3-1.2,1.4-2.1,2.7-2.1h39.1
							c1.6,0,2.8,1.3,2.8,3c0,0.4,0,0.4-7.7,25.7l-10.8,35.6c-0.1,0.3-0.2,0.6-0.3,0.9c-0.1,0.3-0.2,0.6-0.3,1
							c-6.5,21.3-12.3,40.4-12.8,41.9C138.2,236.7,137,237.6,135.6,237.6z M42.1,233.7c0,0.1,0.1,0.2,0.1,0.3l0.1,0
							C42.3,233.8,42.2,233.7,42.1,233.7z M130.3,130.7l0,0.2C130.3,130.8,130.3,130.7,130.3,130.7z M10.1,129.8
							C10.1,129.8,10.1,129.8,10.1,129.8C10.1,129.8,10.1,129.8,10.1,129.8z M210.4,188.9H222c-0.4-1.3-1-3.2-1.6-5.4
							c-1.3-4.2-2.9-9.5-4.2-13.5C213.9,177.3,211.4,185.4,210.4,188.9z M330.3,172L330.3,172C330.3,172,330.3,172,330.3,172z
							 M330.3,170.5h21c0.8-0.2,3.3-0.9,3.3-4.1c0-4.2-3.9-4.5-5-4.5h-19.3L330.3,170.5z M514.6,114.7h-65.5
							c-0.6,0-13.7-0.4-21.9-8.6l-18.1-18.1v26.8h-43.4c-1.7,0-3-1.3-3-3V4.4h76.1c0.3,0,7.3,0.2,15.3,3.6c3.8,1.7,7.1,3.8,10,6.3
							c3,2.6,5.5,5.5,7.3,8.6c4.4,7.1,4.9,13.9,4.9,18.5c0,7.7-2.1,18.6-12.4,26.6c-0.4,0.3-3.4,2.7-5.9,4.2
							c0.7,0.2,1.7,0.3,3.2,0.3h53.4V114.7z M357.2,114.7H320l-0.4-0.1c-1.1-0.4-1.9-1.3-2.1-2.4l-0.1-0.4l-4-12.4H281l-4,12.8
							c-0.3,1.1-1.1,2-2.1,2.3l-0.4,0.1h-37.8c-1.9,0-3.3-1.5-3.3-3.3c0-0.4,0-0.4,0.5-2.1c0.4-1.3,1-3.5,1.9-6.3
							c7.2-24,29-95.9,29-95.9c0.5-1.5,1.9-2.6,3.5-2.6h56.6c1.5,0,2.9,0.9,3.4,2.4l0.1,0.2l1.9,6c1.7,5.5,4.4,14.2,7.5,24.3
							c2.4,7.7,5,16.1,7.5,24.4c0.9,2.8,1.7,5.6,2.6,8.3c1.2,3.8,2.3,7.4,3.4,10.9c0.2,0.6,0.4,1.3,0.6,2c0.3,0.8,0.5,1.7,0.8,2.5
							c2.7,8.8,4.9,16.1,6.3,20.5l0,0c0.5,1.7,0.9,3,1.2,3.8c0.3,1.1,0.4,1.2,0.4,1.6C360.6,113.2,359.1,114.7,357.2,114.7z
							 M313,98.3C313,98.4,313.1,98.4,313,98.3L313,98.3z M269.3,8.4C269.3,8.4,269.3,8.4,269.3,8.4C269.3,8.4,269.3,8.4,269.3,8.4z
							 M269.3,8.4C269.3,8.4,269.3,8.4,269.3,8.4C269.3,8.4,269.3,8.4,269.3,8.4z M207.3,114.7H165V43.4h-42.8
							c3.5,3.7,9.3,9.9,11.1,12l0.3,0.3c2.8,3.4,8.7,10.6,8.7,24c0,13.4-6.9,21.7-9.8,24.6c-8.5,8.5-18.4,10.3-25.2,10.3H3.6v-42
							l2.4,0c0,0,67.4,0,81.7,0c-2.9-3-8.5-8.9-11.2-12.3c-0.3-0.4-7.7-10-7.7-22.4c0-11.8,6.9-21.2,13.4-26
							c5.7-4.2,14.9-7.4,21.6-7.4h149.1v39.1h-45.5V114.7z M291.8,65.9h11.6c-1.2-3.9-4-13.2-5.8-18.8
							C295.6,53.5,292.9,62.2,291.8,65.9z M409.6,47.6h21c0.8-0.2,3.3-0.9,3.3-4.1c0-0.5-0.1-1-0.2-1.4c-0.8-3-4.5-3.1-4.9-3.1
							h-19.3V47.6z"/>
					</g>
				</g>
			</g>
		</g>
	</g>
	<g>
		<g>
			<g>
				<g>
					<g>
						<path class="st1" d="M450.5,237.6h-80.8c-0.6,0-13.7-0.4-21.9-8.7l-18.1-18.1v26.8h-43.4c-1.7,0-3-1.3-3-3h0.1
							c-0.1-1.2-0.1-3.3-0.1-7.6c0-4.7,0-11.4,0-19c0-9.3,0-19.9,0-30.4v-50.3h76.1c0.6,0,14.3,0.4,25.3,9.9
							c12.2,10.5,12.2,23,12.2,27c0,11.1-4.3,20.3-12.4,26.6c-0.4,0.3-3.4,2.6-5.8,4.2c0.7,0.2,1.7,0.4,3.2,0.4h49
							c-2.9-3-8.4-8.9-11.2-12.2c-0.3-0.4-7.7-10-7.7-22.4c0-11.9,6.9-21.3,13.4-26c5.8-4.2,15-7.5,21.5-7.5h69.5v39h-51
							c3.4,3.6,9.3,9.9,11.2,12.1l0.3,0.4c2.8,3.4,8.7,10.5,8.7,23.8c0,13.4-6.9,21.7-9.8,24.7C467.2,235.8,457.4,237.6,450.5,237.6
							z M327.6,203.2c0.6,0,1.2,0.2,1.9,0.6l0.2,0.1l21.6,21.7c6.8,6.9,18.4,7.3,18.5,7.3l80.8,0c5.9,0,14.5-1.5,21.8-8.9
							c2-2,8.4-9.3,8.4-21.3c0-11.6-4.9-17.6-7.6-20.8l-0.3-0.4c-1.7-2.1-8-8.8-12.9-14c-0.7-0.6-1.1-1.6-1.1-2.5
							c0-1.4,0.9-2.8,2.2-3.3l0.4-0.2h50.2v-29.4H447c-5.4,0-13.8,2.9-18.7,6.5c-5.3,3.9-11.4,12-11.4,22.2
							c0,10.8,6.6,19.4,6.6,19.5c3.4,4.1,11.8,12.9,12.7,13.8c0.7,0.6,1.1,1.5,1.1,2.6c0,2-1.6,3.7-3.7,3.7h-51.6
							c-8.9-0.1-9.1-4.7-9.1-5.2c0-1.5,1-2.6,2-3.2l0.1-0.1c1.7-0.8,5.4-3.6,6.7-4.6c8.7-6.8,10.6-16.1,10.6-22.8
							c0-6.2-1.1-15.3-10.5-23.4c-9.7-8.4-22.1-8.8-22.2-8.8h-71.2v45.5c0,10.4,0,21.1,0,30.4c0,11.1,0,21,0,24.8H325v-27
							c0-1,0.5-1.8,1.3-2.3C326.7,203.3,327.2,203.2,327.6,203.2z M275.9,237.6h-37.2l-0.4-0.1c-1.1-0.4-1.9-1.3-2.1-2.4l-4.1-12.7
							h-32.4l-4,12.8c-0.3,1.1-1.1,2-2.1,2.3l-0.4,0.1h-37.8c-1.9,0-3.3-1.5-3.3-3.3c0-0.4,0-0.4,11-36.8l6.7-22.3
							c0.9-3,1.8-6,2.7-8.9c6-19.9,11-36.3,11-36.3c0.4-1.4,1.7-2.5,3.3-2.6l0.2,0h56.7c1.6,0,3.1,1.1,3.5,2.7l0,0
							c0,0,1.1,3.5,2.8,9.1c1.2,3.7,2.7,8.5,4.3,13.8c1.5,4.6,3,9.6,4.7,15l3.6,11.6c1.8,5.9,3.7,11.9,5.5,17.6l0,0
							c11.4,36.7,11.4,36.7,11.4,37.2C279.2,236.1,277.7,237.6,275.9,237.6z M191.1,233.8C191.1,233.8,191.1,233.8,191.1,233.8
							L191.1,233.8z M240.4,232.8h33.5c-1.4-4.6-5.1-16.6-10.6-34.3l0,0c-1.8-5.7-3.6-11.7-5.5-17.7l-3.6-11.6
							c-1.6-5.3-3.2-10.3-4.7-14.9c-1.6-5.3-3.1-10.1-4.3-13.8c-1.3-4.1-2.2-7.1-2.6-8.4h-55c-1.1,3.6-5.5,18.3-10.7,35.5
							c-0.9,2.9-1.8,5.9-2.7,8.9l-6.7,22.3c-4.5,14.7-8.7,28.8-10.3,34h34.1l4.1-13.2c0.5-1.2,1.7-2,3.1-2h34.5c1.3,0,2.5,0.8,3,2
							l0.1,0.2L240.4,232.8z M242.5,131.4C242.5,131.4,242.5,131.4,242.5,131.4C242.5,131.4,242.5,131.4,242.5,131.4z M188,131.3
							C188,131.3,188,131.3,188,131.3C188,131.3,188,131.3,188,131.3z M135.6,237.6h-34.9c-1.3,0-2.4-0.8-2.8-2.1l-9.9-32.7
							L78,235.3c-0.3,1.3-1.5,2.3-2.7,2.3H40.6c-1.3,0-2.4-0.8-2.8-2.1l-0.1-0.4c-1.9-6.3-31.8-102.8-32.1-103.8
							c-0.1-0.3-0.2-0.6-0.2-0.9c0-1.6,1.4-3,3-3l42.1-0.1l0.4,0.1c0.9,0.3,1.5,1,1.8,1.9l6.1,20.6l5.9-21c0.5-0.9,1.4-1.5,2.4-1.5
							h43.2c1.3,0,2.4,0.9,2.7,2.2l6.5,20.7l6.2-20.9c0.3-1.2,1.4-2.1,2.7-2.1h39.1c1.6,0,2.8,1.3,2.8,3c0,0.4,0,0.4-7.7,25.7
							l-10.8,35.6c-0.1,0.3-0.2,0.6-0.3,0.9c-0.1,0.3-0.2,0.6-0.3,1c-6.5,21.3-12.3,40.4-12.8,41.9
							C138.2,236.7,137,237.6,135.6,237.6z M42.1,233.7c0,0.1,0.1,0.2,0.1,0.3l0.1,0C42.3,233.8,42.2,233.7,42.1,233.7z
							 M102.1,232.8h32.1c1.4-4.6,6.7-21.8,12.5-40.9c0.1-0.3,0.2-0.6,0.3-0.9c0.1-0.3,0.2-0.7,0.3-1l10.8-35.5
							c3-10,5.6-18.5,6.8-22.5h-35l-7.6,25.7c-0.3,1.3-1.4,2.2-2.7,2.2c-1.2,0-2.3-0.9-2.7-2.1l-8-25.7H68.7l-7.1,25.7
							c-0.3,1.3-1.4,2.2-2.7,2.2c-1.3,0-2.4-1-2.7-2.2l-7.6-25.7l-37.7,0c23.6,76.3,29.6,95.6,31.1,100.7h31.9L85.5,195
							c0.7-1.7,2.1-1.9,2.6-1.9c1.3,0,2.3,0.8,2.6,2.1L102.1,232.8z M130.3,130.7l0,0.2C130.3,130.8,130.3,130.7,130.3,130.7z
							 M10.1,129.8C10.1,129.8,10.1,129.8,10.1,129.8C10.1,129.8,10.1,129.8,10.1,129.8z M223.9,193.6h-15.5c-2,0-3.3-1.8-3.3-3.6
							c0-0.5,0-0.6,8.3-27.4c0.3-1,0.8-2.7,2.7-2.7c1.9,0,2.4,1.7,2.7,2.5l0.1,0.2l0,0c0,0,3.6,11.5,6,19.4c0.7,2.2,1.3,4.2,1.7,5.5
							c0.6,2.1,0.6,2.1,0.6,2.5C227.2,191.8,225.9,193.6,223.9,193.6z M210.4,188.9H222c-0.4-1.3-1-3.2-1.6-5.4
							c-1.3-4.2-2.9-9.5-4.2-13.5C213.9,177.3,211.4,185.4,210.4,188.9z M351.7,175.3h-23.5l-0.3-0.1c-1.2-0.3-2.4-1.4-2.4-3.2
							l0-11.6c0-1.8,1.3-2.9,2.5-3.2l0.3-0.1h21.3c4.7,0,9.8,2.9,9.8,9.3c0,6.1-4.9,8.4-7.5,8.8L351.7,175.3z M330.3,172L330.3,172
							C330.3,172,330.3,172,330.3,172z M330.3,170.5h21c0.8-0.2,3.3-0.9,3.3-4.1c0-4.2-3.9-4.5-5-4.5h-19.3L330.3,170.5z
							 M514.6,114.7h-65.5c-0.6,0-13.7-0.4-21.9-8.6l-18.1-18.1v26.8h-43.4c-1.7,0-3-1.3-3-3V4.4h76.1c0.3,0,7.3,0.2,15.3,3.6
							c3.8,1.7,7.1,3.8,10,6.3c3,2.6,5.5,5.5,7.3,8.6c4.4,7.1,4.9,13.9,4.9,18.5c0,7.7-2.1,18.6-12.4,26.6c-0.4,0.3-3.4,2.7-5.9,4.2
							c0.7,0.2,1.7,0.3,3.2,0.3h53.4V114.7z M407,80.3c0.6,0,1.3,0.2,1.9,0.7l0.3,0.3l21.4,21.5c6.8,6.9,18.4,7.2,18.5,7.2l60.7,0
							V77.3h-48.6c-8.8,0-9.1-4.7-9.1-5.2c0-1.6,1.1-2.7,2.1-3.2c1.8-0.9,5.5-3.6,6.7-4.6c8.7-6.8,10.6-16.2,10.6-22.8
							c0-3.9-0.4-9.9-4.2-16c-1.6-2.7-3.8-5.2-6.4-7.5c-2.5-2.2-5.5-4.1-8.8-5.5c-7-3-13.3-3.2-13.4-3.2l-71.3,0v100.7h36.9v-27
							c0-1,0.5-1.9,1.4-2.3C406.2,80.4,406.6,80.3,407,80.3z M357.2,114.7H320l-0.4-0.1c-1.1-0.4-1.9-1.3-2.1-2.4l-0.1-0.4l-4-12.4
							H281l-4,12.8c-0.3,1.1-1.1,2-2.1,2.3l-0.4,0.1h-37.8c-1.9,0-3.3-1.5-3.3-3.3c0-0.4,0-0.4,0.5-2.1c0.4-1.3,1-3.5,1.9-6.3
							c7.2-24,29-95.9,29-95.9c0.5-1.5,1.9-2.6,3.5-2.6h56.6c1.5,0,2.9,0.9,3.4,2.4l0.1,0.2l1.9,6c1.7,5.5,4.4,14.2,7.5,24.3
							c2.4,7.7,5,16.1,7.5,24.4c0.9,2.8,1.7,5.6,2.6,8.3c1.2,3.8,2.3,7.4,3.4,10.9c0.2,0.6,0.4,1.3,0.6,2c0.3,0.8,0.5,1.7,0.8,2.5
							c2.7,8.8,4.9,16.1,6.3,20.5l0,0c0.5,1.7,0.9,3,1.2,3.8c0.3,1.1,0.4,1.2,0.4,1.6C360.6,113.2,359.1,114.7,357.2,114.7z
							 M321.8,109.9h33.5c-0.2-0.7-0.5-1.5-0.8-2.5c-1.4-4.4-3.6-11.8-6.3-20.5c-0.3-0.8-0.5-1.7-0.8-2.6c-0.2-0.6-0.4-1.3-0.6-1.9
							c-1.1-3.5-2.2-7.2-3.4-10.9c-0.9-2.7-1.7-5.5-2.6-8.3c-2.6-8.3-5.2-16.7-7.5-24.4c-3.1-10.1-5.8-18.8-7.5-24.3l-1.6-5.2h-55
							c-2.4,8-22,72.6-28.7,95.1c-0.7,2.4-1.3,4.3-1.7,5.6h34.1l4.2-13.2c0.5-1.3,1.7-2,3-2l34.9,0c1.4,0.2,2.5,1.1,2.8,2.3
							L321.8,109.9z M313,98.3C313,98.4,313.1,98.4,313,98.3L313,98.3z M269.3,8.4C269.3,8.4,269.3,8.4,269.3,8.4
							C269.3,8.4,269.3,8.4,269.3,8.4z M269.3,8.4C269.3,8.4,269.3,8.4,269.3,8.4C269.3,8.4,269.3,8.4,269.3,8.4z M207.3,114.7H165
							V43.4h-42.8c3.5,3.7,9.3,9.9,11.1,12l0.3,0.3c2.8,3.4,8.7,10.6,8.7,24c0,13.4-6.9,21.7-9.8,24.6c-8.5,8.5-18.4,10.3-25.2,10.3
							H3.6v-42l2.4,0c0,0,67.4,0,81.7,0c-2.9-3-8.5-8.9-11.2-12.3c-0.3-0.4-7.7-10-7.7-22.4c0-11.8,6.9-21.2,13.4-26
							c5.7-4.2,14.9-7.4,21.6-7.4h149.1v39.1h-45.5V114.7z M169.8,109.9h32.8V38.8h45.5V9.2H103.7c-5.5,0-13.9,2.9-18.7,6.5
							c-1.9,1.4-11.4,9.2-11.4,22.2c0,10.8,6.6,19.4,6.6,19.4c3.5,4.4,12.6,13.8,12.7,13.9l0.2,0.2c0.6,0.7,0.9,1.5,0.9,2.4
							c0,2-1.6,3.6-3.7,3.6c-0.2,0-68.2,0-81.9,0v32.5h98.9c5.9,0,14.5-1.5,21.8-8.9c2.5-2.5,8.4-9.7,8.4-21.2
							c0-11.7-5.2-17.9-7.6-20.9l-0.3-0.3c-2.2-2.6-11-11.9-12.9-14c-0.7-0.6-1.1-1.6-1.1-2.5c0-1.5,1-2.9,2.5-3.3l0.3-0.1h51.4
							V109.9z M305.3,70.7h-15.4c-1.8,0-3.3-1.6-3.3-3.6c0-0.2,0-0.8,6.5-21.5c1-3.4,1.8-6,1.8-6c0.3-1,0.8-2.7,2.7-2.7
							c2,0,2.5,1.9,2.7,2.7c0.1,0.2,0.3,1.1,0.8,2.4l1,3.3c6.5,21.1,6.5,21.1,6.5,21.7C308.6,69.1,307.1,70.7,305.3,70.7z
							 M291.8,65.9h11.6c-1.2-3.9-4-13.2-5.8-18.8C295.6,53.5,292.9,62.2,291.8,65.9z M431,52.3h-23.4l-0.3-0.1
							c-1.2-0.3-2.5-1.4-2.5-3.2V37.5c0-1.8,1.2-2.9,2.4-3.2l0.3-0.1h21.4c3.9,0,8.3,2.1,9.5,6.7c0.2,0.9,0.3,1.7,0.3,2.6
							c0,6.1-4.9,8.4-7.6,8.8L431,52.3z M409.6,47.6h21c0.8-0.2,3.3-0.9,3.3-4.1c0-0.5-0.1-1-0.2-1.4c-0.8-3-4.5-3.1-4.9-3.1h-19.3
							V47.6z"/>
					</g>
				</g>
			</g>
		</g>
	</g>
	<g>
		<g>
			<g>
				<g>
					<polygon class="st1" points="503.8,229.7 503.8,229.7 508.2,229.7 508.2,230.4 506.4,230.4 506.4,235.2 505.6,235.2 
						505.6,230.4 503.8,230.4 503.8,229.7 					"/>
				</g>
			</g>
		</g>
		<g>
			<g>
				<g>
					<polygon class="st1" points="508.8,229.7 508.8,235.2 509.5,235.2 509.5,230.8 511,235.2 511.8,235.2 513.3,230.8 513.3,235.2 
						514,235.2 514,229.7 513,229.7 511.4,234.2 509.8,229.7 508.8,229.7 508.8,229.7 					"/>
				</g>
			</g>
		</g>
	</g>
</g>
</svg>
