<svg id="Layer_1" data-name="Layer 1" xmlns="http://www.w3.org/2000/svg" viewBox="0 0 1260.94 1324.4"><defs><style>.cls-1{fill:#cbd1df;}.cls-2{fill:#fff;}.cls-3{fill:#cad4e5;}.cls-4{fill:#424652;}.cls-5{fill:#7a80a6;}</style></defs><title>stars</title><circle class="cls-1" cx="274.08" cy="240.76" r="2.28"/><circle class="cls-2" cx="212.59" cy="143.48" r="1.52"/><circle class="cls-2" cx="275.7" cy="141.27" r="1.05"/><path class="cls-3" d="M24.82,101.06a1,1,0,0,0,0-2,1,1,0,0,0,0,2Z" transform="translate(-12.49 1.48)"/><path class="cls-3" d="M33.42,100.58a1,1,0,0,0,0-2,1,1,0,0,0,0,2Z" transform="translate(-12.49 1.48)"/><path class="cls-3" d="M18.13,85.3a1,1,0,0,0,0-2,1,1,0,0,0,0,2Z" transform="translate(-12.49 1.48)"/><path class="cls-4" d="M42.18,71.19a1,1,0,0,0,0-2,1,1,0,0,0,0,2Z" transform="translate(-12.49 1.48)"/><path class="cls-3" d="M85.65,90.77a1,1,0,0,0,0-2,1,1,0,0,0,0,2Z" transform="translate(-12.49 1.48)"/><path class="cls-3" d="M79.44,22.47a1,1,0,0,0,0-2,1,1,0,0,0,0,2Z" transform="translate(-12.49 1.48)"/><path class="cls-3" d="M337.84,43a1,1,0,0,0,0-2,1,1,0,0,0,0,2Z" transform="translate(-12.49 1.48)"/><path class="cls-3" d="M649.26,68.8a1,1,0,0,0,0-2,1,1,0,0,0,0,2Z" transform="translate(-12.49 1.48)"/><path class="cls-3" d="M666.93,65.46a1,1,0,0,0,0-2,1,1,0,0,0,0,2Z" transform="translate(-12.49 1.48)"/><path class="cls-3" d="M653.56,61.64a1,1,0,0,0,0-2,1,1,0,0,0,0,2Z" transform="translate(-12.49 1.48)"/><path class="cls-3" d="M669.32,32.5a1,1,0,0,0,0-2,1,1,0,0,0,0,2Z" transform="translate(-12.49 1.48)"/><path class="cls-4" d="M712.31,30.59a1,1,0,0,0,0-2,1,1,0,0,0,0,2Z" transform="translate(-12.49 1.48)"/><path class="cls-3" d="M705.15,2.43c2.52,0,2.52-3.91,0-3.91s-2.52,3.91,0,3.91Z" transform="translate(-12.49 1.48)"/><path class="cls-3" d="M694.64,11.49a1,1,0,0,0,0-2,1,1,0,0,0,0,2Z" transform="translate(-12.49 1.48)"/><path class="cls-4" d="M730,24.38a1,1,0,0,0,0-2,1,1,0,0,0,0,2Z" transform="translate(-12.49 1.48)"/><path class="cls-3" d="M572.36,33a1,1,0,0,0,0-2,1,1,0,0,0,0,2Z" transform="translate(-12.49 1.48)"/><path class="cls-3" d="M60.81,5.74a.49.49,0,0,0,0-1,.49.49,0,0,0,0,1Z" transform="translate(-12.49 1.48)"/><path class="cls-3" d="M672.19.49h.48a.49.49,0,0,0,0-1h-.48a.49.49,0,0,0,0,1Z" transform="translate(-12.49 1.48)"/><path class="cls-5" d="M709.92,73.09a.49.49,0,0,0,0-1,.49.49,0,0,0,0,1Z" transform="translate(-12.49 1.48)"/><path class="cls-5" d="M708,57.33a.49.49,0,0,0,0-1,.49.49,0,0,0,0,1Z" transform="translate(-12.49 1.48)"/><path class="cls-3" d="M752,62.1a.49.49,0,0,0,0-1,.49.49,0,0,0,0,1Z" transform="translate(-12.49 1.48)"/><path class="cls-3" d="M748.13,83.12a.49.49,0,0,0,0-1,.49.49,0,0,0,0,1Z" transform="translate(-12.49 1.48)"/><path class="cls-3" d="M730.46,96a.49.49,0,0,0,0-1,.49.49,0,0,0,0,1Z" transform="translate(-12.49 1.48)"/><path class="cls-5" d="M721.86,80.25a.49.49,0,0,0,0-1,.49.49,0,0,0,0,1Z" transform="translate(-12.49 1.48)"/><path class="cls-5" d="M729,75.48a.49.49,0,0,0,0-1,.49.49,0,0,0,0,1Z" transform="translate(-12.49 1.48)"/><path class="cls-3" d="M311.57,2.89a1,1,0,0,0,0-2,1,1,0,0,0,0,2Z" transform="translate(-12.49 1.48)"/><path class="cls-5" d="M143.92,36.32a1,1,0,0,0,0-2,1,1,0,0,0,0,2Z" transform="translate(-12.49 1.48)"/><path class="cls-5" d="M182.61,79.31a1,1,0,0,0,0-2,1,1,0,0,0,0,2Z" transform="translate(-12.49 1.48)"/><path class="cls-3" d="M212.22,61.65a1.47,1.47,0,0,0,0-2.93,1.47,1.47,0,0,0,0,2.93Z" transform="translate(-12.49 1.48)"/><path class="cls-3" d="M240.14,82.24c2.52,0,2.52-3.91,0-3.91s-2.52,3.91,0,3.91Z" transform="translate(-12.49 1.48)"/><path class="cls-3" d="M408.39,58a1,1,0,0,0,0-2,1,1,0,0,0,0,2Z" transform="translate(-12.49 1.48)"/><path class="cls-3" d="M437,22.28a1,1,0,0,0,0-2,1,1,0,0,0,0,2Z" transform="translate(-12.49 1.48)"/><path class="cls-3" d="M395.72,20.35a.49.49,0,0,0,0-1,.49.49,0,0,0,0,1Z" transform="translate(-12.49 1.48)"/><path class="cls-3" d="M418.55,21.79a.49.49,0,0,0,0-1,.49.49,0,0,0,0,1Z" transform="translate(-12.49 1.48)"/><path class="cls-3" d="M399.88,15a.49.49,0,0,0,0-1,.49.49,0,0,0,0,1Z" transform="translate(-12.49 1.48)"/><path class="cls-3" d="M362.83,53.29a.49.49,0,0,0,0-1,.49.49,0,0,0,0,1Z" transform="translate(-12.49 1.48)"/><path class="cls-3" d="M331.53,17.62a.49.49,0,0,0,0-1,.49.49,0,0,0,0,1Z" transform="translate(-12.49 1.48)"/><circle class="cls-1" cx="327.19" cy="101.51" r="2.28"/><circle class="cls-2" cx="334.67" cy="112.37" r="1.52"/><circle class="cls-2" cx="326.13" cy="115.85" r="1.05"/><path class="cls-3" d="M449.28,425.89c2.52,0,2.52-3.91,0-3.91s-2.52,3.91,0,3.91Z" transform="translate(-12.49 1.48)"/><path class="cls-3" d="M243.45,480.68c2.52,0,2.52-3.91,0-3.91s-2.52,3.91,0,3.91Z" transform="translate(-12.49 1.48)"/><path class="cls-3" d="M480.33,403.89a1,1,0,0,0,0-2,1,1,0,0,0,0,2Z" transform="translate(-12.49 1.48)"/><path class="cls-3" d="M487.75,447.65a1,1,0,0,0,0-2,1,1,0,0,0,0,2Z" transform="translate(-12.49 1.48)"/><path class="cls-3" d="M446.42,231a1,1,0,0,0,0-2,1,1,0,0,0,0,2Z" transform="translate(-12.49 1.48)"/><path class="cls-3" d="M135,205.19a1,1,0,0,0,0-2,1,1,0,0,0,0,2Z" transform="translate(-12.49 1.48)"/><path class="cls-3" d="M117.32,208.54a1,1,0,0,0,0-2,1,1,0,0,0,0,2Z" transform="translate(-12.49 1.48)"/><path class="cls-3" d="M130.7,212.36a1,1,0,0,0,0-2,1,1,0,0,0,0,2Z" transform="translate(-12.49 1.48)"/><path class="cls-3" d="M114.77,413.56a1,1,0,0,0,0-2,1,1,0,0,0,0,2Z" transform="translate(-12.49 1.48)"/><path class="cls-4" d="M71.79,415.47a1,1,0,0,0,0-2,1,1,0,0,0,0,2Z" transform="translate(-12.49 1.48)"/><path class="cls-4" d="M189.29,449.86a1,1,0,0,0,0-2,1,1,0,0,0,0,2Z" transform="translate(-12.49 1.48)"/><path class="cls-3" d="M41.16,406.62c2.52,0,2.52-3.91,0-3.91s-2.52,3.91,0,3.91Z" transform="translate(-12.49 1.48)"/><path class="cls-3" d="M89.46,434.57a1,1,0,0,0,0-2,1,1,0,0,0,0,2Z" transform="translate(-12.49 1.48)"/><path class="cls-3" d="M68.92,451.29a1,1,0,0,0,0-2,1,1,0,0,0,0,2Z" transform="translate(-12.49 1.48)"/><path class="cls-3" d="M77.52,453.68a1,1,0,0,0,0-2,1,1,0,0,0,0,2Z" transform="translate(-12.49 1.48)"/><path class="cls-3" d="M54.28,302.15a1,1,0,0,0,0-2,1,1,0,0,0,0,2Z" transform="translate(-12.49 1.48)"/><path class="cls-4" d="M54.11,421.68a1,1,0,0,0,0-2,1,1,0,0,0,0,2Z" transform="translate(-12.49 1.48)"/><path class="cls-3" d="M211.74,413.08a1,1,0,0,0,0-2,1,1,0,0,0,0,2Z" transform="translate(-12.49 1.48)"/><path class="cls-3" d="M93,396.25a1,1,0,0,0,0-2,1,1,0,0,0,0,2Z" transform="translate(-12.49 1.48)"/><path class="cls-5" d="M226.23,444.49a1,1,0,0,0,0-2,1,1,0,0,0,0,2Z" transform="translate(-12.49 1.48)"/><path class="cls-5" d="M20.84,519a1,1,0,0,0,0-2,1,1,0,0,0,0,2Z" transform="translate(-12.49 1.48)"/><path class="cls-3" d="M36.6,523.3a1,1,0,0,0,0-2,1,1,0,0,0,0,2Z" transform="translate(-12.49 1.48)"/><path class="cls-3" d="M30.39,511.84a1,1,0,0,0,0-2,1,1,0,0,0,0,2Z" transform="translate(-12.49 1.48)"/><path class="cls-5" d="M27.53,516.61a1,1,0,0,0,0-2,1,1,0,0,0,0,2Z" transform="translate(-12.49 1.48)"/><path class="cls-3" d="M14.63,489.39a1,1,0,0,0,0-2,1,1,0,0,0,0,2Z" transform="translate(-12.49 1.48)"/><path class="cls-3" d="M132.13,483.66a1,1,0,0,0,0-2,1,1,0,0,0,0,2Z" transform="translate(-12.49 1.48)"/><path class="cls-3" d="M198,502.28a1,1,0,0,0,0-2,1,1,0,0,0,0,2Z" transform="translate(-12.49 1.48)"/><path class="cls-5" d="M73.38,487.49a1.47,1.47,0,0,0,0-2.93,1.47,1.47,0,0,0,0,2.93Z" transform="translate(-12.49 1.48)"/><path class="cls-3" d="M114,505.16a1.47,1.47,0,0,0,0-2.93,1.47,1.47,0,0,0,0,2.93Z" transform="translate(-12.49 1.48)"/><path class="cls-3" d="M111.91,443.61h-.48a.49.49,0,0,0,0,1h.48a.49.49,0,0,0,0-1Z" transform="translate(-12.49 1.48)"/><path class="cls-3" d="M93.76,448.89a.49.49,0,0,0,0-1,.49.49,0,0,0,0,1Z" transform="translate(-12.49 1.48)"/><path class="cls-3" d="M98.06,453.19a.49.49,0,0,0,0-1,.49.49,0,0,0,0,1Z" transform="translate(-12.49 1.48)"/><path class="cls-3" d="M87.55,459.88a.49.49,0,0,0,0-1,.49.49,0,0,0,0,1Z" transform="translate(-12.49 1.48)"/><path class="cls-3" d="M86.12,464.17a.49.49,0,0,0,0-1,.49.49,0,0,0,0,1Z" transform="translate(-12.49 1.48)"/><path class="cls-3" d="M120.67,313.13a.49.49,0,0,0,0-1,.49.49,0,0,0,0,1Z" transform="translate(-12.49 1.48)"/><path class="cls-3" d="M110.16,322.2a.49.49,0,0,0,0-1,.49.49,0,0,0,0,1Z" transform="translate(-12.49 1.48)"/><path class="cls-3" d="M80.55,330.8a.49.49,0,0,0,0-1,.49.49,0,0,0,0,1Z" transform="translate(-12.49 1.48)"/><path class="cls-3" d="M135.47,363.76a.49.49,0,0,0,0-1,.49.49,0,0,0,0,1Z" transform="translate(-12.49 1.48)"/><path class="cls-3" d="M193.75,363.28a.49.49,0,0,0,0-1,.49.49,0,0,0,0,1Z" transform="translate(-12.49 1.48)"/><path class="cls-4" d="M201.71,464.17a.49.49,0,0,0,0-1,.49.49,0,0,0,0,1Z" transform="translate(-12.49 1.48)"/><path class="cls-5" d="M74.34,199.93a.49.49,0,0,0,0-1,.49.49,0,0,0,0,1Z" transform="translate(-12.49 1.48)"/><path class="cls-5" d="M76.25,215.69a.49.49,0,0,0,0-1,.49.49,0,0,0,0,1Z" transform="translate(-12.49 1.48)"/><path class="cls-3" d="M32.3,210.91a.49.49,0,0,0,0-1,.49.49,0,0,0,0,1Z" transform="translate(-12.49 1.48)"/><path class="cls-3" d="M36.13,189.9a.49.49,0,0,0,0-1,.49.49,0,0,0,0,1Z" transform="translate(-12.49 1.48)"/><path class="cls-3" d="M53.8,177a.49.49,0,0,0,0-1,.49.49,0,0,0,0,1Z" transform="translate(-12.49 1.48)"/><path class="cls-5" d="M62.4,192.76a.49.49,0,0,0,0-1,.49.49,0,0,0,0,1Z" transform="translate(-12.49 1.48)"/><path class="cls-5" d="M55.23,197.54a.49.49,0,0,0,0-1,.49.49,0,0,0,0,1Z" transform="translate(-12.49 1.48)"/><path class="cls-3" d="M29.92,490.81a.49.49,0,0,0,0-1,.49.49,0,0,0,0,1Z" transform="translate(-12.49 1.48)"/><path class="cls-3" d="M67.65,493.68a.49.49,0,0,0,0-1,.49.49,0,0,0,0,1Z" transform="translate(-12.49 1.48)"/><path class="cls-3" d="M40.9,502.75a.49.49,0,0,0,0-1,.49.49,0,0,0,0,1Z" transform="translate(-12.49 1.48)"/><path class="cls-3" d="M77.2,501.32a.49.49,0,0,0,0-1,.49.49,0,0,0,0,1Z" transform="translate(-12.49 1.48)"/><path class="cls-3" d="M74.81,508a.49.49,0,0,0,0-1,.49.49,0,0,0,0,1Z" transform="translate(-12.49 1.48)"/><path class="cls-3" d="M18.45,506.09a.49.49,0,0,0,0-1,.49.49,0,0,0,0,1Z" transform="translate(-12.49 1.48)"/><path class="cls-3" d="M66.22,520.9a.49.49,0,0,0,0-1,.49.49,0,0,0,0,1Z" transform="translate(-12.49 1.48)"/><path class="cls-5" d="M77.2,501.32a.49.49,0,0,0,0-1,.49.49,0,0,0,0,1Z" transform="translate(-12.49 1.48)"/><path class="cls-3" d="M66.69,480.3a.49.49,0,0,0,0-1,.49.49,0,0,0,0,1Z" transform="translate(-12.49 1.48)"/><path class="cls-3" d="M73.38,443a.49.49,0,0,0,0-1,.49.49,0,0,0,0,1Z" transform="translate(-12.49 1.48)"/><path class="cls-3" d="M155.54,441.61a.49.49,0,0,0,0-1,.49.49,0,0,0,0,1Z" transform="translate(-12.49 1.48)"/><path class="cls-3" d="M229.57,396.24a.49.49,0,0,0,0-1,.49.49,0,0,0,0,1Z" transform="translate(-12.49 1.48)"/><path class="cls-4" d="M292.62,353.25a.49.49,0,0,0,0-1,.49.49,0,0,0,0,1Z" transform="translate(-12.49 1.48)"/><path class="cls-3" d="M344.2,339.4a.49.49,0,0,0,0-1,.49.49,0,0,0,0,1Z" transform="translate(-12.49 1.48)"/><path class="cls-4" d="M336.56,354.21a.49.49,0,0,0,0-1,.49.49,0,0,0,0,1Z" transform="translate(-12.49 1.48)"/><path class="cls-4" d="M326.05,343.22a.49.49,0,0,0,0-1,.49.49,0,0,0,0,1Z" transform="translate(-12.49 1.48)"/><path class="cls-3" d="M353.76,346.56a.49.49,0,0,0,0-1,.49.49,0,0,0,0,1Z" transform="translate(-12.49 1.48)"/><path class="cls-3" d="M346.11,355.16a.49.49,0,0,0,0-1,.49.49,0,0,0,0,1Z" transform="translate(-12.49 1.48)"/><path class="cls-3" d="M352,361l-.48.48a.49.49,0,0,0,.69.69l.48-.48A.49.49,0,0,0,352,361Z" transform="translate(-12.49 1.48)"/><path class="cls-4" d="M322.71,377.13a.49.49,0,0,0,0-1,.49.49,0,0,0,0,1Z" transform="translate(-12.49 1.48)"/><path class="cls-3" d="M345.64,402.45a.49.49,0,0,0,0-1,.49.49,0,0,0,0,1Z" transform="translate(-12.49 1.48)"/><path class="cls-3" d="M355.67,423.94a.49.49,0,0,0,0-1,.49.49,0,0,0,0,1Z" transform="translate(-12.49 1.48)"/><path class="cls-3" d="M297.39,436.36a.49.49,0,0,0,0-1,.49.49,0,0,0,0,1Z" transform="translate(-12.49 1.48)"/><path class="cls-3" d="M334.17,454.51a.49.49,0,0,0,0-1,.49.49,0,0,0,0,1Z" transform="translate(-12.49 1.48)"/><path class="cls-3" d="M432.09,364.71a.49.49,0,0,0,0-1,.49.49,0,0,0,0,1Z" transform="translate(-12.49 1.48)"/><path class="cls-3" d="M407,512.08l-.48-.48a.49.49,0,0,0-.69.69l.48.48a.49.49,0,0,0,.69-.69Z" transform="translate(-12.49 1.48)"/><path class="cls-3" d="M426.23,502.4a.49.49,0,0,0,0-1,.49.49,0,0,0,0,1Z" transform="translate(-12.49 1.48)"/><path class="cls-3" d="M356.49,501a1,1,0,0,0,0-2,1,1,0,0,0,0,2Z" transform="translate(-12.49 1.48)"/><path class="cls-3" d="M386.71,317a1,1,0,0,0,0-2,1,1,0,0,0,0,2Z" transform="translate(-12.49 1.48)"/><path class="cls-3" d="M382.41,333.68a1,1,0,0,0,0-2,1,1,0,0,0,0,2Z" transform="translate(-12.49 1.48)"/><path class="cls-3" d="M456,322.69a1,1,0,0,0,0-2,1,1,0,0,0,0,2Z" transform="translate(-12.49 1.48)"/><path class="cls-3" d="M472.69,271.11a1,1,0,0,0,0-2,1,1,0,0,0,0,2Z" transform="translate(-12.49 1.48)"/><path class="cls-3" d="M388.92,503.87c2.52,0,2.52-3.91,0-3.91s-2.52,3.91,0,3.91Z" transform="translate(-12.49 1.48)"/><path class="cls-3" d="M285,214.58c2.52,0,2.52-3.91,0-3.91s-2.52,3.91,0,3.91Z" transform="translate(-12.49 1.48)"/><path class="cls-3" d="M375.87,216a1,1,0,0,0,0-2,1,1,0,0,0,0,2Z" transform="translate(-12.49 1.48)"/><path class="cls-3" d="M371.44,455.8a1,1,0,0,0,0-2,1,1,0,0,0,0,2Z" transform="translate(-12.49 1.48)"/><path class="cls-3" d="M426.67,484.64a1,1,0,0,0,0-2,1,1,0,0,0,0,2Z" transform="translate(-12.49 1.48)"/><path class="cls-3" d="M245.71,185.94a1,1,0,0,0,0-2,1,1,0,0,0,0,2Z" transform="translate(-12.49 1.48)"/><path class="cls-3" d="M216.6,210.2a1,1,0,0,0,0-2,1,1,0,0,0,0,2Z" transform="translate(-12.49 1.48)"/><path class="cls-3" d="M412.77,456.75a.49.49,0,0,0,0-1,.49.49,0,0,0,0,1Z" transform="translate(-12.49 1.48)"/><path class="cls-3" d="M389.94,455.31a.49.49,0,0,0,0-1,.49.49,0,0,0,0,1Z" transform="translate(-12.49 1.48)"/><path class="cls-3" d="M408.61,462.13a.49.49,0,0,0,0-1,.49.49,0,0,0,0,1Z" transform="translate(-12.49 1.48)"/><path class="cls-3" d="M408.16,483.64a.49.49,0,0,0,0-1,.49.49,0,0,0,0,1Z" transform="translate(-12.49 1.48)"/><path class="cls-3" d="M404.61,491.82a.49.49,0,0,0,0-1,.49.49,0,0,0,0,1Z" transform="translate(-12.49 1.48)"/><path class="cls-3" d="M421.43,219.73a.49.49,0,0,0,0-1,.49.49,0,0,0,0,1Z" transform="translate(-12.49 1.48)"/><path class="cls-3" d="M452.73,255.4a.49.49,0,0,0,0-1,.49.49,0,0,0,0,1Z" transform="translate(-12.49 1.48)"/><path class="cls-3" d="M428,323.08a.49.49,0,0,0,0-1,.49.49,0,0,0,0,1Z" transform="translate(-12.49 1.48)"/><path class="cls-3" d="M330.66,498.05a.49.49,0,0,0,0-1,.49.49,0,0,0,0,1Z" transform="translate(-12.49 1.48)"/><path class="cls-3" d="M331.91,461.37a.49.49,0,0,0,0-1,.49.49,0,0,0,0,1Z" transform="translate(-12.49 1.48)"/><path class="cls-3" d="M412.7,470.83a.49.49,0,0,0,0-1,.49.49,0,0,0,0,1Z" transform="translate(-12.49 1.48)"/><circle class="cls-1" cx="989.01" cy="30.22" r="2.28"/><circle class="cls-2" cx="1050.5" cy="127.5" r="1.52"/><circle class="cls-2" cx="987.39" cy="129.71" r="1.05"/><circle class="cls-3" cx="1252.02" cy="511.33" r="1.35"/><circle class="cls-3" cx="1254.72" cy="505.03" r="1.35"/><circle class="cls-3" cx="1190.59" cy="421.69" r="1.42"/><circle class="cls-5" cx="1232.45" cy="451.24" r="0.79"/><circle class="cls-4" cx="1260.15" cy="511.11" r="0.79"/><circle class="cls-4" cx="1241.15" cy="520.4" r="1.28"/><circle class="cls-3" cx="1118.27" cy="513.28" r="0.76"/><circle class="cls-3" cx="1137.94" cy="483.01" r="0.76"/><circle class="cls-3" cx="1255.64" cy="477.9" r="0.76"/><path class="cls-3" d="M953.09,421.86c2.52,0,2.52-3.91,0-3.91s-2.52,3.91,0,3.91Z" transform="translate(-12.49 1.48)"/><path class="cls-3" d="M1026.16,432.85c2.52,0,2.52-3.91,0-3.91s-2.52,3.91,0,3.91Z" transform="translate(-12.49 1.48)"/><path class="cls-3" d="M984.13,399.87a1,1,0,0,0,0-2,1,1,0,0,0,0,2Z" transform="translate(-12.49 1.48)"/><path class="cls-3" d="M1073.45,399.87a1,1,0,0,0,0-2,1,1,0,0,0,0,2Z" transform="translate(-12.49 1.48)"/><path class="cls-3" d="M1086.35,426.14a1,1,0,0,0,0-2,1,1,0,0,0,0,2Z" transform="translate(-12.49 1.48)"/><path class="cls-3" d="M1263.24,168.91a1,1,0,0,0,0-2,1,1,0,0,0,0,2Z" transform="translate(-12.49 1.48)"/><path class="cls-3" d="M1254.64,169.39a1,1,0,0,0,0-2,1,1,0,0,0,0,2Z" transform="translate(-12.49 1.48)"/><path class="cls-3" d="M1269.93,184.67a1,1,0,0,0,0-2,1,1,0,0,0,0,2Z" transform="translate(-12.49 1.48)"/><path class="cls-4" d="M1245.88,198.78a1,1,0,0,0,0-2,1,1,0,0,0,0,2Z" transform="translate(-12.49 1.48)"/><path class="cls-3" d="M1202.41,179.2a1,1,0,0,0,0-2,1,1,0,0,0,0,2Z" transform="translate(-12.49 1.48)"/><path class="cls-3" d="M1208.62,247.5a1,1,0,0,0,0-2,1,1,0,0,0,0,2Z" transform="translate(-12.49 1.48)"/><path class="cls-3" d="M1156.08,313.42a1,1,0,0,0,0-2,1,1,0,0,0,0,2Z" transform="translate(-12.49 1.48)"/><path class="cls-3" d="M1248.74,398.44a1,1,0,0,0,0-2,1,1,0,0,0,0,2Z" transform="translate(-12.49 1.48)"/><path class="cls-3" d="M950.22,227a1,1,0,0,0,0-2,1,1,0,0,0,0,2Z" transform="translate(-12.49 1.48)"/><path class="cls-3" d="M638.8,201.17a1,1,0,0,0,0-2,1,1,0,0,0,0,2Z" transform="translate(-12.49 1.48)"/><path class="cls-3" d="M621.13,204.52a1,1,0,0,0,0-2,1,1,0,0,0,0,2Z" transform="translate(-12.49 1.48)"/><path class="cls-3" d="M634.5,208.34a1,1,0,0,0,0-2,1,1,0,0,0,0,2Z" transform="translate(-12.49 1.48)"/><path class="cls-3" d="M618.74,237.47a1,1,0,0,0,0-2,1,1,0,0,0,0,2Z" transform="translate(-12.49 1.48)"/><path class="cls-4" d="M575.75,239.38a1,1,0,0,0,0-2,1,1,0,0,0,0,2Z" transform="translate(-12.49 1.48)"/><path class="cls-4" d="M693.25,273.77a1,1,0,0,0,0-2,1,1,0,0,0,0,2Z" transform="translate(-12.49 1.48)"/><path class="cls-3" d="M582.92,269.5c2.52,0,2.52-3.91,0-3.91s-2.52,3.91,0,3.91Z" transform="translate(-12.49 1.48)"/><path class="cls-3" d="M593.42,258.49a1,1,0,0,0,0-2,1,1,0,0,0,0,2Z" transform="translate(-12.49 1.48)"/><path class="cls-3" d="M572.88,275.21a1,1,0,0,0,0-2,1,1,0,0,0,0,2Z" transform="translate(-12.49 1.48)"/><path class="cls-3" d="M581.48,277.59a1,1,0,0,0,0-2,1,1,0,0,0,0,2Z" transform="translate(-12.49 1.48)"/><path class="cls-3" d="M558.08,298.13a1,1,0,0,0,0-2,1,1,0,0,0,0,2Z" transform="translate(-12.49 1.48)"/><path class="cls-4" d="M558.08,245.59a1,1,0,0,0,0-2,1,1,0,0,0,0,2Z" transform="translate(-12.49 1.48)"/><path class="cls-3" d="M715.7,237a1,1,0,0,0,0-2,1,1,0,0,0,0,2Z" transform="translate(-12.49 1.48)"/><path class="cls-3" d="M596.77,392.23a1,1,0,0,0,0-2,1,1,0,0,0,0,2Z" transform="translate(-12.49 1.48)"/><path class="cls-5" d="M730,440.47a1,1,0,0,0,0-2,1,1,0,0,0,0,2Z" transform="translate(-12.49 1.48)"/><path class="cls-5" d="M524.64,515a1,1,0,0,0,0-2,1,1,0,0,0,0,2Z" transform="translate(-12.49 1.48)"/><path class="cls-3" d="M540.41,519.28a1,1,0,0,0,0-2,1,1,0,0,0,0,2Z" transform="translate(-12.49 1.48)"/><path class="cls-3" d="M534.2,507.82a1,1,0,0,0,0-2,1,1,0,0,0,0,2Z" transform="translate(-12.49 1.48)"/><path class="cls-5" d="M531.33,512.59a1,1,0,0,0,0-2,1,1,0,0,0,0,2Z" transform="translate(-12.49 1.48)"/><path class="cls-3" d="M518.43,485.37a1,1,0,0,0,0-2,1,1,0,0,0,0,2Z" transform="translate(-12.49 1.48)"/><path class="cls-3" d="M635.93,479.64a1,1,0,0,0,0-2,1,1,0,0,0,0,2Z" transform="translate(-12.49 1.48)"/><path class="cls-3" d="M701.85,498.26a1,1,0,0,0,0-2,1,1,0,0,0,0,2Z" transform="translate(-12.49 1.48)"/><path class="cls-5" d="M577.18,483.47a1.47,1.47,0,0,0,0-2.93,1.47,1.47,0,0,0,0,2.93Z" transform="translate(-12.49 1.48)"/><path class="cls-3" d="M617.78,501.14a1.47,1.47,0,0,0,0-2.93,1.47,1.47,0,0,0,0,2.93Z" transform="translate(-12.49 1.48)"/><path class="cls-3" d="M1007.54,432.36a1.47,1.47,0,0,0,0-2.93,1.47,1.47,0,0,0,0,2.93Z" transform="translate(-12.49 1.48)"/><path class="cls-5" d="M1041.45,452.42a1.47,1.47,0,0,0,0-2.93,1.47,1.47,0,0,0,0,2.93Z" transform="translate(-12.49 1.48)"/><path class="cls-3" d="M1013.27,477.26a1.47,1.47,0,0,0,0-2.93,1.47,1.47,0,0,0,0,2.93Z" transform="translate(-12.49 1.48)"/><path class="cls-3" d="M1050,475.33a.49.49,0,0,0,0-1,.49.49,0,0,0,0,1Z" transform="translate(-12.49 1.48)"/><path class="cls-3" d="M1057.69,481.06a.49.49,0,0,0,0-1,.49.49,0,0,0,0,1Z" transform="translate(-12.49 1.48)"/><path class="cls-3" d="M1046.22,483.45a.49.49,0,0,0,0-1,.49.49,0,0,0,0,1Z" transform="translate(-12.49 1.48)"/><path class="cls-3" d="M1227.25,263.25a.49.49,0,0,0,0-1,.49.49,0,0,0,0,1Z" transform="translate(-12.49 1.48)"/><path class="cls-3" d="M1216.26,275.2a.49.49,0,0,0,0-1,.49.49,0,0,0,0,1Z" transform="translate(-12.49 1.48)"/><path class="cls-3" d="M1248.74,282.36a.49.49,0,0,0,0-1,.49.49,0,0,0,0,1Z" transform="translate(-12.49 1.48)"/><path class="cls-3" d="M615.87,267.53h-.48a.49.49,0,0,0,0,1h.48a.49.49,0,0,0,0-1Z" transform="translate(-12.49 1.48)"/><path class="cls-3" d="M597.72,272.81a.49.49,0,0,0,0-1,.49.49,0,0,0,0,1Z" transform="translate(-12.49 1.48)"/><path class="cls-3" d="M602,277.11a.49.49,0,0,0,0-1,.49.49,0,0,0,0,1Z" transform="translate(-12.49 1.48)"/><path class="cls-3" d="M591.51,283.79a.49.49,0,0,0,0-1,.49.49,0,0,0,0,1Z" transform="translate(-12.49 1.48)"/><path class="cls-3" d="M590.08,288.09a.49.49,0,0,0,0-1,.49.49,0,0,0,0,1Z" transform="translate(-12.49 1.48)"/><path class="cls-3" d="M624.47,309.11a.49.49,0,0,0,0-1,.49.49,0,0,0,0,1Z" transform="translate(-12.49 1.48)"/><path class="cls-3" d="M614,318.18a.49.49,0,0,0,0-1,.49.49,0,0,0,0,1Z" transform="translate(-12.49 1.48)"/><path class="cls-3" d="M584.35,326.78a.49.49,0,0,0,0-1,.49.49,0,0,0,0,1Z" transform="translate(-12.49 1.48)"/><path class="cls-3" d="M639.28,359.74a.49.49,0,0,0,0-1,.49.49,0,0,0,0,1Z" transform="translate(-12.49 1.48)"/><path class="cls-3" d="M682.69,418.71a.49.49,0,0,0,0-1,.49.49,0,0,0,0,1Z" transform="translate(-12.49 1.48)"/><path class="cls-4" d="M690.81,347.54a.49.49,0,0,0,0-1,.49.49,0,0,0,0,1Z" transform="translate(-12.49 1.48)"/><path class="cls-5" d="M578.14,195.91a.49.49,0,0,0,0-1,.49.49,0,0,0,0,1Z" transform="translate(-12.49 1.48)"/><path class="cls-5" d="M580,211.67a.49.49,0,0,0,0-1,.49.49,0,0,0,0,1Z" transform="translate(-12.49 1.48)"/><path class="cls-3" d="M536.11,206.89a.49.49,0,0,0,0-1,.49.49,0,0,0,0,1Z" transform="translate(-12.49 1.48)"/><path class="cls-3" d="M539.93,185.88a.49.49,0,0,0,0-1,.49.49,0,0,0,0,1Z" transform="translate(-12.49 1.48)"/><path class="cls-3" d="M557.6,173a.49.49,0,0,0,0-1,.49.49,0,0,0,0,1Z" transform="translate(-12.49 1.48)"/><path class="cls-5" d="M566.2,188.74a.49.49,0,0,0,0-1,.49.49,0,0,0,0,1Z" transform="translate(-12.49 1.48)"/><path class="cls-5" d="M559,193.52a.49.49,0,0,0,0-1,.49.49,0,0,0,0,1Z" transform="translate(-12.49 1.48)"/><path class="cls-3" d="M533.72,486.79a.49.49,0,0,0,0-1,.49.49,0,0,0,0,1Z" transform="translate(-12.49 1.48)"/><path class="cls-3" d="M546.14,492a.49.49,0,0,0,0-1,.49.49,0,0,0,0,1Z" transform="translate(-12.49 1.48)"/><path class="cls-3" d="M544.7,498.73a.49.49,0,0,0,0-1,.49.49,0,0,0,0,1Z" transform="translate(-12.49 1.48)"/><path class="cls-3" d="M555.69,499.69a.49.49,0,0,0,0-1,.49.49,0,0,0,0,1Z" transform="translate(-12.49 1.48)"/><path class="cls-3" d="M553.3,506.37a.49.49,0,0,0,0-1,.49.49,0,0,0,0,1Z" transform="translate(-12.49 1.48)"/><path class="cls-3" d="M522.26,502.07a.49.49,0,0,0,0-1,.49.49,0,0,0,0,1Z" transform="translate(-12.49 1.48)"/><path class="cls-3" d="M570,516.88a.49.49,0,0,0,0-1,.49.49,0,0,0,0,1Z" transform="translate(-12.49 1.48)"/><path class="cls-5" d="M581,497.3a.49.49,0,0,0,0-1,.49.49,0,0,0,0,1Z" transform="translate(-12.49 1.48)"/><path class="cls-3" d="M545.18,478.67a.49.49,0,0,0,0-1,.49.49,0,0,0,0,1Z" transform="translate(-12.49 1.48)"/><path class="cls-3" d="M577.18,439a.49.49,0,0,0,0-1,.49.49,0,0,0,0,1Z" transform="translate(-12.49 1.48)"/><path class="cls-3" d="M659.34,437.59a.49.49,0,0,0,0-1,.49.49,0,0,0,0,1Z" transform="translate(-12.49 1.48)"/><path class="cls-3" d="M733.37,392.22a.49.49,0,0,0,0-1,.49.49,0,0,0,0,1Z" transform="translate(-12.49 1.48)"/><path class="cls-4" d="M796.42,349.23a.49.49,0,0,0,0-1,.49.49,0,0,0,0,1Z" transform="translate(-12.49 1.48)"/><path class="cls-3" d="M848,335.38a.49.49,0,0,0,0-1,.49.49,0,0,0,0,1Z" transform="translate(-12.49 1.48)"/><path class="cls-4" d="M840.36,350.18a.49.49,0,0,0,0-1,.49.49,0,0,0,0,1Z" transform="translate(-12.49 1.48)"/><path class="cls-4" d="M829.85,339.2a.49.49,0,0,0,0-1,.49.49,0,0,0,0,1Z" transform="translate(-12.49 1.48)"/><path class="cls-3" d="M857.56,342.54a.49.49,0,0,0,0-1,.49.49,0,0,0,0,1Z" transform="translate(-12.49 1.48)"/><path class="cls-3" d="M849.92,351.14a.49.49,0,0,0,0-1,.49.49,0,0,0,0,1Z" transform="translate(-12.49 1.48)"/><path class="cls-3" d="M855.78,357l-.48.48a.49.49,0,0,0,.69.69l.48-.48a.49.49,0,0,0-.69-.69Z" transform="translate(-12.49 1.48)"/><path class="cls-4" d="M826.51,373.11a.49.49,0,0,0,0-1,.49.49,0,0,0,0,1Z" transform="translate(-12.49 1.48)"/><path class="cls-3" d="M849.44,398.43a.49.49,0,0,0,0-1,.49.49,0,0,0,0,1Z" transform="translate(-12.49 1.48)"/><path class="cls-3" d="M859.47,419.92a.49.49,0,0,0,0-1,.49.49,0,0,0,0,1Z" transform="translate(-12.49 1.48)"/><path class="cls-3" d="M801.2,432.34a.49.49,0,0,0,0-1,.49.49,0,0,0,0,1Z" transform="translate(-12.49 1.48)"/><path class="cls-3" d="M838,450.49a.49.49,0,0,0,0-1,.49.49,0,0,0,0,1Z" transform="translate(-12.49 1.48)"/><path class="cls-3" d="M935.89,360.69a.49.49,0,0,0,0-1,.49.49,0,0,0,0,1Z" transform="translate(-12.49 1.48)"/><path class="cls-3" d="M886.56,304l-.48-.48a.49.49,0,0,0-.69.69l.48.48a.49.49,0,0,0,.69-.69Z" transform="translate(-12.49 1.48)"/><path class="cls-3" d="M905.8,294.3a.49.49,0,0,0,0-1,.49.49,0,0,0,0,1Z" transform="translate(-12.49 1.48)"/><path class="cls-3" d="M836.06,292.88a1,1,0,0,0,0-2,1,1,0,0,0,0,2Z" transform="translate(-12.49 1.48)"/><path class="cls-3" d="M890.51,312.94a1,1,0,0,0,0-2,1,1,0,0,0,0,2Z" transform="translate(-12.49 1.48)"/><path class="cls-3" d="M886.22,329.66a1,1,0,0,0,0-2,1,1,0,0,0,0,2Z" transform="translate(-12.49 1.48)"/><path class="cls-3" d="M959.77,318.67a1,1,0,0,0,0-2,1,1,0,0,0,0,2Z" transform="translate(-12.49 1.48)"/><path class="cls-3" d="M976.49,267.09a1,1,0,0,0,0-2,1,1,0,0,0,0,2Z" transform="translate(-12.49 1.48)"/><path class="cls-3" d="M1027.12,278.07a1,1,0,0,0,0-2,1,1,0,0,0,0,2Z" transform="translate(-12.49 1.48)"/><path class="cls-3" d="M1036.67,307.69a1,1,0,0,0,0-2,1,1,0,0,0,0,2Z" transform="translate(-12.49 1.48)"/><path class="cls-3" d="M1124.08,294.79a1,1,0,0,0,0-2,1,1,0,0,0,0,2Z" transform="translate(-12.49 1.48)"/><path class="cls-5" d="M1144.14,233.65a1,1,0,0,0,0-2,1,1,0,0,0,0,2Z" transform="translate(-12.49 1.48)"/><path class="cls-5" d="M1105.45,190.66a1,1,0,0,0,0-2,1,1,0,0,0,0,2Z" transform="translate(-12.49 1.48)"/><path class="cls-3" d="M1075.84,209.3a1.47,1.47,0,0,0,0-2.93,1.47,1.47,0,0,0,0,2.93Z" transform="translate(-12.49 1.48)"/><path class="cls-3" d="M1023.78,383.62a.49.49,0,0,0,0-1,.49.49,0,0,0,0,1Z" transform="translate(-12.49 1.48)"/><path class="cls-3" d="M1063.42,371.2a.49.49,0,0,0,0-1,.49.49,0,0,0,0,1Z" transform="translate(-12.49 1.48)"/><path class="cls-3" d="M1134.59,368.33a.49.49,0,0,0,0-1,.49.49,0,0,0,0,1Z" transform="translate(-12.49 1.48)"/><path class="cls-3" d="M1137.45,414.19a.49.49,0,0,0,0-1,.49.49,0,0,0,0,1Z" transform="translate(-12.49 1.48)"/><path class="cls-3" d="M1105.45,359.74a.49.49,0,0,0,0-1,.49.49,0,0,0,0,1Z" transform="translate(-12.49 1.48)"/><path class="cls-3" d="M1184.74,331.56a.49.49,0,0,0,0-1,.49.49,0,0,0,0,1Z" transform="translate(-12.49 1.48)"/><path class="cls-3" d="M868.49,295.77c2.52,0,2.52-3.91,0-3.91s-2.52,3.91,0,3.91Z" transform="translate(-12.49 1.48)"/><path class="cls-3" d="M788.82,210.56c2.52,0,2.52-3.91,0-3.91s-2.52,3.91,0,3.91Z" transform="translate(-12.49 1.48)"/><path class="cls-3" d="M1047.92,189.69c2.52,0,2.52-3.91,0-3.91s-2.52,3.91,0,3.91Z" transform="translate(-12.49 1.48)"/><path class="cls-3" d="M879.67,212a1,1,0,0,0,0-2,1,1,0,0,0,0,2Z" transform="translate(-12.49 1.48)"/><path class="cls-3" d="M851,247.7a1,1,0,0,0,0-2,1,1,0,0,0,0,2Z" transform="translate(-12.49 1.48)"/><path class="cls-3" d="M906.24,276.54a1,1,0,0,0,0-2,1,1,0,0,0,0,2Z" transform="translate(-12.49 1.48)"/><path class="cls-3" d="M749.51,181.92a1,1,0,0,0,0-2,1,1,0,0,0,0,2Z" transform="translate(-12.49 1.48)"/><path class="cls-3" d="M720.4,206.18a1,1,0,0,0,0-2,1,1,0,0,0,0,2Z" transform="translate(-12.49 1.48)"/><path class="cls-3" d="M892.34,248.65a.49.49,0,0,0,0-1,.49.49,0,0,0,0,1Z" transform="translate(-12.49 1.48)"/><path class="cls-3" d="M869.51,247.21a.49.49,0,0,0,0-1,.49.49,0,0,0,0,1Z" transform="translate(-12.49 1.48)"/><path class="cls-3" d="M888.18,254a.49.49,0,0,0,0-1,.49.49,0,0,0,0,1Z" transform="translate(-12.49 1.48)"/><path class="cls-3" d="M887.73,275.53a.49.49,0,0,0,0-1,.49.49,0,0,0,0,1Z" transform="translate(-12.49 1.48)"/><path class="cls-3" d="M884.19,283.72a.49.49,0,0,0,0-1,.49.49,0,0,0,0,1Z" transform="translate(-12.49 1.48)"/><path class="cls-3" d="M925.23,215.71a.49.49,0,0,0,0-1,.49.49,0,0,0,0,1Z" transform="translate(-12.49 1.48)"/><path class="cls-3" d="M956.53,251.38a.49.49,0,0,0,0-1,.49.49,0,0,0,0,1Z" transform="translate(-12.49 1.48)"/><path class="cls-3" d="M931.78,319.06a.49.49,0,0,0,0-1,.49.49,0,0,0,0,1Z" transform="translate(-12.49 1.48)"/><path class="cls-3" d="M1012.57,339.44a.49.49,0,0,0,0-1,.49.49,0,0,0,0,1Z" transform="translate(-12.49 1.48)"/><path class="cls-3" d="M1010.39,370a.49.49,0,0,0,0-1,.49.49,0,0,0,0,1Z" transform="translate(-12.49 1.48)"/><path class="cls-3" d="M1001.66,368.56a.49.49,0,0,0,0-1,.49.49,0,0,0,0,1Z" transform="translate(-12.49 1.48)"/><path class="cls-3" d="M1000.93,356.18a.49.49,0,0,0,0-1,.49.49,0,0,0,0,1Z" transform="translate(-12.49 1.48)"/><path class="cls-3" d="M1012.57,355.46a.49.49,0,0,0,0-1,.49.49,0,0,0,0,1Z" transform="translate(-12.49 1.48)"/><path class="cls-3" d="M810.24,290a.49.49,0,0,0,0-1,.49.49,0,0,0,0,1Z" transform="translate(-12.49 1.48)"/><path class="cls-3" d="M1165.42,438.43a.49.49,0,0,0,0-1,.49.49,0,0,0,0,1Z" transform="translate(-12.49 1.48)"/><path class="cls-3" d="M835.71,457.35a.49.49,0,0,0,0-1,.49.49,0,0,0,0,1Z" transform="translate(-12.49 1.48)"/><path class="cls-3" d="M916.5,466.81a.49.49,0,0,0,0-1,.49.49,0,0,0,0,1Z" transform="translate(-12.49 1.48)"/><path class="cls-3" d="M99.87,188.4c2.52,0,2.52-3.91,0-3.91s-2.52,3.91,0,3.91Z" transform="translate(-12.49 1.48)"/><path class="cls-3" d="M139.18,215.08a1,1,0,0,0,0-2,1,1,0,0,0,0,2Z" transform="translate(-12.49 1.48)"/><path class="cls-3" d="M168.29,190.82a1,1,0,0,0,0-2,1,1,0,0,0,0,2Z" transform="translate(-12.49 1.48)"/><path class="cls-3" d="M129.25,229.07a1,1,0,0,0,0-2,1,1,0,0,0,0,2Z" transform="translate(-12.49 1.48)"/><path class="cls-3" d="M137.85,228.59a1,1,0,0,0,0-2,1,1,0,0,0,0,2Z" transform="translate(-12.49 1.48)"/><path class="cls-3" d="M122.57,213.31a1,1,0,0,0,0-2,1,1,0,0,0,0,2Z" transform="translate(-12.49 1.48)"/><path class="cls-4" d="M146.61,199.2a1,1,0,0,0,0-2,1,1,0,0,0,0,2Z" transform="translate(-12.49 1.48)"/><path class="cls-3" d="M190.08,218.78a1,1,0,0,0,0-2,1,1,0,0,0,0,2Z" transform="translate(-12.49 1.48)"/><path class="cls-3" d="M841.64,44a1,1,0,0,0,0-2,1,1,0,0,0,0,2Z" transform="translate(-12.49 1.48)"/><path class="cls-3" d="M1153.06,69.78a1,1,0,0,0,0-2,1,1,0,0,0,0,2Z" transform="translate(-12.49 1.48)"/><path class="cls-3" d="M1170.74,66.44a1,1,0,0,0,0-2,1,1,0,0,0,0,2Z" transform="translate(-12.49 1.48)"/><path class="cls-3" d="M1157.36,62.62a1,1,0,0,0,0-2,1,1,0,0,0,0,2Z" transform="translate(-12.49 1.48)"/><path class="cls-5" d="M1213.72,74.07a.49.49,0,0,0,0-1,.49.49,0,0,0,0,1Z" transform="translate(-12.49 1.48)"/><path class="cls-5" d="M1211.81,58.31a.49.49,0,0,0,0-1,.49.49,0,0,0,0,1Z" transform="translate(-12.49 1.48)"/><path class="cls-3" d="M1255.76,63.08a.49.49,0,0,0,0-1,.49.49,0,0,0,0,1Z" transform="translate(-12.49 1.48)"/><path class="cls-3" d="M1251.94,84.1a.49.49,0,0,0,0-1,.49.49,0,0,0,0,1Z" transform="translate(-12.49 1.48)"/><path class="cls-3" d="M1234.26,97a.49.49,0,0,0,0-1,.49.49,0,0,0,0,1Z" transform="translate(-12.49 1.48)"/><path class="cls-5" d="M1225.67,81.23a.49.49,0,0,0,0-1,.49.49,0,0,0,0,1Z" transform="translate(-12.49 1.48)"/><path class="cls-5" d="M1232.83,76.46a.49.49,0,0,0,0-1,.49.49,0,0,0,0,1Z" transform="translate(-12.49 1.48)"/><path class="cls-5" d="M686.41,80.29a1,1,0,0,0,0-2,1,1,0,0,0,0,2Z" transform="translate(-12.49 1.48)"/><path class="cls-3" d="M1003,62.35c2.52,0,2.52-3.91,0-3.91s-2.52,3.91,0,3.91Z" transform="translate(-12.49 1.48)"/><path class="cls-3" d="M743.94,83.22c2.52,0,2.52-3.91,0-3.91s-2.52,3.91,0,3.91Z" transform="translate(-12.49 1.48)"/><path class="cls-3" d="M912.19,59a1,1,0,0,0,0-2,1,1,0,0,0,0,2Z" transform="translate(-12.49 1.48)"/><path class="cls-3" d="M1042.35,89a1,1,0,0,0,0-2,1,1,0,0,0,0,2Z" transform="translate(-12.49 1.48)"/><path class="cls-3" d="M1071.46,64.77a1,1,0,0,0,0-2,1,1,0,0,0,0,2Z" transform="translate(-12.49 1.48)"/><path class="cls-3" d="M866.63,54.26a.49.49,0,0,0,0-1,.49.49,0,0,0,0,1Z" transform="translate(-12.49 1.48)"/><path class="cls-3" d="M835.33,18.6a.49.49,0,0,0,0-1,.49.49,0,0,0,0,1Z" transform="translate(-12.49 1.48)"/><circle class="cls-1" cx="272.88" cy="1040.38" r="2.28"/><circle class="cls-2" cx="211.38" cy="943.1" r="1.52"/><circle class="cls-2" cx="274.5" cy="940.89" r="1.05"/><circle class="cls-3" cx="9.86" cy="559.27" r="1.35"/><circle class="cls-3" cx="7.17" cy="565.57" r="1.35"/><circle class="cls-3" cx="71.3" cy="648.91" r="1.42"/><circle class="cls-5" cx="29.44" cy="619.37" r="0.79"/><circle class="cls-4" cx="1.74" cy="559.49" r="0.79"/><circle class="cls-4" cx="20.74" cy="550.2" r="1.28"/><circle class="cls-3" cx="143.62" cy="557.32" r="0.76"/><circle class="cls-3" cx="123.94" cy="587.59" r="0.76"/><circle class="cls-3" cx="6.25" cy="592.7" r="0.76"/><path class="cls-3" d="M333.77,649.69c2.52,0,2.52-3.91,0-3.91s-2.52,3.91,0,3.91Z" transform="translate(-12.49 1.48)"/><path class="cls-3" d="M260.7,638.71c2.52,0,2.52-3.91,0-3.91s-2.52,3.91,0,3.91Z" transform="translate(-12.49 1.48)"/><path class="cls-3" d="M302.73,669.73a1,1,0,0,0,0-2,1,1,0,0,0,0,2Z" transform="translate(-12.49 1.48)"/><path class="cls-3" d="M213.41,669.73a1,1,0,0,0,0-2,1,1,0,0,0,0,2Z" transform="translate(-12.49 1.48)"/><path class="cls-3" d="M200.51,643.46a1,1,0,0,0,0-2,1,1,0,0,0,0,2Z" transform="translate(-12.49 1.48)"/><path class="cls-3" d="M23.62,900.69a1,1,0,0,0,0-2,1,1,0,0,0,0,2Z" transform="translate(-12.49 1.48)"/><path class="cls-3" d="M32.22,900.21a1,1,0,0,0,0-2,1,1,0,0,0,0,2Z" transform="translate(-12.49 1.48)"/><path class="cls-3" d="M16.93,884.92a1,1,0,0,0,0-2,1,1,0,0,0,0,2Z" transform="translate(-12.49 1.48)"/><path class="cls-4" d="M41,870.82a1,1,0,0,0,0-2,1,1,0,0,0,0,2Z" transform="translate(-12.49 1.48)"/><path class="cls-3" d="M84.45,890.4a1,1,0,0,0,0-2,1,1,0,0,0,0,2Z" transform="translate(-12.49 1.48)"/><path class="cls-3" d="M78.24,822.1a1,1,0,0,0,0-2,1,1,0,0,0,0,2Z" transform="translate(-12.49 1.48)"/><path class="cls-3" d="M130.78,756.18a1,1,0,0,0,0-2,1,1,0,0,0,0,2Z" transform="translate(-12.49 1.48)"/><path class="cls-3" d="M38.12,671.16a1,1,0,0,0,0-2,1,1,0,0,0,0,2Z" transform="translate(-12.49 1.48)"/><path class="cls-3" d="M336.64,842.63a1,1,0,0,0,0-2,1,1,0,0,0,0,2Z" transform="translate(-12.49 1.48)"/><path class="cls-3" d="M648.06,868.43a1,1,0,0,0,0-2,1,1,0,0,0,0,2Z" transform="translate(-12.49 1.48)"/><path class="cls-3" d="M665.73,865.08a1,1,0,0,0,0-2,1,1,0,0,0,0,2Z" transform="translate(-12.49 1.48)"/><path class="cls-3" d="M652.36,861.26a1,1,0,0,0,0-2,1,1,0,0,0,0,2Z" transform="translate(-12.49 1.48)"/><path class="cls-3" d="M668.12,832.13a1,1,0,0,0,0-2,1,1,0,0,0,0,2Z" transform="translate(-12.49 1.48)"/><path class="cls-4" d="M711.11,830.22a1,1,0,0,0,0-2,1,1,0,0,0,0,2Z" transform="translate(-12.49 1.48)"/><path class="cls-4" d="M593.61,795.83a1,1,0,0,0,0-2,1,1,0,0,0,0,2Z" transform="translate(-12.49 1.48)"/><path class="cls-3" d="M703.94,802.06c2.52,0,2.52-3.91,0-3.91s-2.52,3.91,0,3.91Z" transform="translate(-12.49 1.48)"/><path class="cls-3" d="M693.44,811.11a1,1,0,0,0,0-2,1,1,0,0,0,0,2Z" transform="translate(-12.49 1.48)"/><path class="cls-3" d="M714,794.39a1,1,0,0,0,0-2,1,1,0,0,0,0,2Z" transform="translate(-12.49 1.48)"/><path class="cls-3" d="M705.38,792a1,1,0,0,0,0-2,1,1,0,0,0,0,2Z" transform="translate(-12.49 1.48)"/><path class="cls-3" d="M728.78,771.47a1,1,0,0,0,0-2,1,1,0,0,0,0,2Z" transform="translate(-12.49 1.48)"/><path class="cls-4" d="M728.78,824a1,1,0,0,0,0-2,1,1,0,0,0,0,2Z" transform="translate(-12.49 1.48)"/><path class="cls-3" d="M571.16,832.6a1,1,0,0,0,0-2,1,1,0,0,0,0,2Z" transform="translate(-12.49 1.48)"/><path class="cls-3" d="M690.09,677.37a1,1,0,0,0,0-2,1,1,0,0,0,0,2Z" transform="translate(-12.49 1.48)"/><path class="cls-5" d="M556.83,629.13a1,1,0,0,0,0-2,1,1,0,0,0,0,2Z" transform="translate(-12.49 1.48)"/><path class="cls-5" d="M762.22,554.62a1,1,0,0,0,0-2,1,1,0,0,0,0,2Z" transform="translate(-12.49 1.48)"/><path class="cls-3" d="M746.45,550.32a1,1,0,0,0,0-2,1,1,0,0,0,0,2Z" transform="translate(-12.49 1.48)"/><path class="cls-3" d="M752.66,561.78a1,1,0,0,0,0-2,1,1,0,0,0,0,2Z" transform="translate(-12.49 1.48)"/><path class="cls-5" d="M755.53,557a1,1,0,0,0,0-2,1,1,0,0,0,0,2Z" transform="translate(-12.49 1.48)"/><path class="cls-3" d="M768.43,584.23a1,1,0,0,0,0-2,1,1,0,0,0,0,2Z" transform="translate(-12.49 1.48)"/><path class="cls-3" d="M650.93,590a1,1,0,0,0,0-2,1,1,0,0,0,0,2Z" transform="translate(-12.49 1.48)"/><path class="cls-3" d="M585,571.34a1,1,0,0,0,0-2,1,1,0,0,0,0,2Z" transform="translate(-12.49 1.48)"/><path class="cls-5" d="M709.68,587.11a1.47,1.47,0,0,0,0-2.93,1.47,1.47,0,0,0,0,2.93Z" transform="translate(-12.49 1.48)"/><path class="cls-3" d="M669.08,569.44a1.47,1.47,0,0,0,0-2.93,1.47,1.47,0,0,0,0,2.93Z" transform="translate(-12.49 1.48)"/><path class="cls-3" d="M279.32,638.22a1.47,1.47,0,0,0,0-2.93,1.47,1.47,0,0,0,0,2.93Z" transform="translate(-12.49 1.48)"/><path class="cls-5" d="M245.41,618.16a1.47,1.47,0,0,0,0-2.93,1.47,1.47,0,0,0,0,2.93Z" transform="translate(-12.49 1.48)"/><path class="cls-3" d="M273.59,593.32a1.47,1.47,0,0,0,0-2.93,1.47,1.47,0,0,0,0,2.93Z" transform="translate(-12.49 1.48)"/><path class="cls-3" d="M236.81,593.3a.49.49,0,0,0,0-1,.49.49,0,0,0,0,1Z" transform="translate(-12.49 1.48)"/><path class="cls-3" d="M229.17,587.56a.49.49,0,0,0,0-1,.49.49,0,0,0,0,1Z" transform="translate(-12.49 1.48)"/><path class="cls-3" d="M240.64,585.18a.49.49,0,0,0,0-1,.49.49,0,0,0,0,1Z" transform="translate(-12.49 1.48)"/><path class="cls-3" d="M59.61,805.37a.49.49,0,0,0,0-1,.49.49,0,0,0,0,1Z" transform="translate(-12.49 1.48)"/><path class="cls-3" d="M70.6,793.43a.49.49,0,0,0,0-1,.49.49,0,0,0,0,1Z" transform="translate(-12.49 1.48)"/><path class="cls-3" d="M38.12,786.26a.49.49,0,0,0,0-1,.49.49,0,0,0,0,1Z" transform="translate(-12.49 1.48)"/><path class="cls-3" d="M671,800.11h.48a.49.49,0,0,0,0-1H671a.49.49,0,0,0,0,1Z" transform="translate(-12.49 1.48)"/><path class="cls-3" d="M689.14,795.81a.49.49,0,0,0,0-1,.49.49,0,0,0,0,1Z" transform="translate(-12.49 1.48)"/><path class="cls-3" d="M684.84,791.52a.49.49,0,0,0,0-1,.49.49,0,0,0,0,1Z" transform="translate(-12.49 1.48)"/><path class="cls-3" d="M695.35,784.83a.49.49,0,0,0,0-1,.49.49,0,0,0,0,1Z" transform="translate(-12.49 1.48)"/><path class="cls-3" d="M696.78,780.53a.49.49,0,0,0,0-1,.49.49,0,0,0,0,1Z" transform="translate(-12.49 1.48)"/><path class="cls-3" d="M662.39,759.51a.49.49,0,0,0,0-1,.49.49,0,0,0,0,1Z" transform="translate(-12.49 1.48)"/><path class="cls-3" d="M672.9,750.44a.49.49,0,0,0,0-1,.49.49,0,0,0,0,1Z" transform="translate(-12.49 1.48)"/><path class="cls-3" d="M702.51,741.84a.49.49,0,0,0,0-1,.49.49,0,0,0,0,1Z" transform="translate(-12.49 1.48)"/><path class="cls-3" d="M647.58,708.88a.49.49,0,0,0,0-1,.49.49,0,0,0,0,1Z" transform="translate(-12.49 1.48)"/><path class="cls-3" d="M604.17,649.91a.49.49,0,0,0,0-1,.49.49,0,0,0,0,1Z" transform="translate(-12.49 1.48)"/><path class="cls-4" d="M596.05,721.08a.49.49,0,0,0,0-1,.49.49,0,0,0,0,1Z" transform="translate(-12.49 1.48)"/><path class="cls-5" d="M708.72,872.71a.49.49,0,0,0,0-1,.49.49,0,0,0,0,1Z" transform="translate(-12.49 1.48)"/><path class="cls-5" d="M706.81,857a.49.49,0,0,0,0-1,.49.49,0,0,0,0,1Z" transform="translate(-12.49 1.48)"/><path class="cls-3" d="M750.75,861.73a.49.49,0,0,0,0-1,.49.49,0,0,0,0,1Z" transform="translate(-12.49 1.48)"/><path class="cls-3" d="M746.93,882.75a.49.49,0,0,0,0-1,.49.49,0,0,0,0,1Z" transform="translate(-12.49 1.48)"/><path class="cls-3" d="M729.26,895.64a.49.49,0,0,0,0-1,.49.49,0,0,0,0,1Z" transform="translate(-12.49 1.48)"/><path class="cls-5" d="M720.66,879.88a.49.49,0,0,0,0-1,.49.49,0,0,0,0,1Z" transform="translate(-12.49 1.48)"/><path class="cls-5" d="M727.83,875.1a.49.49,0,0,0,0-1,.49.49,0,0,0,0,1Z" transform="translate(-12.49 1.48)"/><path class="cls-3" d="M753.14,581.83a.49.49,0,0,0,0-1,.49.49,0,0,0,0,1Z" transform="translate(-12.49 1.48)"/><path class="cls-3" d="M740.72,576.58a.49.49,0,0,0,0-1,.49.49,0,0,0,0,1Z" transform="translate(-12.49 1.48)"/><path class="cls-3" d="M742.16,569.89a.49.49,0,0,0,0-1,.49.49,0,0,0,0,1Z" transform="translate(-12.49 1.48)"/><path class="cls-3" d="M731.17,568.94a.49.49,0,0,0,0-1,.49.49,0,0,0,0,1Z" transform="translate(-12.49 1.48)"/><path class="cls-3" d="M733.56,562.25a.49.49,0,0,0,0-1,.49.49,0,0,0,0,1Z" transform="translate(-12.49 1.48)"/><path class="cls-3" d="M764.6,566.55a.49.49,0,0,0,0-1,.49.49,0,0,0,0,1Z" transform="translate(-12.49 1.48)"/><path class="cls-3" d="M716.84,551.74a.49.49,0,0,0,0-1,.49.49,0,0,0,0,1Z" transform="translate(-12.49 1.48)"/><path class="cls-5" d="M705.86,571.32a.49.49,0,0,0,0-1,.49.49,0,0,0,0,1Z" transform="translate(-12.49 1.48)"/><path class="cls-3" d="M741.68,590a.49.49,0,0,0,0-1,.49.49,0,0,0,0,1Z" transform="translate(-12.49 1.48)"/><path class="cls-3" d="M709.68,629.6a.49.49,0,0,0,0-1,.49.49,0,0,0,0,1Z" transform="translate(-12.49 1.48)"/><path class="cls-3" d="M627.52,631a.49.49,0,0,0,0-1,.49.49,0,0,0,0,1Z" transform="translate(-12.49 1.48)"/><path class="cls-3" d="M553.49,676.41a.49.49,0,0,0,0-1,.49.49,0,0,0,0,1Z" transform="translate(-12.49 1.48)"/><path class="cls-4" d="M490.44,719.39a.49.49,0,0,0,0-1,.49.49,0,0,0,0,1Z" transform="translate(-12.49 1.48)"/><path class="cls-3" d="M438.86,733.24a.49.49,0,0,0,0-1,.49.49,0,0,0,0,1Z" transform="translate(-12.49 1.48)"/><path class="cls-4" d="M446.5,718.44a.49.49,0,0,0,0-1,.49.49,0,0,0,0,1Z" transform="translate(-12.49 1.48)"/><path class="cls-4" d="M457,729.42a.49.49,0,0,0,0-1,.49.49,0,0,0,0,1Z" transform="translate(-12.49 1.48)"/><path class="cls-3" d="M429.3,726.08a.49.49,0,0,0,0-1,.49.49,0,0,0,0,1Z" transform="translate(-12.49 1.48)"/><path class="cls-3" d="M436.94,717.48a.49.49,0,0,0,0-1,.49.49,0,0,0,0,1Z" transform="translate(-12.49 1.48)"/><path class="cls-3" d="M431.08,710.65l.48-.48a.49.49,0,0,0-.69-.69l-.48.48a.49.49,0,0,0,.69.69Z" transform="translate(-12.49 1.48)"/><path class="cls-4" d="M460.35,695.51a.49.49,0,0,0,0-1,.49.49,0,0,0,0,1Z" transform="translate(-12.49 1.48)"/><path class="cls-3" d="M437.42,670.2a.49.49,0,0,0,0-1,.49.49,0,0,0,0,1Z" transform="translate(-12.49 1.48)"/><path class="cls-3" d="M427.39,648.7a.49.49,0,0,0,0-1,.49.49,0,0,0,0,1Z" transform="translate(-12.49 1.48)"/><path class="cls-3" d="M485.66,636.28a.49.49,0,0,0,0-1,.49.49,0,0,0,0,1Z" transform="translate(-12.49 1.48)"/><path class="cls-3" d="M448.89,618.13a.49.49,0,0,0,0-1,.49.49,0,0,0,0,1Z" transform="translate(-12.49 1.48)"/><path class="cls-3" d="M351,707.93a.49.49,0,0,0,0-1,.49.49,0,0,0,0,1Z" transform="translate(-12.49 1.48)"/><path class="cls-3" d="M400.3,763.67l.48.48a.49.49,0,0,0,.69-.69L401,763a.49.49,0,0,0-.69.69Z" transform="translate(-12.49 1.48)"/><path class="cls-3" d="M381.06,774.32a.49.49,0,0,0,0-1,.49.49,0,0,0,0,1Z" transform="translate(-12.49 1.48)"/><path class="cls-3" d="M450.8,776.72a1,1,0,0,0,0-2,1,1,0,0,0,0,2Z" transform="translate(-12.49 1.48)"/><path class="cls-3" d="M396.35,756.66a1,1,0,0,0,0-2,1,1,0,0,0,0,2Z" transform="translate(-12.49 1.48)"/><path class="cls-3" d="M400.64,739.94a1,1,0,0,0,0-2,1,1,0,0,0,0,2Z" transform="translate(-12.49 1.48)"/><path class="cls-3" d="M327.09,750.93a1,1,0,0,0,0-2,1,1,0,0,0,0,2Z" transform="translate(-12.49 1.48)"/><path class="cls-3" d="M310.37,802.51a1,1,0,0,0,0-2,1,1,0,0,0,0,2Z" transform="translate(-12.49 1.48)"/><path class="cls-3" d="M259.74,791.53a1,1,0,0,0,0-2,1,1,0,0,0,0,2Z" transform="translate(-12.49 1.48)"/><path class="cls-3" d="M250.19,761.91a1,1,0,0,0,0-2,1,1,0,0,0,0,2Z" transform="translate(-12.49 1.48)"/><path class="cls-3" d="M162.78,774.81a1,1,0,0,0,0-2,1,1,0,0,0,0,2Z" transform="translate(-12.49 1.48)"/><path class="cls-5" d="M142.72,835.95a1,1,0,0,0,0-2,1,1,0,0,0,0,2Z" transform="translate(-12.49 1.48)"/><path class="cls-5" d="M181.41,878.94a1,1,0,0,0,0-2,1,1,0,0,0,0,2Z" transform="translate(-12.49 1.48)"/><path class="cls-3" d="M211,861.27a1.47,1.47,0,0,0,0-2.93,1.47,1.47,0,0,0,0,2.93Z" transform="translate(-12.49 1.48)"/><path class="cls-3" d="M263.08,685a.49.49,0,0,0,0-1,.49.49,0,0,0,0,1Z" transform="translate(-12.49 1.48)"/><path class="cls-3" d="M223.44,697.42a.49.49,0,0,0,0-1,.49.49,0,0,0,0,1Z" transform="translate(-12.49 1.48)"/><path class="cls-3" d="M152.27,700.29a.49.49,0,0,0,0-1,.49.49,0,0,0,0,1Z" transform="translate(-12.49 1.48)"/><path class="cls-3" d="M149.41,654.43a.49.49,0,0,0,0-1,.49.49,0,0,0,0,1Z" transform="translate(-12.49 1.48)"/><path class="cls-3" d="M181.41,708.88a.49.49,0,0,0,0-1,.49.49,0,0,0,0,1Z" transform="translate(-12.49 1.48)"/><path class="cls-3" d="M102.12,737.07a.49.49,0,0,0,0-1,.49.49,0,0,0,0,1Z" transform="translate(-12.49 1.48)"/><path class="cls-3" d="M418.37,775.79c2.52,0,2.52-3.91,0-3.91s-2.52,3.91,0,3.91Z" transform="translate(-12.49 1.48)"/><path class="cls-3" d="M500.92,756.2c2.52,0,2.52-3.91,0-3.91s-2.52,3.91,0,3.91Z" transform="translate(-12.49 1.48)"/><path class="cls-3" d="M238.94,881.86c2.52,0,2.52-3.91,0-3.91s-2.52,3.91,0,3.91Z" transform="translate(-12.49 1.48)"/><path class="cls-3" d="M407.19,857.62a1,1,0,0,0,0-2,1,1,0,0,0,0,2Z" transform="translate(-12.49 1.48)"/><path class="cls-3" d="M435.85,821.9a1,1,0,0,0,0-2,1,1,0,0,0,0,2Z" transform="translate(-12.49 1.48)"/><path class="cls-3" d="M380.62,793.06a1,1,0,0,0,0-2,1,1,0,0,0,0,2Z" transform="translate(-12.49 1.48)"/><path class="cls-3" d="M540.22,782.88a1,1,0,0,0,0-2,1,1,0,0,0,0,2Z" transform="translate(-12.49 1.48)"/><path class="cls-3" d="M569.33,758.62a1,1,0,0,0,0-2,1,1,0,0,0,0,2Z" transform="translate(-12.49 1.48)"/><path class="cls-3" d="M394.52,820a.49.49,0,0,0,0-1,.49.49,0,0,0,0,1Z" transform="translate(-12.49 1.48)"/><path class="cls-3" d="M417.35,821.41a.49.49,0,0,0,0-1,.49.49,0,0,0,0,1Z" transform="translate(-12.49 1.48)"/><path class="cls-3" d="M398.68,814.6a.49.49,0,0,0,0-1,.49.49,0,0,0,0,1Z" transform="translate(-12.49 1.48)"/><path class="cls-3" d="M399.13,793.09a.49.49,0,0,0,0-1,.49.49,0,0,0,0,1Z" transform="translate(-12.49 1.48)"/><path class="cls-3" d="M402.67,784.9a.49.49,0,0,0,0-1,.49.49,0,0,0,0,1Z" transform="translate(-12.49 1.48)"/><path class="cls-3" d="M361.63,852.91a.49.49,0,0,0,0-1,.49.49,0,0,0,0,1Z" transform="translate(-12.49 1.48)"/><path class="cls-3" d="M330.33,817.25a.49.49,0,0,0,0-1,.49.49,0,0,0,0,1Z" transform="translate(-12.49 1.48)"/><path class="cls-3" d="M355.08,749.56a.49.49,0,0,0,0-1,.49.49,0,0,0,0,1Z" transform="translate(-12.49 1.48)"/><path class="cls-3" d="M274.29,729.18a.49.49,0,0,0,0-1,.49.49,0,0,0,0,1Z" transform="translate(-12.49 1.48)"/><path class="cls-3" d="M276.47,698.61a.49.49,0,0,0,0-1,.49.49,0,0,0,0,1Z" transform="translate(-12.49 1.48)"/><path class="cls-3" d="M285.2,700.07a.49.49,0,0,0,0-1,.49.49,0,0,0,0,1Z" transform="translate(-12.49 1.48)"/><path class="cls-3" d="M285.93,712.44a.49.49,0,0,0,0-1,.49.49,0,0,0,0,1Z" transform="translate(-12.49 1.48)"/><path class="cls-3" d="M274.29,713.17a.49.49,0,0,0,0-1,.49.49,0,0,0,0,1Z" transform="translate(-12.49 1.48)"/><path class="cls-3" d="M476.62,778.67a.49.49,0,0,0,0-1,.49.49,0,0,0,0,1Z" transform="translate(-12.49 1.48)"/><path class="cls-3" d="M121.44,630.19a.49.49,0,0,0,0-1,.49.49,0,0,0,0,1Z" transform="translate(-12.49 1.48)"/><path class="cls-3" d="M451.15,611.27a.49.49,0,0,0,0-1,.49.49,0,0,0,0,1Z" transform="translate(-12.49 1.48)"/><path class="cls-3" d="M370.36,601.81a.49.49,0,0,0,0-1,.49.49,0,0,0,0,1Z" transform="translate(-12.49 1.48)"/><circle class="cls-1" cx="325.99" cy="901.14" r="2.28"/><circle class="cls-2" cx="333.47" cy="911.99" r="1.52"/><circle class="cls-2" cx="324.93" cy="915.48" r="1.05"/><path class="cls-3" d="M448.08,1225.51c2.52,0,2.52-3.91,0-3.91s-2.52,3.91,0,3.91Z" transform="translate(-12.49 1.48)"/><path class="cls-3" d="M242.25,1280.31c2.52,0,2.52-3.91,0-3.91s-2.52,3.91,0,3.91Z" transform="translate(-12.49 1.48)"/><path class="cls-3" d="M479.13,1203.52a1,1,0,0,0,0-2,1,1,0,0,0,0,2Z" transform="translate(-12.49 1.48)"/><path class="cls-3" d="M486.55,1247.27a1,1,0,0,0,0-2,1,1,0,0,0,0,2Z" transform="translate(-12.49 1.48)"/><path class="cls-3" d="M445.22,1030.61a1,1,0,0,0,0-2,1,1,0,0,0,0,2Z" transform="translate(-12.49 1.48)"/><path class="cls-3" d="M133.8,1004.82a1,1,0,0,0,0-2,1,1,0,0,0,0,2Z" transform="translate(-12.49 1.48)"/><path class="cls-3" d="M116.12,1008.16a1,1,0,0,0,0-2,1,1,0,0,0,0,2Z" transform="translate(-12.49 1.48)"/><path class="cls-3" d="M129.5,1012a1,1,0,0,0,0-2,1,1,0,0,0,0,2Z" transform="translate(-12.49 1.48)"/><path class="cls-3" d="M113.57,1213.18a1,1,0,0,0,0-2,1,1,0,0,0,0,2Z" transform="translate(-12.49 1.48)"/><path class="cls-4" d="M70.59,1215.09a1,1,0,0,0,0-2,1,1,0,0,0,0,2Z" transform="translate(-12.49 1.48)"/><path class="cls-4" d="M188.09,1249.48a1,1,0,0,0,0-2,1,1,0,0,0,0,2Z" transform="translate(-12.49 1.48)"/><path class="cls-3" d="M40,1206.24c2.52,0,2.52-3.91,0-3.91s-2.52,3.91,0,3.91Z" transform="translate(-12.49 1.48)"/><path class="cls-3" d="M88.26,1234.2a1,1,0,0,0,0-2,1,1,0,0,0,0,2Z" transform="translate(-12.49 1.48)"/><path class="cls-3" d="M67.72,1250.91a1,1,0,0,0,0-2,1,1,0,0,0,0,2Z" transform="translate(-12.49 1.48)"/><path class="cls-3" d="M76.32,1253.3a1,1,0,0,0,0-2,1,1,0,0,0,0,2Z" transform="translate(-12.49 1.48)"/><path class="cls-3" d="M53.07,1101.78a1,1,0,0,0,0-2,1,1,0,0,0,0,2Z" transform="translate(-12.49 1.48)"/><path class="cls-4" d="M52.91,1221.3a1,1,0,0,0,0-2,1,1,0,0,0,0,2Z" transform="translate(-12.49 1.48)"/><path class="cls-3" d="M210.53,1212.7a1,1,0,0,0,0-2,1,1,0,0,0,0,2Z" transform="translate(-12.49 1.48)"/><path class="cls-3" d="M91.76,1195.87a1,1,0,0,0,0-2,1,1,0,0,0,0,2Z" transform="translate(-12.49 1.48)"/><path class="cls-5" d="M225,1244.11a1,1,0,0,0,0-2,1,1,0,0,0,0,2Z" transform="translate(-12.49 1.48)"/><path class="cls-5" d="M19.64,1318.63a1,1,0,0,0,0-2,1,1,0,0,0,0,2Z" transform="translate(-12.49 1.48)"/><path class="cls-3" d="M35.4,1322.93a1,1,0,0,0,0-2,1,1,0,0,0,0,2Z" transform="translate(-12.49 1.48)"/><path class="cls-3" d="M29.19,1311.46a1,1,0,0,0,0-2,1,1,0,0,0,0,2Z" transform="translate(-12.49 1.48)"/><path class="cls-5" d="M26.33,1316.24a1,1,0,0,0,0-2,1,1,0,0,0,0,2Z" transform="translate(-12.49 1.48)"/><path class="cls-3" d="M13.43,1289a1,1,0,0,0,0-2,1,1,0,0,0,0,2Z" transform="translate(-12.49 1.48)"/><path class="cls-3" d="M130.93,1283.28a1,1,0,0,0,0-2,1,1,0,0,0,0,2Z" transform="translate(-12.49 1.48)"/><path class="cls-3" d="M196.84,1301.91a1,1,0,0,0,0-2,1,1,0,0,0,0,2Z" transform="translate(-12.49 1.48)"/><path class="cls-5" d="M72.18,1287.11a1.47,1.47,0,0,0,0-2.93,1.47,1.47,0,0,0,0,2.93Z" transform="translate(-12.49 1.48)"/><path class="cls-3" d="M112.78,1304.79a1.47,1.47,0,0,0,0-2.93,1.47,1.47,0,0,0,0,2.93Z" transform="translate(-12.49 1.48)"/><path class="cls-3" d="M110.71,1243.24h-.48a.49.49,0,0,0,0,1h.48a.49.49,0,0,0,0-1Z" transform="translate(-12.49 1.48)"/><path class="cls-3" d="M92.56,1248.52a.49.49,0,0,0,0-1,.49.49,0,0,0,0,1Z" transform="translate(-12.49 1.48)"/><path class="cls-3" d="M96.86,1252.81a.49.49,0,0,0,0-1,.49.49,0,0,0,0,1Z" transform="translate(-12.49 1.48)"/><path class="cls-3" d="M86.35,1259.5a.49.49,0,0,0,0-1,.49.49,0,0,0,0,1Z" transform="translate(-12.49 1.48)"/><path class="cls-3" d="M84.92,1263.8a.49.49,0,0,0,0-1,.49.49,0,0,0,0,1Z" transform="translate(-12.49 1.48)"/><path class="cls-3" d="M119.47,1112.75a.49.49,0,0,0,0-1,.49.49,0,0,0,0,1Z" transform="translate(-12.49 1.48)"/><path class="cls-3" d="M109,1121.83a.49.49,0,0,0,0-1,.49.49,0,0,0,0,1Z" transform="translate(-12.49 1.48)"/><path class="cls-3" d="M79.35,1130.43a.49.49,0,0,0,0-1,.49.49,0,0,0,0,1Z" transform="translate(-12.49 1.48)"/><path class="cls-3" d="M134.27,1163.38a.49.49,0,0,0,0-1,.49.49,0,0,0,0,1Z" transform="translate(-12.49 1.48)"/><path class="cls-3" d="M192.55,1162.9a.49.49,0,0,0,0-1,.49.49,0,0,0,0,1Z" transform="translate(-12.49 1.48)"/><path class="cls-4" d="M200.5,1263.8a.49.49,0,0,0,0-1,.49.49,0,0,0,0,1Z" transform="translate(-12.49 1.48)"/><path class="cls-5" d="M73.14,999.55a.49.49,0,0,0,0-1,.49.49,0,0,0,0,1Z" transform="translate(-12.49 1.48)"/><path class="cls-5" d="M75,1015.31a.49.49,0,0,0,0-1,.49.49,0,0,0,0,1Z" transform="translate(-12.49 1.48)"/><path class="cls-3" d="M31.1,1010.54a.49.49,0,0,0,0-1,.49.49,0,0,0,0,1Z" transform="translate(-12.49 1.48)"/><path class="cls-3" d="M34.92,989.52a.49.49,0,0,0,0-1,.49.49,0,0,0,0,1Z" transform="translate(-12.49 1.48)"/><path class="cls-3" d="M52.6,976.63a.49.49,0,0,0,0-1,.49.49,0,0,0,0,1Z" transform="translate(-12.49 1.48)"/><path class="cls-5" d="M61.19,992.39a.49.49,0,0,0,0-1,.49.49,0,0,0,0,1Z" transform="translate(-12.49 1.48)"/><path class="cls-5" d="M54,997.16a.49.49,0,0,0,0-1,.49.49,0,0,0,0,1Z" transform="translate(-12.49 1.48)"/><path class="cls-3" d="M28.72,1290.43a.49.49,0,0,0,0-1,.49.49,0,0,0,0,1Z" transform="translate(-12.49 1.48)"/><path class="cls-3" d="M66.45,1293.3a.49.49,0,0,0,0-1,.49.49,0,0,0,0,1Z" transform="translate(-12.49 1.48)"/><path class="cls-3" d="M39.7,1302.38a.49.49,0,0,0,0-1,.49.49,0,0,0,0,1Z" transform="translate(-12.49 1.48)"/><path class="cls-3" d="M76,1300.94a.49.49,0,0,0,0-1,.49.49,0,0,0,0,1Z" transform="translate(-12.49 1.48)"/><path class="cls-3" d="M73.61,1307.63a.49.49,0,0,0,0-1,.49.49,0,0,0,0,1Z" transform="translate(-12.49 1.48)"/><path class="cls-3" d="M17.25,1305.72a.49.49,0,0,0,0-1,.49.49,0,0,0,0,1Z" transform="translate(-12.49 1.48)"/><path class="cls-3" d="M65,1320.53a.49.49,0,0,0,0-1,.49.49,0,0,0,0,1Z" transform="translate(-12.49 1.48)"/><path class="cls-5" d="M76,1300.94a.49.49,0,0,0,0-1,.49.49,0,0,0,0,1Z" transform="translate(-12.49 1.48)"/><path class="cls-3" d="M65.49,1279.93a.49.49,0,0,0,0-1,.49.49,0,0,0,0,1Z" transform="translate(-12.49 1.48)"/><path class="cls-3" d="M72.18,1242.67a.49.49,0,0,0,0-1,.49.49,0,0,0,0,1Z" transform="translate(-12.49 1.48)"/><path class="cls-3" d="M154.33,1241.24a.49.49,0,0,0,0-1,.49.49,0,0,0,0,1Z" transform="translate(-12.49 1.48)"/><path class="cls-3" d="M228.37,1195.86a.49.49,0,0,0,0-1,.49.49,0,0,0,0,1Z" transform="translate(-12.49 1.48)"/><path class="cls-4" d="M291.42,1152.87a.49.49,0,0,0,0-1,.49.49,0,0,0,0,1Z" transform="translate(-12.49 1.48)"/><path class="cls-3" d="M343,1139a.49.49,0,0,0,0-1,.49.49,0,0,0,0,1Z" transform="translate(-12.49 1.48)"/><path class="cls-4" d="M335.36,1153.83a.49.49,0,0,0,0-1,.49.49,0,0,0,0,1Z" transform="translate(-12.49 1.48)"/><path class="cls-4" d="M324.85,1142.84a.49.49,0,0,0,0-1,.49.49,0,0,0,0,1Z" transform="translate(-12.49 1.48)"/><path class="cls-3" d="M352.55,1146.19a.49.49,0,0,0,0-1,.49.49,0,0,0,0,1Z" transform="translate(-12.49 1.48)"/><path class="cls-3" d="M344.91,1154.79a.49.49,0,0,0,0-1,.49.49,0,0,0,0,1Z" transform="translate(-12.49 1.48)"/><path class="cls-3" d="M350.78,1160.64l-.48.48a.49.49,0,0,0,.69.69l.48-.48a.49.49,0,0,0-.69-.69Z" transform="translate(-12.49 1.48)"/><path class="cls-4" d="M321.51,1176.76a.49.49,0,0,0,0-1,.49.49,0,0,0,0,1Z" transform="translate(-12.49 1.48)"/><path class="cls-3" d="M344.43,1202.07a.49.49,0,0,0,0-1,.49.49,0,0,0,0,1Z" transform="translate(-12.49 1.48)"/><path class="cls-3" d="M354.46,1223.57a.49.49,0,0,0,0-1,.49.49,0,0,0,0,1Z" transform="translate(-12.49 1.48)"/><path class="cls-3" d="M296.19,1236a.49.49,0,0,0,0-1,.49.49,0,0,0,0,1Z" transform="translate(-12.49 1.48)"/><path class="cls-3" d="M333,1254.13a.49.49,0,0,0,0-1,.49.49,0,0,0,0,1Z" transform="translate(-12.49 1.48)"/><path class="cls-3" d="M430.89,1164.34a.49.49,0,0,0,0-1,.49.49,0,0,0,0,1Z" transform="translate(-12.49 1.48)"/><path class="cls-3" d="M405.79,1311.7l-.48-.48a.49.49,0,0,0-.69.69l.48.48a.49.49,0,0,0,.69-.69Z" transform="translate(-12.49 1.48)"/><path class="cls-3" d="M425,1302a.49.49,0,0,0,0-1,.49.49,0,0,0,0,1Z" transform="translate(-12.49 1.48)"/><path class="cls-3" d="M355.29,1300.61a1,1,0,0,0,0-2,1,1,0,0,0,0,2Z" transform="translate(-12.49 1.48)"/><path class="cls-3" d="M385.51,1116.59a1,1,0,0,0,0-2,1,1,0,0,0,0,2Z" transform="translate(-12.49 1.48)"/><path class="cls-3" d="M381.21,1133.3a1,1,0,0,0,0-2,1,1,0,0,0,0,2Z" transform="translate(-12.49 1.48)"/><path class="cls-3" d="M454.77,1122.32a1,1,0,0,0,0-2,1,1,0,0,0,0,2Z" transform="translate(-12.49 1.48)"/><path class="cls-3" d="M471.49,1070.73a1,1,0,0,0,0-2,1,1,0,0,0,0,2Z" transform="translate(-12.49 1.48)"/><path class="cls-3" d="M387.72,1303.5c2.52,0,2.52-3.91,0-3.91s-2.52,3.91,0,3.91Z" transform="translate(-12.49 1.48)"/><path class="cls-3" d="M283.81,1014.2c2.52,0,2.52-3.91,0-3.91s-2.52,3.91,0,3.91Z" transform="translate(-12.49 1.48)"/><path class="cls-3" d="M374.67,1015.63a1,1,0,0,0,0-2,1,1,0,0,0,0,2Z" transform="translate(-12.49 1.48)"/><path class="cls-3" d="M370.24,1255.42a1,1,0,0,0,0-2,1,1,0,0,0,0,2Z" transform="translate(-12.49 1.48)"/><path class="cls-3" d="M425.47,1284.27a1,1,0,0,0,0-2,1,1,0,0,0,0,2Z" transform="translate(-12.49 1.48)"/><path class="cls-3" d="M244.51,985.57a1,1,0,0,0,0-2,1,1,0,0,0,0,2Z" transform="translate(-12.49 1.48)"/><path class="cls-3" d="M215.4,1009.83a1,1,0,0,0,0-2,1,1,0,0,0,0,2Z" transform="translate(-12.49 1.48)"/><path class="cls-3" d="M411.57,1256.38a.49.49,0,0,0,0-1,.49.49,0,0,0,0,1Z" transform="translate(-12.49 1.48)"/><path class="cls-3" d="M388.74,1254.93a.49.49,0,0,0,0-1,.49.49,0,0,0,0,1Z" transform="translate(-12.49 1.48)"/><path class="cls-3" d="M407.41,1261.75a.49.49,0,0,0,0-1,.49.49,0,0,0,0,1Z" transform="translate(-12.49 1.48)"/><path class="cls-3" d="M407,1283.26a.49.49,0,0,0,0-1,.49.49,0,0,0,0,1Z" transform="translate(-12.49 1.48)"/><path class="cls-3" d="M403.41,1291.45a.49.49,0,0,0,0-1,.49.49,0,0,0,0,1Z" transform="translate(-12.49 1.48)"/><path class="cls-3" d="M420.23,1019.36a.49.49,0,0,0,0-1,.49.49,0,0,0,0,1Z" transform="translate(-12.49 1.48)"/><path class="cls-3" d="M451.53,1055a.49.49,0,0,0,0-1,.49.49,0,0,0,0,1Z" transform="translate(-12.49 1.48)"/><path class="cls-3" d="M426.78,1122.71a.49.49,0,0,0,0-1,.49.49,0,0,0,0,1Z" transform="translate(-12.49 1.48)"/><path class="cls-3" d="M329.46,1297.68a.49.49,0,0,0,0-1,.49.49,0,0,0,0,1Z" transform="translate(-12.49 1.48)"/><path class="cls-3" d="M330.71,1261a.49.49,0,0,0,0-1,.49.49,0,0,0,0,1Z" transform="translate(-12.49 1.48)"/><path class="cls-3" d="M411.5,1270.46a.49.49,0,0,0,0-1,.49.49,0,0,0,0,1Z" transform="translate(-12.49 1.48)"/><circle class="cls-1" cx="987.81" cy="829.84" r="2.28"/><circle class="cls-2" cx="1049.3" cy="927.12" r="1.52"/><circle class="cls-2" cx="986.19" cy="929.33" r="1.05"/><circle class="cls-3" cx="1250.82" cy="1310.96" r="1.35"/><circle class="cls-3" cx="1253.52" cy="1304.66" r="1.35"/><circle class="cls-3" cx="1189.39" cy="1221.31" r="1.42"/><circle class="cls-5" cx="1231.25" cy="1250.86" r="0.79"/><circle class="cls-4" cx="1258.95" cy="1310.74" r="0.79"/><circle class="cls-4" cx="1239.95" cy="1320.02" r="1.28"/><circle class="cls-3" cx="1117.07" cy="1312.9" r="0.76"/><circle class="cls-3" cx="1136.74" cy="1282.64" r="0.76"/><circle class="cls-3" cx="1254.44" cy="1277.52" r="0.76"/><path class="cls-3" d="M951.88,1221.49c2.52,0,2.52-3.91,0-3.91s-2.52,3.91,0,3.91Z" transform="translate(-12.49 1.48)"/><path class="cls-3" d="M1025,1232.47c2.52,0,2.52-3.91,0-3.91s-2.52,3.91,0,3.91Z" transform="translate(-12.49 1.48)"/><path class="cls-3" d="M982.93,1199.49a1,1,0,0,0,0-2,1,1,0,0,0,0,2Z" transform="translate(-12.49 1.48)"/><path class="cls-3" d="M1072.25,1199.49a1,1,0,0,0,0-2,1,1,0,0,0,0,2Z" transform="translate(-12.49 1.48)"/><path class="cls-3" d="M1085.15,1225.76a1,1,0,0,0,0-2,1,1,0,0,0,0,2Z" transform="translate(-12.49 1.48)"/><path class="cls-3" d="M1262,968.54a1,1,0,0,0,0-2,1,1,0,0,0,0,2Z" transform="translate(-12.49 1.48)"/><path class="cls-3" d="M1253.44,969a1,1,0,0,0,0-2,1,1,0,0,0,0,2Z" transform="translate(-12.49 1.48)"/><path class="cls-3" d="M1268.73,984.3a1,1,0,0,0,0-2,1,1,0,0,0,0,2Z" transform="translate(-12.49 1.48)"/><path class="cls-4" d="M1244.68,998.41a1,1,0,0,0,0-2,1,1,0,0,0,0,2Z" transform="translate(-12.49 1.48)"/><path class="cls-3" d="M1201.21,978.83a1,1,0,0,0,0-2,1,1,0,0,0,0,2Z" transform="translate(-12.49 1.48)"/><path class="cls-3" d="M1207.42,1047.13a1,1,0,0,0,0-2,1,1,0,0,0,0,2Z" transform="translate(-12.49 1.48)"/><path class="cls-3" d="M1154.88,1113a1,1,0,0,0,0-2,1,1,0,0,0,0,2Z" transform="translate(-12.49 1.48)"/><path class="cls-3" d="M1247.54,1198.06a1,1,0,0,0,0-2,1,1,0,0,0,0,2Z" transform="translate(-12.49 1.48)"/><path class="cls-3" d="M949,1026.59a1,1,0,0,0,0-2,1,1,0,0,0,0,2Z" transform="translate(-12.49 1.48)"/><path class="cls-3" d="M637.6,1000.8a1,1,0,0,0,0-2,1,1,0,0,0,0,2Z" transform="translate(-12.49 1.48)"/><path class="cls-3" d="M619.93,1004.14a1,1,0,0,0,0-2,1,1,0,0,0,0,2Z" transform="translate(-12.49 1.48)"/><path class="cls-3" d="M633.3,1008a1,1,0,0,0,0-2,1,1,0,0,0,0,2Z" transform="translate(-12.49 1.48)"/><path class="cls-3" d="M617.54,1037.1a1,1,0,0,0,0-2,1,1,0,0,0,0,2Z" transform="translate(-12.49 1.48)"/><path class="cls-4" d="M574.55,1039a1,1,0,0,0,0-2,1,1,0,0,0,0,2Z" transform="translate(-12.49 1.48)"/><path class="cls-4" d="M692,1073.4a1,1,0,0,0,0-2,1,1,0,0,0,0,2Z" transform="translate(-12.49 1.48)"/><path class="cls-3" d="M581.71,1069.12c2.52,0,2.52-3.91,0-3.91s-2.52,3.91,0,3.91Z" transform="translate(-12.49 1.48)"/><path class="cls-3" d="M592.22,1058.11a1,1,0,0,0,0-2,1,1,0,0,0,0,2Z" transform="translate(-12.49 1.48)"/><path class="cls-3" d="M571.68,1074.83a1,1,0,0,0,0-2,1,1,0,0,0,0,2Z" transform="translate(-12.49 1.48)"/><path class="cls-3" d="M580.28,1077.22a1,1,0,0,0,0-2,1,1,0,0,0,0,2Z" transform="translate(-12.49 1.48)"/><path class="cls-3" d="M556.88,1097.76a1,1,0,0,0,0-2,1,1,0,0,0,0,2Z" transform="translate(-12.49 1.48)"/><path class="cls-4" d="M556.88,1045.22a1,1,0,0,0,0-2,1,1,0,0,0,0,2Z" transform="translate(-12.49 1.48)"/><path class="cls-3" d="M714.5,1036.62a1,1,0,0,0,0-2,1,1,0,0,0,0,2Z" transform="translate(-12.49 1.48)"/><path class="cls-3" d="M595.57,1191.85a1,1,0,0,0,0-2,1,1,0,0,0,0,2Z" transform="translate(-12.49 1.48)"/><path class="cls-5" d="M728.83,1240.09a1,1,0,0,0,0-2,1,1,0,0,0,0,2Z" transform="translate(-12.49 1.48)"/><path class="cls-5" d="M523.44,1314.61a1,1,0,0,0,0-2,1,1,0,0,0,0,2Z" transform="translate(-12.49 1.48)"/><path class="cls-3" d="M539.2,1318.9a1,1,0,0,0,0-2,1,1,0,0,0,0,2Z" transform="translate(-12.49 1.48)"/><path class="cls-3" d="M533,1307.44a1,1,0,0,0,0-2,1,1,0,0,0,0,2Z" transform="translate(-12.49 1.48)"/><path class="cls-5" d="M530.13,1312.22a1,1,0,0,0,0-2,1,1,0,0,0,0,2Z" transform="translate(-12.49 1.48)"/><path class="cls-3" d="M517.23,1285a1,1,0,0,0,0-2,1,1,0,0,0,0,2Z" transform="translate(-12.49 1.48)"/><path class="cls-3" d="M634.73,1279.26a1,1,0,0,0,0-2,1,1,0,0,0,0,2Z" transform="translate(-12.49 1.48)"/><path class="cls-3" d="M700.65,1297.89a1,1,0,0,0,0-2,1,1,0,0,0,0,2Z" transform="translate(-12.49 1.48)"/><path class="cls-5" d="M576,1283.09a1.47,1.47,0,0,0,0-2.93,1.47,1.47,0,0,0,0,2.93Z" transform="translate(-12.49 1.48)"/><path class="cls-3" d="M616.58,1300.77a1.47,1.47,0,0,0,0-2.93,1.47,1.47,0,0,0,0,2.93Z" transform="translate(-12.49 1.48)"/><path class="cls-3" d="M1006.34,1232a1.47,1.47,0,0,0,0-2.93,1.47,1.47,0,0,0,0,2.93Z" transform="translate(-12.49 1.48)"/><path class="cls-5" d="M1040.25,1252a1.47,1.47,0,0,0,0-2.93,1.47,1.47,0,0,0,0,2.93Z" transform="translate(-12.49 1.48)"/><path class="cls-3" d="M1012.07,1276.88a1.47,1.47,0,0,0,0-2.93,1.47,1.47,0,0,0,0,2.93Z" transform="translate(-12.49 1.48)"/><path class="cls-3" d="M1048.85,1275a.49.49,0,0,0,0-1,.49.49,0,0,0,0,1Z" transform="translate(-12.49 1.48)"/><path class="cls-3" d="M1056.49,1280.68a.49.49,0,0,0,0-1,.49.49,0,0,0,0,1Z" transform="translate(-12.49 1.48)"/><path class="cls-3" d="M1045,1283.07a.49.49,0,0,0,0-1,.49.49,0,0,0,0,1Z" transform="translate(-12.49 1.48)"/><path class="cls-3" d="M1226,1062.88a.49.49,0,0,0,0-1,.49.49,0,0,0,0,1Z" transform="translate(-12.49 1.48)"/><path class="cls-3" d="M1215.06,1074.82a.49.49,0,0,0,0-1,.49.49,0,0,0,0,1Z" transform="translate(-12.49 1.48)"/><path class="cls-3" d="M1247.54,1082a.49.49,0,0,0,0-1,.49.49,0,0,0,0,1Z" transform="translate(-12.49 1.48)"/><path class="cls-3" d="M614.67,1067.15h-.48a.49.49,0,0,0,0,1h.48a.49.49,0,0,0,0-1Z" transform="translate(-12.49 1.48)"/><path class="cls-3" d="M596.52,1072.43a.49.49,0,0,0,0-1,.49.49,0,0,0,0,1Z" transform="translate(-12.49 1.48)"/><path class="cls-3" d="M600.82,1076.73a.49.49,0,0,0,0-1,.49.49,0,0,0,0,1Z" transform="translate(-12.49 1.48)"/><path class="cls-3" d="M590.31,1083.42a.49.49,0,0,0,0-1,.49.49,0,0,0,0,1Z" transform="translate(-12.49 1.48)"/><path class="cls-3" d="M588.88,1087.72a.49.49,0,0,0,0-1,.49.49,0,0,0,0,1Z" transform="translate(-12.49 1.48)"/><path class="cls-3" d="M623.27,1108.73a.49.49,0,0,0,0-1,.49.49,0,0,0,0,1Z" transform="translate(-12.49 1.48)"/><path class="cls-3" d="M612.76,1117.81a.49.49,0,0,0,0-1,.49.49,0,0,0,0,1Z" transform="translate(-12.49 1.48)"/><path class="cls-3" d="M583.15,1126.4a.49.49,0,0,0,0-1,.49.49,0,0,0,0,1Z" transform="translate(-12.49 1.48)"/><path class="cls-3" d="M638.08,1159.36a.49.49,0,0,0,0-1,.49.49,0,0,0,0,1Z" transform="translate(-12.49 1.48)"/><path class="cls-3" d="M681.49,1218.33a.49.49,0,0,0,0-1,.49.49,0,0,0,0,1Z" transform="translate(-12.49 1.48)"/><path class="cls-4" d="M689.61,1147.16a.49.49,0,0,0,0-1,.49.49,0,0,0,0,1Z" transform="translate(-12.49 1.48)"/><path class="cls-5" d="M576.94,995.53a.49.49,0,0,0,0-1,.49.49,0,0,0,0,1Z" transform="translate(-12.49 1.48)"/><path class="cls-5" d="M578.85,1011.29a.49.49,0,0,0,0-1,.49.49,0,0,0,0,1Z" transform="translate(-12.49 1.48)"/><path class="cls-3" d="M534.91,1006.52a.49.49,0,0,0,0-1,.49.49,0,0,0,0,1Z" transform="translate(-12.49 1.48)"/><path class="cls-3" d="M538.73,985.5a.49.49,0,0,0,0-1,.49.49,0,0,0,0,1Z" transform="translate(-12.49 1.48)"/><path class="cls-3" d="M556.4,972.61a.49.49,0,0,0,0-1,.49.49,0,0,0,0,1Z" transform="translate(-12.49 1.48)"/><path class="cls-5" d="M565,988.37a.49.49,0,0,0,0-1,.49.49,0,0,0,0,1Z" transform="translate(-12.49 1.48)"/><path class="cls-5" d="M557.83,993.14a.49.49,0,0,0,0-1,.49.49,0,0,0,0,1Z" transform="translate(-12.49 1.48)"/><path class="cls-3" d="M532.52,1286.41a.49.49,0,0,0,0-1,.49.49,0,0,0,0,1Z" transform="translate(-12.49 1.48)"/><path class="cls-3" d="M544.94,1291.67a.49.49,0,0,0,0-1,.49.49,0,0,0,0,1Z" transform="translate(-12.49 1.48)"/><path class="cls-3" d="M543.5,1298.35a.49.49,0,0,0,0-1,.49.49,0,0,0,0,1Z" transform="translate(-12.49 1.48)"/><path class="cls-3" d="M554.49,1299.31a.49.49,0,0,0,0-1,.49.49,0,0,0,0,1Z" transform="translate(-12.49 1.48)"/><path class="cls-3" d="M552.1,1306a.49.49,0,0,0,0-1,.49.49,0,0,0,0,1Z" transform="translate(-12.49 1.48)"/><path class="cls-3" d="M521.05,1301.7a.49.49,0,0,0,0-1,.49.49,0,0,0,0,1Z" transform="translate(-12.49 1.48)"/><path class="cls-3" d="M568.82,1316.5a.49.49,0,0,0,0-1,.49.49,0,0,0,0,1Z" transform="translate(-12.49 1.48)"/><path class="cls-5" d="M579.8,1296.92a.49.49,0,0,0,0-1,.49.49,0,0,0,0,1Z" transform="translate(-12.49 1.48)"/><path class="cls-3" d="M544,1278.29a.49.49,0,0,0,0-1,.49.49,0,0,0,0,1Z" transform="translate(-12.49 1.48)"/><path class="cls-3" d="M576,1238.65a.49.49,0,0,0,0-1,.49.49,0,0,0,0,1Z" transform="translate(-12.49 1.48)"/><path class="cls-3" d="M658.14,1237.22a.49.49,0,0,0,0-1,.49.49,0,0,0,0,1Z" transform="translate(-12.49 1.48)"/><path class="cls-3" d="M732.17,1191.84a.49.49,0,0,0,0-1,.49.49,0,0,0,0,1Z" transform="translate(-12.49 1.48)"/><path class="cls-4" d="M795.22,1148.85a.49.49,0,0,0,0-1,.49.49,0,0,0,0,1Z" transform="translate(-12.49 1.48)"/><path class="cls-3" d="M846.8,1135a.49.49,0,0,0,0-1,.49.49,0,0,0,0,1Z" transform="translate(-12.49 1.48)"/><path class="cls-4" d="M839.16,1149.81a.49.49,0,0,0,0-1,.49.49,0,0,0,0,1Z" transform="translate(-12.49 1.48)"/><path class="cls-4" d="M828.65,1138.82a.49.49,0,0,0,0-1,.49.49,0,0,0,0,1Z" transform="translate(-12.49 1.48)"/><path class="cls-3" d="M856.36,1142.17a.49.49,0,0,0,0-1,.49.49,0,0,0,0,1Z" transform="translate(-12.49 1.48)"/><path class="cls-3" d="M848.71,1150.76a.49.49,0,0,0,0-1,.49.49,0,0,0,0,1Z" transform="translate(-12.49 1.48)"/><path class="cls-3" d="M854.58,1156.62l-.48.48a.49.49,0,0,0,.69.69l.48-.48a.49.49,0,0,0-.69-.69Z" transform="translate(-12.49 1.48)"/><path class="cls-4" d="M825.31,1172.74a.49.49,0,0,0,0-1,.49.49,0,0,0,0,1Z" transform="translate(-12.49 1.48)"/><path class="cls-3" d="M848.24,1198.05a.49.49,0,0,0,0-1,.49.49,0,0,0,0,1Z" transform="translate(-12.49 1.48)"/><path class="cls-3" d="M858.27,1219.54a.49.49,0,0,0,0-1,.49.49,0,0,0,0,1Z" transform="translate(-12.49 1.48)"/><path class="cls-3" d="M800,1232a.49.49,0,0,0,0-1,.49.49,0,0,0,0,1Z" transform="translate(-12.49 1.48)"/><path class="cls-3" d="M836.77,1250.11a.49.49,0,0,0,0-1,.49.49,0,0,0,0,1Z" transform="translate(-12.49 1.48)"/><path class="cls-3" d="M934.69,1160.32a.49.49,0,0,0,0-1,.49.49,0,0,0,0,1Z" transform="translate(-12.49 1.48)"/><path class="cls-3" d="M885.36,1103.6l-.48-.48a.49.49,0,0,0-.69.69l.48.48a.49.49,0,0,0,.69-.69Z" transform="translate(-12.49 1.48)"/><path class="cls-3" d="M904.6,1093.93a.49.49,0,0,0,0-1,.49.49,0,0,0,0,1Z" transform="translate(-12.49 1.48)"/><path class="cls-3" d="M834.86,1092.5a1,1,0,0,0,0-2,1,1,0,0,0,0,2Z" transform="translate(-12.49 1.48)"/><path class="cls-3" d="M889.31,1112.56a1,1,0,0,0,0-2,1,1,0,0,0,0,2Z" transform="translate(-12.49 1.48)"/><path class="cls-3" d="M885,1129.28a1,1,0,0,0,0-2,1,1,0,0,0,0,2Z" transform="translate(-12.49 1.48)"/><path class="cls-3" d="M958.57,1118.3a1,1,0,0,0,0-2,1,1,0,0,0,0,2Z" transform="translate(-12.49 1.48)"/><path class="cls-3" d="M975.29,1066.71a1,1,0,0,0,0-2,1,1,0,0,0,0,2Z" transform="translate(-12.49 1.48)"/><path class="cls-3" d="M1025.92,1077.7a1,1,0,0,0,0-2,1,1,0,0,0,0,2Z" transform="translate(-12.49 1.48)"/><path class="cls-3" d="M1035.47,1107.31a1,1,0,0,0,0-2,1,1,0,0,0,0,2Z" transform="translate(-12.49 1.48)"/><path class="cls-3" d="M1122.88,1094.41a1,1,0,0,0,0-2,1,1,0,0,0,0,2Z" transform="translate(-12.49 1.48)"/><path class="cls-5" d="M1142.94,1033.28a1,1,0,0,0,0-2,1,1,0,0,0,0,2Z" transform="translate(-12.49 1.48)"/><path class="cls-5" d="M1104.25,990.29a1,1,0,0,0,0-2,1,1,0,0,0,0,2Z" transform="translate(-12.49 1.48)"/><path class="cls-3" d="M1074.64,1008.93a1.47,1.47,0,0,0,0-2.93,1.47,1.47,0,0,0,0,2.93Z" transform="translate(-12.49 1.48)"/><path class="cls-3" d="M1022.58,1183.24a.49.49,0,0,0,0-1,.49.49,0,0,0,0,1Z" transform="translate(-12.49 1.48)"/><path class="cls-3" d="M1062.22,1170.83a.49.49,0,0,0,0-1,.49.49,0,0,0,0,1Z" transform="translate(-12.49 1.48)"/><path class="cls-3" d="M1133.39,1168a.49.49,0,0,0,0-1,.49.49,0,0,0,0,1Z" transform="translate(-12.49 1.48)"/><path class="cls-3" d="M1136.25,1213.81a.49.49,0,0,0,0-1,.49.49,0,0,0,0,1Z" transform="translate(-12.49 1.48)"/><path class="cls-3" d="M1104.25,1159.36a.49.49,0,0,0,0-1,.49.49,0,0,0,0,1Z" transform="translate(-12.49 1.48)"/><path class="cls-3" d="M1183.54,1131.18a.49.49,0,0,0,0-1,.49.49,0,0,0,0,1Z" transform="translate(-12.49 1.48)"/><path class="cls-3" d="M867.29,1095.39c2.52,0,2.52-3.91,0-3.91s-2.52,3.91,0,3.91Z" transform="translate(-12.49 1.48)"/><path class="cls-3" d="M787.61,1010.18c2.52,0,2.52-3.91,0-3.91s-2.52,3.91,0,3.91Z" transform="translate(-12.49 1.48)"/><path class="cls-3" d="M1046.72,989.32c2.52,0,2.52-3.91,0-3.91s-2.52,3.91,0,3.91Z" transform="translate(-12.49 1.48)"/><path class="cls-3" d="M878.47,1011.61a1,1,0,0,0,0-2,1,1,0,0,0,0,2Z" transform="translate(-12.49 1.48)"/><path class="cls-3" d="M849.81,1047.32a1,1,0,0,0,0-2,1,1,0,0,0,0,2Z" transform="translate(-12.49 1.48)"/><path class="cls-3" d="M905,1076.17a1,1,0,0,0,0-2,1,1,0,0,0,0,2Z" transform="translate(-12.49 1.48)"/><path class="cls-3" d="M748.31,981.55a1,1,0,0,0,0-2,1,1,0,0,0,0,2Z" transform="translate(-12.49 1.48)"/><path class="cls-3" d="M719.2,1005.81a1,1,0,0,0,0-2,1,1,0,0,0,0,2Z" transform="translate(-12.49 1.48)"/><path class="cls-3" d="M891.14,1048.27a.49.49,0,0,0,0-1,.49.49,0,0,0,0,1Z" transform="translate(-12.49 1.48)"/><path class="cls-3" d="M868.31,1046.83a.49.49,0,0,0,0-1,.49.49,0,0,0,0,1Z" transform="translate(-12.49 1.48)"/><path class="cls-3" d="M887,1053.65a.49.49,0,0,0,0-1,.49.49,0,0,0,0,1Z" transform="translate(-12.49 1.48)"/><path class="cls-3" d="M886.53,1075.16a.49.49,0,0,0,0-1,.49.49,0,0,0,0,1Z" transform="translate(-12.49 1.48)"/><path class="cls-3" d="M883,1083.34a.49.49,0,0,0,0-1,.49.49,0,0,0,0,1Z" transform="translate(-12.49 1.48)"/><path class="cls-3" d="M924,1015.34a.49.49,0,0,0,0-1,.49.49,0,0,0,0,1Z" transform="translate(-12.49 1.48)"/><path class="cls-3" d="M955.33,1051a.49.49,0,0,0,0-1,.49.49,0,0,0,0,1Z" transform="translate(-12.49 1.48)"/><path class="cls-3" d="M930.58,1118.69a.49.49,0,0,0,0-1,.49.49,0,0,0,0,1Z" transform="translate(-12.49 1.48)"/><path class="cls-3" d="M1011.37,1139.07a.49.49,0,0,0,0-1,.49.49,0,0,0,0,1Z" transform="translate(-12.49 1.48)"/><path class="cls-3" d="M1009.19,1169.64a.49.49,0,0,0,0-1,.49.49,0,0,0,0,1Z" transform="translate(-12.49 1.48)"/><path class="cls-3" d="M1000.45,1168.18a.49.49,0,0,0,0-1,.49.49,0,0,0,0,1Z" transform="translate(-12.49 1.48)"/><path class="cls-3" d="M999.73,1155.81a.49.49,0,0,0,0-1,.49.49,0,0,0,0,1Z" transform="translate(-12.49 1.48)"/><path class="cls-3" d="M1011.37,1155.08a.49.49,0,0,0,0-1,.49.49,0,0,0,0,1Z" transform="translate(-12.49 1.48)"/><path class="cls-3" d="M809,1089.58a.49.49,0,0,0,0-1,.49.49,0,0,0,0,1Z" transform="translate(-12.49 1.48)"/><path class="cls-3" d="M1164.22,1238.05a.49.49,0,0,0,0-1,.49.49,0,0,0,0,1Z" transform="translate(-12.49 1.48)"/><path class="cls-3" d="M834.51,1257a.49.49,0,0,0,0-1,.49.49,0,0,0,0,1Z" transform="translate(-12.49 1.48)"/><path class="cls-3" d="M915.3,1266.44a.49.49,0,0,0,0-1,.49.49,0,0,0,0,1Z" transform="translate(-12.49 1.48)"/><circle class="cls-1" cx="792.14" cy="772.11" r="2.28"/><circle class="cls-2" cx="749.57" cy="696.09" r="1.52"/><circle class="cls-2" cx="758.11" cy="692.61" r="1.05"/><path class="cls-3" d="M837.58,650.67c2.52,0,2.52-3.91,0-3.91s-2.52,3.91,0,3.91Z" transform="translate(-12.49 1.48)"/><path class="cls-3" d="M1043.41,595.87c2.52,0,2.52-3.91,0-3.91s-2.52,3.91,0,3.91Z" transform="translate(-12.49 1.48)"/><path class="cls-3" d="M530.3,796.87a1,1,0,0,0,0-2,1,1,0,0,0,0,2Z" transform="translate(-12.49 1.48)"/><path class="cls-3" d="M538.89,796.4a1,1,0,0,0,0-2,1,1,0,0,0,0,2Z" transform="translate(-12.49 1.48)"/><path class="cls-3" d="M523.61,781.11a1,1,0,0,0,0-2,1,1,0,0,0,0,2Z" transform="translate(-12.49 1.48)"/><path class="cls-4" d="M547.66,767a1,1,0,0,0,0-2,1,1,0,0,0,0,2Z" transform="translate(-12.49 1.48)"/><path class="cls-3" d="M591.12,786.58a1,1,0,0,0,0-2,1,1,0,0,0,0,2Z" transform="translate(-12.49 1.48)"/><path class="cls-3" d="M98.67,988c2.52,0,2.52-3.91,0-3.91s-2.52,3.91,0,3.91Z" transform="translate(-12.49 1.48)"/><path class="cls-3" d="M138,1014.71a1,1,0,0,0,0-2,1,1,0,0,0,0,2Z" transform="translate(-12.49 1.48)"/><path class="cls-3" d="M167.09,990.45a1,1,0,0,0,0-2,1,1,0,0,0,0,2Z" transform="translate(-12.49 1.48)"/><path class="cls-3" d="M128.05,1028.7a1,1,0,0,0,0-2,1,1,0,0,0,0,2Z" transform="translate(-12.49 1.48)"/><path class="cls-3" d="M136.65,1028.22a1,1,0,0,0,0-2,1,1,0,0,0,0,2Z" transform="translate(-12.49 1.48)"/><path class="cls-3" d="M121.36,1012.93a1,1,0,0,0,0-2,1,1,0,0,0,0,2Z" transform="translate(-12.49 1.48)"/><path class="cls-4" d="M145.41,998.83a1,1,0,0,0,0-2,1,1,0,0,0,0,2Z" transform="translate(-12.49 1.48)"/><path class="cls-3" d="M188.88,1018.41a1,1,0,0,0,0-2,1,1,0,0,0,0,2Z" transform="translate(-12.49 1.48)"/><path class="cls-3" d="M840.44,843.61a1,1,0,0,0,0-2,1,1,0,0,0,0,2Z" transform="translate(-12.49 1.48)"/><path class="cls-3" d="M1151.86,869.41a1,1,0,0,0,0-2,1,1,0,0,0,0,2Z" transform="translate(-12.49 1.48)"/><path class="cls-3" d="M1169.54,866.06a1,1,0,0,0,0-2,1,1,0,0,0,0,2Z" transform="translate(-12.49 1.48)"/><path class="cls-3" d="M1156.16,862.24a1,1,0,0,0,0-2,1,1,0,0,0,0,2Z" transform="translate(-12.49 1.48)"/><path class="cls-3" d="M1172.09,661a1,1,0,0,0,0-2,1,1,0,0,0,0,2Z" transform="translate(-12.49 1.48)"/><path class="cls-4" d="M1215.07,659.13a1,1,0,0,0,0-2,1,1,0,0,0,0,2Z" transform="translate(-12.49 1.48)"/><path class="cls-4" d="M1097.57,624.74a1,1,0,0,0,0-2,1,1,0,0,0,0,2Z" transform="translate(-12.49 1.48)"/><path class="cls-3" d="M1245.7,669.94c2.52,0,2.52-3.91,0-3.91s-2.52,3.91,0,3.91Z" transform="translate(-12.49 1.48)"/><path class="cls-3" d="M1197.4,640a1,1,0,0,0,0-2,1,1,0,0,0,0,2Z" transform="translate(-12.49 1.48)"/><path class="cls-3" d="M1217.94,623.31a1,1,0,0,0,0-2,1,1,0,0,0,0,2Z" transform="translate(-12.49 1.48)"/><path class="cls-3" d="M1209.34,620.92a1,1,0,0,0,0-2,1,1,0,0,0,0,2Z" transform="translate(-12.49 1.48)"/><path class="cls-3" d="M1232.58,772.45a1,1,0,0,0,0-2,1,1,0,0,0,0,2Z" transform="translate(-12.49 1.48)"/><path class="cls-4" d="M1232.75,652.92a1,1,0,0,0,0-2,1,1,0,0,0,0,2Z" transform="translate(-12.49 1.48)"/><path class="cls-3" d="M1075.12,661.52a1,1,0,0,0,0-2,1,1,0,0,0,0,2Z" transform="translate(-12.49 1.48)"/><path class="cls-3" d="M1193.9,678.35a1,1,0,0,0,0-2,1,1,0,0,0,0,2Z" transform="translate(-12.49 1.48)"/><path class="cls-5" d="M1060.63,630.11a1,1,0,0,0,0-2,1,1,0,0,0,0,2Z" transform="translate(-12.49 1.48)"/><path class="cls-5" d="M1266,555.6a1,1,0,0,0,0-2,1,1,0,0,0,0,2Z" transform="translate(-12.49 1.48)"/><path class="cls-3" d="M1250.26,551.3a1,1,0,0,0,0-2,1,1,0,0,0,0,2Z" transform="translate(-12.49 1.48)"/><path class="cls-3" d="M1256.47,562.76a1,1,0,0,0,0-2,1,1,0,0,0,0,2Z" transform="translate(-12.49 1.48)"/><path class="cls-5" d="M1259.33,558a1,1,0,0,0,0-2,1,1,0,0,0,0,2Z" transform="translate(-12.49 1.48)"/><path class="cls-3" d="M1272.23,585.21a1,1,0,0,0,0-2,1,1,0,0,0,0,2Z" transform="translate(-12.49 1.48)"/><path class="cls-3" d="M1154.73,590.94a1,1,0,0,0,0-2,1,1,0,0,0,0,2Z" transform="translate(-12.49 1.48)"/><path class="cls-3" d="M1088.82,572.32a1,1,0,0,0,0-2,1,1,0,0,0,0,2Z" transform="translate(-12.49 1.48)"/><path class="cls-5" d="M1213.48,588.09a1.47,1.47,0,0,0,0-2.93,1.47,1.47,0,0,0,0,2.93Z" transform="translate(-12.49 1.48)"/><path class="cls-3" d="M1172.88,570.42a1.47,1.47,0,0,0,0-2.93,1.47,1.47,0,0,0,0,2.93Z" transform="translate(-12.49 1.48)"/><path class="cls-3" d="M1175,629h.48a.49.49,0,0,0,0-1H1175a.49.49,0,0,0,0,1Z" transform="translate(-12.49 1.48)"/><path class="cls-3" d="M1193.1,624.73a.49.49,0,0,0,0-1,.49.49,0,0,0,0,1Z" transform="translate(-12.49 1.48)"/><path class="cls-3" d="M1188.8,620.43a.49.49,0,0,0,0-1,.49.49,0,0,0,0,1Z" transform="translate(-12.49 1.48)"/><path class="cls-3" d="M1199.31,613.75a.49.49,0,0,0,0-1,.49.49,0,0,0,0,1Z" transform="translate(-12.49 1.48)"/><path class="cls-3" d="M1200.74,609.45a.49.49,0,0,0,0-1,.49.49,0,0,0,0,1Z" transform="translate(-12.49 1.48)"/><path class="cls-3" d="M1166.19,760.49a.49.49,0,0,0,0-1,.49.49,0,0,0,0,1Z" transform="translate(-12.49 1.48)"/><path class="cls-3" d="M1176.7,751.42a.49.49,0,0,0,0-1,.49.49,0,0,0,0,1Z" transform="translate(-12.49 1.48)"/><path class="cls-3" d="M1206.31,742.82a.49.49,0,0,0,0-1,.49.49,0,0,0,0,1Z" transform="translate(-12.49 1.48)"/><path class="cls-3" d="M1151.39,709.86a.49.49,0,0,0,0-1,.49.49,0,0,0,0,1Z" transform="translate(-12.49 1.48)"/><path class="cls-3" d="M1093.11,710.34a.49.49,0,0,0,0-1,.49.49,0,0,0,0,1Z" transform="translate(-12.49 1.48)"/><path class="cls-4" d="M1085.16,609.45a.49.49,0,0,0,0-1,.49.49,0,0,0,0,1Z" transform="translate(-12.49 1.48)"/><path class="cls-5" d="M1212.52,873.69a.49.49,0,0,0,0-1,.49.49,0,0,0,0,1Z" transform="translate(-12.49 1.48)"/><path class="cls-5" d="M1210.61,857.93a.49.49,0,0,0,0-1,.49.49,0,0,0,0,1Z" transform="translate(-12.49 1.48)"/><path class="cls-3" d="M1254.56,862.71a.49.49,0,0,0,0-1,.49.49,0,0,0,0,1Z" transform="translate(-12.49 1.48)"/><path class="cls-3" d="M1250.73,883.72a.49.49,0,0,0,0-1,.49.49,0,0,0,0,1Z" transform="translate(-12.49 1.48)"/><path class="cls-3" d="M1233.06,896.62a.49.49,0,0,0,0-1,.49.49,0,0,0,0,1Z" transform="translate(-12.49 1.48)"/><path class="cls-5" d="M1224.46,880.86a.49.49,0,0,0,0-1,.49.49,0,0,0,0,1Z" transform="translate(-12.49 1.48)"/><path class="cls-5" d="M1231.63,876.08a.49.49,0,0,0,0-1,.49.49,0,0,0,0,1Z" transform="translate(-12.49 1.48)"/><path class="cls-3" d="M1256.94,582.81a.49.49,0,0,0,0-1,.49.49,0,0,0,0,1Z" transform="translate(-12.49 1.48)"/><path class="cls-3" d="M1219.21,579.95a.49.49,0,0,0,0-1,.49.49,0,0,0,0,1Z" transform="translate(-12.49 1.48)"/><path class="cls-3" d="M1246,570.87a.49.49,0,0,0,0-1,.49.49,0,0,0,0,1Z" transform="translate(-12.49 1.48)"/><path class="cls-3" d="M1209.66,572.3a.49.49,0,0,0,0-1,.49.49,0,0,0,0,1Z" transform="translate(-12.49 1.48)"/><path class="cls-3" d="M1212,565.62a.49.49,0,0,0,0-1,.49.49,0,0,0,0,1Z" transform="translate(-12.49 1.48)"/><path class="cls-3" d="M1268.41,567.53a.49.49,0,0,0,0-1,.49.49,0,0,0,0,1Z" transform="translate(-12.49 1.48)"/><path class="cls-3" d="M1220.64,552.72a.49.49,0,0,0,0-1,.49.49,0,0,0,0,1Z" transform="translate(-12.49 1.48)"/><path class="cls-5" d="M1209.66,572.3a.49.49,0,0,0,0-1,.49.49,0,0,0,0,1Z" transform="translate(-12.49 1.48)"/><path class="cls-3" d="M1220.17,593.32a.49.49,0,0,0,0-1,.49.49,0,0,0,0,1Z" transform="translate(-12.49 1.48)"/><path class="cls-3" d="M1213.48,630.58a.49.49,0,0,0,0-1,.49.49,0,0,0,0,1Z" transform="translate(-12.49 1.48)"/><path class="cls-3" d="M1131.33,632a.49.49,0,0,0,0-1,.49.49,0,0,0,0,1Z" transform="translate(-12.49 1.48)"/><path class="cls-3" d="M1057.29,677.38a.49.49,0,0,0,0-1,.49.49,0,0,0,0,1Z" transform="translate(-12.49 1.48)"/><path class="cls-4" d="M994.24,720.37a.49.49,0,0,0,0-1,.49.49,0,0,0,0,1Z" transform="translate(-12.49 1.48)"/><path class="cls-3" d="M942.66,734.22a.49.49,0,0,0,0-1,.49.49,0,0,0,0,1Z" transform="translate(-12.49 1.48)"/><path class="cls-4" d="M950.3,719.42a.49.49,0,0,0,0-1,.49.49,0,0,0,0,1Z" transform="translate(-12.49 1.48)"/><path class="cls-4" d="M960.81,730.4a.49.49,0,0,0,0-1,.49.49,0,0,0,0,1Z" transform="translate(-12.49 1.48)"/><path class="cls-3" d="M933.11,727.06a.49.49,0,0,0,0-1,.49.49,0,0,0,0,1Z" transform="translate(-12.49 1.48)"/><path class="cls-3" d="M940.75,718.46a.49.49,0,0,0,0-1,.49.49,0,0,0,0,1Z" transform="translate(-12.49 1.48)"/><path class="cls-3" d="M934.88,711.63l.48-.48a.49.49,0,0,0-.69-.69l-.48.48a.49.49,0,0,0,.69.69Z" transform="translate(-12.49 1.48)"/><path class="cls-4" d="M964.15,696.49a.49.49,0,0,0,0-1,.49.49,0,0,0,0,1Z" transform="translate(-12.49 1.48)"/><path class="cls-3" d="M941.22,671.18a.49.49,0,0,0,0-1,.49.49,0,0,0,0,1Z" transform="translate(-12.49 1.48)"/><path class="cls-3" d="M931.19,649.68a.49.49,0,0,0,0-1,.49.49,0,0,0,0,1Z" transform="translate(-12.49 1.48)"/><path class="cls-3" d="M989.47,637.26a.49.49,0,0,0,0-1,.49.49,0,0,0,0,1Z" transform="translate(-12.49 1.48)"/><path class="cls-3" d="M952.69,619.11a.49.49,0,0,0,0-1,.49.49,0,0,0,0,1Z" transform="translate(-12.49 1.48)"/><path class="cls-3" d="M854.77,708.91a.49.49,0,0,0,0-1,.49.49,0,0,0,0,1Z" transform="translate(-12.49 1.48)"/><path class="cls-3" d="M879.87,560.57l.48.48a.49.49,0,0,0,.69-.69l-.48-.48a.49.49,0,0,0-.69.69Z" transform="translate(-12.49 1.48)"/><path class="cls-3" d="M860.63,571.22a.49.49,0,0,0,0-1,.49.49,0,0,0,0,1Z" transform="translate(-12.49 1.48)"/><path class="cls-3" d="M930.37,573.62a1,1,0,0,0,0-2,1,1,0,0,0,0,2Z" transform="translate(-12.49 1.48)"/><path class="cls-3" d="M900.15,757.64a1,1,0,0,0,0-2,1,1,0,0,0,0,2Z" transform="translate(-12.49 1.48)"/><path class="cls-3" d="M904.45,740.92a1,1,0,0,0,0-2,1,1,0,0,0,0,2Z" transform="translate(-12.49 1.48)"/><path class="cls-5" d="M685.21,879.91a1,1,0,0,0,0-2,1,1,0,0,0,0,2Z" transform="translate(-12.49 1.48)"/><path class="cls-3" d="M897.94,572.69c2.52,0,2.52-3.91,0-3.91s-2.52,3.91,0,3.91Z" transform="translate(-12.49 1.48)"/><path class="cls-3" d="M1001.85,862c2.52,0,2.52-3.91,0-3.91s-2.52,3.91,0,3.91Z" transform="translate(-12.49 1.48)"/><path class="cls-3" d="M742.74,882.84c2.52,0,2.52-3.91,0-3.91s-2.52,3.91,0,3.91Z" transform="translate(-12.49 1.48)"/><path class="cls-3" d="M911,858.6a1,1,0,0,0,0-2,1,1,0,0,0,0,2Z" transform="translate(-12.49 1.48)"/><path class="cls-3" d="M915.42,618.8a1,1,0,0,0,0-2,1,1,0,0,0,0,2Z" transform="translate(-12.49 1.48)"/><path class="cls-3" d="M860.19,590a1,1,0,0,0,0-2,1,1,0,0,0,0,2Z" transform="translate(-12.49 1.48)"/><path class="cls-3" d="M1041.15,888.66a1,1,0,0,0,0-2,1,1,0,0,0,0,2Z" transform="translate(-12.49 1.48)"/><path class="cls-3" d="M1070.26,864.4a1,1,0,0,0,0-2,1,1,0,0,0,0,2Z" transform="translate(-12.49 1.48)"/><path class="cls-3" d="M874.09,616.87a.49.49,0,0,0,0-1,.49.49,0,0,0,0,1Z" transform="translate(-12.49 1.48)"/><path class="cls-3" d="M896.92,618.31a.49.49,0,0,0,0-1,.49.49,0,0,0,0,1Z" transform="translate(-12.49 1.48)"/><path class="cls-3" d="M878.25,611.49a.49.49,0,0,0,0-1,.49.49,0,0,0,0,1Z" transform="translate(-12.49 1.48)"/><path class="cls-3" d="M878.7,590a.49.49,0,0,0,0-1,.49.49,0,0,0,0,1Z" transform="translate(-12.49 1.48)"/><path class="cls-3" d="M882.25,581.8a.49.49,0,0,0,0-1,.49.49,0,0,0,0,1Z" transform="translate(-12.49 1.48)"/><path class="cls-3" d="M865.43,853.89a.49.49,0,0,0,0-1,.49.49,0,0,0,0,1Z" transform="translate(-12.49 1.48)"/><path class="cls-3" d="M834.13,818.23a.49.49,0,0,0,0-1,.49.49,0,0,0,0,1Z" transform="translate(-12.49 1.48)"/><path class="cls-3" d="M858.88,750.54a.49.49,0,0,0,0-1,.49.49,0,0,0,0,1Z" transform="translate(-12.49 1.48)"/><path class="cls-3" d="M956.2,575.57a.49.49,0,0,0,0-1,.49.49,0,0,0,0,1Z" transform="translate(-12.49 1.48)"/><path class="cls-3" d="M955,612.25a.49.49,0,0,0,0-1,.49.49,0,0,0,0,1Z" transform="translate(-12.49 1.48)"/><path class="cls-3" d="M874.16,602.79a.49.49,0,0,0,0-1,.49.49,0,0,0,0,1Z" transform="translate(-12.49 1.48)"/></svg>