<?xml version="1.0" encoding="utf-8"?>
<!-- Generator: Adobe Illustrator 23.0.6, SVG Export Plug-In . SVG Version: 6.00 Build 0)  -->
<svg version="1.0" id="Layer_1" xmlns="http://www.w3.org/2000/svg" xmlns:xlink="http://www.w3.org/1999/xlink" x="700px" y="700px"
	 viewBox="0 0 700 700" enable-background="new 0 0 700 700" xml:space="preserve">
<g>
	<g>
		<g>
			<g>

					<image overflow="visible" opacity="0.3" width="842" height="687" xlink:href="4FD0E2985466874D.png"  transform="matrix(0.24 0 0 0.24 138.4627 355.3193)">
				</image>
				<g>
					<g>
						<circle fill="#69699F" cx="308.6" cy="460.4" r="3.2"/>
						<circle fill="#69699F" cx="235.4" cy="414.3" r="2.5"/>
						<circle fill="#69699F" cx="212.3" cy="377.6" r="2.5"/>
						<circle fill="#69699F" cx="168.4" cy="377" r="2.5"/>
						<circle fill="#69699F" cx="179.4" cy="473.2" r="1.7"/>
						<circle fill="#69699F" cx="241.1" cy="425.2" r="1.7"/>
						<circle fill="#69699F" cx="159.4" cy="424.6" r="1.7"/>
						<circle fill="#69699F" cx="283.5" cy="454.3" r="1.7"/>
						<circle fill="#69699F" cx="319.5" cy="499.2" r="1.7"/>
					</g>
				</g>
			</g>
			<g>
				<path fill="#A5AAB4" d="M471.3,353.8l0.4,1.8c1.2,5-1.9,10.1-6.9,11.3l-68.7,16.7c-3.6,0.9-7.4-0.5-9.7-3.4l-6-7.8
					c-3.2-4.2-2.3-10.2,1.9-13.3l11.1-8l26-18.9c3.1-2.2,7.2-2.4,10.4-0.4l22.9,14c2.1,1.3,4.7,1.7,7.1,1.1
					C465,345.6,470.1,348.7,471.3,353.8z"/>
				<path fill="#848992" d="M471.3,353.8l0.4,1.8c1.2,5-1.9,10.1-6.9,11.3l-20.3,4.9c1.2-8.4-2.4-16.7-9.4-21.4l-5.4-3.7
					c-6.1-4.1-13.9-4.9-20.6-2.1l-15.5,6.4l26-18.9c3.1-2.2,7.2-2.4,10.4-0.4l22.9,14c2.1,1.3,4.7,1.7,7.1,1.1
					C465,345.6,470.1,348.7,471.3,353.8z"/>
			</g>
			<g>
				<path fill="#A5AAB4" d="M433.1,418.8l-3.4,7c-1.1,2.3-3.9,3.2-6.2,2.1l-21.2-10.2c-2.3-1.1-3.3-3.9-2.2-6.1l3.4-7
					c1.1-2.3,3.9-3.2,6.2-2.1l21.2,10.2C433.2,413.8,434.2,416.5,433.1,418.8z"/>
				<path fill="#848992" d="M433.1,418.8l-3.4,7c-1.1,2.3-3.9,3.2-6.2,2.1l-6.6-3.2c4-4.3,6.4-9.4,7.3-15.3l6.6,3.2
					C433.2,413.8,434.2,416.5,433.1,418.8z"/>
			</g>
			<g>
				<path fill="#878D94" d="M608.7,371.4l-0.3,4.9c-0.1,1.6-1.5,2.8-3.1,2.8l-14.9-0.8c-1.6-0.1-2.9-1.5-2.8-3.1l0.3-4.9
					c0.1-1.6,1.5-2.8,3.1-2.8l14.9,0.8C607.5,368.4,608.7,369.7,608.7,371.4z"/>
				<path fill="#7C8186" d="M608.7,371.4l-0.3,4.9c-0.1,1.6-1.5,2.8-3.1,2.8l-4.7-0.2c1.3-3.5,1.5-7.1,0.6-10.7l4.7,0.2
					C607.5,368.4,608.7,369.7,608.7,371.4z"/>
			</g>
			<g>
				<path fill="#A5AAB4" d="M346.7,484.4l-4.9-0.3c-1.6-0.1-2.8-1.5-2.8-3.1l0.8-14.9c0.1-1.6,1.5-2.9,3.1-2.8l4.9,0.3
					c1.6,0.1,2.8,1.5,2.8,3.1l-0.8,14.9C349.7,483.2,348.3,484.5,346.7,484.4z"/>
				<path fill="#848992" d="M346.7,484.4l-4.9-0.3c-1.6-0.1-2.8-1.5-2.8-3.1l0.3-4.7c3.5,1.3,7.1,1.5,10.7,0.6l-0.3,4.7
					C349.7,483.2,348.3,484.5,346.7,484.4z"/>
			</g>
			<g>
				<path fill="#878D94" d="M176,415.7l2.3,7.4c0.8,2.4,3.4,3.8,5.8,3l22.5-7c2.4-0.8,3.8-3.3,3-5.8l-2.3-7.4
					c-0.8-2.4-3.4-3.8-5.8-3l-22.5,7C176.6,410.7,175.3,413.2,176,415.7z"/>
				<path fill="#7C8186" d="M176,415.7l2.3,7.4c0.8,2.4,3.4,3.8,5.8,3l7-2.2c-3.3-4.9-5-10.3-5-16.2l-7,2.2
					C176.6,410.7,175.3,413.2,176,415.7z"/>
			</g>
			<g>
				<path fill="#A5AAB4" d="M377,288.4v29.5c0,1.4-0.6,2.7-1.5,3.7l-13.8,13.6c-0.7,0.7-1.5,1.1-2.3,1.3c-3.1,0.8-6.5-1.4-6.5-5
					v-6.8c0-1.4-0.6-2.7-1.5-3.6c-0.9-0.9-2.2-1.5-3.6-1.5c-2.9,0-5.1-2.3-5.1-5.2v-25.9c0-2.9,2.3-5.1,5.1-5.1h24.1
					C374.7,283.2,377,285.5,377,288.4z"/>
				<path fill="#848992" d="M377,288.4v29.5c0,1.4-0.6,2.7-1.5,3.7l-13.8,13.6c-0.7,0.7-1.5,1.1-2.3,1.3v-21c0-1-0.4-2-1.1-2.8
					l-5.8-5.8c-0.7-0.7-1.1-1.7-1.1-2.8c0-2.1,1.7-3.9,3.9-3.9H366c2.1,0,3.9-1.7,3.9-3.9V284c0-0.3,0-0.5,0.1-0.8h1.9
					C374.7,283.2,377,285.5,377,288.4z"/>
			</g>
			<g>
				<path fill="#878D94" d="M323.1,556.8l-28.6,7.3c-1.3,0.3-2.7,0.1-3.9-0.6l-16.6-10c-0.8-0.5-1.4-1.2-1.8-1.9
					c-1.5-2.8-0.2-6.6,3.2-7.5l6.6-1.7c1.4-0.3,2.5-1.2,3.2-2.4c0.7-1.1,0.9-2.5,0.6-3.9c-0.7-2.8,1-5.6,3.7-6.3l25.1-6.4
					c2.8-0.7,5.6,1,6.3,3.7l5.9,23.4C327.5,553.2,325.9,556.1,323.1,556.8z"/>
				<path fill="#7C8186" d="M323.1,556.8l-28.6,7.3c-1.3,0.3-2.7,0.1-3.9-0.6l-16.6-10c-0.8-0.5-1.4-1.2-1.8-1.9l20.3-5.2
					c1-0.3,1.9-0.9,2.4-1.8l4.2-7c0.5-0.9,1.4-1.5,2.4-1.8c2.1-0.5,4.2,0.7,4.7,2.8l2.7,10.5c0.5,2.1,2.6,3.3,4.7,2.8l12-3
					c0.3-0.1,0.5-0.1,0.8-0.1l0.5,1.8C327.5,553.2,325.9,556.1,323.1,556.8z"/>
			</g>
			<g>
				<path fill="#878D94" d="M222.5,357.4l-2.6,6.4l-3.9,9.5c-1.8,4.3-6.2,6.9-10.8,6.3l-23.4-3.2c-7.2-1-13.8-4.8-18.2-10.6
					c-2.2-2.9-3.8-6.2-4.7-9.7c-0.9-3.4-1.1-7.1-0.7-10.7l3.1-22.5c0.8-5.6,5.9-9.5,11.5-8.7l24.8,3.4c5.6,0.8,9.5,5.9,8.7,11.5
					c-0.2,1.8,0,3.6,0.6,5.2c0.7,1.6,1.7,3.1,3.2,4.2l9.2,7.2C222.9,348.3,224.2,353.2,222.5,357.4z"/>
				<path fill="#7C8186" d="M219.9,363.7l-3.9,9.5c-1.8,4.3-6.2,6.9-10.8,6.3l-23.4-3.2c-7.2-1-13.8-4.8-18.2-10.6
					c-2.2-2.9-3.8-6.2-4.7-9.7c-0.9-3.4-1.1-7.1-0.7-10.7l3.1-22.5c0.8-5.6,5.9-9.5,11.5-8.7l22.4,3.1l-0.8,5.7
					c-0.3,2.5-2.7,4.3-5.2,3.9l-9.9-1.4c-2.5-0.3-4.8,1.4-5.2,3.9l-2.3,16.9c-0.6,4.1,4.1,6.8,7.3,4.3c1-0.7,2.2-1.1,3.4-0.9
					l27.8,3.8c1.2,0.2,2.3,0.8,3,1.8L219.9,363.7z"/>
			</g>
			<g>
				<path fill="#A5AAB4" d="M329.1,397.9l-11.5,18.8c-1.1,1.8-2.9,2.9-5,3.1c-0.2,0-0.5,0-0.8,0h-19.2c-3.7,0-6.7-3-6.7-6.7v-28.4
					c0-2.8,1.8-5.3,4.4-6.3l1.3-0.5l17.4-6.2c2.8-1,5.9-0.1,7.6,2.3l12.1,16.3C330.4,392.6,330.5,395.6,329.1,397.9z"/>
				<path fill="#848992" d="M312.6,419.8c-0.2,0-0.5,0-0.8,0h-19.2c-3.7,0-6.7-3-6.7-6.7v-28.4c0-2.8,1.8-5.3,4.4-6.3l1.3-0.5v22.3
					c0,2.9,2.4,5.3,5.3,5.3h3.7c3,0,5.3,2.4,5.3,5.3c0,1.4,0.6,2.8,1.6,3.8L312.6,419.8z"/>
			</g>
			<g>
				<g>
					<circle fill="#7C8186" cx="261.5" cy="327.2" r="6.9"/>
				</g>
				<circle fill="#878D94" cx="263.1" cy="326.6" r="4.7"/>
			</g>
			<g>
				<g>
					<circle fill="#7C8186" cx="398.2" cy="476.4" r="10.8"/>
				</g>
				<circle fill="#878D94" cx="397.6" cy="473.8" r="7.3"/>
			</g>
			<g>
				<g>
					<path fill="#878D94" d="M426.8,212.6l-7.9,15.5c-1,2-2.7,3.5-4.8,4.2l-34.8,11.4c-2.1,0.7-4.4,0.5-6.4-0.5l-83.9-42.6
						c-3-1.5-4.8-4.7-4.6-8l0.4-6.8c0.2-3.4,2.5-6.3,5.7-7.4L301,175c2.2-0.7,3.9-2.3,4.8-4.2c1-1.9,1.2-4.2,0.5-6.4
						c-0.7-2.1-0.5-4.4,0.5-6.4l4-7.9c1.4-2.8,4.4-4.6,7.5-4.6l49.3,0.6c1.3,0,2.5,0.3,3.7,0.9l29.3,14.9c2,1,3.5,2.8,4.2,4.9
						l3.1,9.6c0.7,2,0.5,4.2-0.4,6.1c0,0.1-0.1,0.2-0.1,0.2l-0.5,1c-2.1,4.1-0.4,9.1,3.7,11.2l12.6,6.4
						C427.2,203.5,428.9,208.5,426.8,212.6z"/>
					<path fill="#7C8186" d="M407.5,182.5l-4.9-2.5c-7.3-3.7-15.8-4.4-23.6-1.8l-6.4,2.1c-2.2,0.7-4.7,0.5-6.7-0.5L338.6,166
						c-5.3-2.7-11.8-0.6-14.5,4.8l-4.9,9.6c-1.1,2.1-2.9,3.7-5.1,4.4l-11.5,3.7c-5.7,1.9-8.8,8-6.9,13.6l0.7,2.2l-7.4-3.8
						c-3-1.5-4.8-4.7-4.6-8l0.4-6.8c0.2-3.4,2.5-6.3,5.7-7.4L301,175c2.2-0.7,3.9-2.3,4.8-4.2c1-1.9,1.2-4.2,0.5-6.4
						c-0.7-2.1-0.5-4.4,0.5-6.4l4-7.9c1.4-2.8,4.4-4.6,7.5-4.6l49.3,0.6c1.3,0,2.5,0.3,3.7,0.9l29.3,14.9c2,1,3.5,2.8,4.2,4.9
						l3.1,9.6C408.5,178.4,408.4,180.6,407.5,182.5z"/>
				</g>
			</g>
			<g>
				<path fill="#878D94" d="M284.2,449l-5.7,48.2c-0.4,3.1-1.9,6-4.4,7.9l-29.2,24c-0.1,0.1-0.2,0.1-0.3,0.2
					c-5.7,4.5-12.9,6.6-20.1,5.7l-74.8-8.8c-18.7-2.2-32-19.1-29.8-37.8l0.9-8c0.4-3.2,2-6.1,4.5-8.1l37.1-29.3
					c2.5-2,5.7-2.9,8.9-2.5l46.4,5.5c1.6,0.2,3.2,0,4.8-0.4c1.5-0.4,2.9-1.1,4.1-2.1l10.9-8.6c2.5-2,5.7-2.9,8.9-2.5l26.9,3.2
					C280.2,436.3,285,442.4,284.2,449z"/>
				<path fill="#7C8186" d="M244.6,529.3L244.6,529.3c-5.7,4.5-12.9,6.6-20.1,5.7l-74.7-8.8c-18.7-2.2-32-19.1-29.8-37.8l0.9-8
					c0.4-3.2,2-6.1,4.5-8.1l37.1-29.3c2.5-2,5.7-2.9,8.9-2.5l46.4,5.5c1.6,0.2,3.2,0,4.8-0.4c-0.5,1.1-1.3,2.2-2.4,3.1l-6.9,5.4
					c-1.8,1.4-4,2-6.2,1.8l-22.7-2.7c-2.2-0.3-4.5,0.4-6.2,1.8l-13.1,10.3c-3.7,2.9-4.3,8.2-1.4,11.9l9,11.5
					c1.4,1.8,3.4,2.9,5.7,3.2l38,4.5c4.7,0.6,9.1,2.7,12.5,6l9.4,9.2C243.1,516.1,245.4,522.7,244.6,529.3z"/>
			</g>
			<g>
				<path fill="#878D94" d="M292,278.7l-11.4,17.6c-1.7,2.6-4.3,4.4-7.4,5.1l-15.3,3.3c-3,0.6-6.2,0-8.8-1.6l-35.9-23.3
					c-2.7-1.8-4.4-4.4-5.1-7.3c-0.6-2.9-0.1-6.1,1.6-8.8c3.5-5.4,1.9-12.6-3.5-16.1l-2.8-1.8c-5.4-3.5-7-10.7-3.5-16.1l4.7-7.3
					c1.7-2.6,4.3-4.4,7.4-5.1l13.2-2.8c3-0.6,6.2,0,8.8,1.6l48.2,31.2c2,1.3,3.6,3.2,4.5,5.4l6.3,15.4
					C294.5,271.5,294.1,275.5,292,278.7z"/>
				<path fill="#7C8186" d="M234.3,278.1l-7,10.9l-14-9.1c-2.7-1.8-4.4-4.4-5.1-7.3c-0.6-2.9-0.1-6.1,1.6-8.8
					c3.5-5.4,1.9-12.6-3.5-16.1l-2.8-1.8c-5.4-3.5-7-10.7-3.5-16.1l4.7-7.3c1.7-2.6,4.3-4.4,7.4-5.1l13.2-2.8c3-0.6,6.2,0,8.8,1.6
					l24.7,16l-12.2,2.6c-3.8,0.8-7.8,0.1-11.1-2l-1.2-0.8c-3.5-2.3-8.2-1.3-10.5,2.3v0c-2.3,3.5-1.3,8.2,2.3,10.5l1.3,0.8
					c2.8,1.8,4.8,4.7,5.5,8l3.3,15.2C236.7,271.8,236.1,275.2,234.3,278.1z"/>
			</g>
			<g>
				<g>
					<path fill="#878D94" d="M495.5,492l-12,48.5c-2.6,10.5-13.3,16.9-23.8,14.3l-5.1-1.3c-5.1-1.3-9.4-4.5-12.1-8.9l-5.3-8.8
						l-0.8-1.3c-2.7-4.5-3.5-9.8-2.2-14.8l5-20.2c0.5-1.9,0.2-3.8-0.8-5.5l-7.8-12.9c-1-1.7-1.3-3.6-0.8-5.5c1-3.9,4.9-6.2,8.8-5.3
						l51.6,12.8C494.1,484.2,496.4,488.1,495.5,492z"/>
					<path fill="#7C8186" d="M495.5,492l-12,48.5c-2.6,10.5-13.3,16.9-23.8,14.3l-5.1-1.3c-5-1.3-9.4-4.5-12.1-8.9l-5.3-8.8l5.7,1.4
						c8.2,2,16.9,0.7,24.2-3.6l0,0c7.3-4.4,12.5-11.5,14.5-19.7l7.7-30.9l0.8,0.2C494.1,484.2,496.4,488.1,495.5,492z"/>
				</g>
				<path fill="#7C8186" d="M445.2,507.7l-1.4,5.6c-0.9,3.8-6,4.5-8,1.2l-0.2-0.3l3.6-14.7c0.5-1.9,0.2-3.8-0.8-5.5l6.2,10.4
					C445.3,505.4,445.4,506.6,445.2,507.7z"/>
			</g>
			<g>
				<path fill="#A5AAB4" d="M524,443.7v4.2c0,5.2-4.2,9.4-9.4,9.4h-14.2c-2.5,0-4.9-1-6.6-2.7l-6.3-6.3c-0.3-0.3-0.6-0.6-1-0.8
					c-1.6-1.2-3.6-1.9-5.7-1.9c-5.2,0-9.4-4.2-9.4-9.4v-8.6c0-5.2,4.2-9.4,9.4-9.4h17.6C512.6,418.2,524,429.6,524,443.7z"/>
				<path fill="#848992" d="M524,443.7v4.2c0,5.2-4.2,9.4-9.4,9.4h-14.2c-2.5,0-4.9-1-6.6-2.7l-6.3-6.3c-0.3-0.3-0.6-0.6-1-0.8h11.8
					c5.4,0,9.8-4.4,9.8-9.7v-4.2c0-8.5-6.9-15.4-15.4-15.4h5.7C512.6,418.2,524,429.6,524,443.7z"/>
			</g>
			<g>
				<path fill="#878D94" d="M538.1,347.4l5.2,9.5c2.9,5.3,1,12.1-4.4,15c-4.1,2.2-8.9,1.6-12.3-1.1c-1.1-0.9-2-2-2.7-3.2l-5.2-9.5
					c-2.9-5.3-1-12.1,4.4-15c1.8-1,3.7-1.4,5.6-1.4c1,0,1.9,0.2,2.8,0.4C534.2,342.9,536.6,344.8,538.1,347.4z"/>
				<path fill="#7C8186" d="M538.1,347.4l5.2,9.5c2.9,5.3,1,12.1-4.4,15c-4.1,2.2-8.9,1.6-12.3-1.1l6.7-3.7c4-2.2,5.4-7.1,3.2-11.1
					l-7.8-14.3c1,0,1.9,0.2,2.8,0.4C534.2,342.9,536.6,344.8,538.1,347.4z"/>
			</g>
			<g>
				<path fill="#878D94" d="M118.4,297.7l-9.1,5.8c-5.1,3.3-6.7,10.1-3.4,15.3c2.5,3.9,7.1,5.7,11.3,4.9c1.4-0.3,2.7-0.8,3.9-1.6
					l9.1-5.8c5.1-3.3,6.6-10.1,3.4-15.2c-1.1-1.7-2.6-3-4.2-3.9c-0.9-0.4-1.8-0.8-2.7-1C123.9,295.6,120.9,296,118.4,297.7z"/>
				<path fill="#7C8186" d="M118.4,297.7l-9.1,5.8c-5.1,3.3-6.7,10.1-3.4,15.3c2.5,3.9,7.1,5.7,11.3,4.9l-4.1-6.4
					c-2.4-3.8-1.3-8.8,2.5-11.3l13.8-8.8c-0.9-0.4-1.8-0.8-2.7-1C123.9,295.6,120.9,296,118.4,297.7z"/>
			</g>
			<g>
				<path fill="#878D94" d="M119.3,391.9l-68.7,16.7c-1,0.3-2.1,0.3-3.1,0.2c-2.5-0.2-4.9-1.5-6.5-3.6l-6-7.8
					c-3.2-4.2-2.3-10.2,2-13.3l11.1-8l26-18.9c3.1-2.2,7.2-2.4,10.4-0.4l11.6,7.1l11.3,6.9c2.1,1.3,4.7,1.7,7.1,1.1
					c5-1.2,10.1,1.9,11.3,6.9l0.4,1.8C127.4,385.6,124.3,390.6,119.3,391.9z"/>
			</g>
			<path fill="#7C8186" d="M96,363.8l-39.6,21.4c-4.6,2.5-7.7,7.2-8.1,12.5l-0.9,11c-2.5-0.2-4.9-1.5-6.5-3.6l-6-7.8
				c-3.2-4.2-2.3-10.2,2-13.3l11.1-8l26-18.9c3.1-2.2,7.2-2.4,10.4-0.4L96,363.8z"/>
			<g>
				<g>
					<path fill="#878D94" d="M579.8,402.7c-0.4,3.3-2.1,6.4-5,8.6l-10,7.7c-3.4,2.6-7.6,3.3-11.4,2.2c-2.6-0.7-5-2.3-6.8-4.6
						c-3.3-4.3-3.5-10.1-0.9-14.5c0.8-1.4,1.9-2.6,3.3-3.7l10-7.7c5.7-4.4,13.8-3.3,18.2,2.4c0.6,0.8,1.1,1.7,1.5,2.5
						c0.5,1.2,0.9,2.4,1,3.7C579.9,400.4,579.9,401.6,579.8,402.7z"/>
				</g>
				<path fill="#7C8186" d="M579.8,402.7c-0.4,3.3-2.1,6.4-5,8.6l-10,7.7c-3.4,2.6-7.6,3.3-11.4,2.2l25.3-25.6
					c0.5,1.2,0.9,2.4,1,3.7C579.9,400.4,579.9,401.6,579.8,402.7z"/>
			</g>
			<g>
				<g>
					<path fill="#A8AEB9" d="M417.9,296.2c2,0,4-1.8,3.9-3.9c-0.1-2.1-1.7-3.9-3.9-3.9c-2,0-4,1.8-3.9,3.9
						C414.1,294.4,415.7,296.2,417.9,296.2L417.9,296.2z"/>
				</g>
			</g>
			<g>
				<g>
					<path fill="#A8AEB9" d="M312,333.1c2,0,4-1.8,3.9-3.9c-0.1-2.1-1.7-3.9-3.9-3.9c-2,0-4,1.8-3.9,3.9
						C308.2,331.3,309.8,333.1,312,333.1L312,333.1z"/>
				</g>
			</g>
			<g>
				<g>
					<path fill="#A8AEB9" d="M198.6,184.9c2,0,4-1.8,3.9-3.9c-0.1-2.1-1.7-3.9-3.9-3.9c-2,0-4,1.8-3.9,3.9
						C194.8,183.1,196.4,184.9,198.6,184.9L198.6,184.9z"/>
				</g>
			</g>
			<g>
				<g>
					<path fill="#A8AEB9" d="M167.1,270c2,0,4-1.8,3.9-3.9c-0.1-2.1-1.7-3.9-3.9-3.9c-2,0-4,1.8-3.9,3.9
						C163.2,268.2,164.9,270,167.1,270L167.1,270z"/>
				</g>
			</g>
			<g>
				<g>
					<path fill="#A8AEB9" d="M354.8,402.6c2,0,4-1.8,3.9-3.9c-0.1-2.1-1.7-3.9-3.9-3.9c-2,0-4,1.8-3.9,3.9
						C351,400.9,352.6,402.6,354.8,402.6L354.8,402.6z"/>
				</g>
			</g>
			<g>
				<g>
					<path fill="#A8AEB9" d="M346.3,390.9c2,0,4-1.8,3.9-3.9c-0.1-2.1-1.7-3.9-3.9-3.9c-2,0-4,1.8-3.9,3.9
						C342.4,389.1,344.1,390.9,346.3,390.9L346.3,390.9z"/>
				</g>
			</g>
			<g>
				<g>
					<path fill="#A8AEB9" d="M358.6,387.3c2.5,0,2.5-3.9,0-3.9C356,383.4,356,387.3,358.6,387.3L358.6,387.3z"/>
				</g>
			</g>
			<g>
				<g>
					<path fill="#A8AEB9" d="M347.3,371.8c2.5,0,2.5-3.9,0-3.9C344.8,367.9,344.8,371.8,347.3,371.8L347.3,371.8z"/>
				</g>
			</g>
			<g>
				<g>
					<path fill="#A8AEB9" d="M284.2,369.1c2.5,0,2.5-3.9,0-3.9C281.7,365.2,281.7,369.1,284.2,369.1L284.2,369.1z"/>
				</g>
			</g>
			<g>
				<g>
					<path fill="#A8AEB9" d="M298.1,322.6c2.5,0,2.5-3.9,0-3.9C295.6,318.7,295.6,322.6,298.1,322.6L298.1,322.6z"/>
				</g>
			</g>
			<g>
				<g>
					<path fill="#A8AEB9" d="M240.9,378.2c2.5,0,2.5-3.9,0-3.9C238.4,374.3,238.4,378.2,240.9,378.2L240.9,378.2z"/>
				</g>
			</g>
			<g>
				<g>
					<path fill="#A8AEB9" d="M199.7,368.1c2.5,0,2.5-3.9,0-3.9C197.2,364.1,197.2,368.1,199.7,368.1L199.7,368.1z"/>
				</g>
			</g>
			<g>
				<g>
					<path fill="#A8AEB9" d="M221.6,330.1c2.5,0,2.5-3.9,0-3.9C219.1,326.2,219.1,330.1,221.6,330.1L221.6,330.1z"/>
				</g>
			</g>
			<g>
				<g>
					<path fill="#A8AEB9" d="M196,273.9c2.5,0,2.5-3.9,0-3.9C193.4,270,193.4,273.9,196,273.9L196,273.9z"/>
				</g>
			</g>
			<g>
				<g>
					<path fill="#A8AEB9" d="M221.1,261.6c2.5,0,2.5-3.9,0-3.9C218.6,257.7,218.6,261.6,221.1,261.6L221.1,261.6z"/>
				</g>
			</g>
			<g>
				<g>
					<path fill="#A8AEB9" d="M217.3,250.9c2.5,0,2.5-3.9,0-3.9C214.8,247,214.8,250.9,217.3,250.9L217.3,250.9z"/>
				</g>
			</g>
			<g>
				<g>
					<path fill="#A8AEB9" d="M192.7,252c2.5,0,2.5-3.9,0-3.9C190.2,248.1,190.2,252,192.7,252L192.7,252z"/>
				</g>
			</g>
			<g>
				<g>
					<path fill="#878D94" d="M470.4,295.9l-9.2-18.9c-1.4-2.8-1.5-6-0.5-8.9l5.1-14.8c1-2.9,3.2-5.3,5.9-6.7l38.5-18.8
						c2.9-1.4,6.1-1.5,8.9-0.6c2.8,1,5.3,3,6.7,5.9c2.8,5.8,9.8,8.2,15.6,5.4l3-1.5c5.8-2.8,12.8-0.4,15.6,5.4l3.8,7.8
						c1.4,2.8,1.5,6,0.5,8.9l-4.4,12.8c-1,2.9-3.2,5.3-5.9,6.7l-51.6,25.2c-2.1,1-4.6,1.4-6.9,1l-16.4-2.6
						C475.3,301.7,472.1,299.3,470.4,295.9z"/>
					<path fill="#7C8186" d="M500.8,246.7l-5.7-11.6l15-7.3c2.9-1.4,6.1-1.5,8.9-0.6c2.8,1,5.3,3,6.7,5.9c2.8,5.8,9.8,8.2,15.6,5.4
						l3-1.5c5.8-2.8,12.8-0.4,15.6,5.4l3.8,7.8c1.4,2.8,1.5,6,0.5,8.9l-4.4,12.8c-1,2.9-3.2,5.3-5.9,6.7l-26.4,12.9l4.1-11.8
						c1.3-3.7,4-6.7,7.5-8.5l1.3-0.6c3.8-1.8,5.3-6.4,3.5-10.2v0c-1.8-3.8-6.4-5.3-10.2-3.5l-1.4,0.7c-3,1.5-6.5,1.7-9.7,0.6
						l-14.7-5.1C504.9,252,502.3,249.7,500.8,246.7z"/>
				</g>
				<g>
					<g>
						<path fill="#A8AEB9" d="M509.1,246c2.5,0,2.5-3.9,0-3.9C506.6,242.1,506.6,246,509.1,246L509.1,246z"/>
					</g>
				</g>
				<g>
					<g>
						<path fill="#A8AEB9" d="M523.5,243.8c2.5,0,2.5-3.9,0-3.9C521,239.8,521,243.8,523.5,243.8L523.5,243.8z"/>
					</g>
				</g>
				<g>
					<g>
						<path fill="#A8AEB9" d="M519.4,252.3c2.5,0,2.5-3.9,0-3.9C516.9,248.4,516.9,252.3,519.4,252.3L519.4,252.3z"/>
					</g>
				</g>
			</g>
			<g>
				<g>
					<path fill="#A8AEB9" d="M654.9,406c2.5,0,2.5-3.9,0-3.9C652.4,402.1,652.4,406,654.9,406L654.9,406z"/>
				</g>
			</g>
			<g>
				<g>
					<path fill="#A8AEB9" d="M344.7,433.9c2.5,0,2.5-3.9,0-3.9C342.1,429.9,342.1,433.9,344.7,433.9L344.7,433.9z"/>
				</g>
			</g>
			<g>
				<g>
					<path fill="#A8AEB9" d="M321.7,452.6c2.5,0,2.5-3.9,0-3.9C319.1,448.7,319.1,452.6,321.7,452.6L321.7,452.6z"/>
				</g>
			</g>
			<g>
				<g>
					<path fill="#A8AEB9" d="M321.1,431.2c2.5,0,2.5-3.9,0-3.9C318.6,427.3,318.6,431.2,321.1,431.2L321.1,431.2z"/>
				</g>
			</g>
			<g>
				<g>
					<path fill="#A8AEB9" d="M366.6,451c2.5,0,2.5-3.9,0-3.9C364.1,447.1,364.1,451,366.6,451L366.6,451z"/>
				</g>
			</g>
			<g>
				<g>
					<path fill="#A8AEB9" d="M302.9,464.3c2.5,0,2.5-3.9,0-3.9C300.4,460.4,300.4,464.3,302.9,464.3L302.9,464.3z"/>
				</g>
			</g>
			<g>
				<g>
					<path fill="#A8AEB9" d="M292.2,513c2.5,0,2.5-3.9,0-3.9C289.7,509.1,289.7,513,292.2,513L292.2,513z"/>
				</g>
			</g>
			<g>
				<g>
					<path fill="#A8AEB9" d="M241.4,550.5c2.5,0,2.5-3.9,0-3.9C238.9,546.6,238.9,550.5,241.4,550.5L241.4,550.5z"/>
				</g>
			</g>
			<g>
				<g>
					<path fill="#A8AEB9" d="M201.3,551.5c2.5,0,2.5-3.9,0-3.9C198.8,547.6,198.8,551.5,201.3,551.5L201.3,551.5z"/>
				</g>
			</g>
			<g>
				<g>
					<path fill="#A8AEB9" d="M204,528.5c2.5,0,2.5-3.9,0-3.9C201.5,524.6,201.5,528.5,204,528.5L204,528.5z"/>
				</g>
			</g>
			<g>
				<g>
					<path fill="#A8AEB9" d="M181.5,509.8c2.5,0,2.5-3.9,0-3.9C179,505.9,179,509.8,181.5,509.8L181.5,509.8z"/>
				</g>
			</g>
			<g>
				<g>
					<path fill="#A8AEB9" d="M171.3,516.8c2.5,0,2.5-3.9,0-3.9C168.8,512.9,168.8,516.8,171.3,516.8L171.3,516.8z"/>
				</g>
			</g>
			<g>
				<g>
					<path fill="#A8AEB9" d="M124.8,474.9c2,0,4-1.8,3.9-3.9c-0.1-2.1-1.7-3.9-3.9-3.9c-2,0-4,1.8-3.9,3.9
						C121,473.1,122.6,474.9,124.8,474.9L124.8,474.9z"/>
				</g>
			</g>
			<g>
				<g>
					<path fill="#A8AEB9" d="M117.9,492c2,0,4-1.8,3.9-3.9c-0.1-2.1-1.7-3.9-3.9-3.9c-2,0-4,1.8-3.9,3.9
						C114,490.2,115.7,492,117.9,492L117.9,492z"/>
				</g>
			</g>
			<g>
				<g>
					<path fill="#A8AEB9" d="M142.5,500.5c2,0,4-1.8,3.9-3.9c-0.1-2.1-1.7-3.9-3.9-3.9c-2,0-4,1.8-3.9,3.9
						C138.6,498.7,140.3,500.5,142.5,500.5L142.5,500.5z"/>
				</g>
			</g>
			<g>
				<g>
					<path fill="#A8AEB9" d="M161.2,361.5c2,0,4-1.8,3.9-3.9c-0.1-2.1-1.7-3.9-3.9-3.9c-2,0-4,1.8-3.9,3.9
						C157.4,359.7,159,361.5,161.2,361.5L161.2,361.5z"/>
				</g>
			</g>
			<g>
				<g>
					<path fill="#A8AEB9" d="M382.1,157.7c2,0,4-1.8,3.9-3.9c-0.1-2.1-1.7-3.9-3.9-3.9c-2,0-4,1.8-3.9,3.9
						C378.3,155.9,379.9,157.7,382.1,157.7L382.1,157.7z"/>
				</g>
			</g>
			<g>
				<g>
					<path fill="#A8AEB9" d="M430.2,139.5c2,0,4-1.8,3.9-3.9c-0.1-2.1-1.7-3.9-3.9-3.9c-2,0-4,1.8-3.9,3.9
						C426.4,137.7,428,139.5,430.2,139.5L430.2,139.5z"/>
				</g>
			</g>
			<g>
				<path fill="#878D94" d="M636.9,303.4l-4.7,21.6c-0.3,1.3-1,2.4-2,3.1c-0.7,0.5-1.5,0.9-2.4,1l-1.1,0.1l-14.3,1.9
					c-2.3,0.3-4.5-0.9-5.4-3l-6.5-14.4c-0.9-1.9-0.5-4.2,1-5.7l7.1-7.4l4.8-5c1.1-1.2,2.7-1.7,4.3-1.6c0.2,0,0.4,0,0.6,0.1l14.6,3.2
					C635.7,297.8,637.5,300.6,636.9,303.4z"/>
				<path fill="#7C8186" d="M636.9,303.4l-4.7,21.6c-0.3,1.3-1,2.4-2,3.1l-0.2-6.6c-0.1-1.5-1.4-2.6-2.9-2.3l-1.7,0.3
					c-1.9,0.4-3.7-1.1-3.7-3v-0.1c0-1,0.5-1.9,1.4-2.5l4.5-3c1.3-0.9,2.1-2.4,2.1-4v-0.3c-0.1-2.4-2-4.3-4.3-4.5l-16.7-1.6l4.8-5
					c1.1-1.2,2.7-1.7,4.3-1.6c0.2,0,0.4,0,0.6,0.1l14.6,3.2C635.7,297.8,637.5,300.6,636.9,303.4z"/>
			</g>
			<g>
				<g>
					<path fill="#81848D" d="M475,201.7c2,0,4-1.8,3.9-3.9c-0.1-2.1-1.7-3.9-3.9-3.9c-2,0-4,1.8-3.9,3.9
						C471.2,200,472.8,201.7,475,201.7L475,201.7z"/>
				</g>
			</g>
			<g>
				<g>
					<path fill="#81848D" d="M456.3,189.5c2,0,4-1.8,3.9-3.9c-0.1-2.1-1.7-3.9-3.9-3.9c-2,0-4,1.8-3.9,3.9
						C452.5,187.7,454.1,189.5,456.3,189.5L456.3,189.5z"/>
				</g>
			</g>
			<g>
				<g>
					<path fill="#81848D" d="M513.1,159.8c2,0,4-1.8,3.9-3.9c-0.1-2.1-1.7-3.9-3.9-3.9c-2,0-4,1.8-3.9,3.9
						C509.3,158,510.9,159.8,513.1,159.8L513.1,159.8z"/>
				</g>
			</g>
			<g>
				<g>
					<path fill="#81848D" d="M678.3,368.2c2,0,4-1.8,3.9-3.9c-0.1-2.1-1.7-3.9-3.9-3.9c-2,0-4,1.8-3.9,3.9
						C674.4,366.4,676.1,368.2,678.3,368.2L678.3,368.2z"/>
				</g>
			</g>
			<g>
				<g>
					<path fill="#81848D" d="M707.9,333.4c2,0,4-1.8,3.9-3.9c-0.1-2.1-1.7-3.9-3.9-3.9c-2,0-4,1.8-3.9,3.9
						C704.1,331.6,705.8,333.4,707.9,333.4L707.9,333.4z"/>
				</g>
			</g>
			<g>
				<g>
					<path fill="#81848D" d="M687.9,313.3c2.5,0,2.5-3.9,0-3.9C685.4,309.4,685.4,313.3,687.9,313.3L687.9,313.3z"/>
				</g>
			</g>
			<g>
				<g>
					<path fill="#81848D" d="M662.1,339.8c2.5,0,2.5-3.9,0-3.9C659.6,335.9,659.6,339.8,662.1,339.8L662.1,339.8z"/>
				</g>
			</g>
			<g>
				<g>
					<path fill="#81848D" d="M647.9,245.6c2.5,0,2.5-3.9,0-3.9C645.4,241.7,645.4,245.6,647.9,245.6L647.9,245.6z"/>
				</g>
			</g>
			<g>
				<g>
					<path fill="#81848D" d="M363.4,252.7c2.5,0,2.5-3.9,0-3.9C360.9,248.8,360.9,252.7,363.4,252.7L363.4,252.7z"/>
				</g>
			</g>
			<g>
				<g>
					<path fill="#81848D" d="M336.3,270.8c2.5,0,2.5-3.9,0-3.9C333.8,266.8,333.8,270.8,336.3,270.8L336.3,270.8z"/>
				</g>
			</g>
			<g>
				<g>
					<path fill="#81848D" d="M335,257.9c2.5,0,2.5-3.9,0-3.9C332.5,253.9,332.5,257.9,335,257.9L335,257.9z"/>
				</g>
			</g>
			<g>
				<g>
					<path fill="#81848D" d="M315.7,266.9c2.5,0,2.5-3.9,0-3.9C313.1,263,313.1,266.9,315.7,266.9L315.7,266.9z"/>
				</g>
			</g>
			<g>
				<g>
					<path fill="#81848D" d="M133.1,178.5c2.5,0,2.5-3.9,0-3.9C130.6,174.6,130.5,178.5,133.1,178.5L133.1,178.5z"/>
				</g>
			</g>
			<g>
				<g>
					<path fill="#81848D" d="M131.1,356.6c2.5,0,2.5-3.9,0-3.9C128.6,352.7,128.6,356.6,131.1,356.6L131.1,356.6z"/>
				</g>
			</g>
			<g>
				<g>
					<path fill="#81848D" d="M129.8,425c2.5,0,2.5-3.9,0-3.9C127.3,421,127.3,425,129.8,425L129.8,425z"/>
				</g>
			</g>
			<g>
				<g>
					<path fill="#81848D" d="M96.3,390.1c2.5,0,2.5-3.9,0-3.9C93.8,386.2,93.8,390.1,96.3,390.1L96.3,390.1z"/>
				</g>
			</g>
			<g>
				<g>
					<path fill="#81848D" d="M80.8,395.3c2.5,0,2.5-3.9,0-3.9C78.3,391.4,78.3,395.3,80.8,395.3L80.8,395.3z"/>
				</g>
			</g>
			<g>
				<g>
					<path fill="#81848D" d="M246.6,288.2c2.5,0,2.5-3.9,0-3.9C244.1,284.3,244.1,288.2,246.6,288.2L246.6,288.2z"/>
				</g>
			</g>
			<g>
				<g>
					<path fill="#81848D" d="M461.5,266.6c3.8,0,3.8-5.9,0-5.9C457.7,260.7,457.7,266.6,461.5,266.6L461.5,266.6z"/>
				</g>
			</g>
			<g>
				<g>
					<path fill="#81848D" d="M420.8,223.7c2,0,4-1.8,3.9-3.9c-0.1-2.1-1.7-3.9-3.9-3.9c-2,0-4,1.8-3.9,3.9
						C417,221.9,418.6,223.7,420.8,223.7L420.8,223.7z"/>
				</g>
			</g>
			<g>
				<g>
					<path fill="#81848D" d="M48.5,316.6c2,0,4-1.8,3.9-3.9c-0.1-2.1-1.7-3.9-3.9-3.9c-2,0-4,1.8-3.9,3.9
						C44.7,314.8,46.4,316.6,48.5,316.6L48.5,316.6z"/>
				</g>
			</g>
			<g>

					<image overflow="visible" opacity="0.3" width="2504" height="788" xlink:href="4FD0E2985466874F.png"  transform="matrix(0.24 0 0 0.24 54.4627 123.4793)">
				</image>
				<g>
					<g>
						<circle fill="#69699F" cx="480" cy="181.8" r="3.2"/>
						<circle fill="#69699F" cx="175.8" cy="223.2" r="3.2"/>
						<circle fill="#69699F" cx="560.7" cy="212.9" r="2.5"/>
						<circle fill="#69699F" cx="590.4" cy="244.5" r="2.5"/>
						<circle fill="#69699F" cx="633.6" cy="236.6" r="2.5"/>
						<circle fill="#69699F" cx="604.3" cy="144.4" r="1.7"/>
						<circle fill="#69699F" cx="552.9" cy="203.4" r="1.7"/>
						<circle fill="#69699F" cx="633.2" cy="188.3" r="1.7"/>
						<circle fill="#69699F" cx="505.7" cy="182.9" r="1.7"/>
						<circle fill="#69699F" cx="126.4" cy="221.5" r="1.7"/>
						<circle fill="#69699F" cx="75.4" cy="291.5" r="1.7"/>
						<circle fill="#69699F" cx="142.5" cy="210.4" r="1.7"/>
						<circle fill="#69699F" cx="235.4" cy="190" r="1.7"/>
						<circle fill="#69699F" cx="119.8" cy="194.8" r="1.7"/>
						<circle fill="#69699F" cx="461.8" cy="145.8" r="1.7"/>
					</g>
				</g>
			</g>
		</g>
		<g>

				<image overflow="visible" opacity="0.3" width="583" height="477" xlink:href="4FD0E2985466874A.png"  transform="matrix(0.24 0 0 0.24 508.5867 429.0432)">
			</image>
			<g>
				<g>
					<circle fill="#69699F" cx="607.6" cy="444" r="2.2"/>
					<circle fill="#69699F" cx="561.9" cy="479.5" r="1.7"/>
					<circle fill="#69699F" cx="533.5" cy="485.6" r="1.7"/>
					<circle fill="#69699F" cx="523.1" cy="513.1" r="1.7"/>
					<circle fill="#69699F" cx="586.1" cy="528.2" r="1.2"/>
					<circle fill="#69699F" cx="570" cy="478.4" r="1.2"/>
					<circle fill="#69699F" cx="550.9" cy="529.6" r="1.2"/>
					<circle fill="#69699F" cx="598.1" cy="458.4" r="1.2"/>
					<circle fill="#69699F" cx="634.6" cy="446.1" r="1.2"/>
				</g>
			</g>
		</g>
	</g>
</g>
</svg>
