<?xml version="1.0" encoding="utf-8"?>
<!-- Generator: Adobe Illustrator 23.0.6, SVG Export Plug-In . SVG Version: 6.00 Build 0)  -->
<svg version="1.0" id="Layer_1" xmlns="http://www.w3.org/2000/svg" xmlns:xlink="http://www.w3.org/1999/xlink" x="700px" y="700px"
	 viewBox="0 0 700 700" enable-background="new 0 0 700 700" xml:space="preserve">
<g>
	<g>

			<image overflow="visible" opacity="0.3" width="3279" height="3279" xlink:href="4E853BCDD8B35FA6.png"  transform="matrix(0.24 0 0 0.24 -44.7724 -43.3324)">
		</image>
		<g>
			<circle fill="#161627" cx="348.7" cy="350" r="348.3"/>
		</g>
	</g>
	<g>
		<defs>
			<circle id="SVGID_1_" cx="350" cy="350" r="349.9"/>
		</defs>
		<use xlink:href="#SVGID_1_"  overflow="visible" fill="#F68835"/>
		<clipPath id="SVGID_2_">
			<use xlink:href="#SVGID_1_"  overflow="visible"/>
		</clipPath>
		<g clip-path="url(#SVGID_2_)">
			<path fill="#F4A046" d="M253.8,194c16.5,27.5-7.9,76.6-29.6,111.4c-16.4,26.4-52.3,35.9-85.1,55.6s-60,19.2-91,21.3
				c-40.9,2.7-82.5,21.9-99-5.6c-16.5-27.5,18.6-56.1,40.2-90.9c16.4-26.4,26.5-55.9,59.4-75.6s62.9-25.4,93.9-27.5
				C183.5,180.1,237.3,166.5,253.8,194z"/>
		</g>
		<g clip-path="url(#SVGID_2_)">
			<g>
				<g>
					<path fill="#F8A038" d="M480.2-28.7c-4.3,1.8-3.7,3.2-8.1,5c-4.4,1.7-4.7,0.8-9.1,2.5c-4.3,1.7-4.2,2.1-8.5,3.8
						c-4.3,1.8-4.4,1.6-8.6,3.5c-4.2,1.9-4.1,2.3-8.2,4.3c-4.2,2-4.1,2.1-8.3,4.2c-4.2,2.1-4.1,2.3-8.4,4.3c-4.3,2-4.9,0.7-9.1,2.6
						c-4.2,1.9-4.3,1.7-8.5,3.7c-4.1,2.1-3.4,3.4-7.4,5.7c-3.9,2.3-4.1,1.9-7.9,4.4c-3.7,2.5-4.4,1.6-8,4.4
						c-3.6,2.8-3.3,3.1-6.8,6.1c-3.4,3-3.4,3.1-6.7,6.2c-3.3,3.2-2.9,3.6-6.2,6.9c-3.3,3.3-2.9,3.6-6,6.9c-3.1,3.3-4.1,2.4-6.9,5.9
						c-1.4,1.7-2.1,2.7-2.7,3.6c-0.6,0.9-1.3,1.8-2.5,3.6c-1.2,1.8-1.7,2.8-2.2,3.8c-0.5,1-1,2-2.1,4c-2,4.1-1.3,4.4-3.1,8.6
						c-1.9,4.3-1.5,4.4-3.4,8.8c-1.9,4.3-2,4.2-3.9,8.5c-1.9,4.3-2.7,3.9-4.6,8.1c-1.9,4.3-1.4,4.5-3.3,8.8
						c-1.9,4.3-2.7,3.9-4.7,8.2c-2,4.3-2,4.3-4.1,8.6c-2.2,4.3-1.8,4.5-4.2,8.7c-2.3,4.1-2.3,4-4.4,8c-2,4-1.8,4.1-3.7,8.3
						c-0.4,0.8-2.7,0.1-3.7-0.1c-1.9-0.4-3.4-1.2-5-2.3c-0.8-0.6-3.1-2.1-2.7-2.9c2.1-4.3,1.7-4.5,4.1-8.8c2.4-4.2,3.7-3.5,6.1-7.5
						c2.4-3.9,1.2-4.6,3.3-8.5c2.1-4,3.1-3.5,5.1-7.7c2-4.2,2-4.2,4.1-8.4c2-4.2,1-4.7,3.1-8.9c2-4.2,2.6-3.9,4.7-8.1
						c2-4.2,2.5-4,4.6-8.2c2-4.2,1.1-4.6,3.2-8.8c2.1-4.3,2.8-3.9,5-8.2c1.2-2.1,1.7-3.2,2.2-4.4c0.5-1.1,1.1-2.2,2.5-4.3
						c1.4-2.1,2.3-2.9,3.1-3.8c0.8-0.9,1.7-1.8,3.3-3.6c1.6-1.8,2.3-2.8,3-3.8c0.7-1,1.4-2,3.1-3.7c3.4-3.4,3.5-3.3,6.9-6.5
						c3.4-3.2,3.4-3.2,7-6.4c3.6-3.2,3.4-3.4,7-6.4c3.7-3,3.9-2.8,7.7-5.7c3.9-2.8,3.9-2.8,8-5.3c2.1-1.3,3.1-1.8,4.2-2.4
						c1.1-0.6,2.1-1.1,4.2-2.2c4.3-2.2,4.6-1.5,8.9-3.5c4.3-1.9,4.2-2.2,8.6-4c4.4-1.8,4.2-2.2,8.4-3.9c4.3-1.8,4.4-1.4,8.7-3.3
						c4.2-2,4.4-1.6,8.7-3.6c4.3-1.9,4-2.7,8.3-4.5c4.4-1.7,4.6-1.2,9-2.9c4.4-1.6,4.2-2.3,8.6-3.9c4.4-1.5,4.7-0.7,9.1-2.3
						c4.4-1.6,4.4-1.5,8.7-3.2c1-0.4,2.4,0.4,2.4,0.4C482.3-29.2,481.2-29.1,480.2-28.7z"/>
				</g>
			</g>
		</g>
		<g clip-path="url(#SVGID_2_)">
			<g>
				<path fill="#F69922" d="M631.1,56.7c-10.5,7.2-19.2,12.8-27.7,16.6c-11.5,5.1-20.5,12.1-30.1,13.6c-10.9,1.7-21.9-3.2-33.1-2
					c-9.7,1-20.2,3.3-32.1,7c-9,2.7-18.8,7.5-30,13.1c-11.1,5.5-21.6,8.7-29.3,13.8c-10.4,6.9-17.5,14.9-24.4,21.4
					c-8,7.6-14.8,14.9-22.8,22.5c-6.8,6.4-11.6,17.1-22,24c-7.6,5.1-18,8.7-29.1,14.3c-11.1,5.5-21.9,6.8-30.6,9.8
					c-11.8,4.2-21,8.9-30.3,10.5c-10.9,1.9-21.5-1.3-32.4,0.6c-9.2,1.6-18.2,8.4-29.9,12.5c-8.6,3.1-17.3,8.7-28.4,14.2
					c-11.1,5.5-21.2,8.5-28.8,13.6c-10.4,6.9-20.9,10.5-27.7,16.9c-8,7.6-11.5,18.4-19.5,26c-6.8,6.4-15.1,12.7-25.5,19.6
					c-7.6,5.1-18,8-29.1,13.5c-11,5.5-20.4,9.5-28.9,12.7c-11.7,4.4-20.6,9.8-29.6,11.7c-10.7,2.2-20.3,4.5-31.2,6.5
					c-9.1,1.6-20.4-1.4-32.2,2.3c-8.7,2.7-16.8,11.2-28.1,16c-4.5,1.9-7.6,12.1-10.1,7.9c-2.5-4.2,20.6-18.1,18.1-22.3
					c-2.5-4.2-29.4,11.9-32,7.7c-2.5-4.2,22.6-19.3,20-23.5c-2.5-4.2-29.3-10.8-25.3-13.6c10.3-7.1,20.7-10.2,29-14.2
					c11.2-5.5,20.7-9,29.9-11.2c10.7-2.6,20.9-2.9,31.8-5.3c9.3-2,20.2-3.1,31.7-7.9c8.5-3.6,15.1-14.1,25.7-20.5
					c10.6-6.4,20-10.8,27.2-16.4c9.8-7.7,17.6-14,23.9-20.9c7.4-8.1,13.7-15.8,21.1-24c6.3-6.9,15.5-11.5,25.3-19.1
					c7.2-5.6,13.2-15.2,23.8-21.5c10.6-6.4,19.7-11.9,28-15.6c11.4-5,21.3-8.7,30.3-11c10.7-2.7,21.9,1.4,32.6-1.3
					c9.1-2.3,17-10.8,28.4-15.8c8.4-3.7,17.9-7.5,28.5-13.9c10.6-6.4,18.7-12.7,25.9-18.4c9.8-7.7,20.3-11.4,26.6-18.4
					c7.4-8.1,8.9-20.2,16.3-28.4c6.3-6.9,16.1-11.7,25.9-19.4c7.2-5.6,16.3-10.7,26.9-17.1c10.5-6.3,17.8-14.5,25.9-18.5
					c11.1-5.6,22.6-3.9,31.2-6.9C495-5.6,503-12.6,513.6-15.4c8.8-2.4,19.5-1.7,31.2-5.8c8.5-3,16.5-10.8,27.7-15.6
					c10.1-4.3,13-7.4,18.6,2c5.6,9.4-19.5,24.5-13.9,33.8c5.6,9.4,33.8-7.5,39.4,1.9c5.6,9.4-22.6,30.4-15.1,38.4
					C614.5,53.4,640.1,50.5,631.1,56.7z"/>
			</g>
			<g>
				<path fill="#FBAC35" d="M724.8,193.5c-33.5,22.3-52.6,33.9-72,40.8c-19.4,6.8-43.9,1.3-78.5,21.5c-34.6,20.3-54.4,29.4-70,42.4
					c-15.6,13.1-23.8,35.9-58.4,56.2c-34.6,20.3-51.4,35.1-70.4,42.3c-19,7.3-43.6,1.5-78.2,21.9c-34.6,20.3-42.8,43.2-58.4,56.2
					c-15.6,13.1-40.7,13.1-75.3,33.4c-34.7,20.4-50.4,32.7-69.1,40.3c-18.7,7.6-37.4,15.8-72.9,34.4c-3.4,1.8,6.4,0.6,4.4-2.7
					c-2-3.3-8.4,0.6-10.4-2.7c-2-3.3-5.2-1.4-7.1-4.6c-2-3.3,8.7-9.7,6.8-13c-2-3.3-11.5,2.8-8.5,0.3c22.7-14.1,44.5-28.7,69.2-40.2
					c24.8-11.5,49.8-23.8,72.5-38c22.9-14.3,40.2-37,61-53.8c21.3-17.2,35.7-45.2,58.2-59.1c23.2-14.3,56.9-9.8,81.1-20.8
					c25.2-11.4,51.4-20.9,73.7-34.4c23.7-14.4,40.1-38.6,60.6-54.6c22.4-17.4,38.9-43.3,60.8-56c25-14.6,52.6-22.5,75.2-31.7
					c28.3-11.5,61.3-2.6,81.6-12.5c4.4-1.1,1.6-14.7,4-10.7c2.3,4-15,14.1-12.7,18c2.3,4,17-4.7,19.4-0.7c2.3,4-7.1,11.5-4,14.9
					C712.7,187.2,728.6,190.9,724.8,193.5z"/>
			</g>
			<g>
				<path fill="#F47831" d="M716.6,248.7c-12.1,10.7-24.5,15.2-33.9,20.9c-13.4,8.1-21.6,19.5-33.2,23.5
					c-11.4,3.9-26.4-0.6-40.4,6.4c-9.9,4.9-18.6,15.9-31.6,25.3c-12.9,9.3-21.9,18.1-29.9,25.5c-11.5,10.7-16.4,21.7-24,30.9
					c-7.6,9.2-20.9,13.2-32.4,23.9c-7.9,7.4-17.8,14.9-30.7,24.3c-12.9,9.3-20.8,20.7-30.3,25.9c-13.8,7.6-24.9,12.6-36,17
					c-11.1,4.4-23,6.3-36.8,13.9c-9.5,5.2-19.9,12.4-32.8,21.8c-12.9,9.3-24.5,15.3-32.4,22.7c-11.5,10.7-16.1,22.6-23.7,31.8
					c-7.6,9.2-16.7,17.3-28.2,28c-7.9,7.4-19.6,13.1-32.6,22.4c-12.8,9.3-19.7,21.5-28.6,27.3c-13.2,8.7-23.7,14.6-34.1,19.8
					c-10.4,5.2-20.6,11.2-35.1,17.6c-9.8,4.3-25.2,0.8-39.5,7.5c-13.2,6.2-6.5,3.5-14-9c-7.5-12.5,4.5-19.7-3-32.2
					c-7.5-12.5-22.1-3.7-29.6-16.2c-7.5-12.5,9.4-22.6,1.9-35.1s-43.2-19.1-32.3-28.7c12.3-10.9,25.5-14.4,35.1-19.6
					c13.6-7.3,23.8-15.2,36.1-17.8c11.9-2.6,23.9-4.3,38.6-9.6c10.6-3.8,24.9-4.1,38.6-12.3c13.6-8.2,23.8-16.4,32.3-23.1
					c12.3-9.6,21.6-17.5,30-26c8.3-8.5,13-20.9,25.3-30.6c8.5-6.7,21.4-10.2,35.1-18.4c13.6-8.2,21.9-20.1,31.8-24.4
					c14.3-6.3,26.1-10.4,37.5-13.8c11.4-3.4,25.2,0.4,39.5-5.9c9.9-4.4,20.7-11.6,34.3-19.8c13.6-8.2,20.7-19.9,29.2-26.5
					c12.3-9.6,24.1-13.9,32.4-22.4c8.3-8.5,16.5-17,28.8-26.7c8.5-6.7,20.8-10.6,34.4-18.8c13.6-8.1,23.2-16.1,32.8-20.8
					c14.1-6.9,23.8-13.8,34.8-17.7c11-3.8,24-2.6,38.6-8.3c10-3.9,18.2-16.6,32.5-23.3c7.1-3.3,13-5.1,17.1,1.6
					c4,6.7-17.2,19.5-13.2,26.2c4,6.7,20.6-3.2,24.7,3.5c4,6.8-14.1,21.7-8.6,27.3C700.9,246.6,722.4,243.5,716.6,248.7z"/>
			</g>
			<g>
				<g>
					<g>
						<path fill="#F8A151" d="M323.5,208c-2.2,0.9-4.5,1.8-6.7,2.7c-1.4,0.6-2.9,1.2-4.4,1.8c-3.2,1.3-6.8,2.4-9.5,3.9
							c-3.3,1.9-1.6,2.1,2.2,1c4.8-1.4,10.1-3.7,15-5.5c7.3-2.6,14.7-5.2,22-7.5c0.1,0,0.3-0.1,0.4-0.1c1.5-0.5,2.9-1,4.4-1.5
							c1.5-0.5,3-1,4.4-1.6c2.9-1.2,5.8-2.4,8.7-3.6c5.8-2.5,11.6-5,17.2-7.6l0.7-0.3l0.8-0.4c0.5-0.3,1-0.6,1.5-0.9
							c1-0.7,1.9-1.5,2.7-2.3c1.6-1.7,2.8-3.9,3.5-6.1l1.7-6.1l0.8-3l0.4-1.5l0.2-0.6l0.1-0.3c2.5-2,4.9-4,7.4-6.1
							c0.6-0.4,5.5-4.4,8.8-7.2c10.7-9.2,10.9-8.9,21.5-18.1c0.6-0.6,1.2-1.1,1.5-1.3c1.2-0.6,2.2-1.2,3.2-1.7c1-0.6,2-1.1,2.8-1.6
							c1.7-1,3.1-1.8,4.6-2.6c2.9-1.7,5.9-3.4,11.7-6.5c12.4-6.6,12.4-6.6,24.9-13.1c3.3-1.7,5.8-3,7.8-4c1-0.5,2-1,2.8-1.4
							c0.4-0.2,0.9-0.4,1.3-0.6l0.6-0.3l0.3-0.2l0.1,0l0,0l0,0c0,0,0,0,0.1,0l0.3-0.1c0.2-0.1,0.4-0.1,0.6-0.2
							c0.4-0.1,0.8-0.2,1.2-0.4c0.9-0.3,1.8-0.5,2.8-0.8c2-0.6,4.4-1.4,7.5-2.4c13.4-4.4,13.2-5.1,26.5-9.5c1.3-0.4,2.4-0.8,3.4-1.1
							c0.5-0.2,1-0.3,1.4-0.4c0.2-0.1,0.4-0.1,0.6-0.2c0,0,0.1,0,0.1,0c1.9,0.2,3.4,0.3,4.8,0.4c1.5,0.2,2.9,0.3,4.4,0.4
							c3,0.3,6.4,0.6,12.1,0.9c0.7,0,1.3,0.1,1.3,0.1c3.4-0.8,6-1.3,8.1-1.8c2.1-0.5,3.7-0.9,5.4-1.3c3.4-0.8,6.8-1.6,13.5-3.1
							c2.5-0.6,3.4-2.2,3.9-2.8c1-1.2,0.9-2-0.6-2.7c-0.8-0.3-2.2-1.3-4.7-0.7c-13.1,3-13.5,3.1-26.2,6c0,0,0.1,0-0.5,0
							c-11.2-0.5-13.7-0.6-22.3-1c-0.7,0.2-3.3,1.1-6.5,2.2c-13.3,4.5-13.3,4.7-26.6,9.2c-6.4,2.2-9.8,3.3-12.8,4.3
							c-3.5,1.9-6.6,3.5-13.3,7.1c-12.4,6.6-12.6,6.2-25.1,12.9c-3.1,1.7-6.9,3.8-10.7,6c-3.9,2.3-8.1,4.7-11.9,6.9
							c-3.1,2.9-5.9,5.6-8.2,7.7c-2.3,2.1-4.1,3.8-5.1,4.7c-7.8,6.7-15.8,13.4-23.7,20c-0.9,0.7-1.8,1.5-2.7,2.3
							c-0.8,2.8-1.6,5.7-2.4,8.6c-0.4,1.3-0.7,2.7-1.1,4c-0.3,1.1-0.8,2.2-1.4,3.2c-1.3,2-3,3.6-5.2,4.7c-2.4,1.2-4.8,2.4-7.4,3.5
							c-5.5,2.4-11,4.7-16.6,7c-1.4,0.6-2.8,1.2-4.2,1.7l-4.2,1.5c-2.8,1-5.6,2-8.4,3.1L323.5,208z"/>
					</g>
				</g>
			</g>
		</g>
		<g clip-path="url(#SVGID_2_)">
			<path fill="#F8CE37" d="M127.6,468.6c0.5,0.9-0.3,4.8-3.3,6.6c-3,1.8-7.2,0.9-7.8,0c-0.5-0.9,1.4-3.2,4.4-5
				S127,467.7,127.6,468.6z"/>
		</g>

			<ellipse transform="matrix(0.8576 -0.5143 0.5143 0.8576 -215.458 141.1266)" clip-path="url(#SVGID_2_)" fill="#F8CE37" cx="147.2" cy="459.7" rx="4.5" ry="2.3"/>

			<ellipse transform="matrix(0.9696 -0.2445 0.2445 0.9696 -130.8972 38.1054)" clip-path="url(#SVGID_2_)" fill="#F8CE37" cx="88" cy="546.2" rx="8.7" ry="4.4"/>
		<g clip-path="url(#SVGID_2_)">
			<path fill="#F69D36" d="M511.9,112.3c17.8-4.6,17.3-9.6,35.7-9.1c24.4,0.7,23,10.6,47.5,11.4c21,0.7,21.3-15.4,41.1-8.2
				c17.1,6.3,26.7,13.8,18.9,30.3c-6.6,14-10.5-14.3-25.9-15.6c-16.2-1.4-14.3,10.3-30.5,10.8c-13,0.4-12.1-4.6-24.3-9.2
				c-12.2-4.7-11.4-7.9-24.4-9.5c-18.7-2.4-18.9,0.4-37.7,1.1C510.8,114.2,510.5,112.6,511.9,112.3z"/>
		</g>
		<g clip-path="url(#SVGID_2_)">
			<g>
				<path fill="#F4A046" d="M308.2,256.4C308.2,256.4,308.2,256.3,308.2,256.4c0,0.4,0.1,0.8,0.2,1.3c0-0.2,0-0.4,0-0.6
					c-0.1,0.4-0.1,0.9-0.2,1.3c0-0.2,0.1-0.4,0.2-0.6c-0.2,0.4-0.3,0.8-0.5,1.2c0.1-0.2,0.2-0.3,0.3-0.5c-0.3,0.3-0.5,0.7-0.8,1
					c0.1-0.2,0.3-0.3,0.4-0.4c-0.3,0.3-0.7,0.5-1,0.8c0,0,0.1-0.1,0.1-0.1c-1.3,0.2-2.6,0.3-3.9,0.5c0.5,0.1,0.9,0.2,1.4,0.4
					c-0.4-0.2-0.8-0.3-1.2-0.5c0.3,0.1,0.5,0.3,0.8,0.4c-0.3-0.3-0.7-0.5-1-0.8c0.1,0.1,0.3,0.2,0.4,0.4c-0.3-0.3-0.5-0.7-0.8-1
					c0.1,0.1,0.1,0.2,0.2,0.3c-0.2-0.4-0.3-0.8-0.5-1.2c0.1,0.1,0.1,0.3,0.1,0.4c-0.1-0.4-0.1-0.9-0.2-1.3c0,0.1,0,0.3,0,0.4
					c0.1-0.4,0.1-0.9,0.2-1.3c0,0.2-0.1,0.4-0.2,0.6c0.2-0.4,0.3-0.8,0.5-1.2c-0.1,0.2-0.2,0.5-0.4,0.7c0.3-0.3,0.5-0.7,0.8-1
					c-0.2,0.2-0.4,0.5-0.7,0.7c0.3-0.3,0.7-0.5,1-0.8c-0.2,0.2-0.5,0.3-0.7,0.4c0.4-0.2,0.8-0.3,1.2-0.5c-0.3,0.1-0.6,0.2-0.9,0.3
					c0.4-0.1,0.9-0.1,1.3-0.2c-0.3,0-0.6,0-0.8,0c0.4,0.1,0.9,0.1,1.3,0.2c-0.2,0-0.4-0.1-0.7-0.2c0.4,0.2,0.8,0.3,1.2,0.5
					c-0.2-0.1-0.4-0.2-0.6-0.3c0.3,0.3,0.7,0.5,1,0.8c-0.2-0.2-0.4-0.4-0.6-0.6c0.3,0.3,0.5,0.7,0.8,1c-0.2-0.2-0.3-0.4-0.4-0.7
					c0.2,0.4,0.3,0.8,0.5,1.2c-0.1-0.2-0.2-0.5-0.2-0.8c0.1,0.4,0.1,0.9,0.2,1.3c0-0.3,0-0.5,0-0.8c-0.1,0.4-0.1,0.9-0.2,1.3
					c0-0.2,0.1-0.4,0.2-0.6c-0.2,0.4-0.3,0.8-0.5,1.2c0-0.1,0.1-0.2,0.2-0.3c0.4-0.6,0.6-1.2,0.6-1.9c0.1-0.7,0.1-1.3-0.1-2
					c-0.2-0.7-0.5-1.2-0.9-1.7c-0.4-0.5-0.8-1-1.4-1.3c-1.2-0.6-2.6-0.9-3.9-0.5c-1.3,0.4-2.3,1.2-3,2.3c-0.4,0.6-0.7,1.3-0.8,1.9
					c-0.2,0.7-0.3,1.5-0.2,2.2c0.1,1.4,0.4,2.9,1.3,4.1c0.4,0.5,0.8,1.2,1.3,1.6c1.1,0.9,1.6,1.2,2.9,1.7c1.4,0.5,2.9,0.4,4.3,0.1
					c0.7-0.1,1.4-0.5,2-0.8c0.7-0.3,1.2-0.8,1.8-1.3c0.5-0.5,1-1.1,1.4-1.7c0.4-0.6,0.7-1.4,0.9-2.1c0.3-1.2,0.3-2.3,0-3.5
					c-0.3-1.1-0.9-2-1.6-2.8c-0.9-1.1-2.3-1.7-3.6-2.2c-0.3-0.1-0.7-0.2-1-0.3c-0.5-0.1-1.1-0.2-1.5-0.2c-0.9,0-1.9,0.3-2.7,0.8
					c-0.4,0.3-1,0.7-1.4,1.1c-0.8,1-1.4,1.9-1.7,3.1c-0.4,1.3-0.3,2.3-0.1,3.7c0.2,0.7,0.5,1.2,0.9,1.7c0.4,0.5,0.8,1,1.4,1.3
					c0.6,0.4,1.2,0.6,1.9,0.6c0.7,0.1,1.3,0.1,2-0.1c1.2-0.4,2.4-1.1,3-2.3c0.2-0.4,0.3-0.8,0.5-1.2
					C308.5,258.2,308.5,257.3,308.2,256.4L308.2,256.4z"/>
			</g>
		</g>
		<g clip-path="url(#SVGID_2_)">
			<g>
				<path fill="#F4A046" d="M319.1,248.2c2.6,0,5.1-2.3,5-5c-0.1-2.7-2.2-5-5-5c-2.6,0-5.1,2.3-5,5
					C314.2,245.9,316.2,248.2,319.1,248.2L319.1,248.2z"/>
			</g>
		</g>
		<g clip-path="url(#SVGID_2_)">
			<g>
				<g>
					<path fill="#F4A046" d="M267.2,147.8c1-0.3,2.1-0.6,3.1-1c0.6-0.3,1.3-0.6,1.9-0.9c1.3-0.6,3.1-0.9,3.8-2.4
						c0.9-1.8-0.5-2.9-2.1-2.8c-2,0.2-3.8,1.4-5.8,1.7c-1.5,0.2-2.9,0.3-4.4,0.1c-1.5-0.1-3-0.5-4.7-0.8c-0.1,0-0.1,0-0.2-0.1
						c-1.4-0.2-2.9-0.2-4.4-0.1c-1.5,0.1-2.9,0.4-4.2,0.7c-2.7,0.7-5.1,1.7-7.3,2.7c-4.3,2-8.9,3.1-13.7,3.5c-0.3,0-2.9,0.1-4.6,0.5
						c-5.5,1.2-5.7,0.6-11.2,1.8c-2.8,0.6-4.1,1.1-5.5,1.7c-0.7,0.3-1.3,0.6-2.2,0.8c-0.4,0.1-0.9,0.3-1.4,0.4
						c-0.6,0.1-1.1,0.3-1.6,0.3c-1,0.1-1.2,0-1.2,0c-0.4-0.2-0.9-0.4-1.2-0.5c-0.6-0.3-1.2-0.4-1.8-0.6c-1.2-0.2-2.4-0.3-3.9,0.2
						c-0.7,0.2-1.5,0.5-2.4,1c-0.4,0.2-0.9,0.5-1.3,0.8c-0.1,0.1-0.2,0.1-0.4,0.2c-0.1,0-0.1,0-0.2,0.1c-0.3,0.2-0.9,0.3-1.3,0.5
						c-0.5,0.1-0.9,0.2-1.3,0.3c-0.8,0.2-1.5,0.2-2.2,0.3c-1.4,0.1-2.8,0.3-5.5,1c-5.4,1.4-5.1,2.7-10.6,3.9
						c-2.7,0.6-4.2,0.5-5.6,0.4c-1.4-0.1-2.9-0.2-5.6,0.2c-2.7,0.4-4,0.6-5.3,0.9c-0.6,0.1-1.3,0.2-2,0.3c-0.4,0-0.8,0.1-1.2,0.1
						c-0.2,0-0.4,0-0.6,0c-0.2,0-0.4,0-0.6,0c-0.1,0-0.2,0.1-0.3,0.4c-0.2,0.3-0.1,0.6-0.3,1c-0.1,0.4-0.3,0.8-0.4,1.2
						c-0.1,0.4-0.2,0.7-0.4,0.9c-0.8,1.7-2.6,2.6-2.5,4.9c0,0.3,0.1,0.7,0.2,1.1c0,0.4,0.1,0.8,0.3,1.3c0.1,0.2,0.2,0.4,0.4,0.6
						c0.1,0.1,0.2,0.2,0.2,0.3c0.1,0.1,0.1,0.2,0.2,0.2c0.3,0.3,0.7,0.5,1.1,0.6c0.5,0,1,0.1,1.5,0.1c0.4,0,0.8,0,1.2,0
						c0.7,0,1.3-0.1,1.8-0.1c1-0.1,1.8-0.2,2.6-0.3c1.6-0.2,3.1-0.5,6-1c3-0.5,4.4-0.8,5.8-1.2c1.4-0.3,2.9-0.6,5.7-1.3
						c5.7-1.4,5.6-1.8,11.2-3.4c2.8-0.8,4.2-1.3,5.7-1.7c0.7-0.2,1.4-0.5,2.3-0.8c0.4-0.2,1-0.4,1.6-0.6c0.3-0.1,0.6-0.3,1-0.4
						c0.2-0.1,0.4-0.2,0.6-0.3c0.2-0.1,0.4-0.2,0.7-0.3c0.3-0.1,0.5-0.3,0.8-0.4c0.2-0.1,0.3-0.2,0.5-0.3c0.2-0.1,0.2-0.1,0.2-0.1
						c0.1,0,0.2-0.1,0.3,0c0.2,0,0.3,0.1,0.4,0.3c0,0.1,0.1,0.1,0.1,0.2c0,0,0,0.1,0.1,0.1c0,0,0.2,0.1,0.3,0.2
						c0.2,0.1,0.4,0.2,0.6,0.2c1.8,0.7,4.1,0.8,6.1,0.4c1-0.2,1.8-0.4,2.5-0.6c0.8-0.3,1.6-0.5,2.4-0.9c1.7-0.6,3.4-1.4,5-2.1
						c3.3-1.5,6.1-2.8,7.3-3.1c4.1-0.9,8.4-1.5,12.6-2.4c2.6-0.5,5.5-0.9,7.9-2.1c2-1.1,3.9-2.5,6-3.3c2.3-0.9,4.6-1.4,6.8-1.6
						c1.1-0.1,2.2-0.1,3.2-0.1c1.1,0,2.2,0,3.5,0C263.3,148.2,265.3,148.1,267.2,147.8z"/>
				</g>
			</g>
		</g>
		<g clip-path="url(#SVGID_2_)">
			<g>
				<g>
					<path fill="#F4A046" d="M420.3,427.3c0.6,1.1,1.2,1.7,1.7,2.2c1.5,1.4,2.6,1.1,3.8,1.1l0.2,0c1.2-0.7,1.1-1.5,2.6-2.4
						c0.9-0.5,1.3-0.7,1.8-1c0.5-0.2,0.9-0.5,1.7-1c1.7-1.1,1.6-1.3,3.2-2.4c1.6-1.1,1.9-0.7,3.5-1.8c1.6-1.1,2.7,0.5,4.2-0.7
						c1.5-1.2,0-3.5,1.4-4.7c1.5-1.2,3,0.8,4.5-0.4c1.5-1.3,0.7-2.3,2.1-3.5c1.4-1.3,1.2-1.5,2.7-2.8c1.4-1.3,2.2-0.2,3.6-1.5
						c1.4-1.3,1-1.8,2.4-3c0.1-0.1,1.7,0.1,2.1-0.2c2.4-1.5,1.4-2.9,3.8-4.4c2.4-1.5,2.1-1.9,4.6-3.3c2.5-1.4,4.1,1,6.5-0.2
						c2.4-1.2,1.1-3.3,3.7-4.4c2.5-1.1,3,0,5.5-0.9c0.6-0.2,1-0.5,1.3-0.8c0.3-0.2,0.6-0.5,0.8-0.8c0.5-0.6,0.9-1.1,2.2-1.5
						c0.7-0.2,0.8-0.1,1.1-0.1c0.2,0.1,0.4,0.2,0.6,0.3c0.1,0.1,0.3,0.3,0.3,0.4l0,0c0,0,0,0,0-0.1c0-0.1,0-0.3,0-0.4
						c0-0.3,0.1-0.6,0.1-0.9c0-0.3,0.1-0.6,0.2-1c0-0.3,0.2-0.6,0.2-0.9c0.3-1,0.7-1.3,0.7-1.3c0,0,0,0,0,0c0,0,0,0-0.1,0
						c-0.1,0.1-0.3,0.1-0.4,0.1l-44.8,6.6l49.8,0.4c1.1,0,2,0.2,3.7-0.3c3.2-0.9,2.4-2.9,5.5-3.9c1.5-0.6,2.4-0.7,3.2-0.8
						c0.8-0.1,1.7-0.3,3.2-1c3-1.5,2.9-1.6,5.7-3.3c2.8-1.7,3.4-1,6.1-3.1c1.3-1,2.2-1.3,3-1.6c0.9-0.3,1.7-0.6,2.9-1.8
						c2.3-2.4,0.1-4.5,2.1-6.8c1.9-2.4,3.2-1.4,4.9-3.7c1.7-2.3,1.1-2.8,2.7-4.9c1.6-2,1.8-1.8,3.4-3.6c1.6-1.7,2.4-0.8,4-2.4
						c1.7-1.5,1.3-2,3.2-3.5c2-1.5,2.4-0.9,4.5-2.4c2.2-1.5,1.8-2.1,4.1-3.6c2.3-1.5,2.7-1,5-2.5c2.3-1.5,2.8-0.8,5.1-2.3
						c2.3-1.5,0.7-4.1,3-5.6c2.3-1.5,3.1-0.3,5.4-1.8c2.3-1.5,2.5-1.3,4.7-2.8c2.3-1.5,1.4-3,3.6-4.6c2.2-1.6,4,1.3,6.2-0.2
						c2.2-1.5,2.2-1.6,4.4-3.1c2.2-1.5,1.2-3.4,3.5-4.9c2.3-1.5,2.5-1.1,4.8-2.5c2.3-1.4,2.5-1.1,4.8-2.4c2.3-1.4,1.8-2.5,4.1-3.9
						c2.4-1.3,2.6-0.8,5-2c2.4-1.2,2.8-0.2,5.2-1.4c2.4-1.1,2.1-2.1,4.6-3.2c2.5-1.1,3,0.5,5.6-0.5c2.5-1.1,2.3-1.9,4.8-2.9
						c2.6-1,2.4-1.6,5-2.6c0.4-0.1,2.6-1,4.3-1.4c1.8-0.4,1.5-1.7,3.3-2.1c1.8-0.4,1.9-0.1,3.8-0.5c1.8-0.4,2.2,0.8,4.1,0.3
						c1.9-0.5,1.1-2.9,2.9-3.3c1.8-0.5,2.7,2.2,4.6,1.7c1.9-0.5,1.2-2.4,3.1-2.9c1.8-0.5,1.7-1,3.5-1.6c1.2-0.4,1.7-0.4,2.4-0.6
						c1.5-1.2,3.2-1.6,5-2.1c0.9-0.3,1.8-0.5,2.6-0.9c0.8-0.4,1.6-0.8,2.3-1.5c0.9-0.8,1.5-2.2,2.6-2.7c0.7-0.4,1.5-0.6,1.6-2.1
						l0-0.1c-0.2-0.8-0.3-1.4-0.3-1.7c-0.6-1.8-1.9-4.1-3-5.1c-1.7-1.4-2.3-0.6-3-0.1c-0.6,0.6-1.1,1.4-1.6,2.2
						c-0.2,0.4-0.5,0.7-0.9,0.9c-0.2,0.3-0.4,0.6-0.9,0.9c-0.4,0.2-0.8,0.3-1.1,0.2l-0.4,0.2c-1.1,0.6-2.3,1-3.7,0.9
						c-0.3,0.5-0.5,1.1-1.4,1.5c-1.6,0.8-2.3-0.8-3.9-0.1c-1.7,0.8-1.4,1.5-3.1,2.2c-1.7,0.7-1.3,1.9-3,2.6
						c-1.7,0.7-2.1-0.3-3.8,0.4c-1.7,0.7-1.8,0.5-3.5,1.2c-1.7,0.7-1.8,0.4-3.6,1.1c-1.7,0.7-1.2,2.3-3,3c-1.8,0.7-1.9,0.1-3.7,0.8
						c-1.6,0.6-4.1,0.5-4.6,0.7c-2.7,0.6-2.7,0.6-5.5,1.2c-2.8,0.6-3.2-0.7-5.9-0.1c-2.8,0.6-2,3-4.7,3.7c-2.8,0.7-2.8,0.7-5.5,1.4
						c-2.7,0.8-3.7-1.7-6.5-0.8c-2.7,0.9-2.7,1.1-5.4,2.1c-2.7,1-2.6,1.1-5.3,2.2c-2.7,1-2.9,0.7-5.6,1.7c-2.7,1.1-2.4,1.5-5.1,2.7
						c-2.7,1.1-1.4,3.5-4,4.7c-2.6,1.2-2.8,0.9-5.4,2c-2.6,1.2-3,0.5-5.6,1.7c-2.6,1.3-2.7,1-5.2,2.4c-2.5,1.4-3.3,0.1-5.7,1.7
						c-2.4,1.5-1.8,2.5-4.2,4c-2.4,1.5-2.1,2-4.4,3.5c-2.4,1.5-2.7,1.1-5,2.6c-2.4,1.5-3.3,0.1-5.6,1.7c-2.4,1.6-1.1,3.6-3.5,5.3
						c-2.5,1.7-2,2.4-4.4,4.3c-2.4,1.9-3.3,0.9-5.7,3c-2.4,2.2-3.3,1.4-5.6,3.9c-1.1,1.2-1.5,1.9-1.9,2.6c-0.4,0.7-0.8,1.4-1.7,2.6
						c-1.8,2.4-0.8,3.1-2.5,5.4c-1.7,2.2-3.3,0.9-4.8,2.8c-1.5,1.8-0.7,2.5-2.3,4.2c-0.8,0.8-1,1.5-1.2,2.2
						c-0.2,0.7-0.3,1.4-1.2,2.2c-1.8,1.7-3.1,0.1-4.9,1.7c-1.8,1.6-1.9,1.6-3.8,3.1c-1,0.7-1.2,1.6-1.5,2.4
						c-0.3,0.9-0.5,1.7-1.7,2.4c-2.3,1.3-3.3-1.3-5.5-0.2c-1.3,0.7-1.6,1.9-2.1,3.1l8.7,5c-0.3-0.5-0.6-0.9-1-1.4
						c-0.4-0.5-0.8-1-1.4-1.5c-1.1-1-2.5-1.8-3.9-2.3c-1.8-0.6-2.8-0.5-3.6-0.6c-0.8,0-1.4,0-1.9,0.1c-0.6,0.1-1.1,0.1-1.8,0.3
						c-0.3,0.1-0.7,0.2-1.1,0.3c-0.2,0.1-0.4,0.1-0.6,0.2c-0.2,0.1-0.3,0.2-0.5,0.2c-1.4,0.7-2.3,0.6-3.2,0.6
						c-0.9-0.1-1.8-0.1-3.2,0.7c-2.8,1.6-2.4,2.3-5,4.1c-2.6,1.7-3.1,0.8-5.6,2.6c-2.5,1.8-2.8,1.3-5.1,3.2
						c-2.3,1.9-0.7,4.2-2.9,6.1c-2.2,2-2.2,2-4.4,3.9c-0.4,0.3-0.6,1.9-0.7,1.9c-1.6,1.1-2.1,0.4-3.6,1.5c-1.6,1-1.2,1.5-2.8,2.6
						c-1.6,1-2.6-0.3-4.2,0.7c-1.6,1-1.4,1.2-3,2.2c-1.6,1-1.5,1.1-3,2.1c-1.6,1-1,1.8-2.5,2.8c-1.6,0.9-2.3-0.1-3.9,0.8
						c-1.6,0.8-2,0.2-3.6,1c-1.6,0.7-0.7,2.3-2.4,3c-0.2,0.1-0.3,0.1-0.5,0.2c-1.1,1.7-3.2,1.2-4.7,2c-0.1,0-0.1,0-0.2,0
						c-0.2,0.3-0.5,0.6-1,0.8c-0.7,0.2-1.2,0-1.7-0.2c-0.3,0.3-0.5,0.9-0.4,2.4C419.1,424.4,419.3,425.6,420.3,427.3z"/>
				</g>
			</g>
		</g>
		<g clip-path="url(#SVGID_2_)">
			<g>
				<g>
					<path fill="#F68835" d="M545.7,156.6c-0.8,0.1-1.6,0.4-2.2,0.8c-1.9,1-3.1,2.8-4.5,4.3l-0.2,0.2c-1.4,2.1-1.4,2.7-3.5,5.5
						c-2.4,3.2-2.4,3.2-4.9,6.3c-2.5,3.1-2.4,3.2-5,6.3c-2.6,3-2.8,2.9-5.4,5.9c-2.7,3-3.4,2.3-6.1,5.2c-2.7,2.9-1.8,3.9-4.6,6.7
						c-2.8,2.9-3.7,1.9-6.6,4.7c-2.9,2.8-2.5,3.2-5.5,5.9c-3,2.7-2.9,2.8-5.9,5.4c-3.1,2.6-3.5,2.1-6.6,4.6
						c-3.2,2.5-2.9,2.8-6.1,5.2c-0.3,0.2-2.5,1.1-3.4,1.7c-2.5,1.8-3.7,2.7-4.9,3.8c-1.2,1-2.3,2.1-5,3.7c-5.3,3.2-5.1,3.4-10.5,6.5
						c-5.4,3.1-6.1,1.8-11.5,4.9c-5.4,3.1-4.8,4.2-10.2,7.4c-2.7,1.7-4.1,2.4-5.5,3.2c-1.4,0.8-2.8,1.5-5.4,3.4
						c-5.1,3.9-4.5,4.5-9.3,8.6c-2.4,2.1-3.6,3.1-4.8,4.1c-1.2,1-2.5,2-4.7,4.2c-4.4,4.5-4.8,4.1-9.1,8.7c-4.3,4.6-3.5,5.3-7.7,9.9
						c-4.2,4.6-4.5,4.3-8.6,8.9c-4.2,4.5-4.1,4.6-8.4,9c-2.1,2.2-3.3,3.2-4.5,4.1c-1.2,1-2.3,2-4.5,4.1c-2.2,2-3.4,2.9-4.6,3.7
						c-1.2,0.9-2.4,1.7-4.7,3.7c-4.5,3.9-3.5,5-8.1,8.8c-4.6,3.8-5.1,3.2-9.8,6.9c-4.7,3.7-4.5,4-9.2,7.8c-4.7,3.7-4.8,3.6-9.6,7.4
						c-4.7,3.8-5.1,3.4-9.8,7.2c-4.7,3.9-4.5,4.1-9.1,8c-4.6,3.9-4.8,3.7-9.4,7.6c-4.6,4-4.3,4.2-8.9,8.2c-4.5,4-4.7,3.8-9.2,7.8
						c-4.5,4-4.8,3.7-9.3,7.8c-4.5,4.1-3.4,5.2-7.9,9.3c-4.4,4.1-4.9,3.6-9.4,7.7c-4.4,4.1-4.5,4-8.9,8.1c-4.3,4.1-3.8,4.7-8.1,8.9
						c-4.3,4.1-5.5,2.9-9.8,7.1c-4.3,4.2-4.3,4.2-8.5,8.4c-4.3,4.2-3.5,5-7.7,9.3c-4.2,4.3-4.4,4.1-8.5,8.5
						c-2.1,2.2-3.1,3.3-4.2,4.3c-1.1,1.1-2.1,2.1-4.1,4.4c-2,2.2-2.9,3.5-3.8,4.7c-0.9,1.2-1.8,2.5-3.7,4.7c-2,2.3-3,3.4-4,4.5
						c-1,1.1-2.1,2.2-3.9,4.6c-3.8,4.7-4.2,4.4-7.8,9.2c-1.8,2.4-2.6,3.7-3.4,5c-0.8,1.3-1.6,2.6-3.3,5c-3.5,4.9-4.2,4.4-7.6,9.3
						c-3.4,4.9-3,5.2-6.5,10c-3.5,4.8-3.2,5-6.8,9.8c-0.5,0.7-3.5,4.7-6.1,7.6c-2.6,3-2.1,3.4-4.9,6.4c-1.4,1.5-2.1,2.1-2.8,2.8
						c-0.7,0.7-1.4,1.4-2.9,2.8c-2.9,2.8-3.3,2.3-6.3,5c-1.5,1.3-2.1,2.2-2.6,3.1c-0.6,0.9-1.1,1.8-2.7,3c-3.1,2.5-4,1.4-7.2,3.7
						c-1.6,1.1-2.3,1.9-3,2.7c-0.7,0.8-1.4,1.5-3,2.6c-3.3,2.2-3.2,2.3-6.6,4.4c-2.3,1.3-3.1,1.7-4.4,2.4
						c-6.3,4.1-13.5,6.4-20.2,9.6c-1.1,0.5-2.2,1.1-3.2,1.7c-1.1,0.5-2.2,1-3.3,1.4c-1.5,0.6-3.2,1-4.5,2.1l0,0
						c-0.3,0.5-0.6,0.9-1,1.2c-0.5,1.1,0,2.4,1.3,2.7c2.1,0.4,4.2-0.4,6-1.2c1.7-0.7,3.4-1.6,5-2.5c0.8-0.4,1.6-0.8,2.4-1.2
						c0.6-0.3,1.3-0.7,2.4-1.2c1-0.4,1.8-0.7,2.4-0.9c0.3-0.1,0.7-0.3,1-0.4c2.6-1.2,5.2-2.4,7.9-3.4c0.8-0.6,1.7-1.3,3.4-2.3
						c3.6-2,4-1.3,7.5-3.4c3.4-2.3,3.3-2.5,6.6-4.9c1.7-1.2,2.4-1.9,3.2-2.6c0.7-0.7,1.5-1.5,3.1-2.7c3.2-2.6,3.6-2.1,6.7-4.7
						c1.6-1.3,2.3-2,3.1-2.7c0.8-0.7,1.6-1.3,3.1-2.7c2.9-2.8,3.1-2.7,5.9-5.7c1.4-1.5,2-2.4,2.5-3.3c0.5-0.9,1.1-1.8,2.4-3.3
						c2.7-3.1,2.9-2.9,5.5-6c2.4-2.9,5.8-6.6,6.5-7.5c3.8-4.7,3.8-4.7,7.4-9.4c3.6-4.8,4.2-4.4,7.8-9.1c3.6-4.8,2.6-5.5,6.2-10.2
						c1.8-2.4,2.7-3.5,3.7-4.7c0.9-1.2,1.8-2.3,3.7-4.6c3.8-4.6,4.8-3.7,8.7-8.2c1.9-2.2,2.9-3.3,3.9-4.5c1-1.1,1.9-2.2,3.9-4.4
						c2-2.2,3-3.2,4-4.3c1-1.1,2-2.2,4.1-4.3c2.1-2.1,3.2-3.1,4.2-4.1c1.1-1,2.2-2,4.3-4.1c4.2-4.1,4.1-4.3,8.4-8.4
						c4.3-4.1,3.4-5,7.8-9.1c4.4-4,4.5-3.9,9-7.8c4.4-4,4.7-3.7,9.2-7.6c4.5-4,4.6-3.8,9-7.9c4.5-4,5-3.5,9.4-7.6
						c4.4-4.1,4-4.5,8.4-8.6c4.4-4,4.2-4.3,8.7-8.3c4.4-4,4.6-3.8,9.1-7.8c4.5-4,5-3.4,9.5-7.3c4.5-3.9,3.7-4.9,8.2-8.8
						c4.5-3.9,4.2-4.2,8.8-8.1c4.6-3.9,5-3.3,9.6-7.2c4.6-3.8,5-3.3,9.6-7.1c4.6-3.8,4.5-3.9,9.2-7.7c4.7-3.7,4.3-4.2,9-8
						c4.7-3.8,5.4-2.9,10.1-6.8c4.7-3.9,4.3-4.3,9-8.3c4.6-4.1,4.1-4.6,8.5-8.8c2.3-2.2,3.6-3.2,4.8-4.2c1.3-1,2.6-1.9,4.7-4.3
						c4.2-4.7,4.2-4.7,8.3-9.5c4-4.8,3.2-5.5,7.2-10.3c4-4.8,5-3.9,9-8.6c4-4.7,2.9-5.7,7-10.3c2.1-2.2,3.2-3.3,4.3-4.4
						c1.1-1.1,2.2-2.2,4.4-4.3c4.5-4.2,5.1-3.5,9.7-7.4c2.4-1.9,3.5-2.9,4.7-3.9c1.2-1,2.3-2,4.9-3.7c5.1-3.4,5.4-2.9,10.7-6.3
						c5.3-3.3,5.5-3,10.8-6.3c5.3-3.4,4.6-4.5,9.8-8c2.6-1.7,3.9-2.7,5.1-3.6c1.3-0.9,2.6-1.8,5.1-3.7c1-0.7,2.5-2.5,2.8-2.7
						c3.3-2.3,3.5-2.1,6.8-4.4c3.2-2.5,3-2.7,6.2-5.2c3.1-2.6,3.7-1.9,6.8-4.5c3.1-2.7,3-2.7,6.1-5.4c3-2.7,3-2.7,5.9-5.5
						c3-2.8,2.6-3.2,5.5-6c2.9-2.9,3.3-2.4,6.1-5.4c2.8-2.9,3.1-2.7,5.8-5.7c2.8-3,2-3.6,4.7-6.7c0.3-0.3,0.5-0.6,0.8-0.9
						c2.1-3.4,5.1-6.1,7.4-9.3l0.2-0.3c0.3-0.7,0.8-1.4,1.6-2.4c1-1.4,1.7-2.1,2.4-2.7c0.5-0.8,0.9-1.8,0.8-2.8
						C547.2,157.2,547,156.4,545.7,156.6z"/>
				</g>
			</g>
		</g>
		<g clip-path="url(#SVGID_2_)">
			<g>
				<g>
					<path fill="#F47831" d="M592.7,249c-0.6-0.9-1.3-1.5-2-1.9c-2.1-1.3-4.4-1.1-6.6-1.1l-0.3,0c-2.7,0.7-3.2,1.3-6.6,2.2
						c-2,0.5-2.9,0.8-3.8,1c-0.9,0.2-1.8,0.4-3.7,0.7c-1.9,0.3-2.8,0.5-3.8,0.6c-0.9,0.2-1.9,0.3-3.8,0.4c-3.9,0.2-4-0.1-7.9,0
						c-3.9,0.1-3.8-1.4-7.8-1.5c-4.1-0.1-4.2,2-8.3,2.1c-4.1,0.1-4.2-1.7-8.2-1.5c-4,0.3-4,1.2-8.1,1.5c-2,0.2-3.1,0.4-4.1,0.5
						c-1,0.2-2.1,0.4-4.1,0.7c-4.1,0.7-4.3-0.2-8.2,0.7c-3.9,0.9-3.8,1.4-7.8,2.3c-0.3,0.1-2.8-0.3-3.9,0c-3.1,0.6-4.6,1.3-6.1,2.1
						c-1.5,0.7-3,1.5-6,2.6c-5.9,2.2-5.6,2.6-11.4,4.6c-2.9,1-4.5,0.9-6.1,0.8c-1.6-0.1-3.2-0.2-6,0.5c-2.8,0.6-4.2,1.3-5.6,2
						c-1.4,0.7-2.9,1.4-6.1,2.1c-3.2,0.7-4.8,0.9-6.4,1.2c-1.6,0.2-3.3,0.5-6.2,1.5c-5.9,1.9-5.5,3.1-11.4,5.2
						c-5.9,2-6.1,1.4-11.9,3.3c-2.9,1-4.4,1.3-6,1.6c-0.4,0.1-0.8,0.2-1.3,0.3c-0.5,0.1-1,0.3-1.5,0.4c-1.1,0.3-2.4,0.9-4,1.7
						c-0.8,0.5-1.5,0.9-2.1,1.3c-0.6,0.4-1.1,0.8-1.5,1.2c-0.9,0.8-1.4,1.5-2,2.1c-1.1,1.3-2.2,2.8-4.4,4.6c-2.2,1.7-3.1,1.9-4,2.2
						c-0.5,0.1-0.9,0.2-1.5,0.2c-0.3,0-0.6,0.1-1,0.1c-0.2,0-0.4,0-0.6,0c-0.2,0-0.4,0.1-0.7,0c-0.6,0-1,0-1.5,0
						c-0.5-0.1-0.9-0.1-1.3-0.2c-0.4,0-0.7-0.1-1-0.1c-0.3-0.1-0.6-0.1-0.9-0.2c-1.2-0.2-2.4-0.4-4.4-1.4c-1.9-1-2.6-1.8-3.3-2.6
						c-0.7-0.9-1.3-1.7-2.9-3.7c-1.6-2.1-2.3-3.6-3-5c-0.8-1.5-1.6-3.1-4.5-5.9c-1.5-1.4-2.9-2.3-4.2-2.9c-0.6-0.3-1.2-0.5-1.8-0.7
						c-0.6-0.2-1.1-0.3-1.6-0.4c-2.2-0.4-4.3-0.6-8-1.3c-3.7-0.6-5.4-0.7-7.2-1c-0.5-0.1-0.9-0.1-1.4-0.2c-0.5,0-1,0-1.6,0
						c-0.6,0-1.3,0-2,0.1c-0.8,0.1-1.7,0.3-2.7,0.5c-0.5,0.1-1,0.2-1.4,0.4c-0.4,0.2-0.9,0.3-1.3,0.5c-0.8,0.3-1.5,0.6-2.1,0.9
						c-0.6,0.3-1.1,0.7-1.6,1c-0.5,0.3-0.9,0.6-1.3,1c-0.8,0.7-1.7,1.3-2.5,2.2c-0.4,0.4-1,0.9-1.4,1.4c-0.5,0.5-1,1.1-1.6,1.7
						c-1,1.2-1.8,2.1-2.5,2.8c-0.6,0.7-1.1,1.2-1.6,1.7c-0.5,0.5-0.9,0.9-1.5,1.5c-0.6,0.6-1.3,1.2-2.2,2c-1,0.7-1.7,1.3-2.4,1.6
						c-0.7,0.3-1.2,0.6-1.8,0.8c-0.6,0.2-1.2,0.4-1.9,0.7c-0.4,0.2-0.7,0.3-1.2,0.5c-0.5,0.2-1.1,0.5-1.8,0.9
						c-5.4,2.7-5.2,3.1-10.6,6c-5.4,2.8-5.6,2.4-10.8,5.2c-5.3,2.7-5,3.2-10.3,5.9c-1.4,0.7-2.2,1.1-3,1.4c-0.8,0.3-1.4,0.5-2,0.7
						c-1.2,0.4-2.5,0.8-4.9,1.5c-1.2,0.4-2.2,0.6-3,0.7c-0.8,0.1-1.5,0.2-2.2,0.3c-0.4,0-0.7,0.1-1.1,0.1c-0.4,0-0.8,0.1-1.3,0.2
						c-0.5,0.1-1,0.2-1.7,0.3c-0.7,0.2-1.4,0.3-2.3,0.6c-1.8,0.5-3.2,1.2-4.2,1.8c-1,0.7-1.8,1.4-2.5,2c-0.7,0.7-1.4,1.4-2.2,2.2
						c-0.4,0.4-0.9,0.8-1.4,1.2c-0.5,0.4-1.1,0.9-1.8,1.4c-1.4,1-2.4,1.7-3.2,2.3c-0.8,0.6-1.6,1-2.3,1.5c-1.3,0.9-2.7,1.7-5,4
						c-2.3,2.3-3.5,3.6-4.7,4.9c-1.1,1.4-2.3,2.8-4.1,5.8c-1.7,2.9-2,4.3-2.4,5.8c-0.4,1.5-0.8,2.9-2.1,5.4c-0.7,1.3-1.3,2.1-2,2.8
						c-0.7,0.7-1.3,1.1-1.9,1.6c-1.3,1.1-2.7,2.1-4.2,5.1c-1.5,3-2,4.5-2.7,6c-0.6,1.5-1.1,3-2.1,5.4c-1,2.3-1.2,3.5-1.4,4.8
						c-0.1,0.6-0.3,1.3-0.6,2.1c-0.4,0.8-0.8,1.7-1.6,2.7c-0.8,1.1-1.5,1.9-2.1,2.6c-0.6,0.7-1,1.2-1.5,1.7c-1,1-1.9,2-3.8,3.8
						c-1.9,1.7-2.9,2.4-3.9,3c-1.1,0.6-2.1,1.2-4.8,2.6c-2.7,1.4-4.1,2.5-5.3,3.6c-1.2,1.1-2.4,2.2-5,4.1c-2.5,2-3.7,2.9-4.9,3.8
						c-1.2,0.9-2.5,1.9-4.7,4.1c-2.2,2.2-3.4,3.2-4.6,4.2c-1.2,1-2.3,2-4.2,4c-1.9,2-2.9,3.1-3.8,4.2c-0.9,1.1-1.9,2.2-4.1,4
						c-2.4,2.1-3.8,3-5.2,3.9c-1.3,1-2.8,2-4.7,4.7c-1.9,2.7-2.4,3.9-3.1,5.2c-0.7,1.2-1.2,2.4-3,4c-1.8,1.6-2.9,2.3-4,3.1
						c-0.6,0.3-1.1,0.7-1.9,1.1c-0.4,0.2-0.8,0.4-1.3,0.6c-0.5,0.2-1,0.5-1.7,0.7c-0.7,0.3-5.2,1.8-8.4,1.4
						c-1.7-0.2-2.5-0.2-3.5-0.2c-0.5,0-0.9,0-1.5-0.1c-0.6-0.1-1.3-0.3-2.2-0.7c-0.9-0.4-1.6-0.7-2.2-0.9c-0.6-0.3-1.1-0.5-1.5-0.7
						c-1-0.4-1.9-0.9-4-1.4c-2.1-0.6-3.1-0.9-4.2-1.3c-0.5-0.2-1.1-0.4-1.8-0.5c-0.7-0.1-1.5-0.3-2.6-0.3c-1.1,0-1.9,0.1-2.6,0.3
						c-0.6,0.2-1.2,0.5-1.7,0.7c-1,0.5-2,1-4.1,1.2c-2.1,0.2-3.2-0.1-4.4-0.4c-0.6-0.2-1.2-0.3-1.9-0.4c-0.7,0-1.6,0-2.6,0.3
						c-2.1,0.6-3,1.2-3.8,1.9c-0.8,0.6-1.7,1.3-3.5,1.8c-1.8,0.5-2.7,0.7-3.6,1c-0.5,0.1-0.9,0.3-1.5,0.4c-0.6,0.1-1.3,0.2-2.2,0.3
						c-1.3,0.1-2.1,0.2-2.8,0.2c-0.7,0-1.3,0-2,0c-3.6,0.6-7.3,0.4-10.8-0.1c-1.8-0.3-3.5-0.6-5.3-1c-1.8-0.4-3.7-0.7-5.7-0.8
						c-2.6-0.2-5.2,0.3-7.7,0.2c-0.8,0-1.7-0.1-2.6,0c-0.9,0.1-1.7,0.3-2.5,0.8l0,0.1c-0.4,0.6-0.8,1.1-1.3,1.3
						c-0.7,1.4-0.5,3.4,0.7,4.4c1.8,1.4,3.8,1.1,5.5,1.1c1.7-0.1,3.3-0.4,5-0.5c0.8-0.1,1.6-0.1,2.5,0c0.6-0.1,1.4,0,2.5,0.2
						c1.1,0.2,1.8,0.4,2.5,0.7l1.1,0.2c2.9,0.5,6,0.8,9,1.3c1.1-0.3,2.2-0.6,4.3-0.7c2.1-0.1,3.2,0.1,4.2,0.4
						c1.1,0.3,2.2,0.4,4.3,0.2c1.1-0.2,1.9-0.4,2.6-0.5c0.7-0.2,1.2-0.4,1.7-0.6c1-0.4,2.1-0.8,4.2-1.4c2-0.7,2.9-1.2,3.8-1.8
						c0.9-0.5,1.7-1.1,3.5-1.7c0.9-0.3,1.6-0.4,2.2-0.5c0.6-0.1,1.1-0.1,1.5-0.1c1,0,1.9,0,3.8-0.3c1.9-0.3,2.8-0.3,3.8-0.4
						c0.5,0,1-0.1,1.6-0.1c0.6,0,1.3,0,2.2-0.1c0.9-0.1,1.6,0,2.2,0.1c0.6,0,1,0.1,1.5,0.2c0.9,0.2,1.8,0.3,3.5,0.6
						c1.8,0.4,2.8,0.4,3.8,0.4c0.5,0,1,0,1.7,0.1c0.6,0.1,1.4,0.3,2.3,0.6c1,0.3,1.7,0.6,2.3,0.8c0.6,0.2,1.1,0.4,1.7,0.6
						c1,0.3,2.1,0.7,4.4,0.8c4.2,0.3,9.6-0.7,10.6-1.1c3-0.9,4.5-1.6,6-2.2c1.5-0.7,3-1.4,5.7-3.5c0.7-0.5,1.2-1,1.7-1.5
						c0.5-0.4,0.9-0.8,1.3-1.2c0.8-0.7,1.4-1.3,2-1.8c1.2-1.1,2.3-2.2,4-4.4c1.7-2.1,2.3-3.3,3-4.6c0.7-1.2,1.4-2.5,3.7-4.2
						c2.4-1.8,3.7-2.7,4.9-3.7c1.2-1,2.4-1.9,4.7-4c4.5-4.2,5.7-3,9.9-6.6c2.1-1.8,3.2-2.7,4.3-3.6c1.1-0.9,2.2-1.8,4.5-3.4
						c2.3-1.5,3.4-2.2,4.5-2.9c1.2-0.7,2.3-1.3,4.9-2.5c2.7-1.2,4.4-2,5.9-2.8c1.6-0.8,3.2-1.8,5.8-4c2.6-2.2,3.6-3.5,4.7-4.7
						c0.5-0.6,1.1-1.2,1.7-2c0.6-0.8,1.4-1.6,2.5-2.9c2.1-2.5,2.7-4.2,3.2-5.9c0.5-1.7,1-3.4,2.4-6.3c1.4-2.9,2-4.1,2.7-5.4
						c0.7-1.2,1.3-2.5,2.7-4.8c1.4-2.4,2.3-3.5,3.2-4.6c0.4-0.5,0.9-1.1,1.5-1.9c0.6-0.8,1.2-1.7,2.1-3c1.6-2.6,2.4-3.9,3.3-5.2
						c0.7-1.2,1.5-2.4,3-4.8c1.4-2.2,2.3-2.9,3.3-3.6c1-0.8,2-1.5,3.9-3.4c1.9-1.9,2.9-3,3.8-4.1c0.5-0.6,0.9-1,1.5-1.6
						c0.3-0.3,0.6-0.6,1-1c0.4-0.3,0.8-0.7,1.3-1c0.3-0.2,0.5-0.4,0.7-0.5c0.2-0.1,0.4-0.3,0.6-0.4c0.4-0.3,0.7-0.5,1-0.7
						c0.6-0.4,1.1-0.7,1.6-1c0.5-0.3,1-0.6,1.6-0.9c0.6-0.3,1.4-0.6,2.5-0.9c1.2-0.3,2.1-0.5,3-0.7c0.8-0.1,1.7-0.3,2.4-0.4
						c0.8-0.1,1.6-0.2,2.6-0.4c1-0.2,2.3-0.5,3.9-1c3.3-1,4.9-1.4,6.6-1.7c0.9-0.2,1.7-0.4,2.7-0.7c1-0.3,2.3-0.8,3.6-1.5
						c5.4-2.7,4.6-4.3,10-7.1c5.4-2.8,5-3.4,10.3-6.2c5.3-2.7,5.7-1.8,11-4.5c0.7-0.3,1.3-0.6,1.8-0.8c0.1-0.1,0.3-0.1,0.4-0.2
						c0.1-0.1,0.3-0.1,0.4-0.2c0.3-0.1,0.5-0.2,0.8-0.4c1-0.5,1.8-0.8,2.7-1.1c1.6-0.8,3.3-1.5,6.2-3.9c2.7-2.4,3.8-3.8,4.9-5.1
						c0.5-0.6,1-1.3,1.6-2.1c0.3-0.4,0.6-0.8,1-1.2c0.3-0.4,0.7-0.9,1.2-1.4c0.9-0.9,1.4-1.6,1.8-2c0.2-0.2,0.4-0.5,0.5-0.7
						c0.2-0.2,0.3-0.3,0.4-0.5c0.3-0.4,0.6-0.7,1-1c0.1-0.1,0.2-0.2,0.3-0.3c0.1-0.1,0.3-0.1,0.4-0.2c0.2-0.1,0.3-0.1,0.5-0.2
						c0.1,0,0.2-0.1,0.3-0.1c0.1,0,0.2-0.1,0.4-0.1c0.5-0.1,0.9-0.2,1.3-0.2c0.4,0,0.8,0,1.2,0c0.7,0.1,1.2,0.2,1.9,0.4
						c0.6,0.2,1.2,0.4,1.9,0.5c0.7,0.2,1.5,0.3,2.5,0.5c2,0.3,2.8,0.5,3.6,0.6c0.9,0.2,1.7,0.3,3.1,1.6c1.5,1.3,2.4,2.2,3.5,3.1
						c1.1,0.9,2.1,1.9,4.2,4.4c2.2,2.7,3.4,4.4,4.7,5.9c0.6,0.8,1.4,1.6,2.4,2.4c1,0.8,2.4,1.8,4.3,2.6c1.9,0.8,3.4,1.2,4.6,1.6
						c1.2,0.3,2.2,0.5,3.1,0.6c1,0.1,1.9,0.3,3.1,0.3c0.6,0,1.3,0.1,2,0.1c0.7,0.1,1.7,0,2.7-0.1c1,0,2-0.2,2.8-0.4
						c0.8-0.2,1.6-0.4,2.2-0.7c0.7-0.3,1.2-0.5,1.8-0.8c0.5-0.3,1-0.6,1.5-1c1.8-1.3,3.5-2.8,6.2-5.2c0.6-0.6,1.2-1,1.7-1.4
						c0.5-0.4,0.9-0.7,1.3-0.9c0.8-0.5,1.5-0.8,2.2-1c0.7-0.2,1.3-0.5,2.1-0.8c0.4-0.2,0.8-0.4,1.2-0.6c0.4-0.2,0.9-0.5,1.4-0.8
						c2.1-1.3,3-2.2,4-3.4c1.2-1.1,2.5-2.2,5.4-3.4c5.8-2.4,5.9-2.2,11.6-4.6c5.7-2.4,6.2-1.1,11.9-3.4c2.9-1.1,4.2-1.8,5.5-2.5
						c1.4-0.7,2.7-1.3,5.5-2.2c2.8-0.8,4.4-0.9,5.9-1.1c1.6-0.2,3.2-0.3,6.4-1.2c3.1-0.9,4.7-1.4,6.2-1.8c1.5-0.4,3.1-0.9,6-2.1
						c5.9-2.4,5.1-4.4,10.7-6.9c2.8-1.2,4.2-1.7,5.6-2.2c1.4-0.5,2.9-0.9,5.9-1.7c1.1-0.3,3.2-1.5,3.5-1.6c3.9-0.7,4.1-0.1,8-0.8
						c4-0.7,3.9-1.2,7.8-1.7c2-0.2,3,0,4,0.3c1,0.3,2,0.5,4,0.4c4-0.1,4-0.3,8-0.4c4,0,4-0.2,7.9-0.1c3.9,0.1,3.9-0.7,7.9-0.4
						c4,0.3,4,1.2,8.2,1.3c4.1,0.1,4.1,0.6,8.2,0.6c2.1-0.1,3.1-0.4,4.2-0.8c1-0.4,2-0.8,4.1-1c0.5-0.1,0.9-0.1,1.2-0.1
						c2-0.7,4-1.1,5.9-1.4c2-0.3,3.8-0.5,5.6-0.9l0.4,0c0.6-0.3,1.4-0.5,2.6-0.7c1.6-0.2,2.6,0,3.4,0.3c0.9-0.2,1.8-0.6,2.5-1.7
						C593.1,251.4,593.6,250.4,592.7,249z"/>
				</g>
			</g>
		</g>
		<g clip-path="url(#SVGID_2_)">
			<g>
				<path fill="#F47831" d="M525.8,223.3c2.6,0,5.1-2.3,5-5c-0.1-2.7-2.2-5-5-5c-2.6,0-5.1,2.3-5,5C520.9,221,523,223.3,525.8,223.3
					L525.8,223.3z"/>
			</g>
		</g>
		<g clip-path="url(#SVGID_2_)">
			<g>
				<path fill="#F47831" d="M492.1,232.2c2.6,0,5.1-2.3,5-5c-0.1-2.7-2.2-5-5-5c-2.6,0-5.1,2.3-5,5
					C487.2,229.9,489.3,232.2,492.1,232.2L492.1,232.2z"/>
			</g>
		</g>
		<g clip-path="url(#SVGID_2_)">
			<g>
				<path fill="#F47831" d="M513.7,195.8c2.6,0,5.1-2.3,5-5c-0.1-2.7-2.2-5-5-5c-2.6,0-5.1,2.3-5,5
					C508.8,193.5,510.9,195.8,513.7,195.8L513.7,195.8z"/>
			</g>
		</g>
		<g clip-path="url(#SVGID_2_)">
			<g>
				<path fill="#F47831" d="M564.1,211.9c2,0,3.9-1.7,3.8-3.8c-0.1-2-1.7-3.8-3.8-3.8c-2,0-3.9,1.7-3.8,3.8
					C560.5,210.2,562,211.9,564.1,211.9L564.1,211.9z"/>
			</g>
		</g>
		<g clip-path="url(#SVGID_2_)">
			<g>
				<path fill="#F47831" d="M573.7,197.7c2,0,3.9-1.7,3.8-3.8c-0.1-2-1.7-3.8-3.8-3.8c-2,0-3.9,1.7-3.8,3.8
					C570,196,571.6,197.7,573.7,197.7L573.7,197.7z"/>
			</g>
		</g>
		<g clip-path="url(#SVGID_2_)">
			<g>
				<path fill="#F47831" d="M501.4,242.3c-16.1,1.4-29.8,10-43.2,18.2c-3.9,2.4-7.7,4.7-11.7,6.8c-1.8,1-2.3,3.4-1.4,5.2
					c1.1,1.8,3.4,2.3,5.2,1.4c8.8-4.7,16.9-10.3,25.6-15.1c4-2.2,8.1-4.3,12.3-5.8c4.3-1.6,9.1-2.8,13.3-3.1c2-0.2,3.9-1.6,3.8-3.8
					C505.1,244.2,503.5,242.1,501.4,242.3L501.4,242.3z"/>
			</g>
		</g>
		<g clip-path="url(#SVGID_2_)">
			<g>
				<path fill="#F47831" d="M457.5,256.5c0.1-0.3,0.3-0.6,0.4-1c0.2-0.5,0.2-1,0.1-1.5c0-0.5-0.2-1-0.4-1.4c-0.2-0.4-0.6-0.8-1-1.1
					c-0.4-0.3-0.8-0.6-1.3-0.7c-0.3,0-0.7-0.1-1-0.1c-0.7,0-1.3,0.2-1.9,0.5c-0.3,0.2-0.5,0.4-0.8,0.6c-0.5,0.5-0.8,1-1,1.7
					c-0.1,0.3-0.3,0.6-0.4,1c-0.2,0.5-0.2,1-0.1,1.5c0,0.5,0.2,1,0.4,1.4c0.2,0.4,0.6,0.8,1,1.1c0.4,0.3,0.8,0.6,1.3,0.7
					c0.3,0,0.7,0.1,1,0.1c0.7,0,1.3-0.2,1.9-0.5c0.3-0.2,0.5-0.4,0.8-0.6C457,257.7,457.4,257.1,457.5,256.5L457.5,256.5z"/>
			</g>
		</g>
		<g clip-path="url(#SVGID_2_)">
			<g>
				<path fill="#F47831" d="M458.9,241.9c0.2-0.3,0.3-0.5,0.5-0.8c0.3-0.4,0.4-0.9,0.4-1.4c0.1-0.5,0.1-1-0.1-1.5
					c-0.1-0.5-0.3-0.9-0.7-1.3c-0.3-0.4-0.6-0.7-1.1-1c-0.3-0.1-0.6-0.3-0.9-0.4c-0.7-0.2-1.3-0.2-2,0c-0.3,0.1-0.6,0.3-0.9,0.4
					c-0.6,0.3-1,0.8-1.4,1.4c-0.2,0.3-0.3,0.5-0.5,0.8c-0.3,0.4-0.4,0.9-0.4,1.4c-0.1,0.5-0.1,1,0.1,1.5c0.1,0.5,0.3,0.9,0.7,1.3
					c0.3,0.4,0.6,0.7,1.1,1c0.3,0.1,0.6,0.3,0.9,0.4c0.7,0.2,1.3,0.2,2,0c0.3-0.1,0.6-0.3,0.9-0.4
					C458.1,243,458.5,242.5,458.9,241.9L458.9,241.9z"/>
			</g>
		</g>
		<g clip-path="url(#SVGID_2_)">
			<g>
				<path fill="#F47831" d="M421.6,250.6c2,0,3.9-1.7,3.8-3.8c-0.1-2-1.7-3.8-3.8-3.8c-2,0-3.9,1.7-3.8,3.8
					C417.9,248.8,419.5,250.6,421.6,250.6L421.6,250.6z"/>
			</g>
		</g>
		<g clip-path="url(#SVGID_2_)">
			<g>
				<path fill="#F47831" d="M415.3,272.1c3.2,0,3.2-5,0-5C412,267.1,412,272.1,415.3,272.1L415.3,272.1z"/>
			</g>
		</g>
		<g clip-path="url(#SVGID_2_)">
			<g>
				<path fill="#F47831" d="M445.8,227c3.2,0,3.2-5,0-5C442.6,222,442.6,227,445.8,227L445.8,227z"/>
			</g>
		</g>
		<g clip-path="url(#SVGID_2_)">
			<g>
				<path fill="#F47831" d="M424.4,224.2c3.2,0,3.2-5,0-5C421.1,219.2,421.1,224.2,424.4,224.2L424.4,224.2z"/>
			</g>
		</g>
		<g clip-path="url(#SVGID_2_)">
			<g>
				<path fill="#F47831" d="M364.5,328.2c3.2,0,3.2-5,0-5C361.2,323.2,361.2,328.2,364.5,328.2L364.5,328.2z"/>
			</g>
		</g>
		<g clip-path="url(#SVGID_2_)">
			<g>
				<path fill="#F47831" d="M347.6,330.5c3.2,0,3.2-5,0-5C344.3,325.5,344.3,330.5,347.6,330.5L347.6,330.5z"/>
			</g>
		</g>
		<g clip-path="url(#SVGID_2_)">
			<g>
				<path fill="#F47831" d="M415.5,331.1c3.2,0,3.2-5,0-5C412.2,326,412.2,331.1,415.5,331.1L415.5,331.1z"/>
			</g>
		</g>
		<g clip-path="url(#SVGID_2_)">
			<g>
				<path fill="#F47831" d="M298,351.2c3.2,0,3.2-5,0-5C294.8,346.2,294.8,351.2,298,351.2L298,351.2z"/>
			</g>
		</g>
		<g clip-path="url(#SVGID_2_)">
			<g>
				<path fill="#F47831" d="M361.6,274.6c3.2,0,3.2-5,0-5C358.3,269.5,358.3,274.6,361.6,274.6L361.6,274.6z"/>
			</g>
		</g>
		<g clip-path="url(#SVGID_2_)">
			<g>
				<path fill="#F47831" d="M490.9,249.1c5.2-2.8,10.3-5.4,16.4-5.6c3.1-0.1,6.3-0.2,9.4-0.6c1.5-0.2,3-0.5,4.5-1
					c0.7-0.2,1.4-0.5,2.1-0.7c0.2-0.1,0.5-0.1,0.7-0.2c0,0-0.1,0-0.1,0c0.8,0,0.5-0.3-1-1.1c0.5,1.3,1.7,2.1,3.1,1.8
					c1.2-0.3,2.3-1.8,1.8-3.1c-0.7-1.7-2-2.6-3.8-2.6c-1.6,0-3,0.8-4.5,1.2c-3.5,1-7.1,1.1-10.7,1.2c-3.6,0.1-7.1,0.5-10.6,1.7
					c-3.4,1.2-6.6,2.9-9.8,4.6C485.6,246.3,488.1,250.7,490.9,249.1L490.9,249.1z"/>
			</g>
		</g>
		<g clip-path="url(#SVGID_2_)">
			<g>
				<path fill="#F47831" d="M526.5,239.3c4.6,1.3,9.4,2.2,14.1,2.9c2.5,0.3,3.4-3.7,1.3-4.7c-8.3-3.9-17.6-5.7-26.8-4.7
					c-4.6,0.5-8.7,1.8-12,5.1c-3,3-5.7,6.3-8.9,9.1c-3.7,3.1-7.8,5.7-12.1,7.7c-1.2,0.6-1.5,2.3-0.9,3.4c0.7,1.3,2.2,1.5,3.4,0.9
					c7.4-3.5,14-8.6,19.5-14.7c1.2-1.4,2.5-2.9,3.9-4c1.6-1.2,3.5-1.9,5.5-2.2c4-0.8,8.3-0.7,12.3-0.2c4.7,0.6,9.3,1.9,13.6,4
					c0.4-1.6,0.8-3.1,1.3-4.7c-4.3-0.6-8.6-1.5-12.8-2.7C524.7,233.6,523.4,238.5,526.5,239.3L526.5,239.3z"/>
			</g>
		</g>
		<g clip-path="url(#SVGID_2_)">
			<g>
				<path fill="#F47831" d="M474.4,256.4c0.1-0.8,0.3-1.6,0.5-2.3c0.1-0.4,0.2-0.7,0.4-1.1c0.1-0.2,0.1-0.4,0.2-0.6
					c-0.2,0.3-0.1,0.2,0-0.1c0.6-1.4,1.4-2.8,2.2-4.2c0.1-0.2,0.2-0.3,0.3-0.5c0-0.1,0.1-0.2,0.1-0.2c-0.1,0.2-0.3,0.3-0.5,0.4
					c-0.2,0.2-0.4,0.2-0.6,0.2c0.1,0,0.1,0,0.2,0c0.2,0,0.4,0,0.6,0c0.1,0,0.2,0,0.3,0c0.2,0,0.1,0-0.2,0c0.1,0,0.3,0.1,0.5,0.1
					c0.3,0.1,0.7,0.2,1,0.3c0.1,0,0.2,0.1,0.3,0.1c0.2,0.1,0.1,0-0.2-0.1c0,0,0.5,0.2,0.5,0.2c0.3,0.1,0.5,0.3,0.8,0.5
					c0.1,0.1,0.3,0.2,0.5,0.3c-0.5-0.4,0,0,0.1,0.1c0.3,0.2,0.5,0.5,0.8,0.8c0.6-1.4,1.2-2.9,1.8-4.3c-3-0.2-7.3-1-9,2.3
					c-0.6,1.2-0.3,2.8,0.9,3.4c1.2,0.6,2.8,0.3,3.4-0.9c0-0.1,0.3-0.5,0-0.1c-0.1,0.2-0.1,0.2,0,0c-0.1,0.1-0.2,0.1-0.3,0.2
					c0.1,0,0.2-0.1,0.3-0.2c0.2-0.1-0.6,0.2-0.1,0.1c0.1,0,0.2-0.1,0.3-0.1c0.1,0,0.6-0.1,0.1,0c-0.4,0.1,0,0,0.1,0
					c0.1,0,0.3,0,0.4,0c1.3,0,2.6,0.2,3.9,0.3c1,0.1,1.9-0.7,2.3-1.5c0.4-1,0.2-2-0.5-2.7c-1.3-1.5-3-2.5-4.9-3.2
					c-2-0.7-4.8-1.1-6.3,0.7c-0.7,0.8-1.1,1.7-1.6,2.6c-0.4,0.8-0.9,1.6-1.2,2.4c-0.9,1.8-1.6,3.7-1.9,5.7c-0.2,1.3,0.3,2.8,1.8,3.1
					C472.5,258.4,474.2,257.8,474.4,256.4L474.4,256.4z"/>
			</g>
		</g>
		<g clip-path="url(#SVGID_2_)">
			<g>
				<path fill="#F47831" d="M255.3,273.9c3.2,0,3.2-5,0-5C252.1,268.9,252.1,273.9,255.3,273.9L255.3,273.9z"/>
			</g>
		</g>
		<g clip-path="url(#SVGID_2_)">
			<g>
				<path fill="#F47831" d="M629,155.3c3.2,0,3.2-5,0-5C625.7,150.3,625.7,155.3,629,155.3L629,155.3z"/>
			</g>
		</g>
		<g clip-path="url(#SVGID_2_)">
			<g>
				<path fill="#F47831" d="M623.2,183.2c2.6,0,5.1-2.3,5-5c-0.1-2.7-2.2-5-5-5c-2.6,0-5.1,2.3-5,5
					C618.3,180.9,620.4,183.2,623.2,183.2L623.2,183.2z"/>
			</g>
		</g>
		<g clip-path="url(#SVGID_2_)">
			<g>
				<g>
					<path fill="#F6953A" d="M359.3,490.4c1.9-1.1,3.7-2.1,5.6-3.2c1.2-0.7,2.4-1.4,3.6-2.1c2.6-1.5,5.7-2.9,7.9-4.6
						c2.7-2.1,1-2.2-2.1-0.8c-4.1,1.8-8.5,4.5-12.6,6.5c-6.2,3.2-12.3,6.2-18.5,9.1c-0.1,0.1-0.2,0.1-0.3,0.1
						c-3.1,1.5-6.3,3.1-9.5,4.7l-4.7,2.4l-5.1,2.7c-1.3,1.7-2.7,3.5-4,5.2c-1.2,1.6-2.4,3.2-3.7,4.9c-1,1.3-1.9,2.6-2.9,3.9
						l-2.5,1.7l-2.7,1.8l-5.5,3.6c-3.7,2.4-7.4,4.7-11.1,6.9c-0.5,0.3-5.4,3.2-8.6,5.3c-0.7,0.4-1.3,0.8-1.8,1.2
						c-0.2,0.1-0.4,0.3-0.6,0.4c-0.3,0.1-0.4,0.4-0.6,0.6c-0.2,0.2-0.4,0.5-0.7,0.7c-0.9,0.9-1.6,1.6-2.3,2.3
						c-1.4,1.4-2.5,2.5-3.6,3.6c-2.2,2.2-4.4,4.4-8.8,8.8c-4.3,4.5-6.4,6.8-8.5,9c-0.2,0.3-0.5,0.5-0.8,0.8l-0.3,0.3
						c-0.2,0.2-0.4,0.4-0.6,0.6c-0.7,0.7-1.3,1.4-2,2.1c-1.3,1.5-2.9,3.2-5,5.5c-4.2,4.6-6.3,7-8.4,9.3c-0.5,0.6-1,1.2-1.6,1.8
						c-0.6,0.7-1.1,1.3-1.8,2.1c-1.3,1.5-2.8,3.3-4.8,5.7c-8.1,9.5-8.5,9.2-16.6,18.7c-1.2,1.5-2.3,2.7-3.2,3.8
						c-0.4,0.5-0.8,1.1-1.2,1.5c-0.2,0.2-0.3,0.4-0.5,0.6l0,0.1c0,0,0,0-0.1,0.1c-0.3,0.1-0.6,0.2-0.8,0.3c-0.5,0.2-1.1,0.4-1.6,0.6
						c-1,0.4-2,0.8-3.2,1.2c-2.2,0.8-4.9,1.8-9,3.2c-4.2,1.4-7,2.2-9.3,2.8c-1.2,0.3-2.2,0.6-3.3,0.9c-0.5,0.1-1.1,0.3-1.7,0.5
						c-0.3,0.1-0.6,0.2-0.9,0.2c-0.3,0.1-0.5,0.1-1.2,0.4c-1,0.5-2.1,1.1-3.4,1.8c-1.2,0.6-2.5,1.4-4.1,2.3
						c-10.8,6.2-10.7,6.4-21.5,12.7c-2,1.1-2.2,2.9-2.5,3.6c-0.4,1.3-0.1,2.1,1.3,2.4c0.8,0.1,2.3,0.6,4.3-0.5
						c10.8-6.4,10.7-6.4,21.5-12.7c3.4-2,5.7-3.3,6.8-4c5.2-1.8,7.8-2.6,15.6-5.2c3.9-1.3,6.5-2.2,8.8-3c2.5-0.9,4.7-1.6,7.5-2.6
						c0.6-0.7,1.4-1.7,2.5-3.1c0.9-1.1,2-2.5,3.4-4.1c8-9.6,8-9.6,16.1-19.1c2-2.4,3.5-4.2,4.8-5.6c0.6-0.7,1.2-1.4,1.8-2
						c0.6-0.6,1.1-1.2,1.6-1.7c2.2-2.3,4.3-4.5,8.5-9.2c1-1.1,2.1-2.4,3.3-3.7c0.6-0.6,1.2-1.3,1.8-2c0.3-0.3,0.6-0.7,0.9-1
						c0.2-0.3,0.5-0.5,0.7-0.8c1-0.8,1.6-1.6,2.3-2.3c0.7-0.7,1.3-1.5,2-2.2c1.3-1.5,2.6-2.9,3.9-4.3c5-5.7,9.4-10.8,11.1-12.6
						l4.8-4.9l0.6-0.6c0.2-0.2,0.2-0.2,0.4-0.3l1.4-0.9l2.9-1.9c3.9-2.5,7.7-4.9,11.6-7.4c4.8-3.1,10-6.2,14.6-9.5
						c0.7-0.5,1.5-1.1,2.2-1.6c0.5-0.7,0.7-1,1-1.5l0.9-1.2l1.7-2.4c1.1-1.6,2.3-3.2,3.6-4.9l1.6-2.1l1.5-1.9l5.7-2.9l5.9-3
						c4-2,7.9-4,11.8-6.1L359.3,490.4z"/>
				</g>
			</g>
		</g>
		<g clip-path="url(#SVGID_2_)">
			<path fill="#F4A046" d="M717.5,363.7c-15,2.6-16.5-5.6-31.1-1.3c-18.3,5.5-21.8-0.3-38.2,9.5c-15.6,9.4-16.3,10.2-30.3,22
				c-13.9,11.8-6.5,20.8-20.9,32c-18.6,14.4-25.2,5.5-44.3,19.3c-12.4,9-9.9,12.2-22.6,20.9c-11.9,8.2-23.4,14.9-25,15.3
				c-1.6,0.5-19.2,7.2-38.2,9.1c-19.8,2-21-4.1-38.3,5.5c-24.3,13.4-21,17.3-42.1,35.3c-12.4,10.6-8.5,12.5-18.3,25.6
				c-9.1,12.1-23,20.7-24.1,22.8c-2.3,4.3-15.3,43.2-1.2,36.7c19.8-9.3,10.1-23.1,24.8-39.3c10.7-11.8,10.2-11.3,23.4-20.3
				c10.7-7.3,15.6-1.7,25.5-10.2c9-7.8,0-18.5,10.8-23.7c12.5-6,25.1-8.2,28.1-8c3,0.1,13.4,13.7,27.9,14.5
				c15.7,0.9,18.8,8.1,33.7,3.1c18.3-6,13-19,29.7-28.7c14.8-8.7,16.4-5.5,32.1-12.4c16.2-7.2,15.6-8.4,32.6-13.7
				c5.3-1.6,5.1-1.7,10.6-1.8c12.8-0.3,11.9,7,24.6,8.6c6.8,0.9,9.2-13.1,15.9-11.7c9,1.9,8.1,16.4,15.3,10.8
				c15.5-11.9,10.6-15.8,20.5-32.7c9.9-16.9,3.9-20.4,13.8-37.3c9.9-16.9,11.2-16.1,21.1-33c9.9-16.9,27.9-11.5,28.1-31
				C761.6,328.1,738.2,360.1,717.5,363.7z"/>
		</g>
		<g clip-path="url(#SVGID_2_)">
			<g>
				<g>
					<path fill="#F47831" d="M405.9,537c-1.7,1.6-3.5,3.3-5.2,4.9c-0.9,0.9-1.8,1.7-2.7,2.6c-0.2,0.3-0.4,0.5-0.7,0.8
						c-2.1,2.6-4.7,5.4-6.3,8c-2,3.2-0.3,2.6,2.4-0.2c1-1.1,2.1-2.2,3.1-3.4c0.5-0.6,1-1.2,1.6-1.8l1.5-1.8c0.8-0.7,1.5-1.4,2.3-2.1
						c0.8-0.7,1.6-1.4,2.3-2.1c2.2-1.9,4.4-3.8,6.7-5.8c1.1-0.9,2.2-1.9,3.3-2.8l1.7-1.4l0.8-0.7l0.4-0.3l0.2-0.2
						c1.6-0.5,3.3-1,4.9-1.5c0.1,0,0.3-0.1,0.4-0.1c2.2-0.7,4.4-1.4,6.6-2.1c2.1-0.7,4.2-1.4,6.3-2.1l4.7-0.1l5-0.2
						c1.7-0.1,3.4-0.1,5-0.2l2.5-0.1l1.3-0.1l0.6,0l0.2,0l0.3,0.1l0.7,0.3c0.5,0.2,1,0.4,1.4,0.6c4.4,1.7,8.7,3.5,13.1,5.4l6.5,2.8
						c2.2,1,4.5,2,6.7,3c1.2,0.1,2.4,0.3,3.6,0.4c1.1,0.1,2.2,0.3,3.2,0.4c0.7,0.1,6.9,0.9,11.2,1.3c0.4,0,0.9,0.1,1.3,0.1
						c0.3,0,0.6,0,0.8,0.1l0.5,0c0.2,0,0.3-0.1,0.5-0.1c0.8-0.3,1.6-0.5,2.4-0.8c1.3-0.4,2.4-0.8,3.5-1.1c2.1-0.6,3.7-1.2,5.4-1.7
						c1.7-0.5,3.3-1,5.5-1.8c0.3-0.1,0.6-0.2,0.9-0.3l0.2-0.1l0.3-0.2c0.2-0.1,0.5-0.2,0.6-0.3c0.4-0.3,0.6-0.4,0.9-0.6
						c0.3-0.2,0.5-0.4,0.8-0.6c1.1-0.8,2.3-1.7,3.7-2.8c2.8-2.1,4.8-3.8,6.5-5.1c0.8-0.7,1.6-1.3,2.3-1.9c0.2-0.1,0.4-0.3,0.5-0.4
						l0.3-0.2c0.1-0.1,0.3-0.3,0.4-0.4c0.3-0.3,0.6-0.6,0.9-0.9c2.4-2.5,4.8-5,9.9-9.8c0.2-0.1,0.3-0.3,0.3-0.3
						c11.9-4.4,12.3-4.5,24.7-9.1c1.6-0.6,3.1-1,4.4-1.4c1.3-0.4,2.4-0.7,3.5-1c2.1-0.6,3.8-1,5.4-1.4c3.4-0.9,6.7-1.7,13.3-3.7
						c3.1-0.9,5.5-1.7,7.4-2.3c2.3-0.8,4.1-1.4,5.9-2l0.8-1l0.6-0.7c0.3-0.4,0.6-0.7,0.8-1.1c0.6-0.8,1.2-1.5,1.9-2.4
						c0.7-0.9,1.4-1.8,2.3-2.9c0.8-1,1.6-2,2.6-3.2c0,0,0.1,0,0.1,0c1.1-0.5,2-1,2.9-1.4c0.9-0.5,1.8-0.9,2.6-1.2
						c0.8-0.4,1.5-0.7,2.2-1c0.3-0.2,0.7-0.3,1-0.4c0.1-0.1,0.1,0,0.2-0.1l0.2,0.1c0.3,0,0.6,0.1,0.8,0.1c0.6,0.1,1.1,0.2,1.7,0.2
						c1.1,0.2,2.2,0.3,3.5,0.5c2.5,0.3,5.5,0.7,9.9,1.1c1.6,0.2,3.1,0.3,4.2,0.4c0.6,0.1,1.1,0.1,1.4,0.1c0.1,0,0.2,0,0.2,0l0,0l0,0
						c3.3,1.8,5.5,2.9,7.9,4.2c2.6,1.4,5.5,2.9,10.2,5.5c2.2,1.2,4,0.6,4.7,0.5c1.5-0.3,2-1,1.3-2.4c-0.3-0.7-0.8-2.4-3-3.6
						c-4.7-2.5-7.6-4.1-10.2-5.5c-2.8-1.5-5.3-2.8-9.1-4.9c-0.8-0.1-3.6-0.3-7.2-0.6c-8.9-0.8-12.3-1.1-17.8-1.6
						c-2.1,1-5.3,2.7-10.6,5.4c-0.3,0.2-0.7,0.3-0.7,0.3c-2.4,2.9-4.2,5.1-5.7,6.9c-0.7,0.9-1.3,1.6-1.9,2.4
						c-0.3,0.4-0.6,0.7-0.9,1.1l-0.2,0.3c0,0.1-0.1,0.1-0.1,0.1l0,0l-0.1,0.1l-0.1,0l0,0l-0.2,0.1c-0.4,0.1-0.8,0.3-1.2,0.4
						c-0.8,0.3-1.7,0.5-2.7,0.9c-2,0.6-4.4,1.4-7.5,2.3c-6.7,2-10,3.1-13.3,4.1c-1.7,0.5-3.3,1-5.4,1.6c-1,0.3-2.2,0.7-3.5,1.1
						c-1.3,0.4-2.8,0.8-4.4,1.5c-6.3,2.4-9.6,3.5-12.9,4.6c-1.6,0.6-3.2,1.1-5.2,1.8c-1,0.3-2,0.7-3.3,1.2c-1.4,0.5-2.9,1.1-4.6,1.7
						c-0.2,0.2-0.7,0.6-1.1,1.1c-2.4,2.3-5.3,5.2-8.2,8.2c-0.7,0.8-1.5,1.5-2.2,2.3l-0.1,0.1c0,0-0.1,0.1-0.1,0.1c0,0,0,0-0.2,0.1
						l-0.6,0.5l-1.2,1.1c-1.6,1.4-3.3,2.8-4.9,4.2c-1.6,1.4-3.2,2.7-4.6,3.9c-0.7,0.6-1.4,1.2-2.1,1.7c-0.3,0.3-0.6,0.5-0.8,0.6
						c-0.1,0-0.3,0.1-0.4,0.2c-0.2,0.1-0.4,0.2-0.5,0.2c-2.9,1.2-5.4,2.1-6.7,2.6l-7.1,2.3l-1.8,0.6c-0.2,0-0.3,0.1-0.5,0.1
						l-0.7-0.1l-3.7-0.4c-4.9-0.5-9.8-1-14.7-1.5l-0.2-0.1c-5.8-2.6-11.9-5.4-17.8-7.7c-1.8-0.7-3.6-1.3-5.4-2
						c-0.9-0.3-1.8-0.7-2.7-1l-1.3-0.5c-0.5-0.2-1.1-0.4-1.6-0.6c-0.8,0.1-1.7,0.1-2.6,0.2c-0.8,0-1.5,0.1-2.3,0.1
						c-2.6,0.1-5.2,0.2-7.8,0.3l-8,0.1l-9.5,3.2l-4.6,1.6l-4.9,1.8l-0.3,0.3L405.9,537z"/>
				</g>
			</g>
		</g>
		<g clip-path="url(#SVGID_2_)">
			<g>
				<path fill="#F4A046" d="M168.2,692.4c0.2,0,0.3-0.1,0.5-0.1c3.1-0.7,6.2-1.2,9.3-1.7c3.1-0.5,6.2-1,9.2-1.8
					c4.1-1.2,8.3-2.1,12.6-2.9c4.2-0.8,8.5-1.6,12.7-2.6c2.3-0.6,2.6,0.5,4.9-0.1c2.3-0.6,2.3-0.4,4.6-1c2.3-0.6,2.2-0.8,4.4-1.5
					c2.2-0.6,2.2-0.7,4.4-1.4c2.2-0.7,2-1.3,4.2-2.1c0.3-0.1,0.5-0.2,0.8-0.3c0.4-0.2,0.8-0.1,1.1-0.4c0.3-0.2,0.6-0.3,0.8-0.4
					c0.1-0.1,0.3-0.1,0.4-0.2l0.2-0.1c0.5-0.2,1.1-0.4,2.1-1.1c1.9-1.3,1.5-2,3.4-3.3c1.9-1.3,2.2-0.8,4.2-2.1
					c0.5-0.4,0.9-0.6,1.3-0.7c3.9-4.4,8.6-7.7,14-9.6c0.1,0,0.1-0.1,0.2-0.2c1.9-1.4,1.8-1.5,3.7-2.9c0.6-0.5,1.1-0.8,1.4-1.1
					c0.6-0.8,1.2-1.5,1.9-2.1c1.1-0.9,2.1-1.7,3.3-2.4l1.7-1.1l1.8-1.2c0.2-0.2,0.4-0.4,0.5-0.6l0.4-0.4l0.7-0.9
					c1.1-1.8,2.4-3.5,3.6-5.2c0.7-1,1.6-2,2.3-3c0.5-0.7,1.3-1.8,1.3-2.8c-0.3-0.1-0.5-0.2-0.8-0.3c-1.3,1.6-1.6,1.5-3,3.3
					c-1.4,1.8-1.3,1.9-2.8,3.7c-0.6,0.8-1.5,1.8-1.5,1.9l-2.1,2.6l-2.9,1.3l-3,1.4l-6,2.9c-4,1.9-7.9,3.9-11.9,5.8
					c-2.1,1-2.5,0.3-4.6,1.3c-2.1,1-2.1,1-4.2,2c-2.1,1-1.6,1.9-3.7,2.9c-2.1,1-2.7,0-4.8,1c-1,0.5-1.5,0.9-2,1.2
					c-0.1,0-0.1,0.1-0.2,0.1l0,0.1c0,0,0,0.1,0,0.1c0,0,0,0-0.1,0c-0.2,0.1-0.4,0.1-0.7,0.2c-2.3,0.5-2.4,0-4.7,0.6
					c-2.2,0.6-2.3,0.5-4.5,1.2c-2.2,0.8-2.2,0.8-4.4,1.5c-2.2,0.8-1.8,2.2-4,3c-2.2,0.8-2.4,0.2-4.6,1c-2.2,0.8-2.2,0.6-4.4,1.4
					c-2.2,0.8-2.4,0.3-4.5,1.1c-0.8,0.3-1.3,0.5-1.7,0.7c-3.1,2.2-6.4,3.7-9.8,5.1c-3.4,1.3-6.8,2.5-10.2,3.9
					c-3.1,1.2-6.2,2.6-9.2,4.3c-0.6,0.3-1.3,0.7-1.9,1.1C167.9,691.9,168,692.2,168.2,692.4z"/>
			</g>
		</g>
		<g clip-path="url(#SVGID_2_)">
			<g>
				<g>
					<path fill="#F4A046" d="M294.4,625.2c0,0,0.1-0.1,0.1-0.1c1.2-1.4,2.8-2.6,3.8-4.1c1.4-2.1,3.4-3.9,5.1-5.8
						c0.5-0.5,0.8-0.3,1.2-0.8c0.5-0.5,0.5-0.5,1-1s0.4-0.6,0.8-1.1c0.3-0.4,0.5-0.6,0.6-0.7c0.1-0.4,0.2-0.7,0.3-1.3
						c0.2-0.7,0-0.7,0.1-1.4c0.1-0.7,0.3-0.6,0.5-1.3c0.1-0.7-0.2-0.8,0-1.4c0.1-0.7,0.4-0.6,0.5-1.3c0-0.2,0.1-0.3,0.1-0.4
						c-0.2-1.8,0-3.5,1.1-4.9l0-0.1c0.1-0.7,0-0.7,0.2-1.4c0-0.2,0.1-0.4,0.1-0.5c-0.1-0.3-0.2-0.6-0.2-0.9c0-1.1,0.3-2.1,0.7-3
						c0-0.7,0.1-1.3,0.2-1.9c0.1-0.4,0.2-0.7,0.2-1.1c0-0.3,0.1-0.7-0.4-1c-0.3,0-0.5-0.1-0.8-0.1c-0.2,0.6-0.5,0.6-0.7,1.2
						c-0.2,0.7,0,0.7-0.2,1.4c-0.1,0.3-0.2,0.6-0.3,0.7c-1,2.8-1.7,5.8-2.5,8.7c-0.2,0.7-0.6,0.6-0.8,1.2c-0.2,0.7-0.2,0.7-0.4,1.3
						c-0.2,0.7,0.2,0.8,0,1.4c-0.2,0.7-0.6,0.6-0.8,1.2c-0.2,0.7,0,0.7-0.2,1.4c-0.2,0.7-0.4,0.6-0.6,1.3c0,0.1-0.1,0.2-0.1,0.3
						c0,0.1-0.1,0.2,0,0.2l0,0c0,0,0,0,0,0c-0.4,0.6-0.4,0.6-0.8,1.2c-0.4,0.6,0,0.9-0.4,1.5c-0.4,0.6-0.5,0.5-1,1s-0.4,0.5-0.8,1.1
						c-0.4,0.6-0.6,0.5-1,1c-0.1,0.2-0.2,0.3-0.3,0.5c-0.7,2.2-2.2,3.8-3.5,5.6c-0.6,0.8-1.2,1.6-1.4,2.7c-0.1,0.2-0.1,0.5-0.1,0.8
						C293.9,624.9,294.1,625.1,294.4,625.2z"/>
				</g>
			</g>
		</g>
		<g clip-path="url(#SVGID_2_)">
			<g>
				<g>
					<path fill="#F4A046" d="M327,565.3c-0.6,1-1.3,1.9-2,2.9c-0.4,0.6-0.8,1.3-1.2,1.9c-0.9,1.4-2.2,2.7-2.7,4.1
						c-0.6,1.8,0.5,1.7,1.8,0.4c1.7-1.7,3.2-4.1,4.7-6c2.4-2.9,4.8-5.7,7.3-8.4c0-0.1,0.1-0.1,0.1-0.1c2-2.2,3.9-4.5,5.8-6.9
						c0.9-1.2,1.9-2.4,2.7-3.6l1.3-1.8l0.6-0.9c0.2-0.3,0.5-0.7,0.5-0.7l0-0.1l0.2-0.1l0.4-0.3l0.9-0.6l1.7-1.1
						c1.2-0.8,2.4-1.5,3.6-2.2c2.4-1.4,4.8-2.8,7.3-4.1c0.3-0.2,3-1.5,4.8-2.6c5.7-3.5,5.9-3.2,11.7-6.8c5.7-3.5,5.5-4,11.2-7.5
						c1.6-1,2.7-1.6,3.2-1.9c3.1-0.9,4.4-1.3,8.8-2.6c6.5-1.9,6.6-1.4,13.1-3.3c6.5-1.9,6.3-2.6,12.7-4.5c6.5-1.9,6.7-1.2,13.1-3.1
						c6.5-1.9,6.4-2.1,12.9-4c1.2-0.4,1.4-1.8,1.5-2.4c0.3-1.1,0.1-1.9-0.8-2.6c-0.4-0.4-1.3-1.4-2.5-1c-6.4,2-6.4,2.1-12.8,4.1
						c-6.4,2-6.4,2-12.9,4c-6.4,2-6.4,2.2-12.8,4.2c-6.4,2-6.4,2-12.9,3.9c-2.4,0.7-3.9,1.1-5.2,1.5c-0.7,0.2-1.2,0.3-1.9,0.4
						c-0.3,0.1-0.6,0.2-1,0.2c-0.2,0-0.3,0.1-0.5,0.1c-0.3,0.1-0.6,0.2-0.9,0.3c-0.6,0.3-1.2,0.7-1.9,1.1c-0.6,0.3-1.2,0.7-1.9,1.2
						c-5.5,3.5-14.7,10.9-17.1,12.3c-4.2,2.6-8.5,5-12.8,7.5c-2.6,1.5-5.6,3.1-8,4.9c-0.5,0.4-1,0.8-1.6,1.2l-0.8,0.6
						c-0.1,0.1-0.2,0.2-0.4,0.3l-0.6,0.4l-0.4,0.6l-0.3,0.4l-0.5,0.8c-0.4,0.5-0.7,1.1-1.1,1.6c-3.4,4.6-7.4,8.8-10.8,13.4
						C329.5,562,328.3,563.6,327,565.3z"/>
				</g>
			</g>
		</g>

			<radialGradient id="SVGID_3_" cx="337.375" cy="327.7295" r="316.75" fx="462.7554" fy="511.3867" gradientUnits="userSpaceOnUse">
			<stop  offset="0.1468" style="stop-color:#FFE784"/>
			<stop  offset="0.339" style="stop-color:#FEEC97;stop-opacity:0.7978"/>
			<stop  offset="0.6407" style="stop-color:#FDF3B0;stop-opacity:0.4806"/>
			<stop  offset="0.8124" style="stop-color:#FDF7BA;stop-opacity:0.3"/>
		</radialGradient>
		<circle opacity="0.35" clip-path="url(#SVGID_2_)" fill="url(#SVGID_3_)" cx="337.4" cy="327.7" r="316.8"/>

			<ellipse transform="matrix(0.8244 -0.566 0.566 0.8244 -92.2252 187.2119)" display="none" opacity="0.15" clip-path="url(#SVGID_2_)" fill="#FFFFFF" cx="255.6" cy="242.2" rx="197" ry="179.8"/>

			<ellipse transform="matrix(0.7979 -0.6027 0.6027 0.7979 -68.3719 166.4958)" display="none" opacity="0.2" clip-path="url(#SVGID_2_)" fill="#FFFFFF" cx="214.1" cy="185.2" rx="119.1" ry="91.6"/>

			<radialGradient id="SVGID_4_" cx="323.4023" cy="319.1387" r="349.0791" gradientTransform="matrix(1.0648 0 0 1.1327 -13.6253 -27.2279)" gradientUnits="userSpaceOnUse">
			<stop  offset="0.4854" style="stop-color:#FFFFFF;stop-opacity:0"/>
			<stop  offset="0.5849" style="stop-color:#F6F6F6;stop-opacity:0.1933"/>
			<stop  offset="0.6562" style="stop-color:#E5E4E3;stop-opacity:0.3318"/>
			<stop  offset="0.7186" style="stop-color:#CECCCC;stop-opacity:0.4532"/>
			<stop  offset="0.7761" style="stop-color:#B0ADAD;stop-opacity:0.5649"/>
			<stop  offset="0.8301" style="stop-color:#8D8A8A;stop-opacity:0.6698"/>
			<stop  offset="0.8815" style="stop-color:#686565;stop-opacity:0.7698"/>
			<stop  offset="0.9309" style="stop-color:#444141;stop-opacity:0.8657"/>
			<stop  offset="0.9775" style="stop-color:#1D1D1D;stop-opacity:0.9562"/>
			<stop  offset="1" style="stop-color:#010101"/>
		</radialGradient>
		<rect x="-41" y="-61.1" opacity="0.4" clip-path="url(#SVGID_2_)" fill="url(#SVGID_4_)" width="743.4" height="790.8"/>
	</g>
</g>
</svg>
