<?xml version="1.0" encoding="utf-8"?>
<!-- Generator: Adobe Illustrator 23.0.6, SVG Export Plug-In . SVG Version: 6.00 Build 0)  -->
<svg version="1.0" id="Layer_1" xmlns="http://www.w3.org/2000/svg" xmlns:xlink="http://www.w3.org/1999/xlink" x="400px" y="400px"
	 viewBox="0 0 700 700" enable-background="new 0 0 700 700" xml:space="preserve">
<g>
	<g>
		<path fill="#404552" d="M548.5,286h-76c-1,0-1.8-0.8-1.8-1.8v-4c0-1,0.8-1.8,1.8-1.8h76c1,0,1.8,0.8,1.8,1.8v4
			C550.3,285.2,549.5,286,548.5,286z"/>
		<path fill="#272D40" d="M573.1,293.6H472.5c-1,0-1.8-0.8-1.8-1.8v-4c0-1,0.8-1.8,1.8-1.8h100.6c1,0,1.8,0.8,1.8,1.8v4
			C575,292.8,574.2,293.6,573.1,293.6z"/>
		<path fill="#272D40" d="M610,301.3H472.5c-1,0-1.8-0.8-1.8-1.8v-4c0-1,0.8-1.8,1.8-1.8H610c1,0,1.8,0.8,1.8,1.8v4
			C611.9,300.4,611,301.3,610,301.3z"/>
		<path fill="#272D40" d="M530.3,308.9h-57.8c-1,0-1.8-0.8-1.8-1.8v-4c0-1,0.8-1.8,1.8-1.8h57.8c1,0,1.8,0.8,1.8,1.8v4
			C532.2,308.1,531.3,308.9,530.3,308.9z"/>
		<path fill="#8A8A8B" d="M588.9,308.9h-36.7c-1,0-1.8-0.8-1.8-1.8v-4c0-1,0.8-1.8,1.8-1.8h36.7c1,0,1.8,0.8,1.8,1.8v4
			C590.7,308.1,589.9,308.9,588.9,308.9z"/>
		<path fill="#272D40" d="M622.1,316.5H435.4c-1,0-1.8-0.8-1.8-1.8v-4c0-1,0.8-1.8,1.8-1.8h186.7c1,0,1.8,0.8,1.8,1.8v4
			C623.9,315.7,623.1,316.5,622.1,316.5z"/>
		<path fill="#272D40" d="M660.4,324.1H450.5c-1,0-1.8-0.8-1.8-1.8v-4c0-1,0.8-1.8,1.8-1.8h209.9c1,0,1.8,0.8,1.8,1.8v4
			C662.3,323.3,661.5,324.1,660.4,324.1z"/>
		<path fill="#404552" d="M576.6,331.8H472.5c-1,0-1.8-0.8-1.8-1.8v-4c0-1,0.8-1.8,1.8-1.8h104.1c1,0,1.8,0.8,1.8,1.8v4
			C578.4,330.9,577.6,331.8,576.6,331.8z"/>
		<path fill="#272D40" d="M537.2,278.4H434.1c-1,0-1.8-0.8-1.8-1.8v-4c0-1,0.8-1.8,1.8-1.8h103.1c1,0,1.8,0.8,1.8,1.8v4
			C539.1,277.6,538.3,278.4,537.2,278.4z"/>
		<path fill="#272D40" d="M442.7,270.7h-70.8c-1,0-1.8-0.8-1.8-1.8v-4c0-1,0.8-1.8,1.8-1.8h70.8c1,0,1.8,0.8,1.8,1.8v4
			C444.5,269.9,443.7,270.7,442.7,270.7z"/>
		<path fill="#272D40" d="M581.1,270.7h-52.6c-1,0-1.8-0.8-1.8-1.8v-4c0-1,0.8-1.8,1.8-1.8h52.6c1,0,1.8,0.8,1.8,1.8v4
			C582.9,269.9,582.1,270.7,581.1,270.7z"/>
		<path fill="#8A8A8B" d="M615.3,270.7h-12.1c-1,0-1.8-0.8-1.8-1.8v-4c0-1,0.8-1.8,1.8-1.8h12.1c1,0,1.8,0.8,1.8,1.8v4
			C617.1,269.9,616.3,270.7,615.3,270.7z"/>
		<path fill="#272D40" d="M603.8,442.1H503.1c-1,0-1.8,0.8-1.8,1.8v4c0,1,0.8,1.8,1.8,1.8h100.6c1,0,1.8-0.8,1.8-1.8v-4
			C605.6,442.9,604.8,442.1,603.8,442.1z"/>
		<path fill="#272D40" d="M442.7,263.1h-70.8c-1,0-1.8-0.8-1.8-1.8v-4c0-1,0.8-1.8,1.8-1.8h70.8c1,0,1.8,0.8,1.8,1.8v4
			C444.5,262.3,443.7,263.1,442.7,263.1z"/>
		<path fill="#272D40" d="M464,255.5h-92.1c-1,0-1.8-0.8-1.8-1.8v-4c0-1,0.8-1.8,1.8-1.8H464c1,0,1.8,0.8,1.8,1.8v4
			C465.8,254.7,465,255.5,464,255.5z"/>
		<path fill="#272D40" d="M442.7,247.9h-70.8c-1,0-1.8-0.8-1.8-1.8v-4c0-1,0.8-1.8,1.8-1.8h70.8c1,0,1.8,0.8,1.8,1.8v4
			C444.5,247,443.7,247.9,442.7,247.9z"/>
		<path fill="#272D40" d="M470.7,240.2h-98.8c-1,0-1.8-0.8-1.8-1.8v-4c0-1,0.8-1.8,1.8-1.8h98.8c1,0,1.8,0.8,1.8,1.8v4
			C472.5,239.4,471.7,240.2,470.7,240.2z"/>
		<path fill="#8A8A8B" d="M517.9,240.2h-25.5c-1,0-1.8-0.8-1.8-1.8v-4c0-1,0.8-1.8,1.8-1.8h25.5c1,0,1.8,0.8,1.8,1.8v4
			C519.8,239.4,518.9,240.2,517.9,240.2z"/>
		<path fill="#272D40" d="M596.2,240.2h-13.6c-1,0-1.8-0.8-1.8-1.8v-4c0-1,0.8-1.8,1.8-1.8h13.6c1,0,1.8,0.8,1.8,1.8v4
			C598,239.4,597.2,240.2,596.2,240.2z"/>
		<path fill="#272D40" d="M546,232.6h-40.7c-1,0-1.8-0.8-1.8-1.8v-4c0-1,0.8-1.8,1.8-1.8H546c1,0,1.8,0.8,1.8,1.8v4
			C547.8,231.8,547,232.6,546,232.6z"/>
		<path fill="#272D40" d="M442.7,232.6h-70.8c-1,0-1.8-0.8-1.8-1.8v-4c0-1,0.8-1.8,1.8-1.8h70.8c1,0,1.8,0.8,1.8,1.8v4
			C444.5,231.8,443.7,232.6,442.7,232.6z"/>
		<path fill="#404552" d="M448.8,225h-76.9c-1,0-1.8-0.8-1.8-1.8v-4c0-1,0.8-1.8,1.8-1.8h76.9c1,0,1.8,0.8,1.8,1.8v4
			C450.7,224.2,449.8,225,448.8,225z"/>
		<path fill="#272D40" d="M442.7,217.4h-70.8c-1,0-1.8-0.8-1.8-1.8v-4c0-1,0.8-1.8,1.8-1.8h70.8c1,0,1.8,0.8,1.8,1.8v4
			C444.5,216.5,443.7,217.4,442.7,217.4z"/>
		<path fill="#272D40" d="M437.8,209.7h-65.9c-1,0-1.8-0.8-1.8-1.8v-4c0-1,0.8-1.8,1.8-1.8h65.9c1,0,1.8,0.8,1.8,1.8v4
			C439.6,208.9,438.8,209.7,437.8,209.7z"/>
		<path fill="#404552" d="M526.5,209.7h-46c-1,0-1.8-0.8-1.8-1.8v-4c0-1,0.8-1.8,1.8-1.8h46c1,0,1.8,0.8,1.8,1.8v4
			C528.3,208.9,527.5,209.7,526.5,209.7z"/>
		<path fill="#272D40" d="M457.1,202.1h-85.2c-1,0-1.8-0.8-1.8-1.8v-4c0-1,0.8-1.8,1.8-1.8h85.2c1,0,1.8,0.8,1.8,1.8v4
			C458.9,201.3,458.1,202.1,457.1,202.1z"/>
		<path fill="#272D40" d="M442.7,194.5h-70.8c-1,0-1.8-0.8-1.8-1.8v-4c0-1,0.8-1.8,1.8-1.8h70.8c1,0,1.8,0.8,1.8,1.8v4
			C444.5,193.7,443.7,194.5,442.7,194.5z"/>
		<path fill="#272D40" d="M429.4,186.8h-57.5c-1,0-1.8-0.8-1.8-1.8v-4c0-1,0.8-1.8,1.8-1.8h57.5c1,0,1.8,0.8,1.8,1.8v4
			C431.2,186,430.4,186.8,429.4,186.8z"/>
		<path fill="#272D40" d="M400.3,179.2h-45.4c-1,0-1.8-0.8-1.8-1.8v-4c0-1,0.8-1.8,1.8-1.8h45.4c1,0,1.8,0.8,1.8,1.8v4
			C402.1,178.4,401.3,179.2,400.3,179.2z"/>
		<path fill="#272D40" d="M482.1,179.2h-66.8c-1,0-1.8-0.8-1.8-1.8v-4c0-1,0.8-1.8,1.8-1.8h66.8c1,0,1.8,0.8,1.8,1.8v4
			C483.9,178.4,483.1,179.2,482.1,179.2z"/>
		<path fill="#272D40" d="M461.6,171.6h-89.7c-1,0-1.8-0.8-1.8-1.8v-4c0-1,0.8-1.8,1.8-1.8h89.7c1,0,1.8,0.8,1.8,1.8v4
			C463.4,170.8,462.6,171.6,461.6,171.6z"/>
		<path fill="#272D40" d="M442.7,164h-70.8c-1,0-1.8-0.8-1.8-1.8v-4c0-1,0.8-1.8,1.8-1.8h70.8c1,0,1.8,0.8,1.8,1.8v4
			C444.5,163.1,443.7,164,442.7,164z"/>
		<path fill="#272D40" d="M417.3,156.3h-23.1c-1,0-1.8-0.8-1.8-1.8v-4c0-1,0.8-1.8,1.8-1.8h23.1c1,0,1.8,0.8,1.8,1.8v4
			C419.1,155.5,418.3,156.3,417.3,156.3z"/>
		<path fill="#404552" d="M458,156.3h-20.1c-1,0-1.8-0.8-1.8-1.8v-4c0-1,0.8-1.8,1.8-1.8H458c1,0,1.8,0.8,1.8,1.8v4
			C459.8,155.5,459,156.3,458,156.3z"/>
		<path fill="#272D40" d="M497.9,148.7H387.4c-1,0-1.8-0.8-1.8-1.8v-4c0-1,0.8-1.8,1.8-1.8h110.4c1,0,1.8,0.8,1.8,1.8v4
			C499.7,147.9,498.9,148.7,497.9,148.7z"/>
		<path fill="#272D40" d="M434.2,141.1h-70.3c-1,0-1.8-0.8-1.8-1.8v-4c0-1,0.8-1.8,1.8-1.8h70.3c1,0,1.8,0.8,1.8,1.8v4
			C436,140.3,435.2,141.1,434.2,141.1z"/>
		<path fill="#272D40" d="M452.3,141.1h-14.5c-1,0-1.8-0.8-1.8-1.8v-4c0-1,0.8-1.8,1.8-1.8h14.5c1,0,1.8,0.8,1.8,1.8v4
			C454.2,140.3,453.3,141.1,452.3,141.1z"/>
		<path fill="#272D40" d="M417.3,133.4H362c-1,0-1.8-0.8-1.8-1.8v-4c0-1,0.8-1.8,1.8-1.8h55.3c1,0,1.8,0.8,1.8,1.8v4
			C419.1,132.6,418.3,133.4,417.3,133.4z"/>
		<path fill="#404552" d="M442.7,125.8h-55.3c-1,0-1.8-0.8-1.8-1.8v-4c0-1,0.8-1.8,1.8-1.8h55.3c1,0,1.8,0.8,1.8,1.8v4
			C444.5,125,443.7,125.8,442.7,125.8z"/>
		<path fill="#272D40" d="M442.7,118.2h-55.3c-1,0-1.8-0.8-1.8-1.8v-4c0-1,0.8-1.8,1.8-1.8h55.3c1,0,1.8,0.8,1.8,1.8v4
			C444.5,117.4,443.7,118.2,442.7,118.2z"/>
		<path fill="#272D40" d="M415.5,95.3h-78.1c-1,0-1.8-0.8-1.8-1.8v-3.8c0-1,0.8-1.8,1.8-1.8h78.1c1,0,1.8,0.8,1.8,1.8v3.8
			C417.3,94.5,416.5,95.3,415.5,95.3z"/>
		<path fill="#404552" d="M472.4,95.3h-32.9c-1,0-1.8-0.8-1.8-1.8v-3.8c0-1,0.8-1.8,1.8-1.8h32.9c1,0,1.8,0.8,1.8,1.8v3.8
			C474.3,94.5,473.4,95.3,472.4,95.3z"/>
		<path fill="#272D40" d="M397.7,87.8h-78.1c-1,0-1.8-0.8-1.8-1.8v-3.8c0-1,0.8-1.8,1.8-1.8h78.1c1,0,1.8,0.8,1.8,1.8V86
			C399.5,87,398.7,87.8,397.7,87.8z"/>
		<path fill="#272D40" d="M443.5,80.4h-78.1c-1,0-1.8-0.8-1.8-1.8v-3.8c0-1,0.8-1.8,1.8-1.8h78.1c1,0,1.8,0.8,1.8,1.8v3.8
			C445.3,79.5,444.5,80.4,443.5,80.4z"/>
		<path fill="#8A8A8B" d="M471.7,125.8h-13.8c-1,0-1.8-0.8-1.8-1.8v-4c0-1,0.8-1.8,1.8-1.8h13.8c1,0,1.8,0.8,1.8,1.8v4
			C473.5,125,472.7,125.8,471.7,125.8z"/>
		<path fill="#272D40" d="M552.7,449.7h-76c-1,0-1.8,0.8-1.8,1.8v4c0,1,0.8,1.8,1.8,1.8h76c1,0,1.8-0.8,1.8-1.8v-4
			C554.5,450.6,553.7,449.7,552.7,449.7z"/>
		<path fill="#8A8A8B" d="M615.8,426.9h-36.7c-1,0-1.8,0.8-1.8,1.8v4c0,1,0.8,1.8,1.8,1.8h36.7c1,0,1.8-0.8,1.8-1.8v-4
			C617.7,427.7,616.8,426.9,615.8,426.9z"/>
		<path fill="#272D40" d="M600.4,419.2H413.6c-1,0-1.8,0.8-1.8,1.8v4c0,1,0.8,1.8,1.8,1.8h186.7c1,0,1.8-0.8,1.8-1.8v-4
			C602.2,420,601.4,419.2,600.4,419.2z"/>
		<path fill="#404552" d="M664.7,411.6H454.7c-1,0-1.8,0.8-1.8,1.8v4c0,1,0.8,1.8,1.8,1.8h209.9c1,0,1.8-0.8,1.8-1.8v-4
			C666.5,412.4,665.7,411.6,664.7,411.6z"/>
		<path fill="#272D40" d="M580.8,404H476.7c-1,0-1.8,0.8-1.8,1.8v4c0,1,0.8,1.8,1.8,1.8h104.1c1,0,1.8-0.8,1.8-1.8v-4
			C582.6,404.8,581.8,404,580.8,404z"/>
		<path fill="#404552" d="M547.7,457.4H444.5c-1,0-1.8,0.8-1.8,1.8v4c0,1,0.8,1.8,1.8,1.8h103.1c1,0,1.8-0.8,1.8-1.8v-4
			C549.5,458.2,548.7,457.4,547.7,457.4z"/>
		<path fill="#272D40" d="M446.9,465h-70.8c-1,0-1.8,0.8-1.8,1.8v4c0,1,0.8,1.8,1.8,1.8h70.8c1,0,1.8-0.8,1.8-1.8v-4
			C448.7,465.8,447.9,465,446.9,465z"/>
		<path fill="#272D40" d="M646.3,465h-52.6c-1,0-1.8,0.8-1.8,1.8v4c0,1,0.8,1.8,1.8,1.8h52.6c1,0,1.8-0.8,1.8-1.8v-4
			C648.1,465.8,647.3,465,646.3,465z"/>
		<path fill="#272D40" d="M446.9,472.6h-70.8c-1,0-1.8,0.8-1.8,1.8v4c0,1,0.8,1.8,1.8,1.8h70.8c1,0,1.8-0.8,1.8-1.8v-4
			C448.7,473.4,447.9,472.6,446.9,472.6z"/>
		<path fill="#272D40" d="M468.2,480.2h-92.1c-1,0-1.8,0.8-1.8,1.8v4c0,1,0.8,1.8,1.8,1.8h92.1c1,0,1.8-0.8,1.8-1.8v-4
			C470.1,481.1,469.2,480.2,468.2,480.2z"/>
		<path fill="#8A8A8B" d="M600.4,495.5h-13.6c-1,0-1.8,0.8-1.8,1.8v4c0,1,0.8,1.8,1.8,1.8h13.6c1,0,1.8-0.8,1.8-1.8v-4
			C602.2,496.3,601.4,495.5,600.4,495.5z"/>
	</g>
	<g>
		<g>
			<defs>
				<path id="SVGID_1_" d="M68.1,361C73.2,197.9,207,67.3,371.3,67.3c7.2,0,14.4,0.3,21.5,0.8c1,0.1,1.7,0.9,1.7,1.8v2.9v5.8
					c0,1-0.8,1.8-1.8,1.8h-24.3c-1,0-1.8,0.8-1.8,1.8v4c0,1-0.8,1.8-1.8,1.8h-26.8c-1,0-1.8,0.8-1.8,1.8v4c0,1,0.8,1.8,1.8,1.8h54.7
					c1,0,1.8,0.8,1.8,1.8v4c0,1,0.8,1.8,1.8,1.8h29.4c1,0,1.8,0.8,1.8,1.8v4c0,1-0.8,1.8-1.8,1.8h-11.6c-1,0-1.8,0.8-1.8,1.8v4
					c0,1-0.8,1.8-1.8,1.8h-21.7c-1,0-1.8,0.8-1.8,1.8v4c0,1,0.8,1.8,1.8,1.8h4c1,0,1.8,0.8,1.8,1.8v4c0,1-0.8,1.8-1.8,1.8h-24.3
					c-1,0-1.8,0.8-1.8,1.8v4c0,1,0.8,1.8,1.8,1.8h42c1,0,1.8,0.8,1.8,1.8v4c0,1-0.8,1.8-1.8,1.8h-14.1c-1,0-1.8,0.8-1.8,1.8v4
					c0,1,0.8,1.8,1.8,1.8h4c1,0,1.8,0.8,1.8,1.8v4c0,1-0.8,1.8-1.8,1.8h-26.8c-1,0-1.8,0.8-1.8,1.8v4c0,1,0.8,1.8,1.8,1.8h19.2
					c1,0,1.8,0.8,1.8,1.8v4c0,1,0.8,1.8,1.8,1.8h14.1c1,0,1.8,0.8,1.8,1.8v4c0,1,0.8,1.8,1.8,1.8h49.7c1,0,1.8-0.8,1.8-1.8v-4
					c0-1,0.8-1.8,1.8-1.8H479c1,0,1.8-0.8,1.8-1.8v-4c0-1-0.8-1.8-1.8-1.8h-6.5c-1,0-1.8-0.8-1.8-1.8v-4c0-1,0.8-1.8,1.8-1.8h19.2
					c1,0,1.8-0.8,1.8-1.8v-4c0-1,0.8-1.8,1.8-1.8H512c1,0,1.8,0.8,1.8,1.8v4c0,1,0.8,1.8,1.8,1.8h37c1,0,1.8,0.8,1.8,1.8v4
					c0,1,0.8,1.8,1.8,1.8h1.4c1,0,1.8,0.8,1.8,1.8v4c0,1,0.8,1.8,1.8,1.8h16.7c1,0,1.8,0.8,1.8,1.8v4c0,1-0.8,1.8-1.8,1.8h-9
					c-1,0-1.8,0.8-1.8,1.8v3.9c0,1-0.8,1.8-1.8,1.8h-14.1c-1,0-1.8,0.8-1.8,1.8v4c0,1-0.8,1.8-1.8,1.8h-52.2c-1,0-1.8-0.8-1.8-1.8
					v-4c0-1-0.8-1.8-1.8-1.8h-77.6c-1,0-1.8,0.8-1.8,1.8v4c0,1,0.8,1.8,1.8,1.8h11.6c1,0,1.8,0.8,1.8,1.8v4c0,1,0.8,1.8,1.8,1.8
					h80.1c1,0,1.8,0.8,1.8,1.8v4c0,1-0.8,1.8-1.8,1.8h-87.7c-1,0-1.8,0.8-1.8,1.8v4c0,1,0.8,1.8,1.8,1.8h19.2c1,0,1.8,0.8,1.8,1.8v4
					c0,1-0.8,1.8-1.8,1.8h-11.6c-1,0-1.8,0.8-1.8,1.8v4c0,1,0.8,1.8,1.8,1.8h19.2c1,0,1.8,0.8,1.8,1.8v4c0,1-0.8,1.8-1.8,1.8h-1.4
					c-1,0-1.8,0.8-1.8,1.8v4c0,1,0.8,1.8,1.8,1.8h39.5c1,0,1.8,0.8,1.8,1.8v4c0,1,0.8,1.8,1.8,1.8h11.6c1,0,1.8,0.8,1.8,1.8v4
					c0,1-0.8,1.8-1.8,1.8h-42c-1,0-1.8,0.8-1.8,1.8v4c0,1,0.8,1.8,1.8,1.8h70c1,0,1.8,0.8,1.8,1.8v4c0,1-0.8,1.8-1.8,1.8h-39.5
					c-1,0-1.8,0.8-1.8,1.8v4c0,1-0.8,1.8-1.8,1.8h-6.5c-1,0-1.8,0.8-1.8,1.8v4c0,1,0.8,1.8,1.8,1.8h21.7c1,0,1.8,0.8,1.8,1.8v4
					c0,1-0.8,1.8-1.8,1.8h-52.2c-1,0-1.8,0.8-1.8,1.8v4c0,1,0.8,1.8,1.8,1.8h6.5c1,0,1.8,0.8,1.8,1.8v4c0,1,0.8,1.8,1.8,1.8h34.4
					c1,0,1.8,0.8,1.8,1.8v4c0,1,0.8,1.8,1.8,1.8h172.8c0.9,0,1.7,0.7,1.8,1.6c1.1,9.1,1.9,18.4,2.2,27.7c0,1-0.8,1.9-1.8,1.9H69.9
					C68.9,362.9,68,362,68.1,361z M525.8,179.4h16.7c1,0,1.8-0.8,1.8-1.8v-4c0-1-0.8-1.8-1.8-1.8h-16.7c-1,0-1.8,0.8-1.8,1.8v4
					C523.9,178.5,524.7,179.4,525.8,179.4z M617.8,531.6v-4c0-1-0.8-1.8-1.8-1.8h-31.9c-1,0-1.8,0.8-1.8,1.8v4c0,1,0.8,1.8,1.8,1.8
					H616C617,533.4,617.8,532.6,617.8,531.6z M611.4,556.3C555.9,628,469,674.2,371.3,674.2C207,674.2,73.2,543.5,68.1,380.4
					c0-1,0.8-1.9,1.8-1.9h602.9c1,0,1.9,0.9,1.8,1.9c-0.3,10-1.1,19.8-2.4,29.5c-0.1,0.9-0.9,1.6-1.8,1.6H492.8
					c-1,0-1.8,0.8-1.8,1.8v4c0,1-0.8,1.8-1.8,1.8h-21.7c-1,0-1.8,0.8-1.8,1.8v4c0,1-0.8,1.8-1.8,1.8H442c-1,0-1.8,0.8-1.8,1.8v4
					c0,1,0.8,1.8,1.8,1.8h42c1,0,1.8,0.8,1.8,1.8v4c0,1,0.8,1.8,1.8,1.8h11.6c1,0,1.8,0.8,1.8,1.8v4c0,1-0.8,1.8-1.8,1.8h-6.5
					c-1,0-1.8,0.8-1.8,1.8v4c0,1,0.8,1.8,1.8,1.8h37c1,0,1.8,0.8,1.8,1.8v4c0,1-0.8,1.8-1.8,1.8h-11.6c-1,0-1.8,0.8-1.8,1.8v4
					c0,1,0.8,1.8,1.8,1.8h54.7c1,0,1.8,0.8,1.8,1.8v4c0,1-0.8,1.8-1.8,1.8h-80.1c-1,0-1.8,0.8-1.8,1.8v4c0,1,0.8,1.8,1.8,1.8h29.4
					c1,0,1.8,0.8,1.8,1.8v5.8v5.8c0,1,0.8,1.8,1.8,1.8h1.4c1,0,1.8,0.8,1.8,1.8v4c0,1-0.8,1.8-1.8,1.8H475c-1,0-1.8-0.8-1.8-1.8v-4
					c0-1,0.8-1.8,1.8-1.8h24.3c1,0,1.8-0.8,1.8-1.8v-4c0-1-0.8-1.8-1.8-1.8H442c-1,0-1.8,0.8-1.8,1.8v4c0,1-0.8,1.8-1.8,1.8h-14.1
					c-1,0-1.8,0.8-1.8,1.8v4c0,1,0.8,1.8,1.8,1.8h14.1c1,0,1.8,0.8,1.8,1.8v4c0,1,0.8,1.8,1.8,1.8h49.7c1,0,1.8,0.8,1.8,1.8v4
					c0,1-0.8,1.8-1.8,1.8h-11.6c-1,0-1.8,0.8-1.8,1.8v4c0,1-0.8,1.8-1.8,1.8h-24.3c-1,0-1.8,0.8-1.8,1.8v4c0,1,0.8,1.8,1.8,1.8H484
					c1,0,1.8,0.8,1.8,1.8v4c0,1,0.8,1.8,1.8,1.8h16.7c1,0,1.8-0.8,1.8-1.8v-4c0-1,0.8-1.8,1.8-1.8h29.4c1,0,1.8,0.8,1.8,1.8v4
					c0,1,0.8,1.8,1.8,1.8h19.2c1,0,1.8,0.8,1.8,1.8v4.2c0,1,0.8,1.8,1.8,1.8h4c1,0,1.8,0.8,1.8,1.8v3.8c0,1,0.8,1.8,1.8,1.8h4
					c1,0,1.8-0.8,1.8-1.8v-3.8c0-1,0.8-1.8,1.8-1.8h11.6c1,0,1.8-0.8,1.8-1.8v-4.2c0-1,0.8-1.8,1.8-1.8h4c1,0,1.8-0.8,1.8-1.8v-4
					c0-1,0.8-1.8,1.8-1.8H619c1.5,0,2.3,1.7,1.5,2.9c-0.9,1.3-1.9,2.7-2.8,4c-0.3,0.5-0.9,0.8-1.5,0.8h-6.7c-1,0-1.8,0.8-1.8,1.8v4
					c0,1,0.8,1.8,1.8,1.8H611.4z M463.7,548.6H442c-1,0-1.8,0.8-1.8,1.8v4c0,1,0.8,1.8,1.8,1.8h21.7c1,0,1.8-0.8,1.8-1.8v-4
					C465.6,549.5,464.7,548.6,463.7,548.6z"/>
			</defs>
			<clipPath id="SVGID_2_">
				<use xlink:href="#SVGID_1_"  overflow="visible"/>
			</clipPath>
			<g clip-path="url(#SVGID_2_)">
				<g>
					<g>
						<g>
							<defs>
								<path id="SVGID_3_" d="M674.4,356.4c0.2,3.5-2.7,6.5-6.3,6.5H74.5c-3.6,0-6.4-3-6.3-6.5C75.7,195.5,208.6,67.3,371.3,67.3
									C534.1,67.3,666.9,195.5,674.4,356.4z M74.5,378.6c-3.6,0-6.4,3-6.3,6.5C75.7,546,208.6,674.2,371.3,674.2
									c162.8,0,295.6-128.2,303.1-289.1c0.2-3.5-2.7-6.5-6.3-6.5H74.5z"/>
							</defs>
							<use xlink:href="#SVGID_3_"  overflow="visible" fill="#6D6E6E"/>
							<clipPath id="SVGID_4_">
								<use xlink:href="#SVGID_3_"  overflow="visible"/>
							</clipPath>

								<radialGradient id="SVGID_5_" cx="371.3409" cy="354.2685" r="267.2549" fx="371.327" fy="210.9879" gradientUnits="userSpaceOnUse">
								<stop  offset="0.4046" style="stop-color:#A3A2A4"/>
								<stop  offset="0.8624" style="stop-color:#797A7C"/>
							</radialGradient>
							<circle clip-path="url(#SVGID_4_)" fill="url(#SVGID_5_)" cx="371.3" cy="354.3" r="288"/>
							<circle display="none" clip-path="url(#SVGID_4_)" fill="#7E7F7F" cx="371.3" cy="319.8" r="232.2"/>
							<circle display="none" clip-path="url(#SVGID_4_)" fill="#8C8C8C" cx="371.3" cy="263.4" r="160.2"/>
							<path opacity="0.65" clip-path="url(#SVGID_4_)" fill="#858689" d="M669.7,206.1h-46.5c-1,0-1.9-0.5-2.4-1.4
								c-11.4-18.5-24.9-35.9-40.2-51.8c-42.2-43.8-94.8-72.8-152.1-84.4c-6.5-1.6-13-2.9-19.6-4c-6-1.4-12.1-2.4-18.3-3.1
								c-0.1,0-0.2,0-0.2,0c-6.1-1.5-12.3-2.2-18.5-2.3c-0.4,0-0.7,0-1.1,0c-0.3,0-0.7,0-1.1,0c-6.2,0.1-12.4,0.8-18.5,2.3
								c-0.1,0-0.2,0-0.2,0c-6.1,0.7-12.2,1.7-18.3,3.1c-6.6,1.1-13.1,2.4-19.6,4c-57.3,11.7-109.9,40.6-152.1,84.4
								c-15.3,15.9-28.8,33.3-40.2,51.8c-0.5,0.8-1.4,1.4-2.4,1.4H71.7c-1.6,0-2.9,1.3-2.9,2.9v2.8c0,1.6,1.3,2.9,2.9,2.9H115h2.8
								h4.5c2.2,0,3.6,2.3,2.5,4.3c-10.1,18.5-18.3,37.9-24.5,58.1c-0.4,1.2-1.5,2-2.7,2h-7.5h-2.6H71.7c-1.6,0-2.9,1.3-2.9,2.9v2.8
								c0,1.6,1.3,2.9,2.9,2.9h9.6c1.9,0,3.2,1.8,2.8,3.6c-6.5,25.6-9.9,52.2-9.9,79.4c0,21.3,2.1,42.2,6.1,62.6
								c0.4,1.8-1,3.4-2.8,3.4h-5.8c-1.6,0-2.9,1.3-2.9,2.9v2.8c0,1.6,1.3,2.9,2.9,2.9h11.2h0.7c1.8,8.2,3.9,16.4,6.2,24.4
								c0.5,1.8-0.8,3.7-2.7,3.7H71.7c-1.6,0-2.9,1.3-2.9,2.9v2.8c0,1.6,1.3,2.9,2.9,2.9h22.4h2.6h7.6c1.2,0,2.2,0.7,2.7,1.8
								c7.7,20.2,17.5,39.6,29.2,57.8c1.2,1.9-0.1,4.4-2.4,4.4h-4h-2.9H71.7c-1.6,0-2.9,1.3-2.9,2.9v2.8c0,1.6,1.3,2.9,2.9,2.9h59.7
								c0.9,0,1.8,0.4,2.3,1.2c6.4,8.8,13.4,17.4,20.8,25.6c1.7,1.9,0.4,4.8-2.1,4.8h-18.6c-1.6,0-2.9,1.3-2.9,2.9v38.2
								c0,1.6,1.3,2.9,2.9,2.9H210c0.6,0,1.1,0.2,1.6,0.5c31,20.6,65.3,34.9,101.5,42.2c6.5,1.6,13,2.9,19.6,4
								c6,1.4,12.1,2.4,18.3,3.1c0.1,0,0.2,0,0.2,0c6.1,1.5,12.3,2.2,18.5,2.3c0.4,0,0.7,0,1.1,0c0.3,0,0.7,0,1.1,0
								c6.2-0.1,12.4-0.8,18.5-2.3c0.1,0,0.2,0,0.2,0c6.1-0.7,12.2-1.7,18.3-3.1c6.6-1.1,13.1-2.4,19.6-4
								c36.2-7.4,70.5-21.7,101.5-42.2c0.5-0.3,1-0.5,1.6-0.5h70.2c1.6,0,2.9-1.3,2.9-2.9v-38.2c0-1.6-1.3-2.9-2.9-2.9h-12.5
								c-2.5,0-3.8-3-2.1-4.8c7.4-8.2,14.3-16.7,20.8-25.6c0.5-0.7,1.4-1.2,2.3-1.2h59.5c1.6,0,2.9-1.3,2.9-2.9V549
								c0-1.6-1.3-2.9-2.9-2.9h-55h-2.9h-5.8c11.8-19.5,21.5-40.3,29-62.2c0.4-1.2,1.5-1.9,2.7-1.9h7.2h2.6h22.2
								c1.6,0,2.9-1.3,2.9-2.9v-2.8c0-1.6-1.3-2.9-2.9-2.9h-19.1h-2.6h-21.8h-0.1c2.9-8.5,5.4-17.1,7.6-25.9
								c0.3-1.3,1.5-2.2,2.8-2.2h19.7h2.5h11c1.6,0,2.9-1.3,2.9-2.9v-2.8c0-1.6-1.3-2.9-2.9-2.9H664c-1.8,0-3.2-1.6-2.8-3.4
								c4-20.4,6.1-41.3,6.1-62.6c0-27.2-3.4-53.8-9.9-79.4c-0.5-1.8,0.9-3.6,2.8-3.6h9.5c1.6,0,2.9-1.3,2.9-2.9V282
								c0-1.6-1.3-2.9-2.9-2.9h-1.3c-1.3,0-2.4-0.8-2.7-2c-6.2-20.2-14.4-39.7-24.5-58.1c-1.1-1.9,0.3-4.3,2.5-4.3h26
								c1.6,0,2.9-1.3,2.9-2.9V209C672.5,207.4,671.2,206.1,669.7,206.1z M578.7,154.7c14,14.5,26.4,30.3,37.1,47
								c1.2,1.9-0.2,4.4-2.5,4.4h-11.8c-1,0-2-0.6-2.5-1.5c-10.5-18.7-22.8-36.3-36.9-52.4c-10-11.4-20.7-21.9-31.9-31.3
								c-2.8-2.4,0.4-6.7,3.4-4.6C549.8,127.4,564.8,140.2,578.7,154.7z M182.3,585.2c-7.2-8.3-13.9-17-20.2-26
								c-1.3-1.9,0.1-4.5,2.4-4.5h20.1c1,0,2,0.6,2.5,1.5c4.9,8.8,10.1,17.4,15.8,25.6c1.3,1.9,0,4.5-2.4,4.5h-16
								C183.7,585.9,183.1,585.6,182.3,585.2z M132.2,448.7c-0.3-1.8,1-3.4,2.8-3.4h13.4h7.5h35c1.4,0,2.7,1.1,2.8,2.5
								c1,7.5,2,14.9,3.3,22.2c0.3,1.8-1,3.3-2.8,3.3h-32h-7.7h-14.5c-1.3,0-2.5-0.9-2.8-2.2C135.4,463.8,133.7,456.4,132.2,448.7z
								 M246.6,214.7c-5.9,20.3-10.6,41.9-14.1,64.4h-2.3h-9.9h-44.8c-1.9,0-3.3-1.8-2.8-3.6c5-20.8,11.7-40.6,19.7-59.1
								c0.5-1.1,1.5-1.7,2.7-1.7h39.4h10.2H246.6z M555.4,471.2c-0.3,1.3-1.5,2.2-2.8,2.2h-33.1h-9.9h-11.1c-1.8,0-3.1-1.6-2.8-3.3
								c1.2-7.3,2.3-14.7,3.3-22.2c0.2-1.4,1.4-2.5,2.8-2.5h12.1h9.8h34c1.8,0,3.2,1.7,2.8,3.4C559,456.4,557.3,463.8,555.4,471.2z
								 M250.9,546.1h-10.3h-36.4c-1.1,0-2.1-0.6-2.6-1.6c-9.4-18.2-17.3-37.9-23.6-58.8c-0.6-1.9,0.8-3.7,2.8-3.7h42.9h10h2.3
								c4.3,22.5,10,44,16.8,64.1H250.9z M206.6,445.3h1.6c1.4,0,2.7,1.1,2.9,2.5l3.1,22.3c0.2,1.7-1.1,3.3-2.9,3.3H210
								c-1.4,0-2.6-1-2.9-2.4c-1.3-7.4-2.4-14.8-3.4-22.4C203.5,446.9,204.9,445.3,206.6,445.3z M149.2,370.7c0-27.9,2.8-55,8-80.7
								c0.3-1.4,1.5-2.3,2.8-2.3h55.7c1.7,0,3.1,1.5,2.8,3.2c-3.4,25.7-5.1,52.5-5.1,79.8c0,21.4,1.1,42.4,3.2,62.8
								c0.2,1.7-1.1,3.2-2.8,3.2H157c-1.4,0-2.6-1-2.9-2.4C150.9,413.8,149.2,392.5,149.2,370.7z M518.3,370.7
								c0,21.6-1.1,42.8-3.3,63.4c-0.2,1.5-1.4,2.6-2.9,2.6h-57.7c-1.6,0-3-1.4-2.9-3c1.1-20.5,1.6-41.6,1.6-63
								c0-27.4-0.9-54.2-2.6-80c-0.1-1.7,1.2-3.1,2.9-3.1h56.7c1.4,0,2.7,1.1,2.9,2.5C516.5,316.1,518.3,343.1,518.3,370.7z
								 M485.5,471c-0.2,1.4-1.4,2.4-2.9,2.4h-33.9H439h-4l1.5-25.4c0.1-1.5,1.3-2.7,2.9-2.7h1.8h9.8H486c1.7,0,3.1,1.5,2.9,3.3
								C487.9,456.1,486.8,463.6,485.5,471z M215.5,470.7l-3-22.1c-0.2-1.7,1.1-3.3,2.9-3.3h2.6h9.8h35.7c1.5,0,2.8,1.2,2.9,2.7
								c0.5,7.5,1,14.9,1.7,22.3c0.1,1.7-1.2,3.1-2.9,3.1H232h-9.9l-3.5,0C217,473.4,215.7,472.2,215.5,470.7z M276.2,448.4
								c-0.1-1.7,1.2-3.1,2.9-3.1h11.6h9.8h36.9c1.6,0,2.9,1.3,2.9,2.9v22.3c0,1.6-1.3,2.9-2.9,2.9h-34.7h-9.8h-12
								c-1.5,0-2.7-1.1-2.9-2.6C277.3,463.4,276.7,455.9,276.2,448.4z M352.4,448.2c0-1.6,1.3-2.9,2.9-2.9h9.3h12.2h36.7
								c1.7,0,3,1.4,2.9,3.1c-0.5,7.5-1.1,15-1.7,22.4c-0.1,1.5-1.4,2.6-2.9,2.6h-35h-12.2h-9.3c-1.6,0-2.9-1.3-2.9-2.9V448.2z
								 M429.1,445.3h2c1.7,0,3,1.4,2.9,3l-1.4,25l1.2,0.1h-6.3c-1.7,0-3-1.4-2.9-3.1c0.6-7.3,1.2-14.7,1.7-22.3
								C426.4,446.5,427.6,445.3,429.1,445.3z M443.4,370.7c0,21.5-0.6,42.7-1.6,63.3c-0.1,1.5-1.4,2.7-2.9,2.7h-59.1
								c-1.6,0-2.9-1.3-2.9-2.9V290.6c0-1.6,1.3-2.9,2.9-2.9h58.1c1.5,0,2.8,1.2,2.9,2.7C442.5,316.2,443.4,343.2,443.4,370.7z
								 M361.8,436.7h-59.1c-1.5,0-2.8-1.2-2.9-2.7c-1.1-20.6-1.6-41.7-1.6-63.3c0-27.5,0.9-54.5,2.7-80.3c0.1-1.5,1.4-2.7,2.9-2.7
								h58.1c1.6,0,2.9,1.3,2.9,2.9v143.2C364.7,435.4,363.4,436.7,361.8,436.7z M287.1,436.7h-57.7c-1.5,0-2.7-1.1-2.9-2.6
								c-2.2-20.6-3.3-41.8-3.3-63.4c0-27.6,1.8-54.6,5.3-80.5c0.2-1.4,1.4-2.5,2.9-2.5h56.7c1.7,0,3,1.4,2.9,3.1
								c-1.7,25.8-2.6,52.6-2.6,80c0,21.4,0.6,42.5,1.6,63C290.1,435.3,288.8,436.7,287.1,436.7z M246.5,485.4
								c-0.4-1.8,1-3.5,2.8-3.5h44.2h9.8h2.4c2.2,22.6,5.1,44.1,8.6,64.1h-2.3h-9.9h-37.1c-1.2,0-2.3-0.8-2.7-1.9
								C256,525.7,250.7,506.1,246.5,485.4z M315.9,485.2c-0.2-1.7,1.2-3.2,2.9-3.2h45.8h9.3c1.6,0,2.9,1.3,2.9,2.9v58.3
								c0,1.6-1.3,2.9-2.9,2.9h-9.3h-37.9c-1.4,0-2.6-1-2.8-2.4C320.7,525.3,318,505.7,315.9,485.2z M389.1,484.9
								c0-1.6,1.3-2.9,2.9-2.9h46.2h9.8h2.4c-2.2,22.6-5.1,44.1-8.7,64.1h-2.3h-9.9H392c-1.6,0-2.9-1.3-2.9-2.9V484.9z M459.9,484.6
								c0.1-1.5,1.4-2.6,2.9-2.6h45.1h10h2.3c-4.4,22.6-10.2,44.1-17.2,64.1H501h-10.3H455c-1.8,0-3.1-1.6-2.8-3.3
								C455.3,524.4,457.9,504.9,459.9,484.6z M529.6,484.3c0.3-1.3,1.4-2.3,2.8-2.3h44.4h7.7h4.5c-6.4,22.2-14.8,43.2-24.7,62.5
								c-0.5,1-1.5,1.6-2.6,1.6h-2.1h-8.4h-34.1c-2,0-3.3-1.9-2.7-3.8C520.6,524,525.7,504.6,529.6,484.3z M524.9,433.6
								c2-19.2,3-38.8,3.1-58.8c0-1.6,1.3-2.9,2.9-2.9h58.5c1.6,0,2.9,1.3,2.9,2.9c-0.2,20.3-1.9,40.2-4.9,59.4
								c-0.2,1.4-1.4,2.4-2.9,2.4h-56.8C526,436.7,524.7,435.3,524.9,433.6z M582,279.1h-46.1c-1.4,0-2.6-1-2.8-2.4
								c-3.2-20.3-7.4-39.8-12.7-58.3c-0.5-1.8,0.8-3.6,2.8-3.6h37.5h8.1h2.2c1.2,0,2.2,0.7,2.7,1.7c8.5,19.6,15.4,40.6,20.6,62.7
								h-4.6H582z M523.6,279.1h-2.3h-9.9h-46.8c-1.5,0-2.7-1.2-2.9-2.7c-1.6-20.3-3.8-39.9-6.5-58.5c-0.3-1.7,1.1-3.3,2.8-3.3H497
								h10.2h2C515.2,235,520.1,256.6,523.6,279.1z M452.1,279.1h-2.4h-9.8H392c-1.6,0-2.9-1.3-2.9-2.9v-58.6c0-1.6,1.3-2.9,2.9-2.9
								h40.6h9.9h2.3C447.9,235,450.3,256.6,452.1,279.1z M376.9,276.2c0,1.6-1.3,2.9-2.9,2.9h-9.3H317c-1.7,0-3-1.5-2.9-3.1
								c1.7-20.5,3.9-40.2,6.7-58.8c0.2-1.4,1.4-2.5,2.9-2.5h41h9.3c1.6,0,2.9,1.3,2.9,2.9V276.2z M304.1,279.1h-2.4h-9.8h-46
								c-1.8,0-3.1-1.6-2.9-3.4c3.3-20.5,7.8-40.3,13.2-59c0.4-1.2,1.5-2.1,2.8-2.1h40.1h9.9h2.3C308.3,235,305.8,256.6,304.1,279.1
								z M164.7,276.9c-0.3,1.3-1.5,2.2-2.8,2.2h-2.3H152h-7.4c-1.9,0-3.2-1.7-2.8-3.6c4.9-20.7,18.2-49.8,22.7-59.2
								c0.5-1,1.5-1.6,2.6-1.6h5.8h8.1h4.1C176.5,234.4,169.7,255.2,164.7,276.9z M134.9,279.1h-1.5c-1.9,0-3.3-1.8-2.8-3.7
								c5.9-20.6,13.7-40.4,23.4-59.1c0.5-1,1.5-1.6,2.6-1.6h0c2.1,0,3.5,2.2,2.6,4.1c-5.8,12.6-17.4,39-21.5,58
								C137.4,278.2,136.2,279.1,134.9,279.1z M146.6,287.7c1.8,0,3.2,1.6,2.8,3.4c-5,25.7-7.5,52.4-7.5,79.6
								c0,21.3,1.6,42.3,4.7,62.7c0.3,1.7-1.1,3.3-2.8,3.3h-30c-1.4,0-2.6-1-2.9-2.4c-3.8-20.7-5.8-42-5.8-63.6
								c0-27.7,3.2-54.8,9.4-80.8c0.3-1.3,1.5-2.2,2.8-2.2H146.6z M156.9,482h7.7h2.3c1.3,0,2.4,0.8,2.7,2.1
								c6.3,21.8,14.4,42.6,24.3,62h-3.9h-8.4h-14.4c-1,0-2-0.5-2.5-1.4c-11.3-18.5-20.7-38.2-28-58.9c-0.7-1.9,0.7-3.9,2.7-3.9
								H156.9z M214.3,585c-6-8.2-11.7-16.9-17-26c-1.1-1.9,0.3-4.3,2.5-4.3h41.8c1.2,0,2.3,0.8,2.7,1.9c3.3,8.9,6.9,17.4,10.7,25.6
								c0.9,1.9-0.5,4.1-2.6,4.1h-35.8C215.7,586.2,214.8,585.8,214.3,585z M267,584.6c-4.1-8.3-7.9-17-11.4-26
								c-0.7-1.9,0.7-3.9,2.7-3.9h43.2c1.4,0,2.6,1,2.8,2.3c1.7,8.9,3.6,17.5,5.5,25.7c0.4,1.8-0.9,3.5-2.8,3.5h-37.4
								C268.6,585.6,267.9,585.2,267,584.6z M324.8,632c2.8,7,5.6,13.2,8.5,18.4c1.5,2.8-2.1,5.7-4.4,3.5
								c-5.5-5-11.3-11.5-15.9-19.4c-1.1-1.9,0.3-4.4,2.5-4.4h6.7C323.3,630.2,324.4,631,324.8,632z M320.1,584
								c-2-8.3-4-16.9-5.7-25.9c-0.4-1.8,1-3.5,2.8-3.5h44.6c1.6,0,2.9,1.3,2.9,2.9v25.8c0,1.6-1.3,2.9-2.9,2.9h-38.9
								C321.6,586.2,320.4,585.3,320.1,584z M379.8,554.7h44.6c1.8,0,3.2,1.7,2.8,3.5c-1.8,9-3.7,17.6-5.7,25.9
								c-0.3,1.3-1.5,2.2-2.8,2.2h-38.9c-1.6,0-2.9-1.3-2.9-2.9v-25.8C376.9,556,378.2,554.7,379.8,554.7z M440.2,554.7h43.2
								c2,0,3.4,2.1,2.7,3.9c-3.5,9-7.4,17.7-11.4,26c-0.9,0.6-1.7,1-2.6,1.6h-37.4c-1.9,0-3.2-1.7-2.8-3.5c2-8.2,3.8-16.8,5.5-25.7
								C437.6,555.7,438.8,554.7,440.2,554.7z M500,554.7h41.8c2.2,0,3.6,2.4,2.5,4.3c-5.3,9.1-11,17.8-17,26
								c-0.5,0.7-1.4,1.2-2.3,1.2h-35.8c-2.1,0-3.5-2.2-2.6-4.1c3.8-8.2,7.4-16.7,10.7-25.6C497.7,555.4,498.8,554.7,500,554.7z
								 M557,586.2h-16c-2.3,0-3.7-2.6-2.4-4.5c5.6-8.2,10.9-16.7,15.8-25.6c0.5-0.9,1.5-1.5,2.5-1.5H577c2.3,0,3.7,2.6,2.4,4.5
								c-6.2,9-13,17.7-20.2,26C558.5,585.6,557.8,585.9,557,586.2z M574,541.9c8.9-18.2,16.4-37.6,22.2-57.9
								c0.4-1.2,1.5-2.1,2.7-2.1h4.1c1.9,0,3.3,1.8,2.8,3.6c-3.4,12.4-12.2,40.8-24.9,59.2c-0.5,0.8-1.4,1.2-2.4,1.2h-2
								C574.4,546.1,573.1,543.8,574,541.9z M586.9,473.4h-7.7h-13.1c-1.9,0-3.2-1.7-2.8-3.6c1.8-7.3,3.4-14.7,4.8-22.2
								c0.3-1.4,1.4-2.3,2.8-2.3h14.5h7.5h7.4c1.9,0,3.2,1.7,2.8,3.5c-1.7,7.6-3.8,15.1-6,22.5c-0.4,1.2-1.5,2-2.8,2H586.9z
								 M597.8,436.7c-1.8,0-3.1-1.6-2.8-3.3c3.1-20.4,4.7-41.4,4.7-62.7c0-27.2-2.6-53.9-7.5-79.6c-0.3-1.8,1-3.4,2.8-3.4h29.3
								c1.3,0,2.5,0.9,2.8,2.2c6.2,26,9.4,53.1,9.4,80.8c0,21.6-2,42.9-5.8,63.6c-0.3,1.4-1.5,2.4-2.9,2.4H597.8z M624.3,279.1
								h-20.2c-1.3,0-2.5-0.9-2.8-2.2c-4.7-20.2-10.9-39.7-18.6-58.2c-0.8-1.9,0.6-4,2.6-4H599h5.5h5c1.1,0,2.1,0.6,2.6,1.6
								c9.7,18.7,17.5,38.5,23.4,59.1c0.5,1.8-0.9,3.7-2.8,3.7h-3.3H624.3z M558.5,155.4c12.5,14.3,23.6,29.9,33.3,46.3
								c1.1,1.9-0.3,4.3-2.5,4.3h-22.5c-1.1,0-2.1-0.6-2.6-1.7c-8.9-18.9-19.3-36.6-31.2-52.8c-13.5-18.4-28.4-34.2-44.4-47.2
								c-2.7-2.2,0.2-6.5,3.3-4.7C516.2,114,538.7,132.7,558.5,155.4z M552.1,206.1h-45.4c-1.2,0-2.3-0.8-2.7-2
								c-6-18.7-13-36.3-21-52.5c-13.4-27.1-29-48.6-45.9-64c-2.4-2.2,0.2-6.1,3.2-4.7c47.1,21.3,87.3,63.7,114.5,119.1
								C555.6,203.9,554.2,206.1,552.1,206.1z M474.2,156c7.1,14.3,13.4,29.8,18.9,46.3c0.6,1.9-0.8,3.8-2.7,3.8h-46.7
								c-1.4,0-2.6-1-2.8-2.4c-3-18.2-6.5-35.3-10.4-51.1c-8.6-34.1-18-56.3-27.2-70.4c-1.6-2.5,1.1-5.5,3.7-4.2
								C431.9,91,455.1,117.6,474.2,156z M376.9,75c0-2.3,2.6-3.7,4.5-2.4c14.3,9.9,28.5,39.2,39.5,82.4c3.7,14.7,7,30.7,9.9,47.7
								c0.3,1.8-1.1,3.4-2.8,3.4h-48.1c-1.6,0-2.9-1.3-2.9-2.9V75z M361.8,206.1h-32c-1.7,0-3-1.5-2.9-3.2
								c6.6-70.9,30.4-120.7,36.3-132.1c0.5-0.3,1-0.5,1.5-0.7v133.1C364.7,204.8,363.4,206.1,361.8,206.1z M341.9,96
								c1.7-3.2,6.5-1,5.2,2.4c-9.3,24.5-20.4,61.8-24.2,107.6l1.8,0.2h-11c-1.8,0-3.1-1.6-2.8-3.4c2.8-17,6.1-33,9.9-47.7
								C326.9,130.5,334.1,110.5,341.9,96z M334.8,78c2.6-1.4,5.3,1.7,3.7,4.2c-9.2,14.2-18.6,36.4-27.2,70.4
								c-4,15.7-7.5,32.8-10.4,51.1c-0.2,1.4-1.4,2.4-2.8,2.4h-46.7c-2,0-3.4-1.9-2.7-3.8c5.5-16.5,11.8-32,18.9-46.3
								C286.4,117.6,309.6,91,334.8,78z M301.4,82.9c3-1.4,5.6,2.5,3.2,4.7c-16.9,15.5-32.5,37-45.9,64c-8,16.1-15,33.7-21,52.5
								c-0.4,1.2-1.5,2-2.7,2h-45.4c-2.1,0-3.5-2.3-2.6-4.2C214.1,146.6,254.2,104.2,301.4,82.9z M208.6,151.6
								c-11.9,16.2-22.3,33.9-31.2,52.8c-0.5,1-1.5,1.7-2.6,1.7h-22.5c-2.2,0-3.6-2.4-2.5-4.3c9.6-16.5,20.8-32,33.3-46.3
								c19.9-22.7,42.3-41.4,66.6-55.7c3-1.8,6,2.5,3.3,4.7C236.9,117.5,222.1,133.3,208.6,151.6z M128.1,206.1
								c-2.3,0-3.7-2.5-2.5-4.4c10.7-16.7,23.1-32.5,37.1-47c13.9-14.4,28.9-27.2,44.9-38.3c3-2.1,6.3,2.3,3.4,4.6
								c-11.2,9.4-21.9,19.8-31.9,31.3c-14.1,16.1-26.4,33.7-36.9,52.4c-0.5,0.9-1.5,1.5-2.5,1.5H128.1z M129.1,216.2
								c0.5-0.9,1.5-1.5,2.5-1.5h5.4h5.5h2.1c2.1,0,3.5,2.2,2.6,4.1c-9.1,18.5-16.6,37.9-22.2,58.2c-0.3,1.2-1.5,2.1-2.8,2.1h-5
								h-5.1h-6c-1.9,0-3.4-1.9-2.8-3.8C109.9,254.7,118.5,234.9,129.1,216.2z M85.9,436.7c-1.4,0-2.6-1-2.8-2.3
								c-4.2-20.7-6.4-42-6.4-63.7c0-27.7,3.5-54.8,10.4-80.9c0.3-1.3,1.5-2.2,2.8-2.2h16.6c1.9,0,3.2,1.7,2.8,3.5
								c-5.9,25.6-9,52.3-9,79.5c0,21.3,1.9,42.2,5.5,62.6c0.3,1.8-1,3.4-2.8,3.4H85.9z M95.4,471.3c-2.3-7.4-4.3-14.9-6-22.5
								c-0.4-1.8,1-3.5,2.8-3.5h15.8h5h8.6c1.4,0,2.6,1,2.8,2.3c1.4,7.5,3,14.9,4.8,22.2c0.4,1.8-0.9,3.6-2.8,3.6h-6h-5.1H98.2
								C96.9,473.4,95.8,472.5,95.4,471.3z M110.4,485.9c-0.7-1.9,0.7-3.9,2.7-3.9h5h5.2h5c1.2,0,2.3,0.8,2.7,1.9
								c7,20.2,15.8,39.6,26.5,57.8c1.1,1.9-0.2,4.3-2.5,4.3h-1.5h-5.7h-4.2c-1,0-1.9-0.5-2.4-1.3
								C128.8,526.3,118.5,506.6,110.4,485.9z M141.7,554.7h10c1,0,1.9,0.5,2.4,1.3c5.8,8.8,12.1,17.4,18.8,25.6
								c1.5,1.9,0.2,4.7-2.2,4.7h-7.1c-0.8,0-1.6-0.3-2.1-0.9c-7.9-8.3-15.2-17-22.1-26C137.9,557.4,139.3,554.7,141.7,554.7z
								 M215.4,630.2h7.2c0.6,0,1.2,0.2,1.7,0.6c14.8,11,30.5,20.2,46.8,27.6C251.6,651.1,233,641.6,215.4,630.2z M241.3,630.2h2.6
								c0.7,0,1.4,0.3,1.9,0.7c2.3,2.1,4.7,4.1,7.1,6.1c2.7,2.2-0.2,6.5-3.3,4.7c-3.4-2-6.7-4-10-6.2
								C237.3,634,238.4,630.2,241.3,630.2z M264.7,630.2h17.1c0.9,0,1.7,0.4,2.3,1.1c6.5,8.5,13.3,16,20.4,22.5
								c2.4,2.2-0.1,6.1-3.1,4.7c-13.4-6.1-26.2-13.8-38.4-23.1C260.8,633.7,262,630.2,264.7,630.2z M301.9,630.2h2.9
								c1.1,0,2.1,0.7,2.6,1.6c1.2,2.6,2.6,5,4,7.3c1.8,2.9-2.1,5.9-4.5,3.6c-2.4-2.4-4.8-5-7.2-7.7
								C298.1,633.2,299.4,630.2,301.9,630.2z M344.8,667.9L344.8,667.9C344.8,667.9,344.8,667.9,344.8,667.9
								C344.8,667.9,344.8,667.9,344.8,667.9z M339.1,630.2h22.7c1.6,0,2.9,1.3,2.9,2.9v33.3c0,2.3-2.6,3.7-4.6,2.4
								c-8.1-5.6-16.2-17.5-23.7-34.6C335.6,632.3,337,630.2,339.1,630.2z M376.9,666.4v-33.3c0-1.6,1.3-2.9,2.9-2.9h22.7
								c2.1,0,3.5,2.1,2.7,4c-7.5,17.1-15.5,28.9-23.7,34.6C379.5,670.1,376.9,668.8,376.9,666.4z M403.1,659.3
								c4.5-7,9.1-15.9,13.6-27.2c0.4-1.1,1.5-1.8,2.7-1.8h20.3c2.5,0,3.8,3,2.2,4.8c-11,12.5-22.8,22.1-35,28.4
								C404.2,664.8,401.5,661.7,403.1,659.3z M437,653.8c7.1-6.4,13.9-13.9,20.4-22.5c0.5-0.7,1.4-1.1,2.3-1.1h17.1
								c2.8,0,3.9,3.5,1.7,5.2c-12.1,9.3-25,17.1-38.4,23.1C437.2,659.9,434.6,656,437,653.8z M497.6,630.2h2.6c2.9,0,4,3.8,1.6,5.3
								c-3.3,2.1-6.6,4.2-10,6.2c-3,1.8-6-2.5-3.3-4.7c2.4-2,4.8-4,7.1-6.1C496.3,630.5,497,630.2,497.6,630.2z M470.4,658.3
								c16.3-7.4,32-16.6,46.8-27.6c0.5-0.4,1.1-0.6,1.7-0.6h7.2C508.6,641.6,489.9,651.1,470.4,658.3z M578,586.2h-7.1
								c-2.4,0-3.7-2.8-2.2-4.7c6.7-8.2,12.9-16.7,18.8-25.6c0.5-0.8,1.4-1.3,2.4-1.3h10c2.4,0,3.8,2.7,2.3,4.6
								c-6.8,9-14.2,17.7-22.1,26C579.6,585.9,578.8,586.2,578,586.2z M629.1,485.8c-7.4,20.7-16.7,40.4-28,58.9
								c-0.5,0.9-1.5,1.4-2.5,1.4h-4.9H588h-4.9c13.7-19.9,22.8-51,25.8-62c0.3-1.3,1.5-2.1,2.8-2.1h6.6h5.2h3
								C628.3,482,629.8,484,629.1,485.8z M623.5,473.4H621h-15.5c-1.9,0-3.3-1.8-2.7-3.7c2.1-7.3,4.1-14.7,5.7-22.1
								c0.3-1.3,1.4-2.2,2.8-2.2h17.1h3.2C629.4,454.8,626.7,464.2,623.5,473.4z M664.9,370.7c0,21.7-2.2,43-6.4,63.7
								c-0.3,1.3-1.5,2.3-2.8,2.3h-17c-1.8,0-3.1-1.6-2.8-3.4c3.7-20.4,5.5-41.3,5.5-62.6c0-27.2-3.1-53.9-9-79.5
								c-0.4-1.8,0.9-3.5,2.8-3.5h16.6c1.3,0,2.5,0.9,2.8,2.2C661.4,315.9,664.9,343,664.9,370.7z M662.5,275.4
								c0.6,1.9-0.8,3.8-2.8,3.8H654h-2.6h-7.8c-1.3,0-2.4-0.9-2.8-2.1c-5.6-20.2-13-39.7-22.2-58.2c-0.9-1.9,0.4-4.1,2.6-4.1h2.4
								h2.8h7.7c1,0,2,0.6,2.5,1.5C647.5,234.9,656.1,254.7,662.5,275.4z"/>
							<rect x="47.9" y="347.2" clip-path="url(#SVGID_4_)" fill="#7B7D7E" width="646.9" height="47"/>
							<rect x="86.2" y="347.2" clip-path="url(#SVGID_4_)" fill="#858689" width="570.2" height="47"/>
							<rect x="261.7" y="347.2" clip-path="url(#SVGID_4_)" fill="#929395" width="219.3" height="47"/>
							<rect x="308.2" y="347.2" clip-path="url(#SVGID_4_)" fill="#9E9FA3" width="126.2" height="47"/>
							<rect x="351.5" y="347.2" clip-path="url(#SVGID_4_)" fill="#B2B4B7" width="39.8" height="47"/>
							<g clip-path="url(#SVGID_4_)">
								<circle fill="#9B9DA0" cx="221.8" cy="452.2" r="2"/>
								<circle fill="#9B9DA0" cx="229.2" cy="452.2" r="2"/>
								<circle fill="#9B9DA0" cx="236.6" cy="452.2" r="2"/>
							</g>
							<g clip-path="url(#SVGID_4_)">
								<circle fill="#9B9DA0" cx="425.5" cy="489.8" r="2"/>
								<circle fill="#9B9DA0" cx="432.9" cy="489.8" r="2"/>
								<circle fill="#9B9DA0" cx="440.3" cy="489.8" r="2"/>
							</g>
							<g clip-path="url(#SVGID_4_)">
								<circle fill="#9B9DA0" cx="551.6" cy="225.3" r="2"/>
								<circle fill="#9B9DA0" cx="559" cy="225.3" r="2"/>
								<circle fill="#9B9DA0" cx="566.4" cy="225.3" r="2"/>
							</g>
						</g>
						<g>
							<path fill="#7D7E81" d="M468.3,223.1c0,41.7-26.3,77.2-63.2,90.9c-10.5,3.9-21.9,6.1-33.8,6.1c-11.9,0-23.3-2.1-33.8-6.1
								c-36.9-13.7-63.2-49.2-63.2-90.9s26.3-77.2,63.2-90.9c10.5-3.9,21.9-6.1,33.8-6.1c11.9,0,23.3,2.1,33.8,6.1
								C442.1,145.9,468.3,181.5,468.3,223.1z"/>
							<path fill="#929395" d="M466.6,223.1c0,40.9-25.8,75.8-62,89.3c-10.3,3.9-21.5,6-33.2,6c-11.7,0-22.9-2.1-33.2-6
								c-36.2-13.5-62-48.4-62-89.3s25.8-75.8,62-89.3c10.3-3.9,21.5-6,33.2-6c11.7,0,22.9,2.1,33.2,6
								C440.8,147.3,466.6,182.2,466.6,223.1z"/>
							<path fill="#9E9FA3" d="M404.5,133.9v178.6c-4.3,1.6-8.7,2.9-13.3,3.9c-6.4,1.4-13.1,2.1-19.9,2.1c-6.8,0-13.5-0.7-19.9-2.1
								c-4.6-0.9-9-2.3-13.3-3.9V133.9c4.3-1.6,8.7-2.9,13.3-3.9c6.4-1.4,13.1-2.1,19.9-2.1c6.8,0,13.5,0.7,19.9,2.1
								C395.8,130.9,400.3,132.3,404.5,133.9z"/>
							<path fill="#B2B4B7" d="M391.2,130v186.3c-6.4,1.4-13.1,2.1-19.9,2.1c-6.8,0-13.5-0.7-19.9-2.1V130
								c6.4-1.4,13.1-2.1,19.9-2.1C378.2,127.9,384.8,128.6,391.2,130z"/>
							<circle fill="#808184" cx="371.3" cy="223.1" r="81.7"/>
							<circle fill="#77787A" cx="371.3" cy="223.1" r="59.5"/>
							<circle fill="#6A6B6D" cx="371.3" cy="223.1" r="33.2"/>
							<circle fill="#606163" cx="371.3" cy="223.1" r="23.7"/>
							<circle fill="#3A3B3C" cx="371.3" cy="223.1" r="12.8"/>
						</g>
					</g>
				</g>
			</g>

				<radialGradient id="SVGID_6_" cx="-23.8311" cy="339.0126" r="286.1579" gradientTransform="matrix(1.0753 0 0 1.1075 395.7997 -11.6402)" gradientUnits="userSpaceOnUse">
				<stop  offset="0.4854" style="stop-color:#FFFFFF;stop-opacity:0"/>
				<stop  offset="0.5849" style="stop-color:#F6F6F6;stop-opacity:0.1933"/>
				<stop  offset="0.6562" style="stop-color:#E5E4E3;stop-opacity:0.3318"/>
				<stop  offset="0.7186" style="stop-color:#CECCCC;stop-opacity:0.4532"/>
				<stop  offset="0.7761" style="stop-color:#B0ADAD;stop-opacity:0.5649"/>
				<stop  offset="0.8301" style="stop-color:#8D8A8A;stop-opacity:0.6698"/>
				<stop  offset="0.8815" style="stop-color:#686565;stop-opacity:0.7698"/>
				<stop  offset="0.9309" style="stop-color:#444141;stop-opacity:0.8657"/>
				<stop  offset="0.9775" style="stop-color:#1D1D1D;stop-opacity:0.9562"/>
				<stop  offset="1" style="stop-color:#010101"/>
			</radialGradient>
			<rect x="62.5" y="46.9" opacity="0.4" clip-path="url(#SVGID_2_)" fill="url(#SVGID_6_)" width="615.4" height="633.8"/>
		</g>
		<g>
			<rect x="75.3" y="362.9" fill="#515353" width="592" height="15.7"/>
		</g>
		<g>
			<rect x="75.3" y="362.9" fill="#454647" width="592" height="7.8"/>
		</g>
	</g>
	<path fill="#B3B4B6" d="M620.4,449.7h-45.9c-1,0-1.8-0.8-1.8-1.8v-4c0-1,0.8-1.8,1.8-1.8h45.9c1,0,1.8,0.8,1.8,1.8v4
		C622.3,448.9,621.5,449.7,620.4,449.7z"/>
	<g>
		<defs>
			<path id="SVGID_7_" d="M256.9,558.1v4c0,1-0.8,1.8-1.8,1.8h-13.2c-1,0-1.8-0.8-1.8-1.8v-4c0-1,0.8-1.8,1.8-1.8h13.2
				C256.1,556.3,256.9,557.1,256.9,558.1z M182.3,556.3h-21.1c-1,0-1.8,0.8-1.8,1.8v4c0,1,0.8,1.8,1.8,1.8h21.1c1,0,1.8-0.8,1.8-1.8
				v-4C184.1,557.1,183.3,556.3,182.3,556.3z M118.3,524v-4c0-1-0.8-1.8-1.8-1.8H92.3c-1,0-1.8,0.8-1.8,1.8v4c0,1,0.8,1.8,1.8,1.8
				h24.2C117.5,525.8,118.3,525,118.3,524z M311.1,487.7h21.7c1,0,1.8-0.8,1.8-1.8v-4c0-1-0.8-1.8-1.8-1.8h-21.7
				c-1,0-1.8,0.8-1.8,1.8v4C309.3,486.9,310.1,487.7,311.1,487.7z M612.9,558.1v4c0,1-0.8,1.8-1.8,1.8h-2.2c1,0,1.8,0.8,1.8,1.8v4
				c0,1-0.8,1.8-1.8,1.8h-2.2c1,0,1.8,0.8,1.8,1.8v4c0,1-0.8,1.8-1.8,1.8h-2.2c1,0,1.8,0.8,1.8,1.8v4c0,1-0.8,1.8-1.8,1.8h-2.2
				c1,0,1.8,0.8,1.8,1.8v4c0,1-0.8,1.8-1.8,1.8h-11.4c1,0,1.8,0.8,1.8,1.8v4c0,1-0.8,1.8-1.8,1.8h-54.3c-1,0-1.8-0.8-1.8-1.8v-4
				c0-1,0.8-1.8,1.8-1.8H548c-1,0-1.8-0.8-1.8-1.8v-4c0-1,0.8-1.8,1.8-1.8h-32.1c-1,0-1.8-0.8-1.8-1.8v-4c0-1,0.8-1.8,1.8-1.8h-34.4
				c-1,0-1.8-0.8-1.8-1.8v-4c0-1,0.8-1.8,1.8-1.8H503c-1,0-1.8-0.8-1.8-1.8v-4c0-1,0.8-1.8,1.8-1.8h-17.7c-1,0-1.8-0.8-1.8-1.8v-4
				c0-1,0.8-1.8,1.8-1.8H611C612.1,556.3,612.9,557.1,612.9,558.1z M559.5,577.4v-4c0-1,0.8-1.8,1.8-1.8h-38.2c1,0,1.8,0.8,1.8,1.8
				v4c0,1-0.8,1.8-1.8,1.8h38.2C560.3,579.2,559.5,578.4,559.5,577.4z M329.7,586.8H311c-1,0-1.8,0.8-1.8,1.8v4c0,1,0.8,1.8,1.8,1.8
				h18.6c1,0,1.8-0.8,1.8-1.8v-4C331.5,587.6,330.7,586.8,329.7,586.8z M553,614.6h-54.3c-1,0-1.8,0.8-1.8,1.8v4
				c0,1,0.8,1.8,1.8,1.8H553c1,0,1.8-0.8,1.8-1.8v-4C554.8,615.4,554,614.6,553,614.6z M448.5,512.4v4c0,1-0.8,1.8-1.8,1.8h-3.5
				c1,0,1.8,0.8,1.8,1.8v4c0,1-0.8,1.8-1.8,1.8h-28.8c1,0,1.8,0.8,1.8,1.8v4c0,1-0.8,1.8-1.8,1.8h-12.2c1,0,1.8,0.8,1.8,1.8v4
				c0,1-0.8,1.8-1.8,1.8h-17c1,0,1.8,0.8,1.8,1.8v4c0,1-0.8,1.8-1.8,1.8h12.6c1,0,1.8,0.8,1.8,1.8v4c0,1-0.8,1.8-1.8,1.8h-8.1
				c1,0,1.8,0.8,1.8,1.8v4c0,1-0.8,1.8-1.8,1.8h-25.7c1,0,1.8,0.8,1.8,1.8v4c0,1-0.8,1.8-1.8,1.8h24.5c1,0,1.8,0.8,1.8,1.8v4
				c0,1-0.8,1.8-1.8,1.8h-34c-1,0-1.8-0.8-1.8-1.8v-4c0-1,0.8-1.8,1.8-1.8h-24.5c-1,0-1.8-0.8-1.8-1.8v-4c0-1,0.8-1.8,1.8-1.8h-18.1
				c-1,0-1.8-0.8-1.8-1.8v-4c0-1,0.8-1.8,1.8-1.8h7.2c-1,0-1.8-0.8-1.8-1.8v-4c0-1,0.8-1.8,1.8-1.8h12.9c-1,0-1.8-0.8-1.8-1.8v-4
				c0-1,0.8-1.8,1.8-1.8h-44c1,0,1.8,0.8,1.8,1.8v4c0,1-0.8,1.8-1.8,1.8h8.8c1,0,1.8,0.8,1.8,1.8v4c0,1-0.8,1.8-1.8,1.8H269
				c-1,0-1.8-0.8-1.8-1.8v-4c0-1,0.8-1.8,1.8-1.8h-28.1c-1,0-1.8-0.8-1.8-1.8v-4c0-1,0.8-1.8,1.8-1.8h-21.2c-1,0-1.8-0.8-1.8-1.8v-4
				c0-1,0.8-1.8,1.8-1.8h35c-1,0-1.8-0.8-1.8-1.8v-4c0-1,0.8-1.8,1.8-1.8H194c1,0,1.8,0.8,1.8,1.8v4c0,1-0.8,1.8-1.8,1.8h6.6
				c1,0,1.8,0.8,1.8,1.8v4c0,1-0.8,1.8-1.8,1.8H194c1,0,1.8,0.8,1.8,1.8v4c0,1-0.8,1.8-1.8,1.8h-24.7c-1,0-1.8-0.8-1.8-1.8v-4
				c0-1,0.8-1.8,1.8-1.8H146c1,0,1.8,0.8,1.8,1.8v4c0,1-0.8,1.8-1.8,1.8h-35.3c-1,0-1.8-0.8-1.8-1.8v-4c0-1,0.8-1.8,1.8-1.8h21.9
				c-1,0-1.8-0.8-1.8-1.8v-4c0-1,0.8-1.8,1.8-1.8h28.2c-1,0-1.8-0.8-1.8-1.8v-4c0-1,0.8-1.8,1.8-1.8h25.8c-1,0-1.8-0.8-1.8-1.8v-4
				c0-1,0.8-1.8,1.8-1.8h86.4c1,0,1.8,0.8,1.8,1.8v4c0,1-0.8,1.8-1.8,1.8h15c1,0,1.8,0.8,1.8,1.8v4c0,1-0.8,1.8-1.8,1.8H320
				c-1,0-1.8-0.8-1.8-1.8v-4c0-1,0.8-1.8,1.8-1.8h-12.5c-1,0-1.8-0.8-1.8-1.8v-4c0-1,0.8-1.8,1.8-1.8h10.7c-1,0-1.8-0.8-1.8-1.8v-4
				c0-1,0.8-1.8,1.8-1.8H333c-1,0-1.8-0.8-1.8-1.8v-4c0-1,0.8-1.8,1.8-1.8h-38.4c-1,0-1.8-0.8-1.8-1.8v-4c0-1,0.8-1.8,1.8-1.8h57.7
				c-1,0-1.8-0.8-1.8-1.8v-4c0-1,0.8-1.8,1.8-1.8h13.8c-1,0-1.8-0.8-1.8-1.8v-4c0-1,0.8-1.8,1.8-1.8h12.8c-1,0-1.8-0.8-1.8-1.8v-4
				c0-1,0.8-1.8,1.8-1.8h21.7c1,0,1.8,0.8,1.8,1.8v4c0,1-0.8,1.8-1.8,1.8h-12.8c1,0,1.8,0.8,1.8,1.8v4c0,1-0.8,1.8-1.8,1.8h19.8
				c1,0,1.8,0.8,1.8,1.8v4c0,1-0.8,1.8-1.8,1.8h-9.9c1,0,1.8,0.8,1.8,1.8v4c0,1-0.8,1.8-1.8,1.8h35.9c1,0,1.8,0.8,1.8,1.8v4
				c0,1-0.8,1.8-1.8,1.8h13.1C447.7,510.6,448.5,511.4,448.5,512.4z M184.1,539.2v-4c0-1,0.8-1.8,1.8-1.8h-11.5c1,0,1.8,0.8,1.8,1.8
				v4c0,1-0.8,1.8-1.8,1.8h11.5C184.9,541.1,184.1,540.2,184.1,539.2z M368.1,554.5v-4c0-1,0.8-1.8,1.8-1.8h-23.2
				c1,0,1.8,0.8,1.8,1.8v4c0,1-0.8,1.8-1.8,1.8H370C368.9,556.3,368.1,555.5,368.1,554.5z M432,586.8h-18.6c-1,0-1.8,0.8-1.8,1.8v4
				c0,1,0.8,1.8,1.8,1.8H432c1,0,1.8-0.8,1.8-1.8v-4C433.8,587.6,433,586.8,432,586.8z"/>
		</defs>
		<use xlink:href="#SVGID_7_"  overflow="visible" fill="#12141D"/>
		<clipPath id="SVGID_8_">
			<use xlink:href="#SVGID_7_"  overflow="visible"/>
		</clipPath>
		<g clip-path="url(#SVGID_8_)">
			<path fill="#3D4250" d="M367.1,487.9h-70.8c-1,0-1.8,0.8-1.8,1.8v4c0,1,0.8,1.8,1.8,1.8h70.8c1,0,1.8-0.8,1.8-1.8v-4
				C369,488.7,368.1,487.9,367.1,487.9z"/>
			<path fill="#3D4250" d="M381.1,495.5h-98.8c-1,0-1.8,0.8-1.8,1.8v4c0,1,0.8,1.8,1.8,1.8h98.8c1,0,1.8-0.8,1.8-1.8v-4
				C383,496.3,382.1,495.5,381.1,495.5z"/>
			<path fill="#3D4250" d="M418.4,495.5h-25.5c-1,0-1.8,0.8-1.8,1.8v4c0,1,0.8,1.8,1.8,1.8h25.5c1,0,1.8-0.8,1.8-1.8v-4
				C420.3,496.3,419.4,495.5,418.4,495.5z"/>
			<path fill="#3D4250" d="M442.5,503.1h-40.7c-1,0-1.8,0.8-1.8,1.8v4c0,1,0.8,1.8,1.8,1.8h40.7c1,0,1.8-0.8,1.8-1.8v-4
				C444.3,503.9,443.5,503.1,442.5,503.1z"/>
			<path fill="#3D4250" d="M353.2,503.1h-70.8c-1,0-1.8,0.8-1.8,1.8v4c0,1,0.8,1.8,1.8,1.8h70.8c1,0,1.8-0.8,1.8-1.8v-4
				C355,503.9,354.2,503.1,353.2,503.1z"/>
			<path fill="#3D4250" d="M359.3,510.8h-76.9c-1,0-1.8,0.8-1.8,1.8v4c0,1,0.8,1.8,1.8,1.8h76.9c1,0,1.8-0.8,1.8-1.8v-4
				C361.1,511.6,360.3,510.8,359.3,510.8z"/>
			<path fill="#3D4250" d="M475.6,518.4h-70.8c-1,0-1.8,0.8-1.8,1.8v4c0,1,0.8,1.8,1.8,1.8h70.8c1,0,1.8-0.8,1.8-1.8v-4
				C477.4,519.2,476.6,518.4,475.6,518.4z"/>
			<path fill="#3D4250" d="M356.5,526h-65.9c-1,0-1.8,0.8-1.8,1.8v4c0,1,0.8,1.8,1.8,1.8h65.9c1,0,1.8-0.8,1.8-1.8v-4
				C358.3,526.8,357.5,526,356.5,526z"/>
			<path fill="#3D4250" d="M445.2,526h-46c-1,0-1.8,0.8-1.8,1.8v4c0,1,0.8,1.8,1.8,1.8h46c1,0,1.8-0.8,1.8-1.8v-4
				C447,526.8,446.2,526,445.2,526z"/>
			<path fill="#3D4250" d="M301,533.6h-85.2c-1,0-1.8,0.8-1.8,1.8v4c0,1,0.8,1.8,1.8,1.8H301c1,0,1.8-0.8,1.8-1.8v-4
				C302.8,534.5,302,533.6,301,533.6z"/>
			<path fill="#3D4250" d="M303.3,541.3h-70.8c-1,0-1.8,0.8-1.8,1.8v4c0,1,0.8,1.8,1.8,1.8h70.8c1,0,1.8-0.8,1.8-1.8v-4
				C305.1,542.1,304.3,541.3,303.3,541.3z"/>
			<path fill="#3D4250" d="M401,548.9h-57.5c-1,0-1.8,0.8-1.8,1.8v4c0,1,0.8,1.8,1.8,1.8H401c1,0,1.8-0.8,1.8-1.8v-4
				C402.8,549.7,402,548.9,401,548.9z"/>
			<path fill="#3D4250" d="M281.1,556.5h-45.4c-1,0-1.8,0.8-1.8,1.8v4c0,1,0.8,1.8,1.8,1.8h45.4c1,0,1.8-0.8,1.8-1.8v-4
				C283,557.3,282.1,556.5,281.1,556.5z"/>
			<path fill="#3D4250" d="M407.3,556.5h-66.8c-1,0-1.8,0.8-1.8,1.8v4c0,1,0.8,1.8,1.8,1.8h66.8c1,0,1.8-0.8,1.8-1.8v-4
				C409.1,557.3,408.3,556.5,407.3,556.5z"/>
			<path fill="#3D4250" d="M372,564.1h-89.7c-1,0-1.8,0.8-1.8,1.8v4c0,1,0.8,1.8,1.8,1.8H372c1,0,1.8-0.8,1.8-1.8v-4
				C373.9,565,373.1,564.1,372,564.1z"/>
			<path fill="#3D4250" d="M353.2,571.8h-70.8c-1,0-1.8,0.8-1.8,1.8v4c0,1,0.8,1.8,1.8,1.8h70.8c1,0,1.8-0.8,1.8-1.8v-4
				C355,572.6,354.2,571.8,353.2,571.8z"/>
			<path fill="#3D4250" d="M327.7,579.4h-23.1c-1,0-1.8,0.8-1.8,1.8v4c0,1,0.8,1.8,1.8,1.8h23.1c1,0,1.8-0.8,1.8-1.8v-4
				C329.6,580.2,328.7,579.4,327.7,579.4z"/>
			<path fill="#3D4250" d="M368.4,579.4h-20.1c-1,0-1.8,0.8-1.8,1.8v4c0,1,0.8,1.8,1.8,1.8h20.1c1,0,1.8-0.8,1.8-1.8v-4
				C370.2,580.2,369.4,579.4,368.4,579.4z"/>
			<path fill="#3D4250" d="M408.3,587H297.9c-1,0-1.8,0.8-1.8,1.8v4c0,1,0.8,1.8,1.8,1.8h110.4c1,0,1.8-0.8,1.8-1.8v-4
				C410.1,587.8,409.3,587,408.3,587z"/>
			<path fill="#3D4250" d="M362.8,594.7h-14.5c-1,0-1.8,0.8-1.8,1.8v4c0,1,0.8,1.8,1.8,1.8h14.5c1,0,1.8-0.8,1.8-1.8v-4
				C364.6,595.5,363.8,594.7,362.8,594.7z"/>
			<path fill="#3D4250" d="M325.9,640.4h-78.1c-1,0-1.8,0.8-1.8,1.8v3.8c0,1,0.8,1.8,1.8,1.8h78.1c1,0,1.8-0.8,1.8-1.8v-3.8
				C327.8,641.2,326.9,640.4,325.9,640.4z"/>
			<path fill="#3D4250" d="M382.9,640.4H350c-1,0-1.8,0.8-1.8,1.8v3.8c0,1,0.8,1.8,1.8,1.8h32.9c1,0,1.8-0.8,1.8-1.8v-3.8
				C384.7,641.2,383.9,640.4,382.9,640.4z"/>
			<path fill="#3D4250" d="M308.1,647.9H230c-1,0-1.8,0.8-1.8,1.8v3.8c0,1,0.8,1.8,1.8,1.8h78.1c1,0,1.8-0.8,1.8-1.8v-3.8
				C310,648.7,309.2,647.9,308.1,647.9z"/>
			<path fill="#3D4250" d="M353.9,655.4h-78.1c-1,0-1.8,0.8-1.8,1.8v3.8c0,1,0.8,1.8,1.8,1.8h78.1c1,0,1.8-0.8,1.8-1.8v-3.8
				C355.7,656.2,354.9,655.4,353.9,655.4z"/>
			<path fill="#3D4250" d="M382.1,609.9h-13.8c-1,0-1.8,0.8-1.8,1.8v4c0,1,0.8,1.8,1.8,1.8h13.8c1,0,1.8-0.8,1.8-1.8v-4
				C383.9,610.7,383.1,609.9,382.1,609.9z"/>
		</g>
	</g>
	<g>
		<g>
			<circle fill="#515189" cx="575.7" cy="126.4" r="2.4"/>
			<circle fill="#515189" cx="629.2" cy="163.9" r="1.9"/>
			<circle fill="#515189" cx="645.2" cy="192.5" r="1.9"/>
			<circle fill="#515189" cx="678.3" cy="194.5" r="1.9"/>
			<circle fill="#515189" cx="673.7" cy="121.6" r="1.3"/>
			<circle fill="#515189" cx="625.3" cy="155.5" r="1.3"/>
			<circle fill="#515189" cx="686.9" cy="159" r="1.3"/>
			<circle fill="#515189" cx="594.4" cy="131.9" r="1.3"/>
			<circle fill="#515189" cx="568.9" cy="96.7" r="1.3"/>
		</g>
		<g>
			<circle fill="#515189" cx="88.5" cy="570.1" r="2.4"/>
			<circle fill="#515189" cx="81.6" cy="641.9" r="1.9"/>
			<circle fill="#515189" cx="130.8" cy="672.6" r="1.9"/>
			<circle fill="#515189" cx="126.1" cy="599.6" r="1.3"/>
			<circle fill="#515189" cx="77.7" cy="633.5" r="1.3"/>
			<circle fill="#515189" cx="139.3" cy="637" r="1.3"/>
			<circle fill="#515189" cx="46.8" cy="609.9" r="1.3"/>
			<circle fill="#515189" cx="21.4" cy="574.7" r="1.3"/>
			<circle fill="#515189" cx="8.1" cy="676.7" r="1.3"/>
		</g>
	</g>
</g>
</svg>
