<?xml version="1.0" encoding="utf-8"?>
<!-- Generator: Adobe Illustrator 23.0.6, SVG Export Plug-In . SVG Version: 6.00 Build 0)  -->
<svg version="1.0" id="Layer_1" xmlns="http://www.w3.org/2000/svg" xmlns:xlink="http://www.w3.org/1999/xlink" x="400px" y="400px"
	 viewBox="0 0 700 700" enable-background="new 0 0 700 700" xml:space="preserve">
<g>
	<g>
		<g>
			<g>
				<defs>
					<path id="SVGID_1_" d="M631.8,345.4c0.1,3-2.3,5.4-5.2,5.4H130.2c-3,0-5.4-2.5-5.2-5.4c6.3-134.6,117.3-241.7,253.4-241.7
						C514.5,103.7,625.6,210.8,631.8,345.4z M130.2,364c-3,0-5.4,2.5-5.2,5.4c6.3,134.6,117.3,241.7,253.4,241.7
						c136.1,0,247.2-107.2,253.4-241.7c0.1-3-2.3-5.4-5.2-5.4H130.2z"/>
				</defs>
				<use xlink:href="#SVGID_1_"  overflow="visible" fill="#6D6E6E"/>
				<clipPath id="SVGID_2_">
					<use xlink:href="#SVGID_1_"  overflow="visible"/>
				</clipPath>

					<radialGradient id="SVGID_3_" cx="378.3785" cy="343.6439" r="234.1232" fx="377.8473" fy="190.7125" gradientUnits="userSpaceOnUse">
					<stop  offset="0.4387" style="stop-color:#A3A2A4"/>
					<stop  offset="0.8147" style="stop-color:#797A7C"/>
				</radialGradient>
				<circle clip-path="url(#SVGID_2_)" fill="url(#SVGID_3_)" cx="378.4" cy="343.6" r="240.8"/>
				<circle display="none" clip-path="url(#SVGID_2_)" fill="#959494" cx="378.4" cy="314.8" r="194.1"/>
				<circle display="none" clip-path="url(#SVGID_2_)" fill="#A3A2A4" cx="378.4" cy="267.7" r="133.9"/>
				<path opacity="0.25" clip-path="url(#SVGID_2_)" fill="#9D9EA1" d="M627.8,219.8h-38.9c-0.8,0-1.6-0.4-2-1.1
					c-9.6-15.5-20.8-30-33.6-43.3c-35.3-36.6-79.3-60.9-127.2-70.6c-5.4-1.3-10.9-2.4-16.4-3.3c-5-1.1-10.1-2-15.3-2.6
					c-0.1,0-0.1,0-0.2,0c-5.1-1.2-10.3-1.9-15.5-1.9c-0.3,0-0.6,0-0.9,0s-0.6,0-0.9,0c-5.2,0.1-10.4,0.7-15.5,1.9
					c-0.1,0-0.1,0-0.2,0c-5.1,0.6-10.2,1.5-15.3,2.6c-5.5,0.9-11,2-16.4,3.3c-47.9,9.7-91.9,34-127.2,70.6
					c-12.8,13.3-24.1,27.8-33.6,43.3c-0.4,0.7-1.2,1.1-2,1.1h-39.1c-1.3,0-2.4,1.1-2.4,2.4v2.4c0,1.3,1.1,2.4,2.4,2.4H164h2.3h3.8
					c1.8,0,3,2,2.1,3.6c-8.4,15.4-15.3,31.7-20.5,48.6c-0.3,1-1.2,1.7-2.3,1.7h-6.3H141h-13.2c-1.3,0-2.4,1.1-2.4,2.4v2.4
					c0,1.3,1.1,2.4,2.4,2.4h8.1c1.6,0,2.7,1.5,2.3,3c-5.5,21.4-8.3,43.7-8.3,66.4c0,17.8,1.7,35.3,5.1,52.3c0.3,1.5-0.8,2.9-2.3,2.9
					h-4.9c-1.3,0-2.4,1.1-2.4,2.4v2.4c0,1.3,1.1,2.4,2.4,2.4h9.4h0.6c1.5,6.9,3.2,13.7,5.2,20.4c0.5,1.5-0.7,3.1-2.3,3.1h-12.9
					c-1.3,0-2.4,1.1-2.4,2.4v2.4c0,1.3,1.1,2.4,2.4,2.4h18.7h2.2h6.4c1,0,1.9,0.6,2.2,1.5c6.4,16.9,14.6,33.1,24.4,48.3
					c1,1.6-0.1,3.7-2,3.7h-3.3H174h-46.2c-1.3,0-2.4,1.1-2.4,2.4v2.4c0,1.3,1.1,2.4,2.4,2.4h49.9c0.8,0,1.5,0.4,1.9,1
					c5.4,7.4,11.2,14.5,17.4,21.4c1.4,1.6,0.3,4-1.8,4h-15.6c-1.3,0-2.4,1.1-2.4,2.4v32c0,1.3,1.1,2.4,2.4,2.4h63.8
					c0.5,0,0.9,0.1,1.3,0.4c25.9,17.2,54.6,29.1,84.9,35.3c5.4,1.3,10.9,2.4,16.4,3.3c5,1.1,10.1,2,15.3,2.6c0.1,0,0.1,0,0.2,0
					c5.1,1.2,10.3,1.9,15.5,1.9c0.3,0,0.6,0,0.9,0s0.6,0,0.9,0c5.2-0.1,10.4-0.7,15.5-1.9c0.1,0,0.1,0,0.2,0
					c5.1-0.6,10.2-1.5,15.3-2.6c5.5-0.9,11-2,16.4-3.3c30.2-6.2,58.9-18.1,84.9-35.3c0.4-0.3,0.8-0.4,1.3-0.4H571
					c1.3,0,2.4-1.1,2.4-2.4v-32c0-1.3-1.1-2.4-2.4-2.4h-10.5c-2.1,0-3.2-2.5-1.8-4c6.2-6.8,12-14,17.4-21.4c0.4-0.6,1.2-1,1.9-1
					h49.8c1.3,0,2.4-1.1,2.4-2.4v-2.4c0-1.3-1.1-2.4-2.4-2.4h-46h-2.5h-4.8c9.9-16.3,18-33.7,24.3-52c0.3-1,1.2-1.6,2.3-1.6h6h2.2
					h18.5c1.3,0,2.4-1.1,2.4-2.4v-2.4c0-1.3-1.1-2.4-2.4-2.4h-16h-2.2h-18.2h0c2.4-7.1,4.5-14.3,6.3-21.6c0.3-1.1,1.2-1.8,2.3-1.8
					h16.5h2.1h9.2c1.3,0,2.4-1.1,2.4-2.4V415c0-1.3-1.1-2.4-2.4-2.4h-4.7c-1.5,0-2.6-1.4-2.3-2.9c3.4-17,5.1-34.5,5.1-52.3
					c0-22.7-2.8-45-8.3-66.4c-0.4-1.5,0.7-3,2.3-3h7.9c1.3,0,2.4-1.1,2.4-2.4v-2.4c0-1.3-1.1-2.4-2.4-2.4h-1.1c-1.1,0-2-0.7-2.3-1.7
					c-5.2-16.9-12-33.2-20.5-48.6c-0.9-1.6,0.3-3.6,2.1-3.6h21.7c1.3,0,2.4-1.1,2.4-2.4v-2.4C630.2,220.8,629.2,219.8,627.8,219.8z
					 M551.8,176.7c11.7,12.2,22.1,25.3,31,39.3c1,1.6-0.1,3.7-2.1,3.7h-9.9c-0.9,0-1.7-0.5-2.1-1.2c-8.8-15.7-19.1-30.4-30.9-43.8
					c-8.4-9.6-17.3-18.3-26.6-26.1c-2.4-2,0.4-5.6,2.9-3.9C527.6,154,540.2,164.7,551.8,176.7z M220.3,536.8
					c-6-6.9-11.6-14.2-16.9-21.8c-1.1-1.6,0.1-3.8,2-3.8h16.8c0.9,0,1.7,0.5,2.1,1.2c4.1,7.4,8.5,14.5,13.2,21.4
					c1.1,1.6,0,3.8-2,3.8h-13.4C221.5,537.3,221,537,220.3,536.8z M178.4,422.6c-0.3-1.5,0.9-2.9,2.4-2.9H192h6.3h29.2
					c1.2,0,2.2,0.9,2.4,2.1c0.8,6.3,1.7,12.5,2.7,18.6c0.2,1.5-0.9,2.8-2.4,2.8h-26.7h-6.4H185c-1.1,0-2.1-0.7-2.3-1.8
					C181.1,435.3,179.7,429,178.4,422.6z M274.1,226.9c-5,17-8.9,35.1-11.8,53.9h-1.9h-8.3h-37.5c-1.6,0-2.7-1.5-2.4-3
					c4.2-17.4,9.8-33.9,16.5-49.4c0.4-0.9,1.3-1.5,2.2-1.5h32.9h8.5H274.1z M532.3,441.4c-0.3,1.1-1.2,1.8-2.3,1.8h-27.7h-8.3h-9.3
					c-1.5,0-2.6-1.3-2.4-2.8c1-6.1,1.9-12.3,2.7-18.6c0.2-1.2,1.2-2.1,2.4-2.1h10.1h8.2h28.4c1.5,0,2.7,1.4,2.4,2.9
					C535.3,429,533.8,435.3,532.3,441.4z M277.6,504H269h-30.4c-0.9,0-1.7-0.5-2.2-1.3c-7.8-15.2-14.5-31.7-19.7-49.2
					c-0.5-1.5,0.7-3.1,2.3-3.1h35.9h8.3h1.9c3.6,18.9,8.3,36.8,14.1,53.6H277.6z M240.7,419.8h1.3c1.2,0,2.2,0.9,2.4,2.1l2.6,18.7
					c0.2,1.4-0.9,2.7-2.4,2.7h-1.1c-1.2,0-2.2-0.8-2.4-2c-1.1-6.2-2-12.4-2.8-18.7C238.1,421.1,239.2,419.8,240.7,419.8z
					 M192.6,357.4c0-23.4,2.3-46,6.7-67.5c0.2-1.1,1.2-1.9,2.4-1.9h46.6c1.5,0,2.6,1.3,2.4,2.7c-2.8,21.5-4.3,43.9-4.3,66.7
					c0,17.9,0.9,35.4,2.6,52.5c0.1,1.4-1,2.6-2.4,2.6h-47.5c-1.2,0-2.2-0.9-2.4-2C194.1,393.4,192.6,375.6,192.6,357.4z
					 M501.3,357.4c0,18-0.9,35.8-2.7,53c-0.1,1.2-1.2,2.2-2.4,2.2h-48.3c-1.4,0-2.5-1.1-2.4-2.5c0.9-17.1,1.4-34.8,1.4-52.7
					c0-22.9-0.8-45.3-2.2-66.9c-0.1-1.4,1-2.6,2.4-2.6h47.4c1.2,0,2.2,0.9,2.4,2.1C499.7,311.7,501.3,334.3,501.3,357.4z
					 M473.8,441.2c-0.2,1.2-1.2,2-2.4,2h-28.3h-8.2h-3.3l1.2-21.2c0.1-1.3,1.1-2.3,2.4-2.3h1.5h8.2h29.4c1.5,0,2.6,1.3,2.4,2.7
					C475.8,428.8,474.9,435.1,473.8,441.2z M248,441l-2.5-18.5c-0.2-1.4,0.9-2.7,2.4-2.7h2.2h8.2h29.9c1.3,0,2.3,1,2.4,2.3
					c0.4,6.3,0.9,12.5,1.4,18.6c0.1,1.4-1,2.6-2.4,2.6h-27.7h-8.3l-3,0C249.3,443.2,248.2,442.3,248,441z M298.8,422.3
					c-0.1-1.4,1-2.6,2.4-2.6h9.7h8.2h30.8c1.3,0,2.4,1.1,2.4,2.4v18.7c0,1.3-1.1,2.4-2.4,2.4h-29.1h-8.2h-10c-1.3,0-2.3-0.9-2.4-2.2
					C299.7,434.9,299.2,428.7,298.8,422.3z M362.6,422.2c0-1.3,1.1-2.4,2.4-2.4h7.8H383h30.7c1.4,0,2.5,1.2,2.4,2.6
					c-0.4,6.3-0.9,12.5-1.4,18.7c-0.1,1.2-1.2,2.2-2.4,2.2H383h-10.2H365c-1.3,0-2.4-1.1-2.4-2.4V422.2z M426.7,419.8h1.6
					c1.4,0,2.5,1.2,2.4,2.5l-1.2,20.9l1,0.1h-5.3c-1.4,0-2.5-1.2-2.4-2.6c0.5-6.1,1-12.3,1.4-18.6
					C424.4,420.8,425.4,419.8,426.7,419.8z M438.6,357.4c0,18-0.5,35.7-1.4,52.9c-0.1,1.3-1.1,2.3-2.4,2.3h-49.4
					c-1.3,0-2.4-1.1-2.4-2.4V290.4c0-1.3,1.1-2.4,2.4-2.4H434c1.3,0,2.3,1,2.4,2.2C437.9,311.8,438.6,334.4,438.6,357.4z
					 M370.4,412.6H321c-1.3,0-2.3-1-2.4-2.3c-0.9-17.2-1.4-34.9-1.4-52.9c0-23,0.8-45.6,2.2-67.2c0.1-1.3,1.1-2.2,2.4-2.2h48.6
					c1.3,0,2.4,1.1,2.4,2.4v119.8C372.8,411.5,371.7,412.6,370.4,412.6z M308,412.6h-48.3c-1.2,0-2.3-0.9-2.4-2.2
					c-1.8-17.2-2.7-35-2.7-53c0-23.1,1.5-45.7,4.5-67.3c0.2-1.2,1.2-2.1,2.4-2.1h47.4c1.4,0,2.5,1.2,2.4,2.6
					c-1.5,21.5-2.2,44-2.2,66.9c0,17.9,0.5,35.5,1.4,52.7C310.4,411.4,309.3,412.6,308,412.6z M274,453.3c-0.3-1.5,0.9-2.9,2.4-2.9
					h37h8.2h2c1.8,18.9,4.3,36.8,7.2,53.6h-1.9h-8.3h-31c-1,0-2-0.6-2.3-1.6C281.9,487,277.5,470.6,274,453.3z M332.1,453.1
					c-0.1-1.4,1-2.7,2.4-2.7h38.3h7.8c1.3,0,2.4,1.1,2.4,2.4v48.8c0,1.3-1.1,2.4-2.4,2.4h-7.8h-31.7c-1.2,0-2.2-0.8-2.4-2
					C336,486.7,333.8,470.3,332.1,453.1z M393.2,452.8c0-1.3,1.1-2.4,2.4-2.4h38.6h8.2h2c-1.9,18.9-4.3,36.9-7.3,53.6h-1.9H427
					h-31.3c-1.3,0-2.4-1.1-2.4-2.4V452.8z M452.5,452.6c0.1-1.2,1.2-2.2,2.4-2.2h37.7h8.3h1.9c-3.7,18.9-8.5,36.9-14.4,53.6h-1.6
					h-8.6h-29.9c-1.5,0-2.6-1.3-2.4-2.8C448.6,485.9,450.7,469.6,452.5,452.6z M510.7,452.4c0.2-1.1,1.2-1.9,2.4-1.9h37.1h6.5h3.7
					c-5.4,18.6-12.3,36.1-20.6,52.3c-0.4,0.8-1.3,1.3-2.2,1.3h-1.7h-7h-28.5c-1.6,0-2.8-1.6-2.3-3.1
					C503.2,485.6,507.4,469.3,510.7,452.4z M506.8,409.9c1.6-16,2.5-32.5,2.6-49.1c0-1.3,1.1-2.4,2.4-2.4h48.9
					c1.3,0,2.4,1.1,2.4,2.5c-0.2,17-1.6,33.6-4.1,49.7c-0.2,1.2-1.2,2-2.4,2h-47.5C507.7,412.6,506.6,411.4,506.8,409.9z
					 M554.5,280.8H516c-1.2,0-2.2-0.9-2.4-2c-2.7-16.9-6.2-33.3-10.6-48.8c-0.4-1.5,0.7-3,2.3-3h31.3h6.8h1.8c1,0,1.8,0.6,2.2,1.5
					c7.1,16.4,12.9,33.9,17.2,52.4h-3.9H554.5z M505.7,280.8h-1.9h-8.3h-39.1c-1.3,0-2.3-1-2.4-2.2c-1.4-17-3.2-33.4-5.4-48.9
					c-0.2-1.5,0.9-2.7,2.4-2.7h32.6h8.5h1.7C498.7,243.9,502.7,262,505.7,280.8z M445.9,280.8h-2h-8.2h-40c-1.3,0-2.4-1.1-2.4-2.4
					v-49c0-1.3,1.1-2.4,2.4-2.4h34h8.3h2C442.4,243.9,444.4,262,445.9,280.8z M383,278.4c0,1.3-1.1,2.4-2.4,2.4h-7.8H333
					c-1.4,0-2.5-1.2-2.4-2.6c1.4-17.1,3.3-33.6,5.6-49.2c0.2-1.2,1.2-2,2.4-2h34.3h7.8c1.3,0,2.4,1.1,2.4,2.4V278.4z M322.1,280.8
					h-2h-8.2h-38.5c-1.5,0-2.6-1.3-2.4-2.8c2.8-17.2,6.5-33.7,11.1-49.3c0.3-1,1.3-1.7,2.3-1.7h33.5h8.3h2
					C325.6,243.9,323.6,262,322.1,280.8z M205.6,278.9c-0.3,1.1-1.2,1.9-2.3,1.9h-2h-6.4h-6.2c-1.6,0-2.7-1.5-2.4-3
					c4.1-17.3,15.2-41.7,18.9-49.5c0.4-0.8,1.2-1.4,2.2-1.4h4.9h6.8h3.4C215.5,243.4,209.8,260.8,205.6,278.9z M180.6,280.8h-1.3
					c-1.6,0-2.8-1.5-2.3-3.1c4.9-17.2,11.5-33.8,19.6-49.5c0.4-0.8,1.3-1.3,2.2-1.3h0c1.8,0,2.9,1.8,2.2,3.4
					c-4.9,10.5-14.6,32.6-18,48.5C182.7,280,181.8,280.8,180.6,280.8z M190.5,288c1.5,0,2.6,1.4,2.3,2.9
					c-4.2,21.5-6.3,43.8-6.3,66.6c0,17.8,1.3,35.4,3.9,52.4c0.2,1.5-0.9,2.8-2.4,2.8H163c-1.2,0-2.2-0.8-2.4-2
					c-3.2-17.3-4.8-35.1-4.8-53.2c0-23.1,2.7-45.8,7.9-67.6c0.3-1.1,1.2-1.9,2.4-1.9H190.5z M199.1,450.4h6.5h1.9
					c1.1,0,2,0.7,2.3,1.7c5.3,18.2,12.1,35.6,20.3,51.9h-3.2h-7h-12c-0.8,0-1.6-0.4-2.1-1.2c-9.4-15.4-17.3-31.9-23.4-49.2
					c-0.6-1.6,0.6-3.2,2.3-3.2H199.1z M247.1,536.6c-5-6.9-9.8-14.1-14.2-21.8c-0.9-1.6,0.2-3.6,2.1-3.6h34.9c1,0,1.9,0.6,2.2,1.6
					c2.8,7.4,5.8,14.5,9,21.4c0.7,1.6-0.4,3.4-2.2,3.4H249C248.2,537.6,247.5,537.2,247.1,536.6z M291.1,536.2
					c-3.4-6.9-6.6-14.2-9.6-21.7c-0.6-1.6,0.6-3.3,2.3-3.3h36.1c1.2,0,2.1,0.8,2.4,2c1.4,7.4,3,14.6,4.6,21.5c0.4,1.5-0.8,3-2.3,3
					h-31.2C292.5,537.1,291.9,536.7,291.1,536.2z M339.5,575.9c2.3,5.9,4.7,11,7.1,15.4c1.3,2.4-1.7,4.8-3.7,2.9
					c-4.6-4.2-9.4-9.6-13.3-16.3c-0.9-1.6,0.2-3.6,2.1-3.6h5.6C338.2,574.4,339.1,575,339.5,575.9z M335.5,535.8
					c-1.7-6.9-3.3-14.1-4.8-21.7c-0.3-1.5,0.9-2.9,2.4-2.9h37.3c1.3,0,2.4,1.1,2.4,2.4v21.6c0,1.3-1.1,2.4-2.4,2.4h-32.5
					C336.8,537.6,335.8,536.8,335.5,535.8z M385.4,511.2h37.3c1.5,0,2.7,1.4,2.4,2.9c-1.5,7.5-3.1,14.8-4.8,21.7
					c-0.3,1.1-1.2,1.8-2.3,1.8h-32.5c-1.3,0-2.4-1.1-2.4-2.4v-21.6C383,512.3,384.1,511.2,385.4,511.2z M435.9,511.2H472
					c1.7,0,2.9,1.7,2.3,3.3c-3,7.6-6.1,14.8-9.6,21.7c-0.8,0.5-1.4,0.9-2.2,1.3h-31.2c-1.6,0-2.7-1.4-2.3-3c1.6-6.9,3.2-14,4.6-21.5
					C433.8,512,434.8,511.2,435.9,511.2z M485.9,511.2h34.9c1.9,0,3,2,2.1,3.6c-4.4,7.6-9.2,14.9-14.2,21.8c-0.5,0.6-1.2,1-2,1
					h-29.9c-1.8,0-2.9-1.8-2.2-3.4c3.2-6.9,6.2-14,9-21.4C484,511.8,484.9,511.2,485.9,511.2z M533.6,537.6h-13.4
					c-1.9,0-3.1-2.2-2-3.8c4.7-6.8,9.1-14,13.2-21.4c0.4-0.8,1.2-1.2,2.1-1.2h16.8c1.9,0,3.1,2.2,2,3.8
					c-5.2,7.6-10.8,14.8-16.9,21.8C534.8,537,534.3,537.3,533.6,537.6z M547.9,500.6c7.5-15.3,13.7-31.5,18.6-48.4
					c0.3-1,1.2-1.7,2.3-1.7h3.5c1.6,0,2.8,1.5,2.3,3c-2.9,10.3-10.2,34.1-20.9,49.5c-0.5,0.7-1.2,1-2,1H550
					C548.2,504,547.1,502.2,547.9,500.6z M558.6,443.2h-6.4h-11c-1.6,0-2.7-1.5-2.3-3c1.5-6.1,2.9-12.3,4-18.5c0.2-1.1,1.2-2,2.3-2
					h12.2h6.3h6.2c1.5,0,2.7,1.4,2.4,3c-1.5,6.3-3.1,12.6-5,18.8c-0.3,1-1.3,1.7-2.3,1.7H558.6z M567.8,412.6
					c-1.5,0-2.6-1.3-2.4-2.8c2.6-17.1,3.9-34.6,3.9-52.4c0-22.8-2.1-45.1-6.3-66.6c-0.3-1.5,0.8-2.9,2.3-2.9h24.5
					c1.1,0,2.1,0.8,2.4,1.9c5.2,21.7,7.9,44.4,7.9,67.6c0,18.1-1.6,35.9-4.8,53.2c-0.2,1.1-1.2,2-2.4,2H567.8z M589.9,280.8H573
					c-1.1,0-2.1-0.8-2.3-1.9c-3.9-16.9-9.1-33.2-15.6-48.7c-0.7-1.6,0.5-3.3,2.2-3.3h11.5h4.6h4.1c0.9,0,1.7,0.5,2.2,1.3
					c8.1,15.7,14.6,32.2,19.6,49.5c0.4,1.5-0.7,3.1-2.3,3.1h-2.8H589.9z M534.9,177.4c10.5,12,19.8,25,27.8,38.7
					c0.9,1.6-0.2,3.6-2.1,3.6h-18.9c-0.9,0-1.8-0.5-2.2-1.4c-7.4-15.8-16.1-30.6-26.1-44.2c-11.3-15.4-23.7-28.6-37.1-39.5
					c-2.3-1.9,0.2-5.4,2.7-3.9C499.5,142.7,518.3,158.4,534.9,177.4z M529.5,219.8h-38c-1,0-2-0.7-2.3-1.7
					c-5-15.7-10.9-30.4-17.6-43.9c-11.2-22.6-24.2-40.6-38.4-53.6c-2-1.9,0.1-5.1,2.6-3.9c39.4,17.8,73,53.3,95.8,99.6
					C532.5,217.9,531.3,219.8,529.5,219.8z M464.4,177.8c5.9,12,11.2,24.9,15.8,38.7c0.5,1.6-0.7,3.2-2.3,3.2h-39.1
					c-1.2,0-2.2-0.9-2.4-2c-2.5-15.2-5.4-29.5-8.7-42.7c-7.2-28.5-15.1-47-22.8-58.9c-1.3-2.1,0.9-4.6,3.1-3.5
					C429,123.5,448.4,145.8,464.4,177.8z M383,110.1c0-1.9,2.2-3.1,3.8-2c12,8.3,23.9,32.7,33,68.9c3.1,12.3,5.9,25.7,8.2,39.9
					c0.2,1.5-0.9,2.8-2.4,2.8h-40.2c-1.3,0-2.4-1.1-2.4-2.4V110.1z M370.4,219.8h-26.8c-1.4,0-2.5-1.2-2.4-2.7
					c5.5-59.3,25.4-100.9,30.3-110.5c0.4-0.2,0.9-0.4,1.3-0.6v111.3C372.8,218.7,371.7,219.8,370.4,219.8z M353.7,127.6
					c1.4-2.6,5.4-0.8,4.4,2c-7.8,20.5-17,51.7-20.2,90l1.5,0.1h-9.2c-1.5,0-2.6-1.4-2.4-2.8c2.4-14.2,5.1-27.6,8.2-39.9
					C341.2,156.5,347.3,139.8,353.7,127.6z M347.8,112.7c2.2-1.1,4.4,1.4,3.1,3.5c-7.7,11.9-15.6,30.4-22.8,58.9
					c-3.3,13.1-6.2,27.5-8.7,42.7c-0.2,1.2-1.2,2-2.4,2H278c-1.6,0-2.8-1.6-2.3-3.2c4.6-13.8,9.8-26.7,15.8-38.7
					C307.4,145.8,326.8,123.5,347.8,112.7z M319.9,116.7c2.5-1.1,4.7,2.1,2.6,3.9c-14.2,12.9-27.2,30.9-38.4,53.6
					c-6.7,13.5-12.6,28.2-17.6,43.9c-0.3,1-1.2,1.7-2.3,1.7h-38c-1.8,0-3-1.9-2.2-3.5C246.9,170,280.5,134.5,319.9,116.7z
					 M242.3,174.2c-10,13.6-18.7,28.4-26.1,44.2c-0.4,0.8-1.2,1.4-2.2,1.4h-18.9c-1.9,0-3-2-2.1-3.6c8.1-13.8,17.4-26.8,27.8-38.7
					c16.6-19,35.4-34.6,55.7-46.6c2.5-1.5,5,2.1,2.7,3.9C266,145.6,253.5,158.8,242.3,174.2z M175,219.8c-1.9,0-3.1-2.1-2.1-3.7
					c9-14,19.3-27.1,31-39.3c11.6-12.1,24.2-22.8,37.6-32.1c2.5-1.8,5.2,1.9,2.9,3.9c-9.4,7.8-18.3,16.6-26.6,26.1
					c-11.8,13.5-22.1,28.2-30.9,43.8c-0.4,0.8-1.2,1.2-2.1,1.2H175z M175.9,228.2c0.4-0.8,1.2-1.2,2.1-1.2h4.5h4.6h1.7
					c1.8,0,2.9,1.9,2.1,3.5c-7.6,15.5-13.9,31.7-18.5,48.6c-0.3,1-1.2,1.8-2.3,1.8h-4.2h-4.2h-5c-1.6,0-2.8-1.6-2.3-3.1
					C159.8,260.4,167,243.8,175.9,228.2z M139.7,412.6c-1.2,0-2.2-0.8-2.4-1.9c-3.5-17.3-5.3-35.1-5.3-53.2c0-23.2,3-45.8,8.7-67.6
					c0.3-1.1,1.3-1.8,2.4-1.8h13.8c1.5,0,2.7,1.4,2.3,2.9c-5,21.4-7.5,43.7-7.5,66.5c0,17.8,1.6,35.3,4.6,52.4
					c0.3,1.5-0.9,2.8-2.4,2.8H139.7z M147.7,441.5c-1.9-6.2-3.6-12.5-5-18.8c-0.3-1.5,0.8-3,2.4-3h13.2h4.2h7.2c1.2,0,2.1,0.8,2.3,2
					c1.2,6.3,2.5,12.4,4,18.5c0.4,1.5-0.8,3-2.3,3h-5h-4.3H150C148.9,443.2,148,442.5,147.7,441.5z M160.2,453.7
					c-0.6-1.6,0.6-3.3,2.3-3.3h4.2h4.3h4.2c1,0,1.9,0.7,2.3,1.6c5.8,16.9,13.2,33.1,22.1,48.4c0.9,1.6-0.2,3.6-2.1,3.6h-1.2h-4.8
					H188c-0.8,0-1.6-0.4-2-1.1C175.6,487.5,167,471,160.2,453.7z M186.3,511.2h8.4c0.8,0,1.6,0.4,2,1.1c4.9,7.4,10.1,14.5,15.7,21.4
					c1.3,1.6,0.2,3.9-1.8,3.9h-5.9c-0.7,0-1.3-0.3-1.8-0.8c-6.6-6.9-12.8-14.2-18.5-21.8C183.2,513.5,184.3,511.2,186.3,511.2z
					 M248,574.4h6c0.5,0,1,0.2,1.4,0.5c12.4,9.2,25.5,16.9,39.2,23C278.3,591.8,262.7,583.9,248,574.4z M269.6,574.4h2.2
					c0.6,0,1.1,0.2,1.6,0.6c2,1.7,3.9,3.4,6,5.1c2.3,1.9-0.2,5.4-2.7,3.9c-2.8-1.7-5.6-3.4-8.3-5.2
					C266.3,577.5,267.2,574.4,269.6,574.4z M289.2,574.4h14.3c0.7,0,1.4,0.4,1.9,0.9c5.5,7.1,11.1,13.4,17,18.8c2,1.9-0.1,5.1-2.6,4
					c-11.2-5.1-21.9-11.6-32.1-19.3C285.9,577.3,286.9,574.4,289.2,574.4z M320.3,574.4h2.4c0.9,0,1.8,0.5,2.2,1.4
					c1,2.1,2.2,4.2,3.4,6.1c1.5,2.4-1.7,5-3.7,3c-2-2-4-4.2-6-6.4C317.1,576.8,318.2,574.4,320.3,574.4z M356.2,605.9L356.2,605.9
					C356.2,605.9,356.2,605.9,356.2,605.9C356.2,605.9,356.2,605.9,356.2,605.9z M351.4,574.4h19c1.3,0,2.4,1.1,2.4,2.4v27.9
					c0,2-2.2,3.1-3.8,2c-6.8-4.7-13.5-14.6-19.8-28.9C348.5,576.2,349.7,574.4,351.4,574.4z M383,604.7v-27.9c0-1.3,1.1-2.4,2.4-2.4
					h19c1.7,0,2.9,1.8,2.2,3.4c-6.2,14.3-13,24.2-19.8,28.9C385.2,607.8,383,606.6,383,604.7z M404.9,598.7
					c3.8-5.8,7.6-13.3,11.4-22.7c0.4-0.9,1.3-1.5,2.2-1.5h16.9c2.1,0,3.2,2.5,1.8,4c-9.2,10.5-19.1,18.4-29.3,23.7
					C405.8,603.3,403.6,600.7,404.9,598.7z M433.3,594.1c5.9-5.4,11.6-11.7,17-18.8c0.5-0.6,1.2-0.9,1.9-0.9h14.3
					c2.3,0,3.3,2.9,1.5,4.3c-10.1,7.8-20.9,14.3-32.1,19.3C433.4,599.2,431.3,596,433.3,594.1z M484,574.4h2.2
					c2.4,0,3.3,3.1,1.3,4.5c-2.7,1.8-5.5,3.5-8.3,5.2c-2.5,1.5-5-2.1-2.7-3.9c2-1.6,4-3.3,6-5.1C482.9,574.6,483.4,574.4,484,574.4z
					 M461.2,597.9c13.6-6.2,26.8-13.9,39.2-23c0.4-0.3,0.9-0.5,1.4-0.5h6C493.1,583.9,477.5,591.8,461.2,597.9z M551.2,537.6h-5.9
					c-2,0-3.1-2.4-1.8-3.9c5.6-6.8,10.8-14,15.7-21.4c0.4-0.7,1.2-1.1,2-1.1h8.4c2,0,3.1,2.3,1.9,3.9c-5.7,7.6-11.9,14.8-18.5,21.8
					C552.5,537.3,551.9,537.6,551.2,537.6z M593.9,453.7c-6.2,17.3-14,33.8-23.4,49.2c-0.4,0.7-1.2,1.2-2.1,1.2h-4.1h-4.8h-4.1
					c11.4-16.6,19.1-42.6,21.6-51.8c0.3-1.1,1.2-1.8,2.3-1.8h5.5h4.3h2.5C593.3,450.4,594.5,452.1,593.9,453.7z M589.2,443.2h-2.1
					h-12.9c-1.6,0-2.8-1.5-2.3-3.1c1.8-6.1,3.4-12.3,4.8-18.5c0.2-1.1,1.2-1.9,2.3-1.9h14.3h2.7
					C594.1,427.7,591.9,435.5,589.2,443.2z M623.8,357.4c0,18.1-1.8,35.9-5.3,53.2c-0.2,1.1-1.2,1.9-2.4,1.9h-14.2
					c-1.5,0-2.6-1.3-2.4-2.8c3.1-17,4.6-34.6,4.6-52.4c0-22.7-2.6-45-7.5-66.5c-0.3-1.5,0.8-2.9,2.3-2.9h13.8c1.1,0,2.1,0.7,2.4,1.8
					C620.9,311.5,623.8,334.2,623.8,357.4z M621.9,277.7c0.5,1.6-0.7,3.1-2.3,3.1h-4.8h-2.1h-6.5c-1.1,0-2-0.7-2.3-1.8
					c-4.7-16.9-10.9-33.2-18.5-48.6c-0.8-1.6,0.3-3.5,2.1-3.5h2h2.3h6.5c0.9,0,1.7,0.5,2.1,1.2C609.3,243.8,616.4,260.4,621.9,277.7
					z"/>
				<rect x="107.9" y="337.7" clip-path="url(#SVGID_2_)" fill="#929394" width="541" height="39.3"/>
				<rect x="140" y="337.7" clip-path="url(#SVGID_2_)" fill="#9D9EA1" width="476.8" height="39.3"/>
				<rect x="286.7" y="337.7" clip-path="url(#SVGID_2_)" fill="#ADACAF" width="183.4" height="39.3"/>
				<rect x="325.6" y="337.7" clip-path="url(#SVGID_2_)" fill="#BBBABE" width="105.5" height="39.3"/>
				<rect x="361.7" y="337.7" clip-path="url(#SVGID_2_)" fill="#CACBD0" width="33.3" height="39.3"/>
				<g clip-path="url(#SVGID_2_)">
					<circle fill="#B7B6B9" cx="253.4" cy="425.5" r="1.7"/>
					<circle fill="#B7B6B9" cx="259.5" cy="425.5" r="1.7"/>
					<circle fill="#B7B6B9" cx="265.7" cy="425.5" r="1.7"/>
				</g>
				<g clip-path="url(#SVGID_2_)">
					<circle fill="#B7B6B9" cx="423.7" cy="457" r="1.7"/>
					<circle fill="#B7B6B9" cx="429.9" cy="457" r="1.7"/>
					<circle fill="#B7B6B9" cx="436.1" cy="457" r="1.7"/>
				</g>
				<g clip-path="url(#SVGID_2_)">
					<circle fill="#B7B6B9" cx="529.1" cy="235.8" r="1.7"/>
					<circle fill="#B7B6B9" cx="535.3" cy="235.8" r="1.7"/>
					<circle fill="#B7B6B9" cx="541.5" cy="235.8" r="1.7"/>
				</g>

					<radialGradient id="SVGID_4_" cx="379.3213" cy="327.1591" r="253.7226" gradientTransform="matrix(1 0 0 1.0876 0 -16.7492)" gradientUnits="userSpaceOnUse">
					<stop  offset="0.4854" style="stop-color:#FFFFFF;stop-opacity:0"/>
					<stop  offset="0.5849" style="stop-color:#F6F6F6;stop-opacity:0.1933"/>
					<stop  offset="0.6562" style="stop-color:#E5E4E3;stop-opacity:0.3318"/>
					<stop  offset="0.7186" style="stop-color:#CECCCC;stop-opacity:0.4532"/>
					<stop  offset="0.7761" style="stop-color:#B0ADAD;stop-opacity:0.5649"/>
					<stop  offset="0.8301" style="stop-color:#8D8A8A;stop-opacity:0.6698"/>
					<stop  offset="0.8815" style="stop-color:#686565;stop-opacity:0.7698"/>
					<stop  offset="0.9309" style="stop-color:#444141;stop-opacity:0.8657"/>
					<stop  offset="0.9775" style="stop-color:#1D1D1D;stop-opacity:0.9562"/>
					<stop  offset="1" style="stop-color:#010101"/>
				</radialGradient>
				<rect x="125.6" y="63.1" opacity="0.4" clip-path="url(#SVGID_2_)" fill="url(#SVGID_4_)" width="507.4" height="551.9"/>
			</g>
			<g>
				<path fill="#949497" d="M459.5,234c0,34.8-22,64.5-52.8,76c-8.8,3.3-18.3,5.1-28.3,5.1c-9.9,0-19.5-1.8-28.3-5.1
					c-30.9-11.5-52.8-41.2-52.8-76s22-64.5,52.8-76c8.8-3.3,18.3-5.1,28.3-5.1c9.9,0,19.5,1.8,28.3,5.1
					C437.5,169.4,459.5,199.2,459.5,234z"/>
				<path fill="#ADACAF" d="M458,234c0,34.2-21.6,63.4-51.9,74.7c-8.6,3.2-18,5-27.8,5c-9.8,0-19.1-1.8-27.8-5
					c-30.3-11.3-51.9-40.4-51.9-74.7s21.6-63.4,51.9-74.6c8.6-3.2,18-5,27.8-5c9.8,0,19.1,1.8,27.8,5C436.4,170.6,458,199.8,458,234
					z"/>
				<path fill="#BBBABE" d="M406.1,159.3v149.3c-3.6,1.3-7.3,2.4-11.1,3.2c-5.4,1.2-10.9,1.8-16.6,1.8c-5.7,0-11.3-0.6-16.6-1.8
					c-3.8-0.8-7.5-1.9-11.1-3.2V159.3c3.6-1.3,7.3-2.4,11.1-3.2c5.4-1.2,10.9-1.8,16.6-1.8c5.7,0,11.3,0.6,16.6,1.8
					C398.8,156.9,402.6,158,406.1,159.3z"/>
				<path fill="#CACBD0" d="M395,156.1v155.7c-5.4,1.2-10.9,1.8-16.6,1.8c-5.7,0-11.3-0.6-16.6-1.8V156.1c5.4-1.2,10.9-1.8,16.6-1.8
					C384.1,154.4,389.6,155,395,156.1z"/>
				<circle fill="#BBBABE" cx="378.4" cy="234" r="68.3"/>
				<circle fill="#ADACAF" cx="378.4" cy="234" r="49.8"/>
				<circle fill="#97989B" cx="378.4" cy="234" r="27.8"/>
				<circle fill="#878889" cx="378.4" cy="234" r="19.8"/>
				<circle fill="#535455" cx="378.4" cy="234" r="10.7"/>
			</g>
			<g>
				<rect x="130.9" y="350.8" fill="#6A6B6C" width="495" height="13.1"/>
			</g>
			<g>
				<rect x="130.9" y="350.8" fill="#5D5E5F" width="495" height="6.6"/>
			</g>
		</g>
		<g>
			<path fill="#35353C" d="M555.5,471l1.6,1.2c0.8,0.6,1.9,0.9,2.9,0.9h4l1.5-2.1H555.5z"/>
			<path fill="#6E6E7C" d="M560.5,466l-0.6-0.8c-0.6-0.8-1.5-1.3-2.4-1.3h-0.4c-1.4,0-2.6,0.9-2.9,2.3l-0.1,0.4L560.5,466z"/>
			<path fill="#4C4C55" d="M568.1,469.6c-0.1,1-1,1.8-2,1.8h-33.5l-0.3-1l33.6-3.1C567.2,467,568.3,468.2,568.1,469.6
				C568.1,469.5,568.1,469.5,568.1,469.6z"/>
			<path fill="#4C4C55" d="M547.4,469.3l1.3-2.3c0.2-0.4,0.6-0.6,1-0.6l11.6-1.1c0.3,0,0.5,0,0.8,0.2c1,0.5,2.4,2.3,2.5,2.2
				C563.4,467.9,547.4,469.3,547.4,469.3z"/>
		</g>
		<g>
			<path fill="#35353C" d="M67.3,283.3l-1.6,1.2c-0.8,0.6-1.9,0.9-2.9,0.9h-4l-1.5-2.1H67.3z"/>
			<path fill="#6E6E7C" d="M62.3,278.3l0.6-0.8c0.6-0.8,1.5-1.3,2.4-1.3h0.4c1.4,0,2.6,0.9,2.9,2.3l0.1,0.4L62.3,278.3z"/>
			<path fill="#4C4C55" d="M54.7,281.9c0.1,1,1,1.8,2,1.8h33.5l0.3-1l-33.6-3.1C55.6,279.3,54.5,280.5,54.7,281.9
				C54.7,281.8,54.7,281.8,54.7,281.9z"/>
			<path fill="#4C4C55" d="M75.4,281.6l-1.3-2.3c-0.2-0.4-0.6-0.6-1-0.6l-11.6-1.1c-0.3,0-0.5,0-0.8,0.2c-1,0.5-2.4,2.3-2.5,2.2
				C59.5,280.2,75.4,281.6,75.4,281.6z"/>
		</g>
		<g>
			<path fill="#35353C" d="M611.6,182.9L610,184c-0.8,0.6-1.9,0.9-2.9,0.9h-4l-1.5-2.1H611.6z"/>
			<path fill="#6E6E7C" d="M606.6,177.8l0.6-0.8c0.6-0.8,1.5-1.3,2.4-1.3h0.4c1.4,0,2.6,0.9,2.9,2.3l0.1,0.4L606.6,177.8z"/>
			<path fill="#4C4C55" d="M599,181.4c0.1,1,1,1.8,2,1.8h33.5l0.3-1l-33.6-3.1C599.9,178.9,598.8,180,599,181.4
				C599,181.4,599,181.4,599,181.4z"/>
			<path fill="#4C4C55" d="M619.7,181.2l-1.3-2.3c-0.2-0.4-0.6-0.6-1-0.6l-11.6-1.1c-0.3,0-0.5,0-0.8,0.2c-1,0.5-2.4,2.3-2.5,2.2
				C603.7,179.7,619.7,181.2,619.7,181.2z"/>
		</g>
	</g>
	<g>
		<circle fill="#6A6AA1" cx="523.9" cy="136.3" r="3.3"/>
		<circle fill="#6A6AA1" cx="592.4" cy="189.5" r="2.5"/>
		<circle fill="#6A6AA1" cx="611.9" cy="228.4" r="2.5"/>
		<circle fill="#6A6AA1" cx="655.7" cy="233.3" r="2.5"/>
		<circle fill="#6A6AA1" cx="654.2" cy="136.3" r="1.7"/>
		<circle fill="#6A6AA1" cx="587.8" cy="178.1" r="1.7"/>
		<circle fill="#6A6AA1" cx="669.3" cy="186.8" r="1.7"/>
		<circle fill="#6A6AA1" cx="548.3" cy="144.8" r="1.7"/>
		<circle fill="#6A6AA1" cx="516.8" cy="96.4" r="1.7"/>
	</g>
	<g>
		<circle fill="#6A6AA1" cx="143.9" cy="497.5" r="3.3"/>
		<circle fill="#6A6AA1" cx="130.3" cy="592.4" r="2.5"/>
		<circle fill="#6A6AA1" cx="193.5" cy="636.2" r="2.5"/>
		<circle fill="#6A6AA1" cx="192" cy="539.1" r="1.7"/>
		<circle fill="#6A6AA1" cx="125.6" cy="581" r="1.7"/>
		<circle fill="#6A6AA1" cx="207.1" cy="589.6" r="1.7"/>
		<circle fill="#6A6AA1" cx="86.2" cy="547.7" r="1.7"/>
		<circle fill="#6A6AA1" cx="54.7" cy="499.3" r="1.7"/>
		<circle fill="#6A6AA1" cx="30.5" cy="633.7" r="1.7"/>
	</g>
</g>
</svg>
