<?xml version="1.0" encoding="utf-8"?>
<!-- Generator: Adobe Illustrator 23.0.6, SVG Export Plug-In . SVG Version: 6.00 Build 0)  -->
<svg version="1.0" id="Layer_1" xmlns="http://www.w3.org/2000/svg" xmlns:xlink="http://www.w3.org/1999/xlink" x="250px" y="250px"
	 viewBox="0 0 500 500" enable-background="new 0 0 500 500" xml:space="preserve">
<g>
	<g id="endor">
		<g>

				<image overflow="visible" opacity="0.3" width="1075" height="1076" xlink:href="1F3C23AAF4046FE3.png"  transform="matrix(0.24 0 0 0.24 120.4041 126.391)">
			</image>
			<g>
				<circle fill="#151526" cx="249.3" cy="255.5" r="100"/>
			</g>
		</g>
		<g>
			<g>
				<defs>
					<circle id="SVGID_1_" cx="249.1" cy="255.5" r="101.4"/>
				</defs>
				<use xlink:href="#SVGID_1_"  overflow="visible" fill="#43A889"/>
				<clipPath id="SVGID_2_">
					<use xlink:href="#SVGID_1_"  overflow="visible"/>
				</clipPath>

					<radialGradient id="SVGID_3_" cx="292.0949" cy="226.4571" r="99.5557" fx="298.9368" fy="214.0566" gradientTransform="matrix(1.0648 0 0 1.1366 -59.0739 -13.6976)" gradientUnits="userSpaceOnUse">
					<stop  offset="0.4854" style="stop-color:#FFFFFF;stop-opacity:0"/>
					<stop  offset="0.5754" style="stop-color:#F6F6F6;stop-opacity:0.1933"/>
					<stop  offset="0.6398" style="stop-color:#E5E4E3;stop-opacity:0.3318"/>
					<stop  offset="0.6963" style="stop-color:#CECCCC;stop-opacity:0.4532"/>
					<stop  offset="0.7483" style="stop-color:#B0ADAD;stop-opacity:0.5649"/>
					<stop  offset="0.7971" style="stop-color:#8D8A8A;stop-opacity:0.6698"/>
					<stop  offset="0.8436" style="stop-color:#686565;stop-opacity:0.7698"/>
					<stop  offset="0.8882" style="stop-color:#444141;stop-opacity:0.8657"/>
					<stop  offset="0.9303" style="stop-color:#1D1D1D;stop-opacity:0.9562"/>
					<stop  offset="0.9507" style="stop-color:#010101"/>
				</radialGradient>
				<rect x="145.9" y="130.5" opacity="0.2" clip-path="url(#SVGID_2_)" fill="url(#SVGID_3_)" width="212" height="226.3"/>
				<path clip-path="url(#SVGID_2_)" fill="#406FB6" d="M165.7,270.8v-2.4c0-0.4,0.1-0.7,0.4-1l3.3-3.3c0.5-0.5,0.5-1.4,0-1.9
					l-1.4-1.4c-0.3-0.3-0.6-0.4-1-0.4h-2.8c-0.8,0-1.4,0.6-1.4,1.4v9c0,0.8,0.6,1.4,1.4,1.4C165.1,272.2,165.7,271.6,165.7,270.8z"
					/>
				<path clip-path="url(#SVGID_2_)" fill="#406FB6" d="M178.8,281.3c-0.2-0.1-0.4-0.3-0.5-0.6l-1.8-6.4c-0.2-0.8-1.4-1-1.8-0.2
					l-4.8,8.6c-0.1,0.2-0.2,0.5-0.1,0.7l1.3,4.6c0.1,0.2,0.2,0.5,0.5,0.6l4.4,2.5c0.2,0.1,0.5,0.2,0.7,0.1l4.8-1.3
					c0.3-0.1,0.5-0.3,0.6-0.5l1-2.2c0.1-0.2,0.1-0.5,0.1-0.7l-0.8-2.7c-0.1-0.2-0.2-0.5-0.5-0.6L178.8,281.3z"/>
				<g clip-path="url(#SVGID_2_)">
					<path fill="#406FB6" d="M189.4,321.5c0.4,0,0.7-0.2,0.7-0.6l1-5.9c0.1-0.4-0.2-0.7-0.6-0.8l-6.7-1.1c-0.5-0.1-0.7-0.8-0.3-1.1
						c0.3-0.2,0.3-0.6,0.1-0.9l-1.3-1.8c-0.2-0.3-0.7-0.4-1-0.2l-2.3,1.6c-0.3,0.2-0.4,0.7-0.2,1l6.6,9.3c0.1,0.2,0.3,0.3,0.5,0.3
						L189.4,321.5z"/>
					<path fill="#406FB6" d="M182.4,320.8l0.6-0.4c0.3-0.2,0.4-0.7,0.2-1l-2.6-3.6c-0.2-0.3-0.7-0.4-1-0.2L179,316
						c-0.3,0.2-0.4,0.7-0.2,1l2.6,3.6C181.6,321,182.1,321.1,182.4,320.8z"/>
				</g>
				<g clip-path="url(#SVGID_2_)">
					<path fill="#406FB6" d="M255.2,237l3.4-4c0.6-0.7,1.7-0.8,2.4-0.2l0,0c0.7,0.6,0.8,1.7,0.2,2.4l-3.4,4
						c-0.6,0.7-1.7,0.8-2.4,0.2l0,0C254.7,238.8,254.6,237.7,255.2,237z"/>
					<path fill="#406FB6" d="M276.1,226.6l-17.2,1.4c-0.2,0-0.5,0.1-0.6,0.3L250,238c-0.2,0.2-0.2,0.4-0.2,0.7l0.2,2.6
						c0,0.2-0.1,0.5-0.2,0.7l-2.9,3.5c-0.2,0.2-0.4,0.3-0.6,0.3l-2.2,0.2c-0.2,0-0.5,0.1-0.6,0.3l-3.8,4.5c-0.2,0.2-0.2,0.4-0.2,0.7
						l0.5,6c0,0.5-0.3,0.9-0.8,1l-2.1,0.2c-0.5,0-0.9-0.3-1-0.8l-0.8-9.9c0-0.2,0.1-0.5,0.2-0.7l3.8-4.5c0.2-0.2,0.2-0.4,0.2-0.7
						l-0.5-6.4c0-0.2,0.1-0.5,0.2-0.7l18.7-22c0.2-0.2,0.4-0.3,0.6-0.3l5.8-0.5c0.2,0,0.5-0.1,0.6-0.3l2.7-3.2
						c0.2-0.2,0.4-0.3,0.6-0.3l10.5-0.9c0.5,0,0.9,0.3,1,0.8l0.1,1.3c0,0.5-0.3,0.9-0.8,1l-3,0.2c-0.5,0-0.9,0.5-0.8,1l0,0
						c0,0.5,0.5,0.9,1,0.8l14.6-1.2c0.2,0,0.5-0.1,0.6-0.3l1.2-1.4c0.3-0.4,0.9-0.4,1.3-0.1l2.4,2c0.2,0.2,0.3,0.4,0.3,0.6l0.4,5
						c0,0.2-0.1,0.5-0.2,0.7l-1.7,2c-0.3,0.4-0.9,0.4-1.3,0.1l-4-3.4c-0.2-0.2-0.4-0.2-0.7-0.2l-11.1,0.9c-0.2,0-0.5,0.1-0.6,0.3
						l-1.4,1.6c-0.3,0.4-0.3,1,0.1,1.3l2.5,2.2c0.4,0.3,0.4,0.9,0.1,1.3l-1.9,2.3C276.6,226.5,276.3,226.6,276.1,226.6z"/>
					<path fill="#406FB6" d="M283.9,222.1l4.2-0.3c0.4,0,0.6-0.3,0.6-0.7l0,0c0-0.4-0.3-0.6-0.7-0.6l-4.2,0.3
						c-0.4,0-0.6,0.3-0.6,0.7l0,0C283.2,221.9,283.5,222.1,283.9,222.1z"/>
				</g>
				<g clip-path="url(#SVGID_2_)">
					<circle fill="#406FB6" cx="314" cy="312.2" r="0.9"/>
					<path fill="#406FB6" d="M327.7,297.9l-3.3,7c-0.2,0.4-0.7,0.6-1.1,0.4l0,0c-0.4-0.2-0.6-0.7-0.4-1.1l3.3-7
						c0.2-0.4,0.7-0.6,1.1-0.4l0,0C327.7,297,327.9,297.5,327.7,297.9z"/>
					<path fill="#406FB6" d="M321.2,290.4l-0.3,0.7c-0.4,0.8-1.4,1.2-2.3,0.8c-0.4-0.2-0.7-0.5-0.9-1L317,289
						c-0.3-0.9-1.3-1.3-2.2-1l-4.1,1.5c-0.9,0.3-1.3,1.3-1,2.2l1.8,4.8c0.3,0.9-0.1,1.8-1,2.2l-4.7,1.9c-0.8,0.3-1.3,1.3-1,2.2
						l1.6,4.5c0.2,0.4,0.5,0.8,0.9,1l3.3,1.5c0.4,0.2,0.9,0.2,1.3,0.1l7.4-2.7c0.4-0.2,0.8-0.5,1-0.9l5.4-11.5
						c0.2-0.4,0.2-0.9,0.1-1.3l-0.9-2.6c-0.2-0.4-0.5-0.8-0.9-1l-0.5-0.2C322.6,289.2,321.6,289.6,321.2,290.4z M310,306.1
						c-0.3,0.6-1,0.8-1.6,0.6c-0.6-0.3-0.8-1-0.6-1.6c0.3-0.6,1-0.8,1.6-0.6C310,304.9,310.3,305.6,310,306.1z"/>
				</g>
				<g clip-path="url(#SVGID_2_)">
					<circle fill="#406FB6" cx="333.5" cy="218.6" r="1.7"/>
					<circle fill="#406FB6" cx="323.8" cy="227.1" r="0.8"/>
					<path fill="#406FB6" d="M330,212l-0.1-3.4c0-0.7-0.3-1.4-0.9-1.9l-7-6.5c-0.5-0.5-1.2-0.7-1.9-0.7l-4.1,0.1
						c-1.5,0.1-2.7,1.3-2.6,2.8l0.2,6.1c0.1,1.5,1.3,2.7,2.8,2.6l4.6-0.2c0.7,0,1.4,0.2,1.9,0.7l2.5,2.3c1.1,1,2.8,1,3.8-0.1l0,0
						C329.8,213.4,330,212.7,330,212z"/>
					<circle fill="#406FB6" cx="321.5" cy="220.6" r="1.7"/>
				</g>
				<g clip-path="url(#SVGID_2_)">
					<circle fill="#406FB6" cx="279.9" cy="289.7" r="0.9"/>
					<path fill="#406FB6" d="M288.3,312.9l5.4-7.8c0.2-0.3,0.2-0.6,0.2-0.9l-1.1-5.8c-0.1-0.6,0.3-1.3,0.9-1.4l4.5-0.8
						c0.3-0.1,0.6-0.2,0.8-0.5l1.9-2.7c0.2-0.3,0.2-0.6,0.2-0.9l-1-5.5c-0.1-0.6-0.7-1.1-1.4-0.9l-0.7,0.1c-0.6,0.1-1.1,0.7-0.9,1.4
						l0.5,2.5c0.1,0.3,0,0.6-0.2,0.9l-1.6,2.3c-0.2,0.3-0.4,0.4-0.8,0.5l-1.3,0.2c-0.6,0.1-1.3-0.3-1.4-0.9l-1.3-7
						c-0.1-0.3,0-0.6,0.2-0.9l2.3-3.4c0.4-0.5,0.2-1.3-0.3-1.6l-2.2-1.5l-5.5-3.8c-0.3-0.2-0.6-0.2-0.9-0.2l-4.4,0.8
						c-0.6,0.1-1.1,0.7-0.9,1.4l0.7,3.6c0.1,0.6,0.7,1.1,1.4,0.9l0.4-0.1c0.6-0.1,1.3,0.3,1.4,0.9l2,10.8c0.1,0.3,0,0.6-0.2,0.9
						l-7.6,11.2c-0.2,0.3-0.4,0.4-0.8,0.5l-4.9,0.9c-0.6,0.1-1.1,0.7-0.9,1.4l1.1,6c0.1,0.3,0,0.6-0.2,0.9l-3,4.4
						c-0.4,0.5-0.2,1.3,0.3,1.6l4,2.7c0.5,0.4,1.3,0.2,1.6-0.3l3.2-4.6c0.2-0.3,0.4-0.4,0.8-0.5l3.7-0.7c0.6-0.1,1.3,0.3,1.4,0.9
						l0,0c0.1,0.6,0.7,1.1,1.4,0.9l2.4-0.4c0.6-0.1,1-0.6,1-1.2l-0.2-3.7C288.1,313.3,288.2,313.1,288.3,312.9z"/>
				</g>
				<g clip-path="url(#SVGID_2_)">
					<path fill="#406FB6" d="M188.9,230.5l-4.6-2.6c-0.8-0.5-1.1-1.5-0.7-2.3h0c0.5-0.8,1.5-1.1,2.3-0.7l4.6,2.6
						c0.8,0.5,1.1,1.5,0.7,2.3v0C190.8,230.6,189.7,230.9,188.9,230.5z"/>
					<path fill="#406FB6" d="M174.7,211.9l4.7,16.6c0.1,0.2,0.2,0.4,0.4,0.5l11,6.2c0.2,0.1,0.5,0.1,0.7,0.1l2.5-0.7
						c0.2-0.1,0.5,0,0.7,0.1l4,2.2c0.2,0.1,0.4,0.3,0.4,0.5l0.6,2.2c0.1,0.2,0.2,0.4,0.4,0.5l5.1,2.9c0.2,0.1,0.5,0.1,0.7,0.1
						l5.8-1.6c0.5-0.1,1,0.1,1.1,0.6l0.6,2c0.1,0.5-0.1,1-0.6,1.1l-9.5,2.7c-0.2,0.1-0.5,0-0.7-0.1l-5.2-2.9
						c-0.2-0.1-0.5-0.1-0.7-0.1l-6.2,1.7c-0.2,0.1-0.5,0-0.7-0.1l-25.1-14.1c-0.2-0.1-0.4-0.3-0.4-0.5l-1.6-5.6
						c-0.1-0.2-0.2-0.4-0.4-0.5l-3.6-2c-0.2-0.1-0.4-0.3-0.4-0.5l-2.9-10.2c-0.1-0.5,0.1-1,0.6-1.1l1.2-0.3c0.5-0.1,1,0.1,1.1,0.6
						l0.8,2.9c0.1,0.5,0.6,0.8,1.1,0.6l0,0c0.5-0.1,0.8-0.6,0.6-1.1l-4-14.1c-0.1-0.2-0.2-0.4-0.4-0.5l-1.6-0.9
						c-0.4-0.2-0.6-0.8-0.3-1.2l1.5-2.7c0.1-0.2,0.3-0.4,0.5-0.4l4.9-1.4c0.2-0.1,0.5,0,0.7,0.1l2.3,1.3c0.4,0.2,0.6,0.8,0.3,1.2
						l-2.6,4.6c-0.1,0.2-0.1,0.5-0.1,0.7l3,10.7c0.1,0.2,0.2,0.4,0.4,0.5l1.9,1.1c0.4,0.2,1,0.1,1.2-0.3l1.6-2.9
						c0.2-0.4,0.8-0.6,1.2-0.3l2.6,1.5C174.5,211.5,174.7,211.7,174.7,211.9z"/>
					<path fill="#406FB6" d="M168.8,205.2l-1.1-4.1c-0.1-0.3-0.5-0.5-0.8-0.4l0,0c-0.3,0.1-0.5,0.5-0.4,0.8l1.1,4.1
						c0.1,0.3,0.5,0.5,0.8,0.4l0,0C168.7,205.9,168.9,205.5,168.8,205.2z"/>
				</g>
				<g clip-path="url(#SVGID_2_)">
					<path fill="#406FB6" d="M317.8,142.6l-3.8,3.7c-0.7,0.7-1.8,0.6-2.4,0v0c-0.7-0.7-0.6-1.8,0-2.4l3.8-3.7c0.7-0.7,1.8-0.6,2.4,0
						l0,0C318.5,140.8,318.5,141.9,317.8,142.6z"/>
					<path fill="#406FB6" d="M296,150.9l17.3,0.3c0.2,0,0.5-0.1,0.6-0.3l9.1-8.8c0.2-0.2,0.3-0.4,0.3-0.6l0-2.6
						c0-0.2,0.1-0.5,0.3-0.6l3.3-3.2c0.2-0.2,0.4-0.3,0.6-0.3l2.2,0c0.2,0,0.5-0.1,0.6-0.3l4.2-4.1c0.2-0.2,0.3-0.4,0.3-0.6l0.1-6
						c0-0.5,0.4-0.9,0.9-0.9l2.1,0c0.5,0,0.9,0.4,0.9,0.9l-0.2,9.9c0,0.2-0.1,0.5-0.3,0.6l-4.3,4.1c-0.2,0.2-0.3,0.4-0.3,0.6
						l-0.1,6.5c0,0.2-0.1,0.5-0.3,0.6l-20.7,20c-0.2,0.2-0.4,0.3-0.6,0.3l-5.8-0.1c-0.2,0-0.5,0.1-0.6,0.3l-3,2.9
						c-0.2,0.2-0.4,0.3-0.6,0.3l-10.6-0.2c-0.5,0-0.9-0.4-0.9-0.9l0-1.3c0-0.5,0.4-0.9,0.9-0.9l3,0.1c0.5,0,0.9-0.4,0.9-0.9l0,0
						c0-0.5-0.4-0.9-0.9-0.9l-14.6-0.3c-0.2,0-0.5,0.1-0.6,0.3l-1.3,1.2c-0.4,0.4-0.9,0.3-1.3,0l-2.2-2.3c-0.2-0.2-0.3-0.4-0.3-0.6
						l0.1-5.1c0-0.2,0.1-0.5,0.3-0.6l1.9-1.9c0.4-0.4,0.9-0.3,1.3,0l3.7,3.8c0.2,0.2,0.4,0.3,0.6,0.3l11.2,0.2
						c0.2,0,0.5-0.1,0.6-0.3l1.6-1.5c0.4-0.4,0.4-0.9,0-1.3l-2.3-2.4c-0.4-0.4-0.3-0.9,0-1.3l2.1-2.1
						C295.5,150.9,295.8,150.8,296,150.9z"/>
					<path fill="#406FB6" d="M287.8,154.6l-4.3-0.1c-0.4,0-0.7,0.3-0.7,0.6l0,0c0,0.4,0.3,0.7,0.6,0.7l4.3,0.1
						c0.4,0,0.7-0.3,0.7-0.6l0,0C288.5,154.9,288.2,154.6,287.8,154.6z"/>
				</g>
				<g opacity="0.35" clip-path="url(#SVGID_2_)">
					<path fill="#FFFFFF" d="M157,273.4c10.7-8.8,8.6-11.3,19.3-20.1c10.7-8.8,10.1-9.5,20.7-18.4c10.7-8.8,10.6-8.9,21.2-17.8
						c10.7-8.8,11.2-8.2,21.9-17c6.1-5.1,18.2-5.3,23.2,0.9c0,0-3.3,2.7-3.3,2.7c5.1,6.1,4.6,13.7-1.5,18.8c-2.7,2.2-1.4,3.8-4.1,6
						c-6.1,5.1-9.6,14.8-4.5,20.9c1.1,1.4,3-0.2,4.1,1.1c5.1,6.1,6,17.4-0.1,22.5c-15.9,13.1-17.9,10.7-33.8,23.8
						c-2.9,2.4-5,6.1-5.4,9.9c-1.5,15.9-0.4,16-1.9,31.9c-0.8,7.9-8.7,15.2-16.6,14.4c-19.1-1.8-18.7-5.2-37.8-7.1
						c-7.9-0.8-12.3-5.8-11.5-13.7c1.2-12.8-0.9-13,0.3-25.7c1.2-12.8,2.6-12.6,3.8-25.4C151.4,277.6,154,275.8,157,273.4z"/>
				</g>
				<g opacity="0.25" clip-path="url(#SVGID_2_)">
					<path fill="#FFFFFF" d="M279.1,269c10.7-8.8,10-9.6,20.7-18.4c10.7-8.8,8.7-11.3,19.3-20.1c10.7-8.8,11.3-8,22-16.8
						c10.7-8.8,9.8-9.8,20.5-18.6c6.1-5.1,15.1-1.9,20.1,4.2c0,0,0.6-0.5,0.6-0.4c5.1,6.1,5.2,15.2-0.9,20.3
						c-2.7,2.2-2.9,1.9-5.6,4.2c-6.1,5.1-8.7,15.1-3.7,21.2c1.1,1.4,4.3-1.3,5.4,0.1c5.1,6.1,0.6,14.3-5.5,19.3
						c-15.9,13.1-15.7,13.3-31.6,26.4c-2.9,2.4-5.2,7.8-5.6,11.6c-1.5,15.9-2,15.9-3.5,31.8c-0.8,7.9-5,12.8-12.9,12.1
						c-19.1-1.8-19.1-1-38.2-2.8c-7.9-0.8-16.5-7.8-15.8-15.7c1.2-12.8,4.6-12.4,5.8-25.2c1.2-12.8-2.3-13.1-1.1-25.9
						C269.6,272.5,276.1,271.4,279.1,269z"/>
				</g>
				<g display="none" opacity="0.25" clip-path="url(#SVGID_2_)">
					<circle display="inline" fill="#FFFFFF" cx="190" cy="253.4" r="2.5"/>
					<path display="inline" fill="#FFFFFF" d="M128.7,281l22.4,13c0.7,0.4,1.6,0.5,2.4,0.3l15.6-4.1c1.7-0.5,3.5,0.6,3.9,2.3
						l3.2,11.9c0.2,0.8,0.8,1.5,1.5,1.9l7.8,4.5c0.7,0.4,1.6,0.5,2.4,0.3l14.7-3.9c1.7-0.5,2.7-2.2,2.3-3.9l-0.5-1.8
						c-0.5-1.7-2.2-2.7-3.9-2.3l-6.7,1.8c-0.8,0.2-1.7,0.1-2.4-0.3l-6.7-3.9c-0.7-0.4-1.3-1.1-1.5-1.9l-0.9-3.4
						c-0.5-1.7,0.6-3.5,2.3-3.9l18.6-5c0.8-0.2,1.7-0.1,2.4,0.3l9.7,5.6c1.5,0.9,3.5,0.4,4.4-1.2l3.6-6.1l9.1-15.7
						c0.4-0.7,0.5-1.6,0.3-2.4l-3.1-11.7c-0.5-1.7-2.2-2.7-3.9-2.3l-9.8,2.6c-1.7,0.5-2.7,2.2-2.3,3.9l0.3,1
						c0.5,1.7-0.6,3.5-2.3,3.9l-28.9,7.7c-0.8,0.2-1.7,0.1-2.4-0.3l-31.8-18.4c-0.7-0.4-1.3-1.1-1.5-1.9l-3.5-13.1
						c-0.5-1.7-2.2-2.7-3.9-2.3l-16.1,4.3c-0.8,0.2-1.7,0.1-2.4-0.3l-12.5-7.2c-1.5-0.9-3.5-0.4-4.4,1.2l-6.6,11.3
						c-0.9,1.5-0.4,3.5,1.2,4.4l13.2,7.6c0.7,0.4,1.3,1.1,1.5,1.9l2.6,9.9c0.5,1.7-0.6,3.5-2.3,3.9l0,0c-1.7,0.5-2.7,2.2-2.3,3.9
						l1.7,6.4c0.4,1.5,1.9,2.5,3.5,2.4l10.1-1.2C127.4,280.5,128.1,280.7,128.7,281z"/>
				</g>
				<g display="none" opacity="0.25" clip-path="url(#SVGID_2_)">
					<circle display="inline" fill="#FFFFFF" cx="363.5" cy="206.5" r="2.5"/>
					<path display="inline" fill="#FFFFFF" d="M302.2,234.1l22.4,13c0.7,0.4,1.6,0.5,2.4,0.3l15.6-4.1c1.7-0.5,3.5,0.6,3.9,2.3
						l3.2,11.9c0.2,0.8,0.8,1.5,1.5,1.9l7.8,4.5c0.7,0.4,1.6,0.5,2.4,0.3l14.7-3.9c1.7-0.5,2.7-2.2,2.3-3.9l-0.5-1.8
						c-0.5-1.7-2.2-2.7-3.9-2.3l-6.7,1.8c-0.8,0.2-1.7,0.1-2.4-0.3l-6.7-3.9c-0.7-0.4-1.3-1.1-1.5-1.9l-0.9-3.4
						c-0.5-1.7,0.6-3.5,2.3-3.9l18.6-5c0.8-0.2,1.7-0.1,2.4,0.3l9.7,5.6c1.5,0.9,3.5,0.4,4.4-1.2l3.6-6.1l9.1-15.7
						c0.4-0.7,0.5-1.6,0.3-2.4l-3.1-11.7c-0.5-1.7-2.2-2.7-3.9-2.3l-9.8,2.6c-1.7,0.5-2.7,2.2-2.3,3.9l0.3,1
						c0.5,1.7-0.6,3.5-2.3,3.9l-28.9,7.7c-0.8,0.2-1.7,0.1-2.4-0.3l-31.8-18.4c-0.7-0.4-1.3-1.1-1.5-1.9l-3.5-13.1
						c-0.5-1.7-2.2-2.7-3.9-2.3l-16.1,4.3c-0.8,0.2-1.7,0.1-2.4-0.3l-12.5-7.2c-1.5-0.9-3.5-0.4-4.4,1.2l-6.6,11.3
						c-0.9,1.5-0.4,3.5,1.2,4.4l13.2,7.6c0.7,0.4,1.3,1.1,1.5,1.9l2.6,9.9c0.5,1.7-0.6,3.5-2.3,3.9l0,0c-1.7,0.5-2.7,2.2-2.3,3.9
						l1.7,6.4c0.4,1.5,1.9,2.5,3.5,2.4l10.1-1.2C300.9,233.6,301.6,233.8,302.2,234.1z"/>
				</g>
				<g opacity="0.5" clip-path="url(#SVGID_2_)">
					<circle fill="#FFFFFF" cx="228.9" cy="333.1" r="1.7"/>
					<path fill="#FFFFFF" d="M212.9,375.4l16.8-4.5c0.6-0.1,1-0.5,1.3-1l5.4-9.4c0.6-1,1.9-1.4,2.9-0.8l7.2,4.2
						c0.5,0.3,1.1,0.4,1.6,0.2l5.8-1.6c0.6-0.1,1-0.5,1.3-1l5.1-8.9c0.6-1,0.2-2.3-0.8-2.9l-1.1-0.6c-1-0.6-2.3-0.2-2.9,0.8
						l-2.4,4.1c-0.3,0.5-0.8,0.9-1.3,1l-5,1.3c-0.6,0.1-1.1,0.1-1.6-0.2l-2.1-1.2c-1-0.6-1.4-1.9-0.8-2.9l6.5-11.2
						c0.3-0.5,0.8-0.9,1.3-1l7.3-1.9c1.1-0.3,1.8-1.5,1.5-2.6l-1.2-4.6l-3.1-11.8c-0.1-0.6-0.5-1-1-1.3l-7.1-4.1
						c-1-0.6-2.3-0.2-2.9,0.8l-3.4,5.9c-0.6,1-0.2,2.3,0.8,2.9l0.6,0.4c1,0.6,1.4,1.9,0.8,2.9l-10.1,17.4c-0.3,0.5-0.8,0.9-1.3,1
						l-23.9,6.4c-0.6,0.1-1.1,0.1-1.6-0.2l-7.9-4.6c-1-0.6-2.3-0.2-2.9,0.8l-5.6,9.7c-0.3,0.5-0.8,0.9-1.3,1l-9.4,2.5
						c-1.1,0.3-1.8,1.5-1.5,2.6l2.3,8.5c0.3,1.1,1.5,1.8,2.6,1.5l9.9-2.6c0.6-0.1,1.1-0.1,1.6,0.2l6,3.4c1,0.6,1.4,1.9,0.8,2.9l0,0
						c-0.6,1-0.2,2.3,0.8,2.9l3.8,2.2c0.9,0.5,2.1,0.3,2.8-0.5l4.3-5.4C212,375.8,212.4,375.5,212.9,375.4z"/>
				</g>
				<g opacity="0.5" clip-path="url(#SVGID_2_)">
					<circle fill="#FFFFFF" cx="219.5" cy="150.2" r="1.7"/>
					<path fill="#FFFFFF" d="M203.5,192.6l16.8-4.5c0.6-0.1,1-0.5,1.3-1l5.4-9.4c0.6-1,1.9-1.4,2.9-0.8l7.2,4.2
						c0.5,0.3,1.1,0.4,1.6,0.2l5.8-1.6c0.6-0.1,1-0.5,1.3-1l5.1-8.9c0.6-1,0.2-2.3-0.8-2.9l-1.1-0.6c-1-0.6-2.3-0.2-2.9,0.8
						l-2.4,4.1c-0.3,0.5-0.8,0.9-1.3,1l-5,1.3c-0.6,0.1-1.1,0.1-1.6-0.2l-2.1-1.2c-1-0.6-1.4-1.9-0.8-2.9l6.5-11.2
						c0.3-0.5,0.8-0.9,1.3-1l7.3-1.9c1.1-0.3,1.8-1.5,1.5-2.6l-1.2-4.6l-3.1-11.8c-0.1-0.6-0.5-1-1-1.3l-7.1-4.1
						c-1-0.6-2.3-0.2-2.9,0.8l-3.4,5.9c-0.6,1-0.2,2.3,0.8,2.9l0.6,0.4c1,0.6,1.4,1.9,0.8,2.9l-10.1,17.4c-0.3,0.5-0.8,0.9-1.3,1
						l-23.9,6.4c-0.6,0.1-1.1,0.1-1.6-0.2l-7.9-4.6c-1-0.6-2.3-0.2-2.9,0.8l-5.6,9.7c-0.3,0.5-0.8,0.9-1.3,1l-9.4,2.5
						c-1.1,0.3-1.8,1.5-1.5,2.6l2.3,8.5c0.3,1.1,1.5,1.8,2.6,1.5l9.9-2.6c0.6-0.1,1.1-0.1,1.6,0.2l6,3.4c1,0.6,1.4,1.9,0.8,2.9l0,0
						c-0.6,1-0.2,2.3,0.8,2.9l3.8,2.2c0.9,0.5,2.1,0.3,2.8-0.5l4.3-5.4C202.6,192.9,203,192.7,203.5,192.6z"/>
				</g>
				<circle opacity="0.1" clip-path="url(#SVGID_2_)" fill="#070707" cx="196.2" cy="218.2" r="52.5"/>
			</g>
		</g>
		<circle fill="#E8E7F4" cx="214.6" cy="165" r="0.8"/>
		<circle fill="#E8E7F4" cx="229.8" cy="161.6" r="0.8"/>
		<g id="glow">

				<radialGradient id="SVGID_4_" cx="254.159" cy="246.2329" r="84.8545" fx="270.5175" fy="202.7628" gradientUnits="userSpaceOnUse">
				<stop  offset="0.1187" style="stop-color:#9FDADE;stop-opacity:0.8"/>
				<stop  offset="0.8195" style="stop-color:#79D0EB;stop-opacity:0.15"/>
			</radialGradient>
			<circle opacity="0.75" fill="url(#SVGID_4_)" cx="254.2" cy="246.2" r="86.8"/>
			<g display="none">

					<ellipse transform="matrix(0.566 -0.8244 0.8244 0.566 -66.6173 322.3626)" display="inline" opacity="0.3" fill="#79D0EB" cx="272.9" cy="224.5" rx="51" ry="55.8"/>

					<ellipse transform="matrix(0.6027 -0.7979 0.7979 0.6027 -53.1404 309.8561)" display="inline" opacity="0.4" fill="#79D0EB" cx="284.6" cy="208.3" rx="26" ry="33.7"/>
			</g>
		</g>
		<g>
			<g>

					<image overflow="visible" opacity="0.1" width="166" height="132" xlink:href="1F3C23AAF4046FE1.png"  transform="matrix(0.24 0 0 0.24 263.8677 220.1746)">
				</image>
				<g>
					<g>
						<g display="none">
							<path display="inline" fill="#FFFFFF" d="M252.5,213c2.2-1.8,1.8-2.4,4-4.2c2.2-1.8,2-2.1,4.3-3.9c2.2-1.8,2.5-1.6,4.7-3.4
								s2.3-1.8,4.5-3.6c1.3-1.1,3.5-1.1,4.6,0.2c0,0,0,0,0,0c1.1,1.3,0.6,3.4-0.7,4.4c-0.6,0.5-0.6,0.4-1.2,0.9c-1.3,1.1-1,2.7,0,4
								c0.2,0.3-0.3,0.7,0,1c1.1,1.3,1,3-0.3,4.1c-3.3,2.7-3.6,2.4-6.9,5.2c-0.6,0.5-0.9,1.6-1,2.4c-0.3,3.3-0.3,3.3-0.7,6.6
								c-0.2,1.7-1.4,2.6-3,2.5c-4-0.4-4-0.5-7.9-0.9c-1.7-0.2-2.6-1.2-2.5-2.9c0.3-2.7-0.3-2.7,0-5.4c0.3-2.7,0.8-2.6,1-5.3
								C251.4,213.8,251.8,213.5,252.5,213z"/>
						</g>
						<g>
							<path fill="#FFFFFF" d="M269,227.4c0-1.4-0.1-1.4-0.1-2.8c0-0.4,0.2-0.8,0.5-1.1c0.6-0.6,0.5-0.6,1.1-1.1
								c0.6-0.6,1.6-0.6,2.2,0c0.3,0.3,0.2,0.4,0.5,0.6c0.3,0.3,0.5,0.6,0.5,1c0,1.2,0.7,1.4,0,2.4c-0.5,0.7-1-0.5-1.7,0
								c-0.4,0.2,0.1,0.5,0.1,1c0,1.2-1.3,1.8-2.3,1.3c0,0,0,0,0,0C269.3,228.4,269,228,269,227.4z"/>
						</g>
						<g>
							<path fill="#FFFFFF" d="M289.2,241.9c-2.3-2.7-2.3-2.7-4.5-5.4c-0.7-0.8-1.1-1.8-1-2.9c0.2-2,0.3-2,0.5-4
								c0.2-2.1,2-3.6,4.1-3.5c1,0.1,1,0.1,2.1,0.2c1,0.1,2,0.5,2.6,1.3c1.9,2.3,3.5,1.6,3.7,4.5c0.2,2.1-2.4,0.7-3.1,2.8
								c-0.4,1.2,0.9,0.9,1.7,1.8c1.9,2.2,0.7,5.7-2.2,6.3c0,0,0,0,0,0C291.6,243.4,290.1,242.9,289.2,241.9z"/>
						</g>
						<g>
							<path fill="#FFFFFF" d="M269.3,234.3c0,0.5-0.3,1.8-0.9,1.8s-1-1.3-1-1.8c0-0.5,0.4-0.9,0.9-0.9S269.3,233.8,269.3,234.3z"/>
						</g>
					</g>
				</g>
			</g>
			<g>

					<image overflow="visible" opacity="0.1" width="125" height="121" xlink:href="1F3C23AAF4046FE7.png"  transform="matrix(0.24 0 0 0.24 168.893 291.0399)">
				</image>
				<g>
					<path fill="#FFFFFF" d="M175.7,294.7c-0.7,1-0.9,3.1-0.3,4.1c1.4,2.3,1.7,2.1,3.1,4.4c0.6,0.9,1.6,1.4,2.7,1.4
						c1.2,0,1.2,0.2,2.4,0.2c2.2,0,3.8-2.6,2.8-4.6c0,0,0.4-0.2,0.4-0.2c-0.4-0.8-1.4-1.2-2.2-1.4c-1.7-0.6-1.7-0.4-3.4-0.9
						c-1.3-0.4-2.3-1.4-2.3-2.8C177.6,293.8,177.2,294.1,175.7,294.7z"/>
				</g>
			</g>
			<g display="none">

					<image display="inline" overflow="visible" opacity="0.1" width="206" height="205" xlink:href="1F3C23AAF4046FE0.png"  transform="matrix(0.24 0 0 0.24 247.07 235.0569)">
				</image>
				<g display="inline">
					<path fill="#FFFFFF" d="M257.8,257.4c1.5,1.4,4.8,2.2,6.7,1.3c4.1-1.8,3.9-2.3,8.1-4.1c1.6-0.7,2.7-2.4,3-4.2
						c0.3-2,0.6-1.9,0.8-3.9c0.5-3.7-3.4-6.8-7-5.7c0,0-0.2-0.6-0.2-0.6c-1.3,0.4-2.3,2.1-2.9,3.3c-1.3,2.7-1,2.8-2.3,5.5
						c-1,2-2.9,3.5-5.1,3.3C256.6,254.1,257.2,254.8,257.8,257.4z"/>
				</g>
			</g>
			<g display="none">

					<image display="inline" overflow="visible" opacity="0.1" width="111" height="102" xlink:href="1F3C23AAF4046FEE.png"  transform="matrix(0.24 0 0 0.24 183.2235 269.3704)">
				</image>
				<g display="inline">
					<path fill="#FFFFFF" d="M199,282.3c-3.3-3.3-3.7-2.9-7.1-6.2c-0.2-0.2-0.4-0.7-0.7-0.7c-1.2,0-1.2-0.4-2.5-0.4
						c-0.7,0-1,0-1-0.8c0,0-0.3,0-0.3,0c0-0.7,0.6-1.7,1.3-1.7c1.9,0,1.9,0.6,3.8,0.6c0.3,0,1,0,1.3-0.3c0.4-0.4,0.5-0.3,0.8-0.7
						c0.5-0.5,0.9-0.9,1.4-0.4c0.9,0.9,1,0.8,1.9,1.7c0.2,0.2-0.1,0.6-0.1,1c0,1.3,0.3,1.3,0.3,2.7c0,0.3,0.1,0.9,0.3,1.1
						c1.3,1.3,1.5,1.1,2.8,2.4c0.8,0.8,0.3,2.7-0.9,2.8c-0.3,0-0.3-0.9-0.6-0.9C199.3,282.5,199.2,282.6,199,282.3z"/>
				</g>
			</g>
			<g display="none">

					<image display="inline" overflow="visible" opacity="0.1" width="285" height="261" xlink:href="1F3C23AAF4046FEF.png"  transform="matrix(0.24 0 0 0.24 170.1798 245.0467)">
				</image>
				<g display="inline">
					<path fill="#FFFFFF" d="M210.8,278.1c-8.6-8.6-9.7-7.4-18.2-16c-0.6-0.6-1-1.9-1.9-1.9c-3.2,0-3.2-1-6.4-1
						c-1.9,0-2.5-0.1-2.5-2c0,0-0.9,0-0.9,0c0-1.9,1.5-4.3,3.3-4.3c4.9,0,4.9,1.6,9.7,1.6c0.9,0,2.7-0.1,3.3-0.7
						c1-1,1.2-0.8,2.2-1.8c1.3-1.3,2.2-2.3,3.6-1c2.4,2.4,2.6,2.1,5,4.5c0.6,0.6-0.2,1.7-0.2,2.6c0,3.4,0.7,3.4,0.7,6.9
						c0,0.9,0.1,2.3,0.8,3c3.3,3.3,3.9,2.8,7.2,6.1c2.1,2.1,0.7,7.1-2.3,7.1c-0.7,0-0.8-2.4-1.5-2.4
						C211.7,278.7,211.5,278.7,210.8,278.1z"/>
				</g>
			</g>
			<circle display="none" fill="#FFFFFF" cx="204.7" cy="287.8" r="2.8"/>
			<g>

					<image overflow="visible" opacity="0.1" width="168" height="51" xlink:href="1F3C23AAF4046FE2.png"  transform="matrix(0.24 0 0 0.24 270.8104 254.9572)">
				</image>
				<g>
					<path fill="#FFFFFF" d="M284,259.6c3,0,3,0.2,6.1,0.2c0.3,0,0.4-0.6,0.6-0.8c1.3-1.3,1.4-1.1,2.7-2.4c0.2-0.2,0.5-0.3,0.8-0.3
						c2.1,0,2.1-0.3,4.3-0.3c0.3,0,0.7,0.2,1,0.5c1.2,1.2,1,1.5,2.2,2.7c0.2,0.2,0.6,0.1,0.9,0.1c1.7,0,1.7,0.4,3.3,0.4
						c0.6,0,1.2,0.3,1.2,0.9c0,0,0,0,0,0c0,0.6-0.6,0.9-1.2,0.9c-4,0-4,0.3-7.9,0.3c-4,0-4-0.1-7.9-0.1c-4,0-4,0.2-7.9,0.2
						c-4,0-4-0.1-7.9-0.1c-0.6,0-1.1-0.6-1.1-1.3c0-0.1-0.1-0.1-0.1-0.2c0-0.5,0.5-0.8,1-0.9c3.7-0.9,3.6-1.2,7.3-2.2
						c0.5-0.1,1,0.3,1.3,0.7c0.2,0.5,0.1,0.5,0.3,1C282.9,259.5,283.6,259.6,284,259.6z"/>
				</g>
			</g>
			<g>

					<image overflow="visible" opacity="0.1" width="74" height="37" xlink:href="1F3C23AAF4046FE5.png"  transform="matrix(0.24 0 0 0.24 296.9482 267.8951)">
				</image>
				<g>
					<path fill="#FFFFFF" d="M309.2,271.4c-4.4,0-4.4,0.1-8.8,0.1c-0.7,0-1.3-0.6-1.3-1.2c0,0,0.1,0,0.1,0c0-0.7,0.5-1.1,1.2-1.1
						c4.4,0,4.4-0.2,8.8-0.2c0.7,0,1.2,0.6,1.2,1.3c0,0,0.1,0,0.1,0C310.5,271,309.9,271.4,309.2,271.4z"/>
				</g>
			</g>
			<g>

					<image overflow="visible" opacity="0.1" width="62" height="62" xlink:href="1F3C23AAF4046FE6.png"  transform="matrix(0.24 0 0 0.24 309.1076 245.2545)">
				</image>
				<g>
					<path fill="#FFFFFF" d="M317.8,249.7c0,1.6-1.3,2.8-2.8,2.8c-1.6,0-2.8-1.2-2.8-2.8c0-1.6,1.2-2.8,2.8-2.8
						C316.5,246.9,317.8,248.1,317.8,249.7z"/>
				</g>
			</g>
			<g>

					<image overflow="visible" opacity="0.1" width="168" height="51" xlink:href="83B127B544A42BD0.png"  transform="matrix(0.24 0 0 0.24 217.5303 221.5972)">
				</image>
				<g>
					<path fill="#FFFFFF" d="M230.7,226.2c3,0,3,0.2,6.1,0.2c0.3,0,0.4-0.6,0.6-0.8c1.3-1.3,1.4-1.1,2.7-2.4
						c0.2-0.2,0.5-0.3,0.8-0.3c2.1,0,2.1-0.3,4.3-0.3c0.3,0,0.7,0.2,1,0.5c1.2,1.2,1,1.5,2.2,2.7c0.2,0.2,0.6,0.1,0.9,0.1
						c1.7,0,1.7,0.4,3.3,0.4c0.6,0,1.2,0.3,1.2,0.9c0,0,0,0,0,0c0,0.6-0.6,0.9-1.2,0.9c-4,0-4,0.3-7.9,0.3c-4,0-4-0.1-7.9-0.1
						c-4,0-4,0.2-7.9,0.2s-4-0.1-7.9-0.1c-0.6,0-1.1-0.6-1.1-1.3c0-0.1-0.1-0.1-0.1-0.2c0-0.5,0.5-0.8,1-0.9
						c3.7-0.9,3.6-1.2,7.3-2.2c0.5-0.1,1,0.3,1.3,0.7c0.2,0.5,0.1,0.5,0.3,1C229.6,226.1,230.2,226.2,230.7,226.2z"/>
				</g>
			</g>
			<g>

					<image overflow="visible" opacity="0.1" width="341" height="234" xlink:href="83B127B544A42BD7.png"  transform="matrix(0.24 0 0 0.24 222.1077 298.1746)">
				</image>
				<g>
					<g>
						<g display="none">
							<path display="inline" fill="#FFFFFF" d="M194.2,315.2c2.2-1.8,2.2-1.9,4.4-3.8c2.2-1.8,2.4-1.7,4.6-3.5
								c2.2-1.8,2.1-2,4.3-3.8c2.2-1.8,2.5-1.5,4.8-3.3c1.3-1.1,2.8-1.3,3.9,0c0,0,0.2-0.1,0.2-0.1c1.1,1.3,1,3.7-0.2,4.7
								c-0.6,0.5-1.1-0.2-1.7,0.2c-1.3,1.1-1.3,3.3-0.2,4.6c0.2,0.3,0.5,0,0.8,0.3c1.1,1.3,1,3.7-0.3,4.8c-3.3,2.7-3.3,2.8-6.6,5.5
								c-0.6,0.5-1,0.8-1.1,1.6c-0.3,3.3-0.1,3.3-0.4,6.7c-0.2,1.7-2.2,2.8-3.8,2.6c-4-0.4-4-0.6-7.9-0.9c-1.7-0.2-2.6-1.4-2.5-3
								c0.3-2.7,0-2.7,0.2-5.4c0.3-2.7,0.7-2.6,1-5.3C193.6,316.4,193.6,315.7,194.2,315.2z"/>
						</g>
						<g>
							<path fill="#FFFFFF" d="M291.8,305.4c0-1.4-0.1-1.4-0.1-2.8c0-0.4,0.2-0.7,0.5-1c0.6-0.6,0.5-0.6,1-1.2
								c0.6-0.6,1.6-0.6,2.2,0c0.3,0.3,0.2,0.3,0.5,0.6c0.3,0.3,0.5,0.7,0.5,1.1c0,1.2,0.6,1.4-0.1,2.3c-0.5,0.7-1-0.4-1.7,0
								c-0.4,0.2,0.1,0.5,0.1,1c0,1.2-1.3,1.8-2.3,1.3c0,0,0,0,0,0C292.1,306.4,291.8,305.9,291.8,305.4z"/>
						</g>
						<g>
							<path fill="#FFFFFF" d="M231.4,344.3c-2.3-2.7-2.3-2.7-4.6-5.4c-0.7-0.8-1.1-1.7-1-2.7c0.2-2,0.1-2,0.3-4
								c0.2-2.1,2-3.6,4.1-3.4c1,0.1,1,0,2.1,0.1c1,0.1,1.9,0.6,2.6,1.3c1.9,2.3,3.7,1.5,3.9,4.5c0.2,2.1-2.4,0.8-3.1,2.8
								c-0.4,1.2,0.6,1,1.4,1.9c1.9,2.2,0.8,5.7-2,6.3c0,0,0-0.1,0-0.1C233.6,345.9,232.3,345.3,231.4,344.3z"/>
						</g>
						<g>
							<path fill="#FFFFFF" d="M243.6,338c0,0.5-0.3,1.9-0.9,1.9s-1-1.3-1-1.9s0.4-0.9,0.9-0.9C243.2,337.1,243.6,337.5,243.6,338z"
								/>
						</g>
					</g>
				</g>
			</g>
		</g>
	</g>
	<g id="deathstar">
		<path fill="#50505F" d="M200.9,214.7h-8.5v2.6c0,0.4-0.3,0.7-0.7,0.7h-6.5c-0.3,0-0.5,0.2-0.5,0.5v1.9c0,0.3,0.2,0.5,0.5,0.5h17.2
			c0.3,0,0.6,0.3,0.6,0.6v0.8c0,0.3-0.3,0.6-0.6,0.6h-5.9v1.3h3.8c0.4,0,0.7,0.3,0.7,0.7v3.7l-20.1-0.9l-10.7,2.4l-4.4-8.4l9-9.5
			l6.3-1.8l12.3,2.4L200.9,214.7z"/>
		<path fill="#6E6E82" d="M176.9,219.6h-4.6c-0.2,0-0.4-0.2-0.4-0.4v-0.9c0-0.2,0.2-0.4,0.4-0.4h4.6c0.2,0,0.4,0.2,0.4,0.4v0.9
			C177.4,219.4,177.2,219.6,176.9,219.6z"/>
		<path fill="#50505F" d="M216.8,205.1v1.4c0,0.3-0.3,0.6-0.6,0.6h-28.8v-2H216.8z"/>
		<path fill="#6E6E82" d="M191.3,165.6h-8.7v-1.8h8.2c0.3,0,0.5,0.2,0.5,0.5V165.6z"/>
		<path fill="#50505F" d="M183.9,149.9h7.4c0.4,0,0.7,0.3,0.7,0.7v0.6c0,0.4-0.3,0.7-0.7,0.7h-4c-0.4,0-0.7,0.3-0.7,0.7v0.2
			c0,0.4-0.3,0.7-0.7,0.7h-1.9c-0.4,0-0.7,0.3-0.7,0.7v2.4c0,0.4,0.3,0.7,0.7,0.7h11.4c0.4,0,0.7,0.3,0.7,0.7v0.6
			c0,0.4-0.3,0.7-0.7,0.7h-11.6h-2.2c-0.4,0-0.7,0.3-0.7,0.7v5.4c0,0.4,0.3,0.7,0.7,0.7H201c0.4,0,0.7,0.3,0.7,0.7v2.3
			c0,0.2-0.1,0.3-0.2,0.5l-3.2,3.2c-0.1,0.1-0.2,0.3-0.2,0.5v2.8c0,0.4-0.3,0.7-0.7,0.7h-9.7c-0.4,0-0.7,0.3-0.7,0.7v1.2
			c0,0.4,0.3,0.7,0.7,0.7h13.7c0.4,0,0.7,0.3,0.7,0.7v2.4c0,0.4,0.3,0.7,0.7,0.7h3c0.4,0,0.7,0.3,0.7,0.7v1c0,0.4-0.3,0.7-0.7,0.7
			h-3.1c-0.4,0-0.7,0.3-0.7,0.7l0,0c0,0.4,0.3,0.7,0.7,0.7h11c0.4,0,0.7,0.3,0.7,0.7v1.5c0,0.4,0.3,0.7,0.7,0.7h3.4
			c0.4,0,0.7,0.3,0.7,0.7v1.1c0,0.4-0.3,0.7-0.7,0.7h-37.7c-0.2,0-0.4-0.1-0.5-0.3l-11.8-17.9c-0.1-0.2-0.1-0.4-0.1-0.6l9.7-21.6
			c0.1-0.2,0.3-0.4,0.5-0.4L183.9,149.9C183.9,149.9,183.9,149.9,183.9,149.9z"/>
		<g>
			<defs>
				<path id="SVGID_5_" d="M190.6,205.3v3.3h9.2c0.6,0,1.1,0.5,1.1,1.1v2.2h9.3c0.3,0,0.5,0.2,0.5,0.5v3.4c0,0.3-0.2,0.5-0.5,0.5
					h-23.6c-0.4,0-0.8-0.4-0.8-0.8v-1.5c0-0.5-0.4-0.9-0.9-0.9h-5.6c-0.2,0-0.4,0.1-0.6,0.2l-6.6,6.6c-0.2,0.2-0.2,0.4-0.2,0.6v2.8
					c0,0.5,0.4,0.9,0.9,0.9h9.8c0.2,0,0.4-0.1,0.6-0.2l4.2-4.2h9.3c0.4,0,0.8,0.3,0.8,0.8v3.1l3.5,3.5c0.8,0.8,0.7,2.2-0.2,2.8
					c-8.4,5.9-18.8,9-29.9,8.2c-23.1-1.7-41.5-20.7-42.5-43.8c-1.2-26.4,19.9-48.2,46-48.2c4.8,0,9.4,0.7,13.7,2.1
					c0.5,0.2,0.6,0.8,0.1,1.1l-2.9,1.9c-0.2,0.1-0.3,0.3-0.3,0.6v5.3c0,0.4,0.3,0.7,0.7,0.7h5c0.3,0,0.6,0.3,0.6,0.6v2.7
					c0,0.3-0.3,0.6-0.6,0.6h-5.8c-0.5,0-0.8,0.4-0.8,0.8v7c0,0.5,0.4,0.8,0.8,0.8h10.8v-3.6H210c0.5,0,1,0.4,1,1v5.5
					c0,0.5-0.4,1-1,1H190c-0.4,0-0.7,0.3-0.7,0.7v4.9c0,0.4,0.3,0.7,0.7,0.7h8.7c0.9,0,1.6,0.7,1.6,1.6v6.6h8.1
					c0.5,0,0.9,0.4,0.9,0.9v1.5l9.4,0c0.8,0,1.5,0.7,1.4,1.5c-0.1,4-0.7,8.7-1.7,12.2c-0.1,0.3-0.3,0.5-0.6,0.5L190.6,205.3z"/>
			</defs>
			<clipPath id="SVGID_6_">
				<use xlink:href="#SVGID_5_"  overflow="visible"/>
			</clipPath>
			<g clip-path="url(#SVGID_6_)">
				<g>
					<defs>
						<path id="SVGID_7_" d="M220.1,190.1c0,0.5-0.4,1-1,1H129c-0.5,0-1-0.4-1-1c1.1-24.5,21.3-43.9,46.1-43.9
							S219,165.6,220.1,190.1z M129,193.4c-0.5,0-1,0.4-1,1c1.1,24.5,21.3,43.9,46.1,43.9s44.9-19.5,46.1-43.9c0-0.5-0.4-1-1-1H129z
							"/>
					</defs>
					<use xlink:href="#SVGID_7_"  overflow="visible" fill="#69696A"/>
					<clipPath id="SVGID_8_">
						<use xlink:href="#SVGID_7_"  overflow="visible"/>
					</clipPath>

						<radialGradient id="SVGID_9_" cx="174.0909" cy="189.7444" r="40.9011" fx="174.0451" fy="167.723" gradientUnits="userSpaceOnUse">
						<stop  offset="0" style="stop-color:#B7B7B8"/>
						<stop  offset="6.644528e-02" style="stop-color:#AEAEAF"/>
						<stop  offset="0.5501" style="stop-color:#828182"/>
						<stop  offset="0.7935" style="stop-color:#737374"/>
					</radialGradient>
					<circle clip-path="url(#SVGID_8_)" fill="url(#SVGID_9_)" cx="174.1" cy="189.7" r="43.8"/>
					<circle display="none" clip-path="url(#SVGID_8_)" fill="#787879" cx="174.1" cy="184.5" r="35.3"/>
					<circle display="none" clip-path="url(#SVGID_8_)" fill="#7D7E7E" cx="174.1" cy="175.9" r="24.3"/>
					<rect x="124.9" y="188.7" clip-path="url(#SVGID_8_)" fill="#7B7C7E" width="98.3" height="7.1"/>
					<rect x="130.8" y="188.7" clip-path="url(#SVGID_8_)" fill="#86878A" width="86.6" height="7.1"/>
					<rect x="157.4" y="188.7" clip-path="url(#SVGID_8_)" fill="#939497" width="33.3" height="7.1"/>
					<rect x="167" y="188.7" clip-path="url(#SVGID_8_)" fill="#AAABAE" width="14.3" height="7.1"/>
				</g>
				<g>
					<path fill="#939497" d="M188.6,169.8c0,6.2-3.9,11.5-9.4,13.6c-1.6,0.6-3.3,0.9-5,0.9c-1.8,0-3.5-0.3-5-0.9
						c-5.5-2-9.4-7.3-9.4-13.6s3.9-11.5,9.4-13.6c1.6-0.6,3.3-0.9,5-0.9c1.8,0,3.5,0.3,5,0.9C184.6,158.3,188.6,163.6,188.6,169.8z"
						/>
					<circle fill="#818385" cx="174.1" cy="169.8" r="12"/>
					<circle fill="#767779" cx="174.1" cy="169.8" r="9"/>
					<circle fill="#6C6D6F" cx="174.1" cy="169.8" r="4.4"/>
					<circle fill="#3A3B3C" cx="174.1" cy="169.8" r="1.9"/>
				</g>
				<g>
					<rect x="129.1" y="191.1" fill="#515253" width="90" height="2.4"/>
				</g>
				<g>
					<rect x="129.1" y="191.1" fill="#444546" width="90" height="1.2"/>
				</g>
			</g>
		</g>
		<path fill="#6E6E82" d="M210,180.3h-4.6c-0.2,0-0.4-0.2-0.4-0.4V179c0-0.2,0.2-0.4,0.4-0.4h4.6c0.2,0,0.4,0.2,0.4,0.4v0.9
			C210.4,180.1,210.2,180.3,210,180.3z"/>
		<path fill="#86878A" d="M213.2,180.3h-4.6c-0.2,0-0.4-0.2-0.4-0.4V179c0-0.2,0.2-0.4,0.4-0.4h4.6c0.2,0,0.4,0.2,0.4,0.4v0.9
			C213.7,180.1,213.5,180.3,213.2,180.3z"/>
		<path fill="#86878A" d="M213.2,220.6h-4.6c-0.2,0-0.4-0.2-0.4-0.4v-0.9c0-0.2,0.2-0.4,0.4-0.4h4.6c0.2,0,0.4,0.2,0.4,0.4v0.9
			C213.7,220.4,213.5,220.6,213.2,220.6z"/>
		<path fill="#86878A" d="M190.8,168.8h-4.6c-0.2,0-0.4-0.2-0.4-0.4v-0.9c0-0.2,0.2-0.4,0.4-0.4h4.6c0.2,0,0.4,0.2,0.4,0.4v0.9
			C191.3,168.6,191.1,168.8,190.8,168.8z"/>
		<path fill="#86878A" d="M216.3,186.6h-6.6c-0.2,0-0.4-0.2-0.4-0.4v-0.9c0-0.2,0.2-0.4,0.4-0.4h6.6c0.2,0,0.4,0.2,0.4,0.4v0.9
			C216.8,186.4,216.6,186.6,216.3,186.6z"/>
		<path fill="#50505F" d="M166.9,220.8h-8.2c-0.3,0-0.5,0.2-0.5,0.5v0.6c0,0.3-0.2,0.5-0.5,0.5H146c-0.3,0-0.5,0.2-0.5,0.5v0.8
			c0,0.3,0.2,0.5,0.5,0.5h16.5c0.3,0,0.5-0.2,0.5-0.5v-0.3c0-0.3,0.2-0.5,0.5-0.5h1.9c0.3,0,0.5,0.2,0.5,0.5v0.3
			c0,0.3,0.2,0.5,0.5,0.5h1.6c0.3,0,0.5-0.2,0.5-0.5v-2.3c0-0.3-0.2-0.5-0.5-0.5H166.9z"/>
		<path fill="#50505F" d="M138.6,216.5h4.1c0.3,0,0.6,0.3,0.6,0.6v0.4c0,0.3-0.3,0.6-0.6,0.6h-4.1c-0.3,0-0.6-0.3-0.6-0.6v-0.4
			C138,216.8,138.3,216.5,138.6,216.5z"/>
	</g>
</g>
</svg>
