<?xml version="1.0" encoding="utf-8"?>
<!-- Generator: Adobe Illustrator 23.0.6, SVG Export Plug-In . SVG Version: 6.00 Build 0)  -->
<svg version="1.0" id="Layer_1" xmlns="http://www.w3.org/2000/svg" xmlns:xlink="http://www.w3.org/1999/xlink" x="400px" y="400px"
	 viewBox="0 0 500 500" enable-background="new 0 0 500 500" xml:space="preserve">
<g>
	<g>
		<g>

				<image overflow="visible" opacity="0.3" width="1533" height="1533" xlink:href="5C0A6E425815EA63.png"  transform="matrix(0.24 0 0 0.24 66.1209 65.4009)">
			</image>
			<g>
				<circle fill="#161627" cx="250" cy="249.3" r="142.7"/>
			</g>
		</g>
		<g>
			<defs>
				<circle id="SVGID_1_" cx="250" cy="249.3" r="143.4"/>
			</defs>
			<use xlink:href="#SVGID_1_"  overflow="visible" fill="#DBB7AA"/>
			<clipPath id="SVGID_2_">
				<use xlink:href="#SVGID_1_"  overflow="visible"/>
			</clipPath>
			<circle clip-path="url(#SVGID_2_)" fill="#EAB9B2" cx="176.5" cy="214.7" r="2.3"/>
			<path clip-path="url(#SVGID_2_)" fill="#EAB9B2" d="M259.3,341.7h-11.9c-2.1,0-3.9-1.7-3.9-3.9l0,0c0-2.1,1.7-3.9,3.9-3.9h11.9
				c2.1,0,3.9,1.7,3.9,3.9l0,0C263.2,340,261.5,341.7,259.3,341.7z"/>
			<path clip-path="url(#SVGID_2_)" fill="#EAB9B2" d="M211,320.9l27.6,27.6c0.4,0.4,0.9,0.6,1.5,0.6h28.6c0.5,0,1.1-0.2,1.5-0.6
				l4.2-4.2c0.4-0.4,0.9-0.6,1.5-0.6h10.3c0.5,0,1.1,0.2,1.5,0.6l3.6,3.6c0.4,0.4,0.9,0.6,1.5,0.6h13.3c0.5,0,1.1-0.2,1.5-0.6
				l9.5-9.5c0.8-0.8,2.1-0.8,2.9,0l3.4,3.4c0.8,0.8,0.8,2.1,0,2.9l-15.8,15.8c-0.4,0.4-0.9,0.6-1.5,0.6h-13.4
				c-0.5,0-1.1,0.2-1.5,0.6l-10.3,10.3c-0.4,0.4-0.9,0.6-1.5,0.6H214c-0.5,0-1.1-0.2-1.5-0.6l-9.3-9.3c-0.4-0.4-0.9-0.6-1.5-0.6
				h-9.4c-0.5,0-1.1-0.2-1.5-0.6L174,344.5c-0.8-0.8-0.8-2.1,0-2.9l2-2c0.8-0.8,2.1-0.8,2.9,0l4.8,4.8c0.8,0.8,2.1,0.8,2.9,0l0,0
				c0.8-0.8,0.8-2.1,0-2.9l-23.4-23.4c-0.4-0.4-0.9-0.6-1.5-0.6h-4c-1.1,0-2.1-0.9-2.1-2.1v-7.1c0-0.5,0.2-1.1,0.6-1.5l8.1-8.1
				c0.4-0.4,0.9-0.6,1.5-0.6h6c1.1,0,2.1,0.9,2.1,2.1v11.9c0,0.5,0.2,1.1,0.6,1.5l17.8,17.8c0.4,0.4,0.9,0.6,1.5,0.6h4.9
				c1.1,0,2.1-0.9,2.1-2.1v-7.5c0-1.1,0.9-2.1,2.1-2.1h6.7C210,320.3,210.6,320.5,211,320.9z"/>
			<circle clip-path="url(#SVGID_2_)" fill="#EAB9B2" cx="214.1" cy="277.6" r="2.5"/>
			<path clip-path="url(#SVGID_2_)" fill="#EAB9B2" d="M191.9,314.1l-6.8-6.8c-0.6-0.6-1.5-0.6-2.1,0h0c-0.6,0.6-0.6,1.5,0,2.1
				l6.8,6.8c0.6,0.6,1.5,0.6,2.1,0v0C192.4,315.6,192.4,314.7,191.9,314.1z"/>
			<path clip-path="url(#SVGID_2_)" fill="#EAB9B2" d="M267.2,295.7h-21.8c-1.3,0-2.3-1-2.3-2.3v0c0-1.3,1-2.3,2.3-2.3h21.8
				c1.3,0,2.3,1,2.3,2.3v0C269.6,294.7,268.5,295.7,267.2,295.7z"/>
			<path clip-path="url(#SVGID_2_)" fill="#EAB9B2" d="M278.6,270.1h-2.1c-2.7,0-4.8-2.2-4.8-4.8c0-1.3,0.5-2.5,1.4-3.4l4.1-4.1
				c1.9-1.9,1.9-5,0-6.8l-8.7-8.7c-1.9-1.9-5-1.9-6.8,0l-10.3,10.3c-1.8,1.9-4.8,1.9-6.7,0.1l-10.4-9.8c-1.9-1.8-4.9-1.7-6.7,0.1
				l-9.6,9.6c-0.9,0.9-1.4,2.1-1.4,3.4v10.3c0,1.3,0.5,2.5,1.4,3.4l15.8,15.8c0.9,0.9,2.1,1.4,3.4,1.4h36.1c1.3,0,2.5-0.5,3.4-1.4
				l5.5-5.5c0.9-0.9,1.4-2.1,1.4-3.4v-1.6C283.5,272.2,281.3,270.1,278.6,270.1z M224.9,260.2c-1.9,0-3.3-1.5-3.3-3.3
				c0-1.8,1.5-3.3,3.3-3.3c1.8,0,3.3,1.5,3.3,3.3C228.2,258.7,226.7,260.2,224.9,260.2z"/>
			<circle clip-path="url(#SVGID_2_)" fill="#EAB9B2" cx="363.8" cy="305.5" r="2.8"/>
			<circle clip-path="url(#SVGID_2_)" fill="#EAB9B2" cx="343.7" cy="297.2" r="1.4"/>
			<path clip-path="url(#SVGID_2_)" fill="#EAB9B2" d="M371.1,295.2l5.1-2.8c1.1-0.6,1.8-1.5,2.2-2.7l4.5-15.3
				c0.3-1.2,0.2-2.4-0.4-3.5l-3.3-6.1c-1.2-2.2-4-3-6.2-1.8l-9.1,4.9c-2.2,1.2-3,4-1.8,6.2l3.7,6.8c0.6,1.1,0.7,2.3,0.4,3.5
				l-1.6,5.5c-0.7,2.4,0.7,4.9,3.1,5.6h0C368.8,295.9,370,295.8,371.1,295.2z"/>
			<circle clip-path="url(#SVGID_2_)" fill="#EAB9B2" cx="351.7" cy="288.8" r="2.8"/>
			<path clip-path="url(#SVGID_2_)" fill="#EAB9B2" d="M166.7,155.3l-16.4,16.4c-0.5,0.5-0.8,1.3-0.8,2v14.4c0,1.6-1.3,2.9-2.9,2.9
				h-11.1c-0.8,0-1.5,0.3-2,0.8l-5.7,5.7c-0.5,0.5-0.8,1.3-0.8,2v13.6c0,1.6,1.3,2.9,2.9,2.9h1.6c1.6,0,2.9-1.3,2.9-2.9v-6.2
				c0-0.8,0.3-1.5,0.8-2l4.9-4.9c0.5-0.5,1.3-0.8,2-0.8h3.2c1.6,0,2.9,1.3,2.9,2.9v17.3c0,0.8-0.3,1.5-0.8,2l-7.1,7.1
				c-1.1,1.1-1.1,2.9,0,4l4.5,4.5l11.5,11.5c0.5,0.5,1.3,0.8,2,0.8h10.9c1.6,0,2.9-1.3,2.9-2.9v-9c0-1.6-1.3-2.9-2.9-2.9h-1
				c-1.6,0-2.9-1.3-2.9-2.9v-26.8c0-0.8,0.3-1.5,0.8-2l23.3-23.3c0.5-0.5,1.3-0.8,2-0.8h12.2c1.6,0,2.9-1.3,2.9-2.9v-15
				c0-0.8,0.3-1.5,0.8-2l9.1-9.1c1.1-1.1,1.1-2.9,0-4l-8.3-8.3c-1.1-1.1-2.9-1.1-4,0l-9.7,9.7c-0.5,0.5-1.3,0.8-2,0.8h-9.1
				c-1.6,0-2.9-1.3-2.9-2.9v0c0-1.6-1.3-2.9-2.9-2.9h-5.9c-1.4,0-2.6,1-2.8,2.5l-1.3,9C167.4,154.3,167.1,154.8,166.7,155.3z"/>

				<radialGradient id="SVGID_3_" cx="296.7092" cy="215.9475" r="143.0152" fx="343.5582" fy="165.4293" gradientTransform="matrix(1.0648 0 0 1.1327 -59.0739 -13.9605)" gradientUnits="userSpaceOnUse">
				<stop  offset="0.3551" style="stop-color:#FFFFFF;stop-opacity:0"/>
				<stop  offset="0.4432" style="stop-color:#F4F4F3;stop-opacity:0.1411"/>
				<stop  offset="0.5263" style="stop-color:#E1DFDF;stop-opacity:0.2744"/>
				<stop  offset="0.6076" style="stop-color:#C5C3C3;stop-opacity:0.4046"/>
				<stop  offset="0.6877" style="stop-color:#A39F9F;stop-opacity:0.5329"/>
				<stop  offset="0.767" style="stop-color:#7B7878;stop-opacity:0.6599"/>
				<stop  offset="0.8456" style="stop-color:#52504F;stop-opacity:0.7858"/>
				<stop  offset="0.9223" style="stop-color:#2B2A29;stop-opacity:0.9086"/>
				<stop  offset="0.9793" style="stop-color:#010101"/>
			</radialGradient>
			<rect x="104.6" y="68.6" opacity="0.45" clip-path="url(#SVGID_2_)" fill="url(#SVGID_3_)" width="304.6" height="324"/>
			<g clip-path="url(#SVGID_2_)">

					<radialGradient id="SVGID_4_" cx="261.5204" cy="236.9205" r="121.4631" fx="306.7458" fy="174.1615" gradientUnits="userSpaceOnUse">
					<stop  offset="0.3596" style="stop-color:#FDE5DE;stop-opacity:0.8"/>
					<stop  offset="0.7165" style="stop-color:#EAC9BB;stop-opacity:0.24"/>
					<stop  offset="0.7739" style="stop-color:#E8C5B6;stop-opacity:0.15"/>
				</radialGradient>
				<circle opacity="0.38" fill="url(#SVGID_4_)" cx="261.5" cy="236.9" r="125.5"/>
				<g display="none">
					<radialGradient id="SVGID_5_" cx="288.5649" cy="205.4306" r="77.2712" gradientUnits="userSpaceOnUse">
						<stop  offset="0.1187" style="stop-color:#9FDADE;stop-opacity:0.8"/>
						<stop  offset="0.8195" style="stop-color:#79D0EB;stop-opacity:0.15"/>
					</radialGradient>
					<path display="inline" opacity="0.15" fill="url(#SVGID_5_)" d="M222,159.8c-23,33.5-11.9,81.2,24.8,106.4
						c36.7,25.2,85.2,18.5,108.2-15.1c23-33.5,11.9-81.2-24.8-106.4S245.1,126.2,222,159.8z"/>
					<radialGradient id="SVGID_6_" cx="305.5537" cy="182.071" r="43.528" gradientUnits="userSpaceOnUse">
						<stop  offset="0.1187" style="stop-color:#9FDADE;stop-opacity:0.8"/>
						<stop  offset="0.8195" style="stop-color:#79D0EB;stop-opacity:0.15"/>
					</radialGradient>
					<path display="inline" opacity="0.15" fill="url(#SVGID_6_)" d="M266.6,152.7c-12.5,16.5-5.2,43.1,16.3,59.4s49.1,16,61.5-0.5
						c12.5-16.5,5.2-43.1-16.3-59.4S279.1,136.1,266.6,152.7z"/>
				</g>
			</g>
		</g>
		<g>
			<circle fill="#C8A29A" cx="330.7" cy="176.8" r="1.4"/>
			<path fill="#DBAFA6" d="M344,162c-9.8,2.9-17,4.6-22.7,4.4c-1.1,0-2-0.9-1.9-2c0.1-5.7,2.2-12.8,5.7-22.4
				c0.3-0.9-0.9-1.5-1.4-0.6c-4.8,9-8.8,15.2-13,19.2c-0.8,0.7-2.1,0.7-2.8-0.1c-4-4.2-7.5-10.6-11.8-19.9c-0.4-0.9-1.7-0.4-1.4,0.5
				c2.9,9.8,4.6,17,4.4,22.7c0,1.1-0.9,2-2,1.9c-5.7-0.1-12.8-2.2-22.4-5.7c-0.9-0.3-1.5,0.9-0.6,1.4c9,4.8,15.2,8.8,19.2,13
				c0.7,0.8,0.7,2.1-0.1,2.8c-4.2,4-10.6,7.5-19.9,11.8c-0.9,0.4-0.4,1.7,0.5,1.4c10.9-3.3,18.6-4.9,24.6-4.2
				c0.3,6.1-1.8,13.6-5.7,24.3c-0.3,0.9,0.9,1.5,1.4,0.6c4.8-9,8.8-15.2,13-19.2c0.8-0.7,2.1-0.7,2.8,0.1c4,4.2,7.5,10.6,11.8,19.9
				c0.4,0.9,1.7,0.4,1.4-0.5c-2.9-9.8-4.6-17-4.4-22.7c0-1.1,0.9-2,2-1.9c5.7,0.1,12.8,2.2,22.4,5.7c0.9,0.3,1.5-0.9,0.6-1.4
				c-9-4.8-15.2-8.8-19.2-13c-0.7-0.8-0.7-2.1,0.1-2.8c4.2-4,10.6-7.5,19.9-11.8C345.4,163.1,344.9,161.8,344,162z"/>
			<path fill="#A98881" d="M308,181.1l-0.6,0.4c-0.7,0.5-1.7,0.1-1.7-0.8l0-0.7c0-0.5-0.4-0.9-0.9-1L304,179
				c-0.9-0.1-1.2-1.1-0.7-1.8l0.5-0.5c0.3-0.4,0.4-1,0-1.4l-0.4-0.6c-0.5-0.7-0.1-1.7,0.8-1.7l0.7,0c0.5,0,0.9-0.4,1-0.9l0.1-0.7
				c0.1-0.9,1.1-1.2,1.8-0.7l0.5,0.5c0.4,0.3,1,0.4,1.4,0l0.6-0.5c0.7-0.5,1.7-0.1,1.7,0.8l0,0.7c0,0.5,0.4,0.9,0.9,1l0.7,0.1
				c0.9,0.1,1.2,1.1,0.7,1.8l-0.5,0.5c-0.3,0.4-0.4,1,0,1.4l0.4,0.6c0.5,0.7,0.1,1.7-0.8,1.7l-0.7,0c-0.5,0-0.9,0.4-1,0.9l-0.1,0.7
				c-0.1,0.9-1.1,1.2-1.8,0.7l-0.5-0.5C308.9,180.8,308.4,180.8,308,181.1z"/>
			<circle fill="#B9958C" cx="310.9" cy="166.4" r="1.3"/>
			<circle fill="#B9958C" cx="286.7" cy="175.6" r="1.2"/>
			<circle fill="#B9958C" cx="283.7" cy="180.1" r="0.8"/>
		</g>
	</g>
</g>
</svg>
