<?xml version="1.0" encoding="utf-8"?>
<!-- Generator: Adobe Illustrator 23.0.6, SVG Export Plug-In . SVG Version: 6.00 Build 0)  -->
<svg version="1.0" id="Layer_1" xmlns="http://www.w3.org/2000/svg" xmlns:xlink="http://www.w3.org/1999/xlink" x="900px" y="900px"
	 viewBox="0 0 700 700" enable-background="new 0 0 700 700" xml:space="preserve">
<g>
	<g>
		<g>
			<circle fill="#12141D" cx="343.3" cy="342.7" r="336.4"/>
			<path fill="#3C454B" d="M623.9,402.3c-3.2,15.1-7.5,29.8-12.8,43.8c-4.6,12.2-9.8,24-15.8,35.3L56.6,366.9
				c-0.9-12.8-0.9-25.7-0.1-38.7c0.9-15,2.9-30.1,6.1-45.2s7.5-29.8,12.8-43.8c4.6-12.2,9.8-24,15.8-35.3L630,318.4
				c0.9,12.8,0.9,25.7,0.1,38.7C629.2,372.1,627.1,387.2,623.9,402.3z"/>
			<g>
				<g>
					<path fill="#6F828C" d="M72.8,361.8l-4.8-1c-1.9-0.4-3.2-2.3-2.8-4.2l3.1-14.7c0.4-1.9,2.3-3.2,4.2-2.8l4.8,1
						c1.9,0.4,3.2,2.3,2.8,4.2L77.1,359C76.7,360.9,74.8,362.2,72.8,361.8z"/>
					<path fill="#6F828C" d="M53.1,351.1l-3-0.6c-2.4-0.5-3.6-3.3-2.3-5.4l4.8-7.9c0.8-1.3,2.3-2,3.8-1.6l0,0
						c1.9,0.4,3.2,2.3,2.8,4.2l-1.8,8.5C56.9,350.3,55,351.5,53.1,351.1z"/>
					<path fill="#6F828C" d="M103.4,368.3l-4.8-1c-1.9-0.4-3.2-2.3-2.8-4.2l3.1-14.7c0.4-1.9,2.3-3.2,4.2-2.8l4.8,1
						c1.9,0.4,3.2,2.3,2.8,4.2l-3.1,14.7C107.3,367.4,105.4,368.7,103.4,368.3z"/>
				</g>
				<g>
					<path fill="#6F828C" d="M104.5,212.9l-4.8-1c-1.9-0.4-3.8,0.8-4.2,2.8l-3.1,14.7c-0.4,1.9,0.8,3.8,2.8,4.2l4.8,1
						c1.9,0.4,3.8-0.8,4.2-2.8l3.1-14.7C107.6,215.2,106.4,213.3,104.5,212.9z"/>
					<path fill="#6F828C" d="M82.1,214.6l-3-0.6c-2.4-0.5-4.6,1.5-4.3,4l1.2,9.2c0.2,1.5,1.3,2.7,2.8,3l0,0c1.9,0.4,3.8-0.8,4.2-2.8
						l1.8-8.5C85.3,216.9,84.1,215,82.1,214.6z"/>
					<path fill="#6F828C" d="M135.1,219.4l-4.8-1c-1.9-0.4-3.8,0.8-4.2,2.8l-3.1,14.7c-0.4,1.9,0.8,3.8,2.8,4.2l4.8,1
						c1.9,0.4,3.8-0.8,4.2-2.8l3.1-14.7C138.2,221.7,137,219.8,135.1,219.4z"/>
				</g>
				<g>
					<path fill="#6F828C" d="M471.2,440l3,0.6c2.4,0.5,4.6-1.5,4.3-4l-1.2-9.2c-0.2-1.5-1.3-2.7-2.8-3l0,0c-1.9-0.4-3.8,0.8-4.2,2.8
						l-1.8,8.5C468,437.6,469.3,439.6,471.2,440z"/>
					<path fill="#6F828C" d="M437.5,439.3l4.8,1c1.9,0.4,3.8-0.8,4.2-2.8l3.1-14.7c0.4-1.9-0.8-3.8-2.8-4.2l-4.8-1
						c-1.9-0.4-3.8,0.8-4.2,2.8l-3.1,14.7C434.3,437,435.5,438.9,437.5,439.3z"/>
					<path fill="#6F828C" d="M389.3,429l4.8,1c1.9,0.4,3.8-0.8,4.2-2.8l3.1-14.7c0.4-1.9-0.8-3.8-2.8-4.2l-4.8-1
						c-1.9-0.4-3.8,0.8-4.2,2.8l-3.1,14.7C386.1,426.7,387.4,428.6,389.3,429z"/>
					<path fill="#6F828C" d="M341.1,418.8l4.8,1c1.9,0.4,3.8-0.8,4.2-2.8l3.1-14.7c0.4-1.9-0.8-3.8-2.8-4.2l-4.8-1
						c-1.9-0.4-3.8,0.8-4.2,2.8l-3.1,14.7C337.9,416.5,339.2,418.4,341.1,418.8z"/>
					<path fill="#6F828C" d="M292.9,408.5l4.8,1c1.9,0.4,3.8-0.8,4.2-2.8l3.1-14.7c0.4-1.9-0.8-3.8-2.8-4.2l-4.8-1
						c-1.9-0.4-3.8,0.8-4.2,2.8l-3.1,14.7C289.7,406.2,291,408.1,292.9,408.5z"/>
				</g>
				<g>
					<path fill="#6F828C" d="M500.2,303.5l3,0.6c2.4,0.5,3.6,3.3,2.3,5.4l-4.8,7.9c-0.8,1.3-2.3,2-3.8,1.6l0,0
						c-1.9-0.4-3.2-2.3-2.8-4.2l1.8-8.5C496.4,304.3,498.3,303.1,500.2,303.5z"/>
					<path fill="#6F828C" d="M469.1,290.4l4.8,1c1.9,0.4,3.2,2.3,2.8,4.2l-3.1,14.7c-0.4,1.9-2.3,3.2-4.2,2.8l-4.8-1
						c-1.9-0.4-3.2-2.3-2.8-4.2l3.1-14.7C465.3,291.2,467.2,290,469.1,290.4z"/>
					<path fill="#6F828C" d="M420.9,280.2l4.8,1c1.9,0.4,3.2,2.3,2.8,4.2l-3.1,14.7c-0.4,1.9-2.3,3.2-4.2,2.8l-4.8-1
						c-1.9-0.4-3.2-2.3-2.8-4.2l3.1-14.7C417.1,281,419,279.7,420.9,280.2z"/>
					<path fill="#6F828C" d="M372.7,269.9l4.8,1c1.9,0.4,3.2,2.3,2.8,4.2l-3.1,14.7c-0.4,1.9-2.3,3.2-4.2,2.8l-4.8-1
						c-1.9-0.4-3.2-2.3-2.8-4.2l3.1-14.7C368.9,270.7,370.8,269.5,372.7,269.9z"/>
					<path fill="#6F828C" d="M324.5,259.7l4.8,1c1.9,0.4,3.2,2.3,2.8,4.2l-3.1,14.7c-0.4,1.9-2.3,3.2-4.2,2.8l-4.8-1
						c-1.9-0.4-3.2-2.3-2.8-4.2l3.1-14.7C320.7,260.5,322.6,259.3,324.5,259.7z"/>
				</g>
			</g>
			<path fill="#465058" d="M191.1,415.8c-55.7-11.8-91.3-66.7-79.5-122.4c11.8-55.7,66.7-91.3,122.4-79.5
				c55.7,11.8,91.3,66.7,79.5,122.4C301.7,392,246.8,427.7,191.1,415.8z"/>
			<path fill="#465058" d="M623.9,402.3c-3.2,15.1-7.5,29.8-12.8,43.8L56.5,328.3c0.9-15,2.9-30.1,6.1-45.2s7.5-29.8,12.8-43.8
				l554.6,117.9C629.2,372.1,627.1,387.2,623.9,402.3z"/>
			<path fill="none" stroke="#4E5962" stroke-width="4.0102" stroke-miterlimit="10" d="M287.3,344.5l56,11.9
				c2.9,0.6,5.5,2.4,7.2,4.9l11.2,17.3c1.6,2.5,4.2,4.3,7.2,4.9l41,8.7c6.1,1.3,10.1,7.3,8.8,13.5l-2.9,13.9"/>
			<g>
				<g>
					<defs>
						<path id="SVGID_1_" d="M660.8,410.2c-2.3,10.6-5,21-8.2,31.1c-2.9,9.1-6.2,18-9.8,26.7c-3.7,8.9-7.8,17.7-12.3,26.1
							c-65.9,125-208.9,196.5-354,165.7C126.5,627.8,23,496.8,19.9,349.8c-0.2-7.3,6.6-12.9,13.7-11.4l86.6,18.4
							c4.4,0.9,7.9,4.4,8.8,8.9l2.8,13.7c0.4,2.2,2.2,4,4.4,4.4l117.2,24.9c2.2,0.5,4.5-0.4,5.8-2.3l8.1-11.4
							c2.6-3.7,7.2-5.5,11.6-4.5l195.3,41.5l21.1-19.4c2.7-2.5,6.4-3.5,10-2.7l75,15.9c2.8,0.6,5.7-1,6.6-3.7
							c2.8-8.5,5.1-17.2,7-26.2c1.9-9,3.3-17.9,4.2-26.8c0.3-2.9-1.7-5.5-4.5-6.1l-75-15.9c-3.6-0.8-6.6-3.2-8.1-6.6l-11.4-26.3
							l-195.3-41.5c-4.4-0.9-7.9-4.4-8.8-8.9l-2.8-13.7c-0.4-2.2-2.2-4-4.4-4.4l-117.2-24.9c-2.2-0.5-4.5,0.4-5.8,2.3l-8.1,11.4
							c-2.6,3.7-7.2,5.5-11.6,4.5l-86.6-18.4c-7.2-1.5-11-9.4-7.9-16C113.4,71.5,261.2-6,411.3,25.9
							c145.1,30.8,246.6,154.3,256,295.3c0.6,9.5,0.8,19.2,0.6,28.9c-0.2,9.4-0.8,18.8-1.9,28.3C664.8,389,663.1,399.6,660.8,410.2z
							"/>
					</defs>
					<use xlink:href="#SVGID_1_"  overflow="visible" fill="#B6D1E5"/>
					<clipPath id="SVGID_2_">
						<use xlink:href="#SVGID_1_"  overflow="visible"/>
					</clipPath>
					<g clip-path="url(#SVGID_2_)">

							<radialGradient id="SVGID_3_" cx="323.4234" cy="334.7166" r="256.7251" fx="217.6615" fy="164.743" gradientUnits="userSpaceOnUse">
							<stop  offset="0.1413" style="stop-color:#E1EFF8"/>
							<stop  offset="0.668" style="stop-color:#D1E3F1"/>
							<stop  offset="0.7387" style="stop-color:#CEE1F0"/>
						</radialGradient>
						<path fill="url(#SVGID_3_)" d="M235.5,661.5C55.2,623.1-21,453.6,17.3,273.4S194.2-30.7,374.5,7.6S670.2,223.8,631.9,404
							S415.7,699.8,235.5,661.5z"/>

							<ellipse transform="matrix(0.7071 -0.7071 0.7071 0.7071 -151.5926 290.0799)" display="none" fill="#D3E5F5" cx="274.4" cy="328" rx="269.2" ry="269.2"/>
						<circle display="none" fill="#D7EAF9" cx="229.7" cy="319.8" r="195.8"/>
						<circle display="none" fill="#E1F2FC" cx="202.2" cy="313.9" r="135.8"/>
						<g opacity="0.4">
							<circle fill="#FFFFFF" cx="449.2" cy="186.7" r="5"/>
							<path fill="#FFFFFF" d="M132.2,287.7l6.9-25.1c1.3-4.5,5.9-7.2,10.5-5.9h0c4.5,1.3,7.2,5.9,5.9,10.5l-6.9,25.1
								c-1.3,4.5-5.9,7.2-10.5,5.9h0C133.6,296.9,131,292.2,132.2,287.7z"/>
							<path fill="#FFFFFF" d="M204.5,197.6l-74.4,42.2c-1,0.6-1.8,1.6-2.1,2.7l-16.7,60.4c-0.3,1.2-0.2,2.4,0.4,3.4l6.3,11.2
								c0.6,1,0.7,2.3,0.4,3.4l-6,21.7c-0.3,1.2-1.1,2.1-2.1,2.7l-9.6,5.5c-1,0.6-1.8,1.6-2.1,2.7l-7.8,28c-0.3,1.2-0.2,2.4,0.4,3.4
								l14.6,25.7c1.2,2.2,0.5,4.9-1.7,6.2l-9.1,5.1c-2.2,1.2-4.9,0.5-6.2-1.7l-24.2-42.6c-0.6-1-0.7-2.3-0.4-3.4l7.8-28.4
								c0.3-1.2,0.2-2.4-0.4-3.4L56,314.8c-0.6-1-0.7-2.3-0.4-3.4l38-137.6c0.3-1.2,1.1-2.1,2.1-2.7l25.2-14.3
								c1-0.6,1.8-1.6,2.1-2.7l5.5-19.9c0.3-1.2,1.1-2.1,2.1-2.7l45.5-25.8c2.2-1.2,4.9-0.5,6.2,1.7l3.1,5.5
								c1.2,2.2,0.5,4.9-1.7,6.2l-12.9,7.3c-2.2,1.2-2.9,4-1.7,6.2l0,0c1.2,2.2,4,2.9,6.2,1.7l63-35.7c1-0.6,1.8-1.6,2.1-2.7
								l2.4-8.5c0.7-2.4,3.2-3.8,5.6-3.1l15,4.2c1.2,0.3,2.1,1.1,2.7,2.1l12.3,21.8c0.6,1,0.7,2.3,0.4,3.4l-3.5,12.7
								c-0.7,2.4-3.2,3.8-5.6,3.1l-25.1-6.9c-1.2-0.3-2.4-0.2-3.4,0.4l-48,27.2c-1,0.6-1.8,1.6-2.1,2.7l-2.8,10.3
								c-0.7,2.4,0.7,4.9,3.1,5.6l15.9,4.4c2.4,0.7,3.8,3.2,3.1,5.6l-3.9,14.2C206.3,196,205.6,197,204.5,197.6z"/>
							<circle fill="#FFFFFF" cx="294.2" cy="229.4" r="5.4"/>
							<path fill="#FFFFFF" d="M230,161.2l18.3-10.4c1.5-0.9,2.1-2.8,1.2-4.4v0c-0.9-1.5-2.8-2.1-4.4-1.2l-18.3,10.4
								c-1.5,0.9-2.1,2.8-1.2,4.4v0C226.5,161.5,228.4,162,230,161.2z"/>
							<path fill="#FFFFFF" d="M224.8,331.3l12.7-46.1c0.7-2.7,3.5-4.3,6.2-3.5h0c2.7,0.7,4.3,3.5,3.5,6.2L234.6,334
								c-0.7,2.7-3.5,4.3-6.2,3.5l0,0C225.6,336.8,224,334,224.8,331.3z"/>
							<path fill="#FFFFFF" d="M272.4,370.4l1.2-4.4c1.6-5.6,7.4-8.9,13-7.4c2.7,0.8,5,2.5,6.4,5l6.3,11.1c2.9,5.1,9.4,6.9,14.4,4
								l23.6-13.3c5.1-2.9,6.9-9.4,4-14.4l-15.8-27.9c-2.8-5-1.2-11.3,3.7-14.3l26.7-16.4c4.9-3,6.5-9.3,3.7-14.3l-14.7-25.8
								c-1.4-2.4-3.7-4.2-6.4-5l-21.7-6c-2.7-0.8-5.6-0.4-8,1l-42.5,24.1c-2.4,1.4-4.3,3.7-5,6.4l-21.1,76.3c-0.8,2.7-0.4,5.6,1,8.1
								l8.3,14.8c1.4,2.4,3.7,4.2,6.4,5l3.4,0.9C265,379.4,270.8,376,272.4,370.4z M324.6,262.5c1.1-3.9,5.1-6.2,9-5.1
								c3.9,1.1,6.2,5.1,5.1,9c-1.1,3.9-5.1,6.2-9,5.1C325.8,270.4,323.5,266.4,324.6,262.5z"/>
							<circle fill="#FFFFFF" cx="147.7" cy="529.8" r="6.1"/>
							<circle fill="#FFFFFF" cx="177.1" cy="492.1" r="3"/>
							<path fill="#FFFFFF" d="M165.2,551.2l2.9,12.3c0.6,2.6,2.2,4.8,4.4,6.2l29.8,18.5c2.2,1.4,5,1.8,7.5,1.2l14.8-3.5
								c5.4-1.3,8.7-6.6,7.4-12l-5.2-22.1c-1.3-5.4-6.6-8.7-12-7.4l-16.5,3.9c-2.6,0.6-5.3,0.2-7.5-1.2l-10.7-6.7
								c-4.7-2.9-10.8-1.5-13.7,3.2l0,0C165,545.9,164.6,548.6,165.2,551.2z"/>
							<circle fill="#FFFFFF" cx="190" cy="514" r="6.1"/>
							<path fill="#FFFFFF" d="M586.2,234l-25.1-44.2c-0.8-1.4-2.2-2.5-3.8-3l-30.5-8.4c-3.3-0.9-5.3-4.4-4.4-7.7l6.5-23.4
								c0.4-1.6,0.2-3.3-0.6-4.8l-8.7-15.4c-0.8-1.4-2.2-2.5-3.8-3l-28.8-8c-3.3-0.9-6.8,1-7.7,4.4l-1,3.5c-0.9,3.3,1,6.8,4.4,7.7
								l13.2,3.6c1.6,0.4,3,1.5,3.8,3l7.5,13.2c0.8,1.4,1,3.2,0.6,4.8l-1.9,6.7c-0.9,3.3-4.4,5.3-7.7,4.4l-36.5-10.1
								c-1.6-0.4-3-1.5-3.8-3l-10.9-19.2c-1.7-3-5.5-4.1-8.6-2.4l-12.1,6.9l-31.1,17.6c-1.4,0.8-2.5,2.2-3,3.8l-6.4,23
								c-0.9,3.3,1,6.8,4.4,7.7l19.1,5.3c3.3,0.9,6.8-1,7.7-4.4l0.6-2c0.9-3.3,4.4-5.3,7.7-4.4l56.7,15.7c1.6,0.4,3,1.5,3.8,3
								l35.6,62.8c0.8,1.4,1,3.2,0.6,4.8l-7.1,25.7c-0.9,3.3,1,6.8,4.4,7.7l31.6,8.7c1.6,0.4,3,1.5,3.8,3l13.9,24.6
								c1.7,3,5.5,4.1,8.6,2.4l22.4-12.7c3-1.7,4.1-5.5,2.4-8.6l-14.8-26.1c-0.8-1.4-1-3.2-0.6-4.8l5.3-19.3
								c0.9-3.3,4.4-5.3,7.7-4.4l0,0c3.3,0.9,6.8-1,7.7-4.4l3.4-12.5c0.8-3-0.7-6.2-3.5-7.4l-18.3-8
								C587.9,236.1,586.9,235.2,586.2,234z"/>
						</g>
						<path fill="#A1B5C5" d="M434.4,452.3L8.2,361.8l5.8-27.5l460.1,97.8l-14.7,13.4C452.7,451.7,443.4,454.2,434.4,452.3z"/>
						<path fill="#A1B5C5" d="M542,446.3L120,356.6l25-117.7L567,328.7c21.3,4.5,35,25.5,30.4,46.9l-8.6,40.4
							C584.3,437.2,563.4,450.9,542,446.3z"/>
						<path fill="#A1B5C5" d="M499.3,314.3L39.9,216.6l5.8-27.5l425.5,90.4c9,1.9,16.5,8,20.2,16.5L499.3,314.3z"/>
					</g>
				</g>
			</g>
			<path fill="none" stroke="#51516F" stroke-width="4.0102" stroke-miterlimit="10" d="M619,535.6
				c-60.8,86.8-161.6,143.5-275.7,143.5c-104.1,0-197.2-47.3-258.9-121.6"/>
			<path fill="none" stroke="#484761" stroke-width="4.0102" stroke-miterlimit="10" d="M674.3,282c3.6,19.7,5.5,40,5.5,60.7
				c0,71.8-22.5,138.3-60.8,192.9"/>
			<path fill="none" stroke="#51516F" stroke-width="4.0102" stroke-miterlimit="10" d="M155.1,63.8C208.8,27.5,273.6,6.2,343.3,6.2
				c165.1,0,302.4,118.9,331,275.7"/>
			<path fill="none" stroke="#71719A" stroke-width="4.0102" stroke-miterlimit="10" d="M85.9,126c20.1-23.8,43.4-44.8,69.2-62.3"/>
			<path fill="none" stroke="#8787B8" stroke-width="4.0102" stroke-miterlimit="10" d="M50.9,176.1c10.1-17.8,21.8-34.5,34.9-50"/>
			<path fill="none" stroke="#B1AFD7" stroke-width="4.0102" stroke-miterlimit="10" d="M28,225c6.3-17,14-33.3,22.9-48.9"/>
			<path fill="none" stroke="#F7F6FB" stroke-width="4.0102" stroke-miterlimit="10" d="M9.1,303.6c3.2-27.3,9.6-53.7,18.9-78.6"/>
			<path fill="none" stroke="#B1AFD7" stroke-width="4.0102" stroke-miterlimit="10" d="M10.1,389.9c-2.2-15.4-3.3-31.2-3.3-47.3
				c0-13.2,0.8-26.3,2.2-39.1"/>
			<path fill="none" stroke="#8787B8" stroke-width="4.0102" stroke-miterlimit="10" d="M41.7,491.9c-15.6-31.5-26.4-65.8-31.5-102"
				/>
			<path fill="none" stroke="#71719A" stroke-width="4.0102" stroke-miterlimit="10" d="M84.4,557.6c-16.7-20.1-31-42.1-42.7-65.7"
				/>
			<g>
				<path fill="#61717B" d="M312.7,325.7L312.7,325.7c-0.5-0.1-0.9-0.7-0.8-1.2l1.9-9.1c0.1-0.5,0.7-0.9,1.2-0.8l0,0
					c0.5,0.1,0.9,0.7,0.8,1.2l-1.9,9.1C313.8,325.5,313.3,325.8,312.7,325.7z"/>
				<path fill="#61717B" d="M316.9,326.6L316.9,326.6c-0.5-0.1-0.9-0.7-0.8-1.2l1.9-9.1c0.1-0.5,0.7-0.9,1.2-0.8l0,0
					c0.5,0.1,0.9,0.7,0.8,1.2l-1.9,9.1C318,326.4,317.5,326.7,316.9,326.6z"/>
				<path fill="#61717B" d="M321.2,327.5L321.2,327.5c-0.5-0.1-0.9-0.7-0.8-1.2l1.9-9.1c0.1-0.5,0.7-0.9,1.2-0.8l0,0
					c0.5,0.1,0.9,0.7,0.8,1.2l-1.9,9.1C322.3,327.3,321.7,327.6,321.2,327.5z"/>
				<path fill="#61717B" d="M325.4,328.4L325.4,328.4c-0.5-0.1-0.9-0.7-0.8-1.2l1.9-9.1c0.1-0.5,0.7-0.9,1.2-0.8l0,0
					c0.5,0.1,0.9,0.7,0.8,1.2l-1.9,9.1C326.5,328.2,326,328.5,325.4,328.4z"/>
			</g>
			<g>
				<path fill="#61717B" d="M560.7,409.6L560.7,409.6c-0.5-0.1-0.9-0.7-0.8-1.2l1.9-9.1c0.1-0.5,0.7-0.9,1.2-0.8l0,0
					c0.5,0.1,0.9,0.7,0.8,1.2l-1.9,9.1C561.8,409.4,561.2,409.7,560.7,409.6z"/>
				<path fill="#61717B" d="M564.9,410.5L564.9,410.5c-0.5-0.1-0.9-0.7-0.8-1.2l1.9-9.1c0.1-0.5,0.7-0.9,1.2-0.8l0,0
					c0.5,0.1,0.9,0.7,0.8,1.2l-1.9,9.1C566,410.3,565.5,410.6,564.9,410.5z"/>
				<path fill="#61717B" d="M569.2,411.4L569.2,411.4c-0.5-0.1-0.9-0.7-0.8-1.2l1.9-9.1c0.1-0.5,0.7-0.9,1.2-0.8l0,0
					c0.5,0.1,0.9,0.7,0.8,1.2l-1.9,9.1C570.2,411.2,569.7,411.5,569.2,411.4z"/>
				<path fill="#61717B" d="M573.4,412.3L573.4,412.3c-0.5-0.1-0.9-0.7-0.8-1.2l1.9-9.1c0.1-0.5,0.7-0.9,1.2-0.8l0,0
					c0.5,0.1,0.9,0.7,0.8,1.2l-1.9,9.1C574.5,412.1,573.9,412.4,573.4,412.3z"/>
			</g>
			<path fill="none" stroke="#4E5962" stroke-width="4.0102" stroke-miterlimit="10" d="M355.8,326.4l1.1-5.1
				c0.8-3.6-1.5-7.1-5.1-7.9l-47.4-10.1"/>
			<path fill="none" stroke="#4E5962" stroke-width="4.0102" stroke-miterlimit="10" d="M343.6,323.8l1.1-5.2c0.8-3.5-1.5-7-5-7.8
				l-47.5-10.1"/>
			<path fill="#6E7F8B" d="M341.1,335.7L341.1,335.7c-2-0.4-3.2-2.4-2.8-4.3l2.1-9.9c0.2-0.8,0.9-1.3,1.7-1.1l4.3,0.9
				c0.8,0.2,1.3,0.9,1.1,1.7l-2.1,9.9C345,334.9,343,336.2,341.1,335.7z"/>
			<path fill="#6E7F8B" d="M353.3,338.3L353.3,338.3c-2-0.4-3.2-2.4-2.8-4.3l2.1-9.9c0.2-0.8,0.9-1.3,1.7-1.1l4.3,0.9
				c0.8,0.2,1.3,0.9,1.1,1.7l-2.1,9.9C357.2,337.5,355.2,338.7,353.3,338.3z"/>
			<g>
				<g>
					<path fill="#3C454B" d="M206.8,390.2c-40.4-8.6-66.3-48.4-57.7-88.8c8.6-40.4,48.4-66.3,88.8-57.7
						c40.4,8.6,66.3,48.4,57.7,88.8C287.1,372.9,247.2,398.8,206.8,390.2z"/>
					<path fill="#61717B" d="M197,388.2c-40.4-8.6-66.3-48.4-57.7-88.8c8.6-40.4,48.4-66.3,88.8-57.7c40.4,8.6,66.3,48.4,57.7,88.8
						C277.3,370.9,237.4,396.8,197,388.2z"/>
					<g>
						<g>
							<g>
								<path fill="#7A8C99" d="M234,257.2c-1,4.8-5.8,7.9-10.6,6.9c-1.3-0.3-2.4-0.8-3.4-1.5c-1.6-1.2-2.8-2.9-3.4-4.8
									c-0.4-1.4-0.4-2.8-0.1-4.3c1-4.8,5.8-7.9,10.6-6.9c1.5,0.3,2.8,1,3.9,1.9c1.5,1.3,2.6,3.1,3,5
									C234.2,254.7,234.2,256,234,257.2z"/>
								<circle fill="#5D6D76" cx="225.2" cy="255.4" r="6.3"/>
								<circle fill="#4E5A62" cx="225.2" cy="255.4" r="4.3"/>
							</g>
							<g>
								<path fill="#7A8C99" d="M208.7,376.2c-1,4.8-5.8,7.9-10.6,6.9c-1.3-0.3-2.4-0.8-3.4-1.5c-1.6-1.2-2.8-2.9-3.4-4.8
									c-0.4-1.4-0.4-2.8-0.1-4.3c1-4.8,5.8-7.9,10.6-6.9c1.5,0.3,2.8,1,3.9,1.9c1.5,1.3,2.6,3.1,3,5
									C208.9,373.7,208.9,375,208.7,376.2z"/>
								<circle fill="#5D6D76" cx="199.9" cy="374.4" r="6.3"/>
								<circle fill="#4E5A62" cx="199.9" cy="374.4" r="4.3"/>
							</g>
						</g>
						<g>
							<g>
								<path fill="#7A8C99" d="M202.3,254.3c1.5,4.7-1,9.7-5.7,11.3c-1.2,0.4-2.5,0.5-3.7,0.4c-2-0.2-3.9-1.1-5.3-2.5
									c-1-1-1.8-2.2-2.3-3.6c-1.5-4.7,1-9.7,5.7-11.2c1.4-0.5,2.9-0.6,4.3-0.3c2,0.3,3.8,1.3,5.1,2.8
									C201.2,252,201.9,253,202.3,254.3z"/>
								<circle fill="#5D6D76" cx="193.8" cy="257" r="6.3"/>
								<circle fill="#4E5A62" cx="193.8" cy="257" r="4.3"/>
							</g>
							<g>
								<path fill="#7A8C99" d="M239.9,370c1.5,4.7-1,9.7-5.7,11.3c-1.2,0.4-2.5,0.5-3.7,0.4c-2-0.2-3.9-1.1-5.3-2.5
									c-1-1-1.8-2.2-2.3-3.6c-1.5-4.7,1-9.7,5.7-11.2c1.4-0.5,2.9-0.6,4.3-0.3c2,0.3,3.8,1.3,5.1,2.8
									C238.8,367.7,239.5,368.8,239.9,370z"/>
								<circle fill="#5D6D76" cx="231.4" cy="372.8" r="6.3"/>
								<circle fill="#4E5A62" cx="231.4" cy="372.8" r="4.3"/>
							</g>
						</g>
						<g>
							<g>
								<path fill="#7A8C99" d="M173.3,267.5c3.7,3.3,4,8.9,0.7,12.6c-0.9,1-1.9,1.7-3,2.2c-1.9,0.8-3.9,1-5.9,0.5
									c-1.4-0.3-2.7-1-3.8-2c-3.7-3.3-4-8.9-0.7-12.6c1-1.1,2.2-1.9,3.5-2.4c1.9-0.7,4-0.7,5.9-0.1
									C171.3,266.1,172.4,266.7,173.3,267.5z"/>
								<circle fill="#5D6D76" cx="167.4" cy="274.2" r="6.3"/>
								<circle fill="#4E5A62" cx="167.4" cy="274.2" r="4.3"/>
							</g>
							<g>
								<path fill="#7A8C99" d="M263.8,349c3.7,3.3,4,8.9,0.7,12.6c-0.9,1-1.9,1.7-3,2.2c-1.9,0.8-3.9,1-5.9,0.5
									c-1.4-0.3-2.7-1-3.8-2c-3.7-3.3-4-8.9-0.7-12.6c1-1.1,2.2-1.9,3.5-2.4c1.9-0.7,4-0.7,5.9-0.1
									C261.7,347.5,262.8,348.1,263.8,349z"/>
								<circle fill="#5D6D76" cx="257.8" cy="355.6" r="6.3"/>
								<circle fill="#4E5A62" cx="257.8" cy="355.6" r="4.3"/>
							</g>
						</g>
						<g>
							<g>
								<path fill="#7A8C99" d="M154.9,293.5c4.8,1,7.9,5.8,6.9,10.6c-0.3,1.3-0.8,2.4-1.5,3.4c-1.2,1.6-2.9,2.8-4.8,3.4
									c-1.4,0.4-2.8,0.4-4.3,0.1c-4.8-1-7.9-5.8-6.9-10.6c0.3-1.5,1-2.8,1.9-3.9c1.3-1.5,3.1-2.6,5-3
									C152.4,293.3,153.7,293.2,154.9,293.5z"/>
								<circle fill="#5D6D76" cx="153.1" cy="302.2" r="6.3"/>
								<circle fill="#4E5A62" cx="153.1" cy="302.2" r="4.3"/>
							</g>
							<g>
								<path fill="#7A8C99" d="M273.9,318.8c4.8,1,7.9,5.8,6.9,10.6c-0.3,1.3-0.8,2.4-1.5,3.4c-1.2,1.6-2.9,2.8-4.8,3.4
									c-1.4,0.4-2.8,0.4-4.3,0.1c-4.8-1-7.9-5.8-6.9-10.6c0.3-1.5,1-2.8,1.9-3.9c1.3-1.5,3.1-2.6,5-3
									C271.4,318.6,272.7,318.5,273.9,318.8z"/>
								<circle fill="#5D6D76" cx="272.1" cy="327.5" r="6.3"/>
								<circle fill="#4E5A62" cx="272.1" cy="327.5" r="4.3"/>
							</g>
						</g>
						<g>
							<g>
								<path fill="#7A8C99" d="M152,325.2c4.7-1.5,9.7,1,11.3,5.7c0.4,1.2,0.5,2.5,0.4,3.7c-0.2,2-1.1,3.9-2.5,5.3
									c-1,1-2.2,1.8-3.6,2.3c-4.7,1.5-9.7-1-11.2-5.7c-0.5-1.4-0.6-2.9-0.3-4.3c0.3-2,1.3-3.8,2.8-5.1
									C149.7,326.2,150.7,325.6,152,325.2z"/>
								<circle fill="#5D6D76" cx="154.7" cy="333.7" r="6.3"/>
								<circle fill="#4E5A62" cx="154.7" cy="333.7" r="4.3"/>
							</g>
							<g>
								<path fill="#7A8C99" d="M267.7,287.6c4.7-1.5,9.7,1,11.3,5.7c0.4,1.2,0.5,2.5,0.4,3.7c-0.2,2-1.1,3.9-2.5,5.3
									c-1,1-2.2,1.8-3.6,2.3c-4.7,1.5-9.7-1-11.2-5.7c-0.5-1.4-0.6-2.9-0.3-4.3c0.3-2,1.3-3.8,2.8-5.1
									C265.4,288.6,266.5,288,267.7,287.6z"/>
								<circle fill="#5D6D76" cx="270.4" cy="296.1" r="6.3"/>
								<circle fill="#4E5A62" cx="270.4" cy="296.1" r="4.3"/>
							</g>
						</g>
						<g>
							<g>
								<path fill="#7A8C99" d="M165.2,354.1c3.3-3.7,8.9-4,12.6-0.7c1,0.9,1.7,1.9,2.2,3c0.8,1.9,1,3.9,0.5,5.9
									c-0.3,1.4-1,2.7-2,3.8c-3.3,3.7-8.9,4-12.6,0.7c-1.1-1-1.9-2.2-2.4-3.5c-0.7-1.9-0.7-4-0.1-5.9
									C163.8,356.2,164.4,355.1,165.2,354.1z"/>
								<circle fill="#5D6D76" cx="171.9" cy="360.1" r="6.3"/>
								<circle fill="#4E5A62" cx="171.9" cy="360.1" r="4.3"/>
							</g>
							<g>
								<path fill="#7A8C99" d="M246.7,263.7c3.3-3.7,8.9-4,12.6-0.7c1,0.9,1.7,1.9,2.2,3c0.8,1.9,1,3.9,0.5,5.9
									c-0.3,1.4-1,2.7-2,3.8c-3.3,3.7-8.9,4-12.6,0.7c-1.1-1-1.9-2.2-2.4-3.5c-0.7-1.9-0.7-4-0.1-5.9
									C245.2,265.8,245.8,264.7,246.7,263.7z"/>
								<circle fill="#5D6D76" cx="253.3" cy="269.7" r="6.3"/>
								<circle fill="#4E5A62" cx="253.3" cy="269.7" r="4.3"/>
							</g>
						</g>
					</g>
					<path fill="#546169" d="M202.6,361.9c-25.9-5.5-42.6-31.1-37.1-57.1c5.5-25.9,31.1-42.6,57.1-37.1s42.6,31.1,37.1,57.1
						C254.1,350.8,228.5,367.5,202.6,361.9z"/>
					<circle fill="#A7BFCF" cx="212.6" cy="314.9" r="44.5"/>
					<g>
						<path fill="#FAB292" d="M252.5,323.4c-0.6,2.6-1.2,5.3-2.2,7.7c-1.1,2.5-3.3,4.2-4.8,6.4c-1.5,2.2-2.7,4.6-4.6,6.4
							c-1.9,1.9-4,3.5-6.2,5c-2.2,1.4-4.5,2.9-6.9,3.9c-2.4,1-5.1,1.3-7.8,1.7c-2.6,0.5-5.2,0.9-7.9,0.8c-2.6,0-5.2-0.5-7.8-1.1
							c-2.6-0.6-5.5-0.4-7.9-1.4c-2.5-1.1-4.7-2.7-6.9-4.2c-2.2-1.5-4.1-3.4-6-5.3c-1.9-1.9-2.7-4.6-4.1-6.8
							c-1.4-2.2-3.3-4.2-4.3-6.6c-1-2.4-1.1-5.1-1.6-7.7c-0.5-2.6-1.9-5.1-1.9-7.8c0-2.6,1.2-5.2,1.7-7.8c0.6-2.6,0.8-5.3,1.9-7.7
							c1.1-2.5,2.2-4.9,3.7-7.1c1.5-2.2,3.6-4,5.5-5.9c1.9-1.9,3.9-3.7,6.1-5.2c2.2-1.4,4.9-2,7.4-3c2.4-1,4.8-2.5,7.4-3
							c2.6-0.5,5.3-0.4,8-0.3c2.6,0,5.2,0.5,7.9,1c2.6,0.6,5.4,0.7,7.8,1.8c2.5,1.1,4.3,3.2,6.5,4.7c2.2,1.5,4.5,2.9,6.3,4.7
							c1.9,1.9,2.8,4.5,4.2,6.7c1.4,2.2,3.3,4.2,4.2,6.6c1,2.4,2,4.9,2.5,7.6c0.5,2.6,0.2,5.3,0.2,7.9
							C252.8,318,253.1,320.7,252.5,323.4z"/>
					</g>
					<g>
						<defs>
							<circle id="SVGID_4_" cx="212.6" cy="314.9" r="36.3"/>
						</defs>
						<defs>
							<circle id="SVGID_5_" cx="212.6" cy="314.9" r="34"/>
						</defs>
						<use xlink:href="#SVGID_4_"  overflow="visible" fill="#F47641"/>
						<use xlink:href="#SVGID_5_"  overflow="visible" fill="#F68D40"/>
						<clipPath id="SVGID_6_">
							<use xlink:href="#SVGID_4_"  overflow="visible"/>
						</clipPath>
						<clipPath id="SVGID_7_" clip-path="url(#SVGID_6_)">
							<use xlink:href="#SVGID_5_"  overflow="visible"/>
						</clipPath>
						<g clip-path="url(#SVGID_7_)">
							<path fill="#FFC425" d="M218.1,288.9L218.1,288.9c-0.9-0.2-1.5-1.1-1.3-2l1.6-7.4c0.2-0.9,1.1-1.5,2-1.3l0,0
								c0.9,0.2,1.5,1.1,1.3,2l-1.6,7.4C219.9,288.5,219,289.1,218.1,288.9z"/>
							<path fill="#FFC425" d="M204.8,351.6L204.8,351.6c-0.9-0.2-1.5-1.1-1.3-2l1.6-7.4c0.2-0.9,1.1-1.5,2-1.3l0,0
								c0.9,0.2,1.5,1.1,1.3,2l-1.6,7.4C206.6,351.2,205.7,351.8,204.8,351.6z"/>
						</g>
						<g clip-path="url(#SVGID_7_)">
							<path fill="#FFC425" d="M212.6,288.3L212.6,288.3c-0.9,0-1.7-0.7-1.7-1.7v-7.6c0-0.9,0.7-1.7,1.7-1.7l0,0
								c0.9,0,1.7,0.7,1.7,1.7v7.6C214.2,287.6,213.5,288.3,212.6,288.3z"/>
							<path fill="#FFC425" d="M212.6,352.4L212.6,352.4c-0.9,0-1.7-0.7-1.7-1.7v-7.6c0-0.9,0.7-1.7,1.7-1.7l0,0
								c0.9,0,1.7,0.7,1.7,1.7v7.6C214.2,351.6,213.5,352.4,212.6,352.4z"/>
						</g>
						<g clip-path="url(#SVGID_7_)">
							<path fill="#FFC425" d="M207.1,288.9L207.1,288.9c-0.9,0.2-1.8-0.4-2-1.3l-1.6-7.4c-0.2-0.9,0.4-1.8,1.3-2l0,0
								c0.9-0.2,1.8,0.4,2,1.3l1.6,7.4C208.5,287.8,207.9,288.7,207.1,288.9z"/>
							<path fill="#FFC425" d="M220.4,351.6L220.4,351.6c-0.9,0.2-1.8-0.4-2-1.3l-1.6-7.4c-0.2-0.9,0.4-1.8,1.3-2l0,0
								c0.9-0.2,1.8,0.4,2,1.3l1.6,7.4C221.8,350.5,221.3,351.4,220.4,351.6z"/>
						</g>
						<g clip-path="url(#SVGID_7_)">
							<path fill="#FFC425" d="M201.8,290.6L201.8,290.6c-0.8,0.4-1.8,0-2.2-0.8l-3.1-6.9c-0.4-0.8,0-1.8,0.8-2.2h0
								c0.8-0.4,1.8,0,2.2,0.8l3.1,6.9C203,289.3,202.6,290.2,201.8,290.6z"/>
							<path fill="#FFC425" d="M227.8,349.1L227.8,349.1c-0.8,0.4-1.8,0-2.2-0.8l-3.1-6.9c-0.4-0.8,0-1.8,0.8-2.2h0
								c0.8-0.4,1.8,0,2.2,0.8l3.1,6.9C229,347.8,228.7,348.8,227.8,349.1z"/>
						</g>
						<g clip-path="url(#SVGID_7_)">
							<path fill="#FFC425" d="M197,293.4L197,293.4c-0.7,0.5-1.8,0.4-2.3-0.4l-4.5-6.1c-0.5-0.7-0.4-1.8,0.4-2.3l0,0
								c0.7-0.5,1.8-0.4,2.3,0.4l4.5,6.1C197.9,291.8,197.7,292.8,197,293.4z"/>
							<path fill="#FFC425" d="M234.6,345.2L234.6,345.2c-0.7,0.5-1.8,0.4-2.3-0.4l-4.5-6.1c-0.5-0.7-0.4-1.8,0.4-2.3l0,0
								c0.7-0.5,1.8-0.4,2.3,0.4l4.5,6.1C235.5,343.7,235.4,344.7,234.6,345.2z"/>
						</g>
						<g clip-path="url(#SVGID_7_)">
							<path fill="#FFC425" d="M192.8,297.1L192.8,297.1c-0.6,0.7-1.7,0.7-2.3,0.1l-5.6-5.1c-0.7-0.6-0.7-1.7-0.1-2.3l0,0
								c0.6-0.7,1.7-0.7,2.3-0.1l5.6,5.1C193.4,295.4,193.4,296.4,192.8,297.1z"/>
							<path fill="#FFC425" d="M240.4,340L240.4,340c-0.6,0.7-1.7,0.7-2.3,0.1l-5.6-5.1c-0.7-0.6-0.7-1.7-0.1-2.3l0,0
								c0.6-0.7,1.7-0.7,2.3-0.1l5.6,5.1C241,338.3,241.1,339.3,240.4,340z"/>
						</g>
						<g clip-path="url(#SVGID_7_)">
							<path fill="#FFC425" d="M189.6,301.6L189.6,301.6c-0.5,0.8-1.5,1.1-2.3,0.6l-6.6-3.8c-0.8-0.5-1.1-1.5-0.6-2.3l0,0
								c0.5-0.8,1.5-1.1,2.3-0.6l6.6,3.8C189.7,299.8,190,300.8,189.6,301.6z"/>
							<path fill="#FFC425" d="M245,333.6L245,333.6c-0.5,0.8-1.5,1.1-2.3,0.6l-6.6-3.8c-0.8-0.5-1.1-1.5-0.6-2.3v0
								c0.5-0.8,1.5-1.1,2.3-0.6l6.6,3.8C245.2,331.8,245.5,332.8,245,333.6z"/>
						</g>
						<g clip-path="url(#SVGID_7_)">
							<path fill="#FFC425" d="M187.3,306.7L187.3,306.7c-0.3,0.9-1.2,1.3-2.1,1.1l-7.2-2.3c-0.9-0.3-1.3-1.2-1.1-2.1l0,0
								c0.3-0.9,1.2-1.3,2.1-1.1l7.2,2.3C187.1,304.9,187.6,305.8,187.3,306.7z"/>
							<path fill="#FFC425" d="M248.2,326.5L248.2,326.5c-0.3,0.9-1.2,1.3-2.1,1.1l-7.2-2.3c-0.9-0.3-1.3-1.2-1.1-2.1l0,0
								c0.3-0.9,1.2-1.3,2.1-1.1l7.2,2.3C248,324.7,248.5,325.6,248.2,326.5z"/>
						</g>
						<g clip-path="url(#SVGID_7_)">
							<path fill="#FFC425" d="M186.1,312.1L186.1,312.1c-0.1,0.9-0.9,1.6-1.8,1.5l-7.6-0.8c-0.9-0.1-1.6-0.9-1.5-1.8l0,0
								c0.1-0.9,0.9-1.6,1.8-1.5l7.6,0.8C185.6,310.4,186.2,311.2,186.1,312.1z"/>
							<path fill="#FFC425" d="M249.9,318.8L249.9,318.8c-0.1,0.9-0.9,1.6-1.8,1.5l-7.6-0.8c-0.9-0.1-1.6-0.9-1.5-1.8l0,0
								c0.1-0.9,0.9-1.6,1.8-1.5l7.6,0.8C249.3,317.1,250,317.9,249.9,318.8z"/>
						</g>
						<g clip-path="url(#SVGID_7_)">
							<path fill="#FFC425" d="M186.1,317.7L186.1,317.7c0.1,0.9-0.6,1.7-1.5,1.8l-7.6,0.8c-0.9,0.1-1.7-0.6-1.8-1.5l0,0
								c-0.1-0.9,0.6-1.7,1.5-1.8l7.6-0.8C185.2,316.1,186,316.8,186.1,317.7z"/>
							<path fill="#FFC425" d="M249.9,311L249.9,311c0.1,0.9-0.6,1.7-1.5,1.8l-7.6,0.8c-0.9,0.1-1.7-0.6-1.8-1.5l0,0
								c-0.1-0.9,0.6-1.7,1.5-1.8l7.6-0.8C249,309.4,249.8,310.1,249.9,311z"/>
						</g>
						<g clip-path="url(#SVGID_7_)">
							<path fill="#FFC425" d="M187.3,323.1L187.3,323.1c0.3,0.9-0.2,1.8-1.1,2.1l-7.2,2.3c-0.9,0.3-1.8-0.2-2.1-1.1l0,0
								c-0.3-0.9,0.2-1.8,1.1-2.1l7.2-2.3C186.1,321.8,187,322.2,187.3,323.1z"/>
							<path fill="#FFC425" d="M248.2,303.3L248.2,303.3c0.3,0.9-0.2,1.8-1.1,2.1l-7.2,2.3c-0.9,0.3-1.8-0.2-2.1-1.1l0,0
								c-0.3-0.9,0.2-1.8,1.1-2.1l7.2-2.3C247,302,248,302.4,248.2,303.3z"/>
						</g>
						<g clip-path="url(#SVGID_7_)">
							<path fill="#FFC425" d="M189.6,328.2L189.6,328.2c0.5,0.8,0.2,1.8-0.6,2.3l-6.6,3.8c-0.8,0.5-1.8,0.2-2.3-0.6l0,0
								c-0.5-0.8-0.2-1.8,0.6-2.3l6.6-3.8C188.1,327.1,189.1,327.4,189.6,328.2z"/>
							<path fill="#FFC425" d="M245,296.2L245,296.2c0.5,0.8,0.2,1.8-0.6,2.3l-6.6,3.8c-0.8,0.5-1.8,0.2-2.3-0.6l0,0
								c-0.5-0.8-0.2-1.8,0.6-2.3l6.6-3.8C243.6,295.1,244.6,295.4,245,296.2z"/>
						</g>
						<g clip-path="url(#SVGID_7_)">
							<path fill="#FFC425" d="M192.8,332.7L192.8,332.7c0.6,0.7,0.6,1.7-0.1,2.3l-5.6,5.1c-0.7,0.6-1.7,0.6-2.3-0.1l0,0
								c-0.6-0.7-0.6-1.7,0.1-2.3l5.6-5.1C191.2,332,192.2,332,192.8,332.7z"/>
							<path fill="#FFC425" d="M240.4,289.8L240.4,289.8c0.6,0.7,0.6,1.7-0.1,2.3l-5.6,5.1c-0.7,0.6-1.7,0.6-2.3-0.1l0,0
								c-0.6-0.7-0.6-1.7,0.1-2.3l5.6-5.1C238.8,289.1,239.8,289.1,240.4,289.8z"/>
						</g>
						<g clip-path="url(#SVGID_7_)">
							<path fill="#FFC425" d="M197,336.4L197,336.4c0.7,0.5,0.9,1.6,0.4,2.3l-4.5,6.1c-0.5,0.7-1.6,0.9-2.3,0.4l0,0
								c-0.7-0.5-0.9-1.6-0.4-2.3l4.5-6.1C195.2,336,196.2,335.9,197,336.4z"/>
							<path fill="#FFC425" d="M234.6,284.6L234.6,284.6c0.7,0.5,0.9,1.6,0.4,2.3l-4.5,6.1c-0.5,0.7-1.6,0.9-2.3,0.4l0,0
								c-0.7-0.5-0.9-1.6-0.4-2.3l4.5-6.1C232.8,284.2,233.9,284,234.6,284.6z"/>
						</g>
						<g clip-path="url(#SVGID_7_)">
							<path fill="#FFC425" d="M201.8,339.2L201.8,339.2c0.8,0.4,1.2,1.3,0.8,2.2l-3.1,6.9c-0.4,0.8-1.3,1.2-2.2,0.8h0
								c-0.8-0.4-1.2-1.3-0.8-2.2l3.1-6.9C200,339.2,200.9,338.8,201.8,339.2z"/>
							<path fill="#FFC425" d="M227.8,280.6L227.8,280.6c0.8,0.4,1.2,1.3,0.8,2.2l-3.1,6.9c-0.4,0.8-1.3,1.2-2.2,0.8h0
								c-0.8-0.4-1.2-1.3-0.8-2.2l3.1-6.9C226,280.7,227,280.3,227.8,280.6z"/>
						</g>
						<g clip-path="url(#SVGID_7_)">
							<path fill="#F58028" d="M233.6,319.4c-0.4,2-0.1,4.1-1,5.7c-0.9,1.8-2.1,3.3-3.4,4.8c-1.3,1.5-2.8,2.8-4.4,3.8
								c-1.6,1.1-3.3,2.3-5.2,2.9c-1.8,0.6-3.9,1.3-5.8,1.4c-1.9,0.1-4-0.2-6-0.6c-2-0.4-3.3-2.4-5-3.3c-1.8-0.9-3.6-1.4-5.1-2.7
								c-1.5-1.3-2.6-2.9-3.6-4.5c-1.1-1.6-2.5-3.1-3.1-5c-0.6-1.8-1.2-3.8-1.3-5.8c-0.1-1.9,0.1-4,0.5-6c0.4-2,2-3.5,2.9-5.2
								c0.9-1.8,1.8-3.4,3.1-4.8c1.3-1.5,3-2.3,4.6-3.4c1.6-1.1,2.8-3.2,4.7-3.8c1.8-0.6,3.9-1.1,5.9-1.2c1.9-0.1,4.1,0.1,6,0.5
								c2,0.4,3.6,2,5.3,2.8c1.8,0.9,3.8,1.4,5.3,2.7c1.5,1.3,2.7,3,3.8,4.6c1.1,1.6,1.8,3.5,2.5,5.4c0.6,1.8-0.1,3.9,0,5.9
								C234.2,315.7,234,317.4,233.6,319.4z"/>
						</g>
						<g clip-path="url(#SVGID_7_)">
							<path fill="#F15E2D" d="M227.1,318c-0.5,2.2,0.1,4.4-1.1,6.2c-1.2,1.8-2.9,3.1-4.7,4.2c-1.8,1.2-3.4,3.6-5.5,4
								c-2,0.4-4.4-1.3-6.6-1.7c-2.2-0.5-3.6-2-5.3-3.2c-1.8-1.2-2.6-2.7-3.8-4.5c-1.2-1.8-4.4-2.7-4.8-4.9c-0.4-2,0.9-4.4,1.4-6.5
								c0.5-2.2,0.7-4.5,1.9-6.2c1.2-1.8,3.7-2.3,5.4-3.5c1.8-1.2,3.6-1.5,5.7-1.9c2-0.4,4.1-2,6.3-1.5c2.2,0.5,3.6,2.4,5.3,3.6
								c1.8,1.2,4.8,1.5,5.9,3.3c1.2,1.8,2.8,4.1,3.2,6.2C230.9,313.6,227.6,315.8,227.1,318z"/>
						</g>
						<g clip-path="url(#SVGID_7_)">
							<path fill="#EF3F23" d="M218.9,315.7c-0.2,0.9,0,2.1-0.5,2.9c-0.5,0.8-1.4,1.5-2.2,2c-0.8,0.5-1.8,1-2.7,1.2
								c-0.9,0.2-2,0-2.9-0.2c-0.9-0.2-1.9-0.7-2.6-1.2c-0.8-0.5-1.9-1-2.4-1.8c-0.5-0.8-0.4-2-0.6-2.9c-0.2-0.9,0.5-1.7,0.7-2.7
								c0.2-0.9,0.5-1.6,1-2.3c0.5-0.8,1.1-1.3,1.8-1.8c0.8-0.5,1.2-2,2.1-2.1c0.9-0.2,1.8,1.3,2.7,1.5c0.9,0.2,2.2-0.6,3-0.1
								c0.8,0.5,0.8,1.9,1.3,2.6c0.5,0.8,0.8,1.5,0.9,2.4C218.9,314,219.1,314.8,218.9,315.7z"/>
						</g>
					</g>
				</g>
				<g>
					<path fill="#F15E2D" d="M207.2,299.4c-0.2,0.7-1,1.2-1.8,1c-0.7-0.2-1.1-0.9-1-1.6c0.2-0.7,0.8-1.3,1.6-1.1
						C206.8,297.8,207.4,298.6,207.2,299.4z"/>
				</g>
				<g>
					<path fill="#F15E2D" d="M220.9,323.4c-0.2,1-1.2,1.8-2.2,1.6c-1-0.2-1.8-1.3-1.6-2.4s1.3-1.5,2.4-1.3
						C220.5,321.5,221.1,322.3,220.9,323.4z"/>
				</g>
				<g>
					<path fill="#F9A346" d="M225.8,306.1c-0.1,0.6-0.7,1-1.4,0.9c-0.6-0.1-1.1-0.8-0.9-1.4s0.8-1,1.4-0.9
						C225.6,304.8,226,305.4,225.8,306.1z"/>
				</g>
				<g>
					<path fill="#F9A346" d="M227.1,309.6c-0.1,0.4-0.4,0.6-0.8,0.5c-0.4-0.1-0.6-0.4-0.5-0.8c0.1-0.4,0.4-0.6,0.8-0.6
						S227.2,309.2,227.1,309.6z"/>
				</g>
				<circle fill="#FEE644" cx="244.6" cy="284.1" r="1.8"/>
				<circle fill="#F9A346" cx="242.6" cy="274.4" r="1.3"/>
				<circle fill="#F26428" cx="183.2" cy="353.5" r="1.7"/>
				<circle fill="#A9BBC7" cx="208.1" cy="251.7" r="1.9"/>
				<circle fill="#A9BBC7" cx="236.6" cy="238.5" r="1.3"/>
				<circle fill="#8F9EA8" cx="232.5" cy="243.9" r="1.8"/>
				<circle fill="#8F9EA8" cx="207.5" cy="269.7" r="3.8"/>
				<circle fill="#8F9EA8" cx="233" cy="274" r="2.9"/>
				<circle fill="#A9BBC7" cx="210.9" cy="266.4" r="2.7"/>
			</g>
		</g>
		<circle fill="#8181B0" cx="42" cy="222.5" r="1.5"/>
		<circle fill="#8181B0" cx="18.5" cy="326.3" r="1.5"/>
		<circle fill="#8181B0" cx="46" cy="331.8" r="1.5"/>
		<circle fill="#FFFFFF" cx="4.4" cy="334.7" r="1.5"/>
		<circle fill="#FFFFFF" cx="20.1" cy="310.7" r="1.1"/>
		<circle fill="#8181B0" cx="36" cy="231.3" r="1.2"/>
		<circle fill="#8181B0" cx="49.7" cy="259.8" r="0.7"/>
		<circle fill="#8181B0" cx="52.2" cy="325.6" r="1"/>
		<circle fill="#8181B0" cx="45.1" cy="309.7" r="1"/>
		<circle fill="#8181B0" cx="39.1" cy="216.7" r="0.7"/>
		<circle fill="#FFFFFF" cx="28.1" cy="218.5" r="1.6"/>
		<circle fill="#3C454B" cx="456.6" cy="390.2" r="6"/>

			<line fill="none" stroke="#4E5962" stroke-width="4.0102" stroke-linecap="round" stroke-miterlimit="10" x1="355.2" y1="368.6" x2="456.6" y2="390.2"/>
		<g>
			<path fill="#6E7F8B" d="M85.8,252.1c4.7-1.5,9.7,1,11.3,5.7c0.4,1.2,0.5,2.5,0.4,3.7c-0.2,2-1.1,3.9-2.5,5.3
				c-1,1-2.2,1.8-3.6,2.3c-4.7,1.5-9.7-1-11.2-5.7c-0.5-1.4-0.6-2.9-0.3-4.3c0.3-2,1.3-3.8,2.8-5.1
				C83.5,253.2,84.6,252.5,85.8,252.1z"/>
			<circle fill="#5D6D76" cx="88.6" cy="260.6" r="6.3"/>
			<circle fill="#3C454B" cx="88.6" cy="260.6" r="4.3"/>
		</g>
		<g>
			<path fill="#6E7F8B" d="M111.7,257.6c4.7-1.5,9.7,1,11.3,5.7c0.4,1.2,0.5,2.5,0.4,3.7c-0.2,2-1.1,3.9-2.5,5.3
				c-1,1-2.2,1.8-3.6,2.3c-4.7,1.5-9.7-1-11.2-5.7c-0.5-1.4-0.6-2.9-0.3-4.3c0.3-2,1.3-3.8,2.8-5.1
				C109.4,258.7,110.5,258,111.7,257.6z"/>
			<circle fill="#5D6D76" cx="114.4" cy="266.1" r="6.3"/>
			<circle fill="#3C454B" cx="114.4" cy="266.1" r="4.3"/>
		</g>
	</g>
	<g>
		<circle fill="#6A69A1" cx="641.7" cy="558.8" r="2.7"/>
		<circle fill="#6A69A1" cx="614.3" cy="619.3" r="2.1"/>
		<circle fill="#6A69A1" cx="576.8" cy="631.1" r="2.1"/>
		<circle fill="#6A69A1" cx="641.7" cy="602.3" r="1.4"/>
		<circle fill="#6A69A1" cx="520.4" cy="659.2" r="1.4"/>
		<circle fill="#6A69A1" cx="593.7" cy="653.9" r="1.4"/>
		<circle fill="#6A69A1" cx="596.6" cy="694.1" r="1.4"/>
		<circle fill="#6A69A1" cx="695.9" cy="619.3" r="1.4"/>
		<circle fill="#6A69A1" cx="641.7" cy="577.1" r="1.4"/>
		<circle fill="#6A69A1" cx="658.3" cy="565.8" r="1.4"/>
		<circle fill="#6A69A1" cx="704.5" cy="675.4" r="1.4"/>
		<circle fill="#6A69A1" cx="33.8" cy="136.3" r="2.7"/>
		<circle fill="#6A69A1" cx="114.8" cy="63.3" r="2.1"/>
		<circle fill="#6A69A1" cx="60" cy="65.4" r="2.1"/>
		<circle fill="#6A69A1" cx="53.2" cy="106.7" r="1.4"/>
		<circle fill="#6A69A1" cx="20.4" cy="98.7" r="1.4"/>
		<circle fill="#6A69A1" cx="87.7" cy="98.3" r="1.4"/>
		<circle fill="#6A69A1" cx="89.1" cy="91.4" r="1.4"/>
		<circle fill="#6A69A1" cx="66.2" cy="85.4" r="1.4"/>
		<circle fill="#6A69A1" cx="21.6" cy="129.8" r="1.4"/>
		<circle fill="#6A69A1" cx="-39.8" cy="106.7" r="1.4"/>
		<circle fill="#6A69A1" cx="18.3" cy="164.4" r="1.4"/>
	</g>
</g>
</svg>
