<?xml version="1.0" encoding="utf-8"?>
<!-- Generator: Adobe Illustrator 23.0.6, SVG Export Plug-In . SVG Version: 6.00 Build 0)  -->
<svg version="1.0" id="Layer_1" xmlns="http://www.w3.org/2000/svg" xmlns:xlink="http://www.w3.org/1999/xlink" x="400px" y="400px"
	 viewBox="0 0 500 500" enable-background="new 0 0 500 500" xml:space="preserve">
<g>
	<g>
		<g>
			<g>

					<image overflow="visible" opacity="0.4" width="1865" height="1865" xlink:href="4E853BCDD8B35FA4.png"  transform="matrix(0.24 0 0 0.24 26.9166 30.7566)">
				</image>
				<g>
					<circle fill="#161627" cx="250.6" cy="254.6" r="175.9"/>
				</g>
			</g>
			<g>
				<defs>
					<circle id="SVGID_1_" cx="250.6" cy="256.2" r="176.8"/>
				</defs>
				<defs>
					<circle id="SVGID_2_" cx="250.6" cy="256.2" r="176.8"/>
				</defs>
				<use xlink:href="#SVGID_1_"  overflow="visible" fill="#EAC8AD"/>
				<use xlink:href="#SVGID_2_"  overflow="visible" fill="#FAAA6D"/>
				<clipPath id="SVGID_3_">
					<use xlink:href="#SVGID_1_"  overflow="visible"/>
				</clipPath>
				<clipPath id="SVGID_4_" clip-path="url(#SVGID_3_)">
					<use xlink:href="#SVGID_2_"  overflow="visible"/>
				</clipPath>
				<path clip-path="url(#SVGID_4_)" fill="#F2D1B8" d="M346,147.8l-8-8c-0.8-0.8-2.1-0.8-2.9,0l0,0c-0.8,0.8-0.8,2.1,0,2.9l8,8
					c0.8,0.8,2.1,0.8,2.9,0l0,0C346.8,149.9,346.8,148.6,346,147.8z"/>
				<path clip-path="url(#SVGID_4_)" fill="#ED8C65" d="M308.3,382l-16.6,16.6c-1.1,1.1-3,1.1-4.1,0l-6.2-6.2
					c-0.6-0.6-1.3-0.9-2.1-0.9H262c-0.8,0-1.5,0.3-2.1,0.9L246.4,406c-0.6,0.6-1.3,0.9-2.1,0.9h-19.4c-0.8,0-1.5,0.3-2.1,0.9
					l-10.5,10.5c-1,1-1.1,2.6-0.3,3.8l9.5,12.7c1.1,1.4,0.6,3.5-1,4.3L159,470.5c-0.5,0.3-1.1,0.4-1.6,0.3l-51.2-5.5
					c-1.1-0.1-2-0.9-2.4-1.9l-32.7-91c-0.1-0.3-0.2-0.7-0.2-1V215.9c0-0.8,0.3-1.5,0.9-2.1l25.5-25.5c1.1-1.1,3-1.1,4.1,0l16.3,16.3
					c1.1,1.1,1.1,3,0,4.1l-2.4,2.4c-1.1,1.1-1.1,3,0,4.1l9,9c1.1,1.1,1.1,3,0,4.1l-3.9,3.9c-1.1,1.1-3,1.1-4.1,0l-4.6-4.6
					c-1.1-1.1-3-1.1-4.1,0l-9.5,9.5c-0.6,0.6-0.9,1.3-0.9,2.1v22.3c0,0.8,0.3,1.5,0.9,2.1l11.4,11.4c0.6,0.6,0.9,1.3,0.9,2.1v23.5
					c0,1.6,1.3,2.9,2.9,2.9h10.2c1.6,0,2.9-1.3,2.9-2.9v-28.1c0-1.6,1.3-2.9,2.9-2.9h8c0.8,0,1.5,0.3,2.1,0.8l10.4,10.4
					c0.6,0.6,0.9,1.3,0.9,2.1v21.3c0,0.8,0.3,1.5,0.8,2.1l39.5,39.5c0.6,0.5,1.3,0.8,2.1,0.8h16c0.8,0,1.5-0.3,2.1-0.8l11.9-11.9
					c0.6-0.6,1.3-0.9,2.1-0.9h29.2c0.8,0,1.5,0.3,2.1,0.9l18.3,18.3c0.6,0.6,0.9,1.3,0.9,2.1v14.3c0,0.8,0.3,1.5,0.9,2.1l9.5,9.5
					c1.1,1.1,3,1.1,4.1,0l8.3-8.3c1.1-1.1,3-1.1,4.1,0l6.1,6.1C309.4,379,309.4,380.8,308.3,382z"/>
				<path clip-path="url(#SVGID_4_)" fill="#F2D1B8" d="M192.6,420.9l-10.4-10.4c-0.5-0.5-1.3-0.9-2.1-0.9h-15.4
					c-2.1,0-3.5,2.1-2.7,4l4.1,9.9c0.4,1.1,1.5,1.8,2.6,1.8l21.7,0.5C193.1,425.9,194.4,422.8,192.6,420.9z"/>
				<g clip-path="url(#SVGID_4_)">
					<path fill="#ED8C65" d="M465.2,287.6c0.1,0.8-0.2,1.7-0.8,2.3l-47.2,47.2c-1.1,1.1-3,1.1-4.1,0l-16.7-16.7
						c-0.6-0.6-1.3-0.9-2.1-0.9h-34c-0.8,0-1.5-0.3-2.1-0.9l-15.7-15.7c-0.6-0.6-0.9-1.3-0.9-2.1v-10.7c0-0.8,0.3-1.5,0.9-2.1
						l31.3-31.3c1.1-1.1,1.1-3,0-4.1l-13.8-13.8c-0.6-0.6-1.3-0.9-2.1-0.9h-29.6c-0.8,0-1.5-0.3-2.1-0.9l-12.4-12.4
						c-1.1-1.1-3-1.1-4.1,0l-2.4,2.4c-1.1,1.1-1.1,3,0,4.1l6.1,6.1c1.1,1.1,1.1,3,0,4.1l-2.4,2.4c-1.1,1.1-3,1.1-4.1,0l-18.5-18.5
						c-1.1-1.1-1.1-3,0-4.1l6.8-6.8c1.1-1.1,1.1-3,0-4.1l-16.7-16.7c-0.6-0.6-1.3-0.9-2.1-0.9H263c-1.6,0-2.9,1.3-2.9,2.9v57.6
						c0,1.6-1.3,2.9-2.9,2.9h-27.3c-0.8,0-1.5-0.3-2.1-0.8l-8.8-8.8l-1.1,1.1c-0.6,0.6-0.6,1.5,0,2.1l3.7,3.7c0.3,0.3,0.4,0.6,0.4,1
						v1.7c0,0.8-0.7,1.5-1.5,1.5h-5.1c-0.8,0-1.5-0.7-1.5-1.5v-4.4c0-0.4-0.2-0.8-0.4-1l-8.3-8.3c-0.6-0.6-0.6-1.5,0-2.1l0.6-0.6
						c0.6-0.6,1.5-0.6,2.1,0l4.2,4.2c0.6,0.6,1.5,0.6,2.1,0l1.1-1.1l-2.8-2.8c-0.5-0.6-0.8-1.3-0.8-2.1v-26.5c0-0.8-0.3-1.5-0.9-2.1
						l-14.5-14.5c-0.6-0.6-0.9-1.3-0.9-2.1v-27.1c0-0.8,0.3-1.5,0.9-2.1l24.8-24.8c0.6-0.6,1.3-0.9,2.1-0.9h7c0.8,0,1.5-0.3,2.1-0.9
						l16.5-16.5c0.6-0.6,1.3-0.9,2.1-0.9h16.3c1.6,0,2.9,1.3,2.9,2.9v11.6c0,1.6,1.3,2.9,2.9,2.9h1.5c1.6,0,2.9-1.3,2.9-2.9v-7.3
						c0-1.6,1.3-2.9,2.9-2.9h22.1c0.8,0,1.5,0.3,2.1,0.9l10.9,10.9c1.1,1.1,3,1.1,4.1,0l1.7-1.7c1.1-1.1,1.1-3,0-4.1l-0.3-0.3
						c-1.1-1.1-1.1-3,0-4.1l3.2-3.2c1.1-1.1,3-1.1,4.1,0l29.7,29.7c0.6,0.6,1.5,0.9,2.3,0.8l18.3-1.7l70.6-6.6c1.6-0.1,3,1,3.2,2.6
						l4,35L465.2,287.6z"/>
					<path fill="#ED8C65" d="M272.9,253.7v-4.4c0-0.7,0.3-1.3,0.7-1.8l6.2-6.2c1-1,1-2.6,0-3.6l-2.5-2.5c-0.5-0.5-1.1-0.7-1.8-0.7
						h-5.1c-1.4,0-2.5,1.1-2.5,2.5v16.7c0,1.4,1.1,2.5,2.5,2.5S272.9,255.1,272.9,253.7z"/>
					<path fill="#ED8C65" d="M232,131.5l3-3c0.9-0.9,0.3-2.5-1-2.5h-3c-0.8,0-1.5,0.7-1.5,1.5v3C229.5,131.7,231.1,132.4,232,131.5z
						"/>
					<path fill="#ED8C65" d="M305.7,304.4c-0.5-0.5-0.9-1.3-0.9-2.1v-19.8c0-2.6-3.1-3.9-5-2.1l-20.7,20.7c-0.5,0.5-0.9,1.3-0.9,2.1
						v14.3c0,0.8,0.3,1.5,0.9,2.1l10.7,10.7c0.5,0.5,1.3,0.9,2.1,0.9h14.9c0.8,0,1.6-0.4,2.2-1l4.8-5.5c0.5-0.5,0.7-1.2,0.7-1.9
						v-8.4c0-0.8-0.3-1.5-0.9-2.1L305.7,304.4z"/>
					<path fill="#ED8C65" d="M178.9,316c0.6,0.5,1.4,0.4,1.9-0.1l8.8-8.8c0.6-0.6,0.6-1.5,0-2.1l-9.9-9.9c-0.8-0.8-0.2-2.2,0.9-2.2
						c0.7,0,1.3-0.6,1.3-1.3v-4.5c0-0.8-0.7-1.5-1.5-1.5h-5.8c-0.8,0-1.5,0.7-1.5,1.5v23.5c0,0.4,0.2,0.9,0.5,1.1L178.9,316z"/>
					<path fill="#ED8C65" d="M167.9,306.4h1.4c0.8,0,1.5-0.7,1.5-1.5v-9.2c0-0.8-0.7-1.5-1.5-1.5h-1.4c-0.8,0-1.5,0.7-1.5,1.5v9.2
						C166.5,305.8,167.1,306.4,167.9,306.4z"/>
					<path fill="#ED8C65" d="M185.6,320.7c0,0.8,0.7,1.5,1.5,1.5s1.5-0.7,1.5-1.5c0-0.8-0.7-1.5-1.5-1.5S185.6,319.8,185.6,320.7z"
						/>

						<radialGradient id="SVGID_5_" cx="273.4479" cy="230.0338" r="167.5694" gradientTransform="matrix(1.1065 0 0 1.1439 -57.7454 -15.6498)" gradientUnits="userSpaceOnUse">
						<stop  offset="0.4854" style="stop-color:#FFFFFF;stop-opacity:0"/>
						<stop  offset="0.5849" style="stop-color:#F6F6F6;stop-opacity:0.1933"/>
						<stop  offset="0.6562" style="stop-color:#E5E4E3;stop-opacity:0.3318"/>
						<stop  offset="0.7186" style="stop-color:#CECCCC;stop-opacity:0.4532"/>
						<stop  offset="0.7761" style="stop-color:#B0ADAD;stop-opacity:0.5649"/>
						<stop  offset="0.8301" style="stop-color:#8D8A8A;stop-opacity:0.6698"/>
						<stop  offset="0.8815" style="stop-color:#686565;stop-opacity:0.7698"/>
						<stop  offset="0.9309" style="stop-color:#444141;stop-opacity:0.8657"/>
						<stop  offset="0.9775" style="stop-color:#1D1D1D;stop-opacity:0.9562"/>
						<stop  offset="1" style="stop-color:#010101"/>
					</radialGradient>
					<rect x="59.4" y="55.8" opacity="0.4" fill="url(#SVGID_5_)" width="370.8" height="383.4"/>
				</g>
				<path clip-path="url(#SVGID_4_)" fill="#F2D1B8" d="M97.1,231.7l5.7-5.7c0.6-0.6,0.6-1.5,0-2.1l-2.3-2.3c-0.6-0.6-1.5-0.6-2.1,0
					l-3.3,3.3c-0.3,0.3-0.4,0.6-0.4,1l-0.1,4.7C94.6,231.9,96.2,232.6,97.1,231.7z"/>
				<g clip-path="url(#SVGID_4_)">
					<g>
						<path fill="#FEDAC0" d="M716.6,322.2c2.8,0,2.8-4.4,0-4.4C713.8,317.8,713.8,322.2,716.6,322.2L716.6,322.2z"/>
					</g>
				</g>
				<g clip-path="url(#SVGID_4_)">
					<g>
						<path fill="#FEDAC0" d="M716.6,322.2c2.8,0,2.8-4.4,0-4.4C713.8,317.8,713.8,322.2,716.6,322.2L716.6,322.2z"/>
					</g>
				</g>
				<path clip-path="url(#SVGID_4_)" fill="#F7D0B1" d="M242.5,238.4h-0.3c-0.8,0-1.5-0.7-1.5-1.5v-0.3c0-0.8,0.7-1.5,1.5-1.5h0.3
					c0.8,0,1.5,0.7,1.5,1.5v0.3C243.9,237.8,243.3,238.4,242.5,238.4z"/>
				<path clip-path="url(#SVGID_4_)" fill="#F7D0B1" d="M227.8,233.6l3.6,3.6c0.3,0.3,0.7,0.5,1.1,0.5h3.4c0.9,0,1.6-0.7,1.6-1.6
					v-2.2c0-0.9,0.7-1.6,1.6-1.6l0,0c0.9,0,1.6-0.7,1.6-1.6v-1.2c0-0.9-0.7-1.6-1.6-1.6h-10.1c-0.9,0-1.6,0.7-1.6,1.6v2.9
					C227.4,232.9,227.5,233.3,227.8,233.6z"/>
			</g>
			<path fill="#FBC69C" d="M259.7,367l-10.9-10.9c-0.3-0.3-0.4-0.6-0.4-1v-5.5c0-0.8,0.7-1.5,1.5-1.5h5.2c0.8,0,1.5,0.7,1.5,1.5v9.4
				c0,0.4,0.2,0.8,0.4,1l4.9,4.9c0.5,0.5,0.6,1.4,0.1,2l0,0C261.3,367.5,260.3,367.6,259.7,367z"/>
		</g>

			<radialGradient id="SVGID_6_" cx="238.9029" cy="240.5912" r="157.7522" fx="179.3704" fy="160.4254" gradientUnits="userSpaceOnUse">
			<stop  offset="0.1135" style="stop-color:#FEE9E2"/>
			<stop  offset="0.2407" style="stop-color:#FEEEE7;stop-opacity:0.8554"/>
			<stop  offset="0.729" style="stop-color:#FFFFFF;stop-opacity:0.3"/>
		</radialGradient>
		<circle opacity="0.25" fill="url(#SVGID_6_)" cx="238.9" cy="240.6" r="157.8"/>

			<ellipse transform="matrix(0.8244 -0.566 0.566 0.8244 -77.2773 146.9413)" display="none" opacity="0.14" fill="#FFFFFF" cx="198.2" cy="198" rx="98.1" ry="89.6"/>

			<ellipse transform="matrix(0.7979 -0.6027 0.6027 0.7979 -66.3639 141.2746)" display="none" opacity="0.14" fill="#FFFFFF" cx="177.5" cy="169.6" rx="59.3" ry="45.6"/>
	</g>
	<g>
		<circle fill="#6A6AA1" cx="107.9" cy="387.3" r="1.7"/>
		<circle fill="#6A6AA1" cx="82" cy="379" r="1.3"/>
		<circle fill="#6A6AA1" cx="30.1" cy="440.8" r="1.3"/>
		<circle fill="#6A6AA1" cx="117.8" cy="418.6" r="1.3"/>
		<circle fill="#6A6AA1" cx="70.4" cy="403" r="0.9"/>
		<circle fill="#6A6AA1" cx="84.6" cy="384.8" r="0.9"/>
		<circle fill="#6A6AA1" cx="44.6" cy="372.9" r="0.9"/>
	</g>
	<g>
		<circle fill="#6A6AA1" cx="308.5" cy="76.2" r="1.7"/>
		<circle fill="#6A6AA1" cx="350.5" cy="92.5" r="1.3"/>
		<circle fill="#6A6AA1" cx="366.1" cy="108.9" r="1.3"/>
		<circle fill="#6A6AA1" cx="388.6" cy="104.8" r="1.3"/>
		<circle fill="#6A6AA1" cx="373.3" cy="56.7" r="0.9"/>
		<circle fill="#6A6AA1" cx="346.5" cy="87.5" r="0.9"/>
		<circle fill="#6A6AA1" cx="388.4" cy="79.6" r="0.9"/>
		<circle fill="#6A6AA1" cx="321.9" cy="76.8" r="0.9"/>
		<circle fill="#6A6AA1" cx="299" cy="57.4" r="0.9"/>
	</g>
</g>
</svg>
