<?xml version="1.0" encoding="utf-8"?>
<!-- Generator: Adobe Illustrator 23.0.6, SVG Export Plug-In . SVG Version: 6.00 Build 0)  -->
<svg version="1.0" id="Layer_1" xmlns="http://www.w3.org/2000/svg" xmlns:xlink="http://www.w3.org/1999/xlink" x="0px" y="0px"
	 viewBox="0 0 700 700" enable-background="new 0 0 700 700" xml:space="preserve">
<g>
	<path fill="#90D3E7" d="M87.8,620.9l-64.5-37.2v-74.5l64.5-37.2l64.5,37.2v74.5L87.8,620.9z M34.6,577.1l53.2,30.7l53.2-30.7v-61.5
		l-53.2-30.7l-53.2,30.7V577.1z"/>
	<polygon fill="#0AACE4" points="60.9,530.9 60.9,561.9 87.8,577.5 114.7,561.9 114.7,530.9 87.8,515.3 	"/>
</g>
<rect x="145" y="539.6" fill="#90D3E7" width="524" height="11.3"/>
<text transform="matrix(1 0 0 1 379.2158 415.832)"><tspan x="0" y="0" fill="#0AACE4" stroke="#0AACE4" stroke-width="3.3793" stroke-miterlimit="10" font-family="'Bariol-Regular'" font-size="101.3778px">110100</tspan><tspan x="0" y="90.1" fill="#0AACE4" stroke="#0AACE4" stroke-width="3.3793" stroke-miterlimit="10" font-family="'Bariol-Regular'" font-size="101.3778px">001011</tspan></text>
<g>
	<rect x="571.7" y="578.5" fill="#90D3E7" width="97.3" height="22.5"/>
	<rect x="512.2" y="578.5" fill="#90D3E7" width="28.6" height="22.5"/>
</g>
</svg>
