<?xml version="1.0" encoding="utf-8"?>
<!-- Generator: Adobe Illustrator 23.0.6, SVG Export Plug-In . SVG Version: 6.00 Build 0)  -->
<svg version="1.0" id="Layer_1" xmlns="http://www.w3.org/2000/svg" xmlns:xlink="http://www.w3.org/1999/xlink" x="400px" y="400px"
	 viewBox="0 0 500 500" enable-background="new 0 0 500 500" xml:space="preserve">
<g>
	<g>

			<image overflow="visible" opacity="0.3" width="1850" height="1849" xlink:href="99649B64D0E22600.png"  transform="matrix(0.24 0 0 0.24 28.5798 29.5398)">
		</image>
		<g>
			<circle fill="#151526" cx="250.5" cy="251.4" r="172.2"/>
		</g>
	</g>
	<g>
		<g>
			<defs>
				<circle id="SVGID_1_" cx="250.2" cy="251.4" r="174.4"/>
			</defs>
			<use xlink:href="#SVGID_1_"  overflow="visible" fill="#42B981"/>
			<clipPath id="SVGID_2_">
				<use xlink:href="#SVGID_1_"  overflow="visible"/>
			</clipPath>

				<radialGradient id="SVGID_3_" cx="295.0069" cy="215.3722" r="165.651" fx="330.9178" fy="165.5305" gradientTransform="matrix(1.0648 0 0 1.1366 -59.0739 -13.6976)" gradientUnits="userSpaceOnUse">
				<stop  offset="0.3331" style="stop-color:#FFFFFF;stop-opacity:0"/>
				<stop  offset="0.457" style="stop-color:#F6F6F6;stop-opacity:0.1933"/>
				<stop  offset="0.5458" style="stop-color:#E5E4E3;stop-opacity:0.3318"/>
				<stop  offset="0.6237" style="stop-color:#CECCCC;stop-opacity:0.4532"/>
				<stop  offset="0.6953" style="stop-color:#B0ADAD;stop-opacity:0.5649"/>
				<stop  offset="0.7625" style="stop-color:#8D8A8A;stop-opacity:0.6698"/>
				<stop  offset="0.8266" style="stop-color:#686565;stop-opacity:0.7698"/>
				<stop  offset="0.8881" style="stop-color:#444141;stop-opacity:0.8657"/>
				<stop  offset="0.9461" style="stop-color:#1D1D1D;stop-opacity:0.9562"/>
				<stop  offset="0.9742" style="stop-color:#010101"/>
			</radialGradient>
			<rect x="72.6" y="36.4" opacity="0.2" clip-path="url(#SVGID_2_)" fill="url(#SVGID_3_)" width="364.9" height="389.5"/>
		</g>
	</g>
	<path fill="#79D0EB" d="M106.6,277.8v-4.1c0-0.6,0.2-1.2,0.7-1.7l5.7-5.7c0.9-0.9,0.9-2.4,0-3.3l-2.4-2.4c-0.4-0.4-1-0.7-1.7-0.7
		h-4.7c-1.3,0-2.4,1.1-2.4,2.4v15.5c0,1.3,1.1,2.4,2.4,2.4C105.5,280.2,106.6,279.1,106.6,277.8z"/>
	<path fill="#79D0EB" d="M129.1,295.8c-0.4-0.2-0.7-0.6-0.8-1l-3.1-11c-0.4-1.4-2.3-1.7-3.1-0.4l-8.3,14.7c-0.2,0.4-0.3,0.8-0.2,1.3
		l2.2,7.9c0.1,0.4,0.4,0.8,0.8,1l7.6,4.3c0.4,0.2,0.8,0.3,1.3,0.2l8.3-2.3c0.5-0.1,0.9-0.5,1.1-0.9l1.8-3.8c0.2-0.4,0.2-0.8,0.1-1.2
		l-1.3-4.7c-0.1-0.4-0.4-0.8-0.8-1L129.1,295.8z"/>
	<g>
		<path fill="#79D0EB" d="M147.4,365c0.6,0,1.2-0.4,1.3-1l1.7-10.2c0.1-0.7-0.3-1.3-1-1.4l-11.5-1.9c-0.9-0.2-1.2-1.4-0.4-1.9
			c0.5-0.3,0.6-1,0.2-1.5l-2.2-3.1c-0.4-0.5-1.1-0.7-1.7-0.3l-3.9,2.8c-0.5,0.4-0.7,1.1-0.3,1.7l11.4,15.9c0.2,0.3,0.5,0.5,0.9,0.5
			L147.4,365z"/>
		<path fill="#79D0EB" d="M135.4,363.9l1-0.7c0.5-0.4,0.7-1.1,0.3-1.7l-4.5-6.3c-0.4-0.5-1.1-0.7-1.7-0.3l-1,0.7
			c-0.5,0.4-0.7,1.1-0.3,1.7l4.5,6.3C134.1,364.1,134.8,364.2,135.4,363.9z"/>
	</g>
	<g>
		<path fill="#79D0EB" d="M170.9,164.1l5.9-6.9c1.1-1.2,2.9-1.4,4.2-0.3h0c1.2,1.1,1.4,2.9,0.3,4.2l-5.9,6.9
			c-1.1,1.2-2.9,1.4-4.2,0.3v0C169.9,167.2,169.8,165.3,170.9,164.1z"/>
		<path fill="#79D0EB" d="M206.8,146.2l-29.6,2.4c-0.4,0-0.8,0.2-1.1,0.5L162,165.8c-0.3,0.3-0.4,0.7-0.4,1.1l0.4,4.5
			c0,0.4-0.1,0.8-0.4,1.1l-5.1,6c-0.3,0.3-0.7,0.5-1.1,0.5l-3.8,0.3c-0.4,0-0.8,0.2-1.1,0.5l-6.6,7.7c-0.3,0.3-0.4,0.7-0.4,1.1
			l0.8,10.2c0.1,0.9-0.6,1.6-1.4,1.7l-3.6,0.3c-0.9,0.1-1.6-0.6-1.7-1.4l-1.4-17c0-0.4,0.1-0.8,0.4-1.1l6.6-7.8
			c0.3-0.3,0.4-0.7,0.4-1.1l-0.9-11.1c0-0.4,0.1-0.8,0.4-1.1l32.1-37.8c0.3-0.3,0.7-0.5,1.1-0.5l10-0.8c0.4,0,0.8-0.2,1.1-0.5
			l4.6-5.5c0.3-0.3,0.7-0.5,1.1-0.5l18.1-1.5c0.9-0.1,1.6,0.6,1.7,1.4l0.2,2.2c0.1,0.9-0.6,1.6-1.4,1.7l-5.1,0.4
			c-0.9,0.1-1.5,0.8-1.4,1.7l0,0c0.1,0.9,0.8,1.5,1.7,1.4l25.1-2c0.4,0,0.8-0.2,1.1-0.5l2-2.3c0.6-0.7,1.6-0.7,2.2-0.2l4.1,3.5
			c0.3,0.3,0.5,0.7,0.5,1.1l0.7,8.7c0,0.4-0.1,0.8-0.4,1.1l-3,3.5c-0.6,0.7-1.6,0.7-2.2,0.2l-6.9-5.9c-0.3-0.3-0.7-0.4-1.1-0.4
			l-19.1,1.6c-0.4,0-0.8,0.2-1.1,0.5l-2.4,2.8c-0.6,0.7-0.5,1.7,0.2,2.2l4.4,3.7c0.7,0.6,0.7,1.6,0.2,2.2l-3.3,3.9
			C207.6,146,207.3,146.2,206.8,146.2z"/>
		<path fill="#79D0EB" d="M220.2,138.5l7.3-0.6c0.6,0,1.1-0.6,1-1.2l0,0c0-0.6-0.6-1.1-1.2-1l-7.3,0.6c-0.6,0-1.1,0.6-1,1.2l0,0
			C219,138.1,219.6,138.5,220.2,138.5z"/>
	</g>
	<g>
		<circle fill="#79D0EB" cx="361.8" cy="349" r="1.5"/>
		<path fill="#79D0EB" d="M385.4,324.4l-5.6,12c-0.3,0.7-1.2,1-1.9,0.7h0c-0.7-0.3-1-1.2-0.7-1.9l5.6-12c0.3-0.7,1.2-1,1.9-0.7l0,0
			C385.4,322.9,385.7,323.7,385.4,324.4z"/>
		<path fill="#79D0EB" d="M374.2,311.5l-0.5,1.1c-0.7,1.5-2.4,2.1-3.9,1.4c-0.7-0.3-1.2-0.9-1.5-1.7l-1.2-3.3
			c-0.6-1.5-2.2-2.3-3.8-1.8l-7,2.5c-1.5,0.6-2.3,2.2-1.8,3.8l3,8.3c0.5,1.5-0.2,3.1-1.7,3.7l-8,3.2c-1.5,0.6-2.2,2.2-1.7,3.7
			l2.8,7.7c0.3,0.7,0.8,1.3,1.5,1.7l5.6,2.6c0.7,0.3,1.5,0.4,2.2,0.1l12.7-4.6c0.7-0.3,1.3-0.8,1.7-1.5l9.3-19.8
			c0.3-0.7,0.4-1.5,0.1-2.2l-1.6-4.4c-0.3-0.7-0.8-1.3-1.5-1.7l-0.9-0.4C376.6,309.4,374.9,310.1,374.2,311.5z M355,338.6
			c-0.5,1-1.7,1.5-2.7,1c-1-0.5-1.5-1.7-1-2.7c0.5-1,1.7-1.4,2.7-1C355,336.3,355.5,337.6,355,338.6z"/>
	</g>
	<g>
		<circle fill="#79D0EB" cx="395.5" cy="187.9" r="2.8"/>
		<circle fill="#79D0EB" cx="378.7" cy="202.5" r="1.4"/>
		<path fill="#79D0EB" d="M389.4,176.5l-0.2-5.9c0-1.2-0.6-2.4-1.5-3.2l-12-11.1c-0.9-0.8-2.1-1.3-3.3-1.2l-7.1,0.3
			c-2.6,0.1-4.6,2.2-4.5,4.8l0.4,10.6c0.1,2.6,2.2,4.6,4.8,4.5l7.9-0.3c1.2,0,2.4,0.4,3.3,1.2l4.3,4c1.9,1.7,4.8,1.6,6.6-0.2l0,0
			C389,178.9,389.4,177.7,389.4,176.5z"/>
		<circle fill="#79D0EB" cx="374.7" cy="191.3" r="2.8"/>
	</g>
	<g>
		<circle fill="#79D0EB" cx="303.1" cy="310.2" r="1.6"/>
		<path fill="#79D0EB" d="M317.7,350.2l9.2-13.5c0.3-0.4,0.4-1,0.3-1.5l-1.9-10c-0.2-1.1,0.5-2.2,1.6-2.4l7.7-1.4
			c0.5-0.1,1-0.4,1.3-0.8l3.2-4.7c0.3-0.4,0.4-1,0.3-1.5l-1.8-9.5c-0.2-1.1-1.3-1.8-2.4-1.6l-1.1,0.2c-1.1,0.2-1.8,1.3-1.6,2.4
			l0.8,4.3c0.1,0.5,0,1.1-0.3,1.5l-2.7,4c-0.3,0.4-0.8,0.7-1.3,0.8l-2.2,0.4c-1.1,0.2-2.2-0.5-2.4-1.6l-2.3-12
			c-0.1-0.5,0-1.1,0.3-1.5l4-5.9c0.6-0.9,0.4-2.2-0.5-2.8l-3.7-2.5l-9.5-6.5c-0.4-0.3-1-0.4-1.5-0.3l-7.5,1.4
			c-1.1,0.2-1.8,1.3-1.6,2.4l1.2,6.3c0.2,1.1,1.3,1.8,2.4,1.6l0.7-0.1c1.1-0.2,2.2,0.5,2.4,1.6l3.5,18.6c0.1,0.5,0,1.1-0.3,1.5
			l-13.1,19.2c-0.3,0.4-0.8,0.7-1.3,0.8l-8.4,1.6c-1.1,0.2-1.8,1.3-1.6,2.4l2,10.4c0.1,0.5,0,1.1-0.3,1.5l-5.1,7.5
			c-0.6,0.9-0.4,2.2,0.5,2.8l6.8,4.7c0.9,0.6,2.2,0.4,2.8-0.5l5.4-8c0.3-0.4,0.8-0.7,1.3-0.8l6.3-1.2c1.1-0.2,2.2,0.5,2.4,1.6l0,0
			c0.2,1.1,1.3,1.8,2.4,1.6l4.1-0.8c1-0.2,1.7-1.1,1.6-2.1l-0.3-6.4C317.3,351,317.4,350.5,317.7,350.2z"/>
	</g>
	<g>
		<g>

				<image overflow="visible" opacity="0.1" width="118" height="163" xlink:href="99649B64D0E22601.png"  transform="matrix(0.24 0 0 0.24 146.1983 203.5583)">
			</image>
			<g>
				<g>
					<g>
						<path fill="#FFFFFF" d="M151.2,217.6c1.7-1.4,1.3-2,3.1-3.4c1.7-1.4,1.8-1.4,3.6-2.8c1.8-1.4,1.6-1.6,3.4-3.1
							c1.8-1.4,1.7-1.5,3.5-2.9c1-0.8,2.5-0.1,3.3,0.9c0,0,0.3-0.2,0.3-0.2c0.8,1,0.9,2.9-0.1,3.7c-0.4,0.4-0.8-0.1-1.2,0.3
							c-1,0.8-0.7,2.1,0.1,3.1c0.2,0.2-0.4,0.7-0.2,0.9c0.8,1,0.6,2-0.4,2.8c-2.6,2.1-2.6,2.2-5.2,4.3c-0.5,0.4-0.4,1.3-0.4,1.9
							c-0.2,2.6,0,2.6-0.3,5.2c-0.1,1.3-1.7,2.3-3,2.2c-3.1-0.3-3.1-0.4-6.2-0.7c-1.3-0.1-2.5-1.3-2.4-2.6c0.2-2.1,0.2-2.1,0.4-4.2
							s0.5-2.1,0.7-4.2C150.2,218.2,150.7,218,151.2,217.6z"/>
					</g>
					<g>
						<path fill="#FFFFFF" d="M164.1,228.9c0-1.1,0-1.1,0-2.2c0-0.3,0.1-0.6,0.3-0.9c0.4-0.4,0.5-0.4,0.9-0.8c0.5-0.5,1.2-0.5,1.7,0
							c0.2,0.2,0.2,0.2,0.4,0.5c0.2,0.2,0.4,0.5,0.4,0.8c0,0.9,0.5,1.1,0,1.8c-0.4,0.5-0.7-0.3-1.3,0c-0.3,0.2,0,0.4,0,0.8
							c0,0.9-1,1.5-1.8,1c0,0,0,0,0,0C164.3,229.7,164.1,229.3,164.1,228.9z"/>
					</g>
					<g>
						<path fill="#FFFFFF" d="M164.4,234.3c0,0.4-0.3,1.5-0.7,1.5s-0.8-1-0.8-1.5c0-0.4,0.3-0.7,0.7-0.7S164.4,233.9,164.4,234.3z"
							/>
					</g>
				</g>
			</g>
		</g>
		<g>

				<image overflow="visible" opacity="0.1" width="81" height="79" xlink:href="99649B64D0E22607.png"  transform="matrix(0.24 0 0 0.24 125.2149 321.7749)">
			</image>
			<g>
				<path fill="#FFFFFF" d="M129.5,324.2c-0.5,0.7-0.6,2-0.2,2.7c0.9,1.5,1.1,1.4,2,2.9c0.4,0.6,1.1,0.9,1.8,0.9
					c0.8,0,0.8,0.1,1.6,0.1c1.5,0,2.5-1.7,1.8-3c0,0,0.2-0.1,0.2-0.1c-0.2-0.5-0.9-0.8-1.4-0.9c-1.1-0.4-1.1-0.3-2.2-0.6
					c-0.8-0.3-1.5-0.9-1.5-1.8C130.8,323.6,130.5,323.8,129.5,324.2z"/>
			</g>
		</g>
		<g>

				<image overflow="visible" opacity="0.1" width="88" height="81" xlink:href="99649B64D0E22602.png"  transform="matrix(0.24 0 0 0.24 153.0762 291.3162)">
			</image>
			<g>
				<path fill="#FFFFFF" d="M165.5,301.6c-2.6-2.6-3-2.3-5.6-4.9c-0.2-0.2-0.3-0.6-0.6-0.6c-1,0-1-0.3-2-0.3c-0.6,0-0.8,0-0.8-0.6
					c0,0-0.3,0-0.3,0c0-0.6,0.5-1.3,1-1.3c1.5,0,1.5,0.5,3,0.5c0.3,0,0.8,0,1-0.2c0.3-0.3,0.4-0.2,0.7-0.5c0.4-0.4,0.7-0.7,1.1-0.3
					c0.7,0.7,0.8,0.6,1.5,1.4c0.2,0.2-0.1,0.5-0.1,0.8c0,1.1,0.2,1.1,0.2,2.1c0,0.3,0,0.7,0.2,0.9c1,1,1.2,0.8,2.2,1.9
					c0.6,0.6,0.2,2.2-0.7,2.2c-0.2,0-0.2-0.7-0.5-0.7C165.8,301.7,165.7,301.8,165.5,301.6z"/>
			</g>
		</g>
		<circle fill="#FFFFFF" cx="173.8" cy="307" r="1.7"/>
		<g>

				<image overflow="visible" opacity="0.1" width="156" height="47" xlink:href="99649B64D0E22603.png"  transform="matrix(0.24 0 0 0.24 335.3814 247.0614)">
			</image>
			<g>
				<path fill="#FFFFFF" d="M347.6,251.3c2.8,0,2.8,0.2,5.6,0.2c0.3,0,0.4-0.5,0.5-0.7c1.2-1.2,1.3-1,2.5-2.2
					c0.2-0.2,0.5-0.3,0.8-0.3c2,0,2-0.3,3.9-0.3c0.3,0,0.7,0.2,0.9,0.4c1.1,1.1,0.9,1.4,2,2.5c0.2,0.2,0.6,0.1,0.8,0.1
					c1.5,0,1.5,0.3,3.1,0.3c0.6,0,1.1,0.3,1.1,0.8c0,0,0,0,0,0c0,0.6-0.5,0.8-1.1,0.8c-3.7,0-3.7,0.3-7.3,0.3
					c-3.7,0-3.7-0.1-7.3-0.1c-3.7,0-3.7,0.2-7.3,0.2s-3.7-0.1-7.3-0.1c-0.6,0-1-0.6-1-1.2c0-0.1-0.1-0.1-0.1-0.2
					c0-0.5,0.5-0.7,0.9-0.9c3.4-0.9,3.4-1.1,6.8-2c0.5-0.1,0.9,0.3,1.2,0.7c0.2,0.4,0.1,0.5,0.3,0.9
					C346.6,251.1,347.2,251.3,347.6,251.3z"/>
			</g>
		</g>
		<g>

				<image overflow="visible" opacity="0.1" width="69" height="34" xlink:href="99649B64D0E2260E.png"  transform="matrix(0.24 0 0 0.24 359.6214 256.6614)">
			</image>
			<g>
				<path fill="#FFFFFF" d="M371,259.9c-4,0-4,0.1-8.1,0.1c-0.6,0-1.2-0.5-1.2-1.1c0,0,0.1,0,0.1,0c0-0.6,0.5-1.1,1.1-1.1
					c4,0,4-0.1,8.1-0.1c0.6,0,1.1,0.6,1.1,1.2c0,0,0.1,0,0.1,0C372.1,259.5,371.6,259.9,371,259.9z"/>
			</g>
		</g>
		<g>

				<image overflow="visible" opacity="0.1" width="40" height="39" xlink:href="99649B64D0E2260F.png"  transform="matrix(0.24 0 0 0.24 377.6214 238.9014)">
			</image>
			<g>
				<path fill="#FFFFFF" d="M383.1,241.6c0,1-0.8,1.7-1.7,1.7s-1.7-0.7-1.7-1.7s0.8-1.7,1.7-1.7S383.1,240.6,383.1,241.6z"/>
			</g>
		</g>
	</g>
	<circle fill="#E8E7F4" cx="192.3" cy="87" r="1.4"/>
	<circle fill="#E8E7F4" cx="217" cy="89.7" r="1.4"/>
	<g display="none">
		<circle display="inline" opacity="0.1" fill="#79D0EB" cx="257.4" cy="228.7" r="149.4"/>
		<g display="inline">

				<ellipse transform="matrix(0.566 -0.8244 0.8244 0.566 -31.92 321.7024)" opacity="0.15" fill="#79D0EB" cx="289.6" cy="191.2" rx="87.7" ry="96.1"/>

				<ellipse transform="matrix(0.6027 -0.7979 0.7979 0.6027 -7.2778 312.1082)" opacity="0.15" fill="#79D0EB" cx="309.8" cy="163.4" rx="44.7" ry="58.1"/>
		</g>
	</g>

		<radialGradient id="SVGID_4_" cx="255.588" cy="233.0387" r="148.4455" fx="302.879" fy="149.1476" gradientUnits="userSpaceOnUse">
		<stop  offset="0.2022" style="stop-color:#9FDADE;stop-opacity:0.8"/>
		<stop  offset="0.8195" style="stop-color:#79D0EB;stop-opacity:0.15"/>
	</radialGradient>
	<circle opacity="0.75" fill="url(#SVGID_4_)" cx="255.6" cy="233" r="151.9"/>
</g>
</svg>
