<?xml version="1.0" encoding="utf-8"?>
<!-- Generator: Adobe Illustrator 22.1.0, SVG Export Plug-In . SVG Version: 6.00 Build 0)  -->
<svg version="1.1" id="Layer_1" xmlns="http://www.w3.org/2000/svg" xmlns:xlink="http://www.w3.org/1999/xlink" x="0px" y="0px"
	 width="800px" height="600px" viewBox="0 0 800 600" style="enable-background:new 0 0 800 600;" xml:space="preserve">
<style type="text/css">
	.st0{clip-path:url(#SVGID_2_);}
	.st1{fill:#5C5C5C;}
	.st2{fill:#E8DFC8;}
	.st3{opacity:6.000000e-02;clip-path:url(#SVGID_4_);}
	.st4{fill:url(#SVGID_5_);}
	.st5{clip-path:url(#SVGID_7_);}
	.st6{fill:#807A60;}
	.st7{clip-path:url(#SVGID_9_);}
	.st8{clip-path:url(#SVGID_11_);}
	.st9{fill:#BEAD86;}
	.st10{clip-path:url(#SVGID_13_);}
	.st11{clip-path:url(#SVGID_15_);}
	.st12{clip-path:url(#SVGID_17_);}
	.st13{clip-path:url(#SVGID_19_);}
	.st14{clip-path:url(#SVGID_21_);}
	.st15{clip-path:url(#SVGID_23_);}
	.st16{clip-path:url(#SVGID_25_);}
	.st17{clip-path:url(#SVGID_27_);}
	.st18{clip-path:url(#SVGID_29_);}
	.st19{clip-path:url(#SVGID_31_);}
	.st20{clip-path:url(#SVGID_33_);}
</style>
<g id="objects">
</g>
<g>
	<g>
		<defs>
			<rect id="SVGID_1_" width="800" height="600"/>
		</defs>
		<clipPath id="SVGID_2_">
			<use xlink:href="#SVGID_1_"  style="overflow:visible;"/>
		</clipPath>
		<g class="st0">
			<path class="st1" d="M-29.9,710.1V-1.3c0-3.1,313.4-5.6,317.3-5.6H805c4,0,7.2,2.5,7.2,5.6v711.5c0,3.1-3.2,5.6-7.2,5.6H-22.7
				C-26.7,715.8-29.9,713.2-29.9,710.1z"/>
			<g>
				<g>
					<path class="st2" d="M-65.1,722.7V-25.2c0-3.3,5.4-5.9,12-5.9h862.5c6.6,0,12,2.7,12,5.9v747.9c0,3.3-5.4,5.9-12,5.9H-53.1
						C-59.7,728.6-65.1,725.9-65.1,722.7z"/>
				</g>
			</g>
		</g>
	</g>
	<g>
		<defs>
			<rect id="SVGID_3_" width="800" height="600"/>
		</defs>
		<clipPath id="SVGID_4_">
			<use xlink:href="#SVGID_3_"  style="overflow:visible;"/>
		</clipPath>
		<g class="st3">
			
				<radialGradient id="SVGID_5_" cx="596.5469" cy="106.0465" r="824.0895" gradientTransform="matrix(1 0 0 -0.6091 0 407.1702)" gradientUnits="userSpaceOnUse">
				<stop  offset="0" style="stop-color:#FFFFFF"/>
				<stop  offset="1" style="stop-color:#000000"/>
			</radialGradient>
			<rect x="-195.7" y="-46.9" class="st4" width="1043.7" height="754.3"/>
		</g>
	</g>
	<g>
		<defs>
			<rect id="SVGID_6_" width="800" height="600"/>
		</defs>
		<clipPath id="SVGID_7_">
			<use xlink:href="#SVGID_6_"  style="overflow:visible;"/>
		</clipPath>
		<g class="st5">
			<path class="st6" d="M13.1,332.6c1.8-6.1,0.5-14.8,0.5-21.1c0.1-12.1,0-24.2,0-36.3c0,42.9-0.1,85.8-0.1,128.7
				c-0.5-65,0.6-130.1,0.1-195.1c-0.2-25.3-1.3-50.8-0.3-76.1c0.7-17.6,0-35.4,0.1-53C13.4,66,14,52,12.9,38.4
				c-0.2-2.9-1.3-6.3,1.5-8.3c2.5-1.8,6.7-1.3,9.6-3.8c3.1-2.7,3.8-5.4,5.3-8.9c1.9-4.4,2.7-4.4,8.2-4.1c16.6,1,33.3,0.6,49.9,0.4
				c32.5-0.5,65.1,0.5,97.6,0.1c31.6-0.3,63.1,0,94.7,0c79.7-0.1,159.4-0.1,239.2,0c26.3,0,52.8,0.7,79.1,0.1
				c28.1-0.7,56.2,0.5,84.4-0.1c16.7-0.4,33.5,0,50.2,0.3c8.3,0.1,16.7-0.2,25.1-0.3c3.1-0.1,6.3-1,9.4-0.8c5.7,0.3,4.3,1.9,5.8,6.5
				c1.2,3.5,3.7,6.7,6.8,8.6c2.2,1.4,6.9,1.1,8.3,2.8c2,2.5,0.7,6.9,0.5,9.6c-0.4,5.2-0.3,10.5-0.3,15.8c-0.1,8.2,0.1,16.5,0.2,24.7
				c0.1,37.4,0.2,74.9,0,112.3c-0.3,58.3,0.9,116.6,0.2,174.9c-0.1,12.4,0.2,24.9-0.2,37.3c0.1-44.2,0.1-88.3,0.2-132.5
				c0.2,66.6,0.2,133.1,0.1,199.7c0-26.3,0.1-52.7,0.1-79c-1.3,31.6-0.6,63.5-0.4,95.1c0.1,16.1-0.1,32.2,0,48.3
				c0.1,7.1-0.8,14.6,0.1,21.7c0.3,2.5,1.8,5.7,0.6,8.1c-1.5,3-3.1,2-6.2,3c-6.5,2.1-7.8,6.7-10.2,12.2c-1.4,3.1-0.2,3.8-4.5,4.3
				c-2.6,0.3-5.4-0.8-8-1c-12.8-1.1-26.3,0.1-39.2,0.1c-30.6,0.1-61.1-0.2-91.6-0.1c-43.2,0.1-86.4,0-129.7,0
				c-64.8,0-129.6,0-194.4,0c-55.9,0-111.9-0.6-167.8,0c-23.3,0.3-46.5,0.2-69.8,0.6c-6.8,0.1-13.7,0-20.6-0.1
				c-3.7,0-13.8,2.6-16.8-0.2c-1.7-1.7-1.3-4.9-2.2-7c-1-2.5-2.7-4.6-4.8-6.2c-5.3-3.9-10.9-0.6-11.1-9c-0.2-8.8,1-18.1,1-27
				c0-10.1-0.4-20.2-0.1-30.3c1.1-32.3,0-64.7,0.5-97c0.2-10.4-2.2-22.8,0-33c-0.7,3.1,0.1,7.3,0.1,10.5c0,7.9,0,15.8,0,23.7
				c0,7.7,0,15.4,0,23.1c0,2.9,1.1,8.2,0.1,11c1.9-5.5,0.2-14.4,0.1-20.3c-0.1-4-0.2-7.9-0.3-11.9c-0.3-14.3-0.5-28.7,0.2-43
				c0.1-1.1-1.3-4.5,1.1-4.1c2,0.4,0.3,8.8,0.3,9.7c-0.2,10.2,0.2,20.3,0,30.5c-0.1,6.3-0.1,12.5,0,18.8c0,6.2,1.6,14.3,0,20.3
				c0.8-3-0.1-7.4-0.1-10.5c0-7.9,0-15.8,0-23.7c0-11.2-0.9-22.9,0-34.1c-1.3,15.5,0.2,31.8,0.3,47.4c0.2,20.7-0.1,41.4,0.1,62.1
				c0.1,14.7,0.2,29.5,0.3,44.2c0,7.5,0.1,15,0,22.5c-0.1,4.9-1.6,10.6,0.1,15.2c-0.5-0.3-1-0.7-1.5-1c9.6-0.1,17.8,8,17.7,17.7
				c-0.3-0.5-0.7-1-1-1.5c5.2,1.9,11.8,0,17.4,0.1c6.7,0.1,13.4,0.3,20.1,0.3c18.4-0.1,36.8,0.1,55.2,0.3c30.8,0.5,61.7,0.2,92.5,0
				c32-0.2,64-0.1,96.1,0c83.2,0,166.3-0.1,249.5,0c23.3,0,46.6,0,69.8,0c25.1,0.1,50.1-0.2,75.1,0c11.5,0.1,23.1,0.3,34.7,0
				c5.3-0.2,10.7-0.3,16-0.1c4.3,0.2,8.9,1.8,13.1,0.3c-0.2,0.3-0.5,0.7-0.7,1c0-9.4,7.8-17.6,17.3-17.5c-0.3,0.2-0.7,0.5-1,0.7
				c1.8-5-0.3-12.7-0.2-18.1c0.1-7.3-0.1-14.6,0.1-21.9c0.4-15-0.1-30.1-0.1-45.2c0-29.6-0.8-59.4,0.4-88.9c0,26.3-0.1,52.7-0.1,79
				c0.2-66.5,0.2-133.1-0.1-199.7c-0.1,44.2-0.1,88.3-0.2,132.5c0.9-29,0.7-58.3,0.6-87.4c-0.1-21.8,0.3-43.7,0-65.5
				c-0.7-45.1-1.5-90.7-0.1-135.8c0.5-16.1-0.1-32.3-0.3-48.4c0-3.9,0-7.9,0-11.8c0-7.1,2.5-18.4,0-25c0.3,0.2,0.6,0.4,0.8,0.6
				c-9,0-16.9-8.5-16.9-17.3c0.2,0.3,0.4,0.6,0.6,0.8c-4.3-1.6-8.7-0.1-13.2,0s-9.1-0.2-13.6,0c-9.1,0.4-18.2,0.1-27.4,0.2
				c-15.7,0.2-31.4-0.2-47.1,0c-34.4,0.3-69,0.5-103.4,0.1c-26.4-0.3-52.7-0.2-79.1-0.2c-78.6-0.1-157.4-1.6-236,0.1
				c-30.6,0.7-61.3-0.2-92,0c-21.6,0.2-43.2,0.6-64.8,0c-10.3-0.3-20.7-0.2-30.9,0c-5.5,0.1-11,0.2-16.5,0.1c-5.1-0.1-11-1.8-15.8,0
				c0.2-0.3,0.5-0.7,0.7-1c0,9-8.3,17.2-17.3,17.2c0.3-0.2,0.7-0.5,1-0.7c-1.6,4.4,0.1,9.2,0.2,13.8c0,3.2,0,6.4-0.1,9.6
				c-0.2,14.3-0.4,28.7-0.1,43c0.5,22.1,0.1,44.4-0.3,66.5c-0.7,46.3-0.1,92.6-0.1,138.9c0,33.6-0.1,67.1,0.1,100.7
				c0-42.9,0.1-85.8,0.1-128.7c0,13.1,0.2,26.3-0.1,39.4c-0.1,3.6-0.1,7.2-0.1,10.8c0,1.6,0.3,3.8,0,5.4c0,0.2,0.9,3.2-0.5,3.2
				C13.7,334,12.8,333.6,13.1,332.6z"/>
		</g>
	</g>
	<g>
		<defs>
			<rect id="SVGID_8_" width="800" height="600"/>
		</defs>
		<clipPath id="SVGID_9_">
			<use xlink:href="#SVGID_8_"  style="overflow:visible;"/>
		</clipPath>
		<g class="st7">
			<path class="st6" d="M176.7,26c12.7,2,26.7,0.9,39.5,0.7c9.8-0.2,19.6,0.2,29.4,0.2c5.4,0,10.8-0.2,16.1-0.2
				c17.6,0,35.2,0,52.8,0c57.1,0,114.2,0,171.4,0c42.8,0,85.8,0.7,128.6-0.1c37.6-0.7,75.3-0.6,112.8-0.1c6.3,0.1,12.7,0.3,19,0.3
				c3.9,0,11.7-2.2,15.2,0.1c1.9,1.3,3.4,5.1,5.2,7c2.2,2.4,6.9,4.2,8.5,6.6c2.1,3,0.5,9.6,0.4,12.9c-0.2,7.1-0.1,14.2,0,21.3
				c0.1,10.8,0.1,21.7-0.1,32.5c-0.8,41.1,0.5,82.3,0.2,123.5c-0.4,43.8-0.4,87.6-0.1,131.4c0.1,6.6,0,13.2-0.2,19.8
				c0,0.3-0.2,1.1,0,1.3c-1.9-3.3,0-13.6,0-17.2c0-12.8,0-25.7,0.1-38.5c0-12.6,0.1-25.3,0.1-37.9c0-4.3,1.9-13.7,0-17.7
				c1.9,4.1-0.4,13.6-0.4,18c-0.1,8.6,0.6,17.3,0.4,25.9c-0.4,17.7,0,35.5-0.4,53.2c-0.3,16.8,0.1,33.7,0.2,50.4c0,6-0.2,12-0.3,18
				c-0.2,6.1,0.1,12.1,0.1,18.2c0,5.6-1.2,12.8-0.2,18.3c-0.8-4.8,0-10.5,0-15.4c0-11.2,0-22.4,0-33.6c0-11,0-22,0-33
				c0-4.9-1.1-11.2,0-16c-0.8,3.2,0.2,8.3,0.2,11.8c0,7.8-0.3,15.5-0.2,23.3c0.2,16.7-0.2,33.5,0.2,50.2c0.4,18.2,0,36.6-0.1,54.8
				c0,4.6-0.1,9.1-0.2,13.7c-0.2,8.2,1.8,17.9,0.5,25.9c-1,5.8-7.3,7.2-10.9,12c-1,1.3-1.9,4-3.1,4.8c-2.5,1.6-7.4,0.4-10.1,0.3
				c-18.4-0.6-37-0.1-55.4,0.4c-56.2,1.5-112.6,0-168.9,0c-67.7,0-135.3,0-203,0.1c-50.4,0-100.7-0.1-151.1,0
				c-17.4,0-34.8,0.5-52.2,0.2c-13.7-0.2-27.5,0.2-41.2-0.1c-7.9-0.2-15.9-0.1-23.8,0.2c-4.1,0.1-12,2.1-15.8-0.1
				c-2.4-1.4-4-5.8-6.1-8c-3.4-3.5-7.1-4.1-8.3-8.6c-1.5-6,0.2-14.7,0.1-21c0-8.6,0.4-17.2,0.3-25.8c-0.5-33.5,0.1-66.9-0.3-100.4
				c-0.1-11-0.7-22.6,0.3-33.5c-1.4,16.1,0,32.9,0,49c0,11,0,22,0,33c0,5,0.9,11.1,0,16c1.2-6.3-0.1-14.9-0.2-21.4
				c0-9.2-0.2-18.3,0-27.5c0.5-14.9-0.2-29.8-0.1-44.7c0.1-22.6-0.3-45.2,0-67.7c0.5-42.8,0.5-85.7,0.3-128.4
				c-0.3-44.4,1.9-89.3-0.2-133.7c-0.2-3.5-1.2-7.9,1.1-10.6c1.6-2,5.1-3.4,7.1-5.4c1.9-1.9,3.4-5.9,5.3-7.4
				c3.3-2.5,9.5-0.6,13.5-0.4c4.9,0.2,9.9-0.2,14.8-0.2c15.6,0,31.2,0,46.8,0.3c3.8,0.1,7.7,0.2,11.5,0.3c1.6,0,13-0.8,13,0.8
				c-0.1,1.4-10.3,1.4-11.4,1.4c-10.5,0.4-21,0.2-31.5,0.3c-6.3,0-12.6,0.1-18.9,0.2c-3.9,0-7.8,0-11.8,0c-7.5,0-17-1.7-24.2-0.2
				c0.4-0.3,0.7-0.6,1.1-0.9c-3.1,5.3-8.1,10.7-14,13.6c0.3-0.4,0.6-0.7,0.9-1.1c-0.2,53.6,0.3,107.2-0.1,160.8
				c-0.2,23.1,0.1,46.2,0,69.2c-0.1,27.7-0.8,55.7,0,83.4c0.5,16.1,0.2,32.6,0,48.8c-0.2,12.1-0.2,24.3-0.3,36.5
				c0,6.1,0.2,12.2,0.1,18.3c-0.1,4.3,1.5,11.3,0.2,15.1c1.4-4.1,0-11.1,0-15.3c0-11.2,0-22.4,0-33.6c0-16.2-1.3-32.9,0-49
				c-2.4,30.2,0.2,61.1-0.1,91.3c-0.1,13.2-0.2,26.3,0.1,39.5c0.2,9.1-0.2,18.3-0.2,27.4c0,7.5-1.4,16.6,0.2,23.9
				c-0.3-0.4-0.6-0.7-0.9-1.1c5.8,2.9,10.9,8.3,13.7,14.1c-0.4-0.3-0.7-0.6-1.1-0.9c9.8,2.1,22.2-0.4,32.2-0.3
				c9.8,0.1,19.5,0.1,29.3,0c11.4-0.1,22.9,0.3,34.3,0.3c28.7-0.1,57.4-0.2,86.2-0.2c30.7,0,61.4-0.1,92-0.1
				c83.2-0.1,166.6-1,249.8-0.1c29.1,0.3,58.1,0.1,87.2,0.4c16.9,0.2,33.7,0.3,50.6,0.3c11.6,0,23.1,0.4,34.7,0.5
				c7.5,0,16.7,1.5,23.8-0.1c-0.2,0.1-0.4,0.3-0.5,0.4c2.9-5.8,7.7-10.6,13.5-13.6c-0.1,0.2-0.3,0.4-0.4,0.5
				c2.1-9.7-0.2-21.8,0-31.7c0.1-5.2,0-10.4,0.1-15.7c0.1-11-0.2-22.1-0.1-33.1c0.1-17.7,0.4-35.4,0-53.1c-0.2-10.2,0-20.3,0-30.4
				c0-4.5-1.8-14-0.3-18.2c-1.4,4.1,0,11.1,0,15.4c0,11.2,0,22.4,0,33.6c0,11,0,22,0,33c0,5-0.9,11,0,16c-0.9-5.1,0.3-11.6,0.2-16.7
				c-0.1-6.1-0.4-12.2-0.2-18.3c0.2-6.5,0.4-13,0.3-19.5c-0.1-16.8-0.7-33.7-0.4-50.5c0.3-17.7-0.2-35.5,0.2-53.2
				c0.3-14.3,0.7-29.6-0.1-43.8c1,18.4-0.1,37.2-0.2,55.7c0,12.6-0.1,25.3-0.1,37.9c0,3.8-2,14.2,0,17.7c-0.1-0.2,0-1.1,0-1.3
				c0.1-7.1,0.2-14.2,0.1-21.3c-0.1-10.9-0.2-21.8-0.2-32.7c0-25.1-0.5-50.3-0.1-75.4c0.8-46.1-0.5-92.3-0.2-138.4
				c0.1-7.6,0.3-15.2,0.3-22.8c0.1-8.1-0.1-16.2-0.2-24.3c-0.1-8.2,1.7-17.5,0-25.5c0.3,0.3,0.5,0.7,0.8,1
				c-5.7-2.8-10.9-8-13.7-13.7c0.3,0.3,0.7,0.5,1,0.8c-7.6-1.6-16.7,0-24.5-0.1c-5.5-0.1-11.1-0.2-16.6-0.2
				c-13.5-0.1-27-0.2-40.5-0.1c-32.1,0.2-64.6,1.2-96.7,0.3c-22.9-0.7-45.8-0.2-68.7-0.2c-77.1,0-154.1,0-231.2,0
				c-8.7,0-17.4-0.1-26.1,0c-10.9,0.1-21.8-0.1-32.8-0.2c-10.7-0.1-21.5,0-32.2,0.2c-3.5,0.1-11.5,1.4-14.7,0.1
				C174.6,28.4,173.6,26.5,176.7,26z"/>
		</g>
	</g>
	<g>
		<defs>
			<rect id="SVGID_10_" width="800" height="600"/>
		</defs>
		<clipPath id="SVGID_11_">
			<use xlink:href="#SVGID_10_"  style="overflow:visible;"/>
		</clipPath>
		<g class="st8">
			<path class="st9" d="M15.1,339c0.4,2.1,0.4,21-0.7,21.1c-1.4,0.2-0.8-9.5-0.9-11c-0.2-2.4-1-5.3-0.3-7.6
				C13.2,341.5,14.5,336.2,15.1,339z"/>
		</g>
	</g>
	<g>
		<defs>
			<rect id="SVGID_12_" width="800" height="600"/>
		</defs>
		<clipPath id="SVGID_13_">
			<use xlink:href="#SVGID_12_"  style="overflow:visible;"/>
		</clipPath>
		<g class="st10">
			<path class="st6" d="M71.6,584.9c1-1.8-26.9-27.1-29.9-29.9c-4.8-4.5-9.4-9.2-14-13.9c-1.1-1.1-14-14.7-13.4-14.9
				c2.1-0.8,13.2,12.1,14.7,13.6c4.8,4.8,9.8,9.6,14.4,14.6c6,6.4,12.3,12.3,18.5,18.5c2.9,2.9,6.1,5.8,8.7,8.9
				C71.1,582.4,73.4,586.6,71.6,584.9z"/>
		</g>
	</g>
	<g>
		<defs>
			<rect id="SVGID_14_" width="800" height="600"/>
		</defs>
		<clipPath id="SVGID_15_">
			<use xlink:href="#SVGID_14_"  style="overflow:visible;"/>
		</clipPath>
		<g class="st11">
			<path class="st6" d="M75.2,571.9c0.8-1.3-22.8-23-25.3-25.4c-3.9-3.6-7.6-7.4-11.3-11.2c-0.9-0.9-12-12.5-11.2-12.8
				c3.4-1,21.8,20.8,24.3,23.4c5.4,5.7,11.1,11.1,16.7,16.7c2,2,4.9,4.3,6.4,6.7C74.8,569.5,77.3,574.1,75.2,571.9z"/>
		</g>
	</g>
	<g>
		<defs>
			<rect id="SVGID_16_" width="800" height="600"/>
		</defs>
		<clipPath id="SVGID_17_">
			<use xlink:href="#SVGID_16_"  style="overflow:visible;"/>
		</clipPath>
		<g class="st12">
			<path class="st6" d="M728.7,583.7c1.8,1,27.1-26.9,29.9-29.9c4.5-4.8,9.3-9.4,13.9-14c1.1-1.1,14.7-14,14.9-13.4
				c0.8,2.1-12.1,13.2-13.6,14.7c-4.8,4.8-9.6,9.8-14.6,14.4c-6.4,6-12.3,12.3-18.5,18.5c-2.9,2.9-5.8,6.1-8.9,8.7
				C731.2,583.2,727,585.5,728.7,583.7z"/>
		</g>
	</g>
	<g>
		<defs>
			<rect id="SVGID_18_" width="800" height="600"/>
		</defs>
		<clipPath id="SVGID_19_">
			<use xlink:href="#SVGID_18_"  style="overflow:visible;"/>
		</clipPath>
		<g class="st13">
			<path class="st6" d="M725.2,570.7c1.3,0.8,23-22.8,25.3-25.4c3.6-3.9,7.5-7.6,11.2-11.3c0.9-0.9,12.5-12,12.8-11.2
				c1,3.4-20.8,21.8-23.4,24.3c-5.7,5.4-11.1,11.1-16.7,16.7c-2,2-4.3,4.9-6.7,6.4C727.5,570.4,723,572.9,725.2,570.7z"/>
		</g>
	</g>
	<g>
		<defs>
			<rect id="SVGID_20_" width="800" height="600"/>
		</defs>
		<clipPath id="SVGID_21_">
			<use xlink:href="#SVGID_20_"  style="overflow:visible;"/>
		</clipPath>
		<g class="st14">
			<path class="st6" d="M783.3,22.6c-4.9,0-4.9-7.8,0-7.8C788.2,14.9,788.4,22.6,783.3,22.6z"/>
		</g>
	</g>
	<g>
		<defs>
			<rect id="SVGID_22_" width="800" height="600"/>
		</defs>
		<clipPath id="SVGID_23_">
			<use xlink:href="#SVGID_22_"  style="overflow:visible;"/>
		</clipPath>
		<g class="st15">
			<path class="st6" d="M783.3,584.3c-4.9,0-4.9-7.8,0-7.8S788.4,584.3,783.3,584.3z"/>
		</g>
	</g>
	<g>
		<defs>
			<rect id="SVGID_24_" width="800" height="600"/>
		</defs>
		<clipPath id="SVGID_25_">
			<use xlink:href="#SVGID_24_"  style="overflow:visible;"/>
		</clipPath>
		<g class="st16">
			<path class="st6" d="M18.2,584.3c-4.9,0-4.9-7.8,0-7.8S23.3,584.3,18.2,584.3z"/>
		</g>
	</g>
	<g>
		<defs>
			<rect id="SVGID_26_" width="800" height="600"/>
		</defs>
		<clipPath id="SVGID_27_">
			<use xlink:href="#SVGID_26_"  style="overflow:visible;"/>
		</clipPath>
		<g class="st17">
			<path class="st6" d="M144.5,26.3c6.7,1.6,12.4-1.1,19-0.8c4.1,0.1,8.6,2.2,3,4.6c-4.3,1.9-11.4-1.4-16-1.3
				c-1.5,0-5.9,1.4-7.2,0.4C142,28.1,142.7,25.9,144.5,26.3z"/>
		</g>
	</g>
	<g>
		<defs>
			<rect id="SVGID_28_" width="800" height="600"/>
		</defs>
		<clipPath id="SVGID_29_">
			<use xlink:href="#SVGID_28_"  style="overflow:visible;"/>
		</clipPath>
		<g class="st18">
			<g>
				<path class="st6" d="M72.7,15.4c-1.8-1-27.1,27-29.9,29.9c-4.5,4.8-9.3,9.4-13.9,14c-1.1,1.1-14.7,14-14.9,13.4
					C13.2,70.6,26.1,59.5,27.6,58c4.8-4.8,9.6-9.8,14.6-14.4c6.4-6,12.3-12.3,18.5-18.5c2.9-2.9,5.8-6.1,8.9-8.7
					C70.3,16,74.5,13.7,72.7,15.4z"/>
			</g>
			<g>
				<path class="st6" d="M76.3,28.4C75,27.6,53.3,51.2,51,53.8c-3.6,3.9-7.5,7.6-11.2,11.3C38.9,66,27.2,77.1,27,76.3
					C26,72.8,47.8,54.5,50.4,52c5.7-5.4,11.1-11.1,16.7-16.7c2-2,4.3-4.9,6.7-6.4C74,28.8,78.5,26.3,76.3,28.4z"/>
			</g>
		</g>
	</g>
	<g>
		<defs>
			<rect id="SVGID_30_" width="800" height="600"/>
		</defs>
		<clipPath id="SVGID_31_">
			<use xlink:href="#SVGID_30_"  style="overflow:visible;"/>
		</clipPath>
		<g class="st19">
			<g>
				<path class="st6" d="M729.9,14.3c-1,1.8,26.9,27.1,29.9,29.9c4.8,4.5,9.4,9.2,14,13.9c1.1,1.1,14,14.7,13.4,14.9
					c-2.1,0.8-13.2-12.1-14.7-13.6c-4.8-4.8-9.8-9.6-14.4-14.6c-6-6.4-12.3-12.4-18.5-18.5c-2.9-2.9-6.1-5.8-8.7-8.9
					C730.4,16.7,728.1,12.5,729.9,14.3z"/>
			</g>
			<g>
				<path class="st6" d="M726.3,27.3c-0.8,1.3,22.8,23,25.4,25.3c3.9,3.6,7.6,7.4,11.3,11.2c0.9,0.9,12,12.6,11.2,12.8
					c-3.4,1-21.8-20.8-24.2-23.4c-5.4-5.7-11.1-11.1-16.7-16.7c-2-2-4.9-4.3-6.4-6.7C726.7,29.6,724.1,25.1,726.3,27.3z"/>
			</g>
		</g>
	</g>
	<g>
		<defs>
			<rect id="SVGID_32_" width="800" height="600"/>
		</defs>
		<clipPath id="SVGID_33_">
			<use xlink:href="#SVGID_32_"  style="overflow:visible;"/>
		</clipPath>
		<g class="st20">
			<path class="st6" d="M18.2,22.6c-4.9,0-4.9-7.8,0-7.8C23.1,14.9,23.3,22.6,18.2,22.6z"/>
		</g>
	</g>
</g>
</svg>
