<?xml version="1.0" encoding="utf-8"?>
<!-- Generator: Adobe Illustrator 23.0.6, SVG Export Plug-In . SVG Version: 6.00 Build 0)  -->
<svg version="1.0" id="Layer_1" xmlns="http://www.w3.org/2000/svg" xmlns:xlink="http://www.w3.org/1999/xlink" x="0px" y="0px"
	 width="800px" height="600px" viewBox="0 0 800 600" enable-background="new 0 0 800 600" xml:space="preserve">
<g id="bounds">
	<rect x="-147.5" y="-627.5" fill="none" width="149" height="1211"/>
	<rect x="801.5" y="-627.5" fill="none" width="183" height="1211"/>
	<rect x="516" y="336" fill="none" width="290" height="290"/>
	<rect x="283" y="575" fill="none" width="233" height="56"/>
	<rect x="62" y="336" fill="none" width="222" height="311"/>
	<rect x="37" y="380" fill="none" width="30" height="289"/>
	<rect x="18" y="426" fill="none" width="37" height="221"/>
	<rect y="468" fill="none" width="23" height="195"/>
	<rect x="2" y="-416" fill="none" width="798" height="43"/>
</g>
<g id="Carbon_Freezer">
	<g>
		<g>
			<defs>
				<rect id="SVGID_1_" x="0.1" y="1" width="799.3" height="599.5"/>
			</defs>
			<use xlink:href="#SVGID_1_"  overflow="visible" fill="#234676"/>
			<clipPath id="SVGID_2_">
				<use xlink:href="#SVGID_1_"  overflow="visible"/>
			</clipPath>
			<g clip-path="url(#SVGID_2_)">
				<g>
					<g>
						<polygon fill="#264D82" points="824.6,1 815.8,11.7 815.8,237.1 480.6,463.8 318.9,463.8 -11.8,240.1 -11.8,17.1 -25,1
							"/>
					</g>
				</g>
				<g>
					<polygon fill="#2B558E" points="824.6,1 815.8,11.7 444.7,463.8 354.9,463.8 -11.8,17.1 -25,1 					"/>
				</g>
				<g>
					<polygon fill="#2F5D9D" points="48,1 751.5,1 436.9,463.8 362.6,463.8 					"/>
				</g>
				<g>
					<polygon fill="#3767AF" points="162.3,1 637.2,1 424.9,463.8 374.7,463.8 					"/>
				</g>
				<g>
					<polygon fill="#3F70B6" points="286,1 513.5,1 411.8,463.8 387.8,463.8 					"/>
				</g>
				<g>
					<polygon fill="#4E7CBD" points="344.5,1 455,1 405.6,463.8 393.9,463.8 					"/>
				</g>
				<circle fill="#4E7CBD" cx="432.4" cy="186.1" r="10.7"/>
			</g>
			<g clip-path="url(#SVGID_2_)">
				<circle fill="#2F5D9D" cx="329.9" cy="333.6" r="13.1"/>
				<circle fill="#5580C0" cx="359.7" cy="329.5" r="14"/>
				<circle fill="#5580C0" cx="452.9" cy="338.9" r="12.6"/>
				<circle fill="#5580C0" cx="401.5" cy="330" r="20.7"/>
				<circle fill="#5580C0" cx="425" cy="336.2" r="10.8"/>
				<circle fill="#2F5D9D" cx="480.2" cy="338" r="11.7"/>
				<circle fill="#3767AF" cx="515.7" cy="337.9" r="11.7"/>
				<circle fill="#3F70B6" cx="486" cy="327" r="4.6"/>
				<circle fill="#3F70B6" cx="466" cy="338" r="4.6"/>
				<circle fill="#5580C0" cx="341" cy="336.2" r="9.9"/>
				<circle fill="#2F5D9D" cx="316.8" cy="338.9" r="7.9"/>
				<circle fill="#3767AF" cx="310.2" cy="333.3" r="5"/>
				<circle fill="#3767AF" cx="264.7" cy="333.6" r="9"/>
				<circle fill="#3767AF" cx="280.8" cy="336.2" r="6.3"/>
				<rect x="99.6" y="336.2" fill="#222B36" width="583.9" height="19.9"/>
			</g>
			<g clip-path="url(#SVGID_2_)">
				<polygon fill="#2B558E" points="-11.8,1 -11.8,17.1 -25,1 				"/>
				<polygon fill="#2B558E" points="824.6,1 815.8,11.7 815.8,1 				"/>
			</g>
			<g clip-path="url(#SVGID_2_)">
				<circle fill="#3767AF" cx="530.3" cy="333.8" r="11.3"/>
				<circle fill="#3767AF" cx="540.5" cy="331.9" r="5.1"/>
				<circle fill="#3767AF" cx="242.6" cy="333.5" r="13.7"/>
				<rect x="0.1" y="187.2" fill="#203F6B" width="799.3" height="36.2"/>
				<rect x="0.1" y="191.3" fill="#274E82" width="799.3" height="27.9"/>
				<g>
					<g>
						<circle fill="#3466AA" cx="-42.7" cy="205.6" r="8.8"/>
						<path fill="#3466AA" d="M-22.2,214.4c-4.8,0-8.8-3.9-8.8-8.8c0-4.8,3.9-8.8,8.8-8.8h84.5c4.8,0,8.8,3.9,8.8,8.8
							c0,4.8-3.9,8.8-8.8,8.8H-22.2z"/>
						<circle fill="#F16933" cx="-42.7" cy="205.6" r="6.8"/>
						<circle fill="#F69138" cx="-42.7" cy="205.6" r="3.8"/>
						<path fill="#F16933" d="M62.3,212.4h-84.5c-3.7,0-6.8-3-6.8-6.8v0c0-3.7,3-6.8,6.8-6.8h84.5c3.7,0,6.8,3,6.8,6.8v0
							C69.1,209.4,66,212.4,62.3,212.4z"/>
						<path fill="#F69138" d="M-22.2,209.4c-2.1,0-3.8-1.7-3.8-3.8c0-2.1,1.7-3.8,3.8-3.8h84.5c2.1,0,3.8,1.7,3.8,3.8
							c0,2.1-1.7,3.8-3.8,3.8H-22.2z"/>
					</g>
					<g>
						<path fill="#3466AA" d="M82.8,214.4c-4.8,0-8.8-3.9-8.8-8.8c0-4.8,3.9-8.8,8.8-8.8c4.8,0,8.8,3.9,8.8,8.8
							C91.6,210.5,87.7,214.4,82.8,214.4z"/>
						<path fill="#3466AA" d="M103.3,214.4c-4.8,0-8.8-3.9-8.8-8.8c0-4.8,3.9-8.8,8.8-8.8h84.5c4.8,0,8.8,3.9,8.8,8.8
							c0,4.8-3.9,8.8-8.8,8.8H103.3z"/>
						<circle fill="#F16933" cx="82.9" cy="205.6" r="6.8"/>
						<path fill="#F69138" d="M82.8,209.4c-2.1,0-3.8-1.7-3.8-3.8c0-2.1,1.7-3.8,3.8-3.8c2.1,0,3.8,1.7,3.8,3.8
							C86.6,207.7,84.9,209.4,82.8,209.4z"/>
						<path fill="#F16933" d="M187.8,212.4h-84.5c-3.7,0-6.8-3-6.8-6.8v0c0-3.7,3-6.8,6.8-6.8h84.5c3.7,0,6.8,3,6.8,6.8v0
							C194.6,209.4,191.6,212.4,187.8,212.4z"/>
						<path fill="#F69138" d="M103.3,209.4c-2.1,0-3.8-1.7-3.8-3.8c0-2.1,1.7-3.8,3.8-3.8h84.5c2.1,0,3.8,1.7,3.8,3.8
							c0,2.1-1.7,3.8-3.8,3.8H103.3z"/>
					</g>
					<g>
						<path fill="#3466AA" d="M208.4,214.4c-4.8,0-8.8-3.9-8.8-8.8c0-4.8,3.9-8.8,8.8-8.8c4.8,0,8.8,3.9,8.8,8.8
							C217.1,210.5,213.2,214.4,208.4,214.4z"/>
						<path fill="#3466AA" d="M228.8,214.4c-4.8,0-8.8-3.9-8.8-8.8c0-4.8,3.9-8.8,8.8-8.8h84.5c4.8,0,8.8,3.9,8.8,8.8
							c0,4.8-3.9,8.8-8.8,8.8H228.8z"/>
						<circle fill="#F16933" cx="208.4" cy="205.6" r="6.8"/>
						<path fill="#F69138" d="M208.4,209.4c-2.1,0-3.8-1.7-3.8-3.8c0-2.1,1.7-3.8,3.8-3.8c2.1,0,3.8,1.7,3.8,3.8
							C212.1,207.7,210.4,209.4,208.4,209.4z"/>
						<path fill="#F16933" d="M313.3,212.4h-84.5c-3.7,0-6.8-3-6.8-6.8v0c0-3.7,3-6.8,6.8-6.8h84.5c3.7,0,6.8,3,6.8,6.8v0
							C320.1,209.4,317.1,212.4,313.3,212.4z"/>
						<path fill="#F69138" d="M228.8,209.4c-2.1,0-3.8-1.7-3.8-3.8c0-2.1,1.7-3.8,3.8-3.8h84.5c2.1,0,3.8,1.7,3.8,3.8
							c0,2.1-1.7,3.8-3.8,3.8H228.8z"/>
					</g>
					<g>
						<circle fill="#3466AA" cx="333.9" cy="205.6" r="8.8"/>
						<path fill="#3466AA" d="M354.4,214.4c-4.8,0-8.8-3.9-8.8-8.8c0-4.8,3.9-8.8,8.8-8.8h84.5c4.8,0,8.8,3.9,8.8,8.8
							c0,4.8-3.9,8.8-8.8,8.8H354.4z"/>
						<circle fill="#F16933" cx="333.9" cy="205.6" r="6.8"/>
						<circle fill="#F69138" cx="333.9" cy="205.6" r="3.8"/>
						<path fill="#F16933" d="M438.9,212.4h-84.5c-3.7,0-6.8-3-6.8-6.8v0c0-3.7,3-6.8,6.8-6.8h84.5c3.7,0,6.8,3,6.8,6.8v0
							C445.6,209.4,442.6,212.4,438.9,212.4z"/>
						<path fill="#F69138" d="M354.4,209.4c-2.1,0-3.8-1.7-3.8-3.8c0-2.1,1.7-3.8,3.8-3.8h84.5c2.1,0,3.8,1.7,3.8,3.8
							c0,2.1-1.7,3.8-3.8,3.8H354.4z"/>
					</g>
					<g>
						<circle fill="#3466AA" cx="459.4" cy="205.6" r="8.8"/>
						<path fill="#3466AA" d="M479.9,214.4c-4.8,0-8.8-3.9-8.8-8.8c0-4.8,3.9-8.8,8.8-8.8h84.5c4.8,0,8.8,3.9,8.8,8.8
							c0,4.8-3.9,8.8-8.8,8.8H479.9z"/>
						<circle fill="#F16933" cx="459.4" cy="205.6" r="6.8"/>
						<circle fill="#F69138" cx="459.4" cy="205.6" r="3.8"/>
						<path fill="#F16933" d="M564.4,212.4h-84.5c-3.7,0-6.8-3-6.8-6.8v0c0-3.7,3-6.8,6.8-6.8h84.5c3.7,0,6.8,3,6.8,6.8v0
							C571.1,209.4,568.1,212.4,564.4,212.4z"/>
						<path fill="#F69138" d="M479.9,209.4c-2.1,0-3.8-1.7-3.8-3.8c0-2.1,1.7-3.8,3.8-3.8h84.5c2.1,0,3.8,1.7,3.8,3.8
							c0,2.1-1.7,3.8-3.8,3.8H479.9z"/>
					</g>
					<g>
						<path fill="#3466AA" d="M584.9,214.4c-4.8,0-8.8-3.9-8.8-8.8c0-4.8,3.9-8.8,8.8-8.8s8.8,3.9,8.8,8.8
							C593.7,210.5,589.8,214.4,584.9,214.4z"/>
						<path fill="#3466AA" d="M605.4,214.4c-4.8,0-8.8-3.9-8.8-8.8c0-4.8,3.9-8.8,8.8-8.8h84.5c4.8,0,8.8,3.9,8.8,8.8
							c0,4.8-3.9,8.8-8.8,8.8H605.4z"/>
						<circle fill="#F16933" cx="584.9" cy="205.6" r="6.8"/>
						<path fill="#F69138" d="M584.9,209.4c-2.1,0-3.8-1.7-3.8-3.8c0-2.1,1.7-3.8,3.8-3.8c2.1,0,3.8,1.7,3.8,3.8
							C588.7,207.7,587,209.4,584.9,209.4z"/>
						<path fill="#F16933" d="M689.9,212.4h-84.5c-3.7,0-6.8-3-6.8-6.8v0c0-3.7,3-6.8,6.8-6.8h84.5c3.7,0,6.8,3,6.8,6.8v0
							C696.6,209.4,693.6,212.4,689.9,212.4z"/>
						<path fill="#F69138" d="M605.4,209.4c-2.1,0-3.8-1.7-3.8-3.8c0-2.1,1.7-3.8,3.8-3.8h84.5c2.1,0,3.8,1.7,3.8,3.8
							c0,2.1-1.7,3.8-3.8,3.8H605.4z"/>
					</g>
					<g>
						<circle fill="#3466AA" cx="710.4" cy="205.6" r="8.8"/>
						<path fill="#3466AA" d="M730.9,214.4c-4.8,0-8.8-3.9-8.8-8.8c0-4.8,3.9-8.8,8.8-8.8h84.5c4.8,0,8.8,3.9,8.8,8.8
							c0,4.8-3.9,8.8-8.8,8.8H730.9z"/>
						<circle fill="#F16933" cx="710.4" cy="205.6" r="6.8"/>
						<circle fill="#F69138" cx="710.4" cy="205.6" r="3.8"/>
						<path fill="#F16933" d="M815.4,212.4h-84.5c-3.7,0-6.8-3-6.8-6.8v0c0-3.7,3-6.8,6.8-6.8h84.5c3.7,0,6.8,3,6.8,6.8v0
							C822.2,209.4,819.1,212.4,815.4,212.4z"/>
						<path fill="#F69138" d="M730.9,209.4c-2.1,0-3.8-1.7-3.8-3.8c0-2.1,1.7-3.8,3.8-3.8h84.5c2.1,0,3.8,1.7,3.8,3.8
							c0,2.1-1.7,3.8-3.8,3.8H730.9z"/>
					</g>
				</g>
				<g>
					<path fill="#203F6B" d="M183.4,228.3h50c2.7,0,4.9-2.2,4.9-4.9l0,0h-59.9l0,0C178.4,226.1,180.6,228.3,183.4,228.3z"/>
					<g>
						<rect x="186.5" y="228.3" fill="#203F6B" width="6.3" height="102.7"/>
						<rect x="223.9" y="228.3" fill="#203F6B" width="6.3" height="102.7"/>
					</g>
					<g>

							<rect x="206.1" y="218.4" transform="matrix(-0.7071 -0.7071 0.7071 -0.7071 182.9653 564.3748)" fill="#203F6B" width="4.5" height="51.7"/>

							<rect x="206.1" y="218.4" transform="matrix(0.7071 -0.7071 0.7071 0.7071 -111.7122 218.8908)" fill="#203F6B" width="4.5" height="51.7"/>
					</g>
					<g>

							<rect x="206.1" y="256.5" transform="matrix(-0.7071 -0.7071 0.7071 -0.7071 156.0215 629.4229)" fill="#203F6B" width="4.5" height="51.7"/>

							<rect x="206.1" y="256.5" transform="matrix(0.7071 -0.7071 0.7071 0.7071 -138.6561 230.0513)" fill="#203F6B" width="4.5" height="51.7"/>
					</g>
					<g>

							<rect x="206.1" y="294.6" transform="matrix(-0.7071 -0.7071 0.7071 -0.7071 129.0777 694.4711)" fill="#203F6B" width="4.5" height="51.7"/>

							<rect x="206.1" y="294.6" transform="matrix(0.7071 -0.7071 0.7071 0.7071 -165.5999 241.2118)" fill="#203F6B" width="4.5" height="51.7"/>
					</g>
				</g>
				<g>
					<path fill="#203F6B" d="M559.9,228.3h50c2.7,0,4.9-2.2,4.9-4.9l0,0H555l0,0C555,226.1,557.2,228.3,559.9,228.3z"/>
					<g>
						<rect x="563" y="228.3" fill="#203F6B" width="6.3" height="102.7"/>
						<rect x="600.5" y="228.3" fill="#203F6B" width="6.3" height="102.7"/>
					</g>
					<g>

							<rect x="582.6" y="218.4" transform="matrix(-0.7071 -0.7071 0.7071 -0.7071 825.7852 830.6395)" fill="#203F6B" width="4.5" height="51.7"/>

							<rect x="582.6" y="218.4" transform="matrix(0.7071 -0.7071 0.7071 0.7071 -1.4218 485.1555)" fill="#203F6B" width="4.5" height="51.7"/>
					</g>
					<g>

							<rect x="582.6" y="256.5" transform="matrix(-0.7071 -0.7071 0.7071 -0.7071 798.8414 895.6876)" fill="#203F6B" width="4.5" height="51.7"/>

							<rect x="582.6" y="256.5" transform="matrix(0.7071 -0.7071 0.7071 0.7071 -28.3656 496.316)" fill="#203F6B" width="4.5" height="51.7"/>
					</g>
					<g>

							<rect x="582.6" y="294.6" transform="matrix(-0.7071 -0.7071 0.7071 -0.7071 771.8975 960.7358)" fill="#203F6B" width="4.5" height="51.7"/>

							<rect x="582.6" y="294.6" transform="matrix(0.7071 -0.7071 0.7071 0.7071 -55.3094 507.4766)" fill="#203F6B" width="4.5" height="51.7"/>
					</g>
				</g>
			</g>
			<g clip-path="url(#SVGID_2_)">
				<g>
					<g>

							<rect x="67.3" y="163.7" transform="matrix(0.7071 -0.7071 0.7071 0.7071 -174.0288 131.1827)" fill="#20406B" width="8" height="223.9"/>
					</g>
					<g>

							<rect x="84.2" y="118.8" transform="matrix(0.7071 -0.7071 0.7071 0.7071 -151.3985 135.7559)" fill="#20406B" width="8" height="263.7"/>
					</g>
					<g>
						<rect x="69.3" y="1" fill="#20406B" width="4" height="232.8"/>
					</g>
					<g>

							<rect x="45.4" y="242.2" transform="matrix(0.7071 -0.7071 0.7071 0.7071 -154.594 114.1942)" fill="#2E5993" width="30.3" height="3"/>
					</g>
					<path fill="#3062A3" d="M78.1,234.1l-5.8,5.8c-0.8,0.8-2,0.8-2.8,0l-5-5c-0.8-0.8-0.8-2,0-2.8l5.8-5.8c0.8-0.8,2-0.8,2.8,0l5,5
						C78.9,232,78.9,233.3,78.1,234.1z"/>
					<path fill="#3062A3" d="M56.6,255.5l-5.8,5.8c-0.8,0.8-2,0.8-2.8,0l-5-5c-0.8-0.8-0.8-2,0-2.8l5.8-5.8c0.8-0.8,2-0.8,2.8,0l5,5
						C57.4,253.4,57.4,254.7,56.6,255.5z"/>
				</g>
				<g>
					<g>

							<rect x="616.3" y="271.7" transform="matrix(0.7071 -0.7071 0.7071 0.7071 18.3675 595.6669)" fill="#20406B" width="223.9" height="8"/>
					</g>
					<g>

							<rect x="579.5" y="246.6" transform="matrix(0.7071 -0.7071 0.7071 0.7071 31.1361 576.4338)" fill="#20406B" width="263.7" height="8"/>
					</g>
					<g>
						<rect x="726.2" y="1" fill="#20406B" width="4" height="232.8"/>
					</g>
					<g>

							<rect x="737.5" y="228.5" transform="matrix(0.7071 -0.7071 0.7071 0.7071 44.1228 593.9391)" fill="#2E5993" width="3" height="30.3"/>
					</g>
					<path fill="#3062A3" d="M721.4,234.1l5.8,5.8c0.8,0.8,2,0.8,2.8,0l5-5c0.8-0.8,0.8-2,0-2.8l-5.8-5.8c-0.8-0.8-2-0.8-2.8,0l-5,5
						C720.6,232,720.6,233.3,721.4,234.1z"/>
					<path fill="#3062A3" d="M742.9,255.5l5.8,5.8c0.8,0.8,2,0.8,2.8,0l5-5c0.8-0.8,0.8-2,0-2.8l-5.8-5.8c-0.8-0.8-2-0.8-2.8,0l-5,5
						C742.1,253.4,742.1,254.7,742.9,255.5z"/>
				</g>
			</g>
			<g clip-path="url(#SVGID_2_)">
				<path fill="#2D3745" d="M785.1,248.2h139.1v44H781.1v-40C781.1,249.9,782.9,248.2,785.1,248.2z"/>
				<g>
					<path fill="#4E7CBD" d="M795.6,280.6c-5.8,0-10.5-4.7-10.5-10.5c0-5.8,4.7-10.5,10.5-10.5c5.8,0,10.5,4.7,10.5,10.5
						C806,275.9,801.3,280.6,795.6,280.6z"/>
					<circle fill="#F16933" cx="795.6" cy="270.2" r="8.5"/>
					<path fill="#F69138" d="M795.6,275.6c-3,0-5.5-2.4-5.5-5.5s2.4-5.5,5.5-5.5s5.5,2.4,5.5,5.5S798.6,275.6,795.6,275.6z"/>
					<path fill="#41525C" d="M909.7,280.6c-5.8,0-10.5-4.7-10.5-10.5c0-5.8,4.7-10.5,10.5-10.5s10.5,4.7,10.5,10.5
						C920.2,275.9,915.5,280.6,909.7,280.6z"/>
					<circle fill="#F16933" cx="909.7" cy="270.2" r="8.5"/>
					<path fill="#F69138" d="M909.7,275.6c-3,0-5.5-2.4-5.5-5.5s2.4-5.5,5.5-5.5c3,0,5.5,2.4,5.5,5.5S912.7,275.6,909.7,275.6z"/>
				</g>
				<path fill="#41525C" d="M817.7,280.6c-5.8,0-10.5-4.7-10.5-10.5c0-5.8,4.7-10.5,10.5-10.5h69.8c5.8,0,10.5,4.7,10.5,10.5
					c0,5.8-4.7,10.5-10.5,10.5H817.7z"/>
				<path fill="#F16933" d="M887.6,278.6h-69.8c-4.7,0-8.5-3.8-8.5-8.5v0c0-4.7,3.8-8.5,8.5-8.5h69.8c4.7,0,8.5,3.8,8.5,8.5v0
					C896,274.8,892.2,278.6,887.6,278.6z"/>
				<path fill="#F69138" d="M817.7,275.6c-3,0-5.5-2.4-5.5-5.5s2.4-5.5,5.5-5.5h69.8c3,0,5.5,2.4,5.5,5.5s-2.4,5.5-5.5,5.5H817.7z"
					/>
				<circle fill="#FFFFFF" cx="907.3" cy="262.1" r="0.7"/>
				<circle fill="#F69138" cx="804.3" cy="276.4" r="1"/>
				<circle fill="#F16933" cx="803.7" cy="279.8" r="0.6"/>
				<circle fill="#FFFFFF" cx="821.7" cy="261.7" r="1"/>
				<circle fill="#F16933" cx="917.2" cy="259.5" r="0.6"/>
			</g>
			<g clip-path="url(#SVGID_2_)">
				<path fill="#323F4F" d="M765.1,292.2h139.1v44H761.1v-40C761.1,294,762.9,292.2,765.1,292.2z"/>
				<g>
					<path fill="#45566B" d="M775.6,324.7c-5.8,0-10.5-4.7-10.5-10.5c0-5.8,4.7-10.5,10.5-10.5c5.8,0,10.5,4.7,10.5,10.5
						C786,320,781.3,324.7,775.6,324.7z"/>
					<circle fill="#F16933" cx="775.6" cy="314.2" r="8.5"/>
					<path fill="#F69138" d="M775.6,319.7c-3,0-5.5-2.4-5.5-5.5s2.4-5.5,5.5-5.5c3,0,5.5,2.4,5.5,5.5S778.6,319.7,775.6,319.7z"/>
					<path fill="#41525C" d="M889.7,324.7c-5.8,0-10.5-4.7-10.5-10.5c0-5.8,4.7-10.5,10.5-10.5c5.8,0,10.5,4.7,10.5,10.5
						C900.2,320,895.5,324.7,889.7,324.7z"/>
					<circle fill="#F16933" cx="889.7" cy="314.2" r="8.5"/>
					<path fill="#F69138" d="M889.7,319.7c-3,0-5.5-2.4-5.5-5.5s2.4-5.5,5.5-5.5c3,0,5.5,2.4,5.5,5.5S892.8,319.7,889.7,319.7z"/>
				</g>
				<path fill="#45566B" d="M797.7,324.7c-5.8,0-10.5-4.7-10.5-10.5c0-5.8,4.7-10.5,10.5-10.5h69.8c5.8,0,10.5,4.7,10.5,10.5
					c0,5.8-4.7,10.5-10.5,10.5H797.7z"/>
				<path fill="#F16933" d="M867.6,322.7h-69.8c-4.7,0-8.5-3.8-8.5-8.5l0,0c0-4.7,3.8-8.5,8.5-8.5h69.8c4.7,0,8.5,3.8,8.5,8.5l0,0
					C876,318.9,872.3,322.7,867.6,322.7z"/>
				<path fill="#F69138" d="M797.7,319.7c-3,0-5.5-2.4-5.5-5.5s2.4-5.5,5.5-5.5h69.8c3,0,5.5,2.4,5.5,5.5s-2.4,5.5-5.5,5.5H797.7z"
					/>
				<circle fill="#FFFFFF" cx="887.3" cy="306.1" r="0.7"/>
				<circle fill="#F69138" cx="784.3" cy="320.5" r="1"/>
				<circle fill="#F16933" cx="783.7" cy="323.8" r="0.6"/>
				<circle fill="#FFFFFF" cx="801.7" cy="305.8" r="1"/>
				<circle fill="#F16933" cx="897.2" cy="303.5" r="0.6"/>
			</g>
			<circle clip-path="url(#SVGID_2_)" fill="#F16933" cx="223.7" cy="198.8" r="0.7"/>
			<circle clip-path="url(#SVGID_2_)" fill="#F69138" cx="220" cy="197.9" r="0.5"/>
			<circle clip-path="url(#SVGID_2_)" fill="#F16933" cx="225.2" cy="195.7" r="0.5"/>
			<g clip-path="url(#SVGID_2_)">
				<circle fill="#F16933" cx="592.4" cy="210.3" r="0.7"/>
				<circle fill="#F69138" cx="589" cy="213.3" r="0.3"/>
			</g>
			<g clip-path="url(#SVGID_2_)">
				<path fill="#2A5389" d="M201.1,36.8c-29.1,0-56.5-11.3-77-31.9L85.6-33.6l2.8-2.8l38.5,38.5c19.8,19.8,46.2,30.7,74.2,30.7
					c28,0,54.4-10.9,74.2-30.7l2.8,2.8C257.6,25.5,230.2,36.8,201.1,36.8z"/>
			</g>
			<g clip-path="url(#SVGID_2_)">
				<path fill="#4E7CBD" d="M279,5.8h-5.3c-2.7,0-4.8-2.2-4.8-4.8v0h14.9v0C283.8,3.7,281.7,5.8,279,5.8z"/>
			</g>
			<g clip-path="url(#SVGID_2_)">
				<path fill="#224574" d="M497.6,41.7c-21.5-7.4-41.2-20.6-56.9-39.1l-47.4-56.3l3.1-2.6L443.8,0c44.8,53.3,124.7,60.2,178.1,15.4
					l49.2-41.3l2.6,3.1l-49.2,41.3C588,49,539.6,56.2,497.6,41.7z"/>
			</g>
			<g clip-path="url(#SVGID_2_)">
				<path fill="#2A5389" d="M537.7,67.3c-19.8,0-35.8-16.1-35.8-35.8v-28h4v28c0,17.6,14.3,31.8,31.8,31.8
					c17.6,0,31.8-14.3,31.8-31.8v-68.2h4v68.2C573.5,51.2,557.4,67.3,537.7,67.3z"/>
			</g>
			<path clip-path="url(#SVGID_2_)" fill="#4E7CBD" d="M506.5,5.8h-5.3c-2.7,0-4.8-2.2-4.8-4.8v0h14.9v0
				C511.3,3.7,509.1,5.8,506.5,5.8z"/>
		</g>
		<rect x="93.8" y="336.2" fill="#242D38" width="702.6" height="264.3"/>
		<g>
			<defs>
				<path id="SVGID_3_" d="M511.3,575H288.3c-2.8,0-5-2.2-5-5V336.2h233V570C516.3,572.8,514.1,575,511.3,575z"/>
			</defs>
			<use xlink:href="#SVGID_3_"  overflow="visible" fill="#232B36"/>
			<clipPath id="SVGID_4_">
				<use xlink:href="#SVGID_3_"  overflow="visible"/>
			</clipPath>
			<g opacity="0.2" clip-path="url(#SVGID_4_)">
				<circle fill="#84939B" cx="283.3" cy="426" r="16.6"/>
				<circle fill="#96A7AF" cx="324.5" cy="421.4" r="28.6"/>
				<circle fill="#5F6A70" cx="482.1" cy="423.5" r="17.2"/>
				<circle fill="#5F6A70" cx="428.5" cy="383" r="8.5"/>
				<circle fill="#96A7AF" cx="442.8" cy="429.2" r="31.8"/>
				<g>
					<rect x="283.3" y="451" fill="#96A7AF" width="233" height="125.8"/>
					<circle fill="#96A7AF" cx="499.4" cy="452.4" r="41"/>
					<circle fill="#96A7AF" cx="278.3" cy="471.2" r="33.7"/>
					<circle fill="#96A7AF" cx="305.9" cy="437.6" r="22.6"/>
					<circle fill="#96A7AF" cx="388.2" cy="460.9" r="46.5"/>
					<circle fill="#96A7AF" cx="358.2" cy="407.5" r="33.1"/>
					<circle fill="#96A7AF" cx="460.7" cy="432.4" r="14.4"/>
					<circle fill="#96A7AF" cx="384.3" cy="426" r="20.2"/>
					<circle fill="#96A7AF" cx="337.3" cy="451" r="24.8"/>
					<circle fill="#84939B" cx="456.1" cy="394.7" r="11.9"/>
				</g>
				<rect x="283.3" y="528.6" fill="#6A7C84" width="233" height="48.2"/>
				<rect x="282.4" y="567.9" fill="#78848B" width="233.9" height="8.9"/>
				<circle fill="#84939B" cx="308.3" cy="380.3" r="9.5"/>
				<circle fill="#6A7C84" cx="299.3" cy="524" r="26.5"/>
				<circle fill="#6A7C84" cx="333.5" cy="528.6" r="16.5"/>
				<circle fill="#6A7C84" cx="445.4" cy="534" r="26.5"/>
				<circle fill="#6A7C84" cx="476.5" cy="518.6" r="16.5"/>
				<circle fill="#6A7C84" cx="502.5" cy="533.6" r="16.5"/>
				<circle fill="#6A7C84" cx="499.5" cy="497.5" r="3.5"/>
				<circle fill="#6A7C84" cx="419.5" cy="516.5" r="3.5"/>
				<circle fill="#6A7C84" cx="358.5" cy="497.5" r="3.5"/>
				<circle fill="#6A7C84" cx="297.5" cy="495.5" r="3.5"/>
				<circle fill="#6A7C84" cx="411.5" cy="540.6" r="16.5"/>
				<circle fill="#6A7C84" cx="358.5" cy="540.6" r="16.5"/>
				<circle fill="#6A7C84" cx="388" cy="529.1" r="19.1"/>
			</g>
		</g>
		<g>
			<g>
				<defs>
					<rect id="SVGID_5_" x="0.1" y="307.6" width="207.3" height="292.8"/>
				</defs>
				<clipPath id="SVGID_6_">
					<use xlink:href="#SVGID_5_"  overflow="visible"/>
				</clipPath>
				<g clip-path="url(#SVGID_6_)">
					<g>
						<path fill="#2F3B4A" d="M61.2,336.2h139.1v44H57.2v-40C57.2,338,59,336.2,61.2,336.2z"/>
						<g>
							<path fill="#41525C" d="M71.7,368.7c-5.8,0-10.5-4.7-10.5-10.5c0-5.8,4.7-10.5,10.5-10.5c5.8,0,10.5,4.7,10.5,10.5
								C82.1,364,77.5,368.7,71.7,368.7z"/>
							<circle fill="#F16933" cx="71.7" cy="358.2" r="8.5"/>
							<path fill="#F69138" d="M71.7,363.7c-3,0-5.5-2.4-5.5-5.5s2.4-5.5,5.5-5.5c3,0,5.5,2.4,5.5,5.5S74.7,363.7,71.7,363.7z"/>
							<path fill="#41525C" d="M185.9,368.7c-5.8,0-10.5-4.7-10.5-10.5c0-5.8,4.7-10.5,10.5-10.5s10.5,4.7,10.5,10.5
								C196.3,364,191.6,368.7,185.9,368.7z"/>
							<circle fill="#F16933" cx="185.9" cy="358.2" r="8.5"/>
							<path fill="#F69138" d="M185.9,363.7c-3,0-5.5-2.4-5.5-5.5s2.4-5.5,5.5-5.5s5.5,2.4,5.5,5.5S188.9,363.7,185.9,363.7z"/>
						</g>
						<path fill="#41525C" d="M93.9,368.7c-5.8,0-10.5-4.7-10.5-10.5c0-5.8,4.7-10.5,10.5-10.5h69.8c5.8,0,10.5,4.7,10.5,10.5
							c0,5.8-4.7,10.5-10.5,10.5H93.9z"/>
						<path fill="#F16933" d="M163.7,366.7H93.9c-4.7,0-8.5-3.8-8.5-8.5l0,0c0-4.7,3.8-8.5,8.5-8.5h69.8c4.7,0,8.5,3.8,8.5,8.5l0,0
							C172.2,362.9,168.4,366.7,163.7,366.7z"/>
						<path fill="#F69138" d="M93.9,363.7c-3,0-5.5-2.4-5.5-5.5s2.4-5.5,5.5-5.5h69.8c3,0,5.5,2.4,5.5,5.5s-2.4,5.5-5.5,5.5H93.9z"
							/>
						<circle fill="#FFFFFF" cx="183.4" cy="350.2" r="0.7"/>
						<circle fill="#F69138" cx="80.4" cy="364.5" r="1"/>
						<circle fill="#F16933" cx="79.8" cy="367.8" r="0.6"/>
						<circle fill="#FFFFFF" cx="97.8" cy="349.8" r="1"/>
						<circle fill="#F16933" cx="193.3" cy="347.6" r="0.6"/>
					</g>
					<g>
						<path fill="#394759" d="M41.2,380.3h139.1v44H37.2v-40C37.2,382.1,39,380.3,41.2,380.3z"/>
						<g>
							<path fill="#41525C" d="M51.7,412.7c-5.8,0-10.5-4.7-10.5-10.5c0-5.8,4.7-10.5,10.5-10.5c5.8,0,10.5,4.7,10.5,10.5
								C62.2,408,57.5,412.7,51.7,412.7z"/>
							<circle fill="#F16933" cx="51.7" cy="402.3" r="8.5"/>
							<path fill="#F69138" d="M51.7,407.7c-3,0-5.5-2.4-5.5-5.5c0-3,2.4-5.5,5.5-5.5s5.5,2.4,5.5,5.5
								C57.2,405.3,54.7,407.7,51.7,407.7z"/>
							<path fill="#41525C" d="M165.9,412.7c-5.8,0-10.5-4.7-10.5-10.5c0-5.8,4.7-10.5,10.5-10.5c5.8,0,10.5,4.7,10.5,10.5
								C176.3,408,171.6,412.7,165.9,412.7z"/>
							<circle fill="#F16933" cx="165.9" cy="402.3" r="8.5"/>
							<path fill="#F69138" d="M165.9,407.7c-3,0-5.5-2.4-5.5-5.5c0-3,2.4-5.5,5.5-5.5c3,0,5.5,2.4,5.5,5.5
								C171.3,405.3,168.9,407.7,165.9,407.7z"/>
						</g>
						<path fill="#41525C" d="M73.9,412.7c-5.8,0-10.5-4.7-10.5-10.5c0-5.8,4.7-10.5,10.5-10.5h69.8c5.8,0,10.5,4.7,10.5,10.5
							c0,5.8-4.7,10.5-10.5,10.5H73.9z"/>
						<path fill="#F16933" d="M143.7,410.7H73.9c-4.7,0-8.5-3.8-8.5-8.5v0c0-4.7,3.8-8.5,8.5-8.5h69.8c4.7,0,8.5,3.8,8.5,8.5v0
							C152.2,406.9,148.4,410.7,143.7,410.7z"/>
						<path fill="#F69138" d="M73.9,407.7c-3,0-5.5-2.4-5.5-5.5c0-3,2.4-5.5,5.5-5.5h69.8c3,0,5.5,2.4,5.5,5.5c0,3-2.4,5.5-5.5,5.5
							H73.9z"/>
						<circle fill="#FFFFFF" cx="163.4" cy="394.2" r="0.7"/>
						<circle fill="#F69138" cx="60.5" cy="408.6" r="1"/>
						<circle fill="#F16933" cx="59.8" cy="411.9" r="0.6"/>
						<circle fill="#FFFFFF" cx="77.8" cy="393.8" r="1"/>
						<circle fill="#F16933" cx="173.3" cy="391.6" r="0.6"/>
					</g>
					<g>
						<path fill="#2F3B4A" d="M21.2,424.3h139.1v44H17.3v-40C17.3,426.1,19,424.3,21.2,424.3z"/>
						<g>
							<path fill="#41525C" d="M31.7,456.8c-5.8,0-10.5-4.7-10.5-10.5c0-5.8,4.7-10.5,10.5-10.5c5.8,0,10.5,4.7,10.5,10.5
								C42.2,452.1,37.5,456.8,31.7,456.8z"/>
							<circle fill="#F16933" cx="31.7" cy="446.3" r="8.5"/>
							<path fill="#F69138" d="M31.7,451.8c-3,0-5.5-2.4-5.5-5.5s2.4-5.5,5.5-5.5s5.5,2.4,5.5,5.5S34.7,451.8,31.7,451.8z"/>
							<path fill="#41525C" d="M145.9,456.8c-5.8,0-10.5-4.7-10.5-10.5c0-5.8,4.7-10.5,10.5-10.5c5.8,0,10.5,4.7,10.5,10.5
								C156.3,452.1,151.7,456.8,145.9,456.8z"/>
							<circle fill="#F16933" cx="145.9" cy="446.3" r="8.5"/>
							<path fill="#F69138" d="M145.9,451.8c-3,0-5.5-2.4-5.5-5.5s2.4-5.5,5.5-5.5c3,0,5.5,2.4,5.5,5.5S148.9,451.8,145.9,451.8z"/>
						</g>
						<path fill="#41525C" d="M53.9,456.8c-5.8,0-10.5-4.7-10.5-10.5c0-5.8,4.7-10.5,10.5-10.5h69.8c5.8,0,10.5,4.7,10.5,10.5
							c0,5.8-4.7,10.5-10.5,10.5H53.9z"/>
						<path fill="#F16933" d="M123.7,454.8H53.9c-4.7,0-8.5-3.8-8.5-8.5v0c0-4.7,3.8-8.5,8.5-8.5h69.8c4.7,0,8.5,3.8,8.5,8.5v0
							C132.2,451,128.4,454.8,123.7,454.8z"/>
						<path fill="#F69138" d="M53.9,451.8c-3,0-5.5-2.4-5.5-5.5s2.4-5.5,5.5-5.5h69.8c3,0,5.5,2.4,5.5,5.5s-2.4,5.5-5.5,5.5H53.9z"
							/>
						<circle fill="#FFFFFF" cx="143.5" cy="438.2" r="0.7"/>
						<circle fill="#F69138" cx="40.5" cy="452.6" r="1"/>
						<circle fill="#F16933" cx="39.8" cy="455.9" r="0.6"/>
						<circle fill="#FFFFFF" cx="57.8" cy="437.9" r="1"/>
						<circle fill="#F16933" cx="153.3" cy="435.6" r="0.6"/>
					</g>
					<g>
						<rect x="-2.7" y="468.3" fill="#394759" width="143.1" height="44"/>
						<g>
							<path fill="#41525C" d="M11.7,500.8c-5.8,0-10.5-4.7-10.5-10.5c0-5.8,4.7-10.5,10.5-10.5c5.8,0,10.5,4.7,10.5,10.5
								C22.2,496.1,17.5,500.8,11.7,500.8z"/>
							<circle fill="#F16933" cx="11.7" cy="490.4" r="8.5"/>
							<path fill="#F69138" d="M11.7,495.8c-3,0-5.5-2.4-5.5-5.5s2.4-5.5,5.5-5.5s5.5,2.4,5.5,5.5S14.8,495.8,11.7,495.8z"/>
							<path fill="#41525C" d="M125.9,500.8c-5.8,0-10.5-4.7-10.5-10.5c0-5.8,4.7-10.5,10.5-10.5c5.8,0,10.5,4.7,10.5,10.5
								C136.4,496.1,131.7,500.8,125.9,500.8z"/>
							<circle fill="#F16933" cx="125.9" cy="490.4" r="8.5"/>
							<path fill="#F69138" d="M125.9,495.8c-3,0-5.5-2.4-5.5-5.5s2.4-5.5,5.5-5.5c3,0,5.5,2.4,5.5,5.5S128.9,495.8,125.9,495.8z"/>
						</g>
						<path fill="#41525C" d="M33.9,500.8c-5.8,0-10.5-4.7-10.5-10.5c0-5.8,4.7-10.5,10.5-10.5h69.8c5.8,0,10.5,4.7,10.5,10.5
							c0,5.8-4.7,10.5-10.5,10.5H33.9z"/>
						<path fill="#F16933" d="M103.8,498.8H33.9c-4.7,0-8.5-3.8-8.5-8.5l0,0c0-4.7,3.8-8.5,8.5-8.5h69.8c4.7,0,8.5,3.8,8.5,8.5l0,0
							C112.2,495,108.4,498.8,103.8,498.8z"/>
						<path fill="#F69138" d="M33.9,495.8c-3,0-5.5-2.4-5.5-5.5s2.4-5.5,5.5-5.5h69.8c3,0,5.5,2.4,5.5,5.5s-2.4,5.5-5.5,5.5H33.9z"
							/>
						<circle fill="#FFFFFF" cx="123.5" cy="482.3" r="0.7"/>
						<circle fill="#F69138" cx="20.5" cy="496.6" r="1"/>
						<circle fill="#F16933" cx="19.8" cy="500" r="0.6"/>
						<circle fill="#FFFFFF" cx="37.9" cy="481.9" r="1"/>
						<circle fill="#F16933" cx="133.4" cy="479.7" r="0.6"/>
					</g>
					<g>
						<rect x="-22.7" y="512.4" fill="#2F3B4A" width="143.1" height="44"/>
						<g>
							<path fill="#41525C" d="M-8.2,544.8c-5.8,0-10.5-4.7-10.5-10.5c0-5.8,4.7-10.5,10.5-10.5c5.8,0,10.5,4.7,10.5,10.5
								C2.2,540.2-2.5,544.8-8.2,544.8z"/>
							<circle fill="#F16933" cx="-8.2" cy="534.4" r="8.5"/>
							<path fill="#F69138" d="M-8.2,539.8c-3,0-5.5-2.4-5.5-5.5c0-3,2.4-5.5,5.5-5.5s5.5,2.4,5.5,5.5
								C-2.8,537.4-5.2,539.8-8.2,539.8z"/>
							<path fill="#41525C" d="M105.9,544.8c-5.8,0-10.5-4.7-10.5-10.5c0-5.8,4.7-10.5,10.5-10.5s10.5,4.7,10.5,10.5
								C116.4,540.2,111.7,544.8,105.9,544.8z"/>
							<circle fill="#F16933" cx="105.9" cy="534.4" r="8.5"/>
							<path fill="#F69138" d="M105.9,539.8c-3,0-5.5-2.4-5.5-5.5c0-3,2.4-5.5,5.5-5.5c3,0,5.5,2.4,5.5,5.5
								C111.4,537.4,108.9,539.8,105.9,539.8z"/>
						</g>
						<path fill="#41525C" d="M13.9,544.8c-5.8,0-10.5-4.7-10.5-10.5c0-5.8,4.7-10.5,10.5-10.5h69.8c5.8,0,10.5,4.7,10.5,10.5
							c0,5.8-4.7,10.5-10.5,10.5H13.9z"/>
						<path fill="#F16933" d="M83.8,542.8H13.9c-4.7,0-8.5-3.8-8.5-8.5v0c0-4.7,3.8-8.5,8.5-8.5h69.8c4.7,0,8.5,3.8,8.5,8.5v0
							C92.2,539.1,88.4,542.8,83.8,542.8z"/>
						<path fill="#F69138" d="M13.9,539.8c-3,0-5.5-2.4-5.5-5.5c0-3,2.4-5.5,5.5-5.5h69.8c3,0,5.5,2.4,5.5,5.5c0,3-2.4,5.5-5.5,5.5
							H13.9z"/>
						<circle fill="#FFFFFF" cx="103.5" cy="526.3" r="0.7"/>
						<circle fill="#F69138" cx="0.5" cy="540.7" r="1"/>
						<circle fill="#F16933" cx="-0.1" cy="544" r="0.6"/>
						<circle fill="#FFFFFF" cx="17.9" cy="525.9" r="1"/>
						<circle fill="#F16933" cx="113.4" cy="523.7" r="0.6"/>
					</g>
					<g>
						<rect x="-42.7" y="556.4" fill="#394759" width="143.1" height="44"/>
						<g>
							<path fill="#41525C" d="M-28.2,588.9c-5.8,0-10.5-4.7-10.5-10.5c0-5.8,4.7-10.5,10.5-10.5c5.8,0,10.5,4.7,10.5,10.5
								C-17.8,584.2-22.5,588.9-28.2,588.9z"/>
							<circle fill="#F16933" cx="-28.2" cy="578.4" r="8.5"/>
							<path fill="#F69138" d="M-28.2,583.9c-3,0-5.5-2.4-5.5-5.5c0-3,2.4-5.5,5.5-5.5s5.5,2.4,5.5,5.5
								C-22.8,581.4-25.2,583.9-28.2,583.9z"/>
							<path fill="#41525C" d="M86,588.9c-5.8,0-10.5-4.7-10.5-10.5c0-5.8,4.7-10.5,10.5-10.5s10.5,4.7,10.5,10.5
								C96.4,584.2,91.7,588.9,86,588.9z"/>
							<circle fill="#F16933" cx="86" cy="578.4" r="8.5"/>
							<path fill="#F69138" d="M86,583.9c-3,0-5.5-2.4-5.5-5.5c0-3,2.4-5.5,5.5-5.5c3,0,5.5,2.4,5.5,5.5
								C91.4,581.4,89,583.9,86,583.9z"/>
						</g>
						<path fill="#41525C" d="M-6.1,588.9c-5.8,0-10.5-4.7-10.5-10.5c0-5.8,4.7-10.5,10.5-10.5h69.8c5.8,0,10.5,4.7,10.5,10.5
							c0,5.8-4.7,10.5-10.5,10.5H-6.1z"/>
						<path fill="#F16933" d="M63.8,586.9H-6.1c-4.7,0-8.5-3.8-8.5-8.5l0,0c0-4.7,3.8-8.5,8.5-8.5h69.8c4.7,0,8.5,3.8,8.5,8.5l0,0
							C72.2,583.1,68.5,586.9,63.8,586.9z"/>
						<path fill="#F69138" d="M-6.1,583.9c-3,0-5.5-2.4-5.5-5.5c0-3,2.4-5.5,5.5-5.5h69.8c3,0,5.5,2.4,5.5,5.5c0,3-2.4,5.5-5.5,5.5
							H-6.1z"/>
						<circle fill="#FFFFFF" cx="83.5" cy="570.3" r="0.7"/>
						<circle fill="#F69138" cx="-19.5" cy="584.7" r="1"/>
						<circle fill="#F16933" cx="-20.1" cy="588" r="0.6"/>
						<circle fill="#FFFFFF" cx="-2.1" cy="570" r="1"/>
						<circle fill="#F16933" cx="93.4" cy="567.7" r="0.6"/>
					</g>
				</g>
			</g>
		</g>
		<path fill="#4D606B" d="M273.1,331.1H97.4c-2.9,0-5.2,2.3-5.2,5.2l0,0h186.1l0,0C278.3,333.4,275.9,331.1,273.1,331.1z"/>
		<path fill="#4D606B" d="M772.1,331.1H526.5c-2.9,0-5.2,2.3-5.2,5.2l0,0h256l0,0C777.3,333.4,775,331.1,772.1,331.1z"/>
		<path fill="none" stroke="#3B2222" stroke-width="7.9926" stroke-miterlimit="10" d="M-3,157.4"/>
		<path fill="#303947" d="M100.1,5.8h-5.3C92.1,5.8,90,3.7,90,1v0h14.9v0C104.9,3.7,102.7,5.8,100.1,5.8z"/>
		<rect x="200.3" y="336.2" fill="#2A3542" width="82.9" height="44"/>
		<rect x="516.3" y="336.2" fill="#2A3542" width="283.1" height="44"/>
		<g>
			<path fill="#252F3B" d="M523,375.9L523,375.9c-0.9,0-1.7-0.7-1.7-1.7v-31.7c0-0.9,0.7-1.7,1.7-1.7l0,0c0.9,0,1.7,0.7,1.7,1.7
				v31.7C524.6,375.1,523.9,375.9,523,375.9z"/>
			<path fill="#252F3B" d="M530.3,375.9L530.3,375.9c-0.9,0-1.7-0.7-1.7-1.7v-31.7c0-0.9,0.7-1.7,1.7-1.7l0,0c0.9,0,1.7,0.7,1.7,1.7
				v31.7C532,375.1,531.2,375.9,530.3,375.9z"/>
			<path fill="#252F3B" d="M537.7,375.9L537.7,375.9c-0.9,0-1.7-0.7-1.7-1.7v-31.7c0-0.9,0.7-1.7,1.7-1.7l0,0c0.9,0,1.7,0.7,1.7,1.7
				v31.7C539.3,375.1,538.6,375.9,537.7,375.9z"/>
			<path fill="#252F3B" d="M545.1,375.9L545.1,375.9c-0.9,0-1.7-0.7-1.7-1.7v-31.7c0-0.9,0.7-1.7,1.7-1.7h0c0.9,0,1.7,0.7,1.7,1.7
				v31.7C546.7,375.1,546,375.9,545.1,375.9z"/>
			<path fill="#252F3B" d="M552.4,375.9L552.4,375.9c-0.9,0-1.7-0.7-1.7-1.7v-31.7c0-0.9,0.7-1.7,1.7-1.7l0,0c0.9,0,1.7,0.7,1.7,1.7
				v31.7C554.1,375.1,553.3,375.9,552.4,375.9z"/>
			<path fill="#252F3B" d="M559.8,375.9L559.8,375.9c-0.9,0-1.7-0.7-1.7-1.7v-31.7c0-0.9,0.7-1.7,1.7-1.7l0,0c0.9,0,1.7,0.7,1.7,1.7
				v31.7C561.4,375.1,560.7,375.9,559.8,375.9z"/>
			<path fill="#252F3B" d="M567.2,375.9L567.2,375.9c-0.9,0-1.7-0.7-1.7-1.7v-31.7c0-0.9,0.7-1.7,1.7-1.7l0,0c0.9,0,1.7,0.7,1.7,1.7
				v31.7C568.8,375.1,568.1,375.9,567.2,375.9z"/>
			<path fill="#252F3B" d="M574.5,375.9L574.5,375.9c-0.9,0-1.7-0.7-1.7-1.7v-31.7c0-0.9,0.7-1.7,1.7-1.7l0,0c0.9,0,1.7,0.7,1.7,1.7
				v31.7C576.2,375.1,575.4,375.9,574.5,375.9z"/>
			<path fill="#252F3B" d="M581.9,375.9L581.9,375.9c-0.9,0-1.7-0.7-1.7-1.7v-31.7c0-0.9,0.7-1.7,1.7-1.7l0,0c0.9,0,1.7,0.7,1.7,1.7
				v31.7C583.5,375.1,582.8,375.9,581.9,375.9z"/>
			<path fill="#252F3B" d="M589.3,375.9L589.3,375.9c-0.9,0-1.7-0.7-1.7-1.7v-31.7c0-0.9,0.7-1.7,1.7-1.7l0,0c0.9,0,1.7,0.7,1.7,1.7
				v31.7C590.9,375.1,590.2,375.9,589.3,375.9z"/>
		</g>
		<g>
			<path fill="#252F3B" d="M589.3,375.9L589.3,375.9c-0.9,0-1.7-0.7-1.7-1.7v-31.7c0-0.9,0.7-1.7,1.7-1.7l0,0c0.9,0,1.7,0.7,1.7,1.7
				v31.7C590.9,375.1,590.2,375.9,589.3,375.9z"/>
			<path fill="#252F3B" d="M596.6,375.9L596.6,375.9c-0.9,0-1.7-0.7-1.7-1.7v-31.7c0-0.9,0.7-1.7,1.7-1.7l0,0c0.9,0,1.7,0.7,1.7,1.7
				v31.7C598.3,375.1,597.5,375.9,596.6,375.9z"/>
			<path fill="#252F3B" d="M604,375.9L604,375.9c-0.9,0-1.7-0.7-1.7-1.7v-31.7c0-0.9,0.7-1.7,1.7-1.7l0,0c0.9,0,1.7,0.7,1.7,1.7
				v31.7C605.6,375.1,604.9,375.9,604,375.9z"/>
			<path fill="#252F3B" d="M611.4,375.9L611.4,375.9c-0.9,0-1.7-0.7-1.7-1.7v-31.7c0-0.9,0.7-1.7,1.7-1.7l0,0c0.9,0,1.7,0.7,1.7,1.7
				v31.7C613,375.1,612.3,375.9,611.4,375.9z"/>
			<path fill="#252F3B" d="M618.7,375.9L618.7,375.9c-0.9,0-1.7-0.7-1.7-1.7v-31.7c0-0.9,0.7-1.7,1.7-1.7l0,0c0.9,0,1.7,0.7,1.7,1.7
				v31.7C620.4,375.1,619.6,375.9,618.7,375.9z"/>
			<path fill="#252F3B" d="M626.1,375.9L626.1,375.9c-0.9,0-1.7-0.7-1.7-1.7v-31.7c0-0.9,0.7-1.7,1.7-1.7l0,0c0.9,0,1.7,0.7,1.7,1.7
				v31.7C627.7,375.1,627,375.9,626.1,375.9z"/>
			<path fill="#252F3B" d="M633.5,375.9L633.5,375.9c-0.9,0-1.7-0.7-1.7-1.7v-31.7c0-0.9,0.7-1.7,1.7-1.7l0,0c0.9,0,1.7,0.7,1.7,1.7
				v31.7C635.1,375.1,634.4,375.9,633.5,375.9z"/>
			<path fill="#252F3B" d="M640.8,375.9L640.8,375.9c-0.9,0-1.7-0.7-1.7-1.7v-31.7c0-0.9,0.7-1.7,1.7-1.7l0,0c0.9,0,1.7,0.7,1.7,1.7
				v31.7C642.5,375.1,641.7,375.9,640.8,375.9z"/>
			<path fill="#252F3B" d="M648.2,375.9L648.2,375.9c-0.9,0-1.7-0.7-1.7-1.7v-31.7c0-0.9,0.7-1.7,1.7-1.7l0,0c0.9,0,1.7,0.7,1.7,1.7
				v31.7C649.8,375.1,649.1,375.9,648.2,375.9z"/>
			<path fill="#252F3B" d="M655.5,375.9L655.5,375.9c-0.9,0-1.7-0.7-1.7-1.7v-31.7c0-0.9,0.7-1.7,1.7-1.7l0,0c0.9,0,1.7,0.7,1.7,1.7
				v31.7C657.2,375.1,656.5,375.9,655.5,375.9z"/>
		</g>
		<g>
			<path fill="#252F3B" d="M655.5,375.9L655.5,375.9c-0.9,0-1.7-0.7-1.7-1.7v-31.7c0-0.9,0.7-1.7,1.7-1.7l0,0c0.9,0,1.7,0.7,1.7,1.7
				v31.7C657.2,375.1,656.5,375.9,655.5,375.9z"/>
			<path fill="#252F3B" d="M662.9,375.9L662.9,375.9c-0.9,0-1.7-0.7-1.7-1.7v-31.7c0-0.9,0.7-1.7,1.7-1.7l0,0c0.9,0,1.7,0.7,1.7,1.7
				v31.7C664.6,375.1,663.8,375.9,662.9,375.9z"/>
			<path fill="#252F3B" d="M670.3,375.9L670.3,375.9c-0.9,0-1.7-0.7-1.7-1.7v-31.7c0-0.9,0.7-1.7,1.7-1.7l0,0c0.9,0,1.7,0.7,1.7,1.7
				v31.7C671.9,375.1,671.2,375.9,670.3,375.9z"/>
			<path fill="#252F3B" d="M677.6,375.9L677.6,375.9c-0.9,0-1.7-0.7-1.7-1.7v-31.7c0-0.9,0.7-1.7,1.7-1.7l0,0c0.9,0,1.7,0.7,1.7,1.7
				v31.7C679.3,375.1,678.6,375.9,677.6,375.9z"/>
			<path fill="#252F3B" d="M685,375.9L685,375.9c-0.9,0-1.7-0.7-1.7-1.7v-31.7c0-0.9,0.7-1.7,1.7-1.7l0,0c0.9,0,1.7,0.7,1.7,1.7
				v31.7C686.7,375.1,685.9,375.9,685,375.9z"/>
			<path fill="#252F3B" d="M692.4,375.9L692.4,375.9c-0.9,0-1.7-0.7-1.7-1.7v-31.7c0-0.9,0.7-1.7,1.7-1.7l0,0c0.9,0,1.7,0.7,1.7,1.7
				v31.7C694,375.1,693.3,375.9,692.4,375.9z"/>
			<path fill="#252F3B" d="M699.7,375.9L699.7,375.9c-0.9,0-1.7-0.7-1.7-1.7v-31.7c0-0.9,0.7-1.7,1.7-1.7l0,0c0.9,0,1.7,0.7,1.7,1.7
				v31.7C701.4,375.1,700.7,375.9,699.7,375.9z"/>
			<path fill="#252F3B" d="M707.1,375.9L707.1,375.9c-0.9,0-1.7-0.7-1.7-1.7v-31.7c0-0.9,0.7-1.7,1.7-1.7l0,0c0.9,0,1.7,0.7,1.7,1.7
				v31.7C708.8,375.1,708,375.9,707.1,375.9z"/>
			<path fill="#252F3B" d="M714.5,375.9L714.5,375.9c-0.9,0-1.7-0.7-1.7-1.7v-31.7c0-0.9,0.7-1.7,1.7-1.7l0,0c0.9,0,1.7,0.7,1.7,1.7
				v31.7C716.1,375.1,715.4,375.9,714.5,375.9z"/>
			<path fill="#252F3B" d="M721.8,375.9L721.8,375.9c-0.9,0-1.7-0.7-1.7-1.7v-31.7c0-0.9,0.7-1.7,1.7-1.7l0,0c0.9,0,1.7,0.7,1.7,1.7
				v31.7C723.5,375.1,722.8,375.9,721.8,375.9z"/>
		</g>
		<g>
			<path fill="#252F3B" d="M721.8,375.9L721.8,375.9c-0.9,0-1.7-0.7-1.7-1.7v-31.7c0-0.9,0.7-1.7,1.7-1.7l0,0c0.9,0,1.7,0.7,1.7,1.7
				v31.7C723.5,375.1,722.8,375.9,721.8,375.9z"/>
			<path fill="#252F3B" d="M729.2,375.9L729.2,375.9c-0.9,0-1.7-0.7-1.7-1.7v-31.7c0-0.9,0.7-1.7,1.7-1.7h0c0.9,0,1.7,0.7,1.7,1.7
				v31.7C730.9,375.1,730.1,375.9,729.2,375.9z"/>
			<path fill="#252F3B" d="M736.6,375.9L736.6,375.9c-0.9,0-1.7-0.7-1.7-1.7v-31.7c0-0.9,0.7-1.7,1.7-1.7l0,0c0.9,0,1.7,0.7,1.7,1.7
				v31.7C738.2,375.1,737.5,375.9,736.6,375.9z"/>
			<path fill="#252F3B" d="M743.9,375.9L743.9,375.9c-0.9,0-1.7-0.7-1.7-1.7v-31.7c0-0.9,0.7-1.7,1.7-1.7l0,0c0.9,0,1.7,0.7,1.7,1.7
				v31.7C745.6,375.1,744.9,375.9,743.9,375.9z"/>
			<path fill="#252F3B" d="M751.3,375.9L751.3,375.9c-0.9,0-1.7-0.7-1.7-1.7v-31.7c0-0.9,0.7-1.7,1.7-1.7l0,0c0.9,0,1.7,0.7,1.7,1.7
				v31.7C753,375.1,752.2,375.9,751.3,375.9z"/>
			<path fill="#252F3B" d="M758.7,375.9L758.7,375.9c-0.9,0-1.7-0.7-1.7-1.7v-31.7c0-0.9,0.7-1.7,1.7-1.7l0,0c0.9,0,1.7,0.7,1.7,1.7
				v31.7C760.3,375.1,759.6,375.9,758.7,375.9z"/>
			<path fill="#252F3B" d="M766,375.9L766,375.9c-0.9,0-1.7-0.7-1.7-1.7v-31.7c0-0.9,0.7-1.7,1.7-1.7l0,0c0.9,0,1.7,0.7,1.7,1.7
				v31.7C767.7,375.1,767,375.9,766,375.9z"/>
			<path fill="#252F3B" d="M773.4,375.9L773.4,375.9c-0.9,0-1.7-0.7-1.7-1.7v-31.7c0-0.9,0.7-1.7,1.7-1.7l0,0c0.9,0,1.7,0.7,1.7,1.7
				v31.7C775.1,375.1,774.3,375.9,773.4,375.9z"/>
			<path fill="#252F3B" d="M780.8,375.9L780.8,375.9c-0.9,0-1.7-0.7-1.7-1.7v-31.7c0-0.9,0.7-1.7,1.7-1.7l0,0c0.9,0,1.7,0.7,1.7,1.7
				v31.7C782.4,375.1,781.7,375.9,780.8,375.9z"/>
			<path fill="#252F3B" d="M788.1,375.9L788.1,375.9c-0.9,0-1.7-0.7-1.7-1.7v-31.7c0-0.9,0.7-1.7,1.7-1.7l0,0c0.9,0,1.7,0.7,1.7,1.7
				v31.7C789.8,375.1,789.1,375.9,788.1,375.9z"/>
		</g>
		<g>
			<path fill="#252F3B" d="M788.1,375.9L788.1,375.9c-0.9,0-1.7-0.7-1.7-1.7v-31.7c0-0.9,0.7-1.7,1.7-1.7l0,0c0.9,0,1.7,0.7,1.7,1.7
				v31.7C789.8,375.1,789.1,375.9,788.1,375.9z"/>
			<path fill="#252F3B" d="M795.5,375.9L795.5,375.9c-0.9,0-1.7-0.7-1.7-1.7v-31.7c0-0.9,0.7-1.7,1.7-1.7l0,0c0.9,0,1.7,0.7,1.7,1.7
				v31.7C797.2,375.1,796.4,375.9,795.5,375.9z"/>
		</g>
		<path id="haze" opacity="0.2" fill="#757575" d="M511,575H288c-2.8,0-5-2.2-5-5V336h233v234C516,572.8,513.8,575,511,575z"/>
	</g>
	<circle fill="#3F70B6" cx="450.7" cy="277.2" r="8.2"/>
	<circle fill="#3F70B6" cx="455" cy="261.5" r="10.7"/>
	<circle fill="#4E7CBD" cx="421.7" cy="281.8" r="10.7"/>
	<circle fill="#3F70B6" cx="474.8" cy="273.4" r="5"/>
	<circle fill="#3767AF" cx="493.3" cy="303.8" r="10.7"/>
	<circle fill="#3767AF" cx="502.1" cy="319.9" r="4.3"/>
	<circle fill="#3767AF" cx="541.2" cy="308.9" r="4.3"/>
	<circle fill="#3F70B6" cx="349.3" cy="285.8" r="11.4"/>
	<circle fill="#3767AF" cx="290.4" cy="274.8" r="11.4"/>
	<circle fill="#3767AF" cx="290.3" cy="300.8" r="4.6"/>
	<circle fill="#3F70B6" cx="324.5" cy="277.2" r="6"/>
	<circle fill="#5580C0" cx="345.6" cy="274.3" r="4.4"/>
	<circle fill="#638DC8" cx="381.8" cy="322.6" r="6.2"/>
	<circle fill="#638DC8" cx="409.5" cy="308.8" r="3.8"/>
	<circle fill="#638DC8" cx="406.6" cy="324.1" r="2.5"/>
	<circle fill="#638DC8" cx="454.7" cy="315.1" r="2.5"/>
	<g>
		<g>
			<g>
				<path fill="#254066" d="M602.3,157.9L602.3,157.9c-0.9-0.9-0.9-2.5,0-3.4l9.2-9.2V135h4.9v10.2c0,1.3-0.5,2.6-1.5,3.5l-9.2,9.2
					C604.8,158.8,603.2,158.8,602.3,157.9z"/>
			</g>
			<g>
				<path fill="#254066" d="M587.7,142.7L587.7,142.7c-0.9-0.9-0.9-2.5,0-3.4l9.2-9.2c0.9-0.9,2.2-1.5,3.5-1.5h10.2v4.9h-10.2
					l-9.2,9.2C590.2,143.7,588.7,143.7,587.7,142.7z"/>
			</g>
		</g>
		<path fill="#4E7CBD" d="M603.8,5.5h20c0.8,0,1.4-0.6,1.4-1.4V1h-22.8v3.1C602.4,4.8,603,5.5,603.8,5.5z"/>
		<path fill="#2A4975" d="M606.5,50.8h14.6c0.8,0,1.4-0.6,1.4-1.4V5.5h-17.4v43.9C605.1,50.1,605.7,50.8,606.5,50.8z"/>

			<rect x="608.6" y="50.8" transform="matrix(-1 -4.455160e-11 4.455160e-11 -1 1227.5343 172.3026)" fill="#254066" width="10.4" height="70.8"/>
		<circle fill="#254066" cx="613.9" cy="130.8" r="8.4"/>
		<circle fill="#31578A" cx="613.9" cy="130.8" r="3.7"/>
		<path fill="#2A4975" d="M608.6,124.4H619c0.3,0,0.5-0.2,0.6-0.4l0.9-2.3c0.2-0.5-0.2-0.9-0.6-0.9h-12.1c-0.5,0-0.8,0.5-0.6,0.9
			l0.9,2.3C608,124.2,608.3,124.4,608.6,124.4z"/>
	</g>
	<g>
		<g>
			<g>
				<path fill="#254066" d="M220.8,128.3L220.8,128.3c1.3,0,2.4-1.1,2.4-2.4v-13.1l7.2-7.2l-3.4-3.4l-7.2,7.2
					c-0.9,0.9-1.5,2.2-1.5,3.5l0,13C218.3,127.2,219.4,128.3,220.8,128.3z"/>
			</g>
			<g>
				<path fill="#254066" d="M241.8,127.9L241.8,127.9c1.3,0,2.4-1.1,2.4-2.4v-13c0-1.3-0.5-2.6-1.5-3.5l-7.2-7.2l-3.4,3.4l7.2,7.2
					l0,13.1C239.3,126.8,240.4,127.9,241.8,127.9z"/>
			</g>
		</g>
		<path fill="#4E7CBD" d="M242,5.5h-20c-0.8,0-1.4-0.6-1.4-1.4V1h22.8v3.1C243.3,4.8,242.7,5.5,242,5.5z"/>
		<path fill="#2A4975" d="M239.2,50.8h-14.6c-0.8,0-1.4-0.6-1.4-1.4V5.5h17.4v43.9C240.6,50.1,240,50.8,239.2,50.8z"/>
		<rect x="226.8" y="50.8" fill="#254066" width="10.4" height="40.8"/>
		<circle fill="#254066" cx="231.8" cy="100.8" r="8.4"/>
		<circle fill="#31578A" cx="231.7" cy="100.9" r="3.7"/>
		<path fill="#2A4975" d="M237.1,94.4h-10.4c-0.3,0-0.5-0.2-0.6-0.4l-0.9-2.3c-0.2-0.5,0.2-0.9,0.6-0.9H238c0.5,0,0.8,0.5,0.6,0.9
			l-0.9,2.3C237.7,94.3,237.4,94.4,237.1,94.4z"/>
	</g>
	<g>
		<path fill="#252F3B" d="M208.6,375.9L208.6,375.9c-0.9,0-1.7-0.7-1.7-1.7v-31.7c0-0.9,0.7-1.7,1.7-1.7l0,0c0.9,0,1.7,0.7,1.7,1.7
			v31.7C210.3,375.1,209.6,375.9,208.6,375.9z"/>
		<path fill="#252F3B" d="M216,375.9L216,375.9c-0.9,0-1.7-0.7-1.7-1.7v-31.7c0-0.9,0.7-1.7,1.7-1.7l0,0c0.9,0,1.7,0.7,1.7,1.7v31.7
			C217.7,375.1,216.9,375.9,216,375.9z"/>
		<path fill="#252F3B" d="M223.4,375.9L223.4,375.9c-0.9,0-1.7-0.7-1.7-1.7v-31.7c0-0.9,0.7-1.7,1.7-1.7l0,0c0.9,0,1.7,0.7,1.7,1.7
			v31.7C225,375.1,224.3,375.9,223.4,375.9z"/>
		<path fill="#252F3B" d="M230.7,375.9L230.7,375.9c-0.9,0-1.7-0.7-1.7-1.7v-31.7c0-0.9,0.7-1.7,1.7-1.7l0,0c0.9,0,1.7,0.7,1.7,1.7
			v31.7C232.4,375.1,231.7,375.9,230.7,375.9z"/>
		<path fill="#252F3B" d="M238.1,375.9L238.1,375.9c-0.9,0-1.7-0.7-1.7-1.7v-31.7c0-0.9,0.7-1.7,1.7-1.7l0,0c0.9,0,1.7,0.7,1.7,1.7
			v31.7C239.8,375.1,239,375.9,238.1,375.9z"/>
		<path fill="#252F3B" d="M245.5,375.9L245.5,375.9c-0.9,0-1.7-0.7-1.7-1.7v-31.7c0-0.9,0.7-1.7,1.7-1.7l0,0c0.9,0,1.7,0.7,1.7,1.7
			v31.7C247.1,375.1,246.4,375.9,245.5,375.9z"/>
		<path fill="#252F3B" d="M252.8,375.9L252.8,375.9c-0.9,0-1.7-0.7-1.7-1.7v-31.7c0-0.9,0.7-1.7,1.7-1.7l0,0c0.9,0,1.7,0.7,1.7,1.7
			v31.7C254.5,375.1,253.8,375.9,252.8,375.9z"/>
		<path fill="#252F3B" d="M260.2,375.9L260.2,375.9c-0.9,0-1.7-0.7-1.7-1.7v-31.7c0-0.9,0.7-1.7,1.7-1.7l0,0c0.9,0,1.7,0.7,1.7,1.7
			v31.7C261.9,375.1,261.1,375.9,260.2,375.9z"/>
		<path fill="#252F3B" d="M267.6,375.9L267.6,375.9c-0.9,0-1.7-0.7-1.7-1.7v-31.7c0-0.9,0.7-1.7,1.7-1.7l0,0c0.9,0,1.7,0.7,1.7,1.7
			v31.7C269.2,375.1,268.5,375.9,267.6,375.9z"/>
		<path fill="#252F3B" d="M274.9,375.9L274.9,375.9c-0.9,0-1.7-0.7-1.7-1.7v-31.7c0-0.9,0.7-1.7,1.7-1.7l0,0c0.9,0,1.7,0.7,1.7,1.7
			v31.7C276.6,375.1,275.9,375.9,274.9,375.9z"/>
	</g>
</g>
</svg>
