<?xml version="1.0" encoding="utf-8"?>
<!-- Generator: Adobe Illustrator 23.0.6, SVG Export Plug-In . SVG Version: 6.00 Build 0)  -->
<svg version="1.0" id="Layer_1" xmlns="http://www.w3.org/2000/svg" xmlns:xlink="http://www.w3.org/1999/xlink" x="0px" y="0px"
	 width="800px" height="600px" viewBox="0 0 800 600" enable-background="new 0 0 800 600" xml:space="preserve">
<g id="bounds">
	<rect x="-113.5" y="547.5" fill="none" width="1094" height="125"/>
	<rect x="-147.5" y="-663.5" fill="none" width="149" height="1211"/>
	<rect x="801.5" y="-663.5" fill="none" width="183" height="1211"/>
	<rect x="2" y="-606" fill="none" width="799" height="108"/>
</g>
<g>
	<rect fill="#D2ECED" width="801.3" height="565.9"/>
	<rect y="311.2" fill="#C9E8E9" width="801.3" height="254.8"/>
	<rect y="410.9" fill="#C5E5E5" width="801.3" height="155"/>
	<rect y="451.7" fill="#BCDEDF" width="801.3" height="114.3"/>
	<g>
		<path fill="#B4BCB4" d="M490.8,319.5h-25c-4.4,0-8,3.6-8,8v0h33.1V319.5z"/>
		<path fill="#BDC6BD" d="M305.5,464.8H121l1.3-1.3c8.3-8.3,19.5-12.9,31.2-12.9h10.8v-5.7c0-6.4,2.6-12.3,6.8-16.5
			c4.2-4.2,10-6.8,16.5-6.8c2.6,0,4.7,2.1,4.7,4.7v12.3c7.2,0,13-5.8,13-13V415c0-4.2,1.7-8.2,4.6-11.1l7.8-7.8
			c2.9-2.9,6.9-4.6,11.1-4.6h74.6l0.4,12.7L305.5,464.8z"/>
		<path fill="#C3CEC4" d="M295.8,410.1L264,441.9h-21.9c-1.3,0-2.5,0.5-3.4,1.4l-10.4,10.4v4.4h-7.9c-1.3,0-2.5,0.5-3.4,1.4
			l-2.3,2.3h83L295.8,410.1z"/>
		<path fill="#C3CEC4" d="M303.9,404.2h-70.8c-9,0-16.4,7.3-16.4,16.4v17c0,4.4-3.6,8-8,8h-27.1v7.6c0,2.7-2.2,5-5,5h-39
			c-3.7,0-6.7,3-6.7,6.7h-10l1.3-1.3c8.3-8.3,19.5-12.9,31.2-12.9h10.8v-5.7c0-6.4,2.6-12.3,6.8-16.5c4.2-4.2,10.1-6.9,16.6-6.8
			c2.6,0,4.6,2.2,4.6,4.7l0,12.3c7.2,0,13-5.8,13-13V415c0-4.2,1.7-8.2,4.6-11.1l7.8-7.8c2.9-2.9,6.9-4.6,11.1-4.6h74.6L303.9,404.2
			z"/>
		<path fill="#AEB4AD" d="M498.8,464.8H264.7c0-9.5,3.8-18.5,10.4-25.2l18.9-18.9v-23.1c0-9.3,3.7-18.2,10.3-24.8l41.3-41.3v-35.9
			c0-7.6,6.1-13.7,13.7-13.7h14.2c3.6,0,7.1,1.4,9.7,4l15.5,15.5c2.6,2.6,4,6.1,4,9.7v42.4l20.5-20.5c3.6-3.6,8.4-5.6,13.5-5.6h56.2
			l2.9,66.1L498.8,464.8z"/>
		<path fill="#B4B9B4" d="M416.7,337.3l-10.4,1.9c-1.6,0.3-3-1.1-2.6-2.7l1.1-4.8c0.3-1.1,1.3-1.9,2.5-1.8l8.9,1
			c1,0.1,1.8,0.9,2,1.9l0.4,2C418.8,335.8,417.9,337,416.7,337.3z"/>
		<circle fill="#B4B9B4" cx="421.3" cy="328.5" r="3.2"/>
		<path fill="#B4BCB4" d="M388.4,291.3h-21.1c-2.6,0-4.8,2.1-4.8,4.8v68.8c0,2.1-1.7,3.9-3.9,3.9h-15c-4.1,0-6.2,5-3.3,7.9l8,8
			c0.8,0.8,0.2,2.2-0.9,2.2h-36c-2.6,0-4.6,2.1-4.6,4.6v26.8L274,451.1v13.7h-9.3c0-9.5,3.8-18.5,10.4-25.2l18.9-18.9v-23.1
			c0-9.3,3.7-18.2,10.3-24.8l41.3-41.3v-35.9c0-7.6,6.1-13.7,13.7-13.7h14.2c3.6,0,7.1,1.4,9.7,4L388.4,291.3z"/>
		<path fill="#B4B9B4" d="M556.6,252.9v22.2h-50.4v-33.8c0-2.7,2.7-4.7,5.3-3.8l4.9,1.7l6,2c0.3,0.1,0.5,0.4,0.5,0.7v8.7
			c0,0.5,0.4,1,1,1c0.5,0,0.9-0.3,0.9-0.8l1.5-7.3c0.1-0.5,0.6-0.7,1-0.6l4.2,1.4c0.3,0.1,0.5,0.4,0.5,0.7v1.8
			c0,0.2,0.1,0.4,0.3,0.4l5,1.6c0.3,0.1,0.6-0.1,0.6-0.4v-0.9c0-0.5,0.5-0.9,1-0.7L556.6,252.9z"/>
		<path fill="#AAAFAB" d="M556.6,252.9v22.2h-40.8v-33.8c0-0.8,0.2-1.5,0.6-2.1l6,2c0.3,0.1,0.5,0.4,0.5,0.7v8.7c0,0.5,0.4,1,1,1
			c0.5,0,0.9-0.3,0.9-0.8l1.5-7.3c0.1-0.5,0.6-0.7,1-0.6l4.2,1.4c0.3,0.1,0.5,0.4,0.5,0.7v1.8c0,0.2,0.1,0.4,0.3,0.4l5,1.6
			c0.3,0.1,0.6-0.1,0.6-0.4v-0.9c0-0.5,0.5-0.9,1-0.7L556.6,252.9z"/>
		<path fill="#AAAFAB" d="M552.9,267.5v197.3H423.7l24-24v-30.3c0-15.9,12.9-28.8,28.8-28.8h11.3v-75.5c0-7.8,2.3-15,6.3-21.1
			c1-1.5,2.1-3,3.3-4.4c1.9-2.2,5.2-2.5,7.5-0.7l1.3,1v-7.8c5.9-3.7,12.9-5.8,20.3-5.8H552.9z"/>
		<path fill="#B4B9B4" d="M494.1,285.1v104.2c0,2.3-1.8,4.1-4.1,4.1h-15c-3.2,0-5.7,2.6-5.7,5.7v65.6h-45.5l24-24v-30.3
			c0-15.9,12.9-28.8,28.8-28.8h11.3v-75.5C487.8,298.4,490.1,291.1,494.1,285.1z"/>
		<path fill="#A3A7A3" d="M674.1,178.6l-0.3,1.7l-0.9,5.8L630,464.8H476.8c0-10,8.1-18,18-18h12l39.1-28l0.1-194.2
			c0-3.2,1.3-6.3,3.5-8.5l14.1-14.1c1.6-1.6,3.8-2.5,6.1-2.5h10.5c1.6,0,2.6-1.9,1.6-3.2l-0.9-1.3l0,0c-2.5-3.4-2.1-8.1,0.9-11.1
			l1.7-1.7c2.3-2.3,5.3-3.5,8.5-3.5H674.1z"/>
		<path fill="#B1B4B0" d="M569.7,199.4h6.7l-8.7,8.7v193.8c0,3.9-1.9,7.7-5.1,10l-61,44c-2.6,1.8-1.3,5.9,1.9,5.9H518l0.7,3h-41.9
			c0-10,8.1-18,18-18h12l39.1-28l0.1-194.2c0-3.2,1.3-6.3,3.5-8.5l14.1-14.1C565.3,200.3,567.4,199.4,569.7,199.4z"/>
		<path fill="#B1B4B0" d="M674.1,178.6l-0.3,1.7c-6.2,1.5-10.9,2.6-10.9,2.6h-70l-12.1,12.1l0,0c-2.5-3.4-2.1-8.1,0.9-11.1l1.7-1.7
			c2.3-2.3,5.3-3.5,8.5-3.5H674.1z"/>
		<path fill="#B1B4B0" d="M679,171.8h-57.2c-3.7,0-6.8,3-6.8,6.8v0h64V171.8z"/>
		<path fill="#A6AAA6" d="M740.2,119.3l-39.8,344.2c-0.1,0.7-0.7,1.2-1.4,1.2h-98.8c-0.7,0-1.3-0.6-1.4-1.3l-0.1-1.7h-41l37.3-50.4
			l-6.3-85.1c-0.4-5.7,0.8-11.3,3.6-16.3L685,143.3c0.1-0.2,0.2-0.5,0.2-0.7c0-0.7-0.6-1.4-1.4-1.4c-7.5,0-13.6-6.1-13.6-13.6v-2
			c0-4.4,3.5-7.9,7.9-7.9h60.8C739.6,117.8,740.2,118.5,740.2,119.3z"/>
		<path fill="#B1B4B0" d="M747.3,109.3v11.9h-2v3.5h-33.4c-2.9,0-5.4,1.6-6.7,4.2l-78.8,166.6c-1.5,3.1-1.5,6.7-0.1,9.8l6.9,45.1
			c0.5,3.2-2,6-5.2,6h-8.8c-4.3,0-7.7,3.8-7.2,8l-0.6,100.1h-11.2c-0.7,0-1.3-0.6-1.4-1.3l-0.1-1.7h-41l37.3-50.4l-0.1-1.8
			l-6.1-83.4c-0.4-5.7,0.8-11.3,3.6-16.3L685,143.3c0.1-0.2,0.2-0.5,0.2-0.7c0-0.7-0.6-1.4-1.4-1.4c-7.5,0-13.6-6.1-13.6-13.6v-2
			c0-4.4,3.5-7.9,7.9-7.9h11.1l5.7-12.4c1.7-3.7,5.8-5.7,9.8-4.9L747.3,109.3z"/>
		<path fill="#B4B9B4" d="M494.1,317.2l-18.5-9.4c-0.8-0.3-1.3-1-1.3-1.8V301c0-1.1,0.9-1.9,1.9-1.9h18L494.1,317.2z"/>
		<path fill="#AAAFAB" d="M515.8,323.1l-32.7-15.4c-0.8-0.3-1.3-1-1.3-1.8V301c0-1.1,0.9-1.9,1.9-1.9h32V323.1z"/>
	</g>
	<path fill="#A6AAA6" d="M801.3,67.6v397.7H630.5l0.9-3.5l24.3-93.1c1.4-5.5,4.9-10.2,9.8-13.1l22.9-13.8L749,77.3
		c1.3-5.7,6.3-9.7,12.1-9.7h12.9c2.6,0,4.8,2.1,4.8,4.8v2c0,1.7,2.1,2.5,3.2,1.2c1.8-2.1,4-4.6,5.3-6.2c0.9-1.1,2.3-1.7,3.7-1.7
		H801.3z"/>
	<path fill="#B4B9B4" d="M777.3,288.7v173.1H631.4l24.3-93.1c1.4-5.5,4.9-10.2,9.8-13.1l22.9-13.8L749,77.3
		c1.3-5.7,6.3-9.7,12.1-9.7h12.4l-40.5,214c-0.8,4.4,3.4,8,7.6,6.6l24.1-8.4C770.9,277.7,777.3,282.2,777.3,288.7z"/>
	<g>
		<rect y="461.8" fill="#E8EADC" width="801.3" height="139.2"/>
		<rect y="461.8" fill="#F0F1E3" width="801.3" height="6.8"/>
		<rect y="576.5" fill="#E2E4D6" width="801.3" height="24.5"/>
		<rect y="593.2" fill="#DEDFD1" width="801.3" height="7.8"/>
	</g>
	<path fill="#B4BCB4" d="M333.3,398.9h-15.6c-1.3,0-2.3-1-2.3-2.3l0,0c0-1.3,1-2.3,2.3-2.3h15.6c1.3,0,2.3,1,2.3,2.3l0,0
		C335.5,397.9,334.5,398.9,333.3,398.9z"/>
	<g>
		<path fill="#A6AAA6" d="M801.3,391.6v79h-44.1c-3.2,0-5.9-2.6-5.9-5.9V458c0-1.3,0.4-2.6,1.2-3.6L801.3,391.6z"/>
		<path fill="#9A9F9A" d="M801.3,393.9v76.7h-35c-3.2,0-5.9-2.6-5.9-5.9V458c0-1.3,0.4-2.6,1.2-3.6L801.3,393.9z"/>
	</g>
	<circle fill="#CFD3CE" cx="737.5" cy="463.2" r="3.6"/>
	<path fill="#CFD3CE" d="M664.5,461.8c0-2.2,1.8-4,4-4s4,1.8,4,4H664.5z"/>
	<circle fill="#CFD3CE" cx="658" cy="460.2" r="1.6"/>
	<circle fill="#CFD3CE" cx="663.7" cy="467.6" r="1.6"/>
	<path fill="#D7DFD6" d="M552,461.8h-20.2v0c0-5.6,4.5-10.1,10.1-10.1h0C547.5,451.7,552,456.2,552,461.8L552,461.8z"/>
	<path fill="#E1EAE0" d="M536.5,461.8H523l0,0c0-3.7,3-6.7,6.7-6.7h0C533.5,455.1,536.5,458.1,536.5,461.8L536.5,461.8z"/>
	<path fill="#E1EAE0" d="M503.5,461.8h-6.7l0,0c0-1.9,1.5-3.4,3.4-3.4l0,0C502,458.4,503.5,459.9,503.5,461.8L503.5,461.8z"/>
	<circle fill="#E1EAE0" cx="490.1" cy="460.6" r="1.2"/>
	<circle fill="#E1EAE0" cx="515.2" cy="460.6" r="1.2"/>
	<path fill="#BABEBA" d="M546,343.1h-1.1c-1.7,0-3.1-1.2-3.3-2.9l-4.3-30.4c-0.3-2,1.3-3.8,3.3-3.8h5.4V343.1z"/>
	<path fill="#A3A7A3" d="M567.7,280.6l-8.1-27.4c-0.7-2.3-0.6-4.8,0.3-7l7.8-19.8l3.5,48.8L567.7,280.6z"/>
	<path fill="#BABEBA" d="M571.5,293.3h-7.6c-0.7,0-1.3-0.6-1.3-1.3v-1.5c0-0.7,0.6-1.3,1.3-1.3h7.6c0.7,0,1.3,0.6,1.3,1.3v1.5
		C572.8,292.8,572.2,293.3,571.5,293.3z"/>
	<path fill="#BABEBA" d="M570.9,309.4H569c-0.8,0-1.5-0.5-1.8-1.2l-3.5-8.2c-0.5-1.3,0.4-2.7,1.8-2.7h5.3c1.1,0,1.9,0.9,1.9,1.9v8.2
		C572.8,308.6,571.9,309.4,570.9,309.4z"/>
	<path fill="#C7CBC7" d="M528.6,431.1l12.4-8.9h-9.2c-1.2,0-2.3,0.7-2.8,1.8l-1.5,3.3C526.9,428.7,527.4,430.3,528.6,431.1
		L528.6,431.1z"/>
	<circle fill="#C7CBC7" cx="540.2" cy="419.5" r="1.6"/>
	<path fill="#C7CBC7" d="M504.5,446.7h-8.4l4.9-3.2c1.1-0.7,2.6-0.2,3,1.1L504.5,446.7z"/>
	<path fill="#B4B9B4" d="M641.7,422.3l3.1-36.2c0.1-1.3,1.2-2.4,2.6-2.4h5L641.7,422.3z"/>
	<path fill="#B4B9B4" d="M696.8,305.2l-2.8-27.6c-0.3-2.6,1.1-5,3.5-6.1l7.9-3.7L696.8,305.2z"/>
	<polygon fill="#BABEBA" points="595.6,413.8 571.2,461.8 557.6,461.8 594.9,411.3 594.7,409.6 	"/>
	<path fill="#B1B4B0" d="M573.3,259.7l-2.9-11.3c-0.1-0.3,0-0.6,0.1-0.9l8.4-19.7c0.2-0.5,0.7-0.8,1.2-0.8h14.5c1.5,0,2.4,1.7,1.6,3
		l-20.5,30.2C575.1,261.1,573.6,260.8,573.3,259.7z"/>
	<g>
		<path fill="#EEBDBC" d="M681.7,497.7h3.9c1.2,0,2.2,1,2.2,2.2l0,0h-8.4l0,0C679.5,498.7,680.5,497.7,681.7,497.7z"/>
		<path fill="#FBFBEF" d="M760.6,495.5h-45.7c-2.5,0-4.4,2-4.4,4.4l0,0H765l0,0C765,497.5,763.1,495.5,760.6,495.5z"/>
		<path fill="#EEBDBC" d="M753,497.7h-37.9c-1.2,0-2.2,1-2.2,2.2l0,0h42.3l0,0C755.2,498.7,754.2,497.7,753,497.7z"/>
		<path fill="#FBFBEF" d="M697.4,496.4L697.4,496.4c-1.9,0-3.5,1.6-3.5,3.5v0.1h7v-0.1C701,498,699.4,496.4,697.4,496.4z"/>
	</g>
	<polyline fill="none" stroke="#B1B4B0" stroke-width="3.005" stroke-miterlimit="10" points="628,280.6 659.7,260.4 677.1,222.8
		"/>
	<polygon fill="#B1B4B0" points="661.8,259.6 651.6,283.2 621.9,299.1 633.9,276.8 	"/>
	<g>
		<polyline fill="none" stroke="#B4B9B4" stroke-width="2.4193" stroke-miterlimit="10" points="754.5,214.4 747.1,258.2
			732.9,273.1 		"/>
		<polyline fill="none" stroke="#B4B9B4" stroke-width="2.4193" stroke-miterlimit="10" points="750.8,236.4 756.3,248 752.7,271.9
					"/>
		<polygon fill="#B4B9B4" points="753.7,265.3 747.2,257.7 750.8,239.5 753.6,241.5 756.3,248 		"/>
	</g>
	<path fill="#A6AAA6" d="M778.4,314.1l-9,24.4c-0.6,1.5-0.9,3.2-0.9,4.8V372c0,0.9,1.3,1.2,1.7,0.4l8.2-15.9V314.1z"/>
	<polygon fill="#B4B9B4" points="493.1,389.4 509.2,373.3 509.2,326.3 492.6,342.8 	"/>
	<line fill="none" stroke="#B4B9B4" stroke-width="3.005" stroke-miterlimit="10" x1="509.2" y1="313.3" x2="509.2" y2="385.1"/>
	<path fill="#C1C6C1" d="M650,421.3l10.9-49c0.9-3.9,3.2-7.3,6.6-9.5l11.4-7.5c1.2-0.8,2.7,0.3,2.4,1.7l-5.5,24.5
		c-0.9,4-3.2,7.5-6.5,9.8l-10.2,7.3l-5.5,21.1c0,0.1-0.1,0.3-0.2,0.4l-2.1,2C650.7,422.6,649.8,422.1,650,421.3z"/>
	<path fill="#FBFBEF" d="M26.2,461.8H0v-3.9h22.3C24.5,457.9,26.2,459.6,26.2,461.8L26.2,461.8z"/>
	<path fill="#FBFBEF" d="M44.4,461.8H23v-1.9h19.5C43.5,459.8,44.4,460.7,44.4,461.8L44.4,461.8z"/>
	<circle fill="#FBFBEF" cx="36" cy="452.1" r="0.8"/>
	<circle fill="#FBFBEF" cx="27.5" cy="455.1" r="1.2"/>
	<circle fill="#FBFBEF" cx="12.3" cy="444.4" r="0.9"/>
	<g>
		<g>
			<path fill="#FBFBEF" d="M79.2,539.6H49.3c-1.5,0-2.7,1.2-2.7,2.7l0,0h35.4l0,0C81.9,540.8,80.7,539.6,79.2,539.6z"/>
			<g>
				<g>
					<path fill="#FBFBEF" d="M50.6,554.9h73.1c2.7,0,4.9,2.2,4.9,4.9l0,0H45.7l0,0C45.7,557.1,47.9,554.9,50.6,554.9z"/>
					<path fill="#EEBDBC" d="M50.6,557.4h48.5c1.3,0,2.4,1.1,2.4,2.4l0,0H48.1l0,0C48.1,558.4,49.2,557.4,50.6,557.4z"/>
				</g>
				<path fill="#FBFBEF" d="M155.6,559.8h-30.9v-2.4h28.5C154.5,557.4,155.6,558.5,155.6,559.8L155.6,559.8z"/>
			</g>
			<path fill="#FBFBEF" d="M23.2,557.4h8.2c1.3,0,2.4,1.1,2.4,2.4l0,0H20.7l0,0C20.7,558.5,21.8,557.4,23.2,557.4z"/>
		</g>
		<circle fill="#FBFBEF" cx="91.7" cy="537" r="2"/>
		<circle fill="#FBFBEF" cx="78.5" cy="530" r="1.3"/>
		<circle fill="#FBFBEF" cx="20.7" cy="549.4" r="1.3"/>
		<circle fill="#FBFBEF" cx="134.6" cy="543.6" r="1.3"/>
	</g>
	<g>
		<path fill="#E5F4F7" d="M19.1,392.8h27.5c0.9,0,1.6-0.7,1.6-1.6l0,0c0-0.9-0.7-1.6-1.6-1.6H19.1c-0.9,0-1.6,0.7-1.6,1.6l0,0
			C17.5,392.1,18.2,392.8,19.1,392.8z"/>
		<path fill="#E5F4F7" d="M22,389.7h16.5l0,0c0-1.7-1.4-3.1-3.1-3.1H25.1C23.4,386.6,22,388,22,389.7L22,389.7z"/>
	</g>
	<g>
		<g>
			<path fill="#ECF6F9" d="M634.8,143.5h-62.4c-0.9,0-1.6-0.7-1.6-1.6l0,0c0-0.9,0.7-1.6,1.6-1.6h62.4c0.9,0,1.6,0.7,1.6,1.6l0,0
				C636.4,142.7,635.7,143.5,634.8,143.5z"/>
			<path fill="#ECF6F9" d="M631.7,140.3h-51.2l0,0c0-1.8,1.4-3.2,3.2-3.2h44.8C630.3,137.1,631.7,138.5,631.7,140.3L631.7,140.3z"/>
			<path fill="#ECF6F9" d="M602,137.1c0-1.8,1.4-3.2,3.2-3.2h17.1c1.8,0,3.2,1.4,3.2,3.2H602z"/>
		</g>
		<path fill="#ECF6F9" d="M510.9,184.3c0-1.8,1.4-3.2,3.2-3.2h17.1c1.8,0,3.2,1.4,3.2,3.2H510.9z"/>
	</g>
	<path fill="#E2E4D6" d="M801.3,567.6h-79.6c-4.9,0-8.9,4-8.9,8.9l0,0h88.5V567.6z"/>
	<g>
		<path fill="#FBFBEF" d="M801.3,525.4v4.1h-21.1c0-0.8,0.2-1.5,0.6-2.1c0.2-0.3,0.4-0.6,0.7-0.9c0.8-0.7,1.8-1.2,2.9-1.2H801.3z"/>
		<path fill="#FBFBEF" d="M770.6,527.5h17.2v2.1h-19.3l0,0C768.5,528.4,769.4,527.5,770.6,527.5z"/>
	</g>
	<g>
		<path fill="#D0D5D1" d="M708.5,458.1l0,0.6c0,1.7-1.4,3.1-3.1,3.1l-23.6,0c-1.2,0-2.4-0.7-2.9-1.9l-1.3-3
			c-0.7-1.6,0.1-3.5,1.7-4.2l4.2-1.7l9.9-4.1c1.2-0.5,2.5-0.2,3.4,0.7l6.3,6.3c0.6,0.6,1.4,0.9,2.2,0.9
			C707.1,454.9,708.5,456.3,708.5,458.1z"/>
		<path fill="#C1C6C1" d="M708.5,458.1l0,0.6c0,1.7-1.4,3.1-3.1,3.1l-7,0c1.1-2.6,0.5-5.6-1.4-7.7l-1.5-1.6
			c-1.7-1.8-4.1-2.7-6.5-2.3l-5.5,0.9l9.9-4.1c1.2-0.5,2.5-0.2,3.4,0.7l6.3,6.3c0.6,0.6,1.4,0.9,2.2,0.9
			C707.1,454.9,708.5,456.3,708.5,458.1z"/>
	</g>
</g>
</svg>
