<?xml version="1.0" encoding="utf-8"?>
<!-- Generator: Adobe Illustrator 23.0.6, SVG Export Plug-In . SVG Version: 6.00 Build 0)  -->
<svg version="1.0" xmlns="http://www.w3.org/2000/svg" xmlns:xlink="http://www.w3.org/1999/xlink" x="0px" y="0px"
	 width="800px" height="600px" viewBox="0 0 800 600" enable-background="new 0 0 800 600" xml:space="preserve">
<g id="background">
	<g>
		<rect y="0.6" fill="#152129" width="799.4" height="509.4"/>
		<rect y="510" fill="#152129" width="799.4" height="90.2"/>
		<rect x="96.4" y="0.6" fill="#172730" width="606.7" height="509.4"/>
		<rect x="96.4" y="510" fill="#172730" width="606.7" height="90.2"/>
		<rect x="267.8" y="0.6" fill="#1B2C36" width="244.7" height="509.4"/>
		<rect x="267.8" y="510" fill="#1B2C36" width="244.7" height="90.2"/>
	</g>
	<g>
		<path fill="#101C20" d="M736.6,47.6L736.6,47.6l0-47.1h6v41.1C742.7,44.9,740,47.6,736.6,47.6z"/>

			<rect x="531.7" y="0.5" transform="matrix(-1 -4.453161e-11 4.453161e-11 -1 1068.9374 431.7067)" fill="#131F26" width="5.6" height="430.7"/>

			<rect x="547.7" y="0.5" transform="matrix(-1 -4.519641e-11 4.519641e-11 -1 1102.5891 431.7067)" fill="#131F26" width="7.1" height="430.7"/>

			<rect x="562.1" y="0.5" transform="matrix(-1 -4.494106e-11 4.494106e-11 -1 1131.2827 431.7067)" fill="#152129" width="7.1" height="430.7"/>

			<rect x="576.4" y="0.5" transform="matrix(-1 -4.494106e-11 4.494106e-11 -1 1159.9763 431.7067)" fill="#152129" width="7.1" height="430.7"/>

			<rect x="590.8" y="0.5" transform="matrix(-1 -4.519641e-11 4.519641e-11 -1 1188.6699 431.7067)" fill="#152129" width="7.1" height="430.7"/>

			<rect x="619.5" y="0.5" transform="matrix(-1 -4.494106e-11 4.494106e-11 -1 1246.0573 431.7067)" fill="#131F26" width="7.1" height="430.7"/>

			<rect x="634.6" y="0.5" transform="matrix(-1 -4.800528e-11 4.800528e-11 -1 1276.351 431.7067)" fill="#101C20" width="7.1" height="430.7"/>

			<rect x="649.8" y="0.5" transform="matrix(-1 -4.519641e-11 4.519641e-11 -1 1306.6448 431.7067)" fill="#101C20" width="7.1" height="430.7"/>

			<rect x="665.9" y="0.5" transform="matrix(-1 -2.175472e-11 2.175472e-11 -1 1346.4406 431.7067)" fill="#101C20" width="14.7" height="430.7"/>

			<rect x="751.9" y="0.5" transform="matrix(-1 -4.366430e-11 4.366430e-11 -1 1511.0154 431.7067)" fill="#101C20" width="7.1" height="430.7"/>

			<rect x="778.1" y="0.5" transform="matrix(-1 -4.590651e-11 4.590651e-11 -1 1564.2993 431.7067)" fill="#101C20" width="8.1" height="430.7"/>
		<g>
			<rect x="302.2" y="0.5" fill="#142129" width="7.1" height="430.7"/>
			<rect x="332.9" y="0.5" fill="#142129" width="22.5" height="430.7"/>
			<rect x="362.7" y="0.5" fill="#16252E" width="7.1" height="430.7"/>
			<rect x="377.6" y="0.5" fill="#16252E" width="7.1" height="430.7"/>
			<path fill="#16252E" d="M392.5,431.2h7.1V96.5l-4.4,3.7c-1.8,1.5-2.8,3.7-2.8,6V431.2z"/>
			<path fill="#142129" d="M399.6,99.4h-2.8V90c0-0.8,0.6-1.4,1.4-1.4h0c0.8,0,1.4,0.6,1.4,1.4V99.4z"/>
			<rect x="407.4" y="0.5" fill="#16252E" width="7.1" height="430.7"/>
			<rect x="422.2" y="0.5" fill="#16252E" width="7.1" height="430.7"/>
			<rect x="437.1" y="0.5" fill="#16252E" width="7.1" height="430.7"/>
			<rect x="452" y="0.5" fill="#16252E" width="7.1" height="430.7"/>
			<rect x="318.5" y="0.5" fill="#142129" width="4.2" height="430.7"/>
			<path fill="#142129" d="M296.4,0.5v430.7h-9.9V176.9c0-3.5,0.5-6.9,1.5-10.3l1.5-5V0.5H296.4z"/>
			<path fill="#131F26" d="M273.4,431.2h5.6V110.3c0-1.7-1.4-3.1-3.1-3.1h-2.5V431.2z"/>
			<path fill="#131F26" d="M254.7,0.5v430.7h-41.9v-136c0-3.1,0.7-6.2,2.1-9l2.9-5.7v-59.8l-2.9-5.7c-1.4-2.8-2.1-5.9-2.1-9V0.5
				H254.7z"/>
			<rect x="198.5" y="0.5" fill="#131F26" width="7.1" height="430.7"/>
			<rect x="184.1" y="0.5" fill="#131F26" width="7.1" height="430.7"/>
			<rect x="169" y="0.5" fill="#101C20" width="7.1" height="430.7"/>
			<rect x="153.8" y="0.5" fill="#101C20" width="7.1" height="430.7"/>
			<rect x="123.5" y="0.5" fill="#101C20" width="7.1" height="430.7"/>
			<polygon fill="#101C20" points="115.5,0.5 115.5,431.2 93.2,431.2 93.2,286.2 96.3,276.2 96.3,239.9 93.2,229.9 93.2,0.5 			"/>
			<path fill="#101C20" d="M118.8,431.2h-3.3v-59l2,6.8c0.9,3.1,1.3,6.3,1.3,9.4V431.2z"/>
			<path fill="#101C20" d="M96.3,271.3L96.3,271.3c-0.9,0-1.7-0.8-1.7-1.7v-2.9c0-0.9,0.8-1.7,1.7-1.7h0V271.3z"/>
			<rect x="70.8" y="0.5" fill="#101C20" width="14.4" height="430.7"/>
			<rect x="47.8" y="0.5" fill="#101C20" width="7.1" height="430.7"/>
			<rect x="24.5" y="0.5" fill="#101C20" width="8.1" height="430.7"/>
			<path fill="none" stroke="#101C20" stroke-width="4.9867" stroke-miterlimit="10" d="M39.7,426.3c0.2-1,0-87.9,0-110.4
				c0-3.4,1.3-6.6,3.7-9l7.2-7.2"/>
		</g>
		<rect x="138.7" y="172.6" fill="#101C20" width="7.1" height="256.4"/>
		<path fill="#101C20" d="M140.1,161L140.1,161c-0.8,0-1.5,0.7-1.5,1.5v106.8h2.9V162.4C141.6,161.6,140.9,161,140.1,161z"/>
		<path fill="#131F26" d="M274.8,70.5L274.8,70.5c-0.8,0-1.4,0.6-1.4,1.4v40.9h2.8V71.9C276.2,71.1,275.6,70.5,274.8,70.5z"/>
		<path fill="#142129" d="M473.1,0.5v430.7h-9.9V176.9c0-3.5,0.5-6.9,1.5-10.3l1.5-5V0.5H473.1z"/>
		<g>

				<rect x="604.5" y="256.2" transform="matrix(-1 -4.494106e-11 4.494106e-11 -1 1216.0466 687.4339)" fill="#101C20" width="7.1" height="175"/>
			<path fill="#101C20" d="M605.8,240.4L605.8,240.4c-0.7,0-1.3,0.6-1.3,1.3v15.1h2.6v-15.1C607,241,606.5,240.4,605.8,240.4z"/>
			<g>
				<path fill="#131F26" d="M610.8,273.1c-0.6,0-1-0.4-1-1v-63c0-4.3,1.7-8.3,4.7-11.4l23.6-23.6v-25c0-0.6,0.4-1,1-1s1,0.4,1,1V175
					l-24.2,24.2c-2.7,2.7-4.1,6.2-4.1,10v63C611.8,272.6,611.3,273.1,610.8,273.1z"/>
			</g>
			<g>
				<g>
					<path fill="#131F26" d="M616.2,178.3v20h-2v-20c0-7.6-3-14.8-8.3-20.1l-24.6-24.6v-2.8l26,26
						C613.1,162.5,616.2,170.2,616.2,178.3z"/>
				</g>
			</g>
			<path fill="#2A3B2D" d="M635.6,162.3c1.1,0.5,2.3,0.3,3.2-0.3c-0.1-1.1-0.8-2.1-1.9-2.6c-1.1-0.5-2.3-0.3-3.2,0.3
				C633.8,160.8,634.5,161.8,635.6,162.3z"/>
			<path fill="#2A3B2D" d="M640.9,147.5c-0.1,1.4-0.9,2.6-2,3.2c-1.1-0.7-1.8-2-1.7-3.4c0.1-1.4,0.9-2.6,2.1-3.2
				C640.3,144.8,641,146.1,640.9,147.5z"/>
			<path fill="#2A3B2D" d="M639.6,153.5c-0.3,0.5-0.3,1.2-0.1,1.7c0.6,0,1.2-0.3,1.5-0.8c0.3-0.5,0.3-1.2,0.1-1.7
				C640.5,152.7,640,153,639.6,153.5z"/>
		</g>
		<path fill="#101C20" d="M739.7,0.5v420.2h-49.2V235.6c0-1.2,0.2-2.5,0.7-3.6l3.2-8.2v-48.3l-3.2-8.2c-0.5-1.2-0.7-2.4-0.7-3.6V0.5
			H739.7z"/>
		<line fill="none" stroke="#101C20" stroke-width="9.9734" stroke-miterlimit="10" x1="733.3" y1="225.6" x2="787.3" y2="171.6"/>
		<path fill="#152129" d="M730.5,42.1L730.5,42.1l0-41.6h5.5v36.1C736,39.7,733.6,42.1,730.5,42.1z"/>
		<path fill="#101C20" d="M739.7,306.4L739.7,306.4l0-46.7h0c1.7,0,3,1.4,3,3v40.7C742.7,305,741.3,306.4,739.7,306.4z"/>
		<path fill="#131F26" d="M254.7,371.2l7.5,15.8c1.2,2.5,1.8,5.3,1.8,8.1v14.1l12.7,12.7v1.6h-23.7v-52.3H254.7z"/>
		<path fill="#101C20" d="M244.2,423.5h-5.6v-57c0-1.5,1.2-2.8,2.8-2.8h0c1.5,0,2.8,1.2,2.8,2.8V423.5z"/>
		<path fill="#101C20" d="M241.4,374.2h-2.8v-19.1c0-0.8,0.6-1.4,1.4-1.4h0c0.8,0,1.4,0.6,1.4,1.4V374.2z"/>
		<path fill="#101C20" d="M238.6,395.6l-10,10c-0.6,0.6-1,1.5-1,2.4v12.7h-6.1c-1.9,0-3.4,1.5-3.4,3.4l0,0h13v-10h8.8L238.6,395.6z"
			/>
		<g>
			<path fill="#131F26" d="M526.6,198.4v232.9h-46.7V306.6c0-3.1,0.7-6.2,2.1-9l2.9-5.8v-33.2l-2.9-5.8c-1.4-2.8-2.1-5.9-2.1-9
				v-45.6H526.6z"/>
			<path fill="#131F26" d="M479.9,342.6l-11.7,17.2h-7.3c-8.2,0-16,3.2-21.8,9l-33.4,33.4c-1.2,1.2-1.9,2.9-1.9,4.6v9.1h-13.3
				c-1.7,0-3,1.4-3,3l0,0h23.5v-9.3l21.6-21.6H477v19.6c0,2.7,1,5.3,2.8,7.2l0,0V342.6z"/>
			<path fill="none" stroke="#131F26" stroke-width="1.9947" stroke-miterlimit="10" d="M384,410.8h-5.8c-2.1,0-4.1,0.8-5.6,2.3
				l-7.2,7.2"/>
			<g>
				<path fill="#131F26" d="M427.7,412.8h-42.6c-0.6,0-1-0.5-1-1v-2c0-0.6,0.5-1,1-1h42.6V412.8z"/>
			</g>
			<g>
				<path fill="#131F26" d="M443.8,413.8l-15.1,0c-0.6,0-1-0.5-1-1v-4c0-0.6,0.5-1,1-1h15.5c2.4,0,4.7-1,6.4-2.9
					c1.4-1.6,2.1-3.7,2.1-5.9v-22.3h6v22.6c0,4.3-1.9,8.4-5.3,11.2C450.6,412.7,447.2,413.8,443.8,413.8z"/>
			</g>
			<path fill="none" stroke="#131F26" stroke-width="1.9947" stroke-linecap="round" stroke-miterlimit="10" d="M448.1,134.1v-10.8
				c0-1.5-0.5-3-1.5-4.2l-9.4-11.3"/>
			<path fill="none" stroke="#131F26" stroke-width="3.9893" stroke-linecap="round" stroke-miterlimit="10" d="M486.1,218.6
				L450,182.5c-1.2-1.2-1.9-2.9-1.9-4.7v-43.7"/>

				<line fill="none" stroke="#131F26" stroke-width="1.9947" stroke-linecap="round" stroke-miterlimit="10" x1="448.1" y1="159.6" x2="474.1" y2="133.5"/>
			<g>
				<path fill="none" stroke="#131F26" stroke-width="2.992" stroke-linecap="round" stroke-miterlimit="10" d="M496.3,131.3v-25.9
					c0-2.7-1.1-5.3-3-7.2l-26.6-26.6"/>

					<line fill="none" stroke="#131F26" stroke-width="4.9867" stroke-linecap="round" stroke-miterlimit="10" x1="496.3" y1="204.1" x2="496.3" y2="131.3"/>

					<line fill="none" stroke="#131F26" stroke-width="2.992" stroke-linecap="round" stroke-miterlimit="10" x1="473.1" y1="64.1" x2="466.1" y2="57.1"/>

					<line fill="none" stroke="#131F26" stroke-width="1.9947" stroke-linecap="round" stroke-miterlimit="10" x1="473.1" y1="52.9" x2="466.1" y2="45.9"/>

					<line fill="none" stroke="#131F26" stroke-width="1.9947" stroke-linecap="round" stroke-miterlimit="10" x1="473.1" y1="41.6" x2="466.1" y2="34.6"/>
				<path fill="#2A3B2D" d="M475.5,38.1c-0.9,1.1-2.3,1.6-3.5,1.3c-0.5-1.2-0.3-2.7,0.6-3.7c0.9-1.1,2.3-1.6,3.6-1.3
					C476.5,35.6,476.4,37,475.5,38.1z"/>
				<path fill="#2A3B2D" d="M464.9,54.4c1.2,0.7,1.9,2,1.9,3.3c-1.1,0.7-2.6,0.7-3.8,0c-1.2-0.7-1.9-2-1.9-3.3
					C462.2,53.7,463.7,53.7,464.9,54.4z"/>
				<path fill="#131F26" d="M522.2,83.7v26.1l3.5,8.1c0.5,1.3,0.8,2.6,0.8,4v76.5h-15.5V43.2c0-0.9,0.7-1.6,1.6-1.6l0,0
					c0.9,0,1.6,0.7,1.6,1.6v24h4.6V0.5h7.7v71.1c0,1.4-0.3,2.7-0.8,4L522.2,83.7z"/>
				<path fill="#131F26" d="M511.1,97.8L511.1,97.8c-1.2,0-2.2-1-2.2-2.2V73.9c0-1.2,1-2.2,2.2-2.2h0V97.8z"/>
			</g>
			<path fill="#131F26" d="M529.1,395.1h-8.9v36.1h6v-30.1h2.9c6,0,10.9,4.9,10.9,10.9v19.2h6V412
				C546,402.7,538.4,395.1,529.1,395.1z"/>
		</g>
		<path fill="#131F26" d="M479.9,190.9L479.9,190.9l0,10.5h4.7v-5.8C484.5,193,482.4,190.9,479.9,190.9z"/>
		<rect x="496.2" y="187.9" fill="#131F26" width="16.3" height="12.5"/>
		<g>
			<path fill="#131F26" d="M254,241.2l-4.9-4.9l11-11v-5.1c0-0.8,0.7-1.5,1.5-1.5h3.9c0.8,0,1.5,0.7,1.5,1.5v8L254,241.2z"/>
			<line fill="none" stroke="#131F26" stroke-width="3.9893" stroke-miterlimit="10" x1="263.5" y1="218.6" x2="263.5" y2="191.1"/>
			<line fill="none" stroke="#131F26" stroke-width="1.9947" stroke-miterlimit="10" x1="263.5" y1="191.1" x2="263.5" y2="163.5"/>
			<line fill="none" stroke="#131F26" stroke-width="1.9947" stroke-miterlimit="10" x1="264" y1="176.1" x2="269.1" y2="171"/>
		</g>
		<line fill="none" stroke="#131F26" stroke-width="4.9867" stroke-miterlimit="10" x1="152.5" y1="420.7" x2="138.7" y2="429"/>
		<line fill="none" stroke="#131F26" stroke-width="4.9867" stroke-miterlimit="10" x1="167.5" y1="411.8" x2="152.5" y2="420.7"/>
		<polyline fill="none" stroke="#131F26" stroke-width="7.9787" stroke-miterlimit="10" points="172.5,382.7 172.5,408.8
			167.5,411.8 		"/>
		<polyline fill="none" stroke="#131F26" stroke-width="9.9734" stroke-miterlimit="10" points="185.8,360.2 172.5,371.2
			172.5,382.7 		"/>
		<g>
			<polygon fill="#131F26" points="190.2,365.6 181.3,354.8 213.1,328.4 222.1,359.6 			"/>
		</g>
	</g>
	<g>
		<path fill="#8DCACA" d="M726,428.3H551.9c-1.6,0-2.9,1.3-2.9,2.9v0h177V428.3z"/>
		<path fill="#8DCACA" d="M613.6,429.7h-87.1c-0.8,0-1.5,0.7-1.5,1.5v0h88.5V429.7z"/>
		<path fill="#8DCACA" d="M584.3,431.2h-26.4c2.9-4.2,7.7-7,13.2-7c2,0,4,0.4,5.7,1.1C579.9,426.4,582.5,428.5,584.3,431.2z"/>
		<path fill="#8DCACA" d="M617.3,431.2h-43.1c0.6-2.1,1.5-4.1,2.6-5.9c4-6.3,11-10.5,18.9-10.5c7.2,0,13.6,3.4,17.7,8.7
			C615.2,425.8,616.6,428.4,617.3,431.2z"/>
		<path fill="#8DCACA" d="M647.3,431.2h-37.1c0.5-2.8,1.6-5.5,3.2-7.7c3.4-4.8,9-7.9,15.3-7.9c4.7,0,9.1,1.8,12.4,4.7
			C644.4,423,646.6,426.9,647.3,431.2z"/>
		<path fill="#8DCACA" d="M680.9,431.2h-42.7c0-4,1.1-7.7,3-10.9c3.7-6.2,10.6-10.4,18.4-10.4c3.3,0,6.4,0.7,9.2,2.1
			C675.9,415.4,680.9,422.7,680.9,431.2z"/>
		<path fill="#8DCACA" d="M741,431.2h-78c0.2-7,2.2-13.6,5.7-19.3c6.9-11.2,19.2-18.7,33.3-18.7C723.2,393.2,740.5,410.1,741,431.2z
			"/>
		<circle fill="#8DCACA" cx="613.4" cy="411.5" r="3.9"/>
		<circle fill="#8DCACA" cx="561.3" cy="420.5" r="2"/>
		<circle fill="#8DCACA" cx="565.9" cy="414.4" r="1.3"/>
		<circle fill="#8DCACA" cx="509.4" cy="431.2" r="1.3"/>
	</g>
	<rect x="0.3" y="431.2" fill="#7FB5B5" width="799.4" height="14.8"/>
	<rect x="0.3" y="437" fill="#659090" width="799.4" height="73"/>
	<g>
		<g>
			<path fill="#80BABA" d="M660.8,455.6H448l0,0c0-1.2,1-2.2,2.2-2.2h210.6V455.6z"/>
			<path fill="#80BABA" d="M660.8,453.4H497.2l0,0c0-1.2,1-2.2,2.2-2.2h161.4V453.4z"/>
		</g>
		<path fill="#80BABA" d="M539.8,454.5h-32.5c1.9-7.1,8.5-12.4,16.2-12.4c4,0,7.6,1.4,10.5,3.7C536.8,448,538.8,451,539.8,454.5z"/>
		<path fill="#80BABA" d="M570.1,454.5h-47c2.9-3.7,6.7-6.7,11-8.7c3.8-1.8,8-2.7,12.5-2.7c6.7,0,13,2.2,18,6
			C566.6,450.6,568.5,452.4,570.1,454.5z"/>
		<path fill="#80BABA" d="M584.7,454.5h-24.1c0.8-2.2,2.2-4,3.9-5.5c2.2-1.8,5-2.9,8.1-2.9C578.1,446.2,582.8,449.6,584.7,454.5z"/>
		<path fill="#80BABA" d="M627.3,450.7c0,1.3-0.1,2.5-0.4,3.8h-34c-0.3-1.2-0.4-2.5-0.4-3.8c0-9.6,7.8-17.4,17.4-17.4
			c5.8,0,10.9,2.8,14.1,7.2C626.1,443.4,627.3,446.9,627.3,450.7z"/>
		<circle fill="#8AC6C6" cx="585.7" cy="440.6" r="4.6"/>
		<circle fill="#8AC6C6" cx="582.2" cy="437" r="2.4"/>
		<circle fill="#8AC6C6" cx="632.5" cy="431.7" r="1.7"/>
		<path fill="#80BABA" d="M642.4,454.5H612c0.4-6.9,5.4-12.6,12-14c1-0.2,2.1-0.3,3.2-0.3c3.7,0,7.2,1.3,9.8,3.6
			C640.1,446.4,642.2,450.2,642.4,454.5z"/>
		<path fill="#80BABA" d="M670.2,448.7c0,2-0.4,4-1,5.8h-31.9c-0.7-1.8-1-3.8-1-5.8c0-1.7,0.3-3.4,0.7-4.9c2.1-7,8.6-12,16.2-12
			C662.6,431.7,670.2,439.3,670.2,448.7z"/>
	</g>
	<g>
		<path fill="#89C6C6" d="M658.4,442.1h141.3v26.7H628.8c-3.9,0-5.8-4.8-2.8-7.4l13.5-12C644.7,444.7,651.5,442.1,658.4,442.1z"/>
		<path fill="#46433D" d="M655.4,458.2h144.3v-47.5h-82.3c-9.1,0-17.9,3.1-25.1,8.7l-39.6,31.2C649.6,453.1,651.4,458.2,655.4,458.2
			z"/>
		<path fill="#5F5A53" d="M737.4,410.7h62.3V405H743C739.9,405,737.4,407.5,737.4,410.7L737.4,410.7z"/>
		<path fill="#89C6C6" d="M799.7,480h-28.2c-7.2,0-14.2-1.9-20.4-5.4l-10.2-5.8h58.8V480z"/>
		<path fill="#89C6C6" d="M725,476.8h-20.2c-1,0-1.7-0.8-1.7-1.7v0c0-1,0.8-1.7,1.7-1.7H725c1,0,1.7,0.8,1.7,1.7v0
			C726.8,476,726,476.8,725,476.8z"/>
		<circle fill="#89C6C6" cx="695.9" cy="474.9" r="1.6"/>
	</g>
	<path fill="#547D7E" d="M550.9,506.3l30.4-18.8c2.6-1.6,1.4-5.5-1.6-5.5h-24.9c-1,0-1.4-1.3-0.5-1.9l14-8.6
		c2.6-1.6,1.4-5.5-1.6-5.5h-71.9h-309c-5.7,0-11.4,0.9-16.9,2.8l-43.6,14.7c-2.8,1-2.8,5,0,5.9l60.3,20.7h358.9
		C546.6,508.8,548.8,507.6,550.9,506.3z"/>
	<path fill="#46433D" d="M466.2,422.4H220.5c-2.7,0-5.4,0.5-7.8,1.6l-16.9,7.2h291.7l-11.7-6.4C472.8,423.3,469.5,422.4,466.2,422.4
		z"/>
	<path fill="#46433D" d="M416.7,422.4h-65.3v0c0-1.9,1.5-3.4,3.4-3.4h58.5C415.2,419,416.7,420.5,416.7,422.4L416.7,422.4z"/>
	<g>
		<g>
			<path fill="#8DCACA" d="M285.2,428.4H80.4c-1.5,0-2.8,1.2-2.8,2.8v0H288v0C288,429.6,286.7,428.4,285.2,428.4z"/>
			<g>
				<path fill="#8DCACA" d="M121.3,430.8H96.2c2.2-4.7,7-7.9,12.5-7.9C114.3,422.9,119,426.2,121.3,430.8z"/>
				<path fill="#8DCACA" d="M146.6,430.8h-34.5c0-9.5,7.7-17.2,17.3-17.2C138.9,413.6,146.6,421.3,146.6,430.8z"/>
			</g>
			<circle fill="#8DCACA" cx="110.8" cy="412.8" r="2"/>
			<path fill="#8DCACA" d="M225.5,429.9h-38.4c4.3-6,11.3-9.9,19.2-9.9C214.2,420,221.2,423.9,225.5,429.9z"/>
			<path fill="#8DCACA" d="M181.4,428.9c0,0.3,0,0.7-0.1,1h-16.2c0-0.3-0.1-0.7-0.1-1c0-4.5,3.7-8.2,8.2-8.2
				C177.8,420.7,181.4,424.4,181.4,428.9z"/>
		</g>
		<path fill="#8DCACA" d="M64.2,428.4H22.5c-1.5,0-2.8,1.2-2.8,2.8v0H67v0C67,429.6,65.7,428.4,64.2,428.4z"/>
		<circle fill="#8DCACA" cx="62.6" cy="417.6" r="1.7"/>
		<circle fill="#8DCACA" cx="52.2" cy="411.2" r="1.8"/>
	</g>
	<path fill="#5F5A53" d="M794.4,464.2h-34c-1.5,0-2.3-1.7-1.4-2.9l5.7-7.2c1.3-1.6,3.3-2.6,5.3-2.6h14.7c2.1,0,4.1,1,5.3,2.6
		l5.7,7.2C796.7,462.4,795.9,464.2,794.4,464.2z"/>
	<path fill="#89846D" d="M751.9,460h-9v-0.1c0-2.5,2-4.5,4.5-4.5h0c2.5,0,4.5,2,4.5,4.5V460z"/>
	<path fill="#89846D" d="M785.7,466.2h-12.3v0c0-2.6,2.1-4.6,4.6-4.6h3C783.6,461.6,785.7,463.7,785.7,466.2L785.7,466.2z"/>
	<g>
		<g>
			<path fill="#101C20" d="M770.9,327.7h-7v-77.4c0-2,0.8-3.9,2.2-5.3l14.6-14.6l4.9,4.9l-14.7,14.7V327.7z"/>
		</g>
		<g>
			<path fill="#38352D" d="M768.7,0.5v157.6l9.5,9.5c0,0-0.2,237.4,0,237.4s21.5,0,21.5,0V0.5H768.7z"/>
		</g>
		<g>
			<path fill="#504C3A" d="M662.4,448.4L662.4,448.4c-1.1,0-2-0.9-2-2v-11.3l20.2-20.2l2.8,2.8l-19,19v9.7
				C664.4,447.6,663.5,448.4,662.4,448.4z"/>
		</g>
		<g>
			<path fill="#5D553D" d="M684.5,418.8l-4.9-4.9l18.7-18.7c1.2-1.2,2.9-1.9,4.6-1.9H720v7H703L684.5,418.8z"/>
		</g>
		<g>
			<path fill="#4A432A" d="M731.7,401.8h-9.3c-1.3,0-2.4-1.1-2.4-2.4v-5.2c0-1.3,1.1-2.4,2.4-2.4h9.3V401.8z"/>
		</g>
		<g>
			<path fill="#5D553D" d="M736.5,403.3h-2.9c-1.1,0-2-0.9-2-2v-9c0-1.1,0.9-2,2-2h2.9c1.1,0,2,0.9,2,2v9
				C738.5,402.4,737.7,403.3,736.5,403.3z"/>
		</g>
		<g>
			<polygon fill="#38352D" points="752.4,401.8 738.5,401.8 738.5,391.8 748.3,391.8 754.9,385.2 762,392.2 			"/>
		</g>
		<g>
			<path fill="#38352D" d="M761.4,391.7l-6-6c-0.9-0.9-0.9-2.3,0-3.2l2.9-2.9v-35.5h13V385l-6.7,6.7
				C763.8,392.6,762.3,392.6,761.4,391.7z"/>
		</g>
		<g>
			<path fill="#38352D" d="M771.5,344.1h-13.3c-1,0-1.8-0.8-1.8-1.8v-9l25.7-25.7l12,12l-20.8,20.8v1.9
				C773.3,343.3,772.5,344.1,771.5,344.1z"/>
		</g>
		<g>
			<path fill="#504C3A" d="M750.8,443.9L750.8,443.9c-0.6,0-1-0.4-1-1V434l3.5-3.5l1.4,1.4l-2.9,2.9v8
				C751.8,443.4,751.3,443.9,750.8,443.9z"/>
		</g>
		<g>
			<path fill="#504C3A" d="M754.7,431.9l-1.4-1.4c-0.4-0.4-0.4-1,0-1.4l6.2-6.2l2.8,2.8l-6.2,6.2
				C755.7,432.3,755.1,432.3,754.7,431.9z"/>
		</g>
		<g>
			<path fill="#4A432A" d="M761.5,426.7l-3-3c-0.3-0.3-0.3-0.9,0-1.3l3.3-3.2v-16.7h6v18.1c0,0.7-0.3,1.4-0.8,1.9l-4.3,4.2
				C762.4,427,761.9,427,761.5,426.7z"/>
		</g>
		<g>
			<path fill="#4A432A" d="M767.3,402.5h-4.9c-0.9,0-1.5-0.7-1.5-1.5v-38.1c0-2.2,1.8-4,4-4l0,0c2.2,0,4,1.8,4,4v38.1
				C768.8,401.8,768.1,402.5,767.3,402.5z"/>
		</g>
		<rect x="795" y="0.5" fill="#55503D" width="4.7" height="404.5"/>
		<rect x="786" y="91.3" fill="#4E493C" width="2.5" height="13.7"/>
		<rect x="773.1" y="139" fill="#4E493C" width="2.5" height="13.7"/>
		<rect x="780.9" y="84.4" fill="#4E493C" width="2.5" height="13.7"/>
	</g>
	<path fill="#55503D" d="M795,157.8l-2.8-8.2c-0.4-1.2-0.6-2.4-0.6-3.7v-21.2c0-1.3,0.2-2.5,0.6-3.7l2.8-8.2V157.8z"/>
	<path fill="#55503D" d="M795,84.9l-1.6-4.8c-0.2-0.7-0.4-1.4-0.4-2.1V65.8c0-0.7,0.1-1.5,0.4-2.1l1.6-4.8V84.9z"/>
	<g>
		<path fill="none" stroke="#131F26" stroke-width="1.9947" stroke-miterlimit="10" d="M181,186.3v1.9c0,4,1.6,7.9,4.5,10.8l2.7,2.7
			"/>
		<g>
			<path fill="#2A3B2D" d="M207.1,186.3h-46v0c0-1.1,0.9-2,2-2h41.9C206.2,184.3,207.1,185.2,207.1,186.3L207.1,186.3z"/>
			<path fill="#2A3B2D" d="M197.6,184.3h-30.2v0c0-1.1,0.9-2,2-2h26.1C196.7,182.2,197.6,183.1,197.6,184.3L197.6,184.3z"/>
			<path fill="#2A3B2D" d="M189.8,182.2h-17.7v0c0-1.1,0.9-2,2-2h13.6C188.9,180.2,189.8,181.1,189.8,182.2L189.8,182.2z"/>
			<path fill="#2A3B2D" d="M187.4,177.2c-0.8,0.7-1.8,0.9-2.7,0.6c-0.2-0.9,0.1-2,0.8-2.7c0.8-0.7,1.8-0.9,2.7-0.6
				C188.4,175.5,188.1,176.5,187.4,177.2z"/>
		</g>
	</g>
	<g>
		<path fill="none" stroke="#131F26" stroke-width="1.9947" stroke-miterlimit="10" d="M543.7,106.3v1.9c0,4-1.6,7.9-4.5,10.8
			l-2.7,2.7"/>
		<g>
			<path fill="#2A3B2D" d="M551.5,104.3h-20v0c0,1.1,0.9,2,2,2h16C550.6,106.3,551.5,105.4,551.5,104.3L551.5,104.3z"/>
			<path fill="#2A3B2D" d="M527,104.3h30.2v0c0-1.1-0.9-2-2-2H529C527.9,102.3,527,103.2,527,104.3L527,104.3z"/>
			<path fill="#2A3B2D" d="M534.9,102.3h17.7v0c0-1.1-0.9-2-2-2h-13.6C535.8,100.2,534.9,101.1,534.9,102.3L534.9,102.3z"/>
			<path fill="#2A3B2D" d="M538.7,115.1c0.8,0.7,1.8,0.9,2.7,0.6c0.2-0.9-0.1-2-0.8-2.7c-0.8-0.7-1.8-0.9-2.7-0.6
				C537.7,113.4,538,114.4,538.7,115.1z"/>
		</g>
		<path fill="#2A3B2D" d="M545.8,96.5h-3c-2,0-3.7,1.7-3.7,3.7v0h10.4v0C549.5,98.2,547.8,96.5,545.8,96.5z"/>
	</g>
	<linearGradient id="SVGID_1_" gradientUnits="userSpaceOnUse" x1="399.9755" y1="360.1199" x2="399.9755" y2="537.1109">
		<stop  offset="0" style="stop-color:#659090;stop-opacity:0"/>
		<stop  offset="1" style="stop-color:#659090"/>
	</linearGradient>
	<rect x="0.3" y="510" fill="url(#SVGID_1_)" width="799.4" height="42.6"/>
	<path fill="#2A3B2D" d="M163.5,140.6c-0.9,0.9-2.2,1.1-3.4,0.7c-0.3-1.2,0.1-2.4,1.1-3.3c0.9-0.9,2.3-1.1,3.4-0.7
		C164.8,138.4,164.4,139.7,163.5,140.6z"/>
	<path fill="#2A3B2D" d="M155.5,131.2c0.7,0.7,0.9,1.8,0.6,2.6c-0.9,0.2-1.9-0.1-2.6-0.8c-0.7-0.7-0.9-1.8-0.6-2.7
		C153.8,130.2,154.8,130.4,155.5,131.2z"/>
	<path fill="#2A3B2D" d="M92.9,72.3c0.8,0.9,1,2.1,0.7,3.1c-1.1,0.2-2.2-0.1-3-1c-0.8-0.9-1-2.1-0.7-3.1
		C90.9,71.1,92.1,71.5,92.9,72.3z"/>
	<path fill="#2A3B2D" d="M97.9,67c-0.1,1.2-0.9,2.1-1.9,2.6c-0.9-0.6-1.4-1.7-1.3-2.9c0.1-1.2,0.9-2.1,1.9-2.6
		C97.5,64.8,98,65.9,97.9,67z"/>
	<path fill="#2A3B2D" d="M153.1,135.1c0.7,0.2,1.2,0.8,1.4,1.5c-0.5,0.5-1.3,0.7-2,0.4c-0.7-0.2-1.2-0.8-1.4-1.5
		C151.6,135,152.4,134.8,153.1,135.1z"/>
	<path fill="#2A3B2D" d="M159.8,103.9c-0.5,0.6-0.6,1.4-0.3,2c0.7,0.1,1.4-0.2,1.9-0.7c0.5-0.6,0.6-1.4,0.3-2
		C161,103,160.3,103.3,159.8,103.9z"/>
	<path fill="#608165" d="M747.5,393.3c-1.1,1-2.7,1.3-4,0.9c-0.3-1.4,0.1-2.9,1.3-4c1.1-1,2.7-1.3,4.1-0.9
		C749,390.8,748.6,392.3,747.5,393.3z"/>
	<path fill="#608165" d="M736.3,384.4c0.4,0.9,0.2,1.8-0.3,2.5c-0.9-0.1-1.7-0.7-2-1.6c-0.4-0.9-0.2-1.8,0.4-2.5
		C735.2,383,735.9,383.5,736.3,384.4z"/>
	<path fill="#608165" d="M753.4,375c-0.1,0.9-0.7,1.7-1.5,2c-0.7-0.5-1.1-1.4-1-2.4c0.1-0.9,0.7-1.7,1.6-2
		C753.1,373.2,753.5,374,753.4,375z"/>
	<path fill="#89846D" d="M719.1,475h-10.4v0c0-2.3,1.8-4.1,4.1-4.1h2.2C717.3,470.9,719.1,472.8,719.1,475L719.1,475z"/>
	<g>
		<path fill="#101C20" d="M57.6,269.2v50.5h0c2.5,0,4.6,2,4.6,4.6V452H14.7V0.5h47.4v264.1C62.2,267.1,60.1,269.2,57.6,269.2
			L57.6,269.2z"/>
		<g>
			<path fill="#101C20" d="M161.7,449l-10.4-10.4h-9.4v-2h9.6c0.4,0,0.8,0.2,1.1,0.5l10.5,10.5c0.4,0.4,0.4,1,0,1.4l0,0
				C162.7,449.4,162.1,449.4,161.7,449z"/>
		</g>
		<g>
			<path fill="#101C20" d="M141.3,439.6h-18.6v-4h18.6c0.7,0,1.3,0.6,1.3,1.3v1.3C142.6,439,142,439.6,141.3,439.6z"/>
		</g>
		<g>
			<path fill="#101C20" d="M121.4,441.1H98.5l-8.5-8.5l4.9-4.9l6.5,6.5h20c0.7,0,1.2,0.5,1.2,1.2v4.6
				C122.7,440.6,122.1,441.1,121.4,441.1z"/>
		</g>
		<g>
			<path fill="#101C20" d="M87.9,433.4l-8.8-8.8l7.8-7.8l8.8,8.8c0.4,0.4,0.4,1,0,1.4l-6.4,6.4C88.9,433.7,88.3,433.7,87.9,433.4z"
				/>
		</g>
		<g>
			<path fill="#101C20" d="M76.3,425.3l-4.6-4.6v-24h16v17.4l1,1c0.7,0.7,0.6,1.8-0.1,2.4l-10.1,8C77.8,425.9,76.9,425.9,76.3,425.3
				z"/>
		</g>
		<g>
			<path fill="#101C20" d="M72.6,397l-0.4-0.4h0c-1.4,0-2.5-1.1-2.5-2.5v0l-21.9-21.9L62,358.1l25.7,25.7c1.3,1.3,2,3,2,4.9v5.4
				c0,1.4-1.1,2.5-2.5,2.5H73L72.6,397z"/>
		</g>
		<g>
			<path fill="#80BABA" d="M195.7,456.8H0.3v-4.5h190.9c1.3,0,2.4,0.5,3.2,1.3c0.3,0.3,0.5,0.6,0.7,0.9
				C195.5,455.2,195.7,456,195.7,456.8z"/>
			<g>
				<path fill="#80BABA" d="M139.3,454.6h36.5c-4.4-5.2-10.9-8.4-18.3-8.4c-2.7,0-5.3,0.4-7.7,1.3
					C145.7,448.8,142.1,451.3,139.3,454.6z"/>
				<path fill="#80BABA" d="M30.6,454.6H0.3v-14.9c7.8,1.3,15,4.1,21.5,8.1c2.2,1.4,4.3,2.9,6.2,4.5C28.9,453,29.7,453.8,30.6,454.6
					z"/>
				<path fill="#80BABA" d="M12.7,454.6h47.2c-0.3-0.3-0.6-0.6-0.9-0.9c-2.5-2.5-5.5-4.6-8.7-6.1c-4.2-2-9-3.2-14-3.2
					c-0.3,0-0.6,0-0.8,0c-4.9,0.1-9.6,1.4-13.8,3.5C18.3,449.5,15.3,451.8,12.7,454.6z"/>
				<path fill="#80BABA" d="M45.9,454.6h38.4c-0.8-2.3-2.1-4.4-3.7-6.2c-3.7-4.4-9.3-7.1-15.5-7.1c-1.1,0-2.3,0.1-3.4,0.3
					c-4.5,0.7-8.4,2.9-11.4,6C48.3,449.5,46.8,451.9,45.9,454.6z"/>
				<path fill="#80BABA" d="M41.1,447c0,3,1.2,5.7,3.2,7.6h14.6c0.2-0.2,0.5-0.5,0.7-0.7c1.6-1.8,2.5-4.2,2.5-6.8
					c0-0.9-0.1-1.9-0.4-2.8c-1.2-4.5-5.3-7.8-10.1-7.8c-5.7,0-10.3,4.5-10.5,10.1C41.1,446.7,41.1,446.8,41.1,447z"/>
				<path fill="#80BABA" d="M75.3,454.6h23.3c-0.6-1.7-1.7-3.3-3-4.5c-2.2-2.2-5.3-3.5-8.6-3.5c-2.3,0-4.5,0.6-6.4,1.8
					C78.2,449.7,76.3,451.9,75.3,454.6z"/>
				<path fill="#80BABA" d="M95.3,454.6h38.3c-1.2-1.7-2.6-3.2-4.2-4.5c-4.1-3.4-9.3-5.4-15-5.4c-5.7,0-10.8,2-14.9,5.3
					C97.9,451.3,96.5,452.9,95.3,454.6z"/>
			</g>
			<circle fill="#80BABA" cx="135.9" cy="443.5" r="2.3"/>
			<circle fill="#80BABA" cx="184" cy="448" r="1.8"/>
			<path fill="#80BABA" d="M210,456.8h-21.1v-2.3h18.9C209,454.6,210,455.6,210,456.8L210,456.8z"/>
			<path fill="#80BABA" d="M241.5,456.8h-21.1v0c0-1.3,1-2.3,2.3-2.3h16.6C240.5,454.6,241.5,455.6,241.5,456.8L241.5,456.8z"/>
		</g>
		<g>
			<path fill="#89C6C6" d="M126.6,473.2H90.8c-1,0-1.5-1.2-0.8-1.9l0,0c1.4-1.5,3.4-2.3,5.4-2.3h29.3c0.3,0,0.6,0.1,0.8,0.3l1.9,2
				C128.1,472.1,127.6,473.2,126.6,473.2z"/>
			<path fill="#46433D" d="M117.8,471.5H93.7l0.6-0.8c2.8-3.5,7-5.5,11.5-5.5h0c4.5,0,8.7,2,11.5,5.5L117.8,471.5z"/>
			<path fill="#46433D" d="M121.3,467.7L121.3,467.7c-0.8,0-1.4,0.6-1.4,1.4v2.4h2.7v-2.4C122.7,468.3,122,467.7,121.3,467.7z"/>
			<path fill="#89C6C6" d="M132.3,473.2h-6.6v-2h3.5c1.2,0,2.3,0.4,3.1,1.2l0.2,0.2C132.8,472.9,132.6,473.2,132.3,473.2z"/>
		</g>

			<rect x="58.6" y="160.9" transform="matrix(0.8365 0.5479 -0.5479 0.8365 104.1323 -5.2995)" fill="#101C20" width="4.8" height="21.9"/>
	</g>
	<line fill="none" stroke="#101C20" stroke-width="9.9734" stroke-miterlimit="10" x1="695.8" y1="339.2" x2="674" y2="361.1"/>
	<path fill="#131F26" d="M254.7,86.9V75.3c0-7.3,2.9-14.3,8.1-19.5l6.9-6.9c1.7-1.7,2.7-4,2.7-6.5V21l7.3-7.3
		c0.6-0.6,0.9-1.3,0.9-2.1V0.5h-4.3V11l-8.6,8.6c-0.6,0.6-0.9,1.3-0.9,2.1v12.2c0,1.5-1.2,2.7-2.7,2.7h-13.2v50.2H254.7z"/>
	<g>
		<path fill="none" stroke="#131F26" stroke-width="1.9947" stroke-linecap="round" stroke-miterlimit="10" d="M440.5,149.6v1.9
			c0,4,1.6,7.9,4.5,10.8l2.7,2.7"/>
		<g>
			<path fill="#2A3B2D" d="M434.7,147.5h11v0c0,1.1-0.9,2-2,2h-7C435.6,149.6,434.7,148.6,434.7,147.5L434.7,147.5z"/>
			<path fill="#2A3B2D" d="M450.2,147.5H429v0c0-1.1,0.9-2,2-2h17.1C449.3,145.5,450.2,146.4,450.2,147.5L450.2,147.5z"/>
			<path fill="#2A3B2D" d="M442.4,145.5h-8.7v0c0-1.1,0.9-2,2-2h4.6C441.4,143.4,442.4,144.3,442.4,145.5L442.4,145.5z"/>
		</g>
	</g>
	<rect x="226.5" y="248" fill="#152129" width="2" height="20.4"/>
	<rect x="221.7" y="244.5" fill="#152129" width="2" height="14.5"/>
	<g>
		<g>
			<g>
				<path fill="#C9E1E1" d="M466.6,489.7H306.5v0c0-1.9,1.5-3.4,3.4-3.4h153.4C465.1,486.3,466.6,487.8,466.6,489.7L466.6,489.7z"/>
				<path fill="#C9E1E1" d="M292,489.7h-69.9v0c0-1.9,1.5-3.4,3.4-3.4h63.1C290.5,486.3,292,487.8,292,489.7L292,489.7z"/>
				<path fill="#C9E1E1" d="M374.2,481.8h-38.4c-2.5,0-4.5,2-4.5,4.5v0h47.4v0C378.7,483.8,376.7,481.8,374.2,481.8z"/>
				<path fill="#C9E1E1" d="M409.1,486.3h-12.4v0c0-1.2,1-2.3,2.3-2.3h7.9C408.1,484,409.1,485.1,409.1,486.3L409.1,486.3z"/>
				<circle fill="#C9E1E1" cx="360" cy="475.9" r="1.7"/>
				<circle fill="#C9E1E1" cx="365.8" cy="471.2" r="0.9"/>
				<circle fill="#C9E1E1" cx="323.4" cy="479.9" r="1"/>
			</g>
			<path fill="#C9E1E1" d="M497.6,489.7h-23.5v0c0-0.9,0.8-1.7,1.7-1.7h20.1C496.9,488,497.6,488.7,497.6,489.7L497.6,489.7z"/>
			<path fill="#C9E1E1" d="M213.5,489.7h-46v0c0-0.9,0.8-1.7,1.7-1.7h42.7C212.8,488,213.5,488.7,213.5,489.7L213.5,489.7z"/>
			<circle fill="#C9E1E1" cx="218.2" cy="486.6" r="1.1"/>
			<circle fill="#C9E1E1" cx="214.9" cy="483" r="0.7"/>
		</g>
	</g>
	<path fill="#2A3B2D" d="M260.4,151.6L260.4,151.6c-0.7,0-1.3-0.6-1.3-1.3V35.9c0-0.7,0.6-1.3,1.3-1.3h0c0.7,0,1.3,0.6,1.3,1.3
		v114.4C261.7,151,261.1,151.6,260.4,151.6z"/>
	<g>
		<path fill="#2A3B2D" d="M498.6,0.5v78.4c0,0.7-0.6,1.3-1.3,1.3c-0.7,0-1.3-0.6-1.3-1.3V0.5H498.6z"/>
		<path fill="#2A3B2D" d="M490,0.5v48.4c0,0.7-0.6,1.3-1.3,1.3c-0.7,0-1.3-0.6-1.3-1.3V0.5H490z"/>
	</g>
	<g>
		<path fill="#2A3B2D" d="M714.7,0.5v48.4c0,0.7-0.6,1.3-1.3,1.3c-0.7,0-1.3-0.6-1.3-1.3V0.5H714.7z"/>
		<path fill="#2A3B2D" d="M744,0.5v48.4c0,0.7-0.6,1.3-1.3,1.3c-0.7,0-1.3-0.6-1.3-1.3V0.5H744z"/>
		<path fill="#2A3B2D" d="M709.2,0.5v78.4c0,0.7-0.6,1.3-1.3,1.3c-0.7,0-1.3-0.6-1.3-1.3V0.5H709.2z"/>
	</g>
	<path fill="#17252E" d="M250.5,332.8L250.5,332.8c-4,0-7.3-3.2-7.3-7.3v-32.1c0-4,3.2-7.3,7.3-7.3h0c4,0,7.3,3.2,7.3,7.3v32.1
		C257.7,329.6,254.5,332.8,250.5,332.8z"/>
	<path fill="#131F26" d="M250.5,328.8c-1.8,0-3.3-1.5-3.3-3.3v-22.1c0-1.8,1.5-3.3,3.3-3.3s3.3,1.5,3.3,3.3v22.1
		C253.7,327.3,252.3,328.8,250.5,328.8z"/>

		<line fill="none" stroke="#131F26" stroke-width="4.9867" stroke-linecap="round" stroke-miterlimit="10" x1="496.3" y1="166" x2="535" y2="127.4"/>
	<rect x="515.4" y="310.4" fill="#152129" width="2" height="20.4"/>
	<rect x="217.1" y="166.2" fill="#152129" width="2" height="20.4"/>
	<rect x="247" y="102.6" fill="#152129" width="2" height="20.4"/>
	<rect x="241.7" y="98" fill="#152129" width="2" height="9.6"/>
	<rect x="498.9" y="285.4" fill="#152129" width="2" height="12.5"/>
	<rect x="510.2" y="313.9" fill="#152129" width="2" height="20.4"/>
	<g>
		<g>
			<image overflow="visible" width="77" height="77" xlink:href="590AE9BEFEA688EA.png"  transform="matrix(1 0 0 1 119 385)">
			</image>
		</g>
		<circle fill="#A8DADA" cx="157.6" cy="423.5" r="1.2"/>
	</g>
	<g>
		<g>
			<image overflow="visible" width="76" height="76" xlink:href="590AE9BEFEA688E9.png"  transform="matrix(1 0 0 1 61 351)">
			</image>
		</g>
		<circle fill="#A8DADA" cx="98.7" cy="389.2" r="1"/>
	</g>
	<g>
		<g>
			<image overflow="visible" width="75" height="76" xlink:href="590AE9BEFEA688F8.png"  transform="matrix(1 0 0 1 130 379)">
			</image>
		</g>
		<circle fill="#A8DADA" cx="167.5" cy="416.8" r="1"/>
	</g>
	<g>
		<g>
			<image overflow="visible" width="76" height="76" xlink:href="590AE9BEFEA688FD.png"  transform="matrix(1 0 0 1 663 346)">
			</image>
		</g>
		<circle fill="#A8DADA" cx="700.6" cy="384.3" r="1"/>
	</g>
	<g>
		<g>
			<image overflow="visible" width="75" height="75" xlink:href="590AE9BEFEA688FE.png"  transform="matrix(1 0 0 1 647 356)">
			</image>
		</g>
		<circle fill="#A8DADA" cx="684.3" cy="393.5" r="0.6"/>
	</g>
	<g>
		<g>
			<image overflow="visible" width="75" height="75" xlink:href="590AE9BEFEA688FF.png"  transform="matrix(1 0 0 1 621 335)">
			</image>
		</g>
		<circle fill="#A8DADA" cx="658.6" cy="372.6" r="0.6"/>
	</g>
	<path fill="#2A3B2D" d="M115.5,112.4L115.5,112.4c-0.5,0-1-0.4-1-1V77.8c0-0.5,0.4-1,1-1h0c0.5,0,1,0.4,1,1v33.6
		C116.5,111.9,116,112.4,115.5,112.4z"/>
	<circle fill="#2A3B2D" cx="112.6" cy="117.8" r="1"/>
	<circle fill="#2A3B2D" cx="115.5" cy="126.3" r="0.7"/>
	<circle fill="#2A3B2D" cx="110.2" cy="115.5" r="0.4"/>
	<circle fill="#2A3B2D" cx="117.8" cy="114" r="0.4"/>
	<rect x="53.7" y="40.5" fill="#534D3A" width="9.7" height="1.1"/>
	<rect x="57.9" y="42.8" fill="#534D3A" width="9.7" height="1.1"/>
	<rect x="75" y="42.8" fill="#534D3A" width="4.8" height="1.1"/>
</g>
<g id="bounds">
	<rect x="-149.5" y="-820.5" fill="none" width="149" height="1367"/>
	<rect x="800" y="-819" fill="none" width="183" height="1474"/>
	<g>
		<rect x="-130.5" y="546.5" fill="none" width="29" height="82"/>
		<rect x="-99.2" y="549.8" fill="none" width="29.1" height="81.9"/>
		<rect x="-68" y="553.1" fill="none" width="29.1" height="81.8"/>
		<rect x="-36.7" y="556.4" fill="none" width="29.2" height="81.6"/>
		<rect x="-5.4" y="559.7" fill="none" width="29.2" height="81.5"/>
		<rect x="25.8" y="563" fill="none" width="29.3" height="81.4"/>
		<rect x="57.1" y="566.3" fill="none" width="29.4" height="81.3"/>
		<rect x="88.4" y="569.6" fill="none" width="29.4" height="81.2"/>
		<rect x="119.6" y="572.9" fill="none" width="29.5" height="81.1"/>
		<rect x="150.9" y="576.1" fill="none" width="29.5" height="80.9"/>
		<rect x="182.1" y="579.4" fill="none" width="29.6" height="80.8"/>
		<rect x="213.4" y="582.7" fill="none" width="29.6" height="80.7"/>
		<rect x="244.7" y="586" fill="none" width="29.7" height="80.6"/>
		<rect x="275.9" y="589.3" fill="none" width="29.8" height="80.5"/>
		<rect x="307.2" y="592.6" fill="none" width="29.8" height="80.4"/>
		<rect x="338.5" y="595.9" fill="none" width="29.9" height="80.2"/>
		<rect x="369.7" y="599.2" fill="none" width="29.9" height="80.1"/>
		<rect x="401" y="602.5" fill="none" width="30" height="80"/>
		<rect x="432.3" y="605.8" fill="none" width="30.1" height="79.9"/>
		<rect x="463.5" y="609.1" fill="none" width="30.1" height="79.8"/>
		<rect x="494.8" y="612.4" fill="none" width="30.2" height="79.6"/>
		<rect x="526.1" y="615.7" fill="none" width="30.2" height="79.5"/>
		<rect x="557.3" y="619" fill="none" width="30.3" height="79.4"/>
		<rect x="588.6" y="622.3" fill="none" width="30.4" height="79.3"/>
		<rect x="619.9" y="625.6" fill="none" width="30.4" height="79.2"/>
		<rect x="651.1" y="628.9" fill="none" width="30.5" height="79.1"/>
		<rect x="682.4" y="632.1" fill="none" width="30.5" height="78.9"/>
		<rect x="713.6" y="635.4" fill="none" width="30.6" height="78.8"/>
		<rect x="744.9" y="638.7" fill="none" width="30.6" height="78.7"/>
		<rect x="776.2" y="642" fill="none" width="30.7" height="78.6"/>
		<rect x="807.4" y="645.3" fill="none" width="30.8" height="78.5"/>
		<rect x="838.7" y="648.6" fill="none" width="30.8" height="78.4"/>
		<rect x="870" y="651.9" fill="none" width="30.9" height="78.2"/>
		<rect x="901.2" y="655.2" fill="none" width="30.9" height="78.1"/>
		<rect x="932.5" y="658.5" fill="none" width="31" height="78"/>
	</g>
	<rect x="-6" y="-804" fill="none" width="807" height="30"/>
</g>
</svg>
