<?xml version="1.0" encoding="utf-8"?>
<!-- Generator: Adobe Illustrator 23.0.6, SVG Export Plug-In . SVG Version: 6.00 Build 0)  -->
<svg version="1.0" id="Layer_1" xmlns="http://www.w3.org/2000/svg" xmlns:xlink="http://www.w3.org/1999/xlink" x="0px" y="0px"
	 width="800px" height="600px" viewBox="0 0 800 600" enable-background="new 0 0 800 600" xml:space="preserve">
<g id="bounds">
	<rect x="-115.5" y="581.5" fill="none" width="1094" height="125"/>
	<rect x="-149.5" y="-629.5" fill="none" width="149" height="1211"/>
	<rect x="799.5" y="-629.5" fill="none" width="183" height="1211"/>
	<rect x="-4" y="-629" fill="none" width="804" height="32"/>
</g>
<g>
	<path fill="#DBECF9" d="M797.5,598.9H1c-0.5,0-1-0.4-1-1V1c0-0.5,0.4-1,1-1h796.6c0.5,0,1,0.4,1,1v597
		C798.5,598.4,798.1,598.9,797.5,598.9z"/>
	<polygon fill="#E7F0F9" points="0.9,378.3 83.6,439.8 147.1,459.5 199.8,466.8 214,483.8 260.8,500 361.9,497.3 415.5,531.2
		517.1,536.5 0,536.5 	"/>
	<polygon fill="#E7F0F9" points="591.3,495.6 723.8,475.7 742.9,474.8 764.6,489.1 787.2,481 798.5,454.5 799,560.4 	"/>
	<g>
		<rect y="529.5" fill="#FFE2C1" width="798.5" height="69.4"/>
		<polygon fill="#D5D4D4" points="742.9,455.7 729.8,450.4 730,462.3 		"/>
		<g>
			<g>
				<path fill="#DFDFDF" d="M339.1,522.7L511,433.3c1-0.5,2.1-0.8,3.2-0.8h72.6l156,34.5L799,512v34.2H340.8L339.1,522.7z"/>
				<path fill="#D1D1D1" d="M738.9,401.8l-0.4,3.7c-0.1,0.6-0.5,1.1-1.1,1.2l-0.6,0.1c-0.6,0.1-1,0.5-1.1,1.1l-0.9,4.8
					c0,0.1,0,0.2,0,0.3c0,0.5,0.3,1,0.8,1.3c0.6,0.3,1,1,0.8,1.7l-0.4,1.6c-0.1,0.5-0.5,0.9-1.1,1l-11.8,2.4c-0.1,0-0.3,0-0.5,0
					l-69.4-9.1c-0.1,0-0.3-0.1-0.4-0.1l-53.9-27.4c-0.6-0.3-0.9-1-0.7-1.7l6.2-18.5c0.1-0.3,0.4-0.6,0.7-0.8
					c0.2-0.1,0.3-0.1,0.5-0.2l26.3-1.6c0.3,0,0.7-0.2,0.9-0.4l1.2-1.4c0,0,0,0,0,0c0.6-0.7,1.6-1,2.5-0.6l18.1,6.2l39.2,13.5
					c0.1,0,0.1,0,0.2,0.1l3.4,1.7l40.7,20.1c0.2,0.1,0.4,0.3,0.5,0.5C738.8,401.1,738.9,401.4,738.9,401.8z"/>
				<path fill="#DFDFDF" d="M657.6,414.8l-30.3-1.2c-0.9,0-1.8,0.1-2.7,0.4l-84.4,26.4l55.9,6.9c0,0,57.8,33.4,58.3,33.4
					s75.5-38,75.5-38l-24.2-16L657.6,414.8z"/>
				<polygon fill="#F0EFEF" points="489.9,462.8 540.2,445.3 542.5,447 517.1,455.4 514.7,462.7 509.8,465.8 				"/>
				<polygon fill="#FFEDD1" points="594,545.6 576.5,550.6 482.2,549.3 479.6,549.3 471.3,547.7 471.2,547.7 449.3,547.7
					389.1,531.9 470.1,500.8 494.4,506.1 514,520.4 517.3,521.4 555.7,532.2 				"/>
				<path fill="#D1D1D1" d="M540,441.2l-1.6,6.6l52.7,6.3c0.1,0,0.3,0.1,0.4,0.1l47.6,26.2c0.7,0.4,0.7,1.4,0,1.7l-19.7,10.8
					c-0.3,0.2-0.7,0.2-1,0l-51.5-30.7c-0.1-0.1-0.2-0.1-0.4-0.1l-48.6-6.6c-0.5-0.1-0.9,0.2-1.1,0.7l-1.8,5.4
					c-0.2,0.6,0.2,1.2,0.8,1.3l47.8,7.8c0.1,0,0.3,0.1,0.4,0.1l53.3,34.1c0.8,0.5,1.9,0.6,2.7,0.1l20.1-11.1c0.3-0.2,0.7-0.2,1,0
					l8.3,5.4c1.2,0.8,2.8,0.9,4.1,0.2l24.2-12.8c0.3-0.2,0.8-0.1,1.1,0.1l2.8,2.1c0.3,0.2,0.4,0.5,0.4,0.8v9.2
					c0,0.4,0.2,0.7,0.5,0.9l10.7,6.1c0.7,0.4,0.7,1.3,0,1.7L676,518.3c-0.3,0.2-0.7,0.2-1,0l-7.2-4.1c-0.6-0.4-0.7-1.3-0.1-1.7
					l1.4-1c0.6-0.4,0.6-1.2,0-1.6l-0.4-0.3c-0.6-0.4-0.5-1.3,0.1-1.7l5.6-3.2c0.3-0.2,0.5-0.5,0.5-0.9v-8.1c0-0.7-0.8-1.2-1.5-0.9
					l-41.7,21.7c-1.3,0.7-2.9,0.6-4.1-0.2l-61-38.5l-6.3-3.8c-0.1-0.1-0.2-0.1-0.3-0.1l-8.8-2.1c0,0-0.1,0-0.1,0l-60.4-9.1
					c-0.5-0.1-1,0.2-1.1,0.7l-6.1,19.2l9.1-7.7c0.2-0.2,0.5-0.3,0.8-0.2l58,10.1c0.1,0,0.3,0.1,0.4,0.1l54.3,34.2
					c0.8,0.5,0.5,1.7-0.4,1.8l-41.1,3.9c-0.1,0-0.3,0-0.4-0.1L515,507.2c0,0-0.1,0-0.1,0l-38.4-18.9c-0.5-0.3-1.1,0-1.4,0.5l-5,12.1
					c-0.2,0.5,0.1,1.1,0.6,1.3l9,3.1c0.1,0,0.2,0,0.3,0.1l14.4,0.8c1,0.1,1.3,1.4,0.4,1.9l-13.3,7.1c-0.1,0.1-0.2,0.1-0.3,0.1
					l-7.3,1c-0.4,0.1-0.8,0.4-0.8,0.8l-1.1,5.2c-0.1,0.5,0.2,1,0.7,1.2l3.5,0.9c0.1,0,0.2,0,0.4,0l15.5-1.5c0.6-0.1,1.2,0.1,1.8,0.4
					l2.9,1.8c0.2,0.1,0.3,0.2,0.5,0.2h14.7c0.1,0,0.2,0,0.3,0l5.1-1.5c0.2,0,0.3-0.1,0.5,0l14.3,2.7c0.2,0,0.4,0.2,0.6,0.3l2.9,3.5
					c0.1,0.1,0.1,0.1,0.2,0.2l8.2,5.2c0.1,0.1,0.2,0.1,0.3,0.1l17.5,4.2l32.7,9.3c0.1,0,0.3,0,0.4,0l82-9.3c0,0,0.1,0,0.1,0h62.6
					c0.7,0,1.1-0.6,1-1.3l-1.7-6.2c0-0.1,0-0.3,0-0.5l0.7-3.7c0.1-0.3,0-0.6-0.3-0.9l-2.7-2.8c-0.2-0.2-0.3-0.4-0.3-0.7V518
					c0-0.3,0.2-0.6,0.4-0.8l5.4-3.6c0.3-0.2,0.4-0.5,0.4-0.8v-6.3c0-0.6-0.7-1-1.2-0.7l-7.4,4.7c-0.6,0.4-1.3,0.5-1.9,0.2l-4.6-1.5
					c-0.6-0.2-0.7-1.1-0.2-1.4l7.2-4.3c0.3-0.2,0.5-0.5,0.5-0.9v-2.6c0-0.4-0.2-0.7-0.6-0.9l-4.9-2.3c-0.7-0.3-0.8-1.4-0.1-1.8
					l4.9-2.7c0.3-0.2,0.5-0.5,0.5-0.9v-5.6c0-0.6-0.7-1-1.2-0.7l-7.1,4.7c-0.3,0.2-0.7,0.2-1,0.1l-2.4-1.1c-0.7-0.3-0.8-1.4-0.1-1.8
					l0,0c0.3-0.2,0.3-0.6,0-0.8l-6.4-3.3c-0.7-0.4-0.7-1.4,0-1.8l26.2-14v-11.3l-11.5,5.8c-0.7,0.3-1.5-0.1-1.5-0.9v-18.1l-73.5,37
					c-1.2,0.6-2.7,0.6-3.9-0.1l-56.3-32.2c-0.1-0.1-0.2-0.1-0.4-0.1l-54.8-6.8C540.6,440.3,540.1,440.7,540,441.2z"/>
				<path fill="#D1D1D1" d="M655.7,412l-2.4,7.2c-0.3,1-1.2,1.6-2.2,1.7l-37.5,1c-0.1,0-0.2,0-0.3,0.1l-16.3,6
					c-0.9,0.3-0.8,1.7,0.2,1.8l35.5,4c0.2,0,0.3,0.1,0.5,0.2l32,26.3l15.2,7.2L717,450l-8.5-4.9c-1.2-0.7-1.9-1.9-1.9-3.3v-23.3
					L655.7,412z"/>
				<path fill="#DFDFDF" d="M657.8,377.7L605,363.1c0.2-0.1,0.3-0.1,0.5-0.2l26.3-1.6l0.5,0l0.4-0.4l1.2-1.4c0,0,0,0,0,0
					c0.6-0.7,1.6-1,2.5-0.6l18.1,6.2l-6.9,2.4v2.9L657.8,377.7z"/>
				<path fill="#DFDFDF" d="M738.7,400.8l-12.6,2.4l-37.8-16.6l9.2-1.5v-4.9l40.7,20.1C738.4,400.5,738.6,400.7,738.7,400.8z"/>
			</g>
			<polygon fill="#E8E7E7" points="566.7,462.1 591.3,454.1 538.4,447.7 517.1,455.4 			"/>
			<polygon fill="#E8E7E7" points="493,474.8 475.5,487.8 514.9,507.2 551.7,485 			"/>
		</g>
		<polygon fill="#FFEDD1" points="294.4,518.1 379.2,496.8 334.9,524.2 		"/>
		<path fill="#FFE2C1" d="M326.5,519.3c0.1,0,0.2,0,0.3,0.1L326.5,519.3z"/>
		<path fill="#FFE2C1" d="M328.2,519.6l0.9,0.2C328.8,519.7,328.5,519.7,328.2,519.6z"/>
		<path fill="#FFE2C1" d="M326.5,519.3c0.1,0,0.2,0,0.3,0.1L326.5,519.3z"/>
		<path fill="#FFE2C1" d="M328.2,519.6l0.9,0.2C328.8,519.7,328.5,519.7,328.2,519.6z"/>
		<path fill="#FFEDD1" d="M403.2,510l0.2-0.2c0.8-1,0.9-2.4,0.4-3.5l0,0c-0.1-0.2-0.1-0.3-0.2-0.5l-0.7-2.4l4.1-8.9l-0.6-1.5
			L366.6,528l9.8,3.9l33.1-2.9l9.8-11.9l-15.4,2.5c0,0,0,0,0,0c-1.4,0.2-2.6-0.9-2.6-2.3l0-1.6C401.2,513.6,401.9,511.6,403.2,510z"
			/>
		<path fill="#FFE2C1" d="M465,545.1l-101.9,8.3L0,544.4v-50.9l14.5-5.6l58.8,10.6l26.7-10.6c0,0,31.8,25.1,70.2,6.4l106.7,23.7
			l49.5,1.3c0,0,0,0,0,0l90.8-38.7c0.9-0.4,1.6,0.7,0.9,1.4c-9.9,9.2-38.1,35.3-46.5,42.7c-0.9,0.8-0.5,2.3,0.7,2.5l7,1.2l62.8-17.6
			c1.3-0.4,2.7-0.6,4.1-0.6c0.7,0,1.3,0,2,0.1c0.5,0.1,0.6,0.7,0.2,1l-18.9,11.6l0,1.3l-13.9,6.3c-2,0.9-1.6,3.8,0.5,4.2l49,8.4
			C466.3,543.2,466.2,545,465,545.1z"/>
		<polygon fill="#F8DBB8" points="404,546.7 324.7,519.3 276.9,518.1 371.2,542.8 		"/>
		<path fill="#FFEDD1" d="M452.3,509l12.3-7.5l-7.4,2.8c-0.9,0.3-1.7,0.9-2.4,1.7L452.3,509z"/>
		<path fill="#FFE2C1" d="M599.2,546.6l-22.7,4l-96.4,0.8l-8.9-3.7l-0.1,0l21.2-2.1l10-3.6c0.8-0.3,0.8-1.5,0-1.7l-10.3-3.1
			c-1-0.3-0.9-1.7,0.1-1.9l11-2.4l12.5-10.2c1-0.9,2.4-1.1,3.7-0.8l36.4,10.3L599.2,546.6z"/>
		<path fill="#FFEDD1" d="M170.3,494.4l245.9,55c0.5,0.1,0.4,0.9-0.1,0.8l-201.8-25.7c-5.1-0.6-9.9-2.7-13.9-5.9L170.3,494.4z"/>
		<path fill="#FFEDD1" d="M100.1,488l42.8,24.5c0.6,0.3,0.2,1.2-0.4,1.1l-35.7-9.5c-0.7-0.2-1.3-0.7-1.6-1.4L100.1,488z"/>
		<path fill="#FFEDD1" d="M14.5,488l58.8,10.6l-48,1c-1.5,0-2.9-0.7-3.8-1.9L14.5,488z"/>
		<path fill="#F3D2A8" d="M723.8,536.3c0.3,0,13.9-4.9,18-6.4c0.7-0.2,1.4,0,1.8,0.6l6.1,5.4l28.7,7.2l-51.7-2.8L723.8,536.3z"/>
		<path fill="#FFE2C1" d="M589.5,546.9l90.5-15.6c1.3-0.2,2.7,0,3.9,0.6l10,5.4l23.8-6c1-0.3,2.1-0.2,3.1,0l16.2,4.5
			c3.5,1,7,1.6,10.6,1.8l13.5,1c2.8,0.2,5.6,0.2,8.3-0.1l0,0c7.2-0.6,14.2-2.6,20.6-6l9-4.7v22.8H592.2L589.5,546.9z"/>
		<rect y="567.9" fill="#F3D2A8" width="798.5" height="31"/>
		<rect x="0.9" y="567.9" fill="#F8DBB8" width="797.6" height="8.4"/>
		<path fill="#F8DBB8" d="M0,529.5l77.4,42.2l23.1,0.3c5.9,0.1,11.8,1,17.4,2.8l0.8,0.3c0.7,0.2,0.5,1.2-0.2,1.2H68.3l-21.7,3.6
			c-4.1,0.7-8.2,1-12.4,1H0V529.5z"/>
		<path fill="#FFE2C1" d="M64,585.7H0v-18.9l64.1,17.7C64.9,584.7,64.7,585.7,64,585.7z"/>
		<path fill="#FFEDD1" d="M24.8,587.4l-15.8-0.3c-0.2,0-0.3-0.3-0.2-0.4l0,0c1.5-1.6,3.7-2.4,5.8-1.9l10.2,2.1
			C25.2,587,25.2,587.4,24.8,587.4z"/>
		<path fill="#FFE2C1" d="M798.5,586h-43.4c-0.7,0-0.7-1-0.1-1.1l13.2-1.9c0.8-0.1,1.6-0.3,2.3-0.6l28-11V586z"/>
		<polygon fill="#FFE2C1" points="35.4,592.3 32.3,593.5 29.4,592.3 31.3,588.7 37.2,589.6 38.9,592.1 37.1,592.5 		"/>
		<path fill="#FFE2C1" d="M749.2,585c0.8-0.3,1.6,0,2,0.7l0.2,0.3h-4.9L749.2,585z"/>
		<g>
			<g>
				<path fill="#DEEDF9" d="M468.4,452l0.3,4.8l-1.1,3.5l-1.6,1.9c0,0-2.9,1.1-3.2,1.1c-0.3,0-5,0.3-5,0.3l-1.4-2.2
					c0,0-0.6-2.4-0.3-2.6S468.4,452,468.4,452z"/>
				<path fill="#DFDFDF" d="M474.8,452.3l-0.9,0.5l-1.7,1l-0.3-0.1l-0.5-0.2c-0.6-0.2-0.8-0.9-0.4-1.4c0.2-0.2,0.5-0.4,0.8-0.3
					c0,0,0.1,0,0.1,0l2.1,0.4l0.7,0.1L474.8,452.3z"/>
				<path fill="#D5D4D4" d="M458.4,462.8l0.6-1.5c0-0.1,0.2-0.2,0.3-0.2l0.9,0c0.1,0,0.2,0,0.3,0.1l1.1,1.6l1.8-1.5l1.8-1.7
					c0.2-0.2,0.2-0.5,0.1-0.8l-0.3-0.4c-0.1-0.2-0.1-0.4,0-0.5l0.6-0.8c0.1-0.1,0.2-0.2,0.3-0.2l2.2-0.1l-0.8,2.7l-2.2,2.3
					c0,0-2.6,1.4-2.9,1.5s-2,0.2-2,0.2C460.2,463.5,458.4,462.8,458.4,462.8z"/>
				<path fill="#DFDFDF" d="M454,462.2c0,0,2.4,2.3,2.7,2.4s9.7-1.2,9.7-1.2l4.4-4.4l0.6-5.2l-4.5-0.3c-0.3,0-0.5,0.2-0.5,0.4l0,0.7
					c0,0.2,0.1,0.4,0.3,0.4l0.9,0.4l-0.4,2l-1,2.4l-1.8,1.4l-1.3-0.6c-0.3-0.1-0.5,0-0.7,0.2l-1.3,2l-2.1-0.1l-1.7-0.7l0.2-1.3
					c0-0.2-0.1-0.3-0.2-0.4l-0.9-0.5c-0.2-0.1-0.4,0-0.5,0.1L454,462.2z"/>
				<path fill="#DEEDF9" d="M469.1,457.4l-0.1-1.8c0-0.4,0.3-0.6,0.7-0.6l1.3,0.2L469.1,457.4z"/>
				<path fill="#DFDFDF" d="M454,466.2l0.4-2.4c0.1-0.4-0.1-0.7-0.4-0.9l-1-0.6c-0.1-0.1-0.3-0.1-0.5-0.1l-2.4,0.1
					c-0.5,0-0.8,0.5-0.6,1l0.1,0.3c0.1,0.3,0.4,0.5,0.7,0.4l2.5-0.1c0.3,0,0.7,0.2,0.7,0.6l0.2,1.7L454,466.2z"/>
			</g>
			<circle fill="#D8D8D7" cx="455.5" cy="463.3" r="0.8"/>
			<circle fill="#D8D8D7" cx="458" cy="465.6" r="0.7"/>
			<circle fill="#D8D8D7" cx="473.6" cy="455.5" r="0.9"/>
			<circle fill="#D8D8D7" cx="476.6" cy="455.1" r="0.6"/>
		</g>
		<g>
			<path fill="#DEEDF9" d="M779.1,493.1l-0.5,1.8l-1,3.4l-1.3-0.1c0,0-0.1-1.2-0.1-1.6c0-0.1,0-0.1,0-0.1c0-0.1-1.1-1.1-1.1-1.1
				l-2.1-1.1l-0.6-0.2l0.3-1.4h1.2l0.1-0.4c0.2-0.6,0-1.3-0.5-1.8l-1.1-1.1l0.6-0.6l4.1,1.3L779.1,493.1z"/>
			<path fill="#DEEDF9" d="M774.1,498.6c0.4-0.1,0.6-0.4,0.7-0.7l0.1-1l-0.7-0.7l-1.4-0.5l-0.4,0.3l1.3,0.7l-0.2,0.9l-0.5,0.7
				l0.4,0.4L774.1,498.6z"/>
			<path fill="#DEEDF9" d="M768.9,490.5l-0.5-0.8c-0.1-0.1-0.3-0.1-0.4-0.1l-1.1,0.3c-0.1,0-0.2,0-0.3,0l-2.1-0.7l-0.4,0.4l3.6,1.7
				c0.1,0.1,0.3,0.1,0.4,0L768.9,490.5z"/>
			<path fill="#DEEDF9" d="M771,497.8l-1.1-0.5l-1.3-0.7l0.2-1.4c0-0.3-0.2-0.6-0.6-0.5l-0.7,0.1c-0.3,0-0.5,0.3-0.4,0.6l0.4,1.5
				c0,0-0.3,1,0,1.2c0.3,0.1,1,0.6,1.3,0.9c0.1,0.1,0.3,0.1,0.4,0.1h0.6c0.2,0,0.4-0.1,0.6-0.3L771,497.8z"/>
		</g>
	</g>
	<g>
		<rect x="626" y="357.1" fill="#CBCBCA" width="1.9" height="8"/>
		<rect x="630.7" y="357.1" fill="#CBCBCA" width="1.9" height="8"/>
		<path fill="#E5E5E4" d="M636.4,354.1c0,1.3-0.3,2.5-1,3.5c-1.2,2-3.4,3.3-5.8,3.4c0,0-0.1,0-0.1,0c-3.8,0.1-6.7-2.1-7-7
			c-0.2-3.8,3.1-7,7-7C633.2,347.2,636.4,350.3,636.4,354.1z"/>
		<path fill="#D8D8D7" d="M634.9,354.9c0,2.8-2.2,4.9-5,5c-2.7,0.1-4.8-1.5-5-5c-0.2-2.8,2.2-5,5-5
			C632.7,349.9,634.9,352.2,634.9,354.9z"/>
		<path fill="#D8D8D7" d="M636,354.9c0,1-0.2,1.9-0.7,2.7c-1.2,2-3.4,3.3-5.8,3.4c-3.2,0-5.6-2-5.8-6.2c-0.2-3.4,2.8-6.1,6.1-6.1
			C633.3,348.8,636,351.5,636,354.9z"/>
		<path fill="#CBCBCA" d="M634.7,355.3c0,2.5-2,4.4-4.5,4.5c-2.5,0.1-4.3-1.4-4.5-4.5c-0.1-2.5,2-4.5,4.5-4.5
			C632.7,350.8,634.7,352.8,634.7,355.3z"/>
	</g>
	<g>
		<rect x="722.2" y="390.7" fill="#CBCBCA" width="1.9" height="8"/>
		<rect x="726.9" y="390.7" fill="#CBCBCA" width="1.9" height="8"/>
		<path fill="#E5E5E4" d="M732.5,387.7c0,1.3-0.3,2.5-1,3.5c-1.2,2-3.4,3.3-5.8,3.4c0,0-0.1,0-0.1,0c-3.8,0.1-6.7-2.1-7-7
			c-0.2-3.8,3.1-7,7-7C729.4,380.8,732.5,383.9,732.5,387.7z"/>
		<path fill="#D8D8D7" d="M731,388.5c0,2.8-2.2,4.9-5,5c-2.7,0.1-4.8-1.5-5-5c-0.2-2.8,2.2-5,5-5S731,385.8,731,388.5z"/>
		<path fill="#D8D8D7" d="M732.2,388.5c0,1-0.2,1.9-0.7,2.7c-1.2,2-3.4,3.3-5.8,3.4c-3.2,0-5.6-2-5.8-6.2c-0.2-3.4,2.8-6.1,6.1-6.1
			C729.4,382.4,732.2,385.1,732.2,388.5z"/>
		<path fill="#CBCBCA" d="M730.9,388.8c0,2.5-2,4.4-4.5,4.5c-2.5,0.1-4.3-1.4-4.5-4.5c-0.1-2.5,2-4.5,4.5-4.5
			S730.9,386.4,730.9,388.8z"/>
	</g>
</g>
</svg>
