<svg width="3000px" height="600px" id="_Background" data-name="/Background" xmlns="http://www.w3.org/2000/svg" viewBox="0 0 3000 599.92"><title>scrolling-tattooine</title><rect width="3000" height="599.85" fill="#d4eef6"/><rect y="359.01" width="3000" height="60.64" fill="#e9f6fb"/><path d="M591,292H608.7a4.19,4.19,0,0,1,4.19,4.19v0a0,0,0,0,1,0,0h-26.1a0,0,0,0,1,0,0v0A4.19,4.19,0,0,1,591,292Z" fill="#fff"/><path d="M564.88,312.77H582.6a4.19,4.19,0,0,1,4.19,4.19v0a0,0,0,0,1,0,0h-26.1a0,0,0,0,1,0,0v0A4.19,4.19,0,0,1,564.88,312.77Z" fill="#fff"/><path d="M580.79,312.85h-12.1a4.2,4.2,0,0,1,4.19-4.19h3.72a4.2,4.2,0,0,1,4.19,4.19Z" transform="translate(0 -0.08)" fill="#fff"/><rect y="450.03" width="3000" height="149.89" fill="#ffe2b5"/><rect y="422.02" width="3000" height="28.01" fill="#ffebcb"/><path d="M2895.56,377.8H2776.84a20,20,0,0,0-17.31,10L2742,418h163.17V387.41A9.61,9.61,0,0,0,2895.56,377.8Z" transform="translate(0 -0.08)" fill="#fdf6eb"/><path d="M2880.11,350.26a20,20,0,0,0-16.48,8.67l-26.82,39a10,10,0,0,1-8.24,4.34H2434.3a17.05,17.05,0,0,0-5.75,1l-35.93,12.93a32.91,32.91,0,0,1-11.29,2l-1711.42-.24H650.09V418l-31.42.15a32.91,32.91,0,0,1-11.29-2l-35.93-12.93a17.05,17.05,0,0,0-5.75-1H171.43a10,10,0,0,1-8.24-4.34l-26.82-39a20,20,0,0,0-16.48-8.67H0V422.5H3000V350.26Z" transform="translate(0 -0.08)" fill="#fff3e1"/><path d="M140.6,224.65h47.73a4.19,4.19,0,0,1,4.19,4.19v0a0,0,0,0,1,0,0h-56.1a0,0,0,0,1,0,0v0a4.19,4.19,0,0,1,4.19-4.19Z" fill="#fff"/><path d="M200.87,244.34h17.72a4.19,4.19,0,0,1,4.19,4.19v0a0,0,0,0,1,0,0h-26.1a0,0,0,0,1,0,0v0a4.19,4.19,0,0,1,4.19-4.19Z" fill="#fff"/><path d="M156.57,220.46h20.75a4.19,4.19,0,0,1,4.19,4.19v0a0,0,0,0,1,0,0H152.38a0,0,0,0,1,0,0v0A4.19,4.19,0,0,1,156.57,220.46Z" fill="#fff"/><path d="M533.92,121.8h57.73a4.19,4.19,0,0,1,4.19,4.19v0a0,0,0,0,1,0,0h-66.1a0,0,0,0,1,0,0v0A4.19,4.19,0,0,1,533.92,121.8Z" fill="#fff"/><path d="M541.92,117.61h20.75a4.19,4.19,0,0,1,4.19,4.19v0a0,0,0,0,1,0,0H537.73a0,0,0,0,1,0,0v0A4.19,4.19,0,0,1,541.92,117.61Z" fill="#fff"/><path d="M525.41,443.95h26.32a0,0,0,0,1,0,0v6a0,0,0,0,1,0,0H519.36a0,0,0,0,1,0,0v0A6,6,0,0,1,525.41,443.95Z" fill="#ffe2b5"/><path d="M543.86,439.16h7.88a0,0,0,0,1,0,0v4.79a0,0,0,0,1,0,0H539.07a0,0,0,0,1,0,0v0A4.79,4.79,0,0,1,543.86,439.16Z" fill="#ffe2b5"/><path d="M1727.74,412.53h44a0,0,0,0,1,0,0v10.1a0,0,0,0,1,0,0h-54.07a0,0,0,0,1,0,0v0A10.1,10.1,0,0,1,1727.74,412.53Z" fill="#ffebcb"/><path d="M1758.54,404.54h13.16a0,0,0,0,1,0,0v8a0,0,0,0,1,0,0h-21.15a0,0,0,0,1,0,0v0A8,8,0,0,1,1758.54,404.54Z" fill="#ffebcb"/><path d="M20,141.25H77.76A4.19,4.19,0,0,1,82,145.44v0a0,0,0,0,1,0,0H15.85a0,0,0,0,1,0,0v0A4.19,4.19,0,0,1,20,141.25Z" fill="#fff"/><path d="M28,137.07H48.79A4.19,4.19,0,0,1,53,141.25v0a0,0,0,0,1,0,0H23.85a0,0,0,0,1,0,0v0A4.19,4.19,0,0,1,28,137.07Z" fill="#fff"/><path d="M1143.13,244.69h28.92a6.83,6.83,0,0,1,6.83,6.83v0a0,0,0,0,1,0,0H1136.3a0,0,0,0,1,0,0v0A6.83,6.83,0,0,1,1143.13,244.69Z" fill="#fff"/><path d="M860.55,161.64h28.92a6.83,6.83,0,0,1,6.83,6.83v0a0,0,0,0,1,0,0H853.72a0,0,0,0,1,0,0v0A6.83,6.83,0,0,1,860.55,161.64Z" fill="#fff"/><path d="M886.51,161.72H866.78a6.83,6.83,0,0,1,6.83-6.83h6.07a6.83,6.83,0,0,1,6.83,6.83Z" transform="translate(0 -0.08)" fill="#fff"/><path d="M1703.6,108.65h47.73a4.19,4.19,0,0,1,4.19,4.19v0a0,0,0,0,1,0,0h-56.1a0,0,0,0,1,0,0v0A4.19,4.19,0,0,1,1703.6,108.65Z" fill="#fff"/><path d="M1763.87,128.34h17.72a4.19,4.19,0,0,1,4.19,4.19v0a0,0,0,0,1,0,0h-26.1a0,0,0,0,1,0,0v0A4.19,4.19,0,0,1,1763.87,128.34Z" fill="#fff"/><path d="M1719.57,104.46h20.75a4.19,4.19,0,0,1,4.19,4.19v0a0,0,0,0,1,0,0h-29.12a0,0,0,0,1,0,0v0A4.19,4.19,0,0,1,1719.57,104.46Z" fill="#fff"/><path d="M2029.92,247.8h57.73a4.19,4.19,0,0,1,4.19,4.19v0a0,0,0,0,1,0,0h-66.1a0,0,0,0,1,0,0v0A4.19,4.19,0,0,1,2029.92,247.8Z" fill="#fff"/><path d="M2037.92,243.61h20.75a4.19,4.19,0,0,1,4.19,4.19v0a0,0,0,0,1,0,0h-29.12a0,0,0,0,1,0,0v0A4.19,4.19,0,0,1,2037.92,243.61Z" fill="#fff"/><path d="M2371.88,279.77h17.72a4.19,4.19,0,0,1,4.19,4.19v0a0,0,0,0,1,0,0h-26.1a0,0,0,0,1,0,0v0A4.19,4.19,0,0,1,2371.88,279.77Z" fill="#fff"/><path d="M2387.79,279.85h-12.1a4.2,4.2,0,0,1,4.19-4.19h3.72a4.2,4.2,0,0,1,4.19,4.19Z" transform="translate(0 -0.08)" fill="#fff"/><path d="M1429.88,175.77h17.72a4.19,4.19,0,0,1,4.19,4.19v0a0,0,0,0,1,0,0h-26.1a0,0,0,0,1,0,0v0a4.19,4.19,0,0,1,4.19-4.19Z" fill="#fff"/><path d="M1445.79,175.85h-12.1a4.2,4.2,0,0,1,4.19-4.19h3.72a4.2,4.2,0,0,1,4.19,4.19Z" transform="translate(0 -0.08)" fill="#fff"/><path d="M1179,269h17.72a4.19,4.19,0,0,1,4.19,4.19v0a0,0,0,0,1,0,0h-26.1a0,0,0,0,1,0,0v0A4.19,4.19,0,0,1,1179,269Z" fill="#fff"/><path d="M2656.13,132.69h28.92a6.83,6.83,0,0,1,6.83,6.83v0a0,0,0,0,1,0,0H2649.3a0,0,0,0,1,0,0v0A6.83,6.83,0,0,1,2656.13,132.69Z" fill="#fff"/><path d="M2692,157h17.72a4.19,4.19,0,0,1,4.19,4.19v0a0,0,0,0,1,0,0h-26.1a0,0,0,0,1,0,0v0A4.19,4.19,0,0,1,2692,157Z" fill="#fff"/><path d="M2730.13,105.69h28.92a6.83,6.83,0,0,1,6.83,6.83v0a0,0,0,0,1,0,0H2723.3a0,0,0,0,1,0,0v0A6.83,6.83,0,0,1,2730.13,105.69Z" fill="#fff"/><path d="M2756.79,106.85h-12.1a4.2,4.2,0,0,1,4.19-4.19h3.72a4.2,4.2,0,0,1,4.19,4.19Z" transform="translate(0 -0.08)" fill="#fff"/><path d="M2000,438.83h38.56a0,0,0,0,1,0,0V450a0,0,0,0,1,0,0h-48.64a0,0,0,0,1,0,0V448.9A10.07,10.07,0,0,1,2000,438.83Z" fill="#ffe2b5"/><path d="M2015.49,430h11.06a0,0,0,0,1,0,0v8.83a0,0,0,0,1,0,0h-19a0,0,0,0,1,0,0V438A8,8,0,0,1,2015.49,430Z" fill="#ffe2b5"/><path d="M2028.92,438.91h48.64a0,0,0,0,1,0,0v11.16a0,0,0,0,1,0,0H2039A10.07,10.07,0,0,1,2028.92,440v-1.09A0,0,0,0,1,2028.92,438.91Z" transform="translate(4106.47 888.9) rotate(-180)" fill="#ffe2b5"/><path d="M2016.92,430.08h19a0,0,0,0,1,0,0v8.83a0,0,0,0,1,0,0h-11.06a8,8,0,0,1-8-8v-.86A0,0,0,0,1,2016.92,430.08Z" transform="translate(4052.86 868.91) rotate(-180)" fill="#ffe2b5"/><line x1="2163.28" y1="447.96" x2="2163.28" y2="412" fill="none" stroke="#ced9d8" stroke-miterlimit="10" stroke-width="0.37"/><line x1="2168.65" y1="447.96" x2="2168.65" y2="412" fill="none" stroke="#ced9d8" stroke-miterlimit="10" stroke-width="0.37"/><rect x="2165.73" y="368.53" width="0.46" height="3.81" fill="#b6bfbe"/><path d="M2162.08,448h7.76a2,2,0,0,1,2,2v0a0,0,0,0,1,0,0H2160a0,0,0,0,1,0,0v0A2,2,0,0,1,2162.08,448Z" fill="#b7c1c1"/><path d="M2166,371h0a.66.66,0,0,1,.66.66V448a0,0,0,0,1,0,0h-1.31a0,0,0,0,1,0,0V371.67A.66.66,0,0,1,2166,371Z" fill="#ced9d8"/><circle cx="2165.97" cy="367.44" r="1.53" fill="#ced9d8"/><path d="M2154,378.3l8.22,1.13a.42.42,0,0,0,.47-.41v-5.18a.42.42,0,0,0-.47-.41l-8.22,1.13a.42.42,0,0,0-.35.41v2.92A.42.42,0,0,0,2154,378.3Z" transform="translate(0 -0.08)" fill="#d4dfdf"/><rect x="2165.31" y="372.61" width="1.31" height="7.49" fill="#d4dfdf"/><rect x="2162.65" y="376.14" width="2.66" height="0.44" fill="#ced9d8"/><path d="M2178,378.3l-8.21,1.13a.42.42,0,0,1-.48-.41v-5.18a.42.42,0,0,1,.48-.41l8.21,1.13a.43.43,0,0,1,.36.41v2.92A.43.43,0,0,1,2178,378.3Z" transform="translate(0 -0.08)" fill="#d4dfdf"/><rect x="2166.62" y="376.21" width="2.66" height="0.44" transform="translate(4335.9 752.78) rotate(-180)" fill="#ced9d8"/><rect x="2165.73" y="373.35" width="0.37" height="6.01" fill="#e8f5f3"/><rect x="2162.65" y="438.76" width="6.62" height="1.5" rx="0.37" ry="0.37" fill="#b7c1c1"/><rect x="2162.65" y="415.11" width="6.62" height="1.5" rx="0.37" ry="0.37" fill="#b7c1c1"/><path d="M2181.67,430.94h0a2.82,2.82,0,0,1,2.82,2.82V450a0,0,0,0,1,0,0h-5.64a0,0,0,0,1,0,0V433.76a2.82,2.82,0,0,1,2.82-2.82Z" fill="#e6d0c0"/><rect x="2178.43" y="434.47" width="6.48" height="2.22" rx="0.28" ry="0.28" fill="#d6c1b1"/><rect x="2178.43" y="444.24" width="6.48" height="2.22" rx="0.28" ry="0.28" fill="#d6c1b1"/><rect x="2178.85" y="427.71" width="5.64" height="1.27" rx="0.64" ry="0.64" fill="#e6d0c0"/><path d="M2181.31,429h.72a0,0,0,0,1,0,0v2.24a.36.36,0,0,1-.36.36h0a.36.36,0,0,1-.36-.36V429a0,0,0,0,1,0,0Z" fill="#f1e0d2"/><path d="M2181.67,397.79h0a.36.36,0,0,1,.36.36v29.57a0,0,0,0,1,0,0h-.72a0,0,0,0,1,0,0V398.14a.36.36,0,0,1,.36-.36Z" fill="#f1e0d2"/><line x1="2181.67" y1="398.32" x2="2181.67" y2="396.44" fill="none" stroke="#f1e0d2" stroke-miterlimit="10" stroke-width="0.28"/><circle cx="2181.67" cy="396.29" r="0.74" fill="#e6d0c0"/><line x1="1347.22" y1="447.96" x2="1347.22" y2="412" fill="none" stroke="#ced9d8" stroke-miterlimit="10" stroke-width="0.37"/><line x1="1352.59" y1="447.96" x2="1352.59" y2="412" fill="none" stroke="#ced9d8" stroke-miterlimit="10" stroke-width="0.37"/><rect x="1349.68" y="368.53" width="0.46" height="3.81" fill="#b6bfbe"/><path d="M1346,448h7.76a2,2,0,0,1,2,2v0a0,0,0,0,1,0,0H1344a0,0,0,0,1,0,0v0A2,2,0,0,1,1346,448Z" fill="#b7c1c1"/><path d="M1349.91,371h0a.66.66,0,0,1,.66.66V448a0,0,0,0,1,0,0h-1.31a0,0,0,0,1,0,0V371.67A.66.66,0,0,1,1349.91,371Z" fill="#ced9d8"/><circle cx="1349.91" cy="367.44" r="1.53" fill="#ced9d8"/><path d="M1337.91,378.3l8.21,1.13a.42.42,0,0,0,.47-.41v-5.18a.42.42,0,0,0-.47-.41l-8.21,1.13a.42.42,0,0,0-.36.41v2.92A.42.42,0,0,0,1337.91,378.3Z" transform="translate(0 -0.08)" fill="#d4dfdf"/><rect x="1349.25" y="372.61" width="1.31" height="7.49" fill="#d4dfdf"/><rect x="1346.59" y="376.14" width="2.66" height="0.44" fill="#ced9d8"/><path d="M1361.91,378.3l-8.21,1.13a.42.42,0,0,1-.47-.41v-5.18a.42.42,0,0,1,.47-.41l8.21,1.13a.42.42,0,0,1,.36.41v2.92A.42.42,0,0,1,1361.91,378.3Z" transform="translate(0 -0.08)" fill="#d4dfdf"/><rect x="1350.56" y="376.21" width="2.66" height="0.44" transform="translate(2703.79 752.78) rotate(-180)" fill="#ced9d8"/><rect x="1349.68" y="373.35" width="0.37" height="6.01" fill="#e8f5f3"/><rect x="1346.6" y="438.76" width="6.62" height="1.5" rx="0.37" ry="0.37" fill="#b7c1c1"/><rect x="1346.6" y="415.11" width="6.62" height="1.5" rx="0.37" ry="0.37" fill="#b7c1c1"/><path d="M1365.61,430.94h0a2.82,2.82,0,0,1,2.82,2.82V450a0,0,0,0,1,0,0h-5.64a0,0,0,0,1,0,0V433.76a2.82,2.82,0,0,1,2.82-2.82Z" fill="#e6d0c0"/><rect x="1362.37" y="434.47" width="6.48" height="2.22" rx="0.28" ry="0.28" fill="#d6c1b1"/><rect x="1362.37" y="444.24" width="6.48" height="2.22" rx="0.28" ry="0.28" fill="#d6c1b1"/><rect x="1362.79" y="427.71" width="5.64" height="1.27" rx="0.64" ry="0.64" fill="#e6d0c0"/><path d="M1365.25,429h.72a0,0,0,0,1,0,0v2.24a.36.36,0,0,1-.36.36h0a.36.36,0,0,1-.36-.36V429A0,0,0,0,1,1365.25,429Z" fill="#f1e0d2"/><path d="M1365.61,397.79h0a.36.36,0,0,1,.36.36v29.57a0,0,0,0,1,0,0h-.72a0,0,0,0,1,0,0V398.14A.36.36,0,0,1,1365.61,397.79Z" fill="#f1e0d2"/><line x1="1365.61" y1="398.32" x2="1365.61" y2="396.44" fill="none" stroke="#f1e0d2" stroke-miterlimit="10" stroke-width="0.28"/><circle cx="1365.61" cy="396.29" r="0.74" fill="#e6d0c0"/><line x1="838.88" y1="447.96" x2="838.88" y2="412" fill="none" stroke="#ced9d8" stroke-miterlimit="10" stroke-width="0.37"/><line x1="844.24" y1="447.96" x2="844.24" y2="412" fill="none" stroke="#ced9d8" stroke-miterlimit="10" stroke-width="0.37"/><rect x="841.33" y="368.53" width="0.46" height="3.81" fill="#b6bfbe"/><path d="M837.68,448h7.76a2,2,0,0,1,2,2v0a0,0,0,0,1,0,0H835.63a0,0,0,0,1,0,0v0a2,2,0,0,1,2-2Z" fill="#b7c1c1"/><path d="M841.56,371h0a.66.66,0,0,1,.66.66V448a0,0,0,0,1,0,0H840.9a0,0,0,0,1,0,0V371.67A.66.66,0,0,1,841.56,371Z" fill="#ced9d8"/><circle cx="841.56" cy="367.44" r="1.53" fill="#ced9d8"/><path d="M829.56,378.3l8.21,1.13a.42.42,0,0,0,.47-.41v-5.18a.42.42,0,0,0-.47-.41l-8.21,1.13a.42.42,0,0,0-.36.41v2.92A.42.42,0,0,0,829.56,378.3Z" transform="translate(0 -0.08)" fill="#d4dfdf"/><rect x="840.9" y="372.61" width="1.31" height="7.49" fill="#d4dfdf"/><rect x="838.24" y="376.14" width="2.66" height="0.44" fill="#ced9d8"/><path d="M853.56,378.3l-8.21,1.13a.42.42,0,0,1-.47-.41v-5.18a.42.42,0,0,1,.47-.41l8.21,1.13a.42.42,0,0,1,.36.41v2.92A.42.42,0,0,1,853.56,378.3Z" transform="translate(0 -0.08)" fill="#d4dfdf"/><rect x="842.22" y="376.21" width="2.66" height="0.44" transform="translate(1687.09 752.78) rotate(-180)" fill="#ced9d8"/><rect x="841.33" y="373.35" width="0.37" height="6.01" fill="#e8f5f3"/><rect x="838.25" y="438.76" width="6.62" height="1.5" rx="0.37" ry="0.37" fill="#b7c1c1"/><rect x="838.25" y="415.11" width="6.62" height="1.5" rx="0.37" ry="0.37" fill="#b7c1c1"/><path d="M857.26,430.94h0a2.82,2.82,0,0,1,2.82,2.82V450a0,0,0,0,1,0,0h-5.64a0,0,0,0,1,0,0V433.76a2.82,2.82,0,0,1,2.82-2.82Z" fill="#e6d0c0"/><rect x="854.02" y="434.47" width="6.48" height="2.22" rx="0.28" ry="0.28" fill="#d6c1b1"/><rect x="854.02" y="444.24" width="6.48" height="2.22" rx="0.28" ry="0.28" fill="#d6c1b1"/><rect x="854.44" y="427.71" width="5.64" height="1.27" rx="0.64" ry="0.64" fill="#e6d0c0"/><path d="M856.9,429h.72a0,0,0,0,1,0,0v2.24a.36.36,0,0,1-.36.36h0a.36.36,0,0,1-.36-.36V429A0,0,0,0,1,856.9,429Z" fill="#f1e0d2"/><path d="M857.26,397.79h0a.36.36,0,0,1,.36.36v29.57a0,0,0,0,1,0,0h-.72a0,0,0,0,1,0,0V398.14A.36.36,0,0,1,857.26,397.79Z" fill="#f1e0d2"/><line x1="857.26" y1="398.32" x2="857.26" y2="396.44" fill="none" stroke="#f1e0d2" stroke-miterlimit="10" stroke-width="0.28"/><circle cx="857.26" cy="396.29" r="0.74" fill="#e6d0c0"/><line x1="2562.79" y1="422.15" x2="2562.79" y2="414.97" fill="none" stroke="#ced9d8" stroke-miterlimit="10" stroke-width="0.07"/><line x1="2563.87" y1="422.15" x2="2563.87" y2="414.97" fill="none" stroke="#ced9d8" stroke-miterlimit="10" stroke-width="0.07"/><rect x="2563.28" y="406.3" width="0.09" height="0.76" fill="#b6bfbe"/><path d="M2562.56,422.15h1.55a.41.41,0,0,1,.41.41v0a0,0,0,0,1,0,0h-2.37a0,0,0,0,1,0,0v0A.41.41,0,0,1,2562.56,422.15Z" fill="#b7c1c1"/><path d="M2563.33,406.79h0a.13.13,0,0,1,.13.13v15.22a0,0,0,0,1,0,0h-.26a0,0,0,0,1,0,0V406.92A.13.13,0,0,1,2563.33,406.79Z" fill="#ced9d8"/><circle cx="2563.33" cy="406.08" r="0.3" fill="#ced9d8"/><path d="M2560.94,408.31l1.63.22a.08.08,0,0,0,.1-.08v-1a.08.08,0,0,0-.1-.08l-1.63.22c-.05,0-.08,0-.08.08v.58A.09.09,0,0,0,2560.94,408.31Z" transform="translate(0 -0.08)" fill="#d4dfdf"/><rect x="2563.2" y="407.11" width="0.26" height="1.49" fill="#d4dfdf"/><rect x="2562.67" y="407.81" width="0.53" height="0.09" fill="#ced9d8"/><path d="M2565.73,408.31l-1.64.22a.08.08,0,0,1-.1-.08v-1a.08.08,0,0,1,.1-.08l1.64.22a.08.08,0,0,1,.07.08v.58A.09.09,0,0,1,2565.73,408.31Z" transform="translate(0 -0.08)" fill="#d4dfdf"/><rect x="2563.46" y="407.89" width="0.53" height="0.09" transform="translate(5127.45 815.79) rotate(-180)" fill="#ced9d8"/><rect x="2563.28" y="407.26" width="0.07" height="1.2" fill="#e8f5f3"/><rect x="2562.67" y="420.31" width="1.32" height="0.3" rx="0.07" ry="0.07" fill="#b7c1c1"/><rect x="2562.67" y="415.59" width="1.32" height="0.3" rx="0.07" ry="0.07" fill="#b7c1c1"/><path d="M2566.46,418.75h0a.56.56,0,0,1,.56.56v3.24a0,0,0,0,1,0,0h-1.13a0,0,0,0,1,0,0v-3.24A.56.56,0,0,1,2566.46,418.75Z" fill="#e6d0c0"/><rect x="2565.82" y="419.45" width="1.29" height="0.44" rx="0.06" ry="0.06" fill="#d6c1b1"/><rect x="2565.82" y="421.4" width="1.29" height="0.44" rx="0.06" ry="0.06" fill="#d6c1b1"/><rect x="2565.9" y="418.11" width="1.13" height="0.25" rx="0.13" ry="0.13" fill="#e6d0c0"/><path d="M2566.39,418.36h.14a0,0,0,0,1,0,0v.45a.07.07,0,0,1-.07.07h0a.07.07,0,0,1-.07-.07v-.45A0,0,0,0,1,2566.39,418.36Z" fill="#f1e0d2"/><path d="M2566.46,412.13h0a.07.07,0,0,1,.07.07v5.9a0,0,0,0,1,0,0h-.14a0,0,0,0,1,0,0v-5.9A.07.07,0,0,1,2566.46,412.13Z" fill="#f1e0d2"/><line x1="2566.46" y1="412.24" x2="2566.46" y2="411.87" fill="none" stroke="#f1e0d2" stroke-miterlimit="10" stroke-width="0.06"/><circle cx="2566.46" cy="411.84" r="0.15" fill="#e6d0c0"/><line x1="2257.39" y1="422.15" x2="2257.39" y2="414.97" fill="none" stroke="#ced9d8" stroke-miterlimit="10" stroke-width="0.07"/><line x1="2258.46" y1="422.15" x2="2258.46" y2="414.97" fill="none" stroke="#ced9d8" stroke-miterlimit="10" stroke-width="0.07"/><rect x="2257.88" y="406.3" width="0.09" height="0.76" fill="#b6bfbe"/><path d="M2257.15,422.15h1.55a.41.41,0,0,1,.41.41v0a0,0,0,0,1,0,0h-2.37a0,0,0,0,1,0,0v0A.41.41,0,0,1,2257.15,422.15Z" fill="#b7c1c1"/><path d="M2257.92,406.79h0a.13.13,0,0,1,.13.13v15.22a0,0,0,0,1,0,0h-.26a0,0,0,0,1,0,0V406.92a.13.13,0,0,1,.13-.13Z" fill="#ced9d8"/><circle cx="2257.92" cy="406.08" r="0.3" fill="#ced9d8"/><path d="M2255.53,408.31l1.64.22a.08.08,0,0,0,.09-.08v-1a.08.08,0,0,0-.09-.08l-1.64.22a.08.08,0,0,0-.07.08v.58A.09.09,0,0,0,2255.53,408.31Z" transform="translate(0 -0.08)" fill="#d4dfdf"/><rect x="2257.79" y="407.11" width="0.26" height="1.49" fill="#d4dfdf"/><rect x="2257.26" y="407.81" width="0.53" height="0.09" fill="#ced9d8"/><path d="M2260.32,408.31l-1.64.22a.08.08,0,0,1-.1-.08v-1a.08.08,0,0,1,.1-.08l1.64.22a.08.08,0,0,1,.07.08v.58A.09.09,0,0,1,2260.32,408.31Z" transform="translate(0 -0.08)" fill="#d4dfdf"/><rect x="2258.05" y="407.89" width="0.53" height="0.09" transform="translate(4516.64 815.79) rotate(-180)" fill="#ced9d8"/><rect x="2257.88" y="407.26" width="0.07" height="1.2" fill="#e8f5f3"/><rect x="2257.26" y="420.31" width="1.32" height="0.3" rx="0.07" ry="0.07" fill="#b7c1c1"/><rect x="2257.26" y="415.59" width="1.32" height="0.3" rx="0.07" ry="0.07" fill="#b7c1c1"/><path d="M2261.05,418.75h0a.56.56,0,0,1,.56.56v3.24a0,0,0,0,1,0,0h-1.13a0,0,0,0,1,0,0v-3.24a.56.56,0,0,1,.56-.56Z" fill="#e6d0c0"/><rect x="2260.41" y="419.45" width="1.29" height="0.44" rx="0.06" ry="0.06" fill="#d6c1b1"/><rect x="2260.41" y="421.4" width="1.29" height="0.44" rx="0.06" ry="0.06" fill="#d6c1b1"/><rect x="2260.49" y="418.11" width="1.13" height="0.25" rx="0.13" ry="0.13" fill="#e6d0c0"/><path d="M2261,418.36h.14a0,0,0,0,1,0,0v.45a.07.07,0,0,1-.07.07h0a.07.07,0,0,1-.07-.07v-.45A0,0,0,0,1,2261,418.36Z" fill="#f1e0d2"/><path d="M2261.05,412.13h0a.07.07,0,0,1,.07.07v5.9a0,0,0,0,1,0,0H2261a0,0,0,0,1,0,0v-5.9A.07.07,0,0,1,2261.05,412.13Z" fill="#f1e0d2"/><line x1="2261.05" y1="412.24" x2="2261.05" y2="411.87" fill="none" stroke="#f1e0d2" stroke-miterlimit="10" stroke-width="0.06"/><circle cx="2261.05" cy="411.84" r="0.15" fill="#e6d0c0"/><line x1="1842.48" y1="422.15" x2="1842.48" y2="414.97" fill="none" stroke="#ced9d8" stroke-miterlimit="10" stroke-width="0.07"/><line x1="1843.56" y1="422.15" x2="1843.56" y2="414.97" fill="none" stroke="#ced9d8" stroke-miterlimit="10" stroke-width="0.07"/><rect x="1842.97" y="406.3" width="0.09" height="0.76" fill="#b6bfbe"/><path d="M1842.25,422.15h1.55a.41.41,0,0,1,.41.41v0a0,0,0,0,1,0,0h-2.37a0,0,0,0,1,0,0v0A.41.41,0,0,1,1842.25,422.15Z" fill="#b7c1c1"/><path d="M1843,406.79h0a.13.13,0,0,1,.13.13v15.22a0,0,0,0,1,0,0h-.26a0,0,0,0,1,0,0V406.92A.13.13,0,0,1,1843,406.79Z" fill="#ced9d8"/><circle cx="1843.02" cy="406.08" r="0.3" fill="#ced9d8"/><path d="M1840.62,408.31l1.64.22a.08.08,0,0,0,.1-.08v-1a.08.08,0,0,0-.1-.08l-1.64.22a.08.08,0,0,0-.07.08v.58A.09.09,0,0,0,1840.62,408.31Z" transform="translate(0 -0.08)" fill="#d4dfdf"/><rect x="1842.89" y="407.11" width="0.26" height="1.49" fill="#d4dfdf"/><rect x="1842.36" y="407.81" width="0.53" height="0.09" fill="#ced9d8"/><path d="M1845.41,408.31l-1.63.22a.08.08,0,0,1-.1-.08v-1a.08.08,0,0,1,.1-.08l1.63.22s.08,0,.08.08v.58A.09.09,0,0,1,1845.41,408.31Z" transform="translate(0 -0.08)" fill="#d4dfdf"/><rect x="1843.15" y="407.89" width="0.53" height="0.09" transform="translate(3686.83 815.79) rotate(-180)" fill="#ced9d8"/><rect x="1842.97" y="407.26" width="0.07" height="1.2" fill="#e8f5f3"/><rect x="1842.36" y="420.31" width="1.32" height="0.3" rx="0.07" ry="0.07" fill="#b7c1c1"/><rect x="1842.36" y="415.59" width="1.32" height="0.3" rx="0.07" ry="0.07" fill="#b7c1c1"/><path d="M1846.15,418.75h0a.56.56,0,0,1,.56.56v3.24a0,0,0,0,1,0,0h-1.13a0,0,0,0,1,0,0v-3.24A.56.56,0,0,1,1846.15,418.75Z" fill="#e6d0c0"/><rect x="1845.51" y="419.45" width="1.29" height="0.44" rx="0.06" ry="0.06" fill="#d6c1b1"/><rect x="1845.51" y="421.4" width="1.29" height="0.44" rx="0.06" ry="0.06" fill="#d6c1b1"/><rect x="1845.59" y="418.11" width="1.13" height="0.25" rx="0.13" ry="0.13" fill="#e6d0c0"/><path d="M1846.08,418.36h.14a0,0,0,0,1,0,0v.45a.07.07,0,0,1-.07.07h0a.07.07,0,0,1-.07-.07v-.45A0,0,0,0,1,1846.08,418.36Z" fill="#f1e0d2"/><path d="M1846.15,412.13h0a.07.07,0,0,1,.07.07v5.9a0,0,0,0,1,0,0h-.14a0,0,0,0,1,0,0v-5.9A.07.07,0,0,1,1846.15,412.13Z" fill="#f1e0d2"/><line x1="1846.15" y1="412.24" x2="1846.15" y2="411.87" fill="none" stroke="#f1e0d2" stroke-miterlimit="10" stroke-width="0.06"/><circle cx="1846.15" cy="411.84" r="0.15" fill="#e6d0c0"/><line x1="1014.3" y1="422.15" x2="1014.3" y2="414.97" fill="none" stroke="#ced9d8" stroke-miterlimit="10" stroke-width="0.07"/><line x1="1015.37" y1="422.15" x2="1015.37" y2="414.97" fill="none" stroke="#ced9d8" stroke-miterlimit="10" stroke-width="0.07"/><rect x="1014.79" y="406.3" width="0.09" height="0.76" fill="#b6bfbe"/><path d="M1014.06,422.15h1.55a.41.41,0,0,1,.41.41v0a0,0,0,0,1,0,0h-2.37a0,0,0,0,1,0,0v0a.41.41,0,0,1,.41-.41Z" fill="#b7c1c1"/><path d="M1014.84,406.79h0a.13.13,0,0,1,.13.13v15.22a0,0,0,0,1,0,0h-.26a0,0,0,0,1,0,0V406.92A.13.13,0,0,1,1014.84,406.79Z" fill="#ced9d8"/><circle cx="1014.84" cy="406.08" r="0.3" fill="#ced9d8"/><path d="M1012.44,408.31l1.64.22a.08.08,0,0,0,.09-.08v-1a.08.08,0,0,0-.09-.08l-1.64.22a.08.08,0,0,0-.07.08v.58A.09.09,0,0,0,1012.44,408.31Z" transform="translate(0 -0.08)" fill="#d4dfdf"/><rect x="1014.7" y="407.11" width="0.26" height="1.49" fill="#d4dfdf"/><rect x="1014.17" y="407.81" width="0.53" height="0.09" fill="#ced9d8"/><path d="M1017.23,408.31l-1.64.22a.08.08,0,0,1-.09-.08v-1a.08.08,0,0,1,.09-.08l1.64.22a.08.08,0,0,1,.07.08v.58A.09.09,0,0,1,1017.23,408.31Z" transform="translate(0 -0.08)" fill="#d4dfdf"/><rect x="1014.97" y="407.89" width="0.53" height="0.09" transform="translate(2030.46 815.79) rotate(-180)" fill="#ced9d8"/><rect x="1014.79" y="407.26" width="0.07" height="1.2" fill="#e8f5f3"/><rect x="1014.17" y="420.31" width="1.32" height="0.3" rx="0.07" ry="0.07" fill="#b7c1c1"/><rect x="1014.17" y="415.59" width="1.32" height="0.3" rx="0.07" ry="0.07" fill="#b7c1c1"/><path d="M1018,418.75h0a.56.56,0,0,1,.56.56v3.24a0,0,0,0,1,0,0h-1.13a0,0,0,0,1,0,0v-3.24A.56.56,0,0,1,1018,418.75Z" fill="#e6d0c0"/><rect x="1017.32" y="419.45" width="1.29" height="0.44" rx="0.06" ry="0.06" fill="#d6c1b1"/><rect x="1017.32" y="421.4" width="1.29" height="0.44" rx="0.06" ry="0.06" fill="#d6c1b1"/><rect x="1017.41" y="418.11" width="1.13" height="0.25" rx="0.13" ry="0.13" fill="#e6d0c0"/><path d="M1017.9,418.36h.14a0,0,0,0,1,0,0v.45a.07.07,0,0,1-.07.07h0a.07.07,0,0,1-.07-.07v-.45A0,0,0,0,1,1017.9,418.36Z" fill="#f1e0d2"/><path d="M1018,412.13h0a.07.07,0,0,1,.07.07v5.9a0,0,0,0,1,0,0h-.14a0,0,0,0,1,0,0v-5.9A.07.07,0,0,1,1018,412.13Z" fill="#f1e0d2"/><line x1="1017.97" y1="412.24" x2="1017.97" y2="411.87" fill="none" stroke="#f1e0d2" stroke-miterlimit="10" stroke-width="0.06"/><circle cx="1017.97" cy="411.84" r="0.15" fill="#e6d0c0"/><line x1="593.66" y1="422.15" x2="593.66" y2="414.97" fill="none" stroke="#ced9d8" stroke-miterlimit="10" stroke-width="0.07"/><line x1="594.73" y1="422.15" x2="594.73" y2="414.97" fill="none" stroke="#ced9d8" stroke-miterlimit="10" stroke-width="0.07"/><rect x="594.15" y="406.3" width="0.09" height="0.76" fill="#b6bfbe"/><path d="M593.42,422.15H595a.41.41,0,0,1,.41.41v0a0,0,0,0,1,0,0H593a0,0,0,0,1,0,0v0a.41.41,0,0,1,.41-.41Z" fill="#b7c1c1"/><path d="M594.2,406.79h0a.13.13,0,0,1,.13.13v15.22a0,0,0,0,1,0,0h-.26a0,0,0,0,1,0,0V406.92A.13.13,0,0,1,594.2,406.79Z" fill="#ced9d8"/><circle cx="594.2" cy="406.08" r="0.3" fill="#ced9d8"/><path d="M591.8,408.31l1.64.22a.08.08,0,0,0,.09-.08v-1a.08.08,0,0,0-.09-.08l-1.64.22a.08.08,0,0,0-.07.08v.58A.09.09,0,0,0,591.8,408.31Z" transform="translate(0 -0.08)" fill="#d4dfdf"/><rect x="594.06" y="407.11" width="0.26" height="1.49" fill="#d4dfdf"/><rect x="593.53" y="407.81" width="0.53" height="0.09" fill="#ced9d8"/><path d="M596.59,408.31l-1.64.22a.08.08,0,0,1-.09-.08v-1a.08.08,0,0,1,.09-.08l1.64.22a.08.08,0,0,1,.07.08v.58A.09.09,0,0,1,596.59,408.31Z" transform="translate(0 -0.08)" fill="#d4dfdf"/><rect x="594.33" y="407.89" width="0.53" height="0.09" transform="translate(1189.18 815.79) rotate(-180)" fill="#ced9d8"/><rect x="594.15" y="407.26" width="0.07" height="1.2" fill="#e8f5f3"/><rect x="593.53" y="420.31" width="1.32" height="0.3" rx="0.07" ry="0.07" fill="#b7c1c1"/><rect x="593.53" y="415.59" width="1.32" height="0.3" rx="0.07" ry="0.07" fill="#b7c1c1"/><path d="M597.33,418.75h0a.56.56,0,0,1,.56.56v3.24a0,0,0,0,1,0,0h-1.13a0,0,0,0,1,0,0v-3.24a.56.56,0,0,1,.56-.56Z" fill="#e6d0c0"/><rect x="596.68" y="419.45" width="1.29" height="0.44" rx="0.06" ry="0.06" fill="#d6c1b1"/><rect x="596.68" y="421.4" width="1.29" height="0.44" rx="0.06" ry="0.06" fill="#d6c1b1"/><rect x="596.77" y="418.11" width="1.13" height="0.25" rx="0.13" ry="0.13" fill="#e6d0c0"/><path d="M597.26,418.36h.14a0,0,0,0,1,0,0v.45a.07.07,0,0,1-.07.07h0a.07.07,0,0,1-.07-.07v-.45A0,0,0,0,1,597.26,418.36Z" fill="#f1e0d2"/><path d="M597.33,412.13h0a.07.07,0,0,1,.07.07v5.9a0,0,0,0,1,0,0h-.14a0,0,0,0,1,0,0v-5.9a.07.07,0,0,1,.07-.07Z" fill="#f1e0d2"/><line x1="597.33" y1="412.24" x2="597.33" y2="411.87" fill="none" stroke="#f1e0d2" stroke-miterlimit="10" stroke-width="0.06"/><circle cx="597.33" cy="411.84" r="0.15" fill="#e6d0c0"/><line x1="306.9" y1="422.15" x2="306.9" y2="414.97" fill="none" stroke="#ced9d8" stroke-miterlimit="10" stroke-width="0.07"/><line x1="307.97" y1="422.15" x2="307.97" y2="414.97" fill="none" stroke="#ced9d8" stroke-miterlimit="10" stroke-width="0.07"/><rect x="307.39" y="406.3" width="0.09" height="0.76" fill="#b6bfbe"/><path d="M306.66,422.15h1.55a.41.41,0,0,1,.41.41v0a0,0,0,0,1,0,0h-2.37a0,0,0,0,1,0,0v0A.41.41,0,0,1,306.66,422.15Z" fill="#b7c1c1"/><path d="M307.43,406.79h0a.13.13,0,0,1,.13.13v15.22a0,0,0,0,1,0,0h-.26a0,0,0,0,1,0,0V406.92A.13.13,0,0,1,307.43,406.79Z" fill="#ced9d8"/><circle cx="307.43" cy="406.08" r="0.3" fill="#ced9d8"/><path d="M305,408.31l1.64.22a.08.08,0,0,0,.09-.08v-1a.08.08,0,0,0-.09-.08l-1.64.22a.08.08,0,0,0-.07.08v.58A.09.09,0,0,0,305,408.31Z" transform="translate(0 -0.08)" fill="#d4dfdf"/><rect x="307.3" y="407.11" width="0.26" height="1.49" fill="#d4dfdf"/><rect x="306.77" y="407.81" width="0.53" height="0.09" fill="#ced9d8"/><path d="M309.83,408.31l-1.64.22a.08.08,0,0,1-.09-.08v-1a.08.08,0,0,1,.09-.08l1.64.22a.08.08,0,0,1,.07.08v.58A.09.09,0,0,1,309.83,408.31Z" transform="translate(0 -0.08)" fill="#d4dfdf"/><rect x="307.56" y="407.89" width="0.53" height="0.09" transform="translate(615.66 815.79) rotate(-180)" fill="#ced9d8"/><rect x="307.39" y="407.26" width="0.07" height="1.2" fill="#e8f5f3"/><rect x="306.77" y="420.31" width="1.32" height="0.3" rx="0.07" ry="0.07" fill="#b7c1c1"/><rect x="306.77" y="415.59" width="1.32" height="0.3" rx="0.07" ry="0.07" fill="#b7c1c1"/><path d="M310.57,418.75h0a.56.56,0,0,1,.56.56v3.24a0,0,0,0,1,0,0H310a0,0,0,0,1,0,0v-3.24a.56.56,0,0,1,.56-.56Z" fill="#e6d0c0"/><rect x="309.92" y="419.45" width="1.29" height="0.44" rx="0.06" ry="0.06" fill="#d6c1b1"/><rect x="309.92" y="421.4" width="1.29" height="0.44" rx="0.06" ry="0.06" fill="#d6c1b1"/><rect x="310" y="418.11" width="1.13" height="0.25" rx="0.13" ry="0.13" fill="#e6d0c0"/><path d="M310.5,418.36h.14a0,0,0,0,1,0,0v.45a.07.07,0,0,1-.07.07h0a.07.07,0,0,1-.07-.07v-.45A0,0,0,0,1,310.5,418.36Z" fill="#f1e0d2"/><path d="M310.57,412.13h0a.07.07,0,0,1,.07.07v5.9a0,0,0,0,1,0,0h-.14a0,0,0,0,1,0,0v-5.9A.07.07,0,0,1,310.57,412.13Z" fill="#f1e0d2"/><line x1="310.57" y1="412.24" x2="310.57" y2="411.87" fill="none" stroke="#f1e0d2" stroke-miterlimit="10" stroke-width="0.06"/><circle cx="310.57" cy="411.84" r="0.15" fill="#e6d0c0"/><line x1="2904.58" y1="422.15" x2="2904.58" y2="414.97" fill="none" stroke="#ced9d8" stroke-miterlimit="10" stroke-width="0.07"/><line x1="2905.66" y1="422.15" x2="2905.66" y2="414.97" fill="none" stroke="#ced9d8" stroke-miterlimit="10" stroke-width="0.07"/><rect x="2905.07" y="406.3" width="0.09" height="0.76" fill="#b6bfbe"/><path d="M2904.35,422.15h1.55a.41.41,0,0,1,.41.41v0a0,0,0,0,1,0,0h-2.37a0,0,0,0,1,0,0v0a.41.41,0,0,1,.41-.41Z" fill="#b7c1c1"/><path d="M2905.12,406.79h0a.13.13,0,0,1,.13.13v15.22a0,0,0,0,1,0,0H2905a0,0,0,0,1,0,0V406.92a.13.13,0,0,1,.13-.13Z" fill="#ced9d8"/><circle cx="2905.12" cy="406.08" r="0.3" fill="#ced9d8"/><path d="M2902.73,408.31l1.63.22a.08.08,0,0,0,.1-.08v-1a.08.08,0,0,0-.1-.08l-1.63.22c-.05,0-.08,0-.08.08v.58A.09.09,0,0,0,2902.73,408.31Z" transform="translate(0 -0.08)" fill="#d4dfdf"/><rect x="2904.99" y="407.11" width="0.26" height="1.49" fill="#d4dfdf"/><rect x="2904.46" y="407.81" width="0.53" height="0.09" fill="#ced9d8"/><path d="M2907.51,408.31l-1.63.22a.08.08,0,0,1-.1-.08v-1a.08.08,0,0,1,.1-.08l1.63.22s.08,0,.08.08v.58A.09.09,0,0,1,2907.51,408.31Z" transform="translate(0 -0.08)" fill="#d4dfdf"/><rect x="2905.25" y="407.89" width="0.53" height="0.09" transform="translate(5811.03 815.79) rotate(-180)" fill="#ced9d8"/><rect x="2905.07" y="407.26" width="0.07" height="1.2" fill="#e8f5f3"/><rect x="2904.46" y="420.31" width="1.32" height="0.3" rx="0.07" ry="0.07" fill="#b7c1c1"/><rect x="2904.46" y="415.59" width="1.32" height="0.3" rx="0.07" ry="0.07" fill="#b7c1c1"/><path d="M2908.25,418.75h0a.56.56,0,0,1,.56.56v3.24a0,0,0,0,1,0,0h-1.13a0,0,0,0,1,0,0v-3.24A.56.56,0,0,1,2908.25,418.75Z" fill="#e6d0c0"/><rect x="2907.61" y="419.45" width="1.29" height="0.44" rx="0.06" ry="0.06" fill="#d6c1b1"/><rect x="2907.61" y="421.4" width="1.29" height="0.44" rx="0.06" ry="0.06" fill="#d6c1b1"/><rect x="2907.69" y="418.11" width="1.13" height="0.25" rx="0.13" ry="0.13" fill="#e6d0c0"/><path d="M2908.18,418.36h.14a0,0,0,0,1,0,0v.45a.07.07,0,0,1-.07.07h0a.07.07,0,0,1-.07-.07v-.45A0,0,0,0,1,2908.18,418.36Z" fill="#f1e0d2"/><path d="M2908.25,412.13h0a.07.07,0,0,1,.07.07v5.9a0,0,0,0,1,0,0h-.14a0,0,0,0,1,0,0v-5.9A.07.07,0,0,1,2908.25,412.13Z" fill="#f1e0d2"/><line x1="2908.25" y1="412.24" x2="2908.25" y2="411.87" fill="none" stroke="#f1e0d2" stroke-miterlimit="10" stroke-width="0.06"/><circle cx="2908.25" cy="411.84" r="0.15" fill="#e6d0c0"/><line x1="176.67" y1="447.96" x2="176.67" y2="412" fill="none" stroke="#ced9d8" stroke-miterlimit="10" stroke-width="0.37"/><line x1="182.04" y1="447.96" x2="182.04" y2="412" fill="none" stroke="#ced9d8" stroke-miterlimit="10" stroke-width="0.37"/><rect x="179.13" y="368.53" width="0.46" height="3.81" fill="#b6bfbe"/><path d="M175.48,448h7.76a2,2,0,0,1,2,2v0a0,0,0,0,1,0,0H173.43a0,0,0,0,1,0,0v0A2,2,0,0,1,175.48,448Z" fill="#b7c1c1"/><path d="M179.36,371h0a.66.66,0,0,1,.66.66V448a0,0,0,0,1,0,0H178.7a0,0,0,0,1,0,0V371.67A.66.66,0,0,1,179.36,371Z" fill="#ced9d8"/><circle cx="179.36" cy="367.44" r="1.53" fill="#ced9d8"/><path d="M167.36,378.3l8.21,1.13A.42.42,0,0,0,176,379v-5.18a.42.42,0,0,0-.47-.41l-8.21,1.13a.42.42,0,0,0-.36.41v2.92A.42.42,0,0,0,167.36,378.3Z" transform="translate(0 -0.08)" fill="#d4dfdf"/><rect x="178.7" y="372.61" width="1.31" height="7.49" fill="#d4dfdf"/><rect x="176.04" y="376.14" width="2.66" height="0.44" fill="#ced9d8"/><path d="M191.36,378.3l-8.21,1.13a.42.42,0,0,1-.47-.41v-5.18a.42.42,0,0,1,.47-.41l8.21,1.13a.43.43,0,0,1,.36.41v2.92A.43.43,0,0,1,191.36,378.3Z" transform="translate(0 -0.08)" fill="#d4dfdf"/><rect x="180.01" y="376.21" width="2.66" height="0.44" transform="translate(362.69 752.78) rotate(-180)" fill="#ced9d8"/><rect x="179.13" y="373.35" width="0.37" height="6.01" fill="#e8f5f3"/><rect x="176.05" y="438.76" width="6.62" height="1.5" rx="0.37" ry="0.37" fill="#b7c1c1"/><rect x="176.05" y="415.11" width="6.62" height="1.5" rx="0.37" ry="0.37" fill="#b7c1c1"/><path d="M195.06,430.94h0a2.82,2.82,0,0,1,2.82,2.82V450a0,0,0,0,1,0,0h-5.64a0,0,0,0,1,0,0V433.76A2.82,2.82,0,0,1,195.06,430.94Z" fill="#e6d0c0"/><rect x="191.82" y="434.47" width="6.48" height="2.22" rx="0.28" ry="0.28" fill="#d6c1b1"/><rect x="191.82" y="444.24" width="6.48" height="2.22" rx="0.28" ry="0.28" fill="#d6c1b1"/><rect x="192.24" y="427.71" width="5.64" height="1.27" rx="0.64" ry="0.64" fill="#e6d0c0"/><path d="M194.7,429h.72a0,0,0,0,1,0,0v2.24a.36.36,0,0,1-.36.36h0a.36.36,0,0,1-.36-.36V429A0,0,0,0,1,194.7,429Z" fill="#f1e0d2"/><path d="M195.06,397.79h0a.36.36,0,0,1,.36.36v29.57a0,0,0,0,1,0,0h-.72a0,0,0,0,1,0,0V398.14A.36.36,0,0,1,195.06,397.79Z" fill="#f1e0d2"/><line x1="195.06" y1="398.32" x2="195.06" y2="396.44" fill="none" stroke="#f1e0d2" stroke-miterlimit="10" stroke-width="0.28"/><circle cx="195.06" cy="396.29" r="0.74" fill="#e6d0c0"/><line x1="2825.48" y1="447.96" x2="2825.48" y2="412" fill="none" stroke="#ced9d8" stroke-miterlimit="10" stroke-width="0.37"/><line x1="2830.85" y1="447.96" x2="2830.85" y2="412" fill="none" stroke="#ced9d8" stroke-miterlimit="10" stroke-width="0.37"/><rect x="2827.94" y="368.53" width="0.46" height="3.81" fill="#b6bfbe"/><path d="M2824.29,448H2832a2,2,0,0,1,2,2v0a0,0,0,0,1,0,0h-11.86a0,0,0,0,1,0,0v0a2,2,0,0,1,2-2Z" fill="#b7c1c1"/><path d="M2828.17,371h0a.66.66,0,0,1,.66.66V448a0,0,0,0,1,0,0h-1.31a0,0,0,0,1,0,0V371.67A.66.66,0,0,1,2828.17,371Z" fill="#ced9d8"/><circle cx="2828.17" cy="367.44" r="1.53" fill="#ced9d8"/><path d="M2816.17,378.3l8.21,1.13a.42.42,0,0,0,.47-.41v-5.18a.42.42,0,0,0-.47-.41l-8.21,1.13a.42.42,0,0,0-.36.41v2.92A.42.42,0,0,0,2816.17,378.3Z" transform="translate(0 -0.08)" fill="#d4dfdf"/><rect x="2827.51" y="372.61" width="1.31" height="7.49" fill="#d4dfdf"/><rect x="2824.85" y="376.14" width="2.66" height="0.44" fill="#ced9d8"/><path d="M2840.17,378.3l-8.21,1.13a.42.42,0,0,1-.47-.41v-5.18a.42.42,0,0,1,.47-.41l8.21,1.13a.43.43,0,0,1,.36.41v2.92A.43.43,0,0,1,2840.17,378.3Z" transform="translate(0 -0.08)" fill="#d4dfdf"/><rect x="2828.82" y="376.21" width="2.66" height="0.44" transform="translate(5660.31 752.78) rotate(-180)" fill="#ced9d8"/><rect x="2827.94" y="373.35" width="0.37" height="6.01" fill="#e8f5f3"/><rect x="2824.86" y="438.76" width="6.62" height="1.5" rx="0.37" ry="0.37" fill="#b7c1c1"/><rect x="2824.86" y="415.11" width="6.62" height="1.5" rx="0.37" ry="0.37" fill="#b7c1c1"/><path d="M2843.87,430.94h0a2.82,2.82,0,0,1,2.82,2.82V450a0,0,0,0,1,0,0H2841a0,0,0,0,1,0,0V433.76a2.82,2.82,0,0,1,2.82-2.82Z" fill="#e6d0c0"/><rect x="2840.63" y="434.47" width="6.48" height="2.22" rx="0.28" ry="0.28" fill="#d6c1b1"/><rect x="2840.63" y="444.24" width="6.48" height="2.22" rx="0.28" ry="0.28" fill="#d6c1b1"/><rect x="2841.05" y="427.71" width="5.64" height="1.27" rx="0.64" ry="0.64" fill="#e6d0c0"/><path d="M2843.51,429h.72a0,0,0,0,1,0,0v2.24a.36.36,0,0,1-.36.36h0a.36.36,0,0,1-.36-.36V429A0,0,0,0,1,2843.51,429Z" fill="#f1e0d2"/><path d="M2843.87,397.79h0a.36.36,0,0,1,.36.36v29.57a0,0,0,0,1,0,0h-.72a0,0,0,0,1,0,0V398.14A.36.36,0,0,1,2843.87,397.79Z" fill="#f1e0d2"/><line x1="2843.87" y1="398.32" x2="2843.87" y2="396.44" fill="none" stroke="#f1e0d2" stroke-miterlimit="10" stroke-width="0.28"/><circle cx="2843.87" cy="396.29" r="0.74" fill="#e6d0c0"/><line x1="1654.88" y1="422.15" x2="1654.88" y2="414.97" fill="none" stroke="#ced9d8" stroke-miterlimit="10" stroke-width="0.07"/><line x1="1655.95" y1="422.15" x2="1655.95" y2="414.97" fill="none" stroke="#ced9d8" stroke-miterlimit="10" stroke-width="0.07"/><rect x="1655.37" y="406.3" width="0.09" height="0.76" fill="#b6bfbe"/><path d="M1654.64,422.15h1.55a.41.41,0,0,1,.41.41v0a0,0,0,0,1,0,0h-2.37a0,0,0,0,1,0,0v0A.41.41,0,0,1,1654.64,422.15Z" fill="#b7c1c1"/><path d="M1655.41,406.79h0a.13.13,0,0,1,.13.13v15.22a0,0,0,0,1,0,0h-.26a0,0,0,0,1,0,0V406.92A.13.13,0,0,1,1655.41,406.79Z" fill="#ced9d8"/><circle cx="1655.41" cy="406.08" r="0.3" fill="#ced9d8"/><path d="M1653,408.31l1.64.22a.08.08,0,0,0,.09-.08v-1a.08.08,0,0,0-.09-.08l-1.64.22a.08.08,0,0,0-.07.08v.58A.09.09,0,0,0,1653,408.31Z" transform="translate(0 -0.08)" fill="#d4dfdf"/><rect x="1655.28" y="407.11" width="0.26" height="1.49" fill="#d4dfdf"/><rect x="1654.75" y="407.81" width="0.53" height="0.09" fill="#ced9d8"/><path d="M1657.81,408.31l-1.64.22a.08.08,0,0,1-.1-.08v-1a.08.08,0,0,1,.1-.08l1.64.22a.08.08,0,0,1,.07.08v.58A.09.09,0,0,1,1657.81,408.31Z" transform="translate(0 -0.08)" fill="#d4dfdf"/><rect x="1655.54" y="407.89" width="0.53" height="0.09" transform="translate(3311.62 815.79) rotate(-180)" fill="#ced9d8"/><rect x="1655.37" y="407.26" width="0.07" height="1.2" fill="#e8f5f3"/><rect x="1654.75" y="420.31" width="1.32" height="0.3" rx="0.07" ry="0.07" fill="#b7c1c1"/><rect x="1654.75" y="415.59" width="1.32" height="0.3" rx="0.07" ry="0.07" fill="#b7c1c1"/><path d="M1658.55,418.75h0a.56.56,0,0,1,.56.56v3.24a0,0,0,0,1,0,0H1658a0,0,0,0,1,0,0v-3.24a.56.56,0,0,1,.56-.56Z" fill="#e6d0c0"/><rect x="1657.9" y="419.45" width="1.29" height="0.44" rx="0.06" ry="0.06" fill="#d6c1b1"/><rect x="1657.9" y="421.4" width="1.29" height="0.44" rx="0.06" ry="0.06" fill="#d6c1b1"/><rect x="1657.98" y="418.11" width="1.13" height="0.25" rx="0.13" ry="0.13" fill="#e6d0c0"/><path d="M1658.47,418.36h.14a0,0,0,0,1,0,0v.45a.07.07,0,0,1-.07.07h0a.07.07,0,0,1-.07-.07v-.45A0,0,0,0,1,1658.47,418.36Z" fill="#f1e0d2"/><path d="M1658.55,412.13h0a.07.07,0,0,1,.07.07v5.9a0,0,0,0,1,0,0h-.14a0,0,0,0,1,0,0v-5.9A.07.07,0,0,1,1658.55,412.13Z" fill="#f1e0d2"/><line x1="1658.55" y1="412.24" x2="1658.55" y2="411.87" fill="none" stroke="#f1e0d2" stroke-miterlimit="10" stroke-width="0.06"/><circle cx="1658.55" cy="411.84" r="0.15" fill="#e6d0c0"/><path d="M2591.73,415.92h51.54A10.73,10.73,0,0,1,2654,426.65v10.27a0,0,0,0,1,0,0h-73a0,0,0,0,1,0,0V426.65A10.73,10.73,0,0,1,2591.73,415.92Z" fill="#ffebcb"/><path d="M1058.94,416.92H1070a0,0,0,0,1,0,0v8.83a0,0,0,0,1,0,0h-19a0,0,0,0,1,0,0v-.86A8,8,0,0,1,1058.94,416.92Z" fill="#ffebcb"/><path d="M1060.36,417h19a0,0,0,0,1,0,0v8.83a0,0,0,0,1,0,0h-11.06a8,8,0,0,1-8-8V417A0,0,0,0,1,1060.36,417Z" transform="translate(2139.76 842.76) rotate(-180)" fill="#ffebcb"/><path d="M810.94,416.92H822a0,0,0,0,1,0,0v8.83a0,0,0,0,1,0,0H803a0,0,0,0,1,0,0v-.86A8,8,0,0,1,810.94,416.92Z" fill="#ffebcb"/><path d="M812.36,417h19a0,0,0,0,1,0,0v8.83a0,0,0,0,1,0,0H820.33a8,8,0,0,1-8-8V417A0,0,0,0,1,812.36,417Z" transform="translate(1643.76 842.76) rotate(-180)" fill="#ffebcb"/><path d="M837.47,405.9h23.08a0,0,0,0,1,0,0v18.43a0,0,0,0,1,0,0H820.83a0,0,0,0,1,0,0v-1.8A16.63,16.63,0,0,1,837.47,405.9Z" fill="#ffebcb"/><path d="M840.44,406h39.71a0,0,0,0,1,0,0V424.4a0,0,0,0,1,0,0H857.07a16.63,16.63,0,0,1-16.63-16.63V406A0,0,0,0,1,840.44,406Z" transform="translate(1720.58 830.3) rotate(-180)" fill="#ffebcb"/><rect x="690.78" y="423.87" width="66.97" height="4.67" rx="2.34" ry="2.34" transform="translate(1448.54 852.34) rotate(180)" fill="#f2dfc4"/><rect x="734.82" y="415.47" width="13.71" height="1.48" transform="translate(1483.36 832.34) rotate(180)" fill="#57221b"/><rect x="701.76" y="415.47" width="13.71" height="1.48" transform="translate(1417.24 832.34) rotate(180)" fill="#57221b"/><rect x="693.83" y="415.47" width="5.96" height="1.48" transform="translate(1393.62 832.34) rotate(180)" fill="#57221b"/><rect x="728.21" y="415.47" width="2.24" height="1.48" transform="translate(1458.67 832.34) rotate(180)" fill="#57221b"/><polygon points="736.87 368.9 738 366.75 773.7 364.1 773.03 368.9 770.39 385.65 750.55 415.4 692.54 415.4 686.59 405.22 681.96 370.88 702.77 368.9 736.87 368.9" fill="#be4a39"/><polygon points="692.54 415.4 750.55 415.4 750.6 415.33 770.39 385.65 773.03 368.9 773.7 364.1 738 366.75 736.87 368.9 702.77 368.9 694.78 405.22 692.54 415.4" fill="#be4a39"/><polygon points="692.54 415.4 750.55 415.4 750.6 415.33 770.39 385.65 773.03 368.9 773.7 364.1 750.69 365.81 750.6 368.9 702.77 368.9 694.78 405.22 692.54 415.4" fill="#be4a39"/><polygon points="750.6 365.81 750.6 415.33 770.39 385.65 773.03 368.9 773.7 364.1 750.6 365.81" fill="#a74132"/><polygon points="750.6 365.81 770.39 385.64 773.03 368.9 773.7 364.1 750.6 365.81" fill="#9d3d2e"/><polygon points="764.27 368.2 764.27 369.87 772.88 369.87 773.03 368.9 773.23 367.49 764.27 368.2" fill="#53201a"/><rect x="769.8" y="367.45" width="0.49" height="2.68" transform="translate(1540.08 737.5) rotate(180)" fill="#a23f30"/><rect x="767.15" y="367.45" width="0.49" height="2.68" transform="translate(1534.79 737.5) rotate(180)" fill="#a23f30"/><polygon points="692.54 415.4 750.55 415.4 750.6 415.33 750.6 405.22 694.78 405.22 692.54 415.4" fill="#b34737"/><path d="M746.41,425.37a2.68,2.68,0,0,0,2.4-1.52l1.68-3.59a2.65,2.65,0,0,0-2.39-3.77H728.74a2.65,2.65,0,0,0-2.39,3.77l1.69,3.59a2.65,2.65,0,0,0,2.39,1.52Z" transform="translate(0 -0.08)" fill="#7e3126"/><path d="M730.43,424.31h16a1.59,1.59,0,0,0,1.44-.91l1.68-3.59a1.58,1.58,0,0,0-1.43-2.26H728.74a1.58,1.58,0,0,0-1.43,2.26L729,423.4A1.62,1.62,0,0,0,730.43,424.31Z" transform="translate(0 -0.08)" fill="#be4a39"/><circle cx="729.16" cy="419.28" r="1.29" fill="#c86659"/><circle cx="747.68" cy="419.28" r="1.29" fill="#c86659"/><rect x="742.02" y="418.56" width="0.74" height="2.43" transform="translate(1484.78 839.48) rotate(180)" fill="#57221b"/><rect x="738.05" y="418.56" width="0.74" height="2.43" transform="translate(1476.84 839.48) rotate(180)" fill="#57221b"/><rect x="734.08" y="418.56" width="0.74" height="2.43" transform="translate(1468.91 839.48) rotate(180)" fill="#57221b"/><circle cx="730.32" cy="422.9" r="0.74" fill="#c86659"/><circle cx="732.64" cy="422.9" r="0.74" fill="#c86659"/><circle cx="734.95" cy="422.9" r="0.74" fill="#c86659"/><circle cx="737.26" cy="422.9" r="0.74" fill="#c86659"/><circle cx="739.58" cy="422.9" r="0.74" fill="#c86659"/><circle cx="741.89" cy="422.9" r="0.74" fill="#c86659"/><circle cx="744.21" cy="422.9" r="0.74" fill="#c86659"/><circle cx="746.52" cy="422.9" r="0.74" fill="#c86659"/><path d="M712.82,425.37a2.68,2.68,0,0,0,2.4-1.52l1.68-3.59a2.65,2.65,0,0,0-2.39-3.77H695.16a2.65,2.65,0,0,0-2.4,3.77l1.69,3.59a2.65,2.65,0,0,0,2.39,1.52Z" transform="translate(0 -0.08)" fill="#7e3126"/><path d="M696.84,424.31h16a1.59,1.59,0,0,0,1.44-.91l1.69-3.59a1.59,1.59,0,0,0-1.44-2.26H695.16a1.58,1.58,0,0,0-1.44,2.26l1.69,3.59A1.59,1.59,0,0,0,696.84,424.31Z" transform="translate(0 -0.08)" fill="#be4a39"/><circle cx="695.58" cy="419.28" r="1.29" fill="#c86659"/><circle cx="714.09" cy="419.28" r="1.29" fill="#c86659"/><rect x="708.43" y="418.56" width="0.74" height="2.43" transform="translate(1417.6 839.48) rotate(180)" fill="#57221b"/><rect x="704.46" y="418.56" width="0.74" height="2.43" transform="translate(1409.67 839.48) rotate(180)" fill="#57221b"/><rect x="700.5" y="418.56" width="0.74" height="2.43" transform="translate(1401.73 839.48) rotate(180)" fill="#57221b"/><circle cx="696.73" cy="422.9" r="0.74" fill="#c86659"/><circle cx="699.05" cy="422.9" r="0.74" fill="#c86659"/><circle cx="701.36" cy="422.9" r="0.74" fill="#c86659"/><circle cx="703.68" cy="422.9" r="0.74" fill="#c86659"/><circle cx="705.99" cy="422.9" r="0.74" fill="#c86659"/><circle cx="708.3" cy="422.9" r="0.74" fill="#c86659"/><circle cx="710.62" cy="422.9" r="0.74" fill="#c86659"/><circle cx="712.93" cy="422.9" r="0.74" fill="#c86659"/><polygon points="686.59 405.22 692.54 415.4 694.78 405.22 686.59 405.22" fill="#a94233"/><polygon points="681.96 370.88 686.59 405.22 694.78 405.22 701.13 376.38 702.77 368.9 681.96 370.88" fill="#a74132"/><polygon points="736.87 368.9 750.6 368.9 750.69 365.81 738 366.75 736.87 368.9" fill="#973b2e"/><rect x="746.81" y="367.05" width="2.98" height="0.44" transform="translate(1496.6 734.46) rotate(180)" fill="#742d22"/><rect x="746.81" y="367.96" width="2.98" height="0.44" transform="translate(1496.6 736.27) rotate(180)" fill="#742d22"/><rect x="742.84" y="367.05" width="2.98" height="0.44" transform="translate(1488.67 734.46) rotate(180)" fill="#742d22"/><rect x="742.84" y="367.96" width="2.98" height="0.44" transform="translate(1488.67 736.27) rotate(180)" fill="#742d22"/><rect x="738.87" y="367.05" width="2.98" height="0.44" transform="translate(1480.73 734.46) rotate(180)" fill="#742d22"/><rect x="738.87" y="367.96" width="2.98" height="0.44" transform="translate(1480.73 736.27) rotate(180)" fill="#742d22"/><path d="M697.64,376.83" transform="translate(0 -0.08)" fill="none" stroke="#953a2d" stroke-miterlimit="10" stroke-width="0.2"/><path d="M697.64,376.83" transform="translate(0 -0.08)" fill="none" stroke="#953a2d" stroke-miterlimit="10" stroke-width="0.2"/><rect x="743.14" y="412.29" width="5.23" height="1.58" rx="0.2" ry="0.2" transform="translate(1491.51 826.07) rotate(180)" fill="#c54d3c"/><rect x="733.84" y="412.29" width="8.54" height="1.58" rx="0.2" ry="0.2" transform="translate(1476.23 826.07) rotate(180)" fill="#c54d3c"/><rect x="708.75" y="412.29" width="5.23" height="1.58" rx="0.2" ry="0.2" transform="translate(1422.74 826.07) rotate(180)" fill="#c54d3c"/><rect x="699.46" y="412.29" width="8.54" height="1.58" rx="0.2" ry="0.2" transform="translate(1407.47 826.07) rotate(180)" fill="#c54d3c"/><circle cx="730.32" cy="408.01" r="1.05" fill="#813027"/><circle cx="717.1" cy="408.01" r="1.05" fill="#813027"/><circle cx="713.79" cy="408.01" r="1.05" fill="#813027"/><circle cx="703.87" cy="408.01" r="1.05" fill="#813027"/><circle cx="701.23" cy="408.01" r="1.05" fill="#813027"/><path d="M693.83,415.47v1.38a2.64,2.64,0,0,0-1.07,3.41l1.69,3.59v0h-1.34a2.34,2.34,0,1,0,0,4.67h62.3a2.34,2.34,0,1,0,0-4.67h-6.63l0,0,1.68-3.59a2.61,2.61,0,0,0-2-3.71v-1.08h2l13.55-20.31,6.29-9.43h0l1.27-8.06L773,369l.66-4.79-19.17,1.42-3.84.28-1.77.13-10.92.81L736.87,369h-34.1L682,371l4.63,34.33,5.95,10.18Zm21.64,0h12.74v1.09a2.62,2.62,0,0,0-1.86,3.7l1.69,3.59v0H715.2l0,0,1.68-3.59a2.61,2.61,0,0,0-1.43-3.57Zm19.35,0v1h-4.36v-1Zm-35,0h2v1h-2Z" transform="translate(0 -0.08)" fill="none"/><path d="M730.43,425.44a2.72,2.72,0,0,1-2.46-1.56l-1.69-3.58a2.7,2.7,0,0,1,1.85-3.8v-.95H715.55v1.09A2.69,2.69,0,0,1,717,420.3l-1.68,3.58a2.74,2.74,0,0,1-2.47,1.56h-16a2.72,2.72,0,0,1-2.46-1.56l-1.69-3.58a2.69,2.69,0,0,1,.17-2.62,2.56,2.56,0,0,1,.93-.89l0-1.24h-1.21l-6-10.22-4.65-34.44,20.9-2h34.05l1.11-2.11,11-.85,24.88-1.84-.68,4.89-2.64,16.75-6.31,9.48-13.54,20.31-2,0v.93a2.66,2.66,0,0,1,1.79,1.2,2.72,2.72,0,0,1,.16,2.62l-1.68,3.58a2.74,2.74,0,0,1-2.47,1.56Zm4.32-9v-.86h-4.22v.86Zm-33.06,0v-.86h-1.82v.86Z" transform="translate(0 -0.08)" fill="#fff" opacity="0.6"/><rect x="783.59" y="424.16" width="2.29" height="0.11" rx="0.06" ry="0.06" fill="#f2dfc4"/><path d="M785.66,424.13V424l0,0h0v-.05s0,0,0,0,0,0,0,0a0,0,0,0,0,0,0h0v-.07l0,0s0,0,0,0v-.15a0,0,0,0,0,0,0h0v-.41h0a.16.16,0,0,0,0-.11v0a.16.16,0,0,0,0-.11v-.06a.12.12,0,0,0,0-.1v-.11a.16.16,0,0,0,0-.11v-.08a.09.09,0,0,0-.08-.09h0v0h0v0h0V422a.81.81,0,0,0-.15-.37.55.55,0,0,0-.2-.17l0-.05s0,0,0,0l-.08,0h0l0,.05h0a.72.72,0,0,0-.63.05.7.7,0,0,0-.2.18.81.81,0,0,0-.15.37v.29h0v0h0v0h0a.09.09,0,0,0-.08.09v.08a.16.16,0,0,0,0,.11v.11a.12.12,0,0,0,0,.1v.06a.16.16,0,0,0,0,.11v0a.16.16,0,0,0,0,.11h0v.41h0a0,0,0,0,0,0,0v.15s0,0,0,0l0,0v.07h0s0,0,0,0a0,0,0,0,0,0,0s0,0,0,0v.05h0l0,0v.17a.16.16,0,0,0-.14.15h.57v-.07a.09.09,0,0,0-.08-.09h0v-.29a.09.09,0,0,0-.09-.09.09.09,0,0,0-.1.09V423h0v.62a0,0,0,0,0,0,0h.05l.16.22h1l.16-.22h0a0,0,0,0,0,0,0V423h0v.88a.1.1,0,0,0-.1-.09.09.09,0,0,0-.09.09v.29h0a.09.09,0,0,0-.08.09v.07h.56A.15.15,0,0,0,785.66,424.13Z" transform="translate(0 -0.08)" fill="#be4a39"/><g opacity="0.6"><path d="M785.66,424.13V424l0,0h0v-.05s0,0,0,0,0,0,0,0a0,0,0,0,0,0,0h0v-.07l0,0s0,0,0,0v-.15a0,0,0,0,0,0,0h0v-.41h0a.16.16,0,0,0,0-.11v0a.16.16,0,0,0,0-.11v-.06a.12.12,0,0,0,0-.1v-.11a.16.16,0,0,0,0-.11v-.08a.09.09,0,0,0-.08-.09h0v0h0v0h0V422a.81.81,0,0,0-.15-.37.55.55,0,0,0-.2-.17l0-.05s0,0,0,0l-.08,0h0l0,.05h0a.72.72,0,0,0-.63.05.7.7,0,0,0-.2.18.81.81,0,0,0-.15.37v.29h0v0h0v0h0a.09.09,0,0,0-.08.09v.08a.16.16,0,0,0,0,.11v.11a.12.12,0,0,0,0,.1v.06a.16.16,0,0,0,0,.11v0a.16.16,0,0,0,0,.11h0v.41h0a0,0,0,0,0,0,0v.15s0,0,0,0l0,0v.07h0s0,0,0,0a0,0,0,0,0,0,0s0,0,0,0v.05h0l0,0v.17a.16.16,0,0,0-.14.15h.57v-.07a.09.09,0,0,0-.08-.09h0v-.29a.09.09,0,0,0-.09-.09.09.09,0,0,0-.1.09V423h0v.62a0,0,0,0,0,0,0h.05l.16.22h1l.16-.22h0a0,0,0,0,0,0,0V423h0v.88a.1.1,0,0,0-.1-.09.09.09,0,0,0-.09.09v.29h0a.09.09,0,0,0-.08.09v.07h.56A.15.15,0,0,0,785.66,424.13Z" transform="translate(0 -0.08)" fill="#fff"/></g><rect x="766.91" y="424.05" width="1.98" height="0.13" rx="0.06" ry="0.06" fill="#f2dfc4"/><path d="M769.2,421.33c0-.68-.53-1.59-1.21-1.65l0-.05a.1.1,0,0,0-.16,0l0,.05c-.67.06-1.21,1-1.21,1.65v.05a.82.82,0,0,0,.07.31v0h0a1,1,0,0,0,.14.22.84.84,0,0,0,.23.18.68.68,0,0,0,.2.07.05.05,0,0,0,0,.05v.09a.06.06,0,0,0,.06.05h0a.26.26,0,0,0-.26.19s0,0,0,0h0l-.24.87s0,0,0,0l.09,0v.05a.12.12,0,0,0,.12.12.11.11,0,0,0,.09-.05l0,.32a0,0,0,0,0,0,0h.12v0a0,0,0,0,0,0,0h.24s0,0,0,.06a0,0,0,0,0,0,0h.31s0,0,0,0a.14.14,0,0,0,0-.06h.06l0,0,0,0H768l0,0,0,0h.06s0,0,0,.06a0,0,0,0,0,0,0h.31s0,0,0,0a.14.14,0,0,0,0-.06h.24a0,0,0,0,0,0,0v0h.12a0,0,0,0,0,0,0l0-.27h0v0a.11.11,0,0,0,.08,0,.12.12,0,0,0,.12-.12v-.05l.09,0a.05.05,0,0,0,0,0l-.25-.88h.06s0,0,0,0a.26.26,0,0,0-.25-.19h0s.06,0,.06-.05v-.09s0-.05-.06-.05h0l.1,0h0a.85.85,0,0,0,.32-.25.78.78,0,0,0,.11-.18h0a0,0,0,0,1,0,0,.78.78,0,0,0,.06-.31Z" transform="translate(0 -0.08)" fill="#be4a39"/><path d="M769.2,421.33c0-.68-.53-1.59-1.21-1.65l0-.05a.1.1,0,0,0-.16,0l0,.05c-.67.06-1.21,1-1.21,1.65v.05a.82.82,0,0,0,.07.31v0h0a1,1,0,0,0,.14.22.84.84,0,0,0,.23.18.68.68,0,0,0,.2.07.05.05,0,0,0,0,.05v.09a.06.06,0,0,0,.06.05h0a.26.26,0,0,0-.26.19s0,0,0,0h0l-.24.87s0,0,0,0l.09,0v.05a.12.12,0,0,0,.12.12.11.11,0,0,0,.09-.05l0,.32a0,0,0,0,0,0,0h.12v0a0,0,0,0,0,0,0h.24s0,0,0,.06a0,0,0,0,0,0,0h.31s0,0,0,0a.14.14,0,0,0,0-.06h.06l0,0,0,0H768l0,0,0,0h.06s0,0,0,.06a0,0,0,0,0,0,0h.31s0,0,0,0a.14.14,0,0,0,0-.06h.24a0,0,0,0,0,0,0v0h.12a0,0,0,0,0,0,0l0-.27h0v0a.11.11,0,0,0,.08,0,.12.12,0,0,0,.12-.12v-.05l.09,0a.05.05,0,0,0,0,0l-.25-.88h.06s0,0,0,0a.26.26,0,0,0-.25-.19h0s.06,0,.06-.05v-.09s0-.05-.06-.05h0l.1,0h0a.85.85,0,0,0,.32-.25.78.78,0,0,0,.11-.18h0a0,0,0,0,1,0,0,.78.78,0,0,0,.06-.31Z" transform="translate(0 -0.08)" fill="#be4a39"/><path d="M769.2,421.33c0-.68-.53-1.59-1.21-1.65l0-.05a.1.1,0,0,0-.16,0l0,.05c-.67.06-1.21,1-1.21,1.65v.05a.82.82,0,0,0,.07.31v0h0a1,1,0,0,0,.14.22.84.84,0,0,0,.23.18.68.68,0,0,0,.2.07.05.05,0,0,0,0,.05v.09a.06.06,0,0,0,.06.05h0a.26.26,0,0,0-.26.19s0,0,0,0h0l-.24.87s0,0,0,0l.09,0v.05a.12.12,0,0,0,.12.12.11.11,0,0,0,.09-.05l0,.32a0,0,0,0,0,0,0h.12v0a0,0,0,0,0,0,0h.24s0,0,0,.06a0,0,0,0,0,0,0h.31s0,0,0,0a.14.14,0,0,0,0-.06h.06l0,0,0,0H768l0,0,0,0h.06s0,0,0,.06a0,0,0,0,0,0,0h.31s0,0,0,0a.14.14,0,0,0,0-.06h.24a0,0,0,0,0,0,0v0h.12a0,0,0,0,0,0,0l0-.27h0v0a.11.11,0,0,0,.08,0,.12.12,0,0,0,.12-.12v-.05l.09,0a.05.05,0,0,0,0,0l-.25-.88h.06s0,0,0,0a.26.26,0,0,0-.25-.19h0s.06,0,.06-.05v-.09s0-.05-.06-.05h0l.1,0h0a.85.85,0,0,0,.32-.25.78.78,0,0,0,.11-.18h0a0,0,0,0,1,0,0,.78.78,0,0,0,.06-.31Z" transform="translate(0 -0.08)" fill="#fff" opacity="0.6"/><rect x="763.27" y="424.05" width="1.98" height="0.13" rx="0.06" ry="0.06" fill="#f2dfc4"/><path d="M765.57,421.33c0-.68-.54-1.59-1.21-1.65l0-.05a.12.12,0,0,0-.17,0l0,.05c-.67.06-1.2,1-1.2,1.65v.05a.81.81,0,0,0,.06.31,0,0,0,0,0,0,0h0a1,1,0,0,0,.13.22,1.08,1.08,0,0,0,.24.18.68.68,0,0,0,.2.07,0,0,0,0,0,0,.05v.09a0,0,0,0,0,0,.05h0a.26.26,0,0,0-.25.19s0,0,0,0h0l-.25.87a.05.05,0,0,0,0,0l.09,0v.05a.12.12,0,0,0,.13.12.14.14,0,0,0,.09-.05l0,.32a0,0,0,0,0,0,0h.13v0a0,0,0,0,0,0,0h.24a.14.14,0,0,0,0,.06s0,0,0,0h.31a0,0,0,0,0,0,0s0,0,0-.06h.06l0,0,0,0h.15l0,0,0,0h.06s0,0,0,.06a0,0,0,0,0,0,0h.3a0,0,0,0,0,0,0s0,0,0-.06H765s0,0,0,0v0h.12a0,0,0,0,0,0,0l0-.27h0v0a.09.09,0,0,0,.07,0,.12.12,0,0,0,.12-.12v-.05l.09,0s0,0,0,0l-.24-.88h.06s0,0,0,0a.27.27,0,0,0-.26-.19h0a0,0,0,0,0,0-.05v-.09a0,0,0,0,0,0-.05h0l.1,0h0a.81.81,0,0,0,.33-.25.52.52,0,0,0,.1-.18h0v0a.78.78,0,0,0,.07-.31Z" transform="translate(0 -0.08)" fill="#be4a39"/><path d="M765.57,421.33c0-.68-.54-1.59-1.21-1.65l0-.05a.12.12,0,0,0-.17,0l0,.05c-.67.06-1.2,1-1.2,1.65v.05a.81.81,0,0,0,.06.31,0,0,0,0,0,0,0h0a1,1,0,0,0,.13.22,1.08,1.08,0,0,0,.24.18.68.68,0,0,0,.2.07,0,0,0,0,0,0,.05v.09a0,0,0,0,0,0,.05h0a.26.26,0,0,0-.25.19s0,0,0,0h0l-.25.87a.05.05,0,0,0,0,0l.09,0v.05a.12.12,0,0,0,.13.12.14.14,0,0,0,.09-.05l0,.32a0,0,0,0,0,0,0h.13v0a0,0,0,0,0,0,0h.24a.14.14,0,0,0,0,.06s0,0,0,0h.31a0,0,0,0,0,0,0s0,0,0-.06h.06l0,0,0,0h.15l0,0,0,0h.06s0,0,0,.06a0,0,0,0,0,0,0h.3a0,0,0,0,0,0,0s0,0,0-.06H765s0,0,0,0v0h.12a0,0,0,0,0,0,0l0-.27h0v0a.09.09,0,0,0,.07,0,.12.12,0,0,0,.12-.12v-.05l.09,0s0,0,0,0l-.24-.88h.06s0,0,0,0a.27.27,0,0,0-.26-.19h0a0,0,0,0,0,0-.05v-.09a0,0,0,0,0,0-.05h0l.1,0h0a.81.81,0,0,0,.33-.25.52.52,0,0,0,.1-.18h0v0a.78.78,0,0,0,.07-.31Z" transform="translate(0 -0.08)" fill="#be4a39"/><path d="M765.57,421.33c0-.68-.54-1.59-1.21-1.65l0-.05a.12.12,0,0,0-.17,0l0,.05c-.67.06-1.2,1-1.2,1.65v.05a.81.81,0,0,0,.06.31,0,0,0,0,0,0,0h0a1,1,0,0,0,.13.22,1.08,1.08,0,0,0,.24.18.68.68,0,0,0,.2.07,0,0,0,0,0,0,.05v.09a0,0,0,0,0,0,.05h0a.26.26,0,0,0-.25.19s0,0,0,0h0l-.25.87a.05.05,0,0,0,0,0l.09,0v.05a.12.12,0,0,0,.13.12.14.14,0,0,0,.09-.05l0,.32a0,0,0,0,0,0,0h.13v0a0,0,0,0,0,0,0h.24a.14.14,0,0,0,0,.06s0,0,0,0h.31a0,0,0,0,0,0,0s0,0,0-.06h.06l0,0,0,0h.15l0,0,0,0h.06s0,0,0,.06a0,0,0,0,0,0,0h.3a0,0,0,0,0,0,0s0,0,0-.06H765s0,0,0,0v0h.12a0,0,0,0,0,0,0l0-.27h0v0a.09.09,0,0,0,.07,0,.12.12,0,0,0,.12-.12v-.05l.09,0s0,0,0,0l-.24-.88h.06s0,0,0,0a.27.27,0,0,0-.26-.19h0a0,0,0,0,0,0-.05v-.09a0,0,0,0,0,0-.05h0l.1,0h0a.81.81,0,0,0,.33-.25.52.52,0,0,0,.1-.18h0v0a.78.78,0,0,0,.07-.31Z" transform="translate(0 -0.08)" fill="#fff" opacity="0.6"/><path d="M1994.94,370.95h64.34a0,0,0,0,1,0,0v51.94a0,0,0,0,1,0,0h-111.2a0,0,0,0,1,0,0v-5.07A46.87,46.87,0,0,1,1994.94,370.95Z" fill="#ffebcb"/><path d="M2041,371h63.48a0,0,0,0,1,0,0V423a0,0,0,0,1,0,0h-16.61A46.87,46.87,0,0,1,2041,376.1V371A0,0,0,0,1,2041,371Z" transform="translate(4145.47 793.91) rotate(-180)" fill="#ffebcb"/><path d="M2103,409.58h32.1a0,0,0,0,1,0,0v13.3a0,0,0,0,1,0,0H2091a0,0,0,0,1,0,0v-1.3A12,12,0,0,1,2103,409.58Z" fill="#ffebcb"/><path d="M2105.74,409.66h40.93a0,0,0,0,1,0,0V423a0,0,0,0,1,0,0h-28.92a12,12,0,0,1-12-12v-1.3A0,0,0,0,1,2105.74,409.66Z" transform="translate(4252.41 832.55) rotate(-180)" fill="#ffebcb"/><path d="M1916.8,409.58h6.61a0,0,0,0,1,0,0v13.3a0,0,0,0,1,0,0H1904.8a0,0,0,0,1,0,0v-1.3A12,12,0,0,1,1916.8,409.58Z" fill="#ffebcb"/><path d="M1919.55,409.66H1935a0,0,0,0,1,0,0V423a0,0,0,0,1,0,0h-3.43a12,12,0,0,1-12-12v-1.3A0,0,0,0,1,1919.55,409.66Z" transform="translate(3854.54 832.55) rotate(-180)" fill="#ffebcb"/><path d="M33,412.3v10.21H43.88a7.84,7.84,0,1,1,15.67,0h9V412.3Z" transform="translate(0 -0.08)" fill="#f6e9da"/><path d="M64.72,420.55H87a.84.84,0,0,1,.84.84v1a0,0,0,0,1,0,0h-24a0,0,0,0,1,0,0v-1A.84.84,0,0,1,64.72,420.55Z" fill="#e6d0c0"/><path d="M65.23,416.92H86.52a.5.5,0,0,1,.5.5v3.13a0,0,0,0,1,0,0H64.72a0,0,0,0,1,0,0v-3.13A.5.5,0,0,1,65.23,416.92Z" fill="#f1e0d2"/><path d="M75.87,403.59h0A11.15,11.15,0,0,1,87,414.74v.95a.34.34,0,0,1-.34.34H65.06a.34.34,0,0,1-.34-.34v-.95a11.15,11.15,0,0,1,11.15-11.15Z" fill="#f1e0d2"/><rect x="65.45" y="416.02" width="20.85" height="0.9" fill="#e6d0c0"/><path d="M87.86,421.47a.83.83,0,0,0-.83-.84h0V417.5a.5.5,0,0,0-.5-.5h-.23v-.9h.39a.34.34,0,0,0,.34-.34v-.94a11.14,11.14,0,0,0-22-2.52H33v10.21H43.88a7.84,7.84,0,1,1,15.67,0H87.86Z" transform="translate(0 -0.08)" fill="#ffebcb" opacity="0.8"/><path d="M462.92,412.3v10.21h10.93a7.84,7.84,0,1,1,15.67,0h9V412.3Z" transform="translate(0 -0.08)" fill="#f6e9da"/><path d="M494.68,420.55H517a.84.84,0,0,1,.84.84v1a0,0,0,0,1,0,0h-24a0,0,0,0,1,0,0v-1A.84.84,0,0,1,494.68,420.55Z" fill="#e6d0c0"/><path d="M495.19,416.92h21.29a.5.5,0,0,1,.5.5v3.13a0,0,0,0,1,0,0h-22.3a0,0,0,0,1,0,0v-3.13A.5.5,0,0,1,495.19,416.92Z" fill="#f1e0d2"/><path d="M505.83,403.59h0A11.15,11.15,0,0,1,517,414.74v.95a.34.34,0,0,1-.34.34H495a.34.34,0,0,1-.34-.34v-.95A11.15,11.15,0,0,1,505.83,403.59Z" fill="#f1e0d2"/><rect x="495.41" y="416.02" width="20.85" height="0.9" fill="#e6d0c0"/><path d="M517.83,421.47a.84.84,0,0,0-.84-.84h0V417.5a.5.5,0,0,0-.5-.5h-.22v-.9h.39a.34.34,0,0,0,.33-.34v-.94a11.14,11.14,0,0,0-22-2.52H462.92v10.21h10.93a7.84,7.84,0,1,1,15.67,0h28.31Z" transform="translate(0 -0.08)" fill="#ffebcb" opacity="0.8"/><rect x="2323.86" y="416.67" width="20.09" height="5.76" fill="#f6e9da"/><path d="M2341.79,421.37h12.59a.47.47,0,0,1,.47.47v.59a0,0,0,0,1,0,0h-13.54a0,0,0,0,1,0,0v-.59A.47.47,0,0,1,2341.79,421.37Z" fill="#e6d0c0"/><path d="M2342.07,419.32h12a.28.28,0,0,1,.28.28v1.77a0,0,0,0,1,0,0h-12.59a0,0,0,0,1,0,0V419.6A.28.28,0,0,1,2342.07,419.32Z" fill="#f1e0d2"/><path d="M2348.08,411.8h0a6.29,6.29,0,0,1,6.29,6.29v.53a.19.19,0,0,1-.19.19H2342a.19.19,0,0,1-.19-.19v-.53A6.29,6.29,0,0,1,2348.08,411.8Z" fill="#f1e0d2"/><rect x="2342.2" y="418.81" width="11.77" height="0.51" fill="#e6d0c0"/><path d="M2324.51,403.22h8a1.44,1.44,0,0,1,1.44,1.44v17.77a0,0,0,0,1,0,0h-10.91a0,0,0,0,1,0,0V404.66A1.44,1.44,0,0,1,2324.51,403.22Z" fill="#ead8c9"/><path d="M2323.07,422.51h-1.5v-6.65a.72.72,0,0,1,.41-.65l1.09-.52Z" transform="translate(0 -0.08)" fill="#e3cab2"/><path d="M2324.62,402.25h7.81a.14.14,0,0,1,.14.14v.83a0,0,0,0,1,0,0h-8.09a0,0,0,0,1,0,0v-.83A.14.14,0,0,1,2324.62,402.25Z" fill="#e5cbb9"/><path d="M2328.53,396.87h0a4,4,0,0,1,4,4v.36a.14.14,0,0,1-.14.14h-7.81a.14.14,0,0,1-.14-.14v-.36A4,4,0,0,1,2328.53,396.87Z" fill="#ead8c9"/><rect x="2324.87" y="401.42" width="7.31" height="0.83" fill="#d8c3b6"/><rect x="2326.49" y="415.59" width="4.07" height="6.84" fill="#e5cbb9"/><rect x="2325.32" y="417.7" width="6.41" height="3.2" transform="translate(2747.83 -1909.3) rotate(90)" fill="#d1beb0"/><path d="M2328.53,413h0a2,2,0,0,1,2,2v.58a0,0,0,0,1,0,0h-4.07a0,0,0,0,1,0,0V415A2,2,0,0,1,2328.53,413Z" fill="#d1beb0"/><path d="M2326.93,415.23v-.15a1.6,1.6,0,1,1,3.2,0v.15Z" transform="translate(0 -0.08)" fill="#e8eeef"/><rect x="2327.34" y="416.51" width="2.37" height="1.23" fill="#e8eeef"/><path d="M2354.85,421.92a.48.48,0,0,0-.47-.48h0v-1.76a.28.28,0,0,0-.29-.28H2354v-.51h.22a.2.2,0,0,0,.19-.19v-.54a6.29,6.29,0,0,0-12.42-1.42h-8v-12a1.43,1.43,0,0,0-1.44-1.44h0v-.84a.14.14,0,0,0-.14-.14h-.25v-.83h.25a.14.14,0,0,0,.14-.14V401a4,4,0,1,0-8.09,0v.36a.14.14,0,0,0,.14.14h.25v.83h-.25a.14.14,0,0,0-.14.14v.84h0a1.44,1.44,0,0,0-1.44,1.44v9.95l-1.09.52a.72.72,0,0,0-.41.65v6.65h33.28Z" transform="translate(0 -0.08)" fill="#ffebcb" opacity="0.8"/><rect x="1163.84" y="416.67" width="20.09" height="5.76" fill="#f6e9da"/><path d="M1181.76,421.37h12.59a.47.47,0,0,1,.47.47v.59a0,0,0,0,1,0,0h-13.54a0,0,0,0,1,0,0v-.59A.47.47,0,0,1,1181.76,421.37Z" fill="#e6d0c0"/><path d="M1182.05,419.32h12a.28.28,0,0,1,.28.28v1.77a0,0,0,0,1,0,0h-12.59a0,0,0,0,1,0,0V419.6A.28.28,0,0,1,1182.05,419.32Z" fill="#f1e0d2"/><path d="M1188.06,411.8h0a6.29,6.29,0,0,1,6.29,6.29v.53a.19.19,0,0,1-.19.19H1182a.19.19,0,0,1-.19-.19v-.53A6.29,6.29,0,0,1,1188.06,411.8Z" fill="#f1e0d2"/><rect x="1182.18" y="418.81" width="11.77" height="0.51" fill="#e6d0c0"/><path d="M1164.49,403.22h8a1.44,1.44,0,0,1,1.44,1.44v17.77a0,0,0,0,1,0,0H1163a0,0,0,0,1,0,0V404.66A1.44,1.44,0,0,1,1164.49,403.22Z" fill="#ead8c9"/><path d="M1163.05,422.51h-1.5v-6.65a.72.72,0,0,1,.41-.65l1.09-.52Z" transform="translate(0 -0.08)" fill="#e3cab2"/><path d="M1164.6,402.25h7.81a.14.14,0,0,1,.14.14v.83a0,0,0,0,1,0,0h-8.09a0,0,0,0,1,0,0v-.83A.14.14,0,0,1,1164.6,402.25Z" fill="#e5cbb9"/><path d="M1168.5,396.87h0a4,4,0,0,1,4,4v.36a.14.14,0,0,1-.14.14h-7.81a.14.14,0,0,1-.14-.14v-.36a4,4,0,0,1,4-4Z" fill="#ead8c9"/><rect x="1164.85" y="401.42" width="7.31" height="0.83" fill="#d8c3b6"/><rect x="1166.47" y="415.59" width="4.07" height="6.84" fill="#e5cbb9"/><rect x="1165.3" y="417.7" width="6.41" height="3.2" transform="translate(1587.8 -749.28) rotate(90)" fill="#d1beb0"/><path d="M1168.5,413h0a2,2,0,0,1,2,2v.58a0,0,0,0,1,0,0h-4.07a0,0,0,0,1,0,0V415A2,2,0,0,1,1168.5,413Z" fill="#d1beb0"/><path d="M1166.9,415.23v-.15a1.61,1.61,0,0,1,3.21,0v.15Z" transform="translate(0 -0.08)" fill="#e8eeef"/><rect x="1167.32" y="416.51" width="2.37" height="1.23" fill="#e8eeef"/><path d="M1194.83,421.92a.48.48,0,0,0-.47-.48h0v-1.76a.27.27,0,0,0-.28-.28H1194v-.51h.21a.19.19,0,0,0,.19-.19v-.54a6.29,6.29,0,0,0-12.42-1.42h-8v-12a1.43,1.43,0,0,0-1.44-1.44h0v-.84a.14.14,0,0,0-.14-.14h-.25v-.83h.25a.14.14,0,0,0,.14-.14V401a4,4,0,1,0-8.09,0v.36a.14.14,0,0,0,.14.14h.25v.83h-.25a.14.14,0,0,0-.14.14v.84h0a1.43,1.43,0,0,0-1.44,1.44v9.95l-1.09.52a.72.72,0,0,0-.41.65v6.65h33.28Z" transform="translate(0 -0.08)" fill="#ffebcb" opacity="0.8"/><rect x="2937.38" y="416.67" width="20.09" height="5.76" fill="#f6e9da"/><path d="M2955.31,421.37h12.59a.47.47,0,0,1,.47.47v.59a0,0,0,0,1,0,0h-13.54a0,0,0,0,1,0,0v-.59A.47.47,0,0,1,2955.31,421.37Z" fill="#e6d0c0"/><path d="M2955.6,419.32h12a.28.28,0,0,1,.28.28v1.77a0,0,0,0,1,0,0h-12.59a0,0,0,0,1,0,0V419.6A.28.28,0,0,1,2955.6,419.32Z" fill="#f1e0d2"/><path d="M2961.61,411.8h0a6.29,6.29,0,0,1,6.29,6.29v.53a.19.19,0,0,1-.19.19H2955.5a.19.19,0,0,1-.19-.19v-.53a6.29,6.29,0,0,1,6.29-6.29Z" fill="#f1e0d2"/><rect x="2955.72" y="418.81" width="11.77" height="0.51" fill="#e6d0c0"/><path d="M2938,403.22h8a1.44,1.44,0,0,1,1.44,1.44v17.77a0,0,0,0,1,0,0H2936.6a0,0,0,0,1,0,0V404.66A1.44,1.44,0,0,1,2938,403.22Z" fill="#ead8c9"/><path d="M2936.6,422.51h-1.5v-6.65a.71.71,0,0,1,.4-.65l1.1-.52Z" transform="translate(0 -0.08)" fill="#e3cab2"/><path d="M2938.15,402.25H2946a.14.14,0,0,1,.14.14v.83a0,0,0,0,1,0,0H2938a0,0,0,0,1,0,0v-.83A.14.14,0,0,1,2938.15,402.25Z" fill="#e5cbb9"/><path d="M2942.05,396.87h0a4,4,0,0,1,4,4v.36a.14.14,0,0,1-.14.14h-7.81a.14.14,0,0,1-.14-.14v-.36a4,4,0,0,1,4-4Z" fill="#ead8c9"/><rect x="2938.4" y="401.42" width="7.31" height="0.83" fill="#d8c3b6"/><rect x="2940.02" y="415.59" width="4.07" height="6.84" fill="#e5cbb9"/><rect x="2938.85" y="417.7" width="6.41" height="3.2" transform="translate(3361.35 -2522.83) rotate(90)" fill="#d1beb0"/><path d="M2942.05,413h0a2,2,0,0,1,2,2v.58a0,0,0,0,1,0,0H2940a0,0,0,0,1,0,0V415a2,2,0,0,1,2-2Z" fill="#d1beb0"/><path d="M2940.45,415.23v-.15a1.6,1.6,0,0,1,3.2,0v.15Z" transform="translate(0 -0.08)" fill="#e8eeef"/><rect x="2940.87" y="416.51" width="2.37" height="1.23" fill="#e8eeef"/><path d="M2968.38,421.92a.48.48,0,0,0-.47-.48h0v-1.76a.28.28,0,0,0-.28-.28h-.13v-.51h.22a.19.19,0,0,0,.19-.19v-.54a6.29,6.29,0,0,0-12.42-1.42h-8v-12a1.44,1.44,0,0,0-1.44-1.44h0v-.84a.15.15,0,0,0-.15-.14h-.24v-.83h.24a.15.15,0,0,0,.15-.14V401a4.05,4.05,0,1,0-8.1,0v.36a.15.15,0,0,0,.15.14h.25v.83h-.25a.15.15,0,0,0-.15.14v.84h0a1.43,1.43,0,0,0-1.44,1.44v9.95l-1.1.52a.71.71,0,0,0-.4.65v6.65h33.28Z" transform="translate(0 -0.08)" fill="#ffebcb" opacity="0.8"/><rect x="1790.33" y="416.67" width="20.09" height="5.76" fill="#f6e9da"/><path d="M1808.25,421.37h12.59a.47.47,0,0,1,.47.47v.59a0,0,0,0,1,0,0h-13.54a0,0,0,0,1,0,0v-.59A.47.47,0,0,1,1808.25,421.37Z" fill="#e6d0c0"/><path d="M1808.54,419.32h12a.28.28,0,0,1,.28.28v1.77a0,0,0,0,1,0,0h-12.59a0,0,0,0,1,0,0V419.6A.28.28,0,0,1,1808.54,419.32Z" fill="#f1e0d2"/><path d="M1814.55,411.8h0a6.29,6.29,0,0,1,6.29,6.29v.53a.19.19,0,0,1-.19.19h-12.21a.19.19,0,0,1-.19-.19v-.53a6.29,6.29,0,0,1,6.29-6.29Z" fill="#f1e0d2"/><rect x="1808.67" y="418.81" width="11.77" height="0.51" fill="#e6d0c0"/><path d="M1791,403.22h8a1.44,1.44,0,0,1,1.44,1.44v17.77a0,0,0,0,1,0,0h-10.91a0,0,0,0,1,0,0V404.66A1.44,1.44,0,0,1,1791,403.22Z" fill="#ead8c9"/><path d="M1789.54,422.51H1788v-6.65a.72.72,0,0,1,.41-.65l1.09-.52Z" transform="translate(0 -0.08)" fill="#e3cab2"/><path d="M1791.09,402.25h7.81a.14.14,0,0,1,.14.14v.83a0,0,0,0,1,0,0h-8.09a0,0,0,0,1,0,0v-.83A.14.14,0,0,1,1791.09,402.25Z" fill="#e5cbb9"/><path d="M1795,396.87h0a4,4,0,0,1,4,4v.36a.14.14,0,0,1-.14.14h-7.81a.14.14,0,0,1-.14-.14v-.36a4,4,0,0,1,4-4Z" fill="#ead8c9"/><rect x="1791.34" y="401.42" width="7.31" height="0.83" fill="#d8c3b6"/><rect x="1792.96" y="415.59" width="4.07" height="6.84" fill="#e5cbb9"/><rect x="1791.79" y="417.7" width="6.41" height="3.2" transform="translate(2214.3 -1375.77) rotate(90)" fill="#d1beb0"/><path d="M1795,413h0a2,2,0,0,1,2,2v.58a0,0,0,0,1,0,0H1793a0,0,0,0,1,0,0V415A2,2,0,0,1,1795,413Z" fill="#d1beb0"/><path d="M1793.39,415.23v-.15a1.61,1.61,0,0,1,3.21,0v.15Z" transform="translate(0 -0.08)" fill="#e8eeef"/><rect x="1793.81" y="416.51" width="2.37" height="1.23" fill="#e8eeef"/><path d="M1821.32,421.92a.48.48,0,0,0-.47-.48h0v-1.76a.28.28,0,0,0-.29-.28h-.12v-.51h.22a.2.2,0,0,0,.19-.19v-.54a6.29,6.29,0,0,0-12.42-1.42h-8v-12a1.43,1.43,0,0,0-1.44-1.44h0v-.84a.14.14,0,0,0-.14-.14h-.25v-.83h.25a.14.14,0,0,0,.14-.14V401a4,4,0,1,0-8.09,0v.36a.14.14,0,0,0,.14.14h.25v.83h-.25a.14.14,0,0,0-.14.14v.84h0a1.43,1.43,0,0,0-1.44,1.44v9.95l-1.09.52a.72.72,0,0,0-.41.65v6.65h33.28Z" transform="translate(0 -0.08)" fill="#ffebcb" opacity="0.8"/><rect x="1406.68" y="409.34" width="141.75" height="40.66" fill="#f6e9da"/><path d="M1636.41,405.3h0a6.62,6.62,0,0,1,6.62,6.62V450a0,0,0,0,1,0,0h-13.24a0,0,0,0,1,0,0V411.92A6.62,6.62,0,0,1,1636.41,405.3Z" fill="#e6d0c0"/><rect x="1621.95" y="415.08" width="7.83" height="2.21" fill="#e6d0c0"/><rect x="1628.8" y="413.59" width="15.2" height="5.2" rx="0.67" ry="0.67" fill="#d6c1b1"/><rect x="1621.95" y="438" width="7.83" height="2.21" fill="#e6d0c0"/><rect x="1628.8" y="436.51" width="15.2" height="5.2" rx="0.67" ry="0.67" fill="#d6c1b1"/><rect x="1629.79" y="397.73" width="13.24" height="2.98" rx="1.49" ry="1.49" fill="#e6d0c0"/><path d="M1635.57,400.72h1.68a0,0,0,0,1,0,0V406a.84.84,0,0,1-.84.84h0a.84.84,0,0,1-.84-.84v-5.25A0,0,0,0,1,1635.57,400.72Z" fill="#f1e0d2"/><path d="M1636.41,327.51h0a.84.84,0,0,1,.84.84v69.38a0,0,0,0,1,0,0h-1.68a0,0,0,0,1,0,0V328.35A.84.84,0,0,1,1636.41,327.51Z" fill="#f1e0d2"/><line x1="1636.41" y1="328.76" x2="1636.41" y2="324.36" fill="none" stroke="#f1e0d2" stroke-miterlimit="10" stroke-width="0.67"/><circle cx="1636.41" cy="324.01" r="1.73" fill="#e6d0c0"/><path d="M1533.17,442.51H1622a3.34,3.34,0,0,1,3.34,3.34V450a0,0,0,0,1,0,0h-95.55a0,0,0,0,1,0,0v-4.14A3.34,3.34,0,0,1,1533.17,442.51Z" fill="#e6d0c0"/><path d="M1535.2,428H1620a2,2,0,0,1,2,2v12.46a0,0,0,0,1,0,0h-88.81a0,0,0,0,1,0,0V430.05A2,2,0,0,1,1535.2,428Z" fill="#f1e0d2"/><path d="M1577.6,375h0a44.4,44.4,0,0,1,44.4,44.4v3.77a1.34,1.34,0,0,1-1.34,1.34h-86.14a1.34,1.34,0,0,1-1.34-1.34v-3.77A44.4,44.4,0,0,1,1577.6,375Z" fill="#f1e0d2"/><rect x="1536.08" y="424.46" width="83.04" height="3.58" fill="#e6d0c0"/><path d="M1512.61,450.07H1450.2a31.21,31.21,0,1,1,62.41,0Z" transform="translate(0 -0.08)" fill="#f1e0d2"/><path d="M1475.4,428h12a1.34,1.34,0,0,1,1.34,1.34V450a0,0,0,0,1,0,0h-14.67a0,0,0,0,1,0,0V429.38A1.34,1.34,0,0,1,1475.4,428Z" fill="#c6b3a4"/><path d="M1475.4,428h.9a0,0,0,0,1,0,0V450a0,0,0,0,1,0,0h-2.23a0,0,0,0,1,0,0V429.38A1.34,1.34,0,0,1,1475.4,428Z" fill="#e6d0c0"/><path d="M1403.34,439.15h10.24a.65.65,0,0,1,.65.65v9.59a.65.65,0,0,1-.65.65h-10.24a0,0,0,0,1,0,0V439.15A0,0,0,0,1,1403.34,439.15Z" transform="translate(2817.56 889.11) rotate(-180)" fill="#e5c5a4"/><rect x="1405.06" y="440.88" width="7.43" height="7.43" transform="translate(1853.38 -964.26) rotate(90)" fill="#d6ba9d"/><rect x="1407.78" y="439.3" width="2" height="10.59" rx="0.22" ry="0.22" transform="translate(2090.57 1755.05) rotate(-135)" fill="#f1cfad"/><rect x="1407.78" y="439.3" width="2" height="10.59" rx="0.22" ry="0.22" transform="translate(2719.32 -237.26) rotate(135)" fill="#fadab8"/><path d="M1414.87,439.15h2.79a0,0,0,0,1,0,0V450a0,0,0,0,1,0,0h-2.79a.65.65,0,0,1-.65-.65V439.8A.65.65,0,0,1,1414.87,439.15Z" transform="translate(2831.88 889.11) rotate(-180)" fill="#d6ba9d"/><path d="M1414.84,439.15h10.24a.65.65,0,0,1,.65.65v9.59a.65.65,0,0,1-.65.65h-10.24a0,0,0,0,1,0,0V439.15A0,0,0,0,1,1414.84,439.15Z" transform="translate(2840.57 889.11) rotate(-180)" fill="#e5c5a4"/><rect x="1416.57" y="440.88" width="7.43" height="7.43" transform="translate(1864.88 -975.77) rotate(90)" fill="#d6ba9d"/><rect x="1419.28" y="439.3" width="2" height="10.59" rx="0.22" ry="0.22" transform="translate(2110.2 1763.19) rotate(-135)" fill="#f1cfad"/><rect x="1419.28" y="439.3" width="2" height="10.59" rx="0.22" ry="0.22" transform="translate(2738.96 -245.4) rotate(135)" fill="#fadab8"/><path d="M1426.38,439.15h2.79a0,0,0,0,1,0,0V450a0,0,0,0,1,0,0h-2.79a.65.65,0,0,1-.65-.65V439.8a.65.65,0,0,1,.65-.65Z" transform="translate(2854.89 889.11) rotate(-180)" fill="#d6ba9d"/><path d="M1408.18,428.27h10.24a.65.65,0,0,1,.65.65v9.59a.65.65,0,0,1-.65.65h-10.24a0,0,0,0,1,0,0V428.27A0,0,0,0,1,1408.18,428.27Z" transform="translate(2827.25 867.36) rotate(-180)" fill="#e5c5a4"/><rect x="1409.91" y="430" width="7.43" height="7.43" transform="translate(1847.34 -979.98) rotate(90)" fill="#d6ba9d"/><rect x="1412.62" y="428.43" width="2" height="10.59" rx="0.22" ry="0.22" transform="translate(2106.52 1739.91) rotate(-135)" fill="#f1cfad"/><rect x="1412.62" y="428.43" width="2" height="10.59" rx="0.22" ry="0.22" transform="translate(2719.89 -259.25) rotate(135)" fill="#fadab8"/><path d="M1419.72,428.27h2.79a0,0,0,0,1,0,0v10.89a0,0,0,0,1,0,0h-2.79a.65.65,0,0,1-.65-.65v-9.59a.65.65,0,0,1,.65-.65Z" transform="translate(2841.57 867.36) rotate(-180)" fill="#d6ba9d"/><path d="M1454.64,401.27h14.57a1.5,1.5,0,0,1,1.5,1.5v6.58a0,0,0,0,1,0,0h-17.57a0,0,0,0,1,0,0v-6.58A1.5,1.5,0,0,1,1454.64,401.27Z" fill="#ced9d8"/><rect x="1459.01" y="399.96" width="5.83" height="13.08" transform="translate(1868.43 -1055.5) rotate(90)" fill="#b7c1c1"/><rect x="1454.32" y="404.27" width="14.15" height="0.8" fill="#dae8e7"/><rect x="1454.32" y="406.02" width="14.15" height="0.8" fill="#dae8e7"/><rect x="1454.32" y="407.77" width="14.15" height="0.8" fill="#dae8e7"/><line x1="1474.78" y1="409.34" x2="1474.78" y2="368.44" fill="none" stroke="#ced9d8" stroke-miterlimit="10" stroke-width="0.75"/><circle cx="1474.78" cy="368.44" r="1.31" fill="#b7c1c1"/><line x1="1479.64" y1="409.34" x2="1479.64" y2="396.87" fill="none" stroke="#ced9d8" stroke-miterlimit="10" stroke-width="0.75"/><rect x="1478.8" y="392.76" width="1.67" height="5.42" rx="0.84" ry="0.84" fill="#b7c1c1"/><rect x="1473.2" y="408.3" width="7.88" height="1.04" fill="#b7c1c1"/><path d="M1514.81,402.73h3.65a.67.67,0,0,1,.67.67v5.94a0,0,0,0,1,0,0h-5a0,0,0,0,1,0,0V403.4A.67.67,0,0,1,1514.81,402.73Z" fill="#f1e0d2"/><path d="M1514.81,402.73h3.65a.67.67,0,0,1,.67.67v1.34a0,0,0,0,1,0,0h-5a0,0,0,0,1,0,0V403.4A.67.67,0,0,1,1514.81,402.73Z" fill="#e6d0c0"/><circle cx="1516.63" cy="399.71" r="1.3" fill="#fff"/><circle cx="1518.55" cy="396.07" r="0.9" fill="#fff"/><circle cx="1513.51" cy="383.41" r="0.9" fill="#fff"/><path d="M2783.32,442.34h43.73a0,0,0,0,1,0,0v8.17a0,0,0,0,1,0,0h-35.56a8.17,8.17,0,0,1-8.17-8.17v0A0,0,0,0,1,2783.32,442.34Z" transform="translate(5610.38 892.77) rotate(180)" fill="#ffe2b5"/><path d="M2783.32,435.87h17.11a0,0,0,0,1,0,0v6.47a0,0,0,0,1,0,0h-10.64a6.47,6.47,0,0,1-6.47-6.47v0A0,0,0,0,1,2783.32,435.87Z" transform="translate(5583.75 878.13) rotate(180)" fill="#ffe2b5"/><path d="M2718.73,401.93h24.19a0,0,0,0,1,0,0v48.66a0,0,0,0,1,0,0h-68.1a0,0,0,0,1,0,0v-4.75A43.91,43.91,0,0,1,2718.73,401.93Z" fill="#ffe2b5"/><path d="M2728.8,402h56.46a0,0,0,0,1,0,0v48.66a0,0,0,0,1,0,0h-12.55a43.91,43.91,0,0,1-43.91-43.91V402A0,0,0,0,1,2728.8,402Z" transform="translate(5514.06 852.6) rotate(-180)" fill="#ffe2b5"/><path d="M2665.84,446.71h1.93a0,0,0,0,1,0,0v3.89a0,0,0,0,1,0,0h-5.44a0,0,0,0,1,0,0v-.38A3.51,3.51,0,0,1,2665.84,446.71Z" fill="#ffe2b5"/><path d="M2666.64,446.78h4.51a0,0,0,0,1,0,0v3.89a0,0,0,0,1,0,0h-1a3.51,3.51,0,0,1-3.51-3.51v-.38A0,0,0,0,1,2666.64,446.78Z" transform="translate(5337.79 897.38) rotate(-180)" fill="#ffe2b5"/><path d="M2189.25,443h19.67a4.09,4.09,0,0,1,4.09,4.09V451a0,0,0,0,1,0,0h-27.85a0,0,0,0,1,0,0v-3.92A4.09,4.09,0,0,1,2189.25,443Z" fill="#ffe2b5"/><path d="M156.45,443h19.67a4.09,4.09,0,0,1,4.09,4.09V451a0,0,0,0,1,0,0H152.35a0,0,0,0,1,0,0v-3.92A4.09,4.09,0,0,1,156.45,443Z" fill="#ffe2b5"/><rect y="585.46" width="3000" height="14.46" fill="#f4d6a5"/><path d="M2339.45,578.18h31.65a0,0,0,0,1,0,0v7.27a0,0,0,0,1,0,0h-38.93a0,0,0,0,1,0,0v0A7.27,7.27,0,0,1,2339.45,578.18Z" fill="#f4d6a5"/><path d="M2361.63,572.43h9.47a0,0,0,0,1,0,0v5.76a0,0,0,0,1,0,0h-15.23a0,0,0,0,1,0,0v0A5.76,5.76,0,0,1,2361.63,572.43Z" fill="#f4d6a5"/><path d="M178.54,580.89h25.9a0,0,0,0,1,0,0v4.84a0,0,0,0,1,0,0H183.38a4.84,4.84,0,0,1-4.84-4.84v0A0,0,0,0,1,178.54,580.89Z" transform="translate(382.98 1166.54) rotate(180)" fill="#f4d6a5"/><path d="M178.54,577.06h10.13a0,0,0,0,1,0,0v3.83a0,0,0,0,1,0,0h-6.3a3.83,3.83,0,0,1-3.83-3.83v0A0,0,0,0,1,178.54,577.06Z" transform="translate(367.21 1157.87) rotate(180)" fill="#f4d6a5"/><path d="M2497.95,381.59h38.38a0,0,0,0,1,0,0v7.66a0,0,0,0,1,0,0h-38.38a1.35,1.35,0,0,1-1.35-1.35v-5A1.35,1.35,0,0,1,2497.95,381.59Z" fill="#f1dcc9"/><rect x="2499.47" y="389.25" width="36.86" height="2.53" fill="#e5cbb9"/><path d="M2536.38,391.86h-36.86l-19,46.33a9.12,9.12,0,0,0-.68,3.46v8.51h56.64v-58.3" transform="translate(0 -0.08)" fill="#f1dcc9"/><path d="M2479.56,443h56.77a0,0,0,0,1,0,0v7.06a0,0,0,0,1,0,0h-60.38a0,0,0,0,1,0,0v-3.45A3.61,3.61,0,0,1,2479.56,443Z" fill="#e6c8ae"/><path d="M2506.87,380.14h29.46a0,0,0,0,1,0,0v1.45a0,0,0,0,1,0,0h-30.91a0,0,0,0,1,0,0v0A1.45,1.45,0,0,1,2506.87,380.14Z" fill="#ced9d8"/><path d="M2507.49,380.22h30.91a0,0,0,0,1,0,0v1.45a0,0,0,0,1,0,0h-29.46a1.45,1.45,0,0,1-1.45-1.45v0A0,0,0,0,1,2507.49,380.22Z" transform="translate(5045.9 761.81) rotate(-180)" fill="#ced9d8"/><rect x="2512.94" y="376.94" width="0.69" height="3.2" fill="#bcc6c6"/><rect x="2512.23" y="333.09" width="2.12" height="44.28" rx="1.06" ry="1.06" fill="#ced9d8"/><rect x="2513.01" y="319.46" width="0.56" height="13.63" fill="#d9e5e5"/><rect x="2512.23" y="318.59" width="2.12" height="0.87" rx="0.31" ry="0.31" fill="#ced9d8"/><line x1="2506.25" y1="352.83" x2="2513.29" y2="352.83" fill="none" stroke="#d9e5e5" stroke-miterlimit="10" stroke-width="0.54"/><rect x="2504.69" y="347.78" width="3.47" height="10.09" fill="#d7e6ea"/><rect x="2507.49" y="347.78" width="0.66" height="10.09" fill="#c9d7d8"/><line x1="2517.64" y1="346.37" x2="2513.29" y2="346.37" fill="none" stroke="#d9e5e5" stroke-miterlimit="10" stroke-width="0.54"/><rect x="2515.82" y="341.4" width="3.47" height="10.09" transform="translate(5035.11 692.81) rotate(-180)" fill="#d7e6ea"/><rect x="2515.82" y="341.4" width="0.66" height="10.09" transform="translate(5032.31 692.81) rotate(-180)" fill="#c9d7d8"/><line x1="2500.14" y1="331.51" x2="2513.29" y2="339.92" fill="none" stroke="#d9e5e5" stroke-miterlimit="10" stroke-width="0.54"/><rect x="2498.58" y="326.47" width="3.47" height="10.09" fill="#d7e6ea"/><rect x="2501.39" y="326.47" width="0.66" height="10.09" fill="#c9d7d8"/><rect x="2502.48" y="423.85" width="5.9" height="11.69" rx="2.95" ry="2.95" fill="#f2a47d"/><rect x="2502.87" y="425.03" width="4" height="7.93" rx="2" ry="2" fill="#f2b08d"/><rect x="2501.37" y="427.21" width="8.12" height="1.29" rx="0.2" ry="0.2" fill="#ffebdc"/><rect x="2501.37" y="430.24" width="8.12" height="1.29" rx="0.2" ry="0.2" fill="#ffebdc"/><path d="M2505,435.93h.88a0,0,0,0,1,0,0v.79a.44.44,0,0,1-.44.44h0a.44.44,0,0,1-.44-.44v-.79A0,0,0,0,1,2505,435.93Z" fill="#fff5ef"/><path d="M2508,434.11a.33.33,0,0,1,.27.52,3.48,3.48,0,0,1-5.75,0,.33.33,0,0,1,.27-.52Z" transform="translate(0 -0.08)" fill="#ffebdc"/><path d="M2505,423.45h.82a.55.55,0,0,1,.55.55v0a0,0,0,0,1,0,0h-1.91a0,0,0,0,1,0,0v0A.55.55,0,0,1,2505,423.45Z" fill="#ffebdc"/><path d="M2505.43,423.2V411.81a12.78,12.78,0,0,1,3.75-9l3.9-3.91a.76.76,0,0,0,.24-.57v-11a.78.78,0,0,0-.24-.57l-2.45-2.45a.84.84,0,0,1-.24-.58v-3.8a.81.81,0,0,1,.81-.81h1.74" transform="translate(0 -0.08)" fill="none" stroke="#cbdbd9" stroke-miterlimit="10" stroke-width="0.4"/><path d="M2505.43,422.62h0a.4.4,0,0,1,.4.4v.44a0,0,0,0,1,0,0h-.8a0,0,0,0,1,0,0V423A.4.4,0,0,1,2505.43,422.62Z" fill="#b6c6c4"/><path d="M2525.77,381.67H2547a0,0,0,0,1,0,0v7.66a0,0,0,0,1,0,0h-21.2a1.35,1.35,0,0,1-1.35-1.35v-5a1.35,1.35,0,0,1,1.35-1.35Z" transform="translate(5071.41 770.92) rotate(180)" fill="#f1dcc9"/><rect x="2524.43" y="389.33" width="19.68" height="2.53" transform="translate(5068.54 781.11) rotate(180)" fill="#e5cbb9"/><path d="M2524.38,391.86h19.69l19,46.33a9.12,9.12,0,0,1,.68,3.46v8.51h-39.46v-58.3" transform="translate(0 -0.08)" fill="#f1dcc9"/><path d="M2519.88,443.1h47.76a0,0,0,0,1,0,0v7.06a0,0,0,0,1,0,0h-44.15a3.61,3.61,0,0,1-3.61-3.61V443.1A0,0,0,0,1,2519.88,443.1Z" transform="translate(5087.51 893.19) rotate(180)" fill="#e6c8ae"/><path d="M2526.3,423.45h14.59a1.63,1.63,0,0,1,1.63,1.63v25a0,0,0,0,1,0,0h-17.84a0,0,0,0,1,0,0v-25A1.63,1.63,0,0,1,2526.3,423.45Z" fill="#c6b3a4"/><path d="M2526.3,423.45h1.09a0,0,0,0,1,0,0v26.64a0,0,0,0,1,0,0h-2.72a0,0,0,0,1,0,0v-25A1.63,1.63,0,0,1,2526.3,423.45Z" fill="#e6d0c0"/><path d="M2487.86,441.56h8a.51.51,0,0,1,.51.51v7.51a.51.51,0,0,1-.51.51h-8a0,0,0,0,1,0,0v-8.53A0,0,0,0,1,2487.86,441.56Z" fill="#d6b596"/><rect x="2489.21" y="442.99" width="5.82" height="5.82" transform="translate(2938.02 -2046.3) rotate(90)" fill="#caac8e"/><rect x="2491.34" y="441.76" width="1.57" height="8.29" rx="0.17" ry="0.17" transform="translate(414.63 1892.72) rotate(-45)" fill="#e2c19d"/><rect x="2491.34" y="441.76" width="1.57" height="8.29" rx="0.17" ry="0.17" transform="translate(1045.23 -1631.67) rotate(45)" fill="#efcca8"/><path d="M2485.68,441.56h2.18a0,0,0,0,1,0,0v8.53a0,0,0,0,1,0,0h-2.18a.51.51,0,0,1-.51-.51v-7.51A.51.51,0,0,1,2485.68,441.56Z" fill="#caac8e"/><circle cx="2489.65" cy="448.37" r="0.16" fill="#fee9d7"/><circle cx="2494.67" cy="448.37" r="0.16" fill="#fee9d7"/><circle cx="2489.65" cy="443.27" r="0.16" fill="#fee9d7"/><circle cx="2494.67" cy="443.27" r="0.16" fill="#fee9d7"/><rect x="2483.61" y="440.76" width="1.94" height="9.41" rx="0.21" ry="0.21" transform="translate(165.22 -550.68) rotate(13.08)" fill="#d6b596"/><path d="M2468.05,571.46h12.89a4.05,4.05,0,0,1,4.05,4.05v9.95a0,0,0,0,1,0,0h-21a0,0,0,0,1,0,0v-9.95A4.05,4.05,0,0,1,2468.05,571.46Z" fill="#f4d6a5"/><path d="M1832.48,578.18h31.65a0,0,0,0,1,0,0v7.27a0,0,0,0,1,0,0H1825.2a0,0,0,0,1,0,0v0A7.27,7.27,0,0,1,1832.48,578.18Z" fill="#f4d6a5"/><path d="M1854.66,572.43h9.47a0,0,0,0,1,0,0v5.76a0,0,0,0,1,0,0H1848.9a0,0,0,0,1,0,0v0A5.76,5.76,0,0,1,1854.66,572.43Z" fill="#f4d6a5"/><path d="M2794.51,578.18h31.65a0,0,0,0,1,0,0v7.27a0,0,0,0,1,0,0h-38.93a0,0,0,0,1,0,0v0A7.27,7.27,0,0,1,2794.51,578.18Z" fill="#f4d6a5"/><path d="M2816.69,572.43h9.47a0,0,0,0,1,0,0v5.76a0,0,0,0,1,0,0h-15.23a0,0,0,0,1,0,0v0A5.76,5.76,0,0,1,2816.69,572.43Z" fill="#f4d6a5"/><path d="M520.65,578.18H552.3a0,0,0,0,1,0,0v7.27a0,0,0,0,1,0,0H513.38a0,0,0,0,1,0,0v0A7.27,7.27,0,0,1,520.65,578.18Z" fill="#f4d6a5"/><path d="M542.83,572.43h9.47a0,0,0,0,1,0,0v5.76a0,0,0,0,1,0,0H537.08a0,0,0,0,1,0,0v0A5.76,5.76,0,0,1,542.83,572.43Z" fill="#f4d6a5"/><path d="M1146.08,554.16h39.12a0,0,0,0,1,0,0v31.58a0,0,0,0,1,0,0h-67.62a0,0,0,0,1,0,0v-3.08A28.5,28.5,0,0,1,1146.08,554.16Z" fill="#f4d6a5"/><path d="M1174.09,554.24h38.6a0,0,0,0,1,0,0v31.58a0,0,0,0,1,0,0h-10.1a28.5,28.5,0,0,1-28.5-28.5v-3.08A0,0,0,0,1,1174.09,554.24Z" transform="translate(2386.77 1139.98) rotate(-180)" fill="#f4d6a5"/><path d="M1211.79,577.66h19.52a0,0,0,0,1,0,0v8.09a0,0,0,0,1,0,0h-26.82a0,0,0,0,1,0,0V585A7.3,7.3,0,0,1,1211.79,577.66Z" fill="#f4d6a5"/><path d="M1213.46,577.73h24.89a0,0,0,0,1,0,0v8.09a0,0,0,0,1,0,0h-17.59a7.3,7.3,0,0,1-7.3-7.3v-.79A0,0,0,0,1,1213.46,577.73Z" transform="translate(2451.81 1163.48) rotate(-180)" fill="#f4d6a5"/><path d="M1098.56,577.66h4a0,0,0,0,1,0,0v8.09a0,0,0,0,1,0,0h-11.32a0,0,0,0,1,0,0V585A7.3,7.3,0,0,1,1098.56,577.66Z" fill="#f4d6a5"/><path d="M1100.24,577.73h9.39a0,0,0,0,1,0,0v8.09a0,0,0,0,1,0,0h-2.09a7.3,7.3,0,0,1-7.3-7.3v-.79A0,0,0,0,1,1100.24,577.73Z" transform="translate(2209.86 1163.48) rotate(-180)" fill="#f4d6a5"/><path d="M140.28,556.93h14.32a0,0,0,0,1,0,0v28.82a0,0,0,0,1,0,0H114.28a0,0,0,0,1,0,0v-2.81A26,26,0,0,1,140.28,556.93Z" fill="#f4d6a5"/><path d="M146.25,557h33.44a0,0,0,0,1,0,0v28.82a0,0,0,0,1,0,0h-7.44a26,26,0,0,1-26-26V557A0,0,0,0,1,146.25,557Z" transform="translate(325.93 1142.75) rotate(-180)" fill="#f4d6a5"/><path d="M108.33,578.18h3.76a0,0,0,0,1,0,0v7.57a0,0,0,0,1,0,0H101.5a0,0,0,0,1,0,0V585A6.83,6.83,0,0,1,108.33,578.18Z" fill="#f4d6a5"/><path d="M109.89,578.25h8.78a0,0,0,0,1,0,0v7.57a0,0,0,0,1,0,0h-2a6.83,6.83,0,0,1-6.83-6.83v-.74A0,0,0,0,1,109.89,578.25Z" transform="translate(228.56 1164) rotate(-180)" fill="#f4d6a5"/></svg>