<?xml version="1.0" encoding="utf-8"?>
<!-- Generator: Adobe Illustrator 23.0.6, SVG Export Plug-In . SVG Version: 6.00 Build 0)  -->
<svg version="1.0" id="Layer_1" xmlns="http://www.w3.org/2000/svg" xmlns:xlink="http://www.w3.org/1999/xlink" x="0px" y="0px"
	 width="800px" height="600px" viewBox="0 0 800 600" enable-background="new 0 0 800 600" xml:space="preserve">
<g id="bounds">
	<rect x="-111.5" y="581.5" fill="none" width="1094" height="125"/>
	<rect x="-147.5" y="-639.5" fill="none" width="149" height="1211"/>
	<rect x="801.5" y="-639.5" fill="none" width="183" height="1211"/>
	<rect x="372" y="503.9" fill="none" width="55" height="16"/>
	<rect x="-4" y="-639" fill="none" width="805" height="46"/>
	<rect x="426" y="483" fill="none" width="22" height="7"/>
	<rect x="350.7" y="483" fill="none" width="22" height="7"/>
</g>
<g>
	<rect fill="#8A2D3B" width="798.7" height="599"/>
	<path fill="#8E2F3D" d="M798.4,599H0.7v0c0-208.8,169.3-378.1,378.1-378.1h41.4C629.1,220.9,798.4,390.2,798.4,599L798.4,599z"/>
	<path fill="#94313F" d="M699.9,599H99.2v0c0-157.3,127.5-284.8,284.8-284.8h31.2C572.4,314.2,699.9,441.7,699.9,599L699.9,599z"/>
	<path fill="#9D3543" d="M581.9,599H217.2v0c0-95.5,77.4-172.9,172.9-172.9H409C504.5,426.1,581.9,503.5,581.9,599L581.9,599z"/>
	<circle fill="#9D3543" cx="522.8" cy="473.6" r="8"/>
	<circle fill="#9D3543" cx="521.4" cy="448.6" r="4.3"/>
	<circle fill="#9D3543" cx="536.2" cy="463.2" r="2.6"/>
	<path fill="#B53D4B" d="M541.6,599H257.5v0c0-74.4,60.3-134.7,134.7-134.7h14.7C481.3,464.3,541.6,524.6,541.6,599L541.6,599z"/>
	<rect x="0.2" y="556.1" fill="#491A1F" width="798.7" height="42.9"/>
	<rect x="0.2" y="556.1" fill="#612228" width="798.7" height="6.9"/>
	<g>
		<g>
			<path fill="#4E5050" d="M638.5,490.1v66h-11.1v-9.4c0-1-0.8-1.8-1.8-1.8h-15.4c-1,0-1.8,0.8-1.8,1.8v9.4h-9.7v-9.4
				c0-1-0.8-1.8-1.8-1.8h-15.4c-1,0-1.8,0.8-1.8,1.8v9.4H570v-9.4c0-1-0.8-1.8-1.8-1.8h-15.4c-1,0-1.8,0.8-1.8,1.8v9.4H540v-66
				c0-0.5,0.4-0.9,0.9-0.9h7.9c0.5,0,0.9,0.5,0.9,1c-0.3,2.4-0.3,4.9-0.1,7.5c1.6,20.6,19.2,36.7,39.9,36.5
				c21.8-0.2,39.4-17.9,39.4-39.7c0-1.4-0.1-2.8-0.2-4.2c-0.1-0.5,0.3-1,0.9-1h7.9C638.1,489.2,638.5,489.6,638.5,490.1z"/>
			<path fill="#3B3D3D" d="M545.4,556.1h-13.3v-67.4c0-1.1,0.9-2,2-2h9.3c1.1,0,2,0.9,2,2V556.1z"/>
			<g>
				<rect x="636.7" y="494.4" fill="#3B3D3D" width="12.8" height="61.7"/>
				<g>
					<path fill="#464848" d="M589.2,455.8c-21.3,0-38.6,17.3-38.6,38.6c0,21.3,17.3,38.6,38.6,38.6c21.3,0,38.6-17.3,38.6-38.6
						C627.8,473.1,610.6,455.8,589.2,455.8z M589.2,527.5c-7.9,0-15.1-2.8-20.8-7.4c-7.5-6.1-12.3-15.3-12.3-25.7
						c0-10.4,4.8-19.7,12.3-25.7c5.7-4.6,12.9-7.4,20.8-7.4c18.3,0,33.1,14.8,33.1,33.1C622.3,512.7,607.5,527.5,589.2,527.5z"/>
					<g>
						<path fill="#94313F" d="M590.1,458v1.1c0,0.5,0.4,0.8,0.8,0.9c4.1,0.2,8,1.1,11.6,2.7c0.4,0.2,0.9,0,1.1-0.4l0.5-1
							c0.2-0.4,0-1-0.4-1.2c-4-1.7-8.2-2.7-12.8-2.9C590.5,457.1,590.1,457.5,590.1,458z"/>
						<path fill="#94313F" d="M561.3,514.5c-2.3-3.3-4.1-6.9-5.2-10.8c-0.1-0.5-0.6-0.7-1-0.6l-1.1,0.3c-0.5,0.1-0.8,0.6-0.7,1.1
							c1.2,4.3,3.1,8.3,5.7,11.8c0.3,0.4,0.9,0.5,1.3,0.2l0.9-0.7C561.5,515.4,561.6,514.8,561.3,514.5z"/>
						<path fill="#94313F" d="M554,485.4l1.1,0.3c0.5,0.1,0.9-0.2,1-0.6c1.1-3.9,2.8-7.5,5.2-10.8c0.3-0.4,0.2-0.9-0.2-1.2l-0.9-0.7
							c-0.4-0.3-1-0.2-1.3,0.2c-2.5,3.5-4.5,7.5-5.7,11.8C553.2,484.8,553.5,485.3,554,485.4z"/>
						<path fill="#94313F" d="M575.9,462.7c3.7-1.5,7.6-2.5,11.6-2.7c0.5,0,0.8-0.4,0.8-0.9V458c0-0.5-0.4-0.9-0.9-0.9
							c-4.5,0.2-8.8,1.2-12.8,2.9c-0.5,0.2-0.7,0.7-0.4,1.2l0.5,1C574.9,462.7,575.4,462.9,575.9,462.7z"/>
						<path fill="#94313F" d="M623.6,494.4c0,2-0.2,4-0.5,6c-0.1,0.5,0.2,0.9,0.7,1l1.1,0.3c0.5,0.1,1-0.2,1.1-0.7
							c0.4-2.1,0.6-4.3,0.6-6.5c0-2.2-0.2-4.4-0.6-6.5c-0.1-0.5-0.6-0.8-1.1-0.7l-1.1,0.3c-0.5,0.1-0.7,0.5-0.7,1
							C623.5,490.3,623.6,492.3,623.6,494.4z"/>
						<path fill="#94313F" d="M618.2,472.4l-0.9,0.7c-0.4,0.3-0.4,0.8-0.2,1.2c2.3,3.2,4.1,6.8,5.2,10.8c0.1,0.5,0.6,0.7,1,0.6
							l1.1-0.3c0.5-0.1,0.8-0.6,0.7-1.1c-1.2-4.3-3.1-8.3-5.7-11.8C619.2,472.2,618.6,472.1,618.2,472.4z"/>
						<path fill="#94313F" d="M554.8,494.4c0-2,0.2-4,0.5-6c0.1-0.5-0.2-0.9-0.7-1l-1.1-0.3c-0.5-0.1-1,0.2-1.1,0.7
							c-0.4,2.1-0.6,4.3-0.6,6.5c0,2.2,0.2,4.4,0.6,6.5c0.1,0.5,0.6,0.8,1.1,0.7l1.1-0.3c0.5-0.1,0.7-0.5,0.7-1
							C555,498.4,554.8,496.4,554.8,494.4z"/>
						<path fill="#94313F" d="M562.2,471.7c0.4,0.3,0.9,0.2,1.2-0.1c1.3-1.4,2.6-2.8,4.1-4c1.6-1.3,3.4-2.5,5.2-3.5
							c0.4-0.2,0.6-0.7,0.4-1.1l-0.5-1c-0.2-0.5-0.8-0.6-1.2-0.4c-3.9,2.1-7.3,4.9-10.2,8.2c-0.3,0.4-0.3,1,0.1,1.3L562.2,471.7z"/>
						<path fill="#94313F" d="M573.2,525.7c0.2-0.4,0-0.9-0.4-1.1c-1.8-1-3.6-2.2-5.2-3.5c-1.5-1.2-2.9-2.6-4.1-4
							c-0.3-0.4-0.8-0.4-1.2-0.1l-0.9,0.7c-0.4,0.3-0.4,0.9-0.1,1.3c2.9,3.3,6.3,6,10.2,8.2c0.4,0.2,1,0.1,1.2-0.4L573.2,525.7z"/>
						<path fill="#94313F" d="M615,517.1c-2.6,3-5.8,5.5-9.3,7.4c-0.4,0.2-0.6,0.7-0.4,1.1l0.5,1c0.2,0.5,0.8,0.6,1.2,0.4
							c3.9-2.1,7.3-4.9,10.2-8.2c0.3-0.4,0.3-1-0.1-1.3l-0.9-0.7C615.8,516.7,615.3,516.8,615,517.1z"/>
						<path fill="#94313F" d="M605.7,464.2c3.5,1.9,6.7,4.5,9.3,7.4c0.3,0.4,0.8,0.4,1.2,0.1l0.9-0.7c0.4-0.3,0.4-0.9,0.1-1.3
							c-2.9-3.3-6.3-6-10.2-8.2c-0.4-0.2-1-0.1-1.2,0.4l-0.5,1C605.1,463.5,605.3,464,605.7,464.2z"/>
						<path fill="#94313F" d="M624.5,503.3l-1.1-0.3c-0.5-0.1-0.9,0.2-1,0.6c-1.1,3.9-2.9,7.5-5.2,10.8c-0.3,0.4-0.2,0.9,0.2,1.2
							l0.9,0.7c0.4,0.3,1,0.2,1.3-0.2c2.5-3.5,4.5-7.5,5.7-11.8C625.3,503.9,625,503.4,624.5,503.3z"/>
						<path fill="#94313F" d="M602.6,526.1c-3.6,1.5-7.5,2.5-11.6,2.7c-0.5,0-0.8,0.4-0.8,0.9v1.1c0,0.5,0.4,0.9,0.9,0.9
							c4.5-0.2,8.8-1.2,12.8-2.9c0.5-0.2,0.7-0.7,0.4-1.2l-0.5-1C603.5,526.1,603,525.9,602.6,526.1z"/>
						<path fill="#94313F" d="M588.4,530.7v-1.1c0-0.5-0.4-0.8-0.8-0.9c-4-0.2-8-1.1-11.6-2.7c-0.4-0.2-0.9,0-1.1,0.4l-0.5,1
							c-0.2,0.4,0,1,0.4,1.2c4,1.7,8.2,2.7,12.8,2.9C587.9,531.6,588.4,531.2,588.4,530.7z"/>
					</g>
				</g>
				<path fill="#94313F" d="M622.3,494.4c0,18.3-14.8,33.1-33.1,33.1c-7.9,0-15.1-2.8-20.8-7.4c-7.5-6.1-12.3-15.3-12.3-25.7
					c0-10.4,4.8-19.7,12.3-25.7c5.7-4.6,12.9-7.4,20.8-7.4C607.5,461.3,622.3,476.1,622.3,494.4z"/>
				<path fill="#A53746" d="M619.9,494.4c0,16.9-13.7,30.6-30.6,30.6c-7.3,0-14-2.6-19.3-6.8c-6.9-5.6-11.4-14.2-11.4-23.8
					c0-9.6,4.4-18.2,11.4-23.8c5.3-4.3,12-6.8,19.3-6.8C606.1,463.8,619.9,477.5,619.9,494.4z"/>
				<path fill="#AC3A49" d="M613.1,494.4c0,13.2-10.7,23.9-23.9,23.9c-5.7,0-10.9-2-15-5.3c-5.4-4.4-8.9-11.1-8.9-18.6
					c0-7.5,3.5-14.2,8.9-18.6c4.1-3.3,9.3-5.3,15-5.3C602.4,470.5,613.1,481.2,613.1,494.4z"/>

					<line fill="none" stroke="#313333" stroke-width="1.7548" stroke-miterlimit="10" x1="598.6" y1="494.4" x2="649.5" y2="494.4"/>
				<g>

						<line fill="none" stroke="#313333" stroke-width="1.7548" stroke-miterlimit="10" x1="589.2" y1="493.4" x2="563.2" y2="477.3"/>

						<line fill="none" stroke="#313333" stroke-width="1.7548" stroke-miterlimit="10" x1="563.2" y1="511.5" x2="589.2" y2="495.4"/>
				</g>
				<circle fill="#313333" cx="589.2" cy="494.4" r="10.8"/>
				<circle fill="#B22F3E" cx="589.2" cy="494.4" r="8.9"/>
				<circle fill="#C64352" cx="589.2" cy="494.4" r="7.4"/>
				<circle fill="#E54E5F" cx="589.2" cy="494.4" r="4"/>
				<path fill="#313333" d="M568.4,468.7v51.4c-7.5-6.1-12.3-15.3-12.3-25.7C556.1,484,560.9,474.7,568.4,468.7z"/>
				<g>
					<path fill="#464848" d="M562.8,497.7h-17.5c-1,0-1.8-0.8-1.8-1.8v-3c0-1,0.8-1.8,1.8-1.8h17.5V497.7z"/>
					<path fill="#666A69" d="M566.3,499.9L566.3,499.9c-0.5,0-0.9-0.4-0.9-0.9v-9.3c0-0.5,0.4-0.9,0.9-0.9l0,0
						c0.5,0,0.9,0.4,0.9,0.9v9.3C567.2,499.5,566.8,499.9,566.3,499.9z"/>
					<rect x="558.3" y="490.2" fill="#585A5A" width="7.1" height="8.3"/>
				</g>
				<circle fill="#E26879" cx="583.3" cy="491.2" r="1.5"/>
				<circle fill="#E26879" cx="585.5" cy="488.6" r="1"/>
				<path fill="#4E5050" d="M649.5,497.8L649.5,497.8V491l0,0c1.6,0,2.9,1.3,2.9,2.9v1.1C652.3,496.5,651.1,497.8,649.5,497.8z"/>
			</g>
			<g>

					<line fill="none" stroke="#5D6161" stroke-width="0.8774" stroke-miterlimit="10" x1="547.4" y1="461.3" x2="547.4" y2="443.8"/>

					<line fill="none" stroke="#505252" stroke-width="1.9056" stroke-miterlimit="10" x1="547.4" y1="465.2" x2="547.4" y2="461.3"/>

					<line fill="none" stroke="#CDD4D3" stroke-width="1.7548" stroke-miterlimit="10" x1="547.4" y1="471.2" x2="547.4" y2="465.2"/>

					<line fill="none" stroke="#F6FBFC" stroke-width="0.8774" stroke-miterlimit="10" x1="547.4" y1="471.2" x2="547.4" y2="465.2"/>

					<line fill="none" stroke="#505252" stroke-width="1.9056" stroke-miterlimit="10" x1="547.4" y1="489.2" x2="547.4" y2="471.2"/>
			</g>
			<circle fill="#7B7E7E" cx="625.9" cy="494.4" r="7.7"/>
			<circle fill="#919494" cx="625.9" cy="494.4" r="6.8"/>
			<circle fill="#A7AAAB" cx="625.9" cy="494.4" r="4.8"/>
			<circle fill="#3B3D3D" cx="625.9" cy="494.4" r="3.4"/>
		</g>
		<g>
			<g>
				<g>
					<g>
						<g>
							<path fill="#464848" d="M200.9,556.1H14.3l2.1-2.5l2.7-3.2c0.7-0.9,1.8-1.4,2.9-1.4h171.1c1.1,0,2.2,0.5,2.9,1.4l2.7,3.2
								L200.9,556.1z"/>
							<g>
								<g>
									<g>
										<polygon fill="#3B3D3D" points="179.7,549 179.7,545.3 128.2,536.4 107.6,536.4 107.6,549 										"/>
									</g>
									<g>
										<polygon fill="#3B3D3D" points="35.6,549 35.6,545.3 87.1,536.4 107.6,536.4 107.6,549 										"/>
									</g>
									<rect x="35.6" y="545.3" fill="#464848" width="144.1" height="3.7"/>
								</g>
								<rect x="86.2" y="544.2" fill="#585A5A" width="42.9" height="4.9"/>
								<g>
									<g>
										<polygon fill="#4E5050" points="129.1,544.2 86.2,544.2 97.1,536.4 118.2,536.4 										"/>
									</g>
								</g>
							</g>
							<polygon fill="#393B3B" points="200.9,556.1 14.3,556.1 16.4,553.6 198.8,553.6 							"/>
						</g>
						<g>
							<g>
								<polygon fill="#3B3D3D" points="93.2,532.4 88.7,532.4 88.7,522.3 93.2,518.9 								"/>
								<polygon fill="#3B3D3D" points="122.1,532.4 126.5,532.4 126.5,522.3 122.1,518.9 								"/>
								<path fill="#464848" d="M122.1,532.4H93.2v-26.8c0-1.2,0.9-2.1,2.1-2.1H120c1.2,0,2.1,0.9,2.1,2.1V532.4z"/>
								<rect x="106.1" y="518.9" fill="#585A5A" width="3.1" height="13.6"/>
							</g>
							<path fill="#464848" d="M126.6,532.3H88.7c-0.7,0-1.4,0.6-1.4,1.4v2.8h40.6v-2.8C127.9,532.9,127.3,532.3,126.6,532.3z"/>
						</g>
						<rect x="106.1" y="518.9" fill="#666A69" width="3.1" height="3.7"/>

							<line fill="none" stroke="#505252" stroke-width="2.1683" stroke-miterlimit="10" x1="100.3" y1="455.4" x2="100.3" y2="444.2"/>

							<line fill="none" stroke="#BDC3C3" stroke-width="1.9967" stroke-miterlimit="10" x1="100.3" y1="459.7" x2="100.3" y2="455.4"/>

							<line fill="none" stroke="#505252" stroke-width="2.1683" stroke-miterlimit="10" x1="100.3" y1="463.6" x2="100.3" y2="459.7"/>

							<line fill="none" stroke="#BDC3C3" stroke-width="1.9967" stroke-miterlimit="10" x1="100.3" y1="467.7" x2="100.3" y2="463.6"/>

							<line fill="none" stroke="#505252" stroke-width="2.1683" stroke-miterlimit="10" x1="100.3" y1="492.2" x2="100.3" y2="467.7"/>

							<line fill="none" stroke="#BDC3C3" stroke-width="1.9967" stroke-miterlimit="10" x1="100.3" y1="496.5" x2="100.3" y2="492.2"/>

							<line fill="none" stroke="#505252" stroke-width="2.1683" stroke-miterlimit="10" x1="100.3" y1="503.6" x2="100.3" y2="496.5"/>

							<line fill="none" stroke="#505252" stroke-width="2.1683" stroke-miterlimit="10" x1="114.2" y1="483.1" x2="114.2" y2="479.6"/>

							<line fill="none" stroke="#BDC3C3" stroke-width="1.9967" stroke-miterlimit="10" x1="114.2" y1="487.7" x2="114.2" y2="483.1"/>

							<line fill="none" stroke="#505252" stroke-width="2.1683" stroke-miterlimit="10" x1="114.2" y1="496.9" x2="114.2" y2="487.7"/>

							<line fill="none" stroke="#BDC3C3" stroke-width="1.9967" stroke-miterlimit="10" x1="114.2" y1="500.6" x2="114.2" y2="496.9"/>

							<line fill="none" stroke="#505252" stroke-width="2.1683" stroke-miterlimit="10" x1="114.2" y1="503.6" x2="114.2" y2="500.6"/>

							<line fill="none" stroke="#505252" stroke-width="2.1683" stroke-miterlimit="10" x1="107.6" y1="473.5" x2="107.6" y2="467.6"/>

							<line fill="none" stroke="#BDC3C3" stroke-width="1.9967" stroke-miterlimit="10" x1="107.6" y1="478.4" x2="107.6" y2="473.5"/>
						<path fill="none" stroke="#505252" stroke-width="2.1683" stroke-miterlimit="10" d="M114.2,492.2h-0.4
							c-3.4,0-6.1-2.8-6.1-6.1v-7.7"/>
					</g>
					<g>
						<g>
							<g>
								<g>
									<path fill="#464848" d="M122.1,241.8H93.2v75.7c0,1.1,0.9,2,2,2h24.9c1.1,0,2-0.9,2-2V241.8z"/>
									<rect x="98" y="0" fill="#464848" width="19.3" height="300.7"/>
									<polygon fill="#585A5A" points="117.3,230.9 98,230.9 93.2,241.8 122.1,241.8 									"/>
								</g>
								<g>
									<g>
										<g>
											<path fill="#585A5A" d="M93.2,265.9v35.6l-6.4-13.1c-1.4-3-1.4-6.4,0-9.4L93.2,265.9z"/>
										</g>
									</g>
									<g>
										<g>
											<path fill="#585A5A" d="M122.1,265.9v35.6l6.4-13.1c1.4-3,1.4-6.4,0-9.4L122.1,265.9z"/>
										</g>
									</g>
								</g>
								<path fill="#666A69" d="M121.9,293.1H93.3c-0.6,0-1-0.4-1-1v-2.5c0-0.6,0.4-1,1-1h28.6c0.6,0,1,0.4,1,1v2.5
									C122.9,292.7,122.5,293.1,121.9,293.1z"/>
								<path fill="#828686" d="M103.3,294.4h-5.4c-0.6,0-1-0.4-1-1v-5.1c0-0.6,0.4-1,1-1h5.4c0.6,0,1,0.4,1,1v5.1
									C104.3,293.9,103.8,294.4,103.3,294.4z"/>
							</g>
							<path fill="#3B3D3D" d="M93.2,348L93.2,348c-1.9,0-3.5-1.6-3.5-3.5v-30.9c0-1.9,1.6-3.5,3.5-3.5h0V348z"/>
							<g>

									<line fill="none" stroke="#505252" stroke-width="2.1683" stroke-miterlimit="10" x1="114.4" y1="372.3" x2="114.4" y2="379.3"/>

									<line fill="none" stroke="#BDC3C3" stroke-width="1.9967" stroke-miterlimit="10" x1="114.4" y1="367.4" x2="114.4" y2="372.3"/>

									<line fill="none" stroke="#505252" stroke-width="2.1683" stroke-miterlimit="10" x1="114.4" y1="362.9" x2="114.4" y2="367.4"/>

									<line fill="none" stroke="#BDC3C3" stroke-width="1.9967" stroke-miterlimit="10" x1="114.4" y1="357.2" x2="114.4" y2="362.9"/>

									<line fill="none" stroke="#505252" stroke-width="2.1683" stroke-miterlimit="10" x1="114.4" y1="339.2" x2="114.4" y2="357.2"/>

									<line fill="none" stroke="#BDC3C3" stroke-width="1.9967" stroke-miterlimit="10" x1="114.4" y1="334.7" x2="114.4" y2="339.2"/>

									<line fill="none" stroke="#505252" stroke-width="2.1683" stroke-miterlimit="10" x1="114.4" y1="329.4" x2="114.4" y2="334.7"/>

									<line fill="none" stroke="#BDC3C3" stroke-width="1.9967" stroke-miterlimit="10" x1="114.4" y1="324.9" x2="114.4" y2="329.4"/>

									<line fill="none" stroke="#505252" stroke-width="2.1683" stroke-miterlimit="10" x1="114.4" y1="319.5" x2="114.4" y2="324.9"/>
							</g>

								<line fill="none" stroke="#505252" stroke-width="2.1683" stroke-miterlimit="10" x1="101.4" y1="345.6" x2="101.4" y2="350.7"/>

								<line fill="none" stroke="#BDC3C3" stroke-width="1.9967" stroke-miterlimit="10" x1="101.4" y1="340.7" x2="101.4" y2="345.6"/>

								<line fill="none" stroke="#505252" stroke-width="2.1683" stroke-miterlimit="10" x1="101.4" y1="319.5" x2="101.4" y2="340.7"/>
							<g>
								<path fill="#585A5A" d="M117.1,255.1h-14c-0.6,0-1-0.4-1-1v-7.5c0-0.6,0.4-1,1-1h14c0.6,0,1,0.4,1,1v7.5
									C118.1,254.6,117.7,255.1,117.1,255.1z"/>
								<circle fill="#3B3D3D" cx="106.9" cy="250.3" r="2.2"/>
							</g>
							<path fill="#666A69" d="M117.8,207H97.4c-0.6,0-1-0.4-1-1v-3.5c0-0.6,0.4-1,1-1h20.4c0.6,0,1,0.4,1,1v3.5
								C118.8,206.5,118.4,207,117.8,207z"/>
							<path fill="#666A69" d="M117.8,120.3H97.4c-0.6,0-1-0.4-1-1v-3.5c0-0.6,0.4-1,1-1h20.4c0.6,0,1,0.4,1,1v3.5
								C118.8,119.8,118.4,120.3,117.8,120.3z"/>
							<path fill="#666A69" d="M117.8,33.5H97.4c-0.6,0-1-0.4-1-1v-3.5c0-0.6,0.4-1,1-1h20.4c0.6,0,1,0.4,1,1v3.5
								C118.8,33.1,118.4,33.5,117.8,33.5z"/>
						</g>
						<g>
							<g>
								<line fill="none" stroke="#464848" stroke-width="1.9967" stroke-miterlimit="10" x1="88.2" y1="0" x2="88.2" y2="259.3"/>
								<g>
									<defs>
										<path id="SVGID_1_" d="M88.2,203.9l-15.9,15.9c-0.2,0.2-0.3,0.4-0.3,0.7v36.8c0,1.1,0.9,2,2,2h14.2V203.9z"/>
									</defs>
									<use xlink:href="#SVGID_1_"  overflow="visible" fill="#464848"/>
									<clipPath id="SVGID_2_">
										<use xlink:href="#SVGID_1_"  overflow="visible"/>
									</clipPath>
									<polygon clip-path="url(#SVGID_2_)" fill="none" stroke="#3B3D3D" stroke-width="0.9983" stroke-miterlimit="10" points="
										92,205.9 75.9,222 75.9,261.3 92,261.3 									"/>
									<polygon clip-path="url(#SVGID_2_)" fill="none" stroke="#3B3D3D" stroke-width="0.9983" stroke-miterlimit="10" points="
										95.9,207.8 79.7,224 79.7,263.3 95.9,263.3 									"/>
								</g>
							</g>
							<g>

									<line fill="none" stroke="#464848" stroke-width="1.9967" stroke-miterlimit="10" x1="127.1" y1="0" x2="127.1" y2="259.3"/>
								<g>
									<defs>
										<path id="SVGID_3_" d="M127.1,203.9l15.9,15.9c0.2,0.2,0.3,0.4,0.3,0.7v36.8c0,1.1-0.9,2-2,2h-14.2V203.9z"/>
									</defs>
									<use xlink:href="#SVGID_3_"  overflow="visible" fill="#464848"/>
									<clipPath id="SVGID_4_">
										<use xlink:href="#SVGID_3_"  overflow="visible"/>
									</clipPath>
									<polygon clip-path="url(#SVGID_4_)" fill="none" stroke="#3B3D3D" stroke-width="0.9983" stroke-miterlimit="10" points="
										123.2,205.9 139.4,222 139.4,261.3 123.2,261.3 									"/>
									<polygon clip-path="url(#SVGID_4_)" fill="none" stroke="#3B3D3D" stroke-width="0.9983" stroke-miterlimit="10" points="
										119.3,207.8 135.5,224 135.5,263.3 119.3,263.3 									"/>
								</g>
							</g>
						</g>
					</g>
				</g>
				<path fill="#464848" d="M106.1,503.6h-9.4v-3.1c0-0.6,0.5-1,1-1h7.3c0.6,0,1,0.5,1,1V503.6z"/>
				<g>
					<circle fill="#CDD4D3" cx="98.8" cy="501.5" r="1"/>
					<circle fill="#CDD4D3" cx="102.1" cy="501.5" r="1"/>
				</g>
			</g>
			<line fill="none" stroke="#BDC3C3" stroke-width="1.9967" stroke-miterlimit="10" x1="100.3" y1="459.7" x2="100.3" y2="455.4"/>
			<line fill="none" stroke="#BDC3C3" stroke-width="1.9967" stroke-miterlimit="10" x1="100.3" y1="467.7" x2="100.3" y2="463.6"/>
			<line fill="none" stroke="#BDC3C3" stroke-width="1.9967" stroke-miterlimit="10" x1="100.3" y1="496.5" x2="100.3" y2="492.2"/>
			<line fill="none" stroke="#BDC3C3" stroke-width="1.9967" stroke-miterlimit="10" x1="114.2" y1="487.7" x2="114.2" y2="483.1"/>
			<line fill="none" stroke="#BDC3C3" stroke-width="1.9967" stroke-miterlimit="10" x1="114.2" y1="500.6" x2="114.2" y2="496.9"/>
			<line fill="none" stroke="#BDC3C3" stroke-width="1.9967" stroke-miterlimit="10" x1="107.6" y1="478.4" x2="107.6" y2="473.5"/>
			<line fill="none" stroke="#BDC3C3" stroke-width="1.9967" stroke-miterlimit="10" x1="114.4" y1="367.4" x2="114.4" y2="372.3"/>
			<line fill="none" stroke="#BDC3C3" stroke-width="1.9967" stroke-miterlimit="10" x1="114.4" y1="357.2" x2="114.4" y2="362.9"/>
			<line fill="none" stroke="#BDC3C3" stroke-width="1.9967" stroke-miterlimit="10" x1="114.4" y1="334.7" x2="114.4" y2="339.2"/>
			<line fill="none" stroke="#BDC3C3" stroke-width="1.9967" stroke-miterlimit="10" x1="114.4" y1="324.9" x2="114.4" y2="329.4"/>
			<line fill="none" stroke="#BDC3C3" stroke-width="1.9967" stroke-miterlimit="10" x1="101.4" y1="340.7" x2="101.4" y2="345.6"/>
			<line fill="none" stroke="#F6FBFC" stroke-width="0.9983" stroke-miterlimit="10" x1="114.4" y1="367.4" x2="114.4" y2="372.3"/>
			<line fill="none" stroke="#F6FBFC" stroke-width="0.9983" stroke-miterlimit="10" x1="114.4" y1="357.2" x2="114.4" y2="362.9"/>
			<line fill="none" stroke="#F6FBFC" stroke-width="0.9983" stroke-miterlimit="10" x1="114.4" y1="334.7" x2="114.4" y2="339.2"/>
			<path fill="none" stroke="#F6FBFC" stroke-width="0.9983" stroke-miterlimit="10" d="M123.2,329.5"/>
			<path fill="none" stroke="#F6FBFC" stroke-width="0.9983" stroke-miterlimit="10" d="M123.2,325"/>
			<line fill="none" stroke="#F6FBFC" stroke-width="0.9983" stroke-miterlimit="10" x1="101.4" y1="340.7" x2="101.4" y2="345.6"/>
			<line fill="none" stroke="#F6FBFC" stroke-width="0.9983" stroke-miterlimit="10" x1="100.3" y1="459.7" x2="100.3" y2="455.4"/>
			<line fill="none" stroke="#F6FBFC" stroke-width="0.9983" stroke-miterlimit="10" x1="100.3" y1="467.7" x2="100.3" y2="463.6"/>
			<line fill="none" stroke="#F6FBFC" stroke-width="0.9983" stroke-miterlimit="10" x1="100.3" y1="496.5" x2="100.3" y2="492.2"/>
			<line fill="none" stroke="#F6FBFC" stroke-width="0.9983" stroke-miterlimit="10" x1="114.2" y1="487.7" x2="114.2" y2="483.1"/>
			<line fill="none" stroke="#F6FBFC" stroke-width="0.9983" stroke-miterlimit="10" x1="114.2" y1="500.6" x2="114.2" y2="496.9"/>
			<line fill="none" stroke="#F6FBFC" stroke-width="0.9983" stroke-miterlimit="10" x1="107.6" y1="478.4" x2="107.6" y2="473.5"/>
			<line fill="none" stroke="#F6FBFC" stroke-width="0.9983" stroke-miterlimit="10" x1="114.4" y1="367.4" x2="114.4" y2="372.3"/>
			<line fill="none" stroke="#F6FBFC" stroke-width="0.9983" stroke-miterlimit="10" x1="114.4" y1="357.2" x2="114.4" y2="362.9"/>
			<line fill="none" stroke="#F6FBFC" stroke-width="0.9983" stroke-miterlimit="10" x1="114.4" y1="334.7" x2="114.4" y2="339.2"/>
			<line fill="none" stroke="#F6FBFC" stroke-width="0.9983" stroke-miterlimit="10" x1="101.4" y1="340.7" x2="101.4" y2="345.6"/>
			<line fill="none" stroke="#F6FBFC" stroke-width="0.9983" stroke-miterlimit="10" x1="100.3" y1="459.7" x2="100.3" y2="455.4"/>
			<line fill="none" stroke="#F6FBFC" stroke-width="0.9983" stroke-miterlimit="10" x1="100.3" y1="467.7" x2="100.3" y2="463.6"/>
			<line fill="none" stroke="#F6FBFC" stroke-width="0.9983" stroke-miterlimit="10" x1="100.3" y1="496.5" x2="100.3" y2="492.2"/>
			<line fill="none" stroke="#F6FBFC" stroke-width="0.9983" stroke-miterlimit="10" x1="114.2" y1="487.7" x2="114.2" y2="483.1"/>
			<line fill="none" stroke="#F6FBFC" stroke-width="0.9983" stroke-miterlimit="10" x1="114.2" y1="500.6" x2="114.2" y2="496.9"/>
			<line fill="none" stroke="#F6FBFC" stroke-width="0.9983" stroke-miterlimit="10" x1="107.6" y1="478.4" x2="107.6" y2="473.5"/>
			<line fill="none" stroke="#F6FBFC" stroke-width="0.9983" stroke-miterlimit="10" x1="114.4" y1="367.4" x2="114.4" y2="372.3"/>
			<line fill="none" stroke="#F6FBFC" stroke-width="0.9983" stroke-miterlimit="10" x1="114.4" y1="357.2" x2="114.4" y2="362.9"/>
			<line fill="none" stroke="#F6FBFC" stroke-width="0.9983" stroke-miterlimit="10" x1="114.4" y1="334.7" x2="114.4" y2="339.2"/>
			<line fill="none" stroke="#F6FBFC" stroke-width="0.9983" stroke-miterlimit="10" x1="101.4" y1="340.7" x2="101.4" y2="345.6"/>
			<line fill="none" stroke="#F6FBFC" stroke-width="0.9983" stroke-miterlimit="10" x1="114.4" y1="324.9" x2="114.4" y2="329.4"/>
		</g>
		<g>
			<g>
				<g>
					<g>
						<g>
							<path fill="#464848" d="M598.2,556.1h186.6l-2.1-2.5l-2.7-3.2c-0.7-0.9-1.8-1.4-2.9-1.4H605.9c-1.1,0-2.2,0.5-2.9,1.4
								l-2.7,3.2L598.2,556.1z"/>
							<g>
								<g>
									<g>
										<polygon fill="#3B3D3D" points="619.4,549 619.4,545.3 670.9,536.4 691.5,536.4 691.5,549 										"/>
									</g>
									<g>
										<polygon fill="#3B3D3D" points="763.6,549 763.6,545.3 712.1,536.4 691.5,536.4 691.5,549 										"/>
									</g>

										<rect x="619.4" y="545.3" transform="matrix(-1 -4.482560e-11 4.482560e-11 -1 1383.0017 1094.3606)" fill="#464848" width="144.1" height="3.7"/>
								</g>

									<rect x="670.1" y="544.2" transform="matrix(-1 -4.507606e-11 4.507606e-11 -1 1383.0017 1093.1719)" fill="#585A5A" width="42.9" height="4.9"/>
								<g>
									<g>
										<polygon fill="#4E5050" points="670.1,544.2 712.9,544.2 702.1,536.4 680.9,536.4 										"/>
									</g>
								</g>
							</g>
							<polygon fill="#393B3B" points="598.2,556.1 784.8,556.1 782.7,553.6 600.3,553.6 							"/>
						</g>
						<g>
							<g>
								<polygon fill="#3B3D3D" points="705.9,532.4 710.4,532.4 710.4,522.3 705.9,518.9 								"/>
								<polygon fill="#3B3D3D" points="677.1,532.4 672.6,532.4 672.6,522.3 677.1,518.9 								"/>
								<path fill="#464848" d="M677.1,532.4h28.9v-26.8c0-1.2-0.9-2.1-2.1-2.1h-24.7c-1.2,0-2.1,0.9-2.1,2.1V532.4z"/>

									<rect x="689.9" y="518.9" transform="matrix(-1 -4.737112e-11 4.737112e-11 -1 1383.0017 1051.3129)" fill="#585A5A" width="3.1" height="13.6"/>
							</g>
							<path fill="#464848" d="M672.5,532.3h37.9c0.7,0,1.4,0.6,1.4,1.4v2.8h-40.6v-2.8C671.2,532.9,671.8,532.3,672.5,532.3z"/>
						</g>

							<rect x="689.9" y="518.9" transform="matrix(-1 -4.448232e-11 4.448232e-11 -1 1383.0017 1041.4147)" fill="#666A69" width="3.1" height="3.7"/>

							<line fill="none" stroke="#505252" stroke-width="2.1683" stroke-miterlimit="10" x1="698.9" y1="455.4" x2="698.9" y2="444.2"/>

							<line fill="none" stroke="#CDD4D3" stroke-width="1.9967" stroke-miterlimit="10" x1="698.9" y1="459.7" x2="698.9" y2="455.4"/>

							<line fill="none" stroke="#505252" stroke-width="2.1683" stroke-miterlimit="10" x1="698.9" y1="463.6" x2="698.9" y2="459.7"/>

							<line fill="none" stroke="#CDD4D3" stroke-width="1.9967" stroke-miterlimit="10" x1="698.9" y1="467.7" x2="698.9" y2="463.6"/>

							<line fill="none" stroke="#505252" stroke-width="2.1683" stroke-miterlimit="10" x1="698.9" y1="492.2" x2="698.9" y2="467.7"/>

							<line fill="none" stroke="#CDD4D3" stroke-width="1.9967" stroke-miterlimit="10" x1="698.9" y1="496.5" x2="698.9" y2="492.2"/>

							<line fill="none" stroke="#505252" stroke-width="2.1683" stroke-miterlimit="10" x1="698.9" y1="503.6" x2="698.9" y2="496.5"/>

							<line fill="none" stroke="#505252" stroke-width="2.1683" stroke-miterlimit="10" x1="684.9" y1="483.1" x2="684.9" y2="479.6"/>

							<line fill="none" stroke="#CDD4D3" stroke-width="1.9967" stroke-miterlimit="10" x1="684.9" y1="487.7" x2="684.9" y2="483.1"/>

							<line fill="none" stroke="#505252" stroke-width="2.1683" stroke-miterlimit="10" x1="684.9" y1="496.9" x2="684.9" y2="487.7"/>

							<line fill="none" stroke="#CDD4D3" stroke-width="1.9967" stroke-miterlimit="10" x1="684.9" y1="500.6" x2="684.9" y2="496.9"/>

							<line fill="none" stroke="#505252" stroke-width="2.1683" stroke-miterlimit="10" x1="684.9" y1="503.6" x2="684.9" y2="500.6"/>

							<line fill="none" stroke="#505252" stroke-width="2.1683" stroke-miterlimit="10" x1="691.5" y1="473.5" x2="691.5" y2="467.6"/>

							<line fill="none" stroke="#CDD4D3" stroke-width="1.9967" stroke-miterlimit="10" x1="691.5" y1="478.4" x2="691.5" y2="473.5"/>
						<path fill="none" stroke="#505252" stroke-width="2.1683" stroke-miterlimit="10" d="M684.9,492.2h0.4c3.4,0,6.1-2.8,6.1-6.1
							v-7.7"/>
					</g>
					<g>
						<g>
							<g>
								<g>
									<path fill="#464848" d="M677.1,241.8h28.9v75.7c0,1.1-0.9,2-2,2h-24.9c-1.1,0-2-0.9-2-2V241.8z"/>

										<rect x="681.8" y="0" transform="matrix(-1 -4.553703e-11 4.553703e-11 -1 1383.0026 300.6846)" fill="#464848" width="19.3" height="300.7"/>
									<polygon fill="#585A5A" points="681.8,230.9 701.2,230.9 705.9,241.8 677.1,241.8 									"/>
								</g>
								<g>
									<g>
										<g>
											<path fill="#585A5A" d="M705.9,265.9v35.6l6.4-13.1c1.4-3,1.4-6.4,0-9.4L705.9,265.9z"/>
										</g>
									</g>
									<g>
										<g>
											<path fill="#585A5A" d="M677.1,265.9v35.6l-6.4-13.1c-1.4-3-1.4-6.4,0-9.4L677.1,265.9z"/>
										</g>
									</g>
								</g>
								<path fill="#666A69" d="M677.2,293.1h28.6c0.6,0,1-0.4,1-1v-2.5c0-0.6-0.4-1-1-1h-28.6c-0.6,0-1,0.4-1,1v2.5
									C676.2,292.7,676.6,293.1,677.2,293.1z"/>
								<path fill="#828686" d="M695.9,294.4h5.4c0.6,0,1-0.4,1-1v-5.1c0-0.6-0.4-1-1-1h-5.4c-0.6,0-1,0.4-1,1v5.1
									C694.9,293.9,695.3,294.4,695.9,294.4z"/>
							</g>
							<path fill="#3B3D3D" d="M705.9,348L705.9,348c1.9,0,3.5-1.6,3.5-3.5v-30.9c0-1.9-1.6-3.5-3.5-3.5l0,0V348z"/>
							<g>

									<line fill="none" stroke="#505252" stroke-width="2.1683" stroke-miterlimit="10" x1="684.7" y1="372.3" x2="684.7" y2="379.3"/>

									<line fill="none" stroke="#CDD4D3" stroke-width="2.1683" stroke-miterlimit="10" x1="684.7" y1="367.4" x2="684.7" y2="372.3"/>

									<line fill="none" stroke="#505252" stroke-width="2.1683" stroke-miterlimit="10" x1="684.7" y1="362.9" x2="684.7" y2="367.4"/>

									<line fill="none" stroke="#CDD4D3" stroke-width="2.1683" stroke-miterlimit="10" x1="684.7" y1="357.2" x2="684.7" y2="362.9"/>

									<line fill="none" stroke="#505252" stroke-width="2.1683" stroke-miterlimit="10" x1="684.7" y1="339.2" x2="684.7" y2="357.2"/>

									<line fill="none" stroke="#CDD4D3" stroke-width="2.1683" stroke-miterlimit="10" x1="684.7" y1="334.7" x2="684.7" y2="339.2"/>

									<line fill="none" stroke="#505252" stroke-width="2.1683" stroke-miterlimit="10" x1="684.7" y1="329.4" x2="684.7" y2="334.7"/>

									<line fill="none" stroke="#CDD4D3" stroke-width="2.1683" stroke-miterlimit="10" x1="684.7" y1="324.9" x2="684.7" y2="329.4"/>

									<line fill="none" stroke="#505252" stroke-width="2.1683" stroke-miterlimit="10" x1="684.7" y1="319.5" x2="684.7" y2="324.9"/>
							</g>

								<line fill="none" stroke="#505252" stroke-width="2.1683" stroke-miterlimit="10" x1="697.7" y1="345.6" x2="697.7" y2="350.7"/>

								<line fill="none" stroke="#CDD4D3" stroke-width="2.1683" stroke-miterlimit="10" x1="697.7" y1="340.7" x2="697.7" y2="345.6"/>

								<line fill="none" stroke="#CDD4D3" stroke-width="1.9967" stroke-miterlimit="10" x1="698.9" y1="459.7" x2="698.9" y2="455.4"/>

								<line fill="none" stroke="#CDD4D3" stroke-width="1.9967" stroke-miterlimit="10" x1="698.9" y1="467.7" x2="698.9" y2="463.6"/>

								<line fill="none" stroke="#CDD4D3" stroke-width="1.9967" stroke-miterlimit="10" x1="698.9" y1="496.5" x2="698.9" y2="492.2"/>

								<line fill="none" stroke="#CDD4D3" stroke-width="1.9967" stroke-miterlimit="10" x1="684.9" y1="487.7" x2="684.9" y2="483.1"/>

								<line fill="none" stroke="#CDD4D3" stroke-width="1.9967" stroke-miterlimit="10" x1="684.9" y1="500.6" x2="684.9" y2="496.9"/>

								<line fill="none" stroke="#CDD4D3" stroke-width="1.9967" stroke-miterlimit="10" x1="691.5" y1="478.4" x2="691.5" y2="473.5"/>

								<line fill="none" stroke="#CDD4D3" stroke-width="1.9967" stroke-miterlimit="10" x1="684.7" y1="367.4" x2="684.7" y2="372.3"/>

								<line fill="none" stroke="#CDD4D3" stroke-width="1.9967" stroke-miterlimit="10" x1="684.7" y1="357.2" x2="684.7" y2="362.9"/>

								<line fill="none" stroke="#CDD4D3" stroke-width="1.9967" stroke-miterlimit="10" x1="684.7" y1="334.7" x2="684.7" y2="339.2"/>

								<line fill="none" stroke="#CDD4D3" stroke-width="1.9967" stroke-miterlimit="10" x1="684.7" y1="324.9" x2="684.7" y2="329.4"/>

								<line fill="none" stroke="#CDD4D3" stroke-width="1.9967" stroke-miterlimit="10" x1="697.7" y1="340.7" x2="697.7" y2="345.6"/>

								<line fill="none" stroke="#505252" stroke-width="2.1683" stroke-miterlimit="10" x1="697.7" y1="319.5" x2="697.7" y2="340.7"/>
							<g>
								<path fill="#585A5A" d="M682,255.1h14c0.6,0,1-0.4,1-1v-7.5c0-0.6-0.4-1-1-1h-14c-0.6,0-1,0.4-1,1v7.5
									C681,254.6,681.4,255.1,682,255.1z"/>
								<circle fill="#3B3D3D" cx="692.2" cy="250.3" r="2.2"/>
							</g>
							<path fill="#666A69" d="M681.3,207h20.4c0.6,0,1-0.4,1-1v-3.5c0-0.6-0.4-1-1-1h-20.4c-0.6,0-1,0.4-1,1v3.5
								C680.3,206.5,680.7,207,681.3,207z"/>
							<path fill="#666A69" d="M681.3,120.3h20.4c0.6,0,1-0.4,1-1v-3.5c0-0.6-0.4-1-1-1h-20.4c-0.6,0-1,0.4-1,1v3.5
								C680.3,119.8,680.7,120.3,681.3,120.3z"/>
							<path fill="#666A69" d="M681.3,33.5h20.4c0.6,0,1-0.4,1-1v-3.5c0-0.6-0.4-1-1-1h-20.4c-0.6,0-1,0.4-1,1v3.5
								C680.3,33.1,680.7,33.5,681.3,33.5z"/>
						</g>
						<g>
							<g>
								<line fill="none" stroke="#464848" stroke-width="1.9967" stroke-miterlimit="10" x1="711" y1="0" x2="711" y2="259.3"/>
								<g>
									<defs>
										<path id="SVGID_5_" d="M711,203.9l15.9,15.9c0.2,0.2,0.3,0.4,0.3,0.7v36.8c0,1.1-0.9,2-2,2H711V203.9z"/>
									</defs>
									<use xlink:href="#SVGID_5_"  overflow="visible" fill="#464848"/>
									<clipPath id="SVGID_6_">
										<use xlink:href="#SVGID_5_"  overflow="visible"/>
									</clipPath>
									<polygon clip-path="url(#SVGID_6_)" fill="none" stroke="#3B3D3D" stroke-width="0.9983" stroke-miterlimit="10" points="
										707.1,205.9 723.3,222 723.3,261.3 707.1,261.3 									"/>
									<polygon clip-path="url(#SVGID_6_)" fill="none" stroke="#3B3D3D" stroke-width="0.9983" stroke-miterlimit="10" points="
										703.2,207.8 719.4,224 719.4,263.3 703.2,263.3 									"/>
								</g>
							</g>
							<g>
								<line fill="none" stroke="#464848" stroke-width="1.9967" stroke-miterlimit="10" x1="672" y1="0" x2="672" y2="259.3"/>
								<g>
									<defs>
										<path id="SVGID_7_" d="M672,203.9l-15.9,15.9c-0.2,0.2-0.3,0.4-0.3,0.7v36.8c0,1.1,0.9,2,2,2H672V203.9z"/>
									</defs>
									<use xlink:href="#SVGID_7_"  overflow="visible" fill="#464848"/>
									<clipPath id="SVGID_8_">
										<use xlink:href="#SVGID_7_"  overflow="visible"/>
									</clipPath>
									<polygon clip-path="url(#SVGID_8_)" fill="none" stroke="#3B3D3D" stroke-width="0.9983" stroke-miterlimit="10" points="
										675.9,205.9 659.7,222 659.7,261.3 675.9,261.3 									"/>
									<polygon clip-path="url(#SVGID_8_)" fill="none" stroke="#3B3D3D" stroke-width="0.9983" stroke-miterlimit="10" points="
										679.8,207.8 663.6,224 663.6,263.3 679.8,263.3 									"/>
								</g>
							</g>
						</g>
					</g>
				</g>
				<path fill="#464848" d="M693.1,503.6h9.4v-3.1c0-0.6-0.5-1-1-1h-7.3c-0.6,0-1,0.5-1,1V503.6z"/>
				<g>
					<circle fill="#CDD4D3" cx="700.3" cy="501.5" r="1"/>
					<circle fill="#CDD4D3" cx="697" cy="501.5" r="1"/>
				</g>
			</g>
			<line fill="none" stroke="#F6FBFC" stroke-width="0.9983" stroke-miterlimit="10" x1="698.9" y1="459.7" x2="698.9" y2="455.4"/>
			<line fill="none" stroke="#F6FBFC" stroke-width="0.9983" stroke-miterlimit="10" x1="698.9" y1="467.7" x2="698.9" y2="463.6"/>
			<line fill="none" stroke="#F6FBFC" stroke-width="0.9983" stroke-miterlimit="10" x1="698.9" y1="496.5" x2="698.9" y2="492.2"/>
			<line fill="none" stroke="#F6FBFC" stroke-width="0.9983" stroke-miterlimit="10" x1="684.9" y1="487.7" x2="684.9" y2="483.1"/>
			<line fill="none" stroke="#F6FBFC" stroke-width="0.9983" stroke-miterlimit="10" x1="684.9" y1="500.6" x2="684.9" y2="496.9"/>
			<line fill="none" stroke="#F6FBFC" stroke-width="0.9983" stroke-miterlimit="10" x1="691.5" y1="478.4" x2="691.5" y2="473.5"/>
			<line fill="none" stroke="#F6FBFC" stroke-width="0.9983" stroke-miterlimit="10" x1="698.9" y1="459.7" x2="698.9" y2="455.4"/>
			<line fill="none" stroke="#F6FBFC" stroke-width="0.9983" stroke-miterlimit="10" x1="698.9" y1="467.7" x2="698.9" y2="463.6"/>
			<line fill="none" stroke="#F6FBFC" stroke-width="0.9983" stroke-miterlimit="10" x1="698.9" y1="496.5" x2="698.9" y2="492.2"/>
			<path fill="none" stroke="#F6FBFC" stroke-width="0.9983" stroke-miterlimit="10" d="M675,483.1"/>
			<path fill="none" stroke="#F6FBFC" stroke-width="0.9983" stroke-miterlimit="10" d="M675,487.7"/>
			<line fill="none" stroke="#F6FBFC" stroke-width="0.9983" stroke-miterlimit="10" x1="684.9" y1="500.6" x2="684.9" y2="496.9"/>
			<line fill="none" stroke="#F6FBFC" stroke-width="0.9983" stroke-miterlimit="10" x1="691.5" y1="478.4" x2="691.5" y2="473.5"/>
			<line fill="none" stroke="#F6FBFC" stroke-width="0.9983" stroke-miterlimit="10" x1="684.7" y1="367.4" x2="684.7" y2="372.3"/>
			<line fill="none" stroke="#F6FBFC" stroke-width="0.9983" stroke-miterlimit="10" x1="684.7" y1="357.2" x2="684.7" y2="362.9"/>
			<line fill="none" stroke="#F6FBFC" stroke-width="0.9983" stroke-miterlimit="10" x1="684.7" y1="334.7" x2="684.7" y2="339.2"/>
			<line fill="none" stroke="#F6FBFC" stroke-width="0.9983" stroke-miterlimit="10" x1="684.7" y1="324.9" x2="684.7" y2="329.4"/>
			<line fill="none" stroke="#F6FBFC" stroke-width="0.9983" stroke-miterlimit="10" x1="697.7" y1="340.7" x2="697.7" y2="345.6"/>
		</g>
	</g>
	<g>
		<path fill="#6A2F35" d="M54,554.8l0.5,1.3H0.2v-2.7h51.6C52.8,553.4,53.6,553.9,54,554.8z"/>
		<path fill="#6A2F35" d="M49.7,550.1H0.2V0h105.4L19.9,512.3c-2.1,12.7,4.9,25.3,16.9,30.1l11.6,4.7c0.7,0.3,1.4,0.7,2,1.2
			C51.2,548.9,50.7,550.1,49.7,550.1z"/>
		<path fill="#733239" d="M6.2,544.2V6h92.3L13.9,511.3c-2.1,12.8,3.5,25.6,13.7,32.9H6.2z"/>
		<line fill="none" stroke="#6A2F35" stroke-width="3.9933" stroke-miterlimit="10" x1="18.1" y1="523.6" x2="2.8" y2="534.3"/>
		<line fill="none" stroke="#6A2F35" stroke-width="3.9933" stroke-miterlimit="10" x1="20" y1="497.2" x2="1.8" y2="497.2"/>
		<line fill="none" stroke="#6A2F35" stroke-width="3.9933" stroke-miterlimit="10" x1="38.7" y1="387" x2="2.8" y2="357.7"/>
		<line fill="none" stroke="#6A2F35" stroke-width="3.9933" stroke-miterlimit="10" x1="92.2" y1="62.7" x2="4.2" y2="98"/>
		<polygon fill="#57272C" points="50.7,553.4 0.2,553.4 0.2,550.1 48.6,550.1 		"/>
	</g>
	<g>
		<path fill="#6A2F35" d="M745.2,554.8l-0.5,1.3h54.3v-2.7h-51.6C746.4,553.4,745.5,553.9,745.2,554.8z"/>
		<path fill="#6A2F35" d="M749.4,550.1h49.5V0L693.5,0l85.7,512.3c2.1,12.7-4.9,25.3-16.9,30.1l-11.6,4.7c-0.7,0.3-1.4,0.7-2,1.2
			C748,548.9,748.4,550.1,749.4,550.1z"/>
		<path fill="#733239" d="M792.9,544.2V6h-92.3l84.6,505.3c2.1,12.8-3.5,25.6-13.7,32.9H792.9z"/>
		<line fill="none" stroke="#6A2F35" stroke-width="3.9933" stroke-miterlimit="10" x1="781" y1="523.6" x2="796.4" y2="534.3"/>
		<line fill="none" stroke="#6A2F35" stroke-width="3.9933" stroke-miterlimit="10" x1="779.2" y1="497.2" x2="797.4" y2="497.2"/>
		<line fill="none" stroke="#6A2F35" stroke-width="3.9933" stroke-miterlimit="10" x1="760.4" y1="387" x2="796.4" y2="357.7"/>
		<line fill="none" stroke="#6A2F35" stroke-width="3.9933" stroke-miterlimit="10" x1="706.9" y1="62.7" x2="794.9" y2="98"/>
		<polygon fill="#57272C" points="748.4,553.4 798.9,553.4 798.9,550.1 750.6,550.1 		"/>
	</g>
	<g>
		<g>
			<defs>
				<path id="SVGID_9_" d="M517.9,545.3l-116.8,0.5l-116.8-0.5L316,253c0.2-1.5,1.4-2.7,3-2.7h25.4c1.7,0,3,1.3,3,3v23.1
					c0,5.5,4.5,10,10,10h87.5c5.5,0,10-4.5,10-10v-23.1c0-1.7,1.3-3,3-3h25.4c1.5,0,2.8,1.2,3,2.7L517.9,545.3z"/>
			</defs>
			<use xlink:href="#SVGID_9_"  overflow="visible" fill="#585A5A"/>
			<clipPath id="SVGID_10_">
				<use xlink:href="#SVGID_9_"  overflow="visible"/>
			</clipPath>
			<g clip-path="url(#SVGID_10_)">

					<line fill="none" stroke="#505252" stroke-width="1.9967" stroke-miterlimit="10" x1="316.5" y1="250.3" x2="316.5" y2="544.2"/>

					<line fill="none" stroke="#505252" stroke-width="1.9967" stroke-miterlimit="10" x1="485.8" y1="250.3" x2="485.8" y2="544.2"/>
				<g>
					<line fill="none" stroke="#505252" stroke-width="1.9967" stroke-miterlimit="10" x1="289.2" y1="332" x2="513.2" y2="332"/>
					<line fill="none" stroke="#505252" stroke-width="1.9967" stroke-miterlimit="10" x1="287" y1="363.8" x2="514.7" y2="363.8"/>

						<line fill="none" stroke="#505252" stroke-width="1.9967" stroke-miterlimit="10" x1="284.8" y1="395.5" x2="516.2" y2="395.5"/>

						<line fill="none" stroke="#505252" stroke-width="1.9967" stroke-miterlimit="10" x1="282.6" y1="427.3" x2="517.8" y2="427.3"/>
					<line fill="none" stroke="#505252" stroke-width="1.9967" stroke-miterlimit="10" x1="280.5" y1="459" x2="519.3" y2="459"/>

						<line fill="none" stroke="#505252" stroke-width="1.9967" stroke-miterlimit="10" x1="278.3" y1="490.8" x2="520.9" y2="490.8"/>

						<line fill="none" stroke="#505252" stroke-width="1.9967" stroke-miterlimit="10" x1="276.1" y1="522.5" x2="522.4" y2="522.5"/>
				</g>
			</g>

				<line clip-path="url(#SVGID_10_)" fill="none" stroke="#505252" stroke-width="1.9967" stroke-miterlimit="10" x1="401.2" y1="286.4" x2="401.2" y2="332"/>
		</g>
		<g>
			<path fill="#505252" d="M330.7,327.1h46c1.8,0,3.2,1.6,3,3.3L360,503.1c-0.2,1.5-1.5,2.7-3,2.7h-26.2c-1.7,0-3-1.3-3-3V330.1
				C327.8,328.5,329.1,327.1,330.7,327.1z"/>
			<path fill="#505252" d="M393,327.1h16.3c1.5,0,2.8,1.1,3,2.7l19.8,172.7c0.2,1.8-1.2,3.3-3,3.3h-55.9c-1.8,0-3.2-1.6-3-3.3
				L390,329.8C390.2,328.3,391.5,327.1,393,327.1z"/>
			<path fill="#505252" d="M425.6,327.1h46c1.7,0,3,1.3,3,3v172.7c0,1.7-1.3,3-3,3h-26.2c-1.5,0-2.8-1.1-3-2.7l-19.8-172.7
				C422.4,328.7,423.8,327.1,425.6,327.1z"/>
		</g>
		<g>
			<g>
				<polygon fill="#983241" points="376.7,330.1 365.6,427.9 361,468 357,502.8 330.7,502.8 330.7,330.1 				"/>
				<polygon fill="#983241" points="429.1,502.8 373.2,502.8 377.5,465.1 382,426.3 393,330.1 409.3,330.1 420.4,426.5 424.8,465.5
									"/>
				<polygon fill="#983241" points="471.6,330.1 471.6,502.8 445.3,502.8 441.5,468.8 436.8,428.4 425.6,330.1 				"/>
			</g>
			<path fill="#9D3543" d="M365.6,427.9L361,468l-4,34.8h-26.2v-66.2C341.9,432.5,353.5,429.6,365.6,427.9z"/>
			<path fill="#9D3543" d="M429.1,502.8h-55.9l4.3-37.7l4.4-38.8c2.7-0.1,5.4-0.2,8.1-0.2H409c3.8,0,7.6,0.1,11.4,0.4l4.5,39
				L429.1,502.8z"/>
			<path fill="#9D3543" d="M471.6,437.8v65h-26.2l-3.9-34l-4.6-40.4C448.9,430.3,460.5,433.5,471.6,437.8z"/>
		</g>
		<path fill="#B53D4B" d="M330.7,479.1c9.5-4.9,19.6-8.6,30.2-11.2l-4,34.8h-26.2V479.1z"/>
		<path fill="#B53D4B" d="M424.8,465.5l4.3,37.3h-55.9l4.3-37.7c4.8-0.5,9.7-0.8,14.7-0.8h14.7C413,464.3,419,464.7,424.8,465.5z"/>
		<path fill="#B53D4B" d="M471.6,480.8v21.9h-26.2l-3.9-34C452.1,471.6,462.2,475.7,471.6,480.8z"/>
	</g>
	<g>
		<rect x="340.7" y="535.4" fill="#BADADA" width="117.8" height="3.8"/>
		<rect x="340.7" y="536.4" fill="#FFFFFF" width="117.8" height="1.7"/>
		<g>
			<path fill="#4E5050" d="M543.3,552.6H255.8l43.6-11.7c4.2-1.1,8.6-1.7,12.9-1.7h174.5c4.4,0,8.7,0.6,12.9,1.7L543.3,552.6z"/>
			<rect x="250.9" y="552.6" fill="#585A5A" width="297.4" height="3.5"/>
			<g>
				<polygon fill="#585A5A" points="318.4,552.6 332.7,539.2 350.2,539.2 345.3,552.6 				"/>
				<rect x="315.4" y="552.6" fill="#6B6E6E" width="30.7" height="3.5"/>
				<polygon fill="#585A5A" points="480.7,552.6 466.4,539.2 448.9,539.2 453.9,552.6 				"/>

					<rect x="453" y="552.6" transform="matrix(-1 -4.524926e-11 4.524926e-11 -1 936.6827 1108.6482)" fill="#6B6E6E" width="30.7" height="3.5"/>
			</g>
			<g>
				<path fill="#6B6E6E" d="M351,537.4h-18c-1,0-1.8,0.8-1.8,1.8l0,0h21.6l0,0C352.9,538.2,352,537.4,351,537.4z"/>
				<path fill="#6B6E6E" d="M466.1,537.4h-18c-1,0-1.8,0.8-1.8,1.8l0,0h21.6l0,0C467.9,538.2,467.1,537.4,466.1,537.4z"/>
			</g>
		</g>
		<path fill="#6B6E6E" d="M461.7,535.4H337.4c-1,0-1.7-0.8-1.7-1.7v0c0-1,0.8-1.7,1.7-1.7h124.3c1,0,1.7,0.8,1.7,1.7v0
			C463.4,534.6,462.7,535.4,461.7,535.4z"/>
		<g>
			<g>
				<g>
					<path fill="#606162" d="M443.7,503.6h-88.2l7.2-58.7c0.2-1.5,1.5-2.6,3-2.6h67.9c1.5,0,2.8,1.1,3,2.6L443.7,503.6z"/>
				</g>
				<g>
					<path fill="#646666" d="M438.7,502.6h-78.3l8-66.5c0.2-1.5,1.5-2.6,3-2.6h56.4c1.5,0,2.8,1.1,3,2.6L438.7,502.6z"/>
				</g>
			</g>
			<g>
				<defs>
					<path id="SVGID_11_" d="M433.2,503.6h-67.2l11.3-100.1c0.2-1.5,1.5-2.7,3-2.7h38.8c1.5,0,2.8,1.1,3,2.7L433.2,503.6z"/>
				</defs>
				<use xlink:href="#SVGID_11_"  overflow="visible" fill="#6C6E6E"/>
				<clipPath id="SVGID_12_">
					<use xlink:href="#SVGID_11_"  overflow="visible"/>
				</clipPath>
				<g clip-path="url(#SVGID_12_)">
					<path fill="none" stroke="#676969" stroke-width="1.9967" stroke-miterlimit="10" d="M410.1,503.6H389l2.9-81.3
						c0-1.1,0.9-1.9,2-1.9h11.3c1.1,0,2,0.9,2,1.9L410.1,503.6z"/>
					<g>

							<line fill="none" stroke="#676969" stroke-width="1.9967" stroke-miterlimit="10" x1="369.9" y1="446.6" x2="391.4" y2="433.5"/>

							<line fill="none" stroke="#676969" stroke-width="1.9967" stroke-miterlimit="10" x1="429.2" y1="446.6" x2="407.7" y2="433.5"/>
					</g>
					<g>
						<g>
							<path fill="#737575" d="M369.9,464.1l15.8-9.6v-3.8c0-1.1,0.9-2,2-2h4c1.1,0,2,0.9,2,2v52.9H363L369.9,464.1z"/>
						</g>
						<path fill="#7D8080" d="M397.9,503.6h-4.3v-49.7l3,2.1c0.8,0.6,1.3,1.5,1.3,2.5V503.6z"/>
					</g>
					<g>
						<g>
							<path fill="#737575" d="M429.2,464.1l-15.8-9.6v-3.8c0-1.1-0.9-2-2-2h-4c-1.1,0-2,0.9-2,2v52.9h30.7L429.2,464.1z"/>
						</g>
						<path fill="#7D8080" d="M401.2,503.6h4.3v-49.7l-3,2.1c-0.8,0.6-1.3,1.5-1.3,2.5V503.6z"/>
					</g>
				</g>
			</g>
			<rect x="374.5" y="502.6" fill="#828384" width="49.5" height="29.3"/>
			<g>
				<g>
					<path fill="#7B7E7E" d="M375.2,502.6v29.3h-35.4l5.6-28.5c0.1-0.5,0.5-0.8,1-0.8H375.2z"/>
					<path fill="#7B7E7E" d="M375.2,484.7v14.9c0,0.6-0.4,1-1,1h-27.1c-0.6,0-1.1-0.6-1-1.2l1.7-8.7l1.2-6.4c0.2-0.9,1-1.6,2-1.6
						h22.1C374.3,482.7,375.2,483.6,375.2,484.7z"/>
					<path fill="#404141" d="M367.1,491.7v8.9h-20c-0.6,0-1.1-0.6-1-1.2l1.7-8.7h18.2C366.7,490.7,367.1,491.1,367.1,491.7z"/>
					<path fill="#404141" d="M346.4,502.6h20.7v29.3h-27.3l5.6-28.5C345.5,502.9,345.9,502.6,346.4,502.6z"/>
				</g>
				<polygon fill="#BADADA" points="374.3,500.6 374.3,502.6 347.5,502.6 347.9,500.6 				"/>
				<polygon fill="#ECECEC" points="374.3,501.2 374.3,501.9 347.5,501.9 347.9,501.2 				"/>
			</g>
			<g>
				<g>
					<path fill="#7B7E7E" d="M423.9,502.6v29.3h35.4l-5.6-28.5c-0.1-0.5-0.5-0.8-1-0.8H423.9z"/>
					<path fill="#7B7E7E" d="M423.9,484.7v14.9c0,0.6,0.4,1,1,1H452c0.6,0,1.1-0.6,1-1.2l-1.7-8.7l-1.2-6.4c-0.2-0.9-1-1.6-2-1.6
						h-22.1C424.8,482.7,423.9,483.6,423.9,484.7z"/>
					<path fill="#404141" d="M432,491.7v8.9h20c0.6,0,1.1-0.6,1-1.2l-1.7-8.7H433C432.5,490.7,432,491.1,432,491.7z"/>
					<path fill="#404141" d="M452.7,502.6H432v29.3h27.3l-5.6-28.5C453.6,502.9,453.2,502.6,452.7,502.6z"/>
				</g>
				<polygon fill="#BADADA" points="424.8,500.6 424.8,502.6 451.6,502.6 451.3,500.6 				"/>
				<polygon fill="#ECECEC" points="424.8,501.2 424.8,501.9 451.6,501.9 451.3,501.2 				"/>
			</g>
			<circle fill="#C83348" cx="363" cy="494.9" r="2.1"/>
			<circle fill="#EF536C" cx="363" cy="494.9" r="1"/>
			<g>
				<circle fill="#C83348" cx="357.7" cy="494.9" r="1.3"/>
				<circle fill="#EF536C" cx="357.7" cy="494.9" r="0.6"/>
			</g>
			<circle fill="#C83348" cx="360.7" cy="492.3" r="0.5"/>
			<circle fill="#EF536C" cx="367.2" cy="497.2" r="0.5"/>
			<circle fill="#ECECEC" cx="370.5" cy="435.9" r="0.5"/>
			<circle fill="#ECECEC" cx="372.3" cy="435.9" r="0.5"/>
		</g>
	</g>
	<g>
		<defs>
			<rect id="SVGID_13_" x="272.8" width="249.1" height="221.2"/>
		</defs>
		<clipPath id="SVGID_14_">
			<use xlink:href="#SVGID_13_"  overflow="visible"/>
		</clipPath>
		<g clip-path="url(#SVGID_14_)">
			<g>
				<defs>
					<path id="SVGID_15_" d="M284.4-86.7l116.8-0.5l116.8,0.5l-31.6,292.4c-0.2,1.5-1.4,2.7-3,2.7h-25.4c-1.7,0-3-1.3-3-3v-23.1
						c0-5.5-4.5-10-10-10h-87.5c-5.5,0-10,4.5-10,10v23.1c0,1.7-1.3,3-3,3H319c-1.5,0-2.8-1.2-3-2.7L284.4-86.7z"/>
				</defs>
				<use xlink:href="#SVGID_15_"  overflow="visible" fill="#585A5A"/>
				<clipPath id="SVGID_16_">
					<use xlink:href="#SVGID_15_"  overflow="visible"/>
				</clipPath>
				<g clip-path="url(#SVGID_16_)">

						<line fill="none" stroke="#505252" stroke-width="1.9967" stroke-miterlimit="10" x1="485.8" y1="208.3" x2="485.8" y2="-85.6"/>

						<line fill="none" stroke="#505252" stroke-width="1.9967" stroke-miterlimit="10" x1="316.5" y1="208.3" x2="316.5" y2="-85.6"/>
					<g>

							<line fill="none" stroke="#505252" stroke-width="1.9967" stroke-miterlimit="10" x1="513.2" y1="126.6" x2="289.2" y2="126.6"/>

							<line fill="none" stroke="#505252" stroke-width="1.9967" stroke-miterlimit="10" x1="515.3" y1="94.8" x2="287.6" y2="94.8"/>

							<line fill="none" stroke="#505252" stroke-width="1.9967" stroke-miterlimit="10" x1="517.5" y1="63.1" x2="286.1" y2="63.1"/>

							<line fill="none" stroke="#505252" stroke-width="1.9967" stroke-miterlimit="10" x1="519.7" y1="31.3" x2="284.6" y2="31.3"/>
						<line fill="none" stroke="#505252" stroke-width="1.9967" stroke-miterlimit="10" x1="521.9" y1="-0.4" x2="283" y2="-0.4"/>

							<line fill="none" stroke="#505252" stroke-width="1.9967" stroke-miterlimit="10" x1="524.1" y1="-32.2" x2="281.5" y2="-32.2"/>

							<line fill="none" stroke="#505252" stroke-width="1.9967" stroke-miterlimit="10" x1="526.2" y1="-63.9" x2="279.9" y2="-63.9"/>
					</g>
				</g>
			</g>
			<g>
				<path fill="#505252" d="M471.6,131.5h-46c-1.8,0-3.2-1.6-3-3.3l19.8-172.7c0.2-1.5,1.5-2.7,3-2.7h26.2c1.7,0,3,1.3,3,3v172.7
					C474.6,130.1,473.2,131.5,471.6,131.5z"/>
				<polygon fill="#8A2D3B" points="425.6,128.5 445.3,-44.2 471.6,-44.2 471.6,128.5 				"/>
				<path fill="#505252" d="M409.3,131.5H393c-1.5,0-2.8-1.1-3-2.7L370.3-43.9c-0.2-1.8,1.2-3.3,3-3.3h55.9c1.8,0,3.2,1.6,3,3.3
					l-19.8,172.7C412.1,130.3,410.9,131.5,409.3,131.5z"/>
				<polygon fill="#8A2D3B" points="393,128.5 373.2,-44.2 429.1,-44.2 409.3,128.5 				"/>
				<path fill="#505252" d="M376.7,131.5h-46c-1.7,0-3-1.3-3-3V-44.2c0-1.7,1.3-3,3-3H357c1.5,0,2.8,1.1,3,2.7l19.8,172.7
					C379.9,129.9,378.5,131.5,376.7,131.5z"/>
				<polygon fill="#8A2D3B" points="330.7,128.5 330.7,-44.2 357,-44.2 376.7,128.5 				"/>
			</g>
		</g>
	</g>
	<g>
		<g>
			<path fill="#464848" d="M462,238.8L462,238.8c-0.4,0-0.8-0.4-0.8-0.8v-29.7h1.6V238C462.8,238.5,462.4,238.8,462,238.8z"/>
			<g>
				<circle fill="#585A5A" cx="401.2" cy="231" r="33.8"/>
				<g>
					<path fill="#606162" d="M426.4,255l-1.2,1.2c-0.2,0.2-0.6,0.2-0.8,0l-48.5-48.5c-0.2-0.2-0.2-0.6,0-0.8l1.2-1.2
						c0.2-0.2,0.6-0.2,0.8,0l48.5,48.5C426.6,254.4,426.6,254.8,426.4,255z"/>
					<path fill="#606162" d="M377.1,256.2l-1.2-1.2c-0.2-0.2-0.2-0.6,0-0.8l48.5-48.5c0.2-0.2,0.6-0.2,0.8,0l1.2,1.2
						c0.2,0.2,0.2,0.6,0,0.8l-48.5,48.5C377.7,256.4,377.3,256.4,377.1,256.2z"/>
				</g>
				<circle fill="#606162" cx="401.2" cy="231" r="15.2"/>
				<circle fill="#464848" cx="401.2" cy="231" r="12"/>
				<path fill="#606162" d="M405.5,205.6h-8.6c-1,0-1.9-0.8-2-1.8l-3.4-43.4c-0.1-1.2,0.8-2.2,2-2.2h15.5c1.2,0,2.1,1,2,2.2
					l-3.4,43.4C407.4,204.8,406.5,205.6,405.5,205.6z"/>
			</g>
			<g>
				<path fill="#464848" d="M358.7,221.6L358.7,221.6c-0.7,0-1.3-0.6-1.3-1.3v-48.1h2.6v48.1C360.1,221,359.5,221.6,358.7,221.6z"/>
				<rect x="357.4" y="212.5" fill="#D32843" width="2.6" height="5.2"/>
				<rect x="358.2" y="212.5" fill="#EF536C" width="1.1" height="5.2"/>
			</g>
			<path fill="#696B6B" d="M402.5,197.3h-2.6c-0.6,0-1-0.4-1-1v-42c0-0.6,0.4-1,1-1h2.6c0.6,0,1,0.4,1,1v42
				C403.5,196.9,403,197.3,402.5,197.3z"/>
		</g>
		<g>
			<g>
				<g>
					<path fill="#636766" d="M406.9,226v8.7c0,0.4-0.2,0.7-0.6,0.9l-4.7,2.5c-0.3,0.2-0.7,0.2-1,0l-4.7-2.5
						c-0.3-0.2-0.6-0.5-0.6-0.9V226c0-0.6,0.5-1,1-1h9.4C406.4,224.9,406.9,225.4,406.9,226z"/>
				</g>
			</g>
			<rect x="395.5" y="227" fill="#787A7A" width="11.4" height="1.6"/>
		</g>
		<circle fill="#E22342" cx="410.9" cy="242.7" r="1.2"/>
		<path fill="#EF536C" d="M410.9,243.4c-0.4,0-0.7-0.3-0.7-0.7c0-0.4,0.3-0.7,0.7-0.7c0.4,0,0.7,0.3,0.7,0.7
			C411.6,243.1,411.3,243.4,410.9,243.4z"/>
		<circle fill="#E22342" cx="414.5" cy="238.2" r="1.2"/>
		<path fill="#EF536C" d="M414.5,238.9c-0.4,0-0.7-0.3-0.7-0.7s0.3-0.7,0.7-0.7c0.4,0,0.7,0.3,0.7,0.7S414.9,238.9,414.5,238.9z"/>
		<rect x="397.5" y="227" fill="#F8AD52" width="1.6" height="1.6"/>
	</g>
	<circle fill="#9D3543" cx="275.3" cy="470.7" r="5.2"/>
	<circle fill="#9D3543" cx="254.3" cy="468.1" r="3.8"/>
	<circle fill="#9D3543" cx="211" cy="522.8" r="2.4"/>
	<circle fill="#B53D4B" cx="273.6" cy="536.9" r="3.4"/>
	<circle fill="#B53D4B" cx="282.1" cy="522.1" r="1.4"/>
	<circle fill="#B53D4B" cx="275" cy="523.1" r="1"/>
	<circle fill="#9D3543" cx="572.7" cy="518.7" r="4.1"/>
	<g>
		<g>
			<g>
				<path fill="#812D36" d="M100.3,572.3V572V572.3c-0.3,0-0.5-0.4-0.7-0.6S99,571.3,99,571c0-0.7,0.3-0.7,0.3-1.3
					c0-0.7-0.3-0.7-0.3-1.3c0-0.3,0.4-0.5,0.6-0.7c0.2-0.2,0.4-0.6,0.7-0.6v0.3v-0.3c0.3,0,0.5,0.4,0.7,0.6c0.2,0.2,0.6,0.4,0.6,0.7
					c0,0.7-0.3,0.7-0.3,1.3c0,0.7,0.3,0.7,0.3,1.3c0,0.3-0.4,0.5-0.6,0.7S100.6,572.3,100.3,572.3z"/>
			</g>
			<g>
				<path fill="#6B242C" d="M100.3,592.4v-0.3V592.4c-0.3,0-0.5-0.4-0.7-0.6c-0.2-0.2-0.6-0.4-0.6-0.7c0-0.7,0.3-0.7,0.3-1.3
					c0-0.7-0.3-0.7-0.3-1.3c0-0.3,0.4-0.5,0.6-0.7s0.4-0.6,0.7-0.6v0.3v-0.3c0.3,0,0.5,0.4,0.7,0.6s0.6,0.4,0.6,0.7
					c0,0.7-0.3,0.7-0.3,1.3c0,0.7,0.3,0.7,0.3,1.3c0,0.3-0.4,0.5-0.6,0.7C100.7,592,100.6,592.4,100.3,592.4z"/>
			</g>
			<g>
				<path fill="#6B242C" d="M107.6,587.5v-0.3V587.5c-0.3,0-0.5-0.4-0.7-0.6c-0.2-0.2-0.6-0.4-0.6-0.7c0-0.7,0.3-0.7,0.3-1.3
					c0-0.7-0.3-0.7-0.3-1.3c0-0.3,0.4-0.5,0.6-0.7c0.2-0.2,0.4-0.6,0.7-0.6v0.3v-0.3c0.3,0,0.5,0.4,0.7,0.6c0.2,0.2,0.6,0.4,0.6,0.7
					c0,0.7-0.3,0.7-0.3,1.3c0,0.7,0.3,0.7,0.3,1.3c0,0.3-0.4,0.5-0.6,0.7C108.1,587.1,107.9,587.5,107.6,587.5z"/>
			</g>
			<g>
				<path fill="#6B242C" d="M114.2,585l0-0.3L114.2,585c-0.3,0-0.5-0.4-0.7-0.6c-0.2-0.2-0.6-0.4-0.6-0.7c0-0.7,0.3-0.7,0.3-1.3
					c0-0.7-0.3-0.7-0.3-1.3c0-0.3,0.4-0.5,0.6-0.7c0.2-0.2,0.4-0.6,0.7-0.6v0.3l0-0.3c0.3,0,0.5,0.4,0.7,0.6
					c0.2,0.2,0.6,0.4,0.6,0.7c0,0.7-0.3,0.7-0.3,1.3c0,0.7,0.3,0.7,0.3,1.3c0,0.3-0.4,0.5-0.6,0.7C114.7,584.7,114.5,585,114.2,585z
					"/>
			</g>
			<g>
				<path fill="#812D36" d="M114.2,569.8l0-0.3L114.2,569.8c-0.3,0-0.5-0.4-0.7-0.6c-0.2-0.2-0.6-0.4-0.6-0.7c0-0.7,0.3-0.7,0.3-1.3
					c0-0.7-0.3-0.7-0.3-1.3c0-0.3,0.4-0.5,0.6-0.7c0.2-0.2,0.4-0.6,0.7-0.6v0.3l0-0.3c0.3,0,0.5,0.4,0.7,0.6
					c0.2,0.2,0.6,0.4,0.6,0.7c0,0.7-0.3,0.7-0.3,1.3c0,0.7,0.3,0.7,0.3,1.3c0,0.3-0.4,0.5-0.6,0.7
					C114.7,569.4,114.5,569.8,114.2,569.8z"/>
			</g>
		</g>
	</g>
	<g>
		<g>
			<g>
				<path fill="#812D36" d="M699.5,572v0.3V572c0.3,0,0.7,0.1,0.9-0.1c0.2-0.2,0.1-0.6,0.1-0.9c0-0.7,0.3-0.7,0.3-1.3
					c0-0.7-0.3-0.7-0.3-1.3c0-0.3,0.1-0.7-0.1-0.9c-0.2-0.2-0.6-0.1-0.9-0.1v-0.3v0.3c-0.3,0-0.7-0.1-0.9,0.1
					c-0.2,0.2-0.1,0.6-0.1,0.9c0,0.7-0.3,0.7-0.3,1.3c0,0.7,0.3,0.7,0.3,1.3c0,0.3-0.1,0.7,0.1,0.9C698.8,572.1,699.2,572,699.5,572
					z"/>
			</g>
			<g>
				<path fill="#6B242C" d="M699.5,592.1v0.3V592.1c0.3,0,0.7,0.1,0.9-0.1c0.2-0.2,0.1-0.6,0.1-0.9c0-0.7,0.3-0.7,0.3-1.3
					c0-0.7-0.3-0.7-0.3-1.3c0-0.3,0.1-0.7-0.1-0.9c-0.2-0.2-0.6-0.1-0.9-0.1v-0.3v0.3c-0.3,0-0.7-0.1-0.9,0.1
					c-0.2,0.2-0.1,0.6-0.1,0.9c0,0.7-0.3,0.7-0.3,1.3c0,0.7,0.3,0.7,0.3,1.3c0,0.3-0.1,0.7,0.1,0.9
					C698.8,592.2,699.2,592.1,699.5,592.1z"/>
			</g>
			<g>
				<path fill="#6B242C" d="M692.1,587.2v0.3V587.2c0.3,0,0.7,0.1,0.9-0.1c0.2-0.2,0.1-0.6,0.1-0.9c0-0.7,0.3-0.7,0.3-1.3
					c0-0.7-0.3-0.7-0.3-1.3c0-0.3,0.1-0.7-0.1-0.9c-0.2-0.2-0.6-0.1-0.9-0.1v-0.3v0.3c-0.3,0-0.7-0.1-0.9,0.1
					c-0.2,0.2-0.1,0.6-0.1,0.9c0,0.7-0.3,0.7-0.3,1.3c0,0.7,0.3,0.7,0.3,1.3c0,0.3-0.1,0.7,0.1,0.9
					C691.4,587.3,691.8,587.2,692.1,587.2z"/>
			</g>
			<g>
				<path fill="#6B242C" d="M685.5,584.7v0.3V584.7c0.3,0,0.7,0.1,0.9-0.1c0.2-0.2,0.1-0.6,0.1-0.9c0-0.7,0.3-0.7,0.3-1.3
					c0-0.7-0.3-0.7-0.3-1.3c0-0.3,0.1-0.7-0.1-0.9c-0.2-0.2-0.6-0.1-0.9-0.1v-0.3v0.3c-0.3,0-0.7-0.1-0.9,0.1
					c-0.2,0.2-0.1,0.6-0.1,0.9c0,0.7-0.3,0.7-0.3,1.3c0,0.7,0.3,0.7,0.3,1.3c0,0.3-0.1,0.7,0.1,0.9
					C684.9,584.9,685.2,584.7,685.5,584.7z"/>
			</g>
			<g>
				<path fill="#812D36" d="M685.5,569.5v0.3V569.5c0.3,0,0.7,0.1,0.9-0.1c0.2-0.2,0.1-0.6,0.1-0.9c0-0.7,0.3-0.7,0.3-1.3
					c0-0.7-0.3-0.7-0.3-1.3c0-0.3,0.1-0.7-0.1-0.9c-0.2-0.2-0.6-0.1-0.9-0.1v-0.3v0.3c-0.3,0-0.7-0.1-0.9,0.1
					c-0.2,0.2-0.1,0.6-0.1,0.9c0,0.7-0.3,0.7-0.3,1.3c0,0.7,0.3,0.7,0.3,1.3c0,0.3-0.1,0.7,0.1,0.9
					C684.9,569.6,685.2,569.5,685.5,569.5z"/>
			</g>
		</g>
	</g>
</g>
</svg>
