<?xml version="1.0" encoding="utf-8"?>
<!-- Generator: Adobe Illustrator 23.0.4, SVG Export Plug-In . SVG Version: 6.00 Build 0)  -->
<svg version="1.0" id="Layer_1" xmlns="http://www.w3.org/2000/svg" xmlns:xlink="http://www.w3.org/1999/xlink" x="0px" y="0px"
	 width="800px" height="600px" viewBox="0 0 800 600" enable-background="new 0 0 800 600" xml:space="preserve">
<g id="bounds">
	<rect x="-1199.7" y="1807.1" fill="none" width="3027.7" height="345.9"/>
	<rect x="-1199.7" y="-1544.5" fill="none" width="412.4" height="3351.6"/>
	<rect x="1432.3" y="-1544.5" fill="none" width="506.5" height="3351.6"/>
</g>
<g id="Layer_3">
	<g>
		<rect fill="#0E111B" width="799" height="599.2"/>
		<g>
			<circle fill="#D8DEEC" cx="291" cy="519.5" r="2.4"/>
			<circle fill="#FFFFFF" cx="227.4" cy="418.9" r="1.6"/>
			<circle fill="#FFFFFF" cx="292.6" cy="416.6" r="1.1"/>
			<g>
				<circle fill="#D7E1F2" cx="19.1" cy="22.1" r="1.4"/>
				<circle fill="#D7E1F2" cx="16.3" cy="28.6" r="1.4"/>
				<circle fill="#D7E1F2" cx="82.6" cy="114.8" r="1.5"/>
				<circle fill="#7A8AB3" cx="39.3" cy="84.2" r="0.8"/>
				<circle fill="#424652" cx="10.7" cy="22.3" r="0.8"/>
				<circle fill="#424652" cx="30.3" cy="12.7" r="1.3"/>
				<circle fill="#D7E1F2" cx="157.3" cy="20.1" r="0.8"/>
				<circle fill="#D7E1F2" cx="137" cy="51.4" r="0.8"/>
				<circle fill="#D7E1F2" cx="15.3" cy="56.7" r="0.8"/>
			</g>
			<g>
				<g>
					<path fill="#D7E1F2" d="M341,117.1c2.6,0,2.6-4,0-4C338.4,113.1,338.4,117.1,341,117.1L341,117.1z"/>
				</g>
			</g>
			<g>
				<g>
					<path fill="#D7E1F2" d="M265.5,105.7c2.6,0,2.6-4,0-4C262.9,101.7,262.9,105.7,265.5,105.7L265.5,105.7z"/>
				</g>
			</g>
			<g>
				<g>
					<path fill="#D7E1F2" d="M308.9,137.8c1.3,0,1.3-2,0-2C307.6,135.8,307.6,137.8,308.9,137.8L308.9,137.8z"/>
				</g>
			</g>
			<g>
				<g>
					<path fill="#D7E1F2" d="M216.6,137.8c1.3,0,1.3-2,0-2C215.3,135.8,215.3,137.8,216.6,137.8L216.6,137.8z"/>
				</g>
			</g>
			<g>
				<g>
					<path fill="#D7E1F2" d="M203.3,110.7c1.3,0,1.3-2,0-2C201.9,108.6,201.9,110.7,203.3,110.7L203.3,110.7z"/>
				</g>
			</g>
			<g>
				<g>
					<path fill="#D7E1F2" d="M20.4,376.6c1.3,0,1.3-2,0-2C19.1,374.6,19.1,376.6,20.4,376.6L20.4,376.6z"/>
				</g>
			</g>
			<g>
				<g>
					<path fill="#D7E1F2" d="M29.3,376.1c1.3,0,1.3-2,0-2C28,374.1,28,376.1,29.3,376.1L29.3,376.1z"/>
				</g>
			</g>
			<g>
				<g>
					<path fill="#D7E1F2" d="M13.5,360.3c1.3,0,1.3-2,0-2C12.2,358.3,12.2,360.3,13.5,360.3L13.5,360.3z"/>
				</g>
			</g>
			<g>
				<g>
					<path fill="#424652" d="M38.3,345.7c1.3,0,1.3-2,0-2C37,343.7,37,345.7,38.3,345.7L38.3,345.7z"/>
				</g>
			</g>
			<g>
				<g>
					<path fill="#D7E1F2" d="M83.3,366c1.3,0,1.3-2,0-2C82,363.9,82,366,83.3,366L83.3,366z"/>
				</g>
			</g>
			<g>
				<g>
					<path fill="#D7E1F2" d="M76.8,295.3c1.3,0,1.3-2,0-2C75.5,293.3,75.5,295.3,76.8,295.3L76.8,295.3z"/>
				</g>
			</g>
			<g>
				<g>
					<path fill="#D7E1F2" d="M131.2,227.2c1.3,0,1.3-2,0-2C129.9,225.2,129.9,227.2,131.2,227.2L131.2,227.2z"/>
				</g>
			</g>
			<g>
				<g>
					<path fill="#D7E1F2" d="M35.4,139.3c1.3,0,1.3-2,0-2C34.1,137.3,34.1,139.3,35.4,139.3L35.4,139.3z"/>
				</g>
			</g>
			<g>
				<g>
					<path fill="#D7E1F2" d="M344,316.6c1.3,0,1.3-2,0-2C342.7,314.6,342.7,316.6,344,316.6L344,316.6z"/>
				</g>
			</g>
			<g>
				<g>
					<path fill="#D7E1F2" d="M665.9,343.2c1.3,0,1.3-2,0-2C664.6,341.2,664.6,343.2,665.9,343.2L665.9,343.2z"/>
				</g>
			</g>
			<g>
				<g>
					<path fill="#D7E1F2" d="M684.2,339.8c1.3,0,1.3-2,0-2C682.9,337.8,682.9,339.8,684.2,339.8L684.2,339.8z"/>
				</g>
			</g>
			<g>
				<g>
					<path fill="#D7E1F2" d="M670.4,335.8c1.3,0,1.3-2,0-2C669.1,333.8,669.1,335.8,670.4,335.8L670.4,335.8z"/>
				</g>
			</g>
			<g>
				<g>
					<path fill="#D7E1F2" d="M686.7,305.7c1.3,0,1.3-2,0-2C685.4,303.7,685.4,305.7,686.7,305.7L686.7,305.7z"/>
				</g>
			</g>
			<g>
				<g>
					<path fill="#424652" d="M731.1,303.7c1.3,0,1.3-2,0-2C729.8,301.7,729.8,303.7,731.1,303.7L731.1,303.7z"/>
				</g>
			</g>
			<g>
				<g>
					<path fill="#424652" d="M609.7,268.2c1.3,0,1.3-2,0-2C608.4,266.2,608.4,268.2,609.7,268.2L609.7,268.2z"/>
				</g>
			</g>
			<g>
				<g>
					<path fill="#D7E1F2" d="M723.7,274.6c2.6,0,2.6-4,0-4C721.1,270.6,721.1,274.6,723.7,274.6L723.7,274.6z"/>
				</g>
			</g>
			<g>
				<g>
					<path fill="#D7E1F2" d="M712.9,284c1.3,0,1.3-2,0-2C711.6,282,711.6,284,712.9,284L712.9,284z"/>
				</g>
			</g>
			<g>
				<g>
					<path fill="#D7E1F2" d="M734.1,266.7c1.3,0,1.3-2,0-2C732.8,264.7,732.8,266.7,734.1,266.7L734.1,266.7z"/>
				</g>
			</g>
			<g>
				<g>
					<path fill="#D7E1F2" d="M725.2,264.2c1.3,0,1.3-2,0-2C723.9,262.2,723.9,264.2,725.2,264.2L725.2,264.2z"/>
				</g>
			</g>
			<g>
				<g>
					<path fill="#D7E1F2" d="M749.4,243c1.3,0,1.3-2,0-2C748.1,241,748.1,243,749.4,243L749.4,243z"/>
				</g>
			</g>
			<g>
				<g>
					<path fill="#424652" d="M749.4,297.3c1.3,0,1.3-2,0-2C748.1,295.3,748.1,297.3,749.4,297.3L749.4,297.3z"/>
				</g>
			</g>
			<g>
				<g>
					<path fill="#D7E1F2" d="M586.4,306.2c1.3,0,1.3-2,0-2C585.1,304.2,585.1,306.2,586.4,306.2L586.4,306.2z"/>
				</g>
			</g>
			<g>
				<g>
					<path fill="#D7E1F2" d="M709.4,145.7c1.3,0,1.3-2,0-2C708.1,143.7,708.1,145.7,709.4,145.7L709.4,145.7z"/>
				</g>
			</g>
			<g>
				<g>
					<path fill="#7A8AB3" d="M571.6,95.8c1.3,0,1.3-2,0-2C570.3,93.8,570.3,95.8,571.6,95.8L571.6,95.8z"/>
				</g>
			</g>
			<g>
				<g>
					<path fill="#7A8AB3" d="M784,18.8c1.3,0,1.3-2,0-2C782.7,16.8,782.7,18.8,784,18.8L784,18.8z"/>
				</g>
			</g>
			<g>
				<g>
					<path fill="#D7E1F2" d="M767.7,14.4c1.3,0,1.3-2,0-2C766.4,12.3,766.4,14.4,767.7,14.4L767.7,14.4z"/>
				</g>
			</g>
			<g>
				<g>
					<path fill="#D7E1F2" d="M774.1,26.2c1.3,0,1.3-2,0-2C772.8,24.2,772.8,26.2,774.1,26.2L774.1,26.2z"/>
				</g>
			</g>
			<g>
				<g>
					<path fill="#7A8AB3" d="M777.1,21.3c1.3,0,1.3-2,0-2C775.8,19.3,775.8,21.3,777.1,21.3L777.1,21.3z"/>
				</g>
			</g>
			<g>
				<g>
					<path fill="#D7E1F2" d="M790.4,49.4c1.3,0,1.3-2,0-2C789.1,47.4,789.1,49.4,790.4,49.4L790.4,49.4z"/>
				</g>
			</g>
			<g>
				<g>
					<path fill="#D7E1F2" d="M668.9,55.3c1.3,0,1.3-2,0-2C667.6,53.3,667.6,55.3,668.9,55.3L668.9,55.3z"/>
				</g>
			</g>
			<g>
				<g>
					<path fill="#D7E1F2" d="M600.8,36.1c1.3,0,1.3-2,0-2C599.5,34.1,599.5,36.1,600.8,36.1L600.8,36.1z"/>
				</g>
			</g>
			<g>
				<g>
					<path fill="#7A8AB3" d="M729.7,52.4c2,0,2-3,0-3C727.7,49.4,727.7,52.4,729.7,52.4L729.7,52.4z"/>
				</g>
			</g>
			<g>
				<g>
					<path fill="#D7E1F2" d="M687.7,34.1c2,0,2-3,0-3C685.7,31.1,685.7,34.1,687.7,34.1L687.7,34.1z"/>
				</g>
			</g>
			<g>
				<g>
					<path fill="#D7E1F2" d="M284.7,105.2c2,0,2-3,0-3C282.8,102.2,282.8,105.2,284.7,105.2L284.7,105.2z"/>
				</g>
			</g>
			<g>
				<g>
					<path fill="#7A8AB3" d="M249.7,84.5c2,0,2-3,0-3C247.7,81.5,247.7,84.5,249.7,84.5L249.7,84.5z"/>
				</g>
			</g>
			<g>
				<g>
					<path fill="#D7E1F2" d="M278.8,58.8c2,0,2-3,0-3C276.9,55.8,276.8,58.8,278.8,58.8L278.8,58.8z"/>
				</g>
			</g>
			<g>
				<g>
					<path fill="#D7E1F2" d="M240.8,58.8c0.7,0,0.7-1,0-1C240.1,57.8,240.1,58.8,240.8,58.8L240.8,58.8z"/>
				</g>
			</g>
			<g>
				<g>
					<path fill="#D7E1F2" d="M232.9,52.9c0.7,0,0.7-1,0-1C232.2,51.9,232.2,52.9,232.9,52.9L232.9,52.9z"/>
				</g>
			</g>
			<g>
				<g>
					<path fill="#D7E1F2" d="M244.7,50.4c0.7,0,0.7-1,0-1C244.1,49.4,244.1,50.4,244.7,50.4L244.7,50.4z"/>
				</g>
			</g>
			<g>
				<g>
					<path fill="#D7E1F2" d="M57.6,278c0.7,0,0.7-1,0-1C56.9,277,56.9,278,57.6,278L57.6,278z"/>
				</g>
			</g>
			<g>
				<g>
					<path fill="#D7E1F2" d="M68.9,265.7c0.7,0,0.7-1,0-1C68.3,264.7,68.3,265.7,68.9,265.7L68.9,265.7z"/>
				</g>
			</g>
			<g>
				<g>
					<path fill="#D7E1F2" d="M35.4,258.3c0.7,0,0.7-1,0-1C34.7,257.3,34.7,258.3,35.4,258.3L35.4,258.3z"/>
				</g>
			</g>
			<g>
				<g>
					<path fill="#D7E1F2" d="M689.7,272.6c0.2,0,0.3,0,0.5,0c0.7,0,0.7-1,0-1c-0.2,0-0.3,0-0.5,0C689,271.6,689,272.6,689.7,272.6
						L689.7,272.6z"/>
				</g>
			</g>
			<g>
				<g>
					<path fill="#D7E1F2" d="M708.4,268.2c0.7,0,0.7-1,0-1C707.8,267.2,707.8,268.2,708.4,268.2L708.4,268.2z"/>
				</g>
			</g>
			<g>
				<g>
					<path fill="#D7E1F2" d="M704,263.7c0.7,0,0.7-1,0-1C703.3,262.7,703.3,263.7,704,263.7L704,263.7z"/>
				</g>
			</g>
			<g>
				<g>
					<path fill="#D7E1F2" d="M714.8,256.8c0.7,0,0.7-1,0-1C714.2,255.8,714.2,256.8,714.8,256.8L714.8,256.8z"/>
				</g>
			</g>
			<g>
				<g>
					<path fill="#D7E1F2" d="M716.3,252.4c0.7,0,0.7-1,0-1C715.7,251.4,715.7,252.4,716.3,252.4L716.3,252.4z"/>
				</g>
			</g>
			<g>
				<g>
					<path fill="#D7E1F2" d="M680.8,230.6c0.7,0,0.7-1,0-1C680.1,229.6,680.1,230.6,680.8,230.6L680.8,230.6z"/>
				</g>
			</g>
			<g>
				<g>
					<path fill="#D7E1F2" d="M691.6,221.3c0.7,0,0.7-1,0-1C691,220.2,691,221.3,691.6,221.3L691.6,221.3z"/>
				</g>
			</g>
			<g>
				<g>
					<path fill="#D7E1F2" d="M722.2,212.4c0.7,0,0.7-1,0-1C721.6,211.4,721.6,212.4,722.2,212.4L722.2,212.4z"/>
				</g>
			</g>
			<g>
				<g>
					<path fill="#D7E1F2" d="M665.5,178.3c0.7,0,0.7-1,0-1C664.8,177.3,664.8,178.3,665.5,178.3L665.5,178.3z"/>
				</g>
			</g>
			<g>
				<g>
					<path fill="#D7E1F2" d="M620.6,117.3c0.7,0,0.7-1,0-1C619.9,116.3,619.9,117.3,620.6,117.3L620.6,117.3z"/>
				</g>
			</g>
			<g>
				<g>
					<path fill="#424652" d="M612.2,190.9c0.7,0,0.7-1,0-1C611.5,189.9,611.5,190.9,612.2,190.9L612.2,190.9z"/>
				</g>
			</g>
			<g>
				<g>
					<path fill="#7A8AB3" d="M728.7,347.7c0.7,0,0.7-1,0-1C728,346.7,728,347.7,728.7,347.7L728.7,347.7z"/>
				</g>
			</g>
			<g>
				<g>
					<path fill="#7A8AB3" d="M726.7,331.4c0.7,0,0.7-1,0-1C726,330.4,726,331.4,726.7,331.4L726.7,331.4z"/>
				</g>
			</g>
			<g>
				<g>
					<path fill="#D7E1F2" d="M772.1,336.3c0.7,0,0.7-1,0-1C771.5,335.3,771.5,336.3,772.1,336.3L772.1,336.3z"/>
				</g>
			</g>
			<g>
				<g>
					<path fill="#D7E1F2" d="M768.2,358c0.7,0,0.7-1,0-1C767.5,357,767.5,358,768.2,358L768.2,358z"/>
				</g>
			</g>
			<g>
				<g>
					<path fill="#D7E1F2" d="M749.9,371.4c0.7,0,0.7-1,0-1C749.2,370.4,749.2,371.4,749.9,371.4L749.9,371.4z"/>
				</g>
			</g>
			<g>
				<g>
					<path fill="#7A8AB3" d="M741,355.1c0.7,0,0.7-1,0-1C740.4,354.1,740.4,355.1,741,355.1L741,355.1z"/>
				</g>
			</g>
			<g>
				<g>
					<path fill="#7A8AB3" d="M748.4,350.1c0.7,0,0.7-1,0-1C747.8,349.1,747.8,350.1,748.4,350.1L748.4,350.1z"/>
				</g>
			</g>
			<g>
				<g>
					<path fill="#D7E1F2" d="M774.6,46.9c0.7,0,0.7-1,0-1C773.9,45.9,773.9,46.9,774.6,46.9L774.6,46.9z"/>
				</g>
			</g>
			<g>
				<g>
					<path fill="#D7E1F2" d="M761.7,41.5c0.7,0,0.7-1,0-1C761.1,40.5,761.1,41.5,761.7,41.5L761.7,41.5z"/>
				</g>
			</g>
			<g>
				<g>
					<path fill="#D7E1F2" d="M763.2,34.6c0.7,0,0.7-1,0-1C762.6,33.6,762.6,34.6,763.2,34.6L763.2,34.6z"/>
				</g>
			</g>
			<g>
				<g>
					<path fill="#D7E1F2" d="M751.9,33.6c0.7,0,0.7-1,0-1C751.2,32.6,751.2,33.6,751.9,33.6L751.9,33.6z"/>
				</g>
			</g>
			<g>
				<g>
					<path fill="#D7E1F2" d="M754.3,26.7c0.7,0,0.7-1,0-1C753.7,25.7,753.7,26.7,754.3,26.7L754.3,26.7z"/>
				</g>
			</g>
			<g>
				<g>
					<path fill="#D7E1F2" d="M786.4,31.1c0.7,0,0.7-1,0-1C785.8,30.1,785.8,31.1,786.4,31.1L786.4,31.1z"/>
				</g>
			</g>
			<g>
				<g>
					<path fill="#D7E1F2" d="M737.1,15.8c0.7,0,0.7-1,0-1C736.4,14.8,736.4,15.8,737.1,15.8L737.1,15.8z"/>
				</g>
			</g>
			<g>
				<g>
					<path fill="#7A8AB3" d="M725.7,36.1c0.7,0,0.7-1,0-1C725,35.1,725,36.1,725.7,36.1L725.7,36.1z"/>
				</g>
			</g>
			<g>
				<g>
					<path fill="#D7E1F2" d="M762.7,55.3c0.7,0,0.7-1,0-1C762.1,54.3,762.1,55.3,762.7,55.3L762.7,55.3z"/>
				</g>
			</g>
			<g>
				<g>
					<path fill="#D7E1F2" d="M729.7,96.3c0.7,0,0.7-1,0-1C729,95.3,729,96.3,729.7,96.3L729.7,96.3z"/>
				</g>
			</g>
			<g>
				<g>
					<path fill="#D7E1F2" d="M644.7,97.8c0.7,0,0.7-1,0-1C644.1,96.8,644.1,97.8,644.7,97.8L644.7,97.8z"/>
				</g>
			</g>
			<g>
				<g>
					<path fill="#D7E1F2" d="M568.2,144.7c0.7,0,0.7-1,0-1C567.5,143.7,567.5,144.7,568.2,144.7L568.2,144.7z"/>
				</g>
			</g>
			<g>
				<g>
					<path fill="#424652" d="M503,189.2c0.7,0,0.7-1,0-1C502.3,188.1,502.3,189.2,503,189.2L503,189.2z"/>
				</g>
			</g>
			<g>
				<g>
					<path fill="#D7E1F2" d="M449.7,203.5c0.7,0,0.7-1,0-1C449,202.5,449,203.5,449.7,203.5L449.7,203.5z"/>
				</g>
			</g>
			<g>
				<g>
					<path fill="#424652" d="M457.6,188.2c0.7,0,0.7-1,0-1C456.9,187.2,456.9,188.2,457.6,188.2L457.6,188.2z"/>
				</g>
			</g>
			<g>
				<g>
					<path fill="#424652" d="M468.4,199.5c0.7,0,0.7-1,0-1C467.8,198.5,467.8,199.5,468.4,199.5L468.4,199.5z"/>
				</g>
			</g>
			<g>
				<g>
					<path fill="#D7E1F2" d="M439.8,196.1c0.7,0,0.7-1,0-1C439.1,195.1,439.1,196.1,439.8,196.1L439.8,196.1z"/>
				</g>
			</g>
			<g>
				<g>
					<path fill="#D7E1F2" d="M447.7,187.2c0.7,0,0.7-1,0-1C447,186.2,447,187.2,447.7,187.2L447.7,187.2z"/>
				</g>
			</g>
			<g>
				<g>
					<path fill="#D7E1F2" d="M441.6,180.1c0.2-0.2,0.3-0.3,0.5-0.5c0.5-0.5-0.3-1.2-0.7-0.7c-0.2,0.2-0.3,0.3-0.5,0.5
						C440.4,179.9,441.2,180.6,441.6,180.1L441.6,180.1z"/>
				</g>
			</g>
			<g>
				<g>
					<path fill="#424652" d="M471.9,164.5c0.7,0,0.7-1,0-1C471.2,163.5,471.2,164.5,471.9,164.5L471.9,164.5z"/>
				</g>
			</g>
			<g>
				<g>
					<path fill="#D7E1F2" d="M448.2,138.3c0.7,0,0.7-1,0-1C447.5,137.3,447.5,138.3,448.2,138.3L448.2,138.3z"/>
				</g>
			</g>
			<g>
				<g>
					<path fill="#D7E1F2" d="M437.8,116.1c0.7,0,0.7-1,0-1C437.2,115.1,437.2,116.1,437.8,116.1L437.8,116.1z"/>
				</g>
			</g>
			<g>
				<g>
					<path fill="#D7E1F2" d="M498.1,103.2c0.7,0,0.7-1,0-1C497.4,102.2,497.4,103.2,498.1,103.2L498.1,103.2z"/>
				</g>
			</g>
			<g>
				<g>
					<path fill="#D7E1F2" d="M460,84.5c0.7,0,0.7-1,0-1C459.4,83.5,459.4,84.5,460,84.5L460,84.5z"/>
				</g>
			</g>
			<g>
				<g>
					<path fill="#D7E1F2" d="M358.8,177.3c0.7,0,0.7-1,0-1C358.1,176.3,358.1,177.3,358.8,177.3L358.8,177.3z"/>
				</g>
			</g>
			<g>
				<g>
					<path fill="#D7E1F2" d="M409.8,234.9c0.2,0.2,0.3,0.3,0.5,0.5c0.5,0.5,1.2-0.3,0.7-0.7c-0.2-0.2-0.3-0.3-0.5-0.5
						C410.1,233.8,409.3,234.5,409.8,234.9L409.8,234.9z"/>
				</g>
			</g>
			<g>
				<g>
					<path fill="#D7E1F2" d="M389.9,245.9c0.7,0,0.7-1,0-1C389.3,244.9,389.3,245.9,389.9,245.9L389.9,245.9z"/>
				</g>
			</g>
			<g>
				<g>
					<path fill="#D7E1F2" d="M462,248.4c1.3,0,1.3-2,0-2C460.7,246.4,460.7,248.4,462,248.4L462,248.4z"/>
				</g>
			</g>
			<g>
				<g>
					<path fill="#D7E1F2" d="M405.7,227.7c1.3,0,1.3-2,0-2C404.4,225.7,404.4,227.7,405.7,227.7L405.7,227.7z"/>
				</g>
			</g>
			<g>
				<g>
					<path fill="#D7E1F2" d="M410.2,210.4c1.3,0,1.3-2,0-2C408.9,208.4,408.9,210.4,410.2,210.4L410.2,210.4z"/>
				</g>
			</g>
			<g>
				<g>
					<path fill="#D7E1F2" d="M334.1,221.8c1.3,0,1.3-2,0-2C332.8,219.7,332.8,221.8,334.1,221.8L334.1,221.8z"/>
				</g>
			</g>
			<g>
				<g>
					<path fill="#D7E1F2" d="M316.8,275.1c1.3,0,1.3-2,0-2C315.5,273.1,315.5,275.1,316.8,275.1L316.8,275.1z"/>
				</g>
			</g>
			<g>
				<g>
					<path fill="#D7E1F2" d="M264.5,263.7c1.3,0,1.3-2,0-2C263.2,261.7,263.2,263.7,264.5,263.7L264.5,263.7z"/>
				</g>
			</g>
			<g>
				<g>
					<path fill="#D7E1F2" d="M254.6,233.1c1.3,0,1.3-2,0-2C253.3,231.1,253.3,233.1,254.6,233.1L254.6,233.1z"/>
				</g>
			</g>
			<g>
				<g>
					<path fill="#D7E1F2" d="M164.2,246.5c1.3,0,1.3-2,0-2C162.9,244.4,162.9,246.5,164.2,246.5L164.2,246.5z"/>
				</g>
			</g>
			<g>
				<g>
					<path fill="#7A8AB3" d="M143.5,309.7c1.3,0,1.3-2,0-2C142.2,307.6,142.2,309.7,143.5,309.7L143.5,309.7z"/>
				</g>
			</g>
			<g>
				<g>
					<path fill="#7A8AB3" d="M183.5,354.1c1.3,0,1.3-2,0-2C182.2,352.1,182.2,354.1,183.5,354.1L183.5,354.1z"/>
				</g>
			</g>
			<g>
				<g>
					<path fill="#D7E1F2" d="M214.1,335.8c2,0,2-3,0-3C212.2,332.8,212.2,335.8,214.1,335.8L214.1,335.8z"/>
				</g>
			</g>
			<g>
				<g>
					<path fill="#D7E1F2" d="M267.9,153.6c0.7,0,0.7-1,0-1C267.3,152.6,267.3,153.6,267.9,153.6L267.9,153.6z"/>
				</g>
			</g>
			<g>
				<g>
					<path fill="#D7E1F2" d="M227,166.4c0.7,0,0.7-1,0-1C226.3,165.4,226.3,166.4,227,166.4L227,166.4z"/>
				</g>
			</g>
			<g>
				<g>
					<path fill="#D7E1F2" d="M153.4,169.4c0.7,0,0.7-1,0-1C152.7,168.4,152.7,169.4,153.4,169.4L153.4,169.4z"/>
				</g>
			</g>
			<g>
				<g>
					<path fill="#D7E1F2" d="M150.4,122c0.7,0,0.7-1,0-1C149.8,121,149.8,122,150.4,122L150.4,122z"/>
				</g>
			</g>
			<g>
				<g>
					<path fill="#D7E1F2" d="M183.5,178.3c0.7,0,0.7-1,0-1C182.8,177.3,182.8,178.3,183.5,178.3L183.5,178.3z"/>
				</g>
			</g>
			<g>
				<g>
					<path fill="#D7E1F2" d="M101.5,207.4c0.7,0,0.7-1,0-1C100.9,206.4,100.9,207.4,101.5,207.4L101.5,207.4z"/>
				</g>
			</g>
			<g>
				<g>
					<path fill="#D7E1F2" d="M428.5,247.5c2.6,0,2.6-4,0-4C425.9,243.4,425.9,247.5,428.5,247.5L428.5,247.5z"/>
				</g>
			</g>
			<g>
				<g>
					<path fill="#D7E1F2" d="M510.9,335.6c2.6,0,2.6-4,0-4C508.3,331.5,508.2,335.6,510.9,335.6L510.9,335.6z"/>
				</g>
			</g>
			<g>
				<g>
					<path fill="#D7E1F2" d="M243,357.1c2.6,0,2.6-4,0-4C240.4,353.1,240.4,357.1,243,357.1L243,357.1z"/>
				</g>
			</g>
			<g>
				<g>
					<path fill="#D7E1F2" d="M416.9,332.1c1.3,0,1.3-2,0-2C415.6,330,415.6,332.1,416.9,332.1L416.9,332.1z"/>
				</g>
			</g>
			<g>
				<g>
					<path fill="#D7E1F2" d="M446.6,295.1c1.3,0,1.3-2,0-2C445.3,293.1,445.2,295.1,446.6,295.1L446.6,295.1z"/>
				</g>
			</g>
			<g>
				<g>
					<path fill="#D7E1F2" d="M389.5,265.3c1.3,0,1.3-2,0-2C388.2,263.3,388.2,265.3,389.5,265.3L389.5,265.3z"/>
				</g>
			</g>
			<g>
				<g>
					<path fill="#D7E1F2" d="M551.5,363.1c1.3,0,1.3-2,0-2C550.2,361.1,550.2,363.1,551.5,363.1L551.5,363.1z"/>
				</g>
			</g>
			<g>
				<g>
					<path fill="#D7E1F2" d="M581.6,338.1c1.3,0,1.3-2,0-2C580.3,336,580.3,338.1,581.6,338.1L581.6,338.1z"/>
				</g>
			</g>
			<g>
				<g>
					<path fill="#D7E1F2" d="M403.8,293.1c0.7,0,0.7-1,0-1C403.2,292.1,403.2,293.1,403.8,293.1L403.8,293.1z"/>
				</g>
			</g>
			<g>
				<g>
					<path fill="#D7E1F2" d="M427.4,294.6c0.7,0,0.7-1,0-1C426.8,293.6,426.8,294.6,427.4,294.6L427.4,294.6z"/>
				</g>
			</g>
			<g>
				<g>
					<path fill="#D7E1F2" d="M408.1,287.6c0.7,0,0.7-1,0-1C407.5,286.6,407.5,287.6,408.1,287.6L408.1,287.6z"/>
				</g>
			</g>
			<g>
				<g>
					<path fill="#D7E1F2" d="M408.6,265.4c0.7,0,0.7-1,0-1C407.9,264.3,407.9,265.4,408.6,265.4L408.6,265.4z"/>
				</g>
			</g>
			<g>
				<g>
					<path fill="#D7E1F2" d="M412.3,256.9c0.7,0,0.7-1,0-1C411.6,255.9,411.6,256.9,412.3,256.9L412.3,256.9z"/>
				</g>
			</g>
			<g>
				<g>
					<path fill="#D7E1F2" d="M369.8,327.2c0.7,0,0.7-1,0-1C369.2,326.2,369.2,327.2,369.8,327.2L369.8,327.2z"/>
				</g>
			</g>
			<g>
				<g>
					<path fill="#D7E1F2" d="M337.5,290.3c0.7,0,0.7-1,0-1C336.8,289.3,336.8,290.3,337.5,290.3L337.5,290.3z"/>
				</g>
			</g>
			<g>
				<g>
					<path fill="#D7E1F2" d="M363,220.3c0.7,0,0.7-1,0-1C362.4,219.3,362.4,220.3,363,220.3L363,220.3z"/>
				</g>
			</g>
			<g>
				<g>
					<path fill="#D7E1F2" d="M279.5,199.3c0.7,0,0.7-1,0-1C278.9,198.3,278.9,199.3,279.5,199.3L279.5,199.3z"/>
				</g>
			</g>
			<g>
				<g>
					<path fill="#D7E1F2" d="M281.8,167.7c0.7,0,0.7-1,0-1C281.1,166.7,281.1,167.7,281.8,167.7L281.8,167.7z"/>
				</g>
			</g>
			<g>
				<g>
					<path fill="#D7E1F2" d="M290.8,169.2c0.7,0,0.7-1,0-1C290.2,168.2,290.2,169.2,290.8,169.2L290.8,169.2z"/>
				</g>
			</g>
			<g>
				<g>
					<path fill="#D7E1F2" d="M291.6,182c0.7,0,0.7-1,0-1C290.9,181,290.9,182,291.6,182L291.6,182z"/>
				</g>
			</g>
			<g>
				<g>
					<path fill="#D7E1F2" d="M279.5,182.7c0.7,0,0.7-1,0-1C278.9,181.7,278.9,182.7,279.5,182.7L279.5,182.7z"/>
				</g>
			</g>
			<g>
				<g>
					<path fill="#D7E1F2" d="M488.7,250.4c0.7,0,0.7-1,0-1C488.1,249.4,488.1,250.4,488.7,250.4L488.7,250.4z"/>
				</g>
			</g>
			<g>
				<g>
					<path fill="#D7E1F2" d="M121.5,96.9c0.7,0,0.7-1,0-1C120.9,95.9,120.9,96.9,121.5,96.9L121.5,96.9z"/>
				</g>
			</g>
			<g>
				<g>
					<path fill="#D7E1F2" d="M462.4,77.4c0.7,0,0.7-1,0-1C461.7,76.4,461.7,77.4,462.4,77.4L462.4,77.4z"/>
				</g>
			</g>
			<g>
				<g>
					<path fill="#D7E1F2" d="M378.8,67.6c0.7,0,0.7-1,0-1C378.2,66.6,378.2,67.6,378.8,67.6L378.8,67.6z"/>
				</g>
			</g>
		</g>
		<g>
			<circle fill="#D8DEEC" cx="508.7" cy="157.9" r="2.4"/>
			<circle fill="#FFFFFF" cx="516.4" cy="169.1" r="1.6"/>
			<circle fill="#FFFFFF" cx="507.6" cy="172.7" r="1.1"/>
			<g>
				<circle fill="#D7E1F2" cx="781.2" cy="567.3" r="1.4"/>
				<circle fill="#D7E1F2" cx="784" cy="560.7" r="1.4"/>
				<circle fill="#D7E1F2" cx="717.7" cy="474.6" r="1.5"/>
				<circle fill="#7A8AB3" cx="760.9" cy="505.1" r="0.8"/>
				<circle fill="#424652" cx="789.6" cy="567" r="0.8"/>
				<circle fill="#424652" cx="769.9" cy="576.6" r="1.3"/>
				<circle fill="#D7E1F2" cx="642.9" cy="569.3" r="0.8"/>
				<circle fill="#D7E1F2" cx="663.2" cy="538" r="0.8"/>
				<circle fill="#D7E1F2" cx="784.9" cy="532.7" r="0.8"/>
			</g>
			<g>
				<g>
					<path fill="#D7E1F2" d="M459.2,476.3c2.6,0,2.6-4,0-4C456.6,472.2,456.6,476.3,459.2,476.3L459.2,476.3z"/>
				</g>
			</g>
			<g>
				<g>
					<path fill="#D7E1F2" d="M534.8,487.6c2.6,0,2.6-4,0-4C532.2,483.6,532.1,487.6,534.8,487.6L534.8,487.6z"/>
				</g>
			</g>
			<g>
				<g>
					<path fill="#D7E1F2" d="M246.4,532.9c2.6,0,2.6-4,0-4C243.8,528.9,243.8,532.9,246.4,532.9L246.4,532.9z"/>
				</g>
			</g>
			<g>
				<g>
					<path fill="#D7E1F2" d="M491.3,453.5c1.3,0,1.3-2,0-2C490,451.5,490,453.5,491.3,453.5L491.3,453.5z"/>
				</g>
			</g>
			<g>
				<g>
					<path fill="#D7E1F2" d="M499,498.8c1.3,0,1.3-2,0-2C497.7,496.8,497.7,498.8,499,498.8L499,498.8z"/>
				</g>
			</g>
			<g>
				<g>
					<path fill="#D7E1F2" d="M597,480.7c1.3,0,1.3-2,0-2C595.7,478.7,595.7,480.7,597,480.7L597,480.7z"/>
				</g>
			</g>
			<g>
				<g>
					<path fill="#D7E1F2" d="M779.9,214.8c1.3,0,1.3-2,0-2C778.6,212.7,778.6,214.8,779.9,214.8L779.9,214.8z"/>
				</g>
			</g>
			<g>
				<g>
					<path fill="#D7E1F2" d="M771,215.3c1.3,0,1.3-2,0-2C769.7,213.2,769.7,215.3,771,215.3L771,215.3z"/>
				</g>
			</g>
			<g>
				<g>
					<path fill="#D7E1F2" d="M786.8,231.1c1.3,0,1.3-2,0-2C785.5,229,785.5,231.1,786.8,231.1L786.8,231.1z"/>
				</g>
			</g>
			<g>
				<g>
					<path fill="#424652" d="M761.9,245.7c1.3,0,1.3-2,0-2C760.6,243.6,760.6,245.7,761.9,245.7L761.9,245.7z"/>
				</g>
			</g>
			<g>
				<g>
					<path fill="#D7E1F2" d="M717,225.4c1.3,0,1.3-2,0-2C715.7,223.4,715.7,225.4,717,225.4L717,225.4z"/>
				</g>
			</g>
			<g>
				<g>
					<path fill="#D7E1F2" d="M723.4,296c1.3,0,1.3-2,0-2C722.1,294,722.1,296,723.4,296L723.4,296z"/>
				</g>
			</g>
			<g>
				<g>
					<path fill="#D7E1F2" d="M669.1,364.2c1.3,0,1.3-2,0-2C667.8,362.1,667.8,364.2,669.1,364.2L669.1,364.2z"/>
				</g>
			</g>
			<g>
				<g>
					<path fill="#D7E1F2" d="M764.9,452.1c1.3,0,1.3-2,0-2C763.6,450,763.6,452.1,764.9,452.1L764.9,452.1z"/>
				</g>
			</g>
			<g>
				<g>
					<path fill="#D7E1F2" d="M456.2,274.8c1.3,0,1.3-2,0-2C454.9,272.8,454.9,274.8,456.2,274.8L456.2,274.8z"/>
				</g>
			</g>
			<g>
				<g>
					<path fill="#D7E1F2" d="M134.3,248.1c1.3,0,1.3-2,0-2C133,246.1,133,248.1,134.3,248.1L134.3,248.1z"/>
				</g>
			</g>
			<g>
				<g>
					<path fill="#D7E1F2" d="M116,251.6c1.3,0,1.3-2,0-2C114.7,249.6,114.7,251.6,116,251.6L116,251.6z"/>
				</g>
			</g>
			<g>
				<g>
					<path fill="#D7E1F2" d="M129.8,255.5c1.3,0,1.3-2,0-2C128.5,253.5,128.5,255.5,129.8,255.5L129.8,255.5z"/>
				</g>
			</g>
			<g>
				<g>
					<path fill="#D7E1F2" d="M113.4,463.5c1.3,0,1.3-2,0-2C112.1,461.5,112.1,463.5,113.4,463.5L113.4,463.5z"/>
				</g>
			</g>
			<g>
				<g>
					<path fill="#424652" d="M68.9,465.5c1.3,0,1.3-2,0-2C67.6,463.5,67.6,465.5,68.9,465.5L68.9,465.5z"/>
				</g>
			</g>
			<g>
				<g>
					<path fill="#424652" d="M190.4,501.1c1.3,0,1.3-2,0-2C189.1,499,189.1,501.1,190.4,501.1L190.4,501.1z"/>
				</g>
			</g>
			<g>
				<g>
					<path fill="#D7E1F2" d="M37.3,456.4c2.6,0,2.6-4,0-4C34.7,452.3,34.7,456.4,37.3,456.4L37.3,456.4z"/>
				</g>
			</g>
			<g>
				<g>
					<path fill="#D7E1F2" d="M87.2,485.3c1.3,0,1.3-2,0-2C85.9,483.2,85.9,485.3,87.2,485.3L87.2,485.3z"/>
				</g>
			</g>
			<g>
				<g>
					<path fill="#D7E1F2" d="M66,502.6c1.3,0,1.3-2,0-2C64.7,500.5,64.7,502.6,66,502.6L66,502.6z"/>
				</g>
			</g>
			<g>
				<g>
					<path fill="#D7E1F2" d="M74.9,505c1.3,0,1.3-2,0-2C73.5,503,73.5,505,74.9,505L74.9,505z"/>
				</g>
			</g>
			<g>
				<g>
					<path fill="#D7E1F2" d="M50.8,348.4c1.3,0,1.3-2,0-2C49.5,346.3,49.5,348.4,50.8,348.4L50.8,348.4z"/>
				</g>
			</g>
			<g>
				<g>
					<path fill="#424652" d="M50.7,471.9c1.3,0,1.3-2,0-2C49.4,469.9,49.4,471.9,50.7,471.9L50.7,471.9z"/>
				</g>
			</g>
			<g>
				<g>
					<path fill="#D7E1F2" d="M213.6,463c1.3,0,1.3-2,0-2C212.3,461,212.3,463,213.6,463L213.6,463z"/>
				</g>
			</g>
			<g>
				<g>
					<path fill="#D7E1F2" d="M90.8,445.6c1.3,0,1.3-2,0-2C89.5,443.6,89.5,445.6,90.8,445.6L90.8,445.6z"/>
				</g>
			</g>
			<g>
				<g>
					<path fill="#7A8AB3" d="M228.6,495.5c1.3,0,1.3-2,0-2C227.3,493.5,227.3,495.5,228.6,495.5L228.6,495.5z"/>
				</g>
			</g>
			<g>
				<g>
					<path fill="#7A8AB3" d="M16.3,572.6c1.3,0,1.3-2,0-2C15,570.5,15,572.6,16.3,572.6L16.3,572.6z"/>
				</g>
			</g>
			<g>
				<g>
					<path fill="#D7E1F2" d="M32.5,577c1.3,0,1.3-2,0-2C31.2,575,31.2,577,32.5,577L32.5,577z"/>
				</g>
			</g>
			<g>
				<g>
					<path fill="#D7E1F2" d="M26.1,565.1c1.3,0,1.3-2,0-2C24.8,563.1,24.8,565.1,26.1,565.1L26.1,565.1z"/>
				</g>
			</g>
			<g>
				<g>
					<path fill="#7A8AB3" d="M23.2,570.1c1.3,0,1.3-2,0-2C21.9,568.1,21.9,570.1,23.2,570.1L23.2,570.1z"/>
				</g>
			</g>
			<g>
				<g>
					<path fill="#D7E1F2" d="M9.8,541.9c1.3,0,1.3-2,0-2C8.5,539.9,8.5,541.9,9.8,541.9L9.8,541.9z"/>
				</g>
			</g>
			<g>
				<g>
					<path fill="#D7E1F2" d="M131.3,536c1.3,0,1.3-2,0-2C130,534,130,536,131.3,536L131.3,536z"/>
				</g>
			</g>
			<g>
				<g>
					<path fill="#D7E1F2" d="M199.5,555.3c1.3,0,1.3-2,0-2C198.2,553.2,198.2,555.3,199.5,555.3L199.5,555.3z"/>
				</g>
			</g>
			<g>
				<g>
					<path fill="#7A8AB3" d="M70.6,540c2,0,2-3,0-3C68.6,536.9,68.6,540,70.6,540L70.6,540z"/>
				</g>
			</g>
			<g>
				<g>
					<path fill="#D7E1F2" d="M112.5,558.2c2,0,2-3,0-3C110.6,555.2,110.6,558.2,112.5,558.2L112.5,558.2z"/>
				</g>
			</g>
			<g>
				<g>
					<path fill="#D7E1F2" d="M515.5,487.1c2,0,2-3,0-3C513.5,484.1,513.5,487.1,515.5,487.1L515.5,487.1z"/>
				</g>
			</g>
			<g>
				<g>
					<path fill="#7A8AB3" d="M550.6,507.9c2,0,2-3,0-3C548.6,504.8,548.6,507.9,550.6,507.9L550.6,507.9z"/>
				</g>
			</g>
			<g>
				<g>
					<path fill="#D7E1F2" d="M521.4,533.6c2,0,2-3,0-3C519.5,530.5,519.5,533.6,521.4,533.6L521.4,533.6z"/>
				</g>
			</g>
			<g>
				<g>
					<path fill="#D7E1F2" d="M559.4,531.6c0.7,0,0.7-1,0-1C558.8,530.5,558.8,531.6,559.4,531.6L559.4,531.6z"/>
				</g>
			</g>
			<g>
				<g>
					<path fill="#D7E1F2" d="M567.3,537.5c0.7,0,0.7-1,0-1C566.7,536.5,566.7,537.5,567.3,537.5L567.3,537.5z"/>
				</g>
			</g>
			<g>
				<g>
					<path fill="#D7E1F2" d="M555.5,540c0.7,0,0.7-1,0-1C554.8,538.9,554.8,540,555.5,540L555.5,540z"/>
				</g>
			</g>
			<g>
				<g>
					<path fill="#D7E1F2" d="M742.6,312.3c0.7,0,0.7-1,0-1C742,311.3,742,312.3,742.6,312.3L742.6,312.3z"/>
				</g>
			</g>
			<g>
				<g>
					<path fill="#D7E1F2" d="M731.3,324.7c0.7,0,0.7-1,0-1C730.6,323.6,730.6,324.7,731.3,324.7L731.3,324.7z"/>
				</g>
			</g>
			<g>
				<g>
					<path fill="#D7E1F2" d="M764.9,332.1c0.7,0,0.7-1,0-1C764.2,331,764.2,332.1,764.9,332.1L764.9,332.1z"/>
				</g>
			</g>
			<g>
				<g>
					<path fill="#D7E1F2" d="M110.4,494.6c-0.2,0-0.3,0-0.5,0c-0.7,0-0.7,1,0,1c0.2,0,0.3,0,0.5,0
						C111.1,495.6,111.1,494.6,110.4,494.6L110.4,494.6z"/>
				</g>
			</g>
			<g>
				<g>
					<path fill="#D7E1F2" d="M91.6,500.1c0.7,0,0.7-1,0-1C91,499.1,91,500.1,91.6,500.1L91.6,500.1z"/>
				</g>
			</g>
			<g>
				<g>
					<path fill="#D7E1F2" d="M96.1,504.5c0.7,0,0.7-1,0-1C95.4,503.5,95.4,504.5,96.1,504.5L96.1,504.5z"/>
				</g>
			</g>
			<g>
				<g>
					<path fill="#D7E1F2" d="M85.2,511.4c0.7,0,0.7-1,0-1C84.6,510.4,84.6,511.4,85.2,511.4L85.2,511.4z"/>
				</g>
			</g>
			<g>
				<g>
					<path fill="#D7E1F2" d="M83.7,515.9c0.7,0,0.7-1,0-1C83.1,514.9,83.1,515.9,83.7,515.9L83.7,515.9z"/>
				</g>
			</g>
			<g>
				<g>
					<path fill="#D7E1F2" d="M119.5,359.7c0.7,0,0.7-1,0-1C118.8,358.7,118.8,359.7,119.5,359.7L119.5,359.7z"/>
				</g>
			</g>
			<g>
				<g>
					<path fill="#D7E1F2" d="M108.6,369.1c0.7,0,0.7-1,0-1C107.9,368.1,107.9,369.1,108.6,369.1L108.6,369.1z"/>
				</g>
			</g>
			<g>
				<g>
					<path fill="#D7E1F2" d="M78,378c0.7,0,0.7-1,0-1C77.3,377,77.3,378,78,378L78,378z"/>
				</g>
			</g>
			<g>
				<g>
					<path fill="#D7E1F2" d="M134.8,412.1c0.7,0,0.7-1,0-1C134.1,411,134.1,412.1,134.8,412.1L134.8,412.1z"/>
				</g>
			</g>
			<g>
				<g>
					<path fill="#D7E1F2" d="M195,411.6c0.7,0,0.7-1,0-1C194.4,410.6,194.4,411.6,195,411.6L195,411.6z"/>
				</g>
			</g>
			<g>
				<g>
					<path fill="#424652" d="M203.2,515.9c0.7,0,0.7-1,0-1C202.6,514.9,202.6,515.9,203.2,515.9L203.2,515.9z"/>
				</g>
			</g>
			<g>
				<g>
					<path fill="#7A8AB3" d="M71.6,242.7c0.7,0,0.7-1,0-1C70.9,241.7,70.9,242.7,71.6,242.7L71.6,242.7z"/>
				</g>
			</g>
			<g>
				<g>
					<path fill="#7A8AB3" d="M73.5,259c0.7,0,0.7-1,0-1C72.9,258,72.9,259,73.5,259L73.5,259z"/>
				</g>
			</g>
			<g>
				<g>
					<path fill="#D7E1F2" d="M28.1,254c0.7,0,0.7-1,0-1C27.5,253,27.5,254,28.1,254L28.1,254z"/>
				</g>
			</g>
			<g>
				<g>
					<path fill="#D7E1F2" d="M32.1,232.3c0.7,0,0.7-1,0-1C31.4,231.3,31.4,232.3,32.1,232.3L32.1,232.3z"/>
				</g>
			</g>
			<g>
				<g>
					<path fill="#D7E1F2" d="M50.3,219c0.7,0,0.7-1,0-1C49.7,218,49.7,219,50.3,219L50.3,219z"/>
				</g>
			</g>
			<g>
				<g>
					<path fill="#7A8AB3" d="M59.2,235.3c0.7,0,0.7-1,0-1C58.6,234.3,58.6,235.3,59.2,235.3L59.2,235.3z"/>
				</g>
			</g>
			<g>
				<g>
					<path fill="#7A8AB3" d="M51.8,240.2c0.7,0,0.7-1,0-1C51.2,239.2,51.2,240.2,51.8,240.2L51.8,240.2z"/>
				</g>
			</g>
			<g>
				<g>
					<path fill="#D7E1F2" d="M25.6,543.4c0.7,0,0.7-1,0-1C25,542.4,25,543.4,25.6,543.4L25.6,543.4z"/>
				</g>
			</g>
			<g>
				<g>
					<path fill="#D7E1F2" d="M64.6,546.4c0.7,0,0.7-1,0-1C64,545.4,64,546.4,64.6,546.4L64.6,546.4z"/>
				</g>
			</g>
			<g>
				<g>
					<path fill="#D7E1F2" d="M37,555.8c0.7,0,0.7-1,0-1C36.3,554.7,36.3,555.8,37,555.8L37,555.8z"/>
				</g>
			</g>
			<g>
				<g>
					<path fill="#D7E1F2" d="M74.5,554.3c0.7,0,0.7-1,0-1C73.9,553.3,73.9,554.3,74.5,554.3L74.5,554.3z"/>
				</g>
			</g>
			<g>
				<g>
					<path fill="#D7E1F2" d="M72.1,561.2c0.7,0,0.7-1,0-1C71.4,560.2,71.4,561.2,72.1,561.2L72.1,561.2z"/>
				</g>
			</g>
			<g>
				<g>
					<path fill="#D7E1F2" d="M13.8,559.2c0.7,0,0.7-1,0-1C13.1,558.2,13.1,559.2,13.8,559.2L13.8,559.2z"/>
				</g>
			</g>
			<g>
				<g>
					<path fill="#D7E1F2" d="M63.2,574.5c0.7,0,0.7-1,0-1C62.5,573.5,62.5,574.5,63.2,574.5L63.2,574.5z"/>
				</g>
			</g>
			<g>
				<g>
					<path fill="#7A8AB3" d="M74.5,554.3c0.7,0,0.7-1,0-1C73.9,553.3,73.9,554.3,74.5,554.3L74.5,554.3z"/>
				</g>
			</g>
			<g>
				<g>
					<path fill="#D7E1F2" d="M63.7,532.5c0.7,0,0.7-1,0-1C63,531.5,63,532.5,63.7,532.5L63.7,532.5z"/>
				</g>
			</g>
			<g>
				<g>
					<path fill="#D7E1F2" d="M752,505.5c1.3,0,1.3-2,0-2C750.7,503.5,750.7,505.5,752,505.5L752,505.5z"/>
				</g>
			</g>
			<g>
				<g>
					<path fill="#D7E1F2" d="M760.9,508c1.3,0,1.3-2,0-2C759.6,506,759.6,508,760.9,508L760.9,508z"/>
				</g>
			</g>
			<g>
				<g>
					<path fill="#7A8AB3" d="M702.3,575.5c1.3,0,1.3-2,0-2C701,573.5,701,575.5,702.3,575.5L702.3,575.5z"/>
				</g>
			</g>
			<g>
				<g>
					<path fill="#D7E1F2" d="M718.6,580c1.3,0,1.3-2,0-2C717.3,578,717.3,580,718.6,580L718.6,580z"/>
				</g>
			</g>
			<g>
				<g>
					<path fill="#D7E1F2" d="M712.2,568.1c1.3,0,1.3-2,0-2C710.9,566.1,710.9,568.1,712.2,568.1L712.2,568.1z"/>
				</g>
			</g>
			<g>
				<g>
					<path fill="#7A8AB3" d="M709.2,573.1c1.3,0,1.3-2,0-2C707.9,571,707.9,573.1,709.2,573.1L709.2,573.1z"/>
				</g>
			</g>
			<g>
				<g>
					<path fill="#D7E1F2" d="M695.9,544.9c1.3,0,1.3-2,0-2C694.6,542.9,694.6,544.9,695.9,544.9L695.9,544.9z"/>
				</g>
			</g>
			<g>
				<g>
					<path fill="#7A8AB3" d="M756.7,543c2,0,2-3,0-3C754.7,539.9,754.7,543,756.7,543L756.7,543z"/>
				</g>
			</g>
			<g>
				<g>
					<path fill="#D7E1F2" d="M777.7,503c0.7,0,0.7-1,0-1C777.1,502,777.1,503,777.7,503L777.7,503z"/>
				</g>
			</g>
			<g>
				<g>
					<path fill="#D7E1F2" d="M782.2,507.5c0.7,0,0.7-1,0-1C781.5,506.5,781.5,507.5,782.2,507.5L782.2,507.5z"/>
				</g>
			</g>
			<g>
				<g>
					<path fill="#D7E1F2" d="M771.3,514.4c0.7,0,0.7-1,0-1C770.6,513.4,770.6,514.4,771.3,514.4L771.3,514.4z"/>
				</g>
			</g>
			<g>
				<g>
					<path fill="#D7E1F2" d="M769.8,518.8c0.7,0,0.7-1,0-1C769.2,517.8,769.2,518.8,769.8,518.8L769.8,518.8z"/>
				</g>
			</g>
			<g>
				<g>
					<path fill="#D7E1F2" d="M711.7,546.4c0.7,0,0.7-1,0-1C711.1,545.4,711.1,546.4,711.7,546.4L711.7,546.4z"/>
				</g>
			</g>
			<g>
				<g>
					<path fill="#D7E1F2" d="M750.7,549.3c0.7,0,0.7-1,0-1C750.1,548.3,750.1,549.3,750.7,549.3L750.7,549.3z"/>
				</g>
			</g>
			<g>
				<g>
					<path fill="#D7E1F2" d="M723.1,558.7c0.7,0,0.7-1,0-1C722.4,557.7,722.4,558.7,723.1,558.7L723.1,558.7z"/>
				</g>
			</g>
			<g>
				<g>
					<path fill="#D7E1F2" d="M760.6,557.2c0.7,0,0.7-1,0-1C760,556.2,760,557.2,760.6,557.2L760.6,557.2z"/>
				</g>
			</g>
			<g>
				<g>
					<path fill="#D7E1F2" d="M758.1,564.2c0.7,0,0.7-1,0-1C757.5,563.2,757.5,564.2,758.1,564.2L758.1,564.2z"/>
				</g>
			</g>
			<g>
				<g>
					<path fill="#D7E1F2" d="M699.9,562.2c0.7,0,0.7-1,0-1C699.2,561.2,699.2,562.2,699.9,562.2L699.9,562.2z"/>
				</g>
			</g>
			<g>
				<g>
					<path fill="#D7E1F2" d="M749.2,577.5c0.7,0,0.7-1,0-1C748.6,576.5,748.6,577.5,749.2,577.5L749.2,577.5z"/>
				</g>
			</g>
			<g>
				<g>
					<path fill="#7A8AB3" d="M760.6,557.2c0.7,0,0.7-1,0-1C760,556.2,760,557.2,760.6,557.2L760.6,557.2z"/>
				</g>
			</g>
			<g>
				<g>
					<path fill="#D7E1F2" d="M749.7,535.5c0.7,0,0.7-1,0-1C749.1,534.5,749.1,535.5,749.7,535.5L749.7,535.5z"/>
				</g>
			</g>
			<g>
				<g>
					<path fill="#D7E1F2" d="M70.6,494c0.7,0,0.7-1,0-1C69.9,493,69.9,494,70.6,494L70.6,494z"/>
				</g>
			</g>
			<g>
				<g>
					<path fill="#D7E1F2" d="M155.5,492.5c0.7,0,0.7-1,0-1C154.9,491.5,154.9,492.5,155.5,492.5L155.5,492.5z"/>
				</g>
			</g>
			<g>
				<g>
					<path fill="#D7E1F2" d="M232,445.6c0.7,0,0.7-1,0-1C231.4,444.6,231.4,445.6,232,445.6L232,445.6z"/>
				</g>
			</g>
			<g>
				<g>
					<path fill="#424652" d="M297.2,401.2c0.7,0,0.7-1,0-1C296.6,400.2,296.6,401.2,297.2,401.2L297.2,401.2z"/>
				</g>
			</g>
			<g>
				<g>
					<path fill="#D7E1F2" d="M350.6,386.9c0.7,0,0.7-1,0-1C349.9,385.9,349.9,386.9,350.6,386.9L350.6,386.9z"/>
				</g>
			</g>
			<g>
				<g>
					<path fill="#424652" d="M342.7,402.2c0.7,0,0.7-1,0-1C342,401.2,342,402.2,342.7,402.2L342.7,402.2z"/>
				</g>
			</g>
			<g>
				<g>
					<path fill="#424652" d="M331.8,390.8c0.7,0,0.7-1,0-1C331.1,389.8,331.1,390.8,331.8,390.8L331.8,390.8z"/>
				</g>
			</g>
			<g>
				<g>
					<path fill="#D7E1F2" d="M360.4,394.3c0.7,0,0.7-1,0-1C359.8,393.3,359.8,394.3,360.4,394.3L360.4,394.3z"/>
				</g>
			</g>
			<g>
				<g>
					<path fill="#D7E1F2" d="M352.5,403.2c0.7,0,0.7-1,0-1C351.9,402.2,351.9,403.2,352.5,403.2L352.5,403.2z"/>
				</g>
			</g>
			<g>
				<g>
					<path fill="#D7E1F2" d="M358.6,409.2c-0.2,0.2-0.3,0.3-0.5,0.5c-0.5,0.5,0.3,1.2,0.7,0.7c0.2-0.2,0.3-0.3,0.5-0.5
						C359.8,409.5,359.1,408.8,358.6,409.2L358.6,409.2z"/>
				</g>
			</g>
			<g>
				<g>
					<path fill="#424652" d="M328.3,425.9c0.7,0,0.7-1,0-1C327.7,424.9,327.7,425.9,328.3,425.9L328.3,425.9z"/>
				</g>
			</g>
			<g>
				<g>
					<path fill="#D7E1F2" d="M352,452.1c0.7,0,0.7-1,0-1C351.4,451,351.4,452.1,352,452.1L352,452.1z"/>
				</g>
			</g>
			<g>
				<g>
					<path fill="#D7E1F2" d="M362.4,474.3c0.7,0,0.7-1,0-1C361.8,473.3,361.8,474.3,362.4,474.3L362.4,474.3z"/>
				</g>
			</g>
			<g>
				<g>
					<path fill="#D7E1F2" d="M302.2,487.1c0.7,0,0.7-1,0-1C301.5,486.1,301.5,487.1,302.2,487.1L302.2,487.1z"/>
				</g>
			</g>
			<g>
				<g>
					<path fill="#D7E1F2" d="M340.2,505.9c0.7,0,0.7-1,0-1C339.5,504.9,339.5,505.9,340.2,505.9L340.2,505.9z"/>
				</g>
			</g>
			<g>
				<g>
					<path fill="#D7E1F2" d="M441.4,413c0.7,0,0.7-1,0-1C440.8,412,440.8,413,441.4,413L441.4,413z"/>
				</g>
			</g>
			<g>
				<g>
					<path fill="#D7E1F2" d="M415.5,565.4c-0.2-0.2-0.3-0.3-0.5-0.5c-0.5-0.5-1.2,0.3-0.7,0.7c0.2,0.2,0.3,0.3,0.5,0.5
						C415.2,566.6,415.9,565.9,415.5,565.4L415.5,565.4z"/>
				</g>
			</g>
			<g>
				<g>
					<path fill="#D7E1F2" d="M435.4,555.4c0.7,0,0.7-1,0-1C434.7,554.4,434.7,555.4,435.4,555.4L435.4,555.4z"/>
				</g>
			</g>
			<g>
				<g>
					<path fill="#D7E1F2" d="M363.3,553.9c1.3,0,1.3-2,0-2C362,551.9,362,553.9,363.3,553.9L363.3,553.9z"/>
				</g>
			</g>
			<g>
				<g>
					<path fill="#D7E1F2" d="M394.5,363.7c1.3,0,1.3-2,0-2C393.2,361.7,393.2,363.7,394.5,363.7L394.5,363.7z"/>
				</g>
			</g>
			<g>
				<g>
					<path fill="#D7E1F2" d="M390.1,381c1.3,0,1.3-2,0-2C388.8,378.9,388.8,381,390.1,381L390.1,381z"/>
				</g>
			</g>
			<g>
				<g>
					<path fill="#D7E1F2" d="M466.1,369.6c1.3,0,1.3-2,0-2C464.8,367.6,464.8,369.6,466.1,369.6L466.1,369.6z"/>
				</g>
			</g>
			<g>
				<g>
					<path fill="#D7E1F2" d="M483.4,316.3c1.3,0,1.3-2,0-2C482.1,314.2,482.1,316.3,483.4,316.3L483.4,316.3z"/>
				</g>
			</g>
			<g>
				<g>
					<path fill="#D7E1F2" d="M535.7,327.6c1.3,0,1.3-2,0-2C534.4,325.6,534.4,327.6,535.7,327.6L535.7,327.6z"/>
				</g>
			</g>
			<g>
				<g>
					<path fill="#D7E1F2" d="M545.6,358.2c1.3,0,1.3-2,0-2C544.3,356.2,544.3,358.2,545.6,358.2L545.6,358.2z"/>
				</g>
			</g>
			<g>
				<g>
					<path fill="#D7E1F2" d="M636,344.9c1.3,0,1.3-2,0-2C634.7,342.9,634.7,344.9,636,344.9L636,344.9z"/>
				</g>
			</g>
			<g>
				<g>
					<path fill="#7A8AB3" d="M656.7,281.7c1.3,0,1.3-2,0-2C655.4,279.7,655.4,281.7,656.7,281.7L656.7,281.7z"/>
				</g>
			</g>
			<g>
				<g>
					<path fill="#7A8AB3" d="M616.7,237.3c1.3,0,1.3-2,0-2C615.4,235.2,615.4,237.3,616.7,237.3L616.7,237.3z"/>
				</g>
			</g>
			<g>
				<g>
					<path fill="#D7E1F2" d="M586.1,256.5c2,0,2-3,0-3C584.2,253.5,584.2,256.5,586.1,256.5L586.1,256.5z"/>
				</g>
			</g>
			<g>
				<g>
					<path fill="#D7E1F2" d="M532.3,436.7c0.7,0,0.7-1,0-1C531.6,435.7,531.6,436.7,532.3,436.7L532.3,436.7z"/>
				</g>
			</g>
			<g>
				<g>
					<path fill="#D7E1F2" d="M573.3,423.9c0.7,0,0.7-1,0-1C572.6,422.9,572.6,423.9,573.3,423.9L573.3,423.9z"/>
				</g>
			</g>
			<g>
				<g>
					<path fill="#D7E1F2" d="M646.8,420.9c0.7,0,0.7-1,0-1C646.2,419.9,646.2,420.9,646.8,420.9L646.8,420.9z"/>
				</g>
			</g>
			<g>
				<g>
					<path fill="#D7E1F2" d="M649.8,468.3c0.7,0,0.7-1,0-1C649.2,467.3,649.2,468.3,649.8,468.3L649.8,468.3z"/>
				</g>
			</g>
			<g>
				<g>
					<path fill="#D7E1F2" d="M616.7,412.1c0.7,0,0.7-1,0-1C616.1,411,616.1,412.1,616.7,412.1L616.7,412.1z"/>
				</g>
			</g>
			<g>
				<g>
					<path fill="#D7E1F2" d="M698.7,382.9c0.7,0,0.7-1,0-1C698,381.9,698,382.9,698.7,382.9L698.7,382.9z"/>
				</g>
			</g>
			<g>
				<g>
					<path fill="#D7E1F2" d="M396.8,556.9c2.6,0,2.6-4,0-4C394.2,552.9,394.2,556.9,396.8,556.9L396.8,556.9z"/>
				</g>
			</g>
			<g>
				<g>
					<path fill="#D7E1F2" d="M289.4,257.8c2.6,0,2.6-4,0-4C286.8,253.8,286.8,257.8,289.4,257.8L289.4,257.8z"/>
				</g>
			</g>
			<g>
				<g>
					<path fill="#D7E1F2" d="M557.2,236.3c2.6,0,2.6-4,0-4C554.6,232.2,554.6,236.3,557.2,236.3L557.2,236.3z"/>
				</g>
			</g>
			<g>
				<g>
					<path fill="#D7E1F2" d="M383.3,259.3c1.3,0,1.3-2,0-2C382,257.3,382,259.3,383.3,259.3L383.3,259.3z"/>
				</g>
			</g>
			<g>
				<g>
					<path fill="#D7E1F2" d="M378.7,507.2c1.3,0,1.3-2,0-2C377.4,505.2,377.4,507.2,378.7,507.2L378.7,507.2z"/>
				</g>
			</g>
			<g>
				<g>
					<path fill="#D7E1F2" d="M435.8,537c1.3,0,1.3-2,0-2C434.5,535,434.5,537,435.8,537L435.8,537z"/>
				</g>
			</g>
			<g>
				<g>
					<path fill="#D7E1F2" d="M248.7,228.2c1.3,0,1.3-2,0-2C247.4,226.2,247.4,228.2,248.7,228.2L248.7,228.2z"/>
				</g>
			</g>
			<g>
				<g>
					<path fill="#D7E1F2" d="M218.6,253.3c1.3,0,1.3-2,0-2C217.3,251.3,217.3,253.3,218.6,253.3L218.6,253.3z"/>
				</g>
			</g>
			<g>
				<g>
					<path fill="#D7E1F2" d="M421.4,508.2c0.7,0,0.7-1,0-1C420.8,507.2,420.8,508.2,421.4,508.2L421.4,508.2z"/>
				</g>
			</g>
			<g>
				<g>
					<path fill="#D7E1F2" d="M397.8,506.7c0.7,0,0.7-1,0-1C397.2,505.7,397.2,506.7,397.8,506.7L397.8,506.7z"/>
				</g>
			</g>
			<g>
				<g>
					<path fill="#D7E1F2" d="M417.2,513.8c0.7,0,0.7-1,0-1C416.5,512.7,416.5,513.8,417.2,513.8L417.2,513.8z"/>
				</g>
			</g>
			<g>
				<g>
					<path fill="#D7E1F2" d="M416.7,536c0.7,0,0.7-1,0-1C416,535,416,536,416.7,536L416.7,536z"/>
				</g>
			</g>
			<g>
				<g>
					<path fill="#D7E1F2" d="M413,544.5c0.7,0,0.7-1,0-1C412.4,543.4,412.4,544.5,413,544.5L413,544.5z"/>
				</g>
			</g>
			<g>
				<g>
					<path fill="#D7E1F2" d="M430.4,263.2c0.7,0,0.7-1,0-1C429.8,262.1,429.8,263.2,430.4,263.2L430.4,263.2z"/>
				</g>
			</g>
			<g>
				<g>
					<path fill="#D7E1F2" d="M462.8,300c0.7,0,0.7-1,0-1C462.1,299,462.1,300,462.8,300L462.8,300z"/>
				</g>
			</g>
			<g>
				<g>
					<path fill="#D7E1F2" d="M437.2,370c0.7,0,0.7-1,0-1C436.5,369,436.5,370,437.2,370L437.2,370z"/>
				</g>
			</g>
			<g>
				<g>
					<path fill="#D7E1F2" d="M520.7,391.1c0.7,0,0.7-1,0-1C520.1,390.1,520,391.1,520.7,391.1L520.7,391.1z"/>
				</g>
			</g>
			<g>
				<g>
					<path fill="#D7E1F2" d="M518.4,422.7c0.7,0,0.7-1,0-1C517.8,421.7,517.8,422.7,518.4,422.7L518.4,422.7z"/>
				</g>
			</g>
			<g>
				<g>
					<path fill="#D7E1F2" d="M509.4,421.2c0.7,0,0.7-1,0-1C508.8,420.2,508.8,421.2,509.4,421.2L509.4,421.2z"/>
				</g>
			</g>
			<g>
				<g>
					<path fill="#D7E1F2" d="M508.7,408.4c0.7,0,0.7-1,0-1C508,407.4,508,408.4,508.7,408.4L508.7,408.4z"/>
				</g>
			</g>
			<g>
				<g>
					<path fill="#D7E1F2" d="M520.7,407.6c0.7,0,0.7-1,0-1C520.1,406.6,520,407.6,520.7,407.6L520.7,407.6z"/>
				</g>
			</g>
			<g>
				<g>
					<path fill="#D7E1F2" d="M336.6,550.9c0.7,0,0.7-1,0-1C335.9,549.9,335.9,550.9,336.6,550.9L336.6,550.9z"/>
				</g>
			</g>
			<g>
				<g>
					<path fill="#D7E1F2" d="M678.7,493.4c0.7,0,0.7-1,0-1C678.1,492.4,678.1,493.4,678.7,493.4L678.7,493.4z"/>
				</g>
			</g>
			<g>
				<g>
					<path fill="#D7E1F2" d="M337.9,513c0.7,0,0.7-1,0-1C337.2,512,337.2,513,337.9,513L337.9,513z"/>
				</g>
			</g>
			<g>
				<g>
					<path fill="#D7E1F2" d="M421.4,522.8c0.7,0,0.7-1,0-1C420.7,521.7,420.7,522.8,421.4,522.8L421.4,522.8z"/>
				</g>
			</g>
		</g>
	</g>
</g>
</svg>
