<?xml version="1.0" encoding="utf-8"?>
<!-- Generator: Adobe Illustrator 23.0.6, SVG Export Plug-In . SVG Version: 6.00 Build 0)  -->
<svg version="1.0" id="Layer_1" xmlns="http://www.w3.org/2000/svg" xmlns:xlink="http://www.w3.org/1999/xlink" x="0px" y="0px"
	 width="800px" height="600px" viewBox="0 0 800 600" enable-background="new 0 0 800 600" xml:space="preserve">
<g id="bounds">
	<rect x="-115.5" y="567.5" fill="none" width="1094" height="125"/>
	<rect x="-149.5" y="-643.5" fill="none" width="149" height="1211"/>
	<rect x="799.5" y="-643.5" fill="none" width="183" height="1211"/>
	<rect x="-2" y="-603" fill="none" width="799" height="31"/>
</g>
<g>
	<g>
		<rect x="0.9" y="0.8" fill="#DADDE2" width="798.1" height="598.6"/>
		<rect x="0.9" y="0.8" fill="#E3E7EB" width="798.1" height="55.6"/>
		<g>
			<rect x="0.9" y="541.3" fill="#8E979B" width="798.1" height="58.1"/>
			<path fill="#9DA8AC" d="M220.8,553.2H131c-1.7,0-3-1.3-3-3v-8.9h95.8v8.9C223.8,551.8,222.4,553.2,220.8,553.2z"/>
			<path fill="#9DA8AC" d="M668.9,553.2h-89.8c-1.7,0-3-1.3-3-3v-8.9h95.8v8.9C671.9,551.8,670.5,553.2,668.9,553.2z"/>
			<rect x="0.9" y="541.3" fill="#9DA8AC" width="798.1" height="4.3"/>
		</g>
		<line fill="none" stroke="#CDD2DA" stroke-width="1.9953" stroke-miterlimit="10" x1="326.3" y1="199.5" x2="326.3" y2="56.5"/>
		<line fill="none" stroke="#CDD2DA" stroke-width="1.9953" stroke-miterlimit="10" x1="473.6" y1="199.5" x2="473.6" y2="56.5"/>
		<line fill="none" stroke="#CDD2DA" stroke-width="1.9953" stroke-miterlimit="10" x1="0.9" y1="158.8" x2="193.7" y2="158.8"/>
		<line fill="none" stroke="#CDD2DA" stroke-width="1.9953" stroke-miterlimit="10" x1="64.4" y1="56.5" x2="64.4" y2="159.1"/>
		<line fill="none" stroke="#CDD2DA" stroke-width="1.9953" stroke-miterlimit="10" x1="606.2" y1="158.8" x2="799" y2="158.8"/>
		<g>
			<line fill="none" stroke="#CDD2DA" stroke-width="1.9953" stroke-miterlimit="10" x1="735.4" y1="56.5" x2="735.4" y2="159.1"/>
		</g>
		<line fill="none" stroke="#838F93" stroke-width="1.9953" stroke-miterlimit="10" x1="0.9" y1="581" x2="799" y2="581"/>
		<line fill="none" stroke="#909EA2" stroke-width="1.9953" stroke-miterlimit="10" x1="259.4" y1="545.6" x2="259.4" y2="541.3"/>
		<line fill="none" stroke="#838F93" stroke-width="1.9953" stroke-miterlimit="10" x1="259.4" y1="581" x2="259.4" y2="545.6"/>
		<line fill="none" stroke="#909EA2" stroke-width="1.9953" stroke-miterlimit="10" x1="540.4" y1="545.6" x2="540.4" y2="541.3"/>
		<line fill="none" stroke="#838F93" stroke-width="1.9953" stroke-miterlimit="10" x1="540.4" y1="581" x2="540.4" y2="545.6"/>
		<g>
			<path fill="#838F93" d="M535.8,577h-1.6c-0.6,0-1-0.4-1-1v-4.9c0-0.6,0.4-1,1-1h1.6c0.6,0,1,0.4,1,1v4.9
				C536.8,576.6,536.3,577,535.8,577z"/>
			<path fill="#838F93" d="M546.7,577h-1.6c-0.6,0-1-0.4-1-1v-4.9c0-0.6,0.4-1,1-1h1.6c0.6,0,1,0.4,1,1v4.9
				C547.7,576.6,547.3,577,546.7,577z"/>
		</g>
		<g>
			<path fill="#838F93" d="M254.8,577h-1.6c-0.6,0-1-0.4-1-1v-4.9c0-0.6,0.4-1,1-1h1.6c0.6,0,1,0.4,1,1v4.9
				C255.8,576.6,255.3,577,254.8,577z"/>
			<path fill="#838F93" d="M265.7,577h-1.6c-0.6,0-1-0.4-1-1v-4.9c0-0.6,0.4-1,1-1h1.6c0.6,0,1,0.4,1,1v4.9
				C266.7,576.6,266.2,577,265.7,577z"/>
		</g>
	</g>
	<g>
		<g>
			<g>
				<g>
					<g>
						<g>
							<g>
								<rect x="128" y="66.4" fill="#EBF0F3" width="95.8" height="474.9"/>
								<rect x="128" y="66.4" fill="#EDF0F4" width="95.8" height="235.4"/>
								<rect x="128" y="56.5" fill="#FFFFFF" width="95.8" height="30.9"/>
								<rect x="128" y="531.3" fill="#FFFFFF" width="95.8" height="10"/>
							</g>
							<path fill="#B7BBC1" d="M213.8,283.6h-25.7c-1.1,0-2-0.9-2-2v-37.9c0-1.1,0.9-2,2-2h25.7c1.1,0,2,0.9,2,2v37.9
								C215.8,282.7,214.9,283.6,213.8,283.6z"/>
							<circle fill="#BEC2C8" cx="200.9" cy="254.8" r="7.5"/>
							<circle fill="#7B7E81" cx="200.9" cy="254.8" r="5.3"/>
							<circle fill="#6E7073" cx="200.9" cy="254.8" r="3.2"/>
							<circle fill="#CCD1D9" cx="197.8" cy="253.8" r="1.3"/>
							<circle fill="#CCD1D9" cx="200" cy="251.6" r="0.9"/>
							<g>
								<path fill="#CCD1D9" d="M192.4,267.3L192.4,267.3c1.6,0,2.8,1.3,2.8,2.8v7.7c0,1.6-1.3,2.8-2.8,2.8l0,0
									c-1.6,0-2.8-1.3-2.8-2.8v-7.7C189.6,268.6,190.8,267.3,192.4,267.3z"/>
								<path fill="#DFE5EB" d="M192.4,279.2c-0.7,0-1.3-0.6-1.3-1.3v-7.7c0-0.7,0.6-1.3,1.3-1.3c0.7,0,1.3,0.6,1.3,1.3v7.7
									C193.7,278.6,193.1,279.2,192.4,279.2z"/>
								<path fill="#CCD1D9" d="M201,267.3L201,267.3c1.6,0,2.8,1.3,2.8,2.8v7.7c0,1.6-1.3,2.8-2.8,2.8h0c-1.6,0-2.8-1.3-2.8-2.8
									v-7.7C198.2,268.6,199.4,267.3,201,267.3z"/>
								<path fill="#DFE5EB" d="M201,279.2c-0.7,0-1.3-0.6-1.3-1.3v-7.7c0-0.7,0.6-1.3,1.3-1.3c0.7,0,1.3,0.6,1.3,1.3v7.7
									C202.3,278.6,201.7,279.2,201,279.2z"/>
								<path fill="#CCD1D9" d="M209.6,267.3L209.6,267.3c1.6,0,2.8,1.3,2.8,2.8v7.7c0,1.6-1.3,2.8-2.8,2.8h0
									c-1.6,0-2.8-1.3-2.8-2.8v-7.7C206.8,268.6,208.1,267.3,209.6,267.3z"/>
								<path fill="#DFE5EB" d="M209.6,279.2c-0.7,0-1.3-0.6-1.3-1.3v-7.7c0-0.7,0.6-1.3,1.3-1.3c0.7,0,1.3,0.6,1.3,1.3v7.7
									C210.9,278.6,210.4,279.2,209.6,279.2z"/>
							</g>
							<rect x="128" y="291.9" fill="#DCE3EA" width="95.8" height="28.6"/>

								<rect x="166.6" y="263.1" transform="matrix(-1.836970e-16 1 -1 -1.836970e-16 482.0769 130.2893)" fill="#6E7073" width="18.6" height="86.1"/>
							<g>
								<path fill="#A2A5AB" d="M133.4,316.9L133.4,316.9c-0.5,0-0.9-0.4-0.9-0.9v-19.7c0-0.5,0.4-0.9,0.9-0.9l0,0
									c0.5,0,0.9,0.4,0.9,0.9V316C134.3,316.5,133.9,316.9,133.4,316.9z"/>
								<path fill="#A2A5AB" d="M138.4,316.9L138.4,316.9c-0.5,0-0.9-0.4-0.9-0.9v-19.7c0-0.5,0.4-0.9,0.9-0.9l0,0
									c0.5,0,0.9,0.4,0.9,0.9V316C139.3,316.5,138.9,316.9,138.4,316.9z"/>
								<path fill="#A2A5AB" d="M143.4,316.9L143.4,316.9c-0.5,0-0.9-0.4-0.9-0.9v-19.7c0-0.5,0.4-0.9,0.9-0.9l0,0
									c0.5,0,0.9,0.4,0.9,0.9V316C144.3,316.5,143.9,316.9,143.4,316.9z"/>
								<path fill="#A2A5AB" d="M148.4,316.9L148.4,316.9c-0.5,0-0.9-0.4-0.9-0.9v-19.7c0-0.5,0.4-0.9,0.9-0.9l0,0
									c0.5,0,0.9,0.4,0.9,0.9V316C149.3,316.5,148.9,316.9,148.4,316.9z"/>
								<path fill="#A2A5AB" d="M153.4,316.9L153.4,316.9c-0.5,0-0.9-0.4-0.9-0.9v-19.7c0-0.5,0.4-0.9,0.9-0.9l0,0
									c0.5,0,0.9,0.4,0.9,0.9V316C154.3,316.5,153.9,316.9,153.4,316.9z"/>
								<path fill="#A2A5AB" d="M158.4,316.9L158.4,316.9c-0.5,0-0.9-0.4-0.9-0.9v-19.7c0-0.5,0.4-0.9,0.9-0.9h0
									c0.5,0,0.9,0.4,0.9,0.9V316C159.3,316.5,158.9,316.9,158.4,316.9z"/>
								<path fill="#A2A5AB" d="M163.4,316.9L163.4,316.9c-0.5,0-0.9-0.4-0.9-0.9v-19.7c0-0.5,0.4-0.9,0.9-0.9l0,0
									c0.5,0,0.9,0.4,0.9,0.9V316C164.3,316.5,163.9,316.9,163.4,316.9z"/>
								<path fill="#A2A5AB" d="M168.4,316.9L168.4,316.9c-0.5,0-0.9-0.4-0.9-0.9v-19.7c0-0.5,0.4-0.9,0.9-0.9h0
									c0.5,0,0.9,0.4,0.9,0.9V316C169.3,316.5,168.9,316.9,168.4,316.9z"/>
								<path fill="#A2A5AB" d="M173.4,316.9L173.4,316.9c-0.5,0-0.9-0.4-0.9-0.9v-19.7c0-0.5,0.4-0.9,0.9-0.9l0,0
									c0.5,0,0.9,0.4,0.9,0.9V316C174.3,316.5,173.9,316.9,173.4,316.9z"/>
								<path fill="#A2A5AB" d="M178.4,316.9L178.4,316.9c-0.5,0-0.9-0.4-0.9-0.9v-19.7c0-0.5,0.4-0.9,0.9-0.9h0
									c0.5,0,0.9,0.4,0.9,0.9V316C179.3,316.5,178.9,316.9,178.4,316.9z"/>
								<path fill="#A2A5AB" d="M183.4,316.9L183.4,316.9c-0.5,0-0.9-0.4-0.9-0.9v-19.7c0-0.5,0.4-0.9,0.9-0.9l0,0
									c0.5,0,0.9,0.4,0.9,0.9V316C184.3,316.5,183.9,316.9,183.4,316.9z"/>
								<path fill="#A2A5AB" d="M188.4,316.9L188.4,316.9c-0.5,0-0.9-0.4-0.9-0.9v-19.7c0-0.5,0.4-0.9,0.9-0.9l0,0
									c0.5,0,0.9,0.4,0.9,0.9V316C189.3,316.5,188.9,316.9,188.4,316.9z"/>
								<path fill="#A2A5AB" d="M193.4,316.9L193.4,316.9c-0.5,0-0.9-0.4-0.9-0.9v-19.7c0-0.5,0.4-0.9,0.9-0.9l0,0
									c0.5,0,0.9,0.4,0.9,0.9V316C194.3,316.5,193.9,316.9,193.4,316.9z"/>
								<path fill="#A2A5AB" d="M198.4,316.9L198.4,316.9c-0.5,0-0.9-0.4-0.9-0.9v-19.7c0-0.5,0.4-0.9,0.9-0.9l0,0
									c0.5,0,0.9,0.4,0.9,0.9V316C199.3,316.5,198.9,316.9,198.4,316.9z"/>
								<path fill="#A2A5AB" d="M203.4,316.9L203.4,316.9c-0.5,0-0.9-0.4-0.9-0.9v-19.7c0-0.5,0.4-0.9,0.9-0.9l0,0
									c0.5,0,0.9,0.4,0.9,0.9V316C204.3,316.5,203.9,316.9,203.4,316.9z"/>
								<path fill="#A2A5AB" d="M208.4,316.9L208.4,316.9c-0.5,0-0.9-0.4-0.9-0.9v-19.7c0-0.5,0.4-0.9,0.9-0.9l0,0
									c0.5,0,0.9,0.4,0.9,0.9V316C209.3,316.5,208.9,316.9,208.4,316.9z"/>
								<path fill="#A2A5AB" d="M213.4,316.9L213.4,316.9c-0.5,0-0.9-0.4-0.9-0.9v-19.7c0-0.5,0.4-0.9,0.9-0.9l0,0
									c0.5,0,0.9,0.4,0.9,0.9V316C214.3,316.5,213.9,316.9,213.4,316.9z"/>
								<path fill="#A2A5AB" d="M218.4,316.9L218.4,316.9c-0.5,0-0.9-0.4-0.9-0.9v-19.7c0-0.5,0.4-0.9,0.9-0.9l0,0
									c0.5,0,0.9,0.4,0.9,0.9V316C219.3,316.5,218.9,316.9,218.4,316.9z"/>
							</g>
						</g>
						<rect x="128" y="87.4" fill="#DEE4EC" width="95.8" height="4.1"/>
						<rect x="128" y="91.5" fill="#E3E9F1" width="95.8" height="5.2"/>
						<path fill="#B7BBC1" d="M212.4,341h-3.1c-0.6,0-1-0.4-1-1v-14.3c0-0.6,0.4-1,1-1h3.1c0.6,0,1,0.4,1,1V340
							C213.4,340.6,213,341,212.4,341z"/>
						<g>
							<path fill="#FFFFFF" d="M135.2,122.4L135.2,122.4c-0.9,0-1.7-0.8-1.7-1.7v-15.1c0-0.9,0.8-1.7,1.7-1.7l0,0
								c0.9,0,1.7,0.8,1.7,1.7v15.1C136.9,121.7,136.1,122.4,135.2,122.4z"/>
							<circle fill="#FFFFFF" cx="135.2" cy="127" r="1.7"/>
						</g>
						<g>
							<circle fill="#FFFFFF" cx="135.2" cy="327.6" r="1.7"/>
						</g>
						<g>
							<circle fill="#FFFFFF" cx="134.5" cy="332.3" r="1"/>
						</g>
						<g>
							<circle fill="#FFFFFF" cx="146.6" cy="327.1" r="1"/>
						</g>
					</g>
					<g>
						<g>
							<g>
								<rect x="576.1" y="66.4" fill="#EBF0F3" width="95.8" height="474.9"/>
								<rect x="576.1" y="66.4" fill="#EDF0F4" width="95.8" height="235.4"/>
								<rect x="576.1" y="56.5" fill="#FFFFFF" width="95.8" height="30.9"/>
								<rect x="576.1" y="531.3" fill="#FFFFFF" width="95.8" height="10"/>
							</g>
							<path fill="#B7BBC1" d="M661.9,283.6h-25.7c-1.1,0-2-0.9-2-2v-37.9c0-1.1,0.9-2,2-2h25.7c1.1,0,2,0.9,2,2v37.9
								C663.9,282.7,663,283.6,661.9,283.6z"/>
							<circle fill="#BEC2C8" cx="649" cy="254.8" r="7.5"/>
							<circle fill="#7B7E81" cx="649" cy="254.8" r="5.3"/>
							<circle fill="#6E7073" cx="649" cy="254.8" r="3.2"/>
							<circle fill="#CCD1D9" cx="645.9" cy="253.8" r="1.3"/>
							<circle fill="#CCD1D9" cx="648.1" cy="251.6" r="0.9"/>
							<g>
								<path fill="#CCD1D9" d="M640.5,267.3L640.5,267.3c1.6,0,2.8,1.3,2.8,2.8v7.7c0,1.6-1.3,2.8-2.8,2.8l0,0
									c-1.6,0-2.8-1.3-2.8-2.8v-7.7C637.6,268.6,638.9,267.3,640.5,267.3z"/>
								<path fill="#DFE5EB" d="M640.5,279.2c-0.7,0-1.3-0.6-1.3-1.3v-7.7c0-0.7,0.6-1.3,1.3-1.3c0.7,0,1.3,0.6,1.3,1.3v7.7
									C641.8,278.6,641.2,279.2,640.5,279.2z"/>
								<path fill="#CCD1D9" d="M649.1,267.3L649.1,267.3c1.6,0,2.8,1.3,2.8,2.8v7.7c0,1.6-1.3,2.8-2.8,2.8l0,0
									c-1.6,0-2.8-1.3-2.8-2.8v-7.7C646.3,268.6,647.5,267.3,649.1,267.3z"/>
								<path fill="#DFE5EB" d="M649.1,279.2c-0.7,0-1.3-0.6-1.3-1.3v-7.7c0-0.7,0.6-1.3,1.3-1.3s1.3,0.6,1.3,1.3v7.7
									C650.4,278.6,649.8,279.2,649.1,279.2z"/>
								<path fill="#CCD1D9" d="M657.7,267.3L657.7,267.3c1.6,0,2.8,1.3,2.8,2.8v7.7c0,1.6-1.3,2.8-2.8,2.8l0,0
									c-1.6,0-2.8-1.3-2.8-2.8v-7.7C654.9,268.6,656.2,267.3,657.7,267.3z"/>
								<path fill="#DFE5EB" d="M657.7,279.2c-0.7,0-1.3-0.6-1.3-1.3v-7.7c0-0.7,0.6-1.3,1.3-1.3s1.3,0.6,1.3,1.3v7.7
									C659,278.6,658.4,279.2,657.7,279.2z"/>
							</g>
							<rect x="576.1" y="291.9" fill="#DCE3EA" width="95.8" height="28.6"/>

								<rect x="614.7" y="263.1" transform="matrix(-1.836970e-16 1 -1 -1.836970e-16 930.1685 -317.8023)" fill="#6E7073" width="18.6" height="86.1"/>
							<g>
								<path fill="#A2A5AB" d="M581.5,316.9L581.5,316.9c-0.5,0-0.9-0.4-0.9-0.9v-19.7c0-0.5,0.4-0.9,0.9-0.9l0,0
									c0.5,0,0.9,0.4,0.9,0.9V316C582.4,316.5,582,316.9,581.5,316.9z"/>
								<path fill="#A2A5AB" d="M586.5,316.9L586.5,316.9c-0.5,0-0.9-0.4-0.9-0.9v-19.7c0-0.5,0.4-0.9,0.9-0.9l0,0
									c0.5,0,0.9,0.4,0.9,0.9V316C587.4,316.5,587,316.9,586.5,316.9z"/>
								<path fill="#A2A5AB" d="M591.5,316.9L591.5,316.9c-0.5,0-0.9-0.4-0.9-0.9v-19.7c0-0.5,0.4-0.9,0.9-0.9l0,0
									c0.5,0,0.9,0.4,0.9,0.9V316C592.4,316.5,592,316.9,591.5,316.9z"/>
								<path fill="#A2A5AB" d="M596.5,316.9L596.5,316.9c-0.5,0-0.9-0.4-0.9-0.9v-19.7c0-0.5,0.4-0.9,0.9-0.9l0,0
									c0.5,0,0.9,0.4,0.9,0.9V316C597.4,316.5,597,316.9,596.5,316.9z"/>
								<path fill="#A2A5AB" d="M601.5,316.9L601.5,316.9c-0.5,0-0.9-0.4-0.9-0.9v-19.7c0-0.5,0.4-0.9,0.9-0.9l0,0
									c0.5,0,0.9,0.4,0.9,0.9V316C602.4,316.5,602,316.9,601.5,316.9z"/>
								<path fill="#A2A5AB" d="M606.5,316.9L606.5,316.9c-0.5,0-0.9-0.4-0.9-0.9v-19.7c0-0.5,0.4-0.9,0.9-0.9l0,0
									c0.5,0,0.9,0.4,0.9,0.9V316C607.4,316.5,607,316.9,606.5,316.9z"/>
								<path fill="#A2A5AB" d="M611.5,316.9L611.5,316.9c-0.5,0-0.9-0.4-0.9-0.9v-19.7c0-0.5,0.4-0.9,0.9-0.9l0,0
									c0.5,0,0.9,0.4,0.9,0.9V316C612.4,316.5,612,316.9,611.5,316.9z"/>
								<path fill="#A2A5AB" d="M616.5,316.9L616.5,316.9c-0.5,0-0.9-0.4-0.9-0.9v-19.7c0-0.5,0.4-0.9,0.9-0.9h0
									c0.5,0,0.9,0.4,0.9,0.9V316C617.4,316.5,617,316.9,616.5,316.9z"/>
								<path fill="#A2A5AB" d="M621.5,316.9L621.5,316.9c-0.5,0-0.9-0.4-0.9-0.9v-19.7c0-0.5,0.4-0.9,0.9-0.9l0,0
									c0.5,0,0.9,0.4,0.9,0.9V316C622.4,316.5,622,316.9,621.5,316.9z"/>
								<path fill="#A2A5AB" d="M626.5,316.9L626.5,316.9c-0.5,0-0.9-0.4-0.9-0.9v-19.7c0-0.5,0.4-0.9,0.9-0.9l0,0
									c0.5,0,0.9,0.4,0.9,0.9V316C627.4,316.5,627,316.9,626.5,316.9z"/>
								<path fill="#A2A5AB" d="M631.5,316.9L631.5,316.9c-0.5,0-0.9-0.4-0.9-0.9v-19.7c0-0.5,0.4-0.9,0.9-0.9l0,0
									c0.5,0,0.9,0.4,0.9,0.9V316C632.4,316.5,632,316.9,631.5,316.9z"/>
								<path fill="#A2A5AB" d="M636.5,316.9L636.5,316.9c-0.5,0-0.9-0.4-0.9-0.9v-19.7c0-0.5,0.4-0.9,0.9-0.9l0,0
									c0.5,0,0.9,0.4,0.9,0.9V316C637.4,316.5,637,316.9,636.5,316.9z"/>
								<path fill="#A2A5AB" d="M641.5,316.9L641.5,316.9c-0.5,0-0.9-0.4-0.9-0.9v-19.7c0-0.5,0.4-0.9,0.9-0.9l0,0
									c0.5,0,0.9,0.4,0.9,0.9V316C642.4,316.5,642,316.9,641.5,316.9z"/>
								<path fill="#A2A5AB" d="M646.5,316.9L646.5,316.9c-0.5,0-0.9-0.4-0.9-0.9v-19.7c0-0.5,0.4-0.9,0.9-0.9l0,0
									c0.5,0,0.9,0.4,0.9,0.9V316C647.4,316.5,647,316.9,646.5,316.9z"/>
								<path fill="#A2A5AB" d="M651.5,316.9L651.5,316.9c-0.5,0-0.9-0.4-0.9-0.9v-19.7c0-0.5,0.4-0.9,0.9-0.9l0,0
									c0.5,0,0.9,0.4,0.9,0.9V316C652.4,316.5,652,316.9,651.5,316.9z"/>
								<path fill="#A2A5AB" d="M656.5,316.9L656.5,316.9c-0.5,0-0.9-0.4-0.9-0.9v-19.7c0-0.5,0.4-0.9,0.9-0.9l0,0
									c0.5,0,0.9,0.4,0.9,0.9V316C657.4,316.5,657,316.9,656.5,316.9z"/>
								<path fill="#A2A5AB" d="M661.5,316.9L661.5,316.9c-0.5,0-0.9-0.4-0.9-0.9v-19.7c0-0.5,0.4-0.9,0.9-0.9l0,0
									c0.5,0,0.9,0.4,0.9,0.9V316C662.4,316.5,662,316.9,661.5,316.9z"/>
								<path fill="#A2A5AB" d="M666.5,316.9L666.5,316.9c-0.5,0-0.9-0.4-0.9-0.9v-19.7c0-0.5,0.4-0.9,0.9-0.9l0,0
									c0.5,0,0.9,0.4,0.9,0.9V316C667.4,316.5,667,316.9,666.5,316.9z"/>
							</g>
						</g>
						<rect x="576.1" y="87.4" fill="#DEE4EC" width="95.8" height="4.1"/>
						<rect x="576.1" y="91.5" fill="#E3E9F1" width="95.8" height="5.2"/>
						<path fill="#B7BBC1" d="M660.5,341h-3.1c-0.6,0-1-0.4-1-1v-14.3c0-0.6,0.4-1,1-1h3.1c0.6,0,1,0.4,1,1V340
							C661.5,340.6,661.1,341,660.5,341z"/>
						<g>
							<path fill="#FFFFFF" d="M583.3,122.4L583.3,122.4c-0.9,0-1.7-0.8-1.7-1.7v-15.1c0-0.9,0.8-1.7,1.7-1.7l0,0
								c0.9,0,1.7,0.8,1.7,1.7v15.1C585,121.7,584.2,122.4,583.3,122.4z"/>
							<circle fill="#FFFFFF" cx="583.3" cy="127" r="1.7"/>
						</g>
						<g>
							<circle fill="#FFFFFF" cx="583.3" cy="327.6" r="1.7"/>
						</g>
						<g>
							<circle fill="#FFFFFF" cx="582.6" cy="332.3" r="1"/>
						</g>
						<g>
							<circle fill="#FFFFFF" cx="594.7" cy="327.1" r="1"/>
						</g>
					</g>
				</g>
				<g>
					<defs>
						<rect id="SVGID_1_" x="0.9" y="181.9" width="115.8" height="316.3"/>
					</defs>
					<clipPath id="SVGID_2_">
						<use xlink:href="#SVGID_1_"  overflow="visible"/>
					</clipPath>
					<g clip-path="url(#SVGID_2_)">
						<g>
							<path fill="#EDF0F4" d="M46.5,339.7h58.3c1.7,0,3-1.3,3-3V230.6c0-1.7-1.3-3-3-3H46.5c-1.7,0-3,1.3-3,3v106.1
								C43.5,338.3,44.9,339.7,46.5,339.7z"/>

								<rect x="29.6" y="261.4" transform="matrix(6.123234e-17 -1 1 6.123234e-17 -207.9423 359.3167)" fill="#F6FAFD" width="92.1" height="44.4"/>
							<g>
								<path fill="#E8EBEE" d="M59.6,254.8c-1.1,0-2-0.9-2-2v-9.1c0-1.1,0.9-2,2-2h1.2c1.1,0,2,0.9,2,2v9.1c0,1.1-0.9,2-2,2H59.6z"
									/>
								<path fill="#6E7073" d="M60.8,253.8h-1.2c-0.6,0-1-0.4-1-1v-9.1c0-0.6,0.4-1,1-1h1.2c0.6,0,1,0.4,1,1v9.1
									C61.8,253.4,61.4,253.8,60.8,253.8z"/>
								<path fill="#E8EBEE" d="M66.4,254.8c-1.1,0-2-0.9-2-2v-9.1c0-1.1,0.9-2,2-2h1.2c1.1,0,2,0.9,2,2v9.1c0,1.1-0.9,2-2,2H66.4z"
									/>
								<path fill="#6E7073" d="M67.5,253.8h-1.2c-0.6,0-1-0.4-1-1v-9.1c0-0.6,0.4-1,1-1h1.2c0.6,0,1,0.4,1,1v9.1
									C68.5,253.4,68.1,253.8,67.5,253.8z"/>
								<path fill="#E8EBEE" d="M73.1,254.8c-1.1,0-2-0.9-2-2v-9.1c0-1.1,0.9-2,2-2h1.2c1.1,0,2,0.9,2,2v9.1c0,1.1-0.9,2-2,2H73.1z"
									/>
								<path fill="#6E7073" d="M74.3,253.8h-1.2c-0.6,0-1-0.4-1-1v-9.1c0-0.6,0.4-1,1-1h1.2c0.6,0,1,0.4,1,1v9.1
									C75.3,253.4,74.8,253.8,74.3,253.8z"/>
								<path fill="#E8EBEE" d="M91.2,324.2c-1.1,0-2-0.9-2-2v-9.1c0-1.1,0.9-2,2-2h1.2c1.1,0,2,0.9,2,2v9.1c0,1.1-0.9,2-2,2H91.2z"
									/>
								<path fill="#6E7073" d="M92.3,323.2h-1.2c-0.6,0-1-0.4-1-1v-9.1c0-0.6,0.4-1,1-1h1.2c0.6,0,1,0.4,1,1v9.1
									C93.3,322.8,92.9,323.2,92.3,323.2z"/>
							</g>
						</g>
						<g>
							<path fill="#6E7073" d="M46.6,472.4h58.3c1.7,0,3-1.3,3-3V363.4c0-1.7-1.3-3-3-3H46.6c-1.7,0-3,1.3-3,3v106.1
								C43.6,471.1,44.9,472.4,46.6,472.4z"/>

								<rect x="23.7" y="388.3" transform="matrix(6.123234e-17 -1 1 6.123234e-17 -340.6937 492.1465)" fill="#5B5B5E" width="104.1" height="56.3"/>
							<g>
								<path fill="#E77171" d="M91.8,410.1L91.8,410.1c-0.9,0-1.6-0.7-1.6-1.6v-23.8c0-0.9,0.7-1.6,1.6-1.6l0,0
									c0.9,0,1.6,0.7,1.6,1.6v23.8C93.3,409.4,92.6,410.1,91.8,410.1z"/>
								<path fill="#F7B2B4" d="M91.8,409.1c-0.3,0-0.6-0.3-0.6-0.6v-23.8c0-0.3,0.3-0.6,0.6-0.6c0.3,0,0.6,0.3,0.6,0.6v23.8
									C92.3,408.9,92.1,409.1,91.8,409.1z"/>
								<g>
									<path fill="#E77171" d="M85.6,410.1L85.6,410.1c-0.9,0-1.6-0.7-1.6-1.6v-17c0-0.9,0.7-1.6,1.6-1.6h0c0.9,0,1.6,0.7,1.6,1.6
										v17C87.2,409.4,86.5,410.1,85.6,410.1z"/>
									<path fill="#F7B2B4" d="M85.6,409.1c-0.3,0-0.6-0.3-0.6-0.6v-17c0-0.3,0.3-0.6,0.6-0.6s0.6,0.3,0.6,0.6v17
										C86.2,408.9,85.9,409.1,85.6,409.1z"/>
									<path fill="#E77171" d="M79.4,410.1L79.4,410.1c-0.9,0-1.6-0.7-1.6-1.6v-17c0-0.9,0.7-1.6,1.6-1.6h0c0.9,0,1.6,0.7,1.6,1.6
										v17C81,409.4,80.3,410.1,79.4,410.1z"/>
									<path fill="#F7B2B4" d="M79.4,409.1c-0.3,0-0.6-0.3-0.6-0.6v-17c0-0.3,0.3-0.6,0.6-0.6s0.6,0.3,0.6,0.6v17
										C80,408.9,79.8,409.1,79.4,409.1z"/>
									<path fill="#E77171" d="M73.3,410.1L73.3,410.1c-0.9,0-1.6-0.7-1.6-1.6v-17c0-0.9,0.7-1.6,1.6-1.6l0,0
										c0.9,0,1.6,0.7,1.6,1.6v17C74.9,409.4,74.1,410.1,73.3,410.1z"/>
									<path fill="#F7B2B4" d="M73.3,409.1c-0.3,0-0.6-0.3-0.6-0.6v-17c0-0.3,0.3-0.6,0.6-0.6c0.3,0,0.6,0.3,0.6,0.6v17
										C73.9,408.9,73.6,409.1,73.3,409.1z"/>
								</g>
							</g>
							<g>
								<path fill="#E77171" d="M60.9,422.4L60.9,422.4c0.9,0,1.6,0.7,1.6,1.6v23.8c0,0.9-0.7,1.6-1.6,1.6h0c-0.9,0-1.6-0.7-1.6-1.6
									V424C59.4,423.1,60.1,422.4,60.9,422.4z"/>
								<path fill="#F7B2B4" d="M60.9,423.4c0.3,0,0.6,0.3,0.6,0.6v23.8c0,0.3-0.3,0.6-0.6,0.6c-0.3,0-0.6-0.3-0.6-0.6V424
									C60.4,423.7,60.6,423.4,60.9,423.4z"/>
								<path fill="#E77171" d="M67.1,422.4L67.1,422.4c0.9,0,1.6,0.7,1.6,1.6v17c0,0.9-0.7,1.6-1.6,1.6l0,0c-0.9,0-1.6-0.7-1.6-1.6
									v-17C65.5,423.1,66.2,422.4,67.1,422.4z"/>
								<path fill="#F7B2B4" d="M67.1,423.4c0.3,0,0.6,0.3,0.6,0.6v17c0,0.3-0.3,0.6-0.6,0.6c-0.3,0-0.6-0.3-0.6-0.6v-17
									C66.5,423.7,66.8,423.4,67.1,423.4z"/>
								<path fill="#E77171" d="M73.3,422.4L73.3,422.4c0.9,0,1.6,0.7,1.6,1.6v17c0,0.9-0.7,1.6-1.6,1.6l0,0c-0.9,0-1.6-0.7-1.6-1.6
									v-17C71.7,423.1,72.4,422.4,73.3,422.4z"/>
								<path fill="#F7B2B4" d="M73.3,423.4c0.3,0,0.6,0.3,0.6,0.6v17c0,0.3-0.3,0.6-0.6,0.6s-0.6-0.3-0.6-0.6v-17
									C72.7,423.7,72.9,423.4,73.3,423.4z"/>
								<path fill="#E77171" d="M79.4,422.4L79.4,422.4c0.9,0,1.6,0.7,1.6,1.6v17c0,0.9-0.7,1.6-1.6,1.6h0c-0.9,0-1.6-0.7-1.6-1.6
									v-17C77.8,423.1,78.6,422.4,79.4,422.4z"/>
								<path fill="#F7B2B4" d="M79.4,423.4c0.3,0,0.6,0.3,0.6,0.6v17c0,0.3-0.3,0.6-0.6,0.6s-0.6-0.3-0.6-0.6v-17
									C78.8,423.7,79.1,423.4,79.4,423.4z"/>
								<path fill="#E77171" d="M85.6,422.4L85.6,422.4c0.9,0,1.6,0.7,1.6,1.6v17c0,0.9-0.7,1.6-1.6,1.6h0c-0.9,0-1.6-0.7-1.6-1.6
									v-17C84,423.1,84.7,422.4,85.6,422.4z"/>
								<path fill="#F7B2B4" d="M85.6,423.4c0.3,0,0.6,0.3,0.6,0.6v17c0,0.3-0.3,0.6-0.6,0.6S85,441.3,85,441v-17
									C85,423.7,85.3,423.4,85.6,423.4z"/>
							</g>
							<circle fill="#DE6C6C" cx="57.3" cy="376.3" r="5.2"/>
							<circle fill="#F7B2B4" cx="57.3" cy="376.3" r="2.6"/>
							<circle fill="#F9C0C2" cx="54.8" cy="371.8" r="1"/>
							<circle fill="#F9C0C2" cx="63.8" cy="378.9" r="0.6"/>
						</g>
						<g>
							<path fill="#EDF0F4" d="M-38.6,339.7h58.3c1.7,0,3-1.3,3-3V230.6c0-1.7-1.3-3-3-3h-58.3c-1.7,0-3,1.3-3,3v106.1
								C-41.6,338.3-40.2,339.7-38.6,339.7z"/>

								<rect x="-55.5" y="261.4" transform="matrix(6.123234e-17 -1 1 6.123234e-17 -293.0333 274.2257)" fill="#F6FAFD" width="92.1" height="44.4"/>
							<g>
								<path fill="#E8EBEE" d="M-25.5,254.8c-1.1,0-2-0.9-2-2v-9.1c0-1.1,0.9-2,2-2h1.2c1.1,0,2,0.9,2,2v9.1c0,1.1-0.9,2-2,2H-25.5
									z"/>
								<path fill="#6E7073" d="M-24.3,253.8h-1.2c-0.6,0-1-0.4-1-1v-9.1c0-0.6,0.4-1,1-1h1.2c0.6,0,1,0.4,1,1v9.1
									C-23.3,253.4-23.7,253.8-24.3,253.8z"/>
								<path fill="#E8EBEE" d="M-18.7,254.8c-1.1,0-2-0.9-2-2v-9.1c0-1.1,0.9-2,2-2h1.2c1.1,0,2,0.9,2,2v9.1c0,1.1-0.9,2-2,2H-18.7
									z"/>
								<path fill="#6E7073" d="M-17.5,253.8h-1.2c-0.6,0-1-0.4-1-1v-9.1c0-0.6,0.4-1,1-1h1.2c0.6,0,1,0.4,1,1v9.1
									C-16.5,253.4-17,253.8-17.5,253.8z"/>
								<path fill="#E8EBEE" d="M-12,254.8c-1.1,0-2-0.9-2-2v-9.1c0-1.1,0.9-2,2-2h1.2c1.1,0,2,0.9,2,2v9.1c0,1.1-0.9,2-2,2H-12z"/>
								<path fill="#6E7073" d="M-10.8,253.8H-12c-0.6,0-1-0.4-1-1v-9.1c0-0.6,0.4-1,1-1h1.2c0.6,0,1,0.4,1,1v9.1
									C-9.8,253.4-10.3,253.8-10.8,253.8z"/>
								<path fill="#E8EBEE" d="M6.1,324.2c-1.1,0-2-0.9-2-2v-9.1c0-1.1,0.9-2,2-2h1.2c1.1,0,2,0.9,2,2v9.1c0,1.1-0.9,2-2,2H6.1z"/>
								<path fill="#6E7073" d="M7.3,323.2H6.1c-0.6,0-1-0.4-1-1v-9.1c0-0.6,0.4-1,1-1h1.2c0.6,0,1,0.4,1,1v9.1
									C8.3,322.8,7.8,323.2,7.3,323.2z"/>
							</g>
						</g>
						<g>
							<path fill="#EDF0F4" d="M-38.6,472.4h58.3c1.7,0,3-1.3,3-3V363.4c0-1.7-1.3-3-3-3h-58.3c-1.7,0-3,1.3-3,3v106.1
								C-41.6,471.1-40.2,472.4-38.6,472.4z"/>

								<rect x="-55.5" y="394.2" transform="matrix(6.123234e-17 -1 1 6.123234e-17 -425.8237 407.0162)" fill="#F6FAFD" width="92.1" height="44.4"/>
							<g>
								<path fill="#E8EBEE" d="M-25.5,387.6c-1.1,0-2-0.9-2-2v-9.1c0-1.1,0.9-2,2-2h1.2c1.1,0,2,0.9,2,2v9.1c0,1.1-0.9,2-2,2H-25.5
									z"/>
								<path fill="#6E7073" d="M-24.3,386.6h-1.2c-0.6,0-1-0.4-1-1v-9.1c0-0.6,0.4-1,1-1h1.2c0.6,0,1,0.4,1,1v9.1
									C-23.3,386.2-23.7,386.6-24.3,386.6z"/>
								<path fill="#E8EBEE" d="M-18.7,387.6c-1.1,0-2-0.9-2-2v-9.1c0-1.1,0.9-2,2-2h1.2c1.1,0,2,0.9,2,2v9.1c0,1.1-0.9,2-2,2H-18.7
									z"/>
								<path fill="#6E7073" d="M-17.5,386.6h-1.2c-0.6,0-1-0.4-1-1v-9.1c0-0.6,0.4-1,1-1h1.2c0.6,0,1,0.4,1,1v9.1
									C-16.5,386.2-17,386.6-17.5,386.6z"/>
								<path fill="#E8EBEE" d="M-12,387.6c-1.1,0-2-0.9-2-2v-9.1c0-1.1,0.9-2,2-2h1.2c1.1,0,2,0.9,2,2v9.1c0,1.1-0.9,2-2,2H-12z"/>
								<path fill="#6E7073" d="M-10.8,386.6H-12c-0.6,0-1-0.4-1-1v-9.1c0-0.6,0.4-1,1-1h1.2c0.6,0,1,0.4,1,1v9.1
									C-9.8,386.2-10.3,386.6-10.8,386.6z"/>
								<path fill="#E8EBEE" d="M6.1,457c-1.1,0-2-0.9-2-2v-9.1c0-1.1,0.9-2,2-2h1.2c1.1,0,2,0.9,2,2v9.1c0,1.1-0.9,2-2,2H6.1z"/>
								<path fill="#6E7073" d="M7.3,456H6.1c-0.6,0-1-0.4-1-1v-9.1c0-0.6,0.4-1,1-1h1.2c0.6,0,1,0.4,1,1v9.1
									C8.3,455.6,7.8,456,7.3,456z"/>
							</g>
						</g>
					</g>
				</g>
				<g>
					<defs>
						<rect id="SVGID_3_" x="680.1" y="215.4" width="118.9" height="275.1"/>
					</defs>
					<clipPath id="SVGID_4_">
						<use xlink:href="#SVGID_3_"  overflow="visible"/>
					</clipPath>
					<g clip-path="url(#SVGID_4_)">
						<g>
							<g>
								<path fill="#6E7073" d="M695.7,339.7H754c1.7,0,3-1.3,3-3V230.6c0-1.7-1.3-3-3-3h-58.3c-1.7,0-3,1.3-3,3v106.1
									C692.7,338.3,694,339.7,695.7,339.7z"/>

									<rect x="672.8" y="255.5" transform="matrix(6.123234e-17 -1 1 6.123234e-17 441.1896 1008.4494)" fill="#5B5B5E" width="104.1" height="56.3"/>
								<g>
									<path fill="#E77171" d="M740.9,277.3L740.9,277.3c-0.9,0-1.6-0.7-1.6-1.6v-23.8c0-0.9,0.7-1.6,1.6-1.6l0,0
										c0.9,0,1.6,0.7,1.6,1.6v23.8C742.4,276.6,741.7,277.3,740.9,277.3z"/>
									<path fill="#F7B2B4" d="M740.9,276.3c-0.3,0-0.6-0.3-0.6-0.6v-23.8c0-0.3,0.3-0.6,0.6-0.6c0.3,0,0.6,0.3,0.6,0.6v23.8
										C741.4,276.1,741.2,276.3,740.9,276.3z"/>
									<g>
										<path fill="#E77171" d="M734.7,277.3L734.7,277.3c-0.9,0-1.6-0.7-1.6-1.6v-17c0-0.9,0.7-1.6,1.6-1.6l0,0
											c0.9,0,1.6,0.7,1.6,1.6v17C736.3,276.6,735.6,277.3,734.7,277.3z"/>
										<path fill="#F7B2B4" d="M734.7,276.3c-0.3,0-0.6-0.3-0.6-0.6v-17c0-0.3,0.3-0.6,0.6-0.6c0.3,0,0.6,0.3,0.6,0.6v17
											C735.3,276.1,735,276.3,734.7,276.3z"/>
										<path fill="#E77171" d="M728.5,277.3L728.5,277.3c-0.9,0-1.6-0.7-1.6-1.6v-17c0-0.9,0.7-1.6,1.6-1.6l0,0
											c0.9,0,1.6,0.7,1.6,1.6v17C730.1,276.6,729.4,277.3,728.5,277.3z"/>
										<path fill="#F7B2B4" d="M728.5,276.3c-0.3,0-0.6-0.3-0.6-0.6v-17c0-0.3,0.3-0.6,0.6-0.6c0.3,0,0.6,0.3,0.6,0.6v17
											C729.1,276.1,728.8,276.3,728.5,276.3z"/>
										<path fill="#E77171" d="M722.4,277.3L722.4,277.3c-0.9,0-1.6-0.7-1.6-1.6v-17c0-0.9,0.7-1.6,1.6-1.6l0,0
											c0.9,0,1.6,0.7,1.6,1.6v17C723.9,276.6,723.2,277.3,722.4,277.3z"/>
										<path fill="#F7B2B4" d="M722.4,276.3c-0.3,0-0.6-0.3-0.6-0.6v-17c0-0.3,0.3-0.6,0.6-0.6c0.3,0,0.6,0.3,0.6,0.6v17
											C722.9,276.1,722.7,276.3,722.4,276.3z"/>
									</g>
								</g>
								<g>
									<path fill="#E77171" d="M710,289.6L710,289.6c0.9,0,1.6,0.7,1.6,1.6V315c0,0.9-0.7,1.6-1.6,1.6l0,0c-0.9,0-1.6-0.7-1.6-1.6
										v-23.8C708.4,290.3,709.2,289.6,710,289.6z"/>
									<path fill="#F7B2B4" d="M710,290.6c0.3,0,0.6,0.3,0.6,0.6V315c0,0.3-0.3,0.6-0.6,0.6c-0.3,0-0.6-0.3-0.6-0.6v-23.8
										C709.4,290.9,709.7,290.6,710,290.6z"/>
									<path fill="#E77171" d="M716.2,289.6L716.2,289.6c0.9,0,1.6,0.7,1.6,1.6v17c0,0.9-0.7,1.6-1.6,1.6l0,0
										c-0.9,0-1.6-0.7-1.6-1.6v-17C714.6,290.3,715.3,289.6,716.2,289.6z"/>
									<path fill="#F7B2B4" d="M716.2,290.6c0.3,0,0.6,0.3,0.6,0.6v17c0,0.3-0.3,0.6-0.6,0.6c-0.3,0-0.6-0.3-0.6-0.6v-17
										C715.6,290.9,715.9,290.6,716.2,290.6z"/>
									<path fill="#E77171" d="M722.4,289.6L722.4,289.6c0.9,0,1.6,0.7,1.6,1.6v17c0,0.9-0.7,1.6-1.6,1.6l0,0
										c-0.9,0-1.6-0.7-1.6-1.6v-17C720.8,290.3,721.5,289.6,722.4,289.6z"/>
									<path fill="#F7B2B4" d="M722.4,290.6c0.3,0,0.6,0.3,0.6,0.6v17c0,0.3-0.3,0.6-0.6,0.6c-0.3,0-0.6-0.3-0.6-0.6v-17
										C721.8,290.9,722,290.6,722.4,290.6z"/>
									<path fill="#E77171" d="M728.5,289.6L728.5,289.6c0.9,0,1.6,0.7,1.6,1.6v17c0,0.9-0.7,1.6-1.6,1.6l0,0
										c-0.9,0-1.6-0.7-1.6-1.6v-17C726.9,290.3,727.6,289.6,728.5,289.6z"/>
									<path fill="#F7B2B4" d="M728.5,290.6c0.3,0,0.6,0.3,0.6,0.6v17c0,0.3-0.3,0.6-0.6,0.6c-0.3,0-0.6-0.3-0.6-0.6v-17
										C727.9,290.9,728.2,290.6,728.5,290.6z"/>
									<path fill="#E77171" d="M734.7,289.6L734.7,289.6c0.9,0,1.6,0.7,1.6,1.6v17c0,0.9-0.7,1.6-1.6,1.6l0,0
										c-0.9,0-1.6-0.7-1.6-1.6v-17C733.1,290.3,733.8,289.6,734.7,289.6z"/>
									<path fill="#F7B2B4" d="M734.7,290.6c0.3,0,0.6,0.3,0.6,0.6v17c0,0.3-0.3,0.6-0.6,0.6c-0.3,0-0.6-0.3-0.6-0.6v-17
										C734.1,290.9,734.4,290.6,734.7,290.6z"/>
								</g>
								<circle fill="#DE6C6C" cx="706.4" cy="243.5" r="5.2"/>
								<circle fill="#F7B2B4" cx="706.4" cy="243.5" r="2.6"/>
								<circle fill="#F9C0C2" cx="703.9" cy="239" r="1"/>
								<circle fill="#F9C0C2" cx="712.9" cy="246.1" r="0.6"/>
							</g>
							<g>
								<path fill="#EDF0F4" d="M695.7,472.4H754c1.7,0,3-1.3,3-3V363.4c0-1.7-1.3-3-3-3h-58.3c-1.7,0-3,1.3-3,3v106.1
									C692.7,471.1,694,472.4,695.7,472.4z"/>

									<rect x="678.8" y="394.2" transform="matrix(6.123234e-17 -1 1 6.123234e-17 308.3996 1141.2395)" fill="#F6FAFD" width="92.1" height="44.4"/>
								<g>
									<path fill="#E8EBEE" d="M708.8,387.6c-1.1,0-2-0.9-2-2v-9.1c0-1.1,0.9-2,2-2h1.2c1.1,0,2,0.9,2,2v9.1c0,1.1-0.9,2-2,2
										H708.8z"/>
									<path fill="#6E7073" d="M709.9,386.6h-1.2c-0.6,0-1-0.4-1-1v-9.1c0-0.6,0.4-1,1-1h1.2c0.6,0,1,0.4,1,1v9.1
										C710.9,386.2,710.5,386.6,709.9,386.6z"/>
									<path fill="#E8EBEE" d="M715.5,387.6c-1.1,0-2-0.9-2-2v-9.1c0-1.1,0.9-2,2-2h1.2c1.1,0,2,0.9,2,2v9.1c0,1.1-0.9,2-2,2
										H715.5z"/>
									<path fill="#6E7073" d="M716.7,386.6h-1.2c-0.6,0-1-0.4-1-1v-9.1c0-0.6,0.4-1,1-1h1.2c0.6,0,1,0.4,1,1v9.1
										C717.7,386.2,717.2,386.6,716.7,386.6z"/>
									<path fill="#E8EBEE" d="M722.2,387.6c-1.1,0-2-0.9-2-2v-9.1c0-1.1,0.9-2,2-2h1.2c1.1,0,2,0.9,2,2v9.1c0,1.1-0.9,2-2,2
										H722.2z"/>
									<path fill="#6E7073" d="M723.4,386.6h-1.2c-0.6,0-1-0.4-1-1v-9.1c0-0.6,0.4-1,1-1h1.2c0.6,0,1,0.4,1,1v9.1
										C724.4,386.2,724,386.6,723.4,386.6z"/>
									<path fill="#E8EBEE" d="M740.3,457c-1.1,0-2-0.9-2-2v-9.1c0-1.1,0.9-2,2-2h1.2c1.1,0,2,0.9,2,2v9.1c0,1.1-0.9,2-2,2H740.3z
										"/>
									<path fill="#6E7073" d="M741.5,456h-1.2c-0.6,0-1-0.4-1-1v-9.1c0-0.6,0.4-1,1-1h1.2c0.6,0,1,0.4,1,1v9.1
										C742.5,455.6,742,456,741.5,456z"/>
								</g>
							</g>
							<g>
								<path fill="#6E7073" d="M780.8,339.7h58.3c1.7,0,3-1.3,3-3V230.6c0-1.7-1.3-3-3-3h-58.3c-1.7,0-3,1.3-3,3v106.1
									C777.8,338.3,779.1,339.7,780.8,339.7z"/>

									<rect x="757.9" y="255.5" transform="matrix(6.123234e-17 -1 1 6.123234e-17 526.3198 1093.5796)" fill="#5B5B5E" width="104.1" height="56.3"/>
								<g>
									<path fill="#E77171" d="M826,277.3L826,277.3c-0.9,0-1.6-0.7-1.6-1.6v-23.8c0-0.9,0.7-1.6,1.6-1.6l0,0
										c0.9,0,1.6,0.7,1.6,1.6v23.8C827.6,276.6,826.9,277.3,826,277.3z"/>
									<path fill="#F7B2B4" d="M826,276.3c-0.3,0-0.6-0.3-0.6-0.6v-23.8c0-0.3,0.3-0.6,0.6-0.6c0.3,0,0.6,0.3,0.6,0.6v23.8
										C826.6,276.1,826.3,276.3,826,276.3z"/>
									<g>
										<path fill="#E77171" d="M819.8,277.3L819.8,277.3c-0.9,0-1.6-0.7-1.6-1.6v-17c0-0.9,0.7-1.6,1.6-1.6l0,0
											c0.9,0,1.6,0.7,1.6,1.6v17C821.4,276.6,820.7,277.3,819.8,277.3z"/>
										<path fill="#F7B2B4" d="M819.8,276.3c-0.3,0-0.6-0.3-0.6-0.6v-17c0-0.3,0.3-0.6,0.6-0.6c0.3,0,0.6,0.3,0.6,0.6v17
											C820.4,276.1,820.1,276.3,819.8,276.3z"/>
										<path fill="#E77171" d="M813.7,277.3L813.7,277.3c-0.9,0-1.6-0.7-1.6-1.6v-17c0-0.9,0.7-1.6,1.6-1.6l0,0
											c0.9,0,1.6,0.7,1.6,1.6v17C815.2,276.6,814.5,277.3,813.7,277.3z"/>
										<path fill="#F7B2B4" d="M813.7,276.3c-0.3,0-0.6-0.3-0.6-0.6v-17c0-0.3,0.3-0.6,0.6-0.6c0.3,0,0.6,0.3,0.6,0.6v17
											C814.2,276.1,814,276.3,813.7,276.3z"/>
										<path fill="#E77171" d="M807.5,277.3L807.5,277.3c-0.9,0-1.6-0.7-1.6-1.6v-17c0-0.9,0.7-1.6,1.6-1.6l0,0
											c0.9,0,1.6,0.7,1.6,1.6v17C809.1,276.6,808.4,277.3,807.5,277.3z"/>
										<path fill="#F7B2B4" d="M807.5,276.3c-0.3,0-0.6-0.3-0.6-0.6v-17c0-0.3,0.3-0.6,0.6-0.6c0.3,0,0.6,0.3,0.6,0.6v17
											C808.1,276.1,807.8,276.3,807.5,276.3z"/>
									</g>
								</g>
								<g>
									<path fill="#E77171" d="M795.2,289.6L795.2,289.6c0.9,0,1.6,0.7,1.6,1.6V315c0,0.9-0.7,1.6-1.6,1.6l0,0
										c-0.9,0-1.6-0.7-1.6-1.6v-23.8C793.6,290.3,794.3,289.6,795.2,289.6z"/>
									<path fill="#F7B2B4" d="M795.2,290.6c0.3,0,0.6,0.3,0.6,0.6V315c0,0.3-0.3,0.6-0.6,0.6c-0.3,0-0.6-0.3-0.6-0.6v-23.8
										C794.6,290.9,794.8,290.6,795.2,290.6z"/>
									<path fill="#E77171" d="M801.3,289.6L801.3,289.6c0.9,0,1.6,0.7,1.6,1.6v17c0,0.9-0.7,1.6-1.6,1.6l0,0
										c-0.9,0-1.6-0.7-1.6-1.6v-17C799.7,290.3,800.4,289.6,801.3,289.6z"/>
									<path fill="#F7B2B4" d="M801.3,290.6c0.3,0,0.6,0.3,0.6,0.6v17c0,0.3-0.3,0.6-0.6,0.6c-0.3,0-0.6-0.3-0.6-0.6v-17
										C800.7,290.9,801,290.6,801.3,290.6z"/>
									<path fill="#E77171" d="M807.5,289.6L807.5,289.6c0.9,0,1.6,0.7,1.6,1.6v17c0,0.9-0.7,1.6-1.6,1.6l0,0
										c-0.9,0-1.6-0.7-1.6-1.6v-17C805.9,290.3,806.6,289.6,807.5,289.6z"/>
									<path fill="#F7B2B4" d="M807.5,290.6c0.3,0,0.6,0.3,0.6,0.6v17c0,0.3-0.3,0.6-0.6,0.6c-0.3,0-0.6-0.3-0.6-0.6v-17
										C806.9,290.9,807.2,290.6,807.5,290.6z"/>
									<path fill="#E77171" d="M813.7,289.6L813.7,289.6c0.9,0,1.6,0.7,1.6,1.6v17c0,0.9-0.7,1.6-1.6,1.6l0,0
										c-0.9,0-1.6-0.7-1.6-1.6v-17C812.1,290.3,812.8,289.6,813.7,289.6z"/>
									<path fill="#F7B2B4" d="M813.7,290.6c0.3,0,0.6,0.3,0.6,0.6v17c0,0.3-0.3,0.6-0.6,0.6c-0.3,0-0.6-0.3-0.6-0.6v-17
										C813.1,290.9,813.3,290.6,813.7,290.6z"/>
									<path fill="#E77171" d="M819.8,289.6L819.8,289.6c0.9,0,1.6,0.7,1.6,1.6v17c0,0.9-0.7,1.6-1.6,1.6l0,0
										c-0.9,0-1.6-0.7-1.6-1.6v-17C818.2,290.3,818.9,289.6,819.8,289.6z"/>
									<path fill="#F7B2B4" d="M819.8,290.6c0.3,0,0.6,0.3,0.6,0.6v17c0,0.3-0.3,0.6-0.6,0.6c-0.3,0-0.6-0.3-0.6-0.6v-17
										C819.2,290.9,819.5,290.6,819.8,290.6z"/>
								</g>
								<circle fill="#DE6C6C" cx="791.6" cy="243.5" r="5.2"/>
								<circle fill="#F7B2B4" cx="791.6" cy="243.5" r="2.6"/>
								<circle fill="#F9C0C2" cx="789" cy="239" r="1"/>
								<circle fill="#F9C0C2" cx="798" cy="246.1" r="0.6"/>
							</g>
							<g>
								<path fill="#EDF0F4" d="M780.8,472.4h58.3c1.7,0,3-1.3,3-3V363.4c0-1.7-1.3-3-3-3h-58.3c-1.7,0-3,1.3-3,3v106.1
									C777.8,471.1,779.1,472.4,780.8,472.4z"/>

									<rect x="763.9" y="394.2" transform="matrix(6.123234e-17 -1 1 6.123234e-17 393.5298 1226.3698)" fill="#F6FAFD" width="92.1" height="44.4"/>
								<g>
									<path fill="#E8EBEE" d="M793.9,387.6c-1.1,0-2-0.9-2-2v-9.1c0-1.1,0.9-2,2-2h1.2c1.1,0,2,0.9,2,2v9.1c0,1.1-0.9,2-2,2
										H793.9z"/>
									<path fill="#6E7073" d="M795.1,386.6h-1.2c-0.6,0-1-0.4-1-1v-9.1c0-0.6,0.4-1,1-1h1.2c0.6,0,1,0.4,1,1v9.1
										C796.1,386.2,795.6,386.6,795.1,386.6z"/>
									<path fill="#E8EBEE" d="M800.6,387.6c-1.1,0-2-0.9-2-2v-9.1c0-1.1,0.9-2,2-2h1.2c1.1,0,2,0.9,2,2v9.1c0,1.1-0.9,2-2,2
										H800.6z"/>
									<path fill="#6E7073" d="M801.8,386.6h-1.2c-0.6,0-1-0.4-1-1v-9.1c0-0.6,0.4-1,1-1h1.2c0.6,0,1,0.4,1,1v9.1
										C802.8,386.2,802.4,386.6,801.8,386.6z"/>
									<path fill="#E8EBEE" d="M807.4,387.6c-1.1,0-2-0.9-2-2v-9.1c0-1.1,0.9-2,2-2h1.2c1.1,0,2,0.9,2,2v9.1c0,1.1-0.9,2-2,2
										H807.4z"/>
									<path fill="#6E7073" d="M808.5,386.6h-1.2c-0.6,0-1-0.4-1-1v-9.1c0-0.6,0.4-1,1-1h1.2c0.6,0,1,0.4,1,1v9.1
										C809.5,386.2,809.1,386.6,808.5,386.6z"/>
									<path fill="#E8EBEE" d="M825.4,457c-1.1,0-2-0.9-2-2v-9.1c0-1.1,0.9-2,2-2h1.2c1.1,0,2,0.9,2,2v9.1c0,1.1-0.9,2-2,2H825.4z
										"/>
									<path fill="#6E7073" d="M826.6,456h-1.2c-0.6,0-1-0.4-1-1v-9.1c0-0.6,0.4-1,1-1h1.2c0.6,0,1,0.4,1,1v9.1
										C827.6,455.6,827.2,456,826.6,456z"/>
								</g>
							</g>
						</g>
					</g>
				</g>
			</g>
		</g>
		<path fill="#EDF0F4" d="M479.7,541.3H320.2c-29.8,0-53.9-24.1-53.9-53.9V252.8c0-29.8,24.1-53.9,53.9-53.9h159.5
			c29.8,0,53.9,24.1,53.9,53.9v234.6C533.6,517.2,509.5,541.3,479.7,541.3z"/>
		<path fill="#E0E5EC" d="M317.2,506.4c-8.8,0-16-7.1-16-16V249.8c0-8.8,7.1-16,16-16h165.5c8.8,0,16,7.1,16,16v240.6
			c0,8.8-7.1,16-16,16H317.2z"/>
		<g>
			<g>
				<g>
					<g>
						<path fill="#F48B8C" d="M365.2,180.1L365.2,180.1c-1.2,0-2.3-1-2.3-2.2v-12.8c0-1.2,1-2.2,2.2-2.2h0c1.2,0,2.2,1,2.2,2.2v12.8
							C367.5,179.1,366.5,180.1,365.2,180.1z"/>
						<path fill="#F7B2B4" d="M365.2,178.6c-0.4,0-0.7-0.3-0.7-0.7v-12.8c0-0.4,0.3-0.7,0.7-0.7c0.4,0,0.8,0.3,0.8,0.7v12.8
							C366,178.3,365.6,178.6,365.2,178.6L365.2,178.6z"/>
						<path fill="#F48B8C" d="M373.9,180.1L373.9,180.1c-1.2,0-2.3-1-2.3-2.2v-12.8c0-1.2,1-2.2,2.2-2.2h0c1.2,0,2.2,1,2.2,2.2v12.8
							C376.2,179.1,375.2,180.1,373.9,180.1z"/>
						<path fill="#F7B2B4" d="M373.9,178.6c-0.4,0-0.7-0.3-0.7-0.7v-12.8c0-0.4,0.3-0.7,0.7-0.7c0.4,0,0.8,0.3,0.8,0.7v12.8
							C374.7,178.3,374.3,178.6,373.9,178.6L373.9,178.6z"/>
						<path fill="#F48B8C" d="M365.2,158.3L365.2,158.3c-1.2,0-2.3-1-2.3-2.2v-12.8c0-1.2,1-2.2,2.2-2.2h0c1.2,0,2.2,1,2.2,2.2V156
							C367.5,157.3,366.5,158.3,365.2,158.3z"/>
						<path fill="#F7B2B4" d="M365.2,156.8c-0.4,0-0.7-0.3-0.7-0.7v-12.8c0-0.4,0.3-0.7,0.7-0.7c0.4,0,0.8,0.3,0.8,0.7V156
							C366,156.5,365.6,156.8,365.2,156.8L365.2,156.8z"/>
						<path fill="#F48B8C" d="M373.9,158.3L373.9,158.3c-1.2,0-2.3-1-2.3-2.2v-12.8c0-1.2,1-2.2,2.2-2.2h0c1.2,0,2.2,1,2.2,2.2V156
							C376.2,157.3,375.2,158.3,373.9,158.3z"/>
						<path fill="#F7B2B4" d="M373.9,156.8c-0.4,0-0.7-0.3-0.7-0.7v-12.8c0-0.4,0.3-0.7,0.7-0.7c0.4,0,0.8,0.3,0.8,0.7V156
							C374.7,156.5,374.3,156.8,373.9,156.8L373.9,156.8z"/>
					</g>
					<g>
						<path fill="#F48B8C" d="M426,180.1L426,180.1c-1.2,0-2.3-1-2.3-2.2v-12.8c0-1.2,1-2.2,2.2-2.2h0c1.2,0,2.2,1,2.2,2.2v12.8
							C428.2,179.1,427.2,180.1,426,180.1z"/>
						<path fill="#F7B2B4" d="M425.9,178.6c-0.4,0-0.7-0.3-0.7-0.7v-12.8c0-0.4,0.3-0.7,0.7-0.7c0.4,0,0.8,0.3,0.8,0.7v12.8
							C426.7,178.3,426.4,178.6,425.9,178.6L425.9,178.6z"/>
						<path fill="#F48B8C" d="M434.7,180.1L434.7,180.1c-1.2,0-2.3-1-2.3-2.2v-12.8c0-1.2,1-2.2,2.2-2.2h0c1.2,0,2.2,1,2.2,2.2v12.8
							C436.9,179.1,435.9,180.1,434.7,180.1z"/>
						<path fill="#F7B2B4" d="M434.7,178.6c-0.4,0-0.7-0.3-0.7-0.7v-12.8c0-0.4,0.3-0.7,0.7-0.7c0.4,0,0.8,0.3,0.8,0.7v12.8
							C435.4,178.3,435.1,178.6,434.7,178.6L434.7,178.6z"/>
						<path fill="#F48B8C" d="M426,158.3L426,158.3c-1.2,0-2.3-1-2.3-2.2v-12.8c0-1.2,1-2.2,2.2-2.2h0c1.2,0,2.2,1,2.2,2.2V156
							C428.2,157.3,427.2,158.3,426,158.3z"/>
						<path fill="#F7B2B4" d="M425.9,156.8c-0.4,0-0.7-0.3-0.7-0.7v-12.8c0-0.4,0.3-0.7,0.7-0.7c0.4,0,0.8,0.3,0.8,0.7V156
							C426.7,156.5,426.4,156.8,425.9,156.8L425.9,156.8z"/>
						<path fill="#F48B8C" d="M434.7,158.3L434.7,158.3c-1.2,0-2.3-1-2.3-2.2v-12.8c0-1.2,1-2.2,2.2-2.2h0c1.2,0,2.2,1,2.2,2.2V156
							C436.9,157.3,435.9,158.3,434.7,158.3z"/>
						<path fill="#F7B2B4" d="M434.7,156.8c-0.4,0-0.7-0.3-0.7-0.7v-12.8c0-0.4,0.3-0.7,0.7-0.7c0.4,0,0.8,0.3,0.8,0.7V156
							C435.4,156.5,435.1,156.8,434.7,156.8L434.7,156.8z"/>
					</g>
				</g>
				<g>
					<g>
						<path fill="#F48B8C" d="M380.5,169.1L380.5,169.1c0-1.2,1-2.3,2.2-2.3h12.8c1.2,0,2.2,1,2.2,2.2v0c0,1.2-1,2.2-2.2,2.2h-12.8
							C381.5,171.4,380.5,170.4,380.5,169.1z"/>
						<path fill="#F7B2B4" d="M382.7,169.9c-0.4,0-0.7-0.3-0.7-0.7c0-0.4,0.3-0.8,0.7-0.8h12.8c0.4,0,0.7,0.3,0.7,0.7
							c0,0.4-0.3,0.8-0.7,0.8H382.7z"/>
						<path fill="#F48B8C" d="M380.5,177.8L380.5,177.8c0-1.2,1-2.3,2.2-2.3h12.8c1.2,0,2.2,1,2.2,2.2v0c0,1.2-1,2.2-2.2,2.2h-12.8
							C381.5,180.1,380.5,179.1,380.5,177.8z"/>
						<path fill="#F7B2B4" d="M382.7,178.6c-0.4,0-0.7-0.3-0.7-0.7c0-0.4,0.3-0.8,0.7-0.8h12.8c0.4,0,0.7,0.3,0.7,0.7
							c0,0.4-0.3,0.8-0.7,0.8H382.7z"/>
						<path fill="#F48B8C" d="M402.1,169.1L402.1,169.1c0-1.2,1-2.3,2.2-2.3h12.8c1.2,0,2.2,1,2.2,2.2v0c0,1.2-1,2.2-2.2,2.2h-12.8
							C403.2,171.4,402.1,170.4,402.1,169.1z"/>
						<path fill="#F7B2B4" d="M404.4,169.9c-0.4,0-0.7-0.3-0.7-0.7c0-0.4,0.3-0.8,0.7-0.8h12.8c0.4,0,0.7,0.3,0.7,0.7
							c0,0.4-0.3,0.8-0.7,0.8H404.4z"/>
						<path fill="#F48B8C" d="M402.1,177.8L402.1,177.8c0-1.2,1-2.3,2.2-2.3h12.8c1.2,0,2.2,1,2.2,2.2v0c0,1.2-1,2.2-2.2,2.2h-12.8
							C403.2,180.1,402.1,179.1,402.1,177.8z"/>
						<path fill="#F7B2B4" d="M404.4,178.6c-0.4,0-0.7-0.3-0.7-0.7c0-0.4,0.3-0.8,0.7-0.8h12.8c0.4,0,0.7,0.3,0.7,0.7
							c0,0.4-0.3,0.8-0.7,0.8H404.4z"/>
					</g>
					<path fill="#F48B8C" d="M417.1,158.3h-34.4c-1.2,0-2.2,1-2.2,2.2v0.1c0,1.2,1,2.2,2.2,2.2h34.4c1.2,0,2.2-1,2.2-2.2v-0.1
						C419.4,159.3,418.4,158.3,417.1,158.3z"/>
					<path fill="#F7B2B4" d="M382.7,161.3c-0.4,0-0.7-0.3-0.7-0.7c0-0.5,0.3-0.8,0.7-0.8h34.4c0.4,0,0.7,0.3,0.7,0.7
						c0,0.5-0.3,0.8-0.7,0.8H382.7z"/>
				</g>
				<circle fill="#F7B2B4" cx="415.7" cy="158" r="0.8"/>
				<circle fill="#F7B2B4" cx="412.5" cy="155.3" r="0.7"/>
			</g>
			<path fill="none" stroke="#CDD2DA" stroke-width="1.9953" stroke-miterlimit="10" d="M442.8,187.8h-85.7c-1.1,0-2-0.9-2-2v-50.5
				c0-1.1,0.9-2,2-2h85.7c1.1,0,2,0.9,2,2v50.5C444.8,186.9,443.9,187.8,442.8,187.8z"/>
		</g>
		<g>
			<path fill="none" stroke="#CDD2DA" stroke-width="1.9953" stroke-miterlimit="10" d="M259.3,377.1h-15.4c-0.6,0-1-0.4-1-1v-5
				c0-0.6,0.4-1,1-1h15.4c0.6,0,1,0.4,1,1v5C260.3,376.7,259.8,377.1,259.3,377.1z"/>
			<path fill="none" stroke="#CDD2DA" stroke-width="1.9953" stroke-miterlimit="10" d="M259.3,389.9h-15.4c-0.6,0-1-0.4-1-1v-5
				c0-0.6,0.4-1,1-1h15.4c0.6,0,1,0.4,1,1v5C260.3,389.5,259.8,389.9,259.3,389.9z"/>
			<path fill="none" stroke="#CDD2DA" stroke-width="1.9953" stroke-miterlimit="10" d="M259.3,402.7h-15.4c-0.6,0-1-0.4-1-1v-5
				c0-0.6,0.4-1,1-1h15.4c0.6,0,1,0.4,1,1v5C260.3,402.3,259.8,402.7,259.3,402.7z"/>
		</g>
		<g>
			<rect x="223.8" y="349" fill="#5B5B5E" width="42.5" height="12.5"/>
			<g>
				<circle fill="#DE6C6C" cx="259.5" cy="355.3" r="3.6"/>
				<circle fill="#F7B2B4" cx="259.5" cy="355.3" r="1.8"/>
			</g>
			<circle fill="#F7B2B4" cx="257.2" cy="352.6" r="0.6"/>
			<circle fill="#F7B2B4" cx="256.3" cy="357" r="0.5"/>
			<rect x="223.8" y="361.6" fill="#EDF0F4" width="42.5" height="3.2"/>
		</g>
		<g>
			<rect x="533.6" y="364.8" fill="#5B5B5E" width="42.5" height="12.5"/>
			<g>
				<circle fill="#E7D51A" cx="569.3" cy="371.1" r="3.6"/>
				<circle fill="#F9EF6E" cx="569.3" cy="371.1" r="1.8"/>
			</g>
			<g>
				<circle fill="#494A4D" cx="559" cy="371.1" r="3.6"/>
				<circle fill="#303133" cx="559" cy="371.1" r="1.8"/>
			</g>
			<circle fill="#F9EF6E" cx="567" cy="368.3" r="0.6"/>
			<circle fill="#F9EF6E" cx="573.7" cy="375" r="0.5"/>
			<rect x="533.6" y="377.4" fill="#EDF0F4" width="42.5" height="3.2"/>
		</g>
		<g>
			<rect x="533.6" y="333.3" fill="#5B5B5E" width="42.5" height="12.5"/>
			<g>
				<circle fill="#B2D46D" cx="541.5" cy="339.6" r="3.6"/>
				<circle fill="#CCDE77" cx="541.5" cy="339.6" r="1.8"/>
			</g>
			<rect x="533.6" y="345.9" fill="#EDF0F4" width="42.5" height="3.2"/>
		</g>
		<path fill="#EDF0F4" d="M464.7,260.8H335.1c-3.9,0-7,3.1-7,7v204.7c0,3.9,3.1,7,7,7h129.6c3.9,0,7-3.1,7-7V267.8
			C471.7,263.9,468.6,260.8,464.7,260.8z M432.9,266.8h18.9c3.6,0,5.3,4.3,2.8,6.8l-18.9,18.9c-2.5,2.5-6.8,0.7-6.8-2.8v-18.9
			C428.9,268.6,430.7,266.8,432.9,266.8z M383.7,320.6l9.1,9.1c1.6,1.6,1.6,4.1,0,5.6l-9.1,9.1c-2.5,2.5-6.8,0.7-6.8-2.8v-18.3
			C376.9,319.9,381.2,318.1,383.7,320.6z M390.8,309.6h18.3c3.6,0,5.3,4.3,2.8,6.8l-9.1,9.1c-1.6,1.6-4.1,1.6-5.6,0l-9.1-9.1
			C385.5,313.9,387.2,309.6,390.8,309.6z M383.7,395.7l9.1,9.1c1.6,1.6,1.6,4.1,0,5.6l-9.1,9.1c-2.5,2.5-6.8,0.7-6.8-2.8v-18.3
			C376.9,395,381.2,393.2,383.7,395.7z M402.8,414.7l9.1,9.1c2.5,2.5,0.7,6.8-2.8,6.8h-18.3c-3.6,0-5.3-4.3-2.8-6.8l9.1-9.1
			C398.7,413.2,401.2,413.2,402.8,414.7z M341,277.8l18.9,18.9c2.5,2.5,0.7,6.8-2.8,6.8h-18.9c-2.2,0-4-1.8-4-4v-18.9
			C334.1,277.1,338.4,275.3,341,277.8z M334.1,459.6v-18.9c0-2.2,1.8-4,4-4h18.9c3.6,0,5.3,4.3,2.8,6.8L341,462.4
			C338.4,464.9,334.1,463.2,334.1,459.6z M366.9,473.5H348c-3.6,0-5.3-4.3-2.8-6.8l18.9-18.9c2.5-2.5,6.8-0.7,6.8,2.8v18.9
			C370.9,471.7,369.2,473.5,366.9,473.5z M366.9,430.7h-28.8c-2.2,0-4-1.8-4-4V313.6c0-2.2,1.8-4,4-4h28.8c2.2,0,4,1.8,4,4v113.1
			C370.9,428.9,369.2,430.7,366.9,430.7z M364.1,292.6l-18.9-18.9c-2.5-2.5-0.7-6.8,2.8-6.8h18.9c2.2,0,4,1.8,4,4v18.9
			C370.9,293.3,366.6,295.1,364.1,292.6z M419,473.5h-38c-2.2,0-4-1.8-4-4v-28.8c0-2.2,1.8-4,4-4h38c2.2,0,4,1.8,4,4v28.8
			C423,471.7,421.2,473.5,419,473.5z M416.1,419.6l-9.1-9.1c-1.6-1.6-1.6-4.1,0-5.6l9.1-9.1c2.5-2.5,6.8-0.7,6.8,2.8v18.3
			C423,420.4,418.7,422.2,416.1,419.6z M421.8,381.6l-19,19c-1.6,1.6-4.1,1.6-5.6,0l-19-19c-0.7-0.7-1.2-1.8-1.2-2.8v-17.3
			c0-1.1,0.4-2.1,1.2-2.8l19-19c1.6-1.6,4.1-1.6,5.6,0l19,19c0.7,0.7,1.2,1.8,1.2,2.8v17.3C423,379.8,422.5,380.8,421.8,381.6z
			 M416.1,344.6l-9.1-9.1c-1.6-1.6-1.6-4.1,0-5.6l9.1-9.1c2.5-2.5,6.8-0.7,6.8,2.8v18.3C423,345.3,418.7,347.1,416.1,344.6z
			 M419,303.6h-38c-2.2,0-4-1.8-4-4v-28.8c0-2.2,1.8-4,4-4h38c2.2,0,4,1.8,4,4v28.8C423,301.8,421.2,303.6,419,303.6z M428.9,469.5
			v-18.9c0-3.6,4.3-5.3,6.8-2.8l18.9,18.9c2.5,2.5,0.7,6.8-2.8,6.8h-18.9C430.7,473.5,428.9,471.7,428.9,469.5z M458.9,462.4
			L440,443.5c-2.5-2.5-0.7-6.8,2.8-6.8h18.9c2.2,0,4,1.8,4,4v18.9C465.7,463.2,461.4,464.9,458.9,462.4z M461.7,430.7h-28.8
			c-2.2,0-4-1.8-4-4V313.6c0-2.2,1.8-4,4-4h28.8c2.2,0,4,1.8,4,4v113.1C465.7,428.9,464,430.7,461.7,430.7z M461.7,303.6h-18.9
			c-3.6,0-5.3-4.3-2.8-6.8l18.9-18.9c2.5-2.5,6.8-0.7,6.8,2.8v18.9C465.7,301.8,464,303.6,461.7,303.6z"/>
		<g>
			<g>
				<path fill="#F6FAFD" d="M328.2,236.7h-3.8c-1.7,0-3-1.3-3-3v-34.3c0-1.7,1.3-3,3-3h3.8c1.7,0,3,1.3,3,3v34.3
					C331.1,235.4,329.8,236.7,328.2,236.7z"/>
				<path fill="#F6FAFD" d="M475.5,236.7h-3.8c-1.7,0-3-1.3-3-3v-34.3c0-1.7,1.3-3,3-3h3.8c1.7,0,3,1.3,3,3v34.3
					C478.5,235.4,477.2,236.7,475.5,236.7z"/>
			</g>
			<g>
				<path fill="#F6FAFD" d="M328.2,543.8h-3.8c-1.7,0-3-1.3-3-3v-34.3c0-1.7,1.3-3,3-3h3.8c1.7,0,3,1.3,3,3v34.3
					C331.1,542.5,329.8,543.8,328.2,543.8z"/>
				<path fill="#F6FAFD" d="M475.5,543.8h-3.8c-1.7,0-3-1.3-3-3v-34.3c0-1.7,1.3-3,3-3h3.8c1.7,0,3,1.3,3,3v34.3
					C478.5,542.5,477.2,543.8,475.5,543.8z"/>
			</g>
		</g>
		<g>
			<g>
				<path fill="#F6FAFD" d="M496.5,262.5v-3.8c0-1.7,1.3-3,3-3h34.3c1.7,0,3,1.3,3,3v3.8c0,1.7-1.3,3-3,3h-34.3
					C497.8,265.5,496.5,264.2,496.5,262.5z"/>
				<path fill="#F6FAFD" d="M496.5,481.5v-3.8c0-1.7,1.3-3,3-3h34.3c1.7,0,3,1.3,3,3v3.8c0,1.7-1.3,3-3,3h-34.3
					C497.8,484.5,496.5,483.2,496.5,481.5z"/>
			</g>
			<g>
				<path fill="#F6FAFD" d="M263.1,262.5v-3.8c0-1.7,1.3-3,3-3h34.3c1.7,0,3,1.3,3,3v3.8c0,1.7-1.3,3-3,3h-34.3
					C264.5,265.5,263.1,264.2,263.1,262.5z"/>
				<path fill="#F6FAFD" d="M263.1,481.5v-3.8c0-1.7,1.3-3,3-3h34.3c1.7,0,3,1.3,3,3v3.8c0,1.7-1.3,3-3,3h-34.3
					C264.5,484.5,263.1,483.2,263.1,481.5z"/>
			</g>
		</g>
		<rect x="301.2" y="286.7" fill="#D0D6DF" width="27" height="42.5"/>
		<rect x="301.2" y="361.7" fill="#D0D6DF" width="27" height="42.5"/>
		<g>
			<rect x="471.7" y="286.7" fill="#D0D6DF" width="27" height="42.5"/>
			<rect x="471.7" y="361.7" fill="#D0D6DF" width="27" height="42.5"/>
		</g>
	</g>
	<rect x="223.8" y="0.8" fill="#EFF4FB" width="352.3" height="45.1"/>
	<path fill="#FFFFFF" d="M231.8,33.1V0.8h336.4v32.3c0,2.8-2.2,5-5,5H236.8C234,38.1,231.8,35.9,231.8,33.1z"/>
	<rect x="671.9" y="0.8" fill="#EFF4FB" width="127.1" height="45.1"/>
	<path fill="#FFFFFF" d="M679.9,32.9V0.8H799v37.1H684.8C682.1,37.9,679.9,35.7,679.9,32.9z"/>
	<rect x="0.9" y="0.8" fill="#EFF4FB" width="127.1" height="45.1"/>
	<path fill="#FFFFFF" d="M0.9,37.9V0.8H120v32.3c0,2.8-2.2,5-5,5L0.9,37.9z"/>
	<rect x="128" y="45.9" fill="#ECEFF4" width="95.8" height="10.6"/>
	<rect x="576.1" y="45.9" fill="#ECEFF4" width="95.8" height="10.6"/>
</g>
</svg>
