<?xml version="1.0" encoding="utf-8"?>
<!-- Generator: Adobe Illustrator 23.0.4, SVG Export Plug-In . SVG Version: 6.00 Build 0)  -->
<svg version="1.0" id="Layer_1" xmlns="http://www.w3.org/2000/svg" xmlns:xlink="http://www.w3.org/1999/xlink" x="0px" y="0px"
	 width="800px" height="600px" viewBox="0 0 800 600" enable-background="new 0 0 800 600" xml:space="preserve">
<g id="bounds">
	<rect x="-352" y="559.5" fill="none" width="1330.5" height="125"/>
	<rect x="-458" y="-651" fill="none" width="149" height="1211"/>
	<rect x="799.5" y="-651.5" fill="none" width="183" height="1211"/>
</g>
<g>
	<rect fill="#D4EEF6" width="800.1" height="600"/>
	<rect y="409" fill="#E8F5FA" width="800.1" height="32.4"/>
	<path fill="#FFFFFF" d="M612.9,296.2h-26.1l0,0c0-2.3,1.9-4.2,4.2-4.2h17.7C611,292,612.9,293.9,612.9,296.2L612.9,296.2z"/>
	<path fill="#FFFFFF" d="M586.8,317h-26.1l0,0c0-2.3,1.9-4.2,4.2-4.2h17.7C584.9,312.9,586.8,314.7,586.8,317L586.8,317z"/>
	<path fill="#FFFFFF" d="M580.8,312.9h-12.1l0,0c0-2.3,1.9-4.2,4.2-4.2h3.7C578.9,308.7,580.8,310.5,580.8,312.9L580.8,312.9z"/>
	<rect y="542" fill="#FFE2B4" width="800.1" height="58"/>
	<rect y="585.5" fill="#F4D6A5" width="800.1" height="14.5"/>
	<rect y="472.1" fill="#FFEBCB" width="800.1" height="69.9"/>
	<rect y="441.4" fill="#FFF3E0" width="800.1" height="31.1"/>
	<g>
		<path fill="#ECDACB" d="M735.4,472.5H604.7V259.8c0-9.5,7.7-17.2,17.2-17.2h96.1c9.5,0,17.2,7.7,17.2,17.2V472.5z"/>
		<path fill="#E5CCB3" d="M604.7,472.5h-17.9V393c0-3.3,1.9-6.3,4.9-7.8l13.1-6.3V472.5z"/>
		<path fill="#E6CDBA" d="M716.8,230.9h-93.4c-1,0-1.7,0.8-1.7,1.7v10h96.9v-10C718.5,231.6,717.7,230.9,716.8,230.9z"/>
		<path fill="#ECDACB" d="M670.1,166.5L670.1,166.5c-26.8,0-48.4,21.7-48.4,48.4v4.3c0,1,0.8,1.7,1.7,1.7h93.4c1,0,1.7-0.8,1.7-1.7
			v-4.3C718.5,188.2,696.8,166.5,670.1,166.5z"/>
		<rect x="626.3" y="221" fill="#DAC6B9" width="87.5" height="9.9"/>
		<rect x="645.7" y="390.6" fill="#E6CDBA" width="48.7" height="81.9"/>

			<rect x="631.7" y="415" transform="matrix(-1.836970e-16 1 -1 -1.836970e-16 1104.1809 -235.9234)" fill="#D3C0B2" width="76.8" height="38.3"/>
		<path fill="#D3C0B2" d="M670.1,359.3L670.1,359.3c-13.4,0-24.3,10.9-24.3,24.3v6.9h48.7v-6.9C694.4,370.2,683.5,359.3,670.1,359.3
			z"/>
		<path fill="#EAF0F1" d="M650.9,385.4v-1.7c0-10.6,8.6-19.2,19.2-19.2c10.6,0,19.2,8.6,19.2,19.2v1.7H650.9z"/>
		<rect x="655.9" y="401.7" fill="#EAF0F1" width="28.3" height="14.7"/>
	</g>
	<rect x="153.1" y="380.5" fill="#F9EBDD" width="212.1" height="60.8"/>
	<g>
		<defs>
			<rect id="SVGID_1_" y="216.9" width="272.8" height="294.3"/>
		</defs>
		<clipPath id="SVGID_2_">
			<use xlink:href="#SVGID_1_"  overflow="visible"/>
		</clipPath>
		<g clip-path="url(#SVGID_2_)">
			<path fill="#E6CDBA" d="M193.3,419.2H-0.3v84.5h197.5v-80.5C197.3,420.9,195.5,419.2,193.3,419.2z"/>
			<path fill="#D5BDA7" d="M246.5,503.6h-49.2v-49.2h0C224.4,454.4,246.5,476.5,246.5,503.6L246.5,503.6z"/>
			<path fill="#E6CDBA" d="M69.9,276.2L69.9,276.2c70.3,0,127.3,57,127.3,127.3v3.8c0,2.2-1.8,4-4,4H-57.4v-7.8
				C-57.4,333.2-0.4,276.2,69.9,276.2z"/>
			<rect x="-0.3" y="411.3" fill="#D5BDA7" width="193.1" height="7.8"/>
		</g>
		<g clip-path="url(#SVGID_2_)">
			<circle fill="#F6DDC8" cx="12.1" cy="395" r="1.6"/>
			<circle fill="#F6DDC8" cx="7.6" cy="385.8" r="1.6"/>
			<circle fill="#F6DDC8" cx="21.5" cy="378" r="1.1"/>
			<circle fill="#F6DDC8" cx="13.7" cy="361.2" r="1.1"/>
			<circle fill="#F6DDC8" cx="21.5" cy="357.6" r="1.1"/>
			<circle fill="#F6DDC8" cx="44.2" cy="400.3" r="1.1"/>
			<circle fill="#F6DDC8" cx="7.2" cy="403.8" r="0.7"/>
		</g>
	</g>
	<path fill="#F3DECA" d="M800.1,315.9h-76.6c-2.8,0-5-2.2-5-5v-18.5c0-2.8,2.2-5,5-5h76.6V315.9z"/>
	<rect x="729.2" y="315.9" fill="#E6CDBA" width="70.9" height="9.4"/>
	<path fill="#F3DECA" d="M800.3,325.3h-70.9l-70.7,172.2c-1.7,4.1-2.5,8.4-2.5,12.8v31.9h144.5V325.3"/>
	<path fill="#E8CAB0" d="M800.1,542H641.7v-12.8c0-7.4,6-13.4,13.4-13.4h144.9V542z"/>
	<g>
		<path fill="#CFDADA" d="M800.1,282h-43.4c-3,0-5.4,2.4-5.4,5.4l0,0h48.8V282z"/>
		<g>
			<rect x="779.2" y="270.1" fill="#BEC8C8" width="2.6" height="11.9"/>
			<path fill="#CFDADA" d="M780.5,271.7L780.5,271.7c-2.2,0-3.9-1.8-3.9-3.9V111.1c0-2.2,1.8-3.9,3.9-3.9h0c2.2,0,3.9,1.8,3.9,3.9
				v156.7C784.4,270,782.7,271.7,780.5,271.7z"/>
		</g>
		<rect x="779.5" y="56.5" fill="#DBE7E7" width="2.1" height="50.7"/>
		<path fill="#CFDADA" d="M783.3,53.3h-5.5c-0.6,0-1.2,0.5-1.2,1.2v0.9c0,0.6,0.5,1.2,1.2,1.2h5.5c0.6,0,1.2-0.5,1.2-1.2v-0.9
			C784.4,53.8,783.9,53.3,783.3,53.3z"/>
		<g>
			<line fill="none" stroke="#DBE7E7" stroke-width="2.0002" stroke-miterlimit="10" x1="754.3" y1="180.5" x2="780.5" y2="180.5"/>
			<g>
				<rect x="748.5" y="161.8" fill="#D9E8EC" width="12.9" height="37.5"/>
				<rect x="759" y="161.8" fill="#CAD8DA" width="2.5" height="37.5"/>
			</g>
		</g>
		<g>
			<line fill="none" stroke="#DBE7E7" stroke-width="2.0002" stroke-miterlimit="10" x1="796.7" y1="156.5" x2="780.5" y2="156.5"/>
			<g>

					<rect x="789.9" y="137.8" transform="matrix(-1 -4.578128e-11 4.578128e-11 -1 1592.7329 313.0573)" fill="#D9E8EC" width="12.9" height="37.5"/>

					<rect x="789.9" y="137.8" transform="matrix(-1 -4.466528e-11 4.466528e-11 -1 1582.3036 313.0573)" fill="#CAD8DA" width="2.5" height="37.5"/>
			</g>
		</g>
		<g>
			<line fill="none" stroke="#DBE7E7" stroke-width="2.0002" stroke-miterlimit="10" x1="731.6" y1="101.3" x2="780.5" y2="132.6"/>
			<g>
				<rect x="725.9" y="82.6" fill="#D9E8EC" width="12.9" height="37.5"/>
				<rect x="736.3" y="82.6" fill="#CAD8DA" width="2.5" height="37.5"/>
			</g>
		</g>
	</g>
	<g>
		<path fill="#FFFFFF" d="M192.5,228.9h-56.1l0,0c0-2.3,1.9-4.2,4.2-4.2h47.7C190.6,224.7,192.5,226.6,192.5,228.9L192.5,228.9z"/>
		<path fill="#FFFFFF" d="M222.8,248.6h-26.1l0,0c0-2.3,1.9-4.2,4.2-4.2h17.7C220.9,244.4,222.8,246.3,222.8,248.6L222.8,248.6z"/>
		<path fill="#FFFFFF" d="M181.5,224.7h-29.1l0,0c0-2.3,1.9-4.2,4.2-4.2h20.7C179.6,220.5,181.5,222.4,181.5,224.7L181.5,224.7z"/>
	</g>
	<g>
		<path fill="#FFFFFF" d="M595.8,126.1h-66.1v0c0-2.3,1.9-4.2,4.2-4.2h57.7C594,121.9,595.8,123.7,595.8,126.1L595.8,126.1z"/>
		<path fill="#FFFFFF" d="M566.9,121.9h-29.1l0,0c0-2.3,1.9-4.2,4.2-4.2h20.7C565,117.7,566.9,119.6,566.9,121.9L566.9,121.9z"/>
	</g>
	<g>
		<g>
			<path fill="#D8B797" d="M169.7,510.1h-38.5v-40.9h38.5c1.3,0,2.4,1.1,2.4,2.4v36.1C172.1,509,171,510.1,169.7,510.1z"/>

				<rect x="137.7" y="475.7" transform="matrix(-1.836970e-16 1 -1 -1.836970e-16 641.2662 337.9852)" fill="#CCAD8F" width="27.9" height="27.9"/>
			<g>
				<path fill="#E4C39F" d="M167.8,501.6l-4.2,4.2c-0.3,0.3-0.8,0.3-1.1,0l-27-27c-0.3-0.3-0.3-0.8,0-1.1l4.2-4.2
					c0.3-0.3,0.8-0.3,1.1,0l27,27C168.1,500.8,168.1,501.3,167.8,501.6z"/>
				<path fill="#F1CDA9" d="M139.7,505.8l-4.2-4.2c-0.3-0.3-0.3-0.8,0-1.1l27-27c0.3-0.3,0.8-0.3,1.1,0l4.2,4.2
					c0.3,0.3,0.3,0.8,0,1.1l-27,27C140.5,506.1,140,506.1,139.7,505.8z"/>
			</g>
			<path fill="#CCAD8F" d="M120.7,510.1h10.5v-40.9h-10.5c-1.3,0-2.4,1.1-2.4,2.4v36.1C118.3,509,119.4,510.1,120.7,510.1z"/>
			<circle fill="#FFEBD9" cx="139.8" cy="501.9" r="0.8"/>
			<circle fill="#FFEBD9" cx="163.9" cy="501.9" r="0.8"/>
			<circle fill="#FFEBD9" cx="139.8" cy="477.4" r="0.8"/>
			<circle fill="#FFEBD9" cx="163.9" cy="477.4" r="0.8"/>
		</g>
		<path fill="#D8B797" d="M113.9,510.3l-7.1-1.7c-0.5-0.1-0.9-0.7-0.7-1.2l9.8-42c0.1-0.5,0.7-0.9,1.2-0.7l7.1,1.7
			c0.5,0.1,0.9,0.7,0.7,1.2l-9.8,42C114.9,510.1,114.4,510.5,113.9,510.3z"/>
	</g>
	<path fill="#D5BDA7" d="M61.4,503.3h17.1V463c0-4.7-3.8-8.5-8.5-8.5h0c-4.7,0-8.5,3.8-8.5,8.5V503.3z"/>
	<path fill="#FFE2B4" d="M641.7,542h-32.4l0,0c0-3.3,2.7-6,6-6h26.3V542z"/>
	<path fill="#FFE2B4" d="M641.7,535.9h-12.7v0c0-2.6,2.1-4.8,4.8-4.8h7.9V535.9z"/>
	<g>
		<path fill="#F8D498" d="M268.6,497.8h-9.9c-3.2,0-5.9,2.6-5.9,5.9v0h21.7v0C274.4,500.4,271.8,497.8,268.6,497.8z"/>
		<circle fill="#F8D498" cx="281.3" cy="497.5" r="1.4"/>
		<circle fill="#F8D498" cx="269" cy="490.2" r="1.4"/>
		<circle fill="#F8D498" cx="282.7" cy="465.1" r="1.4"/>
	</g>
	<g>
		<g>
			<path fill="#E7D2C1" d="M506.8,441.4H487v-57c0-5.5,4.4-9.9,9.9-9.9l0,0c5.5,0,9.9,4.4,9.9,9.9V441.4z"/>
			<g>
				<g>
					<rect x="475.3" y="389.1" fill="#E7D2C1" width="11.7" height="3.3"/>
					<path fill="#D8C4B3" d="M507.3,394.7h-20.8c-0.6,0-1-0.4-1-1v-5.8c0-0.6,0.4-1,1-1h20.8c0.6,0,1,0.4,1,1v5.8
						C508.3,394.2,507.8,394.7,507.3,394.7z"/>
				</g>
				<g>
					<rect x="475.3" y="423.4" fill="#E7D2C1" width="11.7" height="3.3"/>
					<path fill="#D8C4B3" d="M507.3,429h-20.8c-0.6,0-1-0.4-1-1v-5.8c0-0.6,0.4-1,1-1h20.8c0.6,0,1,0.4,1,1v5.8
						C508.3,428.5,507.8,429,507.3,429z"/>
				</g>
			</g>
		</g>
		<path fill="#E7D2C1" d="M504.6,363.2h-15.4c-1.2,0-2.2,1-2.2,2.2l0,0c0,1.2,1,2.2,2.2,2.2h15.4c1.2,0,2.2-1,2.2-2.2l0,0
			C506.8,364.2,505.8,363.2,504.6,363.2z"/>
		<path fill="#F3E2D4" d="M496.9,376.8L496.9,376.8c-0.7,0-1.3-0.6-1.3-1.3v-7.9h2.5v7.9C498.2,376.2,497.6,376.8,496.9,376.8z"/>
		<path fill="#F3E2D4" d="M498.2,363.2h-2.5V259.3c0-0.7,0.6-1.3,1.3-1.3l0,0c0.7,0,1.3,0.6,1.3,1.3V363.2z"/>
		<line fill="none" stroke="#F3E2D4" stroke-width="1.0001" stroke-miterlimit="10" x1="496.9" y1="259.9" x2="496.9" y2="253.4"/>
		<circle fill="#E7D2C1" cx="496.9" cy="252.8" r="2.6"/>
		<g>
			<path fill="#E7D2C1" d="M480.4,441.4h-143v-6.2c0-2.8,2.2-5,5-5h133c2.8,0,5,2.2,5,5V441.4z"/>
		</g>
		<g>
			<path fill="#F3E2D4" d="M472.4,408.5H345.4c-1.7,0-3,1.3-3,3v18.6h132.9v-18.6C475.4,409.9,474,408.5,472.4,408.5z"/>
			<path fill="#F3E2D4" d="M408.9,329.1L408.9,329.1c-36.7,0-66.5,29.8-66.5,66.5v5.6c0,1.1,0.9,2,2,2h128.9c1.1,0,2-0.9,2-2v-5.6
				C475.4,358.8,445.6,329.1,408.9,329.1z"/>
			<rect x="346.8" y="403.2" fill="#E7D2C1" width="124.3" height="5.4"/>
		</g>
	</g>
	<path fill="#F3E2D4" d="M311.6,441.4h-93.4c0-25.8,20.9-46.7,46.7-46.7S311.6,415.6,311.6,441.4z"/>
	<g>
		<path fill="#C8B5A5" d="M275.9,441.3h-22v-30.8c0-1.1,0.9-2,2-2h18c1.1,0,2,0.9,2,2V441.3z"/>
		<path fill="#E7D2C1" d="M257.3,441.3h-3.3v-30.8c0-1.1,0.9-2,2-2h1.3V441.3z"/>
	</g>
	<g>
		<g>
			<path fill="#E7C7A6" d="M226.5,441.3h15.3V425h-15.3c-0.5,0-1,0.4-1,1v14.4C225.5,440.9,226,441.3,226.5,441.3z"/>

				<rect x="228.1" y="427.6" transform="matrix(-4.479902e-11 1 -1 -4.479902e-11 666.8829 199.4921)" fill="#D9BC9E" width="11.1" height="11.1"/>
			<g>
				<path fill="#F3D1AF" d="M227.3,438l1.7,1.7c0.1,0.1,0.3,0.1,0.5,0l10.7-10.7c0.1-0.1,0.1-0.3,0-0.5l-1.7-1.7
					c-0.1-0.1-0.3-0.1-0.5,0l-10.7,10.7C227.1,437.6,227.1,437.8,227.3,438z"/>
				<path fill="#FDDCB9" d="M238.5,439.6l1.7-1.7c0.1-0.1,0.1-0.3,0-0.5l-10.7-10.7c-0.1-0.1-0.3-0.1-0.5,0l-1.7,1.7
					c-0.1,0.1-0.1,0.3,0,0.5l10.7,10.7C238.1,439.7,238.3,439.7,238.5,439.6z"/>
			</g>
			<path fill="#D9BC9E" d="M246,441.3h-4.2V425h4.2c0.5,0,1,0.4,1,1v14.4C247,440.9,246.5,441.3,246,441.3z"/>
		</g>
	</g>
	<g>
		<g>
			<path fill="#CFDADA" d="M246.7,368.5h-21.8c-1.2,0-2.2,1-2.2,2.2v9.8h26.3v-9.8C248.9,369.5,247.9,368.5,246.7,368.5z"/>

				<rect x="231.4" y="366.4" transform="matrix(-1.836970e-16 1 -1 -1.836970e-16 611.9547 140.3915)" fill="#B9C3C3" width="8.7" height="19.6"/>
			<g>
				<rect x="224.4" y="373" fill="#DCEAEA" width="21.2" height="1.2"/>
				<rect x="224.4" y="375.6" fill="#DCEAEA" width="21.2" height="1.2"/>
				<rect x="224.4" y="378.2" fill="#DCEAEA" width="21.2" height="1.2"/>
			</g>
		</g>
		<g>
			<line fill="none" stroke="#CFDADA" stroke-width="1.1195" stroke-miterlimit="10" x1="255" y1="380.5" x2="255" y2="319.3"/>
			<circle fill="#B9C3C3" cx="255" cy="319.3" r="2"/>
		</g>
		<g>
			<line fill="none" stroke="#CFDADA" stroke-width="1.1195" stroke-miterlimit="10" x1="262.3" y1="380.5" x2="262.3" y2="361.9"/>
		</g>
		<path fill="#B9C3C3" d="M262.3,363.8L262.3,363.8c-0.7,0-1.2-0.6-1.2-1.2V357c0-0.7,0.6-1.2,1.2-1.2l0,0c0.7,0,1.2,0.6,1.2,1.2
			v5.6C263.5,363.3,263,363.8,262.3,363.8z"/>
		<rect x="252.6" y="379" fill="#B9C3C3" width="11.8" height="1.6"/>
	</g>
	<g>
		<path fill="#F3E2D4" d="M321.4,380.5h-7.5v-8.9c0-0.6,0.4-1,1-1h5.5c0.6,0,1,0.4,1,1V380.5z"/>
		<path fill="#E7D2C1" d="M321.4,373.7h-7.5v-2c0-0.6,0.4-1,1-1h5.5c0.6,0,1,0.4,1,1V373.7z"/>
		<circle fill="#FFFFFF" cx="317.7" cy="366.1" r="1.9"/>
		<circle fill="#FFFFFF" cx="320.5" cy="360.7" r="1.4"/>
		<circle fill="#FFFFFF" cx="313" cy="341.7" r="1.4"/>
	</g>
	<g>
		<g>
			<path fill="#D8B797" d="M572.7,433.8h-8.4V417c0-0.6,0.4-1,1-1h6.4c0.6,0,1,0.4,1,1V433.8z"/>
			<path fill="#EAC7A3" d="M565.8,433.8h-1.6V417c0-0.6,0.4-1,1-1h0.6V433.8z"/>
		</g>
		<g>
			<path fill="#D8B797" d="M562.5,439.1l-8.3,1.6l-3.2-16.5c-0.1-0.5,0.2-1.1,0.8-1.2l6.3-1.2c0.5-0.1,1.1,0.2,1.2,0.8L562.5,439.1z
				"/>
			<path fill="#EAC7A3" d="M555.8,440.4l-1.6,0.3l-3.2-16.5c-0.1-0.5,0.2-1.1,0.8-1.2l0.6-0.1L555.8,440.4z"/>
		</g>
		<g>
			<g>
				<polyline fill="none" stroke="#BEC8C8" stroke-width="2.0002" stroke-miterlimit="10" points="559.8,436.8 545.6,429 534,450.6
									"/>
				<circle fill="#BEC8C8" cx="545.6" cy="429" r="3.3"/>
				<path fill="#BEC8C8" d="M536.3,453.1c-1.3,1.1-3.2,1.1-4.4,0c-0.1-0.1-0.1-0.2,0-0.3l2.2-2.2l-2.2-2.2c-0.1-0.1-0.1-0.2,0-0.3
					c0,0,0,0,0,0c0.8-0.8,2-1.1,3-0.8C537.7,448.2,538.1,451.4,536.3,453.1z"/>
				<circle fill="#E9F5F4" cx="545.6" cy="429" r="1.5"/>
			</g>
			<path fill="#A5ACAD" d="M534,450.6l-1.8,1.8c0,0-0.1-0.1-0.1-0.1c-0.9-1-0.9-2.6,0.1-3.5C533,449.5,534,450.6,534,450.6z"/>
			<circle fill="#D9E5E5" cx="534" cy="450.6" r="0.8"/>
		</g>
		<rect x="547.6" y="433.8" fill="#F9C9B1" width="26.4" height="38.7"/>
		<g>
			<path fill="#EFB99D" d="M575.2,472.5h-28.8v-1.7c0-0.5,0.4-0.9,0.9-0.9h27c0.5,0,0.9,0.4,0.9,0.9V472.5z"/>
			<path fill="#EFB99D" d="M573.9,460.5h-26.2c-0.7,0-1.3-0.6-1.3-1.3l0,0c0-0.7,0.6-1.3,1.3-1.3h26.2c0.7,0,1.3,0.6,1.3,1.3l0,0
				C575.2,459.9,574.6,460.5,573.9,460.5z"/>
			<path fill="#EFB99D" d="M573.9,448.4h-26.2c-0.7,0-1.3-0.6-1.3-1.3l0,0c0-0.7,0.6-1.3,1.3-1.3h26.2c0.7,0,1.3,0.6,1.3,1.3l0,0
				C575.2,447.9,574.6,448.4,573.9,448.4z"/>
			<path fill="#EFB99D" d="M573.9,436.4h-26.2c-0.7,0-1.3-0.6-1.3-1.3l0,0c0-0.7,0.6-1.3,1.3-1.3h26.2c0.7,0,1.3,0.6,1.3,1.3l0,0
				C575.2,435.8,574.6,436.4,573.9,436.4z"/>
		</g>
	</g>
	<g>
		<path fill="#FFFFFF" d="M82,145.5H15.8l0,0c0-2.3,1.9-4.2,4.2-4.2h57.7C80.1,141.3,82,143.2,82,145.5L82,145.5z"/>
		<path fill="#FFFFFF" d="M53,141.3H23.9l0,0c0-2.3,1.9-4.2,4.2-4.2h20.7C51.1,137.1,53,139,53,141.3L53,141.3z"/>
	</g>
	<g>
		<g>
			<line fill="none" stroke="#CFDADA" stroke-width="1.0001" stroke-miterlimit="10" x1="62.7" y1="271.8" x2="62.7" y2="175.4"/>
			<line fill="none" stroke="#CFDADA" stroke-width="1.0001" stroke-miterlimit="10" x1="77.1" y1="271.8" x2="77.1" y2="175.4"/>
		</g>
		<rect x="69.3" y="58.8" fill="#B7C1C1" width="1.2" height="10.2"/>
		<path fill="#B9C3C3" d="M85.8,277.3H54l0,0c0-3,2.5-5.5,5.5-5.5h20.8C83.4,271.8,85.8,274.3,85.8,277.3L85.8,277.3z"/>
		<path fill="#CFDADA" d="M69.9,65.4L69.9,65.4c-1,0-1.8,0.8-1.8,1.8v204.6h3.5V67.2C71.7,66.2,70.9,65.4,69.9,65.4z"/>
		<circle fill="#CFDADA" cx="69.9" cy="55.9" r="4.1"/>
		<path fill="#D6E1E1" d="M37.7,84.8l22,3c0.7,0.1,1.3-0.4,1.3-1.1V72.8c0-0.7-0.6-1.2-1.3-1.1l-22,3c-0.6,0.1-1,0.5-1,1.1v7.8
			C36.8,84.2,37.2,84.7,37.7,84.8z"/>
		<rect x="68.2" y="69.7" fill="#D6E1E1" width="3.5" height="20.1"/>
		<rect x="61" y="79.2" fill="#CFDADA" width="7.1" height="1.2"/>
		<g>
			<path fill="#D6E1E1" d="M102.1,84.8l-22,3c-0.7,0.1-1.3-0.4-1.3-1.1V72.8c0-0.7,0.6-1.2,1.3-1.1l22,3c0.6,0.1,1,0.5,1,1.1v7.8
				C103.1,84.2,102.7,84.7,102.1,84.8z"/>

				<rect x="71.7" y="79.2" transform="matrix(-1 -4.202162e-11 4.202162e-11 -1 150.5046 159.5344)" fill="#CFDADA" width="7.1" height="1.2"/>
		</g>
		<rect x="69.3" y="71.7" fill="#E9F5F4" width="1" height="16.1"/>
		<path fill="#B9C3C3" d="M77.8,251.2H62c-0.6,0-1-0.4-1-1v-2c0-0.6,0.4-1,1-1h15.8c0.6,0,1,0.4,1,1v2
			C78.8,250.7,78.4,251.2,77.8,251.2z"/>
		<path fill="#B9C3C3" d="M77.8,187.7H62c-0.6,0-1-0.4-1-1v-2c0-0.6,0.4-1,1-1h15.8c0.6,0,1,0.4,1,1v2
			C78.8,187.3,78.4,187.7,77.8,187.7z"/>
	</g>
	<g>

			<rect x="48.5" y="500" transform="matrix(0.1788 -0.9839 0.9839 0.1788 -451.0385 462.1008)" fill="#CFDADA" width="5.5" height="2.4"/>
		<path fill="#B7C1C1" d="M58.6,450.2l-9,49.7c-0.2,0.8,0.4,1.7,1.3,1.8l0.8,0.1c0.8,0.2,1.7-0.4,1.8-1.3l9-49.7
			c0.2-0.8-0.4-1.7-1.3-1.8l-0.8-0.1C59.6,448.8,58.7,449.3,58.6,450.2z"/>
		<path fill="#CFDADA" d="M61.6,459.1l-5.6-1c-0.4-0.1-0.8,0.2-0.9,0.6l-7,38.7c-0.1,0.4,0.2,0.8,0.6,0.9l5.6,1
			c0.4,0.1,0.8-0.2,0.9-0.6l7-38.7C62.3,459.6,62,459.2,61.6,459.1z"/>
		<path fill="#CFDADA" d="M56.3,452.2l-0.3,1.5c-0.1,0.4,0.2,0.8,0.6,0.9l5.6,1c0.4,0.1,0.8-0.2,0.9-0.6l0.3-1.5
			c0.1-0.4-0.2-0.8-0.6-0.9l-5.6-1C56.8,451.5,56.4,451.8,56.3,452.2z"/>
		<path fill="#B7C1C1" d="M48.9,503.6L48.9,503.6c0.1-0.4,0.5-0.7,0.9-0.6l2.4,0.4c0.4,0.1,0.7,0.5,0.6,0.9l0,0
			c-0.1,0.4-0.5,0.7-0.9,0.6l-2.4-0.4C49.1,504.5,48.8,504,48.9,503.6z"/>
		<g>
			<g>
				<path fill="#CFDADA" d="M63,441.1l-1.9-0.3c-0.6-0.1-1.2,0.1-1.6,0.6l-1.5,2c0,0.1-0.1,0.1-0.1,0.2c-0.1,0.1-0.1,0.3-0.2,0.4
					l-0.7,4.1c-0.2,0.8,0.4,1.7,1.3,1.8l4,0.7c0.8,0.2,1.7-0.4,1.8-1.3l0.7-4.1c0-0.2,0-0.3,0-0.5c0-0.1,0-0.1,0-0.2l-0.7-2.4
					C64.1,441.7,63.6,441.2,63,441.1z"/>
			</g>
			<path fill="#E0EBEB" d="M64.9,444.9l-7-1.3c-0.1,0.1-0.1,0.3-0.2,0.4l-0.7,3.9l7.1,1.3l0.7-3.9C64.9,445.2,64.9,445,64.9,444.9z"
				/>
		</g>
	</g>
	<g>
		<path fill="#B7C1C1" d="M75.5,436.6l4.9,42.8l1-0.1l-4.9-42.8c0-0.3-0.3-0.5-0.6-0.5l0,0C75.7,436.1,75.5,436.3,75.5,436.6z"/>
		<path fill="#CFDADA" d="M78.7,473.8l4.1,36.3c0.1,0.8,0.8,1.4,1.7,1.3l0,0c0.8-0.1,1.4-0.8,1.3-1.7l-4.1-36.3L78.7,473.8z"/>

			<rect x="73.6" y="445.3" transform="matrix(-0.1129 -0.9936 0.9936 -0.1129 -358.1006 573.9684)" fill="#CFDADA" width="7.1" height="3"/>
		<path fill="#CFDADA" d="M70.1,442.7L70.1,442.7c-0.5,0.1-0.8,0.5-0.7,0.9c0.7,3.1,3.4,5.4,6.5,5.7c0.3,0,0.7,0,1,0
			c0.2,0,0.3,0,0.5,0c0.2,0,0.3,0,0.5-0.1c0.3-0.1,0.7-0.1,1-0.3c3-1,5.1-3.8,5.1-7c0,0,0-0.1,0-0.1c0-0.4-0.4-0.7-0.9-0.7
			c-0.4,0-0.7,0.4-0.7,0.8c0,2.4-1.5,4.5-3.7,5.4c-0.3,0.1-0.6,0.2-1,0.3c-0.2,0-0.3,0.1-0.5,0.1c-0.2,0-0.4,0-0.5,0
			c-0.3,0-0.7,0-1-0.1c-2.3-0.4-4.3-2.1-4.8-4.4C70.8,442.9,70.5,442.6,70.1,442.7z"/>
	</g>
	<g>
		<path fill="#F4A57D" d="M751.3,487.9L751.3,487.9c-6.1,0-11-4.9-11-11v-21.5c0-6.1,4.9-11,11-11l0,0c6.1,0,11,4.9,11,11V477
			C762.3,483,757.4,487.9,751.3,487.9z"/>
		<path fill="#F4B28F" d="M749.2,478.4L749.2,478.4c-4.1,0-7.4-3.3-7.4-7.4v-14.6c0-4.1,3.3-7.4,7.4-7.4h0c4.1,0,7.4,3.3,7.4,7.4
			v14.6C756.7,475,753.3,478.4,749.2,478.4z"/>
		<g>
			<path fill="#FFEDDD" d="M765.7,461.8H737c-0.4,0-0.7-0.3-0.7-0.7v-3.3c0-0.4,0.3-0.7,0.7-0.7h28.7c0.4,0,0.7,0.3,0.7,0.7v3.3
				C766.4,461.4,766.1,461.8,765.7,461.8z"/>
			<path fill="#FFEDDD" d="M765.7,473.1H737c-0.4,0-0.7-0.3-0.7-0.7V469c0-0.4,0.3-0.7,0.7-0.7h28.7c0.4,0,0.7,0.3,0.7,0.7v3.3
				C766.4,472.7,766.1,473.1,765.7,473.1z"/>
		</g>
		<path fill="#FFF7F1" d="M751.3,493.9L751.3,493.9c-0.9,0-1.6-0.7-1.6-1.6v-2.9h3.3v2.9C752.9,493.2,752.2,493.9,751.3,493.9z"/>
		<path fill="#FFEDDD" d="M761,482.3c1,0,1.6,1.1,1,1.9c-2.3,3.4-6.3,5.7-10.7,5.7c-4.4,0-8.4-2.2-10.7-5.7c-0.6-0.8,0-1.9,1-1.9
			H761z"/>
	</g>
	<path fill="#FFEDDD" d="M754.9,445h-7.1v0c0-1.1,0.9-2,2-2h3C754,443,754.9,443.9,754.9,445L754.9,445z"/>
	<path fill="none" stroke="#CDDDDA" stroke-width="1.5002" stroke-miterlimit="10" d="M751.3,441.8v-42.3c0-12.6,5-24.7,13.9-33.6
		l14.5-14.5c0.6-0.6,0.9-1.3,0.9-2.1v-40.8c0-0.8-0.3-1.6-0.9-2.1l-9.1-9.1c-0.6-0.6-0.9-1.3-0.9-2.1v-14.1c0-1.7,1.3-3,3-3h6.5"/>
	<path fill="#B8C8C6" d="M751.3,439.9L751.3,439.9c-0.8,0-1.5,0.7-1.5,1.5v1.6h3v-1.6C752.8,440.6,752.1,439.9,751.3,439.9z"/>
	<g>
		<path fill="#FFF3E0" d="M633.1,185.6h6.4c0.5,0,0.9-0.2,1.3-0.5l12.9-12.9c0.3-0.3,0.5-0.8,0.5-1.3l0,0c0-1-0.8-1.8-1.8-1.8h-6.1
			c-3.2,0-6.2,1.3-8.4,3.5l-4.1,4.1c-1.9,1.9-2.8,4.6-2.5,7.3l0,0C631.4,184.9,632.2,185.6,633.1,185.6z"/>
		<circle fill="#FFF3E0" cx="651.9" cy="174.1" r="1.9"/>
		<circle fill="#FFF3E0" cx="648.8" cy="180.8" r="1.1"/>
		<circle fill="#FFF3E0" cx="657.6" cy="182.3" r="0.8"/>
		<circle fill="#FFF3E0" cx="661.3" cy="172.2" r="0.8"/>
		<circle fill="#FFF3E0" cx="671.7" cy="173.3" r="0.8"/>
		<circle fill="#FFF3E0" cx="658.8" cy="154.4" r="0.8"/>
	</g>
</g>
</svg>
